<?xml version="1.0" encoding="UTF-8" standalone="no"?>
<!-- Generator: flash2svg, http://dissentgraphics.com/tools/flash2svg -->

<svg
   xmlns:dc="http://purl.org/dc/elements/1.1/"
   xmlns:cc="http://creativecommons.org/ns#"
   xmlns:rdf="http://www.w3.org/1999/02/22-rdf-syntax-ns#"
   xmlns:svg="http://www.w3.org/2000/svg"
   xmlns="http://www.w3.org/2000/svg"
   xmlns:xlink="http://www.w3.org/1999/xlink"
   xmlns:sodipodi="http://sodipodi.sourceforge.net/DTD/sodipodi-0.dtd"
   xmlns:inkscape="http://www.inkscape.org/namespaces/inkscape"
   id="Drive-Internal"
   image-rendering="optimizeSpeed"
   version="1.1"
   style="background-color:#ffffff"
   x="0px"
   y="0px"
   width="1024px"
   height="1024px"
   viewBox="0 0 1024 1024"
   enable-background="new 0 0 1024 1024"
   inkscape:version="0.91 r"
   sodipodi:docname="drive-optical.svg">
  <metadata
     id="metadata26">
    <rdf:RDF>
      <cc:Work
         rdf:about="">
        <dc:format>image/svg+xml</dc:format>
        <dc:type
           rdf:resource="http://purl.org/dc/dcmitype/StillImage" />
        <dc:title />
      </cc:Work>
    </rdf:RDF>
  </metadata>
  <sodipodi:namedview
     pagecolor="#ffffff"
     bordercolor="#666666"
     borderopacity="1"
     objecttolerance="10"
     gridtolerance="10"
     guidetolerance="10"
     inkscape:pageopacity="0"
     inkscape:pageshadow="2"
     inkscape:window-width="965"
     inkscape:window-height="661"
     id="namedview24"
     showgrid="false"
     inkscape:zoom="0.4609375"
     inkscape:cx="851.98985"
     inkscape:cy="472.92007"
     inkscape:window-x="294"
     inkscape:window-y="64"
     inkscape:window-maximized="0"
     inkscape:current-layer="Drive-Internal" />
  <defs
     transform="matrix(1 0 0 1 0 0) "
     id="defs3">
    <linearGradient
       inkscape:collect="always"
       id="linearGradient3378">
      <stop
         style="stop-color:#374268;stop-opacity:1;"
         offset="0"
         id="stop3380" />
      <stop
         id="stop3386"
         offset="0.02869896"
         style="stop-color:#b7c4c8;stop-opacity:1" />
      <stop
         style="stop-color:#162d50;stop-opacity:1"
         offset="0.93507802"
         id="stop3388" />
      <stop
         style="stop-color:#374268;stop-opacity:0;"
         offset="1"
         id="stop3382" />
    </linearGradient>
    <linearGradient
       inkscape:collect="always"
       xlink:href="#linearGradient3378"
       id="linearGradient3384"
       x1="88.94915"
       y1="2.2737368e-13"
       x2="967.5932"
       y2="926.37286"
       gradientUnits="userSpaceOnUse" />
  </defs>
  <path
     id="path1"
     d="M 884.5,55.7 Q 869.85,41.05 849.15,41.05 l -674.2,0 c -13.8,0 -25.6,4.9 -35.35,14.65 -9.45,9.45 -14.35,20.85 -14.65,34.1 l 0,-0.025 0,724.575 c 0.3,13.25 5.2,24.6 14.65,34.05 9.75,9.75 21.55,14.65 35.35,14.65 l 674.2,0 c 13.8,0 25.6,-4.9 35.35,-14.65 9.45,-9.45 14.35,-20.8 14.65,-34.05 l 0,-724.575 0,0.025 c -0.3,-13.25 -5.2,-24.65 -14.65,-34.1 z"
     inkscape:connector-curvature="0"
     style="fill:url(#linearGradient3384);fill-opacity:1" />
  <path
     id="path2"
     d="m 139.6,848.4 c -9.45,-9.45 -14.35,-20.8 -14.65,-34.05 l 0,118.7 c 0,13.8 4.9,25.6 14.65,35.35 9.75,9.75 21.55,14.65 35.35,14.65 l 674.2,0 c 13.8,0 25.6,-4.9 35.35,-14.65 9.75,-9.75 14.65,-21.55 14.65,-35.35 l 0,-118.7 c -0.3,13.25 -5.2,24.6 -14.65,34.05 -9.75,9.75 -21.55,14.65 -35.35,14.65 l -674.2,0 c -13.8,0 -25.6,-4.9 -35.35,-14.65 z"
     inkscape:connector-curvature="0"
     style="fill:#86837c;fill-opacity:0.98823529" />
  <path
     id="path6"
     d="m 707.73898,644.1695 q 79.25,-79.25 79.25,-191.35 c 0,-74.75 -26.4,-138.5 -79.25,-191.35 -52.85,-52.85 -116.6,-79.25 -191.35,-79.25 -74.75,0 -138.5,26.4 -191.35,79.25 -52.85,52.85 -79.25,116.6 -79.25,191.35 0,74.75 26.4,138.5 79.25,191.35 52.85,52.85 116.6,79.25 191.35,79.25 74.75,0 138.5,-26.4 191.35,-79.25 z"
     inkscape:connector-curvature="0"
     style="fill:#dbe2e3;fill-opacity:0.09803922" />
  <g
     style="overflow:visible"
     overflow="visible"
     id="Symbole.__2026_1"
     transform="matrix(1.7675686,0,0,1,-103.09208,-4)">
    <g
       id="Calque.__208">
      <g
         id="shape17">
        <path
           style="fill:#3b3a36;fill-opacity:1"
           inkscape:connector-curvature="0"
           d="m 518,918 q 0,-8.3 -5.85,-14.15 C 508.25,899.95 503.55,898 498,898 l -302,0 c -5.55,0 -10.25,1.95 -14.15,5.85 -3.9,3.9 -5.85,8.6 -5.85,14.15 l 0,8.2 c 0,5.55 1.95,10.25 5.85,14.15 3.9,3.9 8.6,5.85 14.15,5.85 l 302,0 c 5.55,0 10.25,-1.95 14.15,-5.85 3.9,-3.9 5.85,-8.6 5.85,-14.15 l 0,-8.2 z"
           id="path11" />
      </g>
    </g>
  </g>
</svg>
