<?xml version="1.0" encoding="UTF-8" standalone="no"?>
<!-- Created with Inkscape (http://www.inkscape.org/) -->

<svg
   xmlns:dc="http://purl.org/dc/elements/1.1/"
   xmlns:cc="http://creativecommons.org/ns#"
   xmlns:rdf="http://www.w3.org/1999/02/22-rdf-syntax-ns#"
   xmlns:svg="http://www.w3.org/2000/svg"
   xmlns="http://www.w3.org/2000/svg"
   xmlns:xlink="http://www.w3.org/1999/xlink"
   xmlns:sodipodi="http://sodipodi.sourceforge.net/DTD/sodipodi-0.dtd"
   xmlns:inkscape="http://www.inkscape.org/namespaces/inkscape"
   width="64"
   version="1.1"
   height="64"
   id="svg2"
   inkscape:version="0.91 r13725"
   sodipodi:docname="folder-ebook.svg">
  <sodipodi:namedview
     pagecolor="#ffffff"
     bordercolor="#666666"
     borderopacity="1"
     objecttolerance="10"
     gridtolerance="10"
     guidetolerance="10"
     inkscape:pageopacity="0"
     inkscape:pageshadow="2"
     inkscape:window-width="1366"
     inkscape:window-height="699"
     id="namedview21"
     showgrid="true"
     inkscape:zoom="16.645309"
     inkscape:cx="33.898305"
     inkscape:cy="27.193841"
     inkscape:window-x="0"
     inkscape:window-y="0"
     inkscape:window-maximized="1"
     inkscape:current-layer="layer1">
    <inkscape:grid
       type="xygrid"
       id="grid4149" />
  </sodipodi:namedview>
  <defs
     id="defs5455">
    <linearGradient
       inkscape:collect="always"
       id="linearGradient4178"
       xlink:href="#linearGradient4172-5"
       y1="541.79797"
       y2="499.78421"
       gradientUnits="userSpaceOnUse"
       x2="0"
       gradientTransform="matrix(1 0 0 0.99967455 0 0.17645)" />
    <linearGradient
       inkscape:collect="always"
       id="linearGradient4172-5">
      <stop
         style="stop-color:#3daee9"
         id="stop4174-6" />
      <stop
         offset="1"
         style="stop-color:#6cc1ef"
         id="stop4176-6" />
    </linearGradient>
  </defs>
  <metadata
     id="metadata5458">
    <rdf:RDF>
      <cc:Work
         rdf:about="">
        <dc:format>image/svg+xml</dc:format>
        <dc:type
           rdf:resource="http://purl.org/dc/dcmitype/StillImage" />
      </cc:Work>
    </rdf:RDF>
  </metadata>
  <g
     inkscape:label="Capa 1"
     inkscape:groupmode="layer"
     id="layer1"
     transform="matrix(1 0 0 1 -384.57143 -483.798)">
    <g
       inkscape:label="Capa 1"
       id="layer1-8"
       transform="matrix(1 0 0 1 0 0.000005)">
      <path
         inkscape:connector-curvature="0"
         style="fill:#147eb8"
         id="rect4180"
         d="m 388.57143,489.79812 0,5 0,22 c 0,0.55373 0.446,1 1,1 l 54,0 c 0.55399,0 1,-0.44627 1,-1 l 0,-21.99023 c 0,-0.003 -0.002,-0.006 -0.002,-0.01 l 0.002,0 0,-1 -28,0 -4,-4 -24,0 z" />
      <path
         inkscape:connector-curvature="0"
         style="fill:url(#linearGradient4178)"
         id="rect4113"
         d="m 410.57143,499.79812 -4,4 -19,0 0,1 0.002,0 c -5e-5,0.004 -0.002,0.008 -0.002,0.0117 l 0,35.98828 0,1 1,0 56,0 1,0 0,-1 0,-35.98828 0,-0.0117 0,-5 z" />
      <path
         inkscape:connector-curvature="0"
         style="fill:#ffffff;fill-opacity:0.235294;fill-rule:evenodd"
         id="path4224"
         d="m 387.57144,503.79812 0,1 19.99999,0 3,-5 -4,4 z" />
      <path
         inkscape:connector-curvature="0"
         style="fill-opacity:0.235294;fill-rule:evenodd"
         id="path4228"
         d="m 388.57143,502.79812 0,1 18,0 4,-4 -6,3 z" />
      <path
         inkscape:connector-curvature="0"
         style="fill-opacity:0.235294"
         id="path4151-2"
         d="m 387.57143,540.7981 0,1 1,0 56,0 1,0 0,-1 -1,0 -56,0 -1,0 z" />
      <path
         inkscape:connector-curvature="0"
         style="fill:#ffffff;fill-opacity:0.235294;fill-rule:evenodd"
         id="path4196"
         d="m 28,6 3,5 2,0 27,0 0,-1 -27,0 -1,0 z"
         transform="matrix(1 0 0 1 384.57143 483.798)" />
    </g>
    <g
       transform="matrix(0.02452203,0,0,0.02452203,404.3128,508.51427)"
       id="g6"
       style="fill:#1272a5;fill-opacity:1">
      <path
         inkscape:connector-curvature="0"
         d="m 948.3,906.9 c 0,0 -119.3,-23.3 -229.3,-23.3 -108.9,0 -208.5,23.3 -208.5,23.3 -3.6,0 -7.1,-0.7 -10.4,-1.7 -3.3,1 -6.8,1.7 -10.4,1.7 0,0 -119.3,-23.3 -229.3,-23.3 -108.9,0 -208.5,23.3 -208.5,23.3 -23,0 -41.7,-20.8 -41.7,-46.6 l 0,-674.3 c 0,31 24.8,-93 259.4,-93 131.9,0 197.9,38.1 230.6,66.8 32.6,-28.7 98,-66.8 228.1,-66.8 238,0 261.9,124 261.9,93 l 0,674.3 c -0.2,25.8 -18.9,46.6 -41.9,46.6 l 0,0 z M 468.7,232.6 c 0,0 -41.7,-69.7 -208.5,-69.7 -139,0 -187.6,69.7 -187.6,69.7 l 0,581.3 c 0,25.7 18.7,23.3 41.7,23.3 0,0 71.5,-23.3 146,-23.3 81.6,0 166.8,23.3 166.8,23.3 23,0 41.7,2.4 41.7,-23.3 l 0,-581.3 -0.1,0 z m 458.7,0 c 0,0 -23.3,-38.8 -104.3,-58.5 l 0,360.8 -83.4,-69.8 -83.4,69.8 0,-366.7 C 565,184.4 531.2,232.6 531.2,232.6 l 0,581.3 c 0,25.7 18.7,23.3 41.7,23.3 0,0 71.5,-23.3 146,-23.3 81.6,0 166.8,23.3 166.8,23.3 23,0 41.7,2.4 41.7,-23.3 l 0,-581.3 0,0 z m -563,418.5 -187.6,0 c -11.5,0 -20.9,-10.4 -20.9,-23.3 l 0,-23.3 c 0,-12.9 9.4,-23.3 20.9,-23.3 l 187.6,0 c 11.5,0 20.9,10.4 20.9,23.3 l 0,23.3 c 0,12.9 -9.3,23.3 -20.9,23.3 l 0,0 z m 0,-209.2 -187.6,0 c -11.5,0 -20.9,-10.4 -20.9,-23.2 l 0,-23.3 c 0,-12.8 9.4,-23.3 20.9,-23.3 l 187.6,0 c 11.5,0 20.9,10.4 20.9,23.3 l 0,23.3 c 0,12.8 -9.3,23.2 -20.9,23.2 l 0,0 z"
         id="path8"
         style="fill:#1272a5;fill-opacity:1" />
    </g>
  </g>
</svg>
