<?xml version="1.0" encoding="UTF-8" standalone="no"?>
<svg
   xmlns:dc="http://purl.org/dc/elements/1.1/"
   xmlns:cc="http://creativecommons.org/ns#"
   xmlns:rdf="http://www.w3.org/1999/02/22-rdf-syntax-ns#"
   xmlns:svg="http://www.w3.org/2000/svg"
   xmlns="http://www.w3.org/2000/svg"
   xmlns:sodipodi="http://sodipodi.sourceforge.net/DTD/sodipodi-0.dtd"
   xmlns:inkscape="http://www.inkscape.org/namespaces/inkscape"
   id="svg2"
   viewBox="0 0 512 512"
   height="100%"
   width="100%"
   version="1.1"
   sodipodi:docname="folder-publicshare.svg"
   inkscape:version="0.92.1 r">
  <sodipodi:namedview
     pagecolor="#ffffff"
     bordercolor="#666666"
     borderopacity="1"
     objecttolerance="10"
     gridtolerance="10"
     guidetolerance="10"
     inkscape:pageopacity="0"
     inkscape:pageshadow="2"
     inkscape:window-width="1238"
     inkscape:window-height="703"
     id="namedview44"
     showgrid="false"
     inkscape:zoom="0.4609375"
     inkscape:cx="141.01695"
     inkscape:cy="272.27119"
     inkscape:window-x="230"
     inkscape:window-y="102"
     inkscape:window-maximized="0"
     inkscape:current-layer="svg2" />
  <metadata
     id="metadata565">
    <rdf:RDF>
      <cc:Work
         rdf:about="">
        <dc:format>image/svg+xml</dc:format>
        <dc:type
           rdf:resource="http://purl.org/dc/dcmitype/StillImage" />
      </cc:Work>
    </rdf:RDF>
  </metadata>
  <defs
     id="defs4">
    <linearGradient
       gradientUnits="userSpaceOnUse"
       id="0-9"
       y2="453.23999"
       x2="0"
       y1="121.74"
       gradientTransform="translate(0.00121,5e-4)">
      <stop
         offset="0"
         style="stop-color:#6a6a6a;stop-opacity:1"
         id="stop7-7" />
      <stop
         offset="0.47"
         style="stop-color:#000000;stop-opacity:1"
         id="stop9-6" />
      <stop
         offset="0.49399999"
         style="stop-color:#ffffff;stop-opacity:1"
         id="stop11-6" />
      <stop
         offset="0.90100002"
         style="stop-color:#ffffff;stop-opacity:1"
         id="stop13-6" />
      <stop
         offset="0.95499998"
         style="stop-color:#000000;stop-opacity:1"
         id="stop15-9" />
      <stop
         offset="1"
         style="stop-color:#000000;stop-opacity:1"
         id="stop17-9" />
    </linearGradient>
  </defs>
  <g
     style="fill-rule:evenodd"
     id="g113"
     transform="translate(0.00121,5e-4)">
    <path
       style="fill:#cccccc"
       id="path115"
       d="m 108.63,57.37 c -7.963,0 -15.228,2.293 -20.693,6.22 -4.545,3.266 -7.751,7.872 -8.752,13.13 l -11.909,0 c -16.447,0 -29.883,13.03 -29.883,29.2 l 0,66.736 c 0,16.17 13.436,29.19 29.883,29.19 l 377.47,0 c 16.447,0 29.883,-13.03 29.883,-29.19 l 0,-66.736 c 0,-16.17 -13.436,-29.2 -29.883,-29.2 l -262.91,0 c -1,-5.256 -4.208,-9.862 -8.753,-13.13 -5.465,-3.927 -12.73,-6.22 -20.693,-6.22 l -43.761,0" />
    <path
       style="fill:#6997c7"
       id="path117"
       d="m 37.36,118.46 c -19.928,0 -38.06,15.818 -36.23,35.853 l 24.26,265.41 c 1.733,18.966 16.271,34.947 36.2,34.947 l 383.41,0 c 19.933,0 34.1,-16.05 36.2,-34.853 l 29.632,-265.41 c 1.123,-10.05 -3.137,-19.263 -9.971,-25.663 -6.833,-6.399 -16.258,-10.284 -26.22,-10.284 l -437.27,0" />
  </g>
  <path
     style="opacity:1;fill:#e4c844"
     id="path119"
     d="m 37.37221,118.4605 c -19.928,0 -38.08,15.84 -36.25,35.875 l 11.781,128.78 12.469,136.63 c 1.733,18.966 16.29,34.938 36.22,34.938 H 445.0022 c 19.933,0 34.09,-16.04 36.19,-34.844 l 15.281,-136.72 14.375,-128.69 c 1.123,-10.05 -3.135,-19.287 -9.969,-25.688 -6.833,-6.399 -16.257,-10.281 -26.22,-10.281 H 37.37921"
     inkscape:connector-curvature="0" />
  <g
     style="fill:#dcb42c;fill-rule:evenodd"
     id="g121"
     transform="matrix(1,0,0,1.0054589,0.00121,-2.4817354)">
    <path
       style="opacity:0;fill:#dcb42c"
       id="path123"
       d="m 37.35,118.45 c -6.165,0 -12.154,1.503 -17.438,4.188 l 332.06,332.03 h 28.25 L 44.032,118.448 h -6.688 m 34.969,0 336.22,336.22 h 28.28 l -336.22,-336.22 h -28.28 m 56.59,0 332.25,332.28 c 5.997,-3.165 10.884,-8.06 14.375,-13.938 L 157.158,118.45 h -28.25 m 56.56,0 296.28,296.31 2.844,-25.469 -270.87,-270.84 h -28.25 m 56.56,0 245.41,245.44 2.844,-25.469 -220,-219.97 h -28.25 m 56.56,0 194.53,194.53 2.844,-25.438 -169.12,-169.09 H 298.6 m 56.56,0 143.63,143.63 2.844,-25.438 -118.19,-118.19 h -28.28 m 56.56,0 92.75,92.75 2.844,-25.438 -67.28,-67.31 h -28.313 m 56.59,0 41.844,41.844 0.656,-5.875 c 1.123,-10.05 -3.134,-19.288 -9.969,-25.688 -6.833,-6.399 -16.252,-10.281 -26.22,-10.281 h -6.313 M 5.253,136.239 c -3.108,5.286 -4.73,11.464 -4.125,18.09 l 0.625,6.719 293.66,293.63 h 28.25 L 5.253,136.238 m -0.656,55.906 2.844,31.13 231.41,231.41 h 28.25 L 4.601,192.154 m 5.688,62.25 2.844,31.13 169.16,169.16 h 28.25 L 10.293,254.414 m 5.688,62.28 2.844,31.13 106.88,106.88 h 28.28 l -138,-138 m 5.688,62.25 2.844,31.13 44.625,44.625 h 28.28 l -75.75,-75.75"
       inkscape:connector-curvature="0" />
    <path
       style="opacity:0.76399997;fill:#dcb42c"
       id="path125"
       d="m 108.55,57.29 c -7.963,0 -15.11,2.403 -20.572,6.33 -4.545,3.266 -7.702,7.931 -8.703,13.187 h -12.13 c -17.677,0 -29.802,12.771 -29.802,30.661 v 3.956 c 0,-16.17 13.355,-29.27 29.802,-29.27 h 14.286 c 1,-5.256 2,-9.657 6.549,-12.923 5.465,-3.927 12.609,-6.33 20.572,-6.33 h 43.78 c 7.963,0 15.371,2.403 20.835,6.33 4.545,3.266 5.766,7.668 6.769,12.923 h 264.88 c 16.447,0 29.802,11.455 29.802,27.625 v -3.956 c 0,-16.17 -13.355,-29.01 -29.802,-29.01 h -262.95 c -1,-5.256 -4.159,-9.921 -8.703,-13.187 -5.465,-3.927 -12.872,-6.33 -20.835,-6.33 z"
       inkscape:connector-curvature="0" />
    <path
       style="opacity:0.4;fill:#dcb42c"
       id="path127"
       d="m 37.35,118.45 c -19.928,0 -38.05,15.84 -36.22,35.875 l 0.406,4.375 c 3,-15.936 18.732,-27.563 35.813,-27.563 h 437.28 c 9.966,0 19.386,3.882 26.22,10.281 4.736,4.435 8.234,10.208 9.563,16.688 l 0.406,-3.688 c 1.123,-10.05 -3.134,-19.288 -9.969,-25.688 -6.833,-6.399 -16.252,-10.281 -26.22,-10.281 H 37.349"
       inkscape:connector-curvature="0" />
  </g>
  <g
     style="fill:#000000"
     id="g515"
     transform="translate(0.00121,5e-4)">
    <text
       style="font-size:100px;line-height:125%;font-family:'Gentium Book Basic';letter-spacing:0;word-spacing:0"
       id="text517"
       y="321.81"
       x="-90.110001">
      <tspan
         id="tspan519"
         y="321.81"
         x="-90.110001" />
    </text>
    <text
       style="font-size:36.33000183px;font-family:Arial;text-anchor:middle"
       id="text521"
       transform="scale(4.0128,0.2492)"
       y="1021.17"
       x="130.05" />
    <text
       style="font-size:100px;line-height:125%;font-family:'Gentium Book Basic';letter-spacing:0;word-spacing:0"
       id="text523"
       y="259.89999"
       x="359.69">
      <tspan
         id="tspan525"
         y="259.89999"
         x="359.69" />
    </text>
    <text
       style="font-size:36.33000183px;font-family:Arial;text-anchor:middle"
       id="text527"
       transform="scale(4.0128,0.2492)"
       y="772.73999"
       x="242.14" />
    <text
       style="font-size:100px;line-height:125%;font-family:'Gentium Book Basic';letter-spacing:0;word-spacing:0"
       id="text529"
       y="419.79999"
       x="-752.69">
      <tspan
         id="tspan531"
         y="419.79999"
         x="-752.69" />
    </text>
    <text
       style="font-size:36.33000183px;font-family:Arial;text-anchor:middle"
       id="text533"
       transform="scale(4.0128,0.2492)"
       y="1414.4"
       x="-35.060001" />
    <text
       style="font-size:100px;line-height:125%;font-family:'Gentium Book Basic';letter-spacing:0;word-spacing:0"
       id="text535"
       y="252.28"
       x="97.019997">
      <tspan
         id="tspan537"
         y="252.28"
         x="97.019997" />
    </text>
    <text
       style="font-size:36.33000183px;font-family:Arial;text-anchor:middle"
       id="text539"
       transform="scale(4.0128,0.2492)"
       y="742.17999"
       x="176.69" />
    <text
       style="font-size:100px;line-height:125%;font-family:'Gentium Book Basic';letter-spacing:0;word-spacing:0"
       id="text541"
       y="190.37"
       x="546.83002">
      <tspan
         id="tspan543"
         y="190.37"
         x="546.83002" />
    </text>
    <text
       style="font-size:36.33000183px;font-family:Arial;text-anchor:middle"
       id="text545"
       transform="scale(4.0128,0.2492)"
       y="493.75"
       x="288.78" />
    <text
       style="font-size:100px;line-height:125%;font-family:'Gentium Book Basic';letter-spacing:0;word-spacing:0"
       id="text547"
       y="-175.19"
       x="245.71001">
      <tspan
         id="tspan549"
         y="-175.19"
         x="245.71001" />
    </text>
    <text
       style="font-size:36.33000183px;font-family:Arial;text-anchor:middle"
       id="text551"
       transform="scale(4.0128,0.2492)"
       y="-973.17999"
       x="213.74001" />
    <text
       style="font-size:100px;line-height:125%;font-family:'Gentium Book Basic';letter-spacing:0;word-spacing:0"
       id="text553"
       y="-237.10001"
       x="695.52002">
      <tspan
         id="tspan555"
         y="-237.10001"
         x="695.52002" />
    </text>
    <text
       style="font-size:36.33000183px;font-family:Arial;text-anchor:middle"
       id="text557"
       transform="scale(4.0128,0.2492)"
       y="-1221.61"
       x="325.82999" />
    <path
       style="fill-opacity:0.23500001;fill-rule:evenodd"
       id="path559"
       d="m 256,161.56 c -69.04,0 -125,55.964 -125,125 l 0,0.031 c 0,34.771 14.179,66.22 37.09,88.88 0.165,0.167 0.334,0.334 0.5,0.5 0.116,0.113 0.228,0.231 0.344,0.344 0.428,0.435 0.878,0.853 1.313,1.281 0.115,0.116 0.229,0.229 0.344,0.344 0.047,0.046 0.109,0.079 0.156,0.125 0.285,0.291 0.556,0.587 0.844,0.875 0.048,0.046 0.108,0.079 0.156,0.125 0.283,0.289 0.558,0.589 0.844,0.875 0.437,0.447 0.869,0.904 1.313,1.344 0.33,0.335 0.666,0.669 1,1 0.33,0.335 0.666,0.669 1,1 0.428,0.435 0.878,0.853 1.313,1.281 0.115,0.116 0.229,0.229 0.344,0.344 0.047,0.046 0.109,0.079 0.156,0.125 0.061,0.063 0.127,0.124 0.188,0.188 0.223,0.227 0.431,0.462 0.656,0.688 0.005,0.005 0.026,-0.005 0.031,0 0.009,0.009 0.022,0.022 0.031,0.031 0.053,0.051 0.103,0.105 0.156,0.156 0.261,0.265 0.518,0.549 0.781,0.813 0.437,0.447 0.869,0.904 1.313,1.344 0.33,0.335 0.666,0.669 1,1 0.428,0.435 0.878,0.853 1.313,1.281 0.115,0.116 0.229,0.229 0.344,0.344 0.047,0.046 0.109,0.079 0.156,0.125 0.285,0.291 0.556,0.587 0.844,0.875 0.026,0.026 0.067,0.037 0.094,0.063 0.043,0.041 0.082,0.084 0.125,0.125 0.263,0.267 0.516,0.547 0.781,0.813 0.437,0.447 0.869,0.904 1.313,1.344 0.33,0.335 0.666,0.669 1,1 0.428,0.435 0.878,0.853 1.313,1.281 0.115,0.116 0.229,0.229 0.344,0.344 0.047,0.046 0.109,0.079 0.156,0.125 0.285,0.291 0.556,0.587 0.844,0.875 0.016,0.015 0.047,0.016 0.063,0.031 0.053,0.051 0.103,0.105 0.156,0.156 0.263,0.267 0.516,0.547 0.781,0.813 0.437,0.447 0.869,0.904 1.313,1.344 0.33,0.335 0.666,0.669 1,1 0.428,0.435 0.878,0.853 1.313,1.281 0.115,0.116 0.229,0.229 0.344,0.344 0.047,0.046 0.109,0.079 0.156,0.125 0.285,0.291 0.556,0.587 0.844,0.875 0.048,0.046 0.108,0.079 0.156,0.125 0.061,0.063 0.127,0.124 0.188,0.188 0.222,0.225 0.433,0.464 0.656,0.688 0.047,0.045 0.109,0.08 0.156,0.125 0.281,0.287 0.56,0.591 0.844,0.875 0.437,0.447 0.869,0.904 1.313,1.344 0.33,0.335 0.666,0.669 1,1 0.428,0.435 0.878,0.853 1.313,1.281 0.115,0.116 0.229,0.229 0.344,0.344 0.047,0.046 0.109,0.079 0.156,0.125 0.285,0.291 0.556,0.587 0.844,0.875 0.016,0.015 0.047,0.016 0.063,0.031 0.053,0.051 0.103,0.105 0.156,0.156 0.263,0.267 0.516,0.547 0.781,0.813 0.437,0.447 0.869,0.904 1.313,1.344 0.33,0.335 0.666,0.669 1,1 0.428,0.435 0.878,0.853 1.313,1.281 0.115,0.116 0.229,0.229 0.344,0.344 0.047,0.046 0.109,0.079 0.156,0.125 0.285,0.291 0.556,0.587 0.844,0.875 0.026,0.026 0.067,0.037 0.094,0.063 0.043,0.041 0.082,0.084 0.125,0.125 0.263,0.267 0.516,0.547 0.781,0.813 0.437,0.447 0.869,0.904 1.313,1.344 0.33,0.335 0.666,0.669 1,1 0.428,0.435 0.878,0.853 1.313,1.281 0.115,0.116 0.229,0.229 0.344,0.344 0.047,0.046 0.109,0.079 0.156,0.125 0.285,0.291 0.556,0.587 0.844,0.875 0.016,0.015 0.047,0.016 0.063,0.031 0.053,0.051 0.103,0.105 0.156,0.156 0.263,0.267 0.516,0.547 0.781,0.813 0.437,0.447 0.869,0.904 1.313,1.344 0.33,0.335 0.666,0.669 1,1 0.428,0.435 0.878,0.853 1.313,1.281 0.115,0.116 0.229,0.229 0.344,0.344 0.047,0.046 0.109,0.079 0.156,0.125 0.056,0.059 0.1,0.129 0.156,0.188 0.229,0.232 0.457,0.457 0.688,0.688 0.048,0.046 0.108,0.079 0.156,0.125 0.061,0.063 0.127,0.124 0.188,0.188 0.223,0.227 0.431,0.462 0.656,0.688 0.026,0.026 0.067,0.037 0.094,0.063 0.043,0.041 0.082,0.084 0.125,0.125 0.261,0.265 0.518,0.549 0.781,0.813 0.437,0.447 0.869,0.904 1.313,1.344 0.33,0.335 0.666,0.669 1,1 0.428,0.435 0.878,0.853 1.313,1.281 0.115,0.116 0.229,0.229 0.344,0.344 0.047,0.046 0.109,0.079 0.156,0.125 0.285,0.291 0.556,0.587 0.844,0.875 0.016,0.015 0.047,0.016 0.063,0.031 0.053,0.051 0.103,0.105 0.156,0.156 0.263,0.267 0.516,0.547 0.781,0.813 0.437,0.447 0.869,0.904 1.313,1.344 0.33,0.335 0.666,0.669 1,1 0.428,0.435 0.878,0.853 1.313,1.281 0.115,0.116 0.229,0.229 0.344,0.344 0.047,0.046 0.109,0.079 0.156,0.125 0.285,0.291 0.556,0.587 0.844,0.875 0.026,0.026 0.067,0.037 0.094,0.063 0.043,0.041 0.082,0.084 0.125,0.125 0.263,0.267 0.516,0.547 0.781,0.813 0.437,0.447 0.869,0.904 1.313,1.344 0.33,0.335 0.666,0.669 1,1 0.428,0.435 0.878,0.853 1.313,1.281 0.115,0.116 0.229,0.229 0.344,0.344 0.047,0.046 0.109,0.079 0.156,0.125 0.285,0.291 0.556,0.587 0.844,0.875 0.048,0.046 0.108,0.079 0.156,0.125 0.283,0.289 0.558,0.589 0.844,0.875 0.437,0.447 0.869,0.904 1.313,1.344 0.33,0.335 0.666,0.669 1,1 0.33,0.335 0.666,0.669 1,1 0.428,0.435 0.878,0.853 1.313,1.281 0.115,0.116 0.229,0.229 0.344,0.344 0.047,0.046 0.109,0.079 0.156,0.125 0.061,0.063 0.127,0.124 0.188,0.188 0.223,0.227 0.431,0.462 0.656,0.688 0.026,0.026 0.067,0.037 0.094,0.063 0.021,0.02 0.042,0.041 0.063,0.063 l 197.63,0 c 19.933,0 34.09,-16.04 36.19,-34.844 l 8.531,-76.31 c -0.021,-0.021 -0.041,-0.042 -0.063,-0.063 -0.265,-0.265 -0.545,-0.519 -0.813,-0.781 -0.021,-0.021 -0.042,-0.041 -0.063,-0.063 -0.01,-0.01 -0.021,-0.021 -0.031,-0.031 -0.037,-0.036 -0.057,-0.089 -0.094,-0.125 -0.288,-0.288 -0.584,-0.559 -0.875,-0.844 -0.026,-0.027 -0.036,-0.067 -0.063,-0.094 -0.021,-0.021 -0.041,-0.042 -0.063,-0.063 -0.653,-0.667 -1.301,-1.347 -1.969,-2 -0.327,-0.327 -0.669,-0.645 -1,-0.969 -0.021,-0.021 -0.042,-0.041 -0.063,-0.063 -0.095,-0.092 -0.186,-0.189 -0.281,-0.281 -0.219,-0.217 -0.436,-0.44 -0.656,-0.656 -0.265,-0.265 -0.545,-0.519 -0.813,-0.781 -0.021,-0.021 -0.042,-0.041 -0.063,-0.063 -0.006,-0.006 0.006,-0.025 0,-0.031 -0.021,-0.021 -0.041,-0.042 -0.063,-0.063 -0.297,-0.311 -0.637,-0.598 -0.938,-0.906 -0.01,-0.011 -0.021,-0.021 -0.031,-0.031 -0.037,-0.036 -0.057,-0.089 -0.094,-0.125 -0.305,-0.319 -0.629,-0.622 -0.938,-0.938 -0.021,-0.021 -0.041,-0.042 -0.063,-0.063 -0.648,-0.662 -1.307,-1.321 -1.969,-1.969 -0.031,-0.032 -0.063,-0.062 -0.094,-0.094 -0.084,-0.082 -0.166,-0.168 -0.25,-0.25 -0.219,-0.217 -0.436,-0.44 -0.656,-0.656 -0.333,-0.333 -0.664,-0.671 -1,-1 -0.265,-0.265 -0.545,-0.519 -0.813,-0.781 -0.021,-0.021 -0.042,-0.041 -0.063,-0.063 -0.01,-0.01 -0.021,-0.021 -0.031,-0.031 -0.037,-0.036 -0.057,-0.089 -0.094,-0.125 -0.288,-0.288 -0.584,-0.559 -0.875,-0.844 -0.026,-0.027 -0.036,-0.067 -0.063,-0.094 -0.021,-0.021 -0.041,-0.042 -0.063,-0.063 -0.648,-0.662 -1.307,-1.321 -1.969,-1.969 -0.021,-0.021 -0.042,-0.041 -0.063,-0.063 -0.147,-0.144 -0.29,-0.294 -0.438,-0.438 -0.166,-0.164 -0.333,-0.337 -0.5,-0.5 -0.333,-0.333 -0.664,-0.671 -1,-1 -0.265,-0.265 -0.545,-0.519 -0.813,-0.781 -0.021,-0.021 -0.042,-0.041 -0.063,-0.063 -0.006,-0.006 0.006,-0.025 0,-0.031 -0.021,-0.021 -0.041,-0.042 -0.063,-0.063 -0.325,-0.34 -0.671,-0.663 -1,-1 -0.021,-0.021 -0.041,-0.042 -0.063,-0.063 -0.653,-0.667 -1.301,-1.347 -1.969,-2 -0.327,-0.327 -0.669,-0.645 -1,-0.969 -0.031,-0.032 -0.063,-0.062 -0.094,-0.094 -0.084,-0.082 -0.166,-0.168 -0.25,-0.25 -0.219,-0.217 -0.436,-0.44 -0.656,-0.656 -0.265,-0.265 -0.545,-0.519 -0.813,-0.781 -0.021,-0.021 -0.042,-0.041 -0.063,-0.063 -0.01,-0.01 -0.021,-0.021 -0.031,-0.031 -0.037,-0.036 -0.057,-0.089 -0.094,-0.125 -0.288,-0.288 -0.584,-0.559 -0.875,-0.844 -0.026,-0.027 -0.037,-0.067 -0.063,-0.094 -0.021,-0.021 -0.041,-0.042 -0.063,-0.063 -0.279,-0.292 -0.593,-0.554 -0.875,-0.844 -0.027,-0.026 -0.036,-0.068 -0.063,-0.094 -0.021,-0.021 -0.041,-0.042 -0.063,-0.063 -0.648,-0.662 -1.307,-1.321 -1.969,-1.969 -0.021,-0.021 -0.042,-0.041 -0.063,-0.063 -0.095,-0.092 -0.186,-0.189 -0.281,-0.281 -0.219,-0.217 -0.436,-0.44 -0.656,-0.656 -0.265,-0.265 -0.545,-0.519 -0.813,-0.781 -0.021,-0.021 -0.042,-0.041 -0.063,-0.063 -0.006,-0.006 0.006,-0.025 0,-0.031 -0.021,-0.021 -0.041,-0.042 -0.063,-0.063 -0.297,-0.311 -0.637,-0.598 -0.938,-0.906 -0.01,-0.011 -0.021,-0.021 -0.031,-0.031 -0.037,-0.036 -0.057,-0.089 -0.094,-0.125 -0.305,-0.319 -0.629,-0.622 -0.938,-0.938 -0.021,-0.021 -0.041,-0.042 -0.063,-0.063 -0.648,-0.662 -1.307,-1.321 -1.969,-1.969 -0.031,-0.032 -0.063,-0.062 -0.094,-0.094 -0.084,-0.082 -0.166,-0.168 -0.25,-0.25 -0.219,-0.217 -0.436,-0.44 -0.656,-0.656 -0.333,-0.333 -0.664,-0.671 -1,-1 -0.265,-0.265 -0.545,-0.519 -0.813,-0.781 -0.021,-0.021 -0.042,-0.041 -0.063,-0.063 -0.01,-0.01 -0.021,-0.021 -0.031,-0.031 -0.037,-0.036 -0.057,-0.089 -0.094,-0.125 -0.288,-0.288 -0.584,-0.559 -0.875,-0.844 -0.026,-0.027 -0.036,-0.067 -0.063,-0.094 -0.021,-0.021 -0.041,-0.042 -0.063,-0.063 -0.648,-0.662 -1.307,-1.321 -1.969,-1.969 -0.02,-0.021 -0.042,-0.041 -0.063,-0.063 -0.2,-0.195 -0.393,-0.4 -0.594,-0.594 -0.114,-0.113 -0.229,-0.232 -0.344,-0.344 -0.114,-0.116 -0.229,-0.228 -0.344,-0.344 -0.219,-0.217 -0.436,-0.44 -0.656,-0.656 -0.265,-0.265 -0.545,-0.519 -0.813,-0.781 -0.021,-0.021 -0.042,-0.041 -0.063,-0.063 -0.006,-0.006 0.006,-0.025 0,-0.031 -0.021,-0.021 -0.041,-0.042 -0.063,-0.063 -0.325,-0.34 -0.671,-0.663 -1,-1 -0.021,-0.021 -0.041,-0.042 -0.063,-0.063 -0.653,-0.667 -1.301,-1.347 -1.969,-2 -0.327,-0.327 -0.669,-0.645 -1,-0.969 -0.031,-0.032 -0.063,-0.062 -0.094,-0.094 -0.084,-0.082 -0.166,-0.168 -0.25,-0.25 -0.219,-0.217 -0.436,-0.44 -0.656,-0.656 -0.265,-0.265 -0.545,-0.519 -0.813,-0.781 -0.021,-0.021 -0.042,-0.041 -0.063,-0.063 -0.01,-0.01 -0.021,-0.021 -0.031,-0.031 -0.037,-0.036 -0.057,-0.089 -0.094,-0.125 -0.286,-0.286 -0.586,-0.561 -0.875,-0.844 -0.01,-0.011 -0.021,-0.021 -0.031,-0.031 -0.037,-0.036 -0.057,-0.089 -0.094,-0.125 -0.305,-0.319 -0.629,-0.622 -0.938,-0.938 -0.021,-0.021 -0.041,-0.042 -0.063,-0.063 -0.648,-0.662 -1.307,-1.321 -1.969,-1.969 -0.021,-0.021 -0.042,-0.041 -0.063,-0.063 -0.095,-0.092 -0.186,-0.189 -0.281,-0.281 -0.219,-0.217 -0.436,-0.44 -0.656,-0.656 -0.333,-0.333 -0.664,-0.671 -1,-1 -0.265,-0.265 -0.545,-0.519 -0.813,-0.781 -0.021,-0.021 -0.042,-0.041 -0.063,-0.063 -0.006,-0.006 0.006,-0.025 0,-0.031 -0.021,-0.021 -0.041,-0.042 -0.063,-0.063 -0.325,-0.34 -0.671,-0.663 -1,-1 -0.021,-0.021 -0.041,-0.042 -0.063,-0.063 -0.648,-0.662 -1.307,-1.321 -1.969,-1.969 -0.031,-0.032 -0.063,-0.062 -0.094,-0.094 -0.137,-0.133 -0.269,-0.273 -0.406,-0.406 -0.166,-0.164 -0.333,-0.337 -0.5,-0.5 -0.333,-0.333 -0.664,-0.671 -1,-1 -0.265,-0.265 -0.545,-0.519 -0.813,-0.781 -0.021,-0.021 -0.042,-0.041 -0.063,-0.063 -0.01,-0.01 -0.021,-0.021 -0.031,-0.031 -0.037,-0.036 -0.057,-0.089 -0.094,-0.125 -0.288,-0.288 -0.584,-0.559 -0.875,-0.844 -0.026,-0.027 -0.036,-0.067 -0.063,-0.094 -0.021,-0.021 -0.041,-0.042 -0.063,-0.063 -0.653,-0.667 -1.301,-1.347 -1.969,-2 -0.327,-0.327 -0.669,-0.645 -1,-0.969 -0.021,-0.021 -0.042,-0.041 -0.063,-0.063 -0.095,-0.092 -0.186,-0.189 -0.281,-0.281 -0.219,-0.217 -0.436,-0.44 -0.656,-0.656 -0.265,-0.265 -0.545,-0.519 -0.813,-0.781 -0.021,-0.021 -0.042,-0.041 -0.063,-0.063 -0.006,-0.006 0.006,-0.025 0,-0.031 -0.021,-0.021 -0.041,-0.042 -0.063,-0.063 -0.325,-0.34 -0.671,-0.663 -1,-1 -0.021,-0.021 -0.041,-0.042 -0.063,-0.063 -0.653,-0.667 -1.301,-1.347 -1.969,-2 -0.327,-0.327 -0.669,-0.645 -1,-0.969 -0.031,-0.032 -0.063,-0.062 -0.094,-0.094 -0.084,-0.082 -0.166,-0.168 -0.25,-0.25 -0.219,-0.217 -0.436,-0.44 -0.656,-0.656 -0.265,-0.265 -0.545,-0.519 -0.813,-0.781 -0.021,-0.021 -0.042,-0.041 -0.063,-0.063 -0.01,-0.01 -0.021,-0.021 -0.031,-0.031 -0.037,-0.036 -0.057,-0.089 -0.094,-0.125 -0.286,-0.286 -0.586,-0.561 -0.875,-0.844 -0.01,-0.011 -0.021,-0.021 -0.031,-0.031 -0.037,-0.036 -0.057,-0.089 -0.094,-0.125 -0.305,-0.319 -0.629,-0.622 -0.938,-0.938 -0.021,-0.021 -0.041,-0.042 -0.063,-0.063 -0.648,-0.662 -1.307,-1.321 -1.969,-1.969 -0.021,-0.021 -0.042,-0.041 -0.063,-0.063 -0.095,-0.092 -0.186,-0.189 -0.281,-0.281 -0.219,-0.217 -0.436,-0.44 -0.656,-0.656 -0.333,-0.333 -0.664,-0.671 -1,-1 -0.265,-0.265 -0.545,-0.519 -0.813,-0.781 -0.021,-0.021 -0.042,-0.041 -0.063,-0.063 -0.006,-0.006 0.006,-0.025 0,-0.031 -0.021,-0.021 -0.041,-0.042 -0.063,-0.063 -0.325,-0.34 -0.671,-0.663 -1,-1 -0.021,-0.021 -0.041,-0.042 -0.063,-0.063 -0.648,-0.662 -1.307,-1.321 -1.969,-1.969 -0.031,-0.032 -0.063,-0.062 -0.094,-0.094 -0.189,-0.185 -0.372,-0.379 -0.563,-0.563 -0.114,-0.113 -0.229,-0.232 -0.344,-0.344 -0.114,-0.116 -0.229,-0.228 -0.344,-0.344 -0.219,-0.217 -0.436,-0.44 -0.656,-0.656 -0.265,-0.265 -0.545,-0.519 -0.813,-0.781 -0.021,-0.021 -0.042,-0.041 -0.063,-0.063 -0.01,-0.01 -0.021,-0.021 -0.031,-0.031 -0.037,-0.036 -0.057,-0.089 -0.094,-0.125 -0.288,-0.288 -0.584,-0.559 -0.875,-0.844 -0.026,-0.027 -0.036,-0.067 -0.063,-0.094 -0.021,-0.021 -0.041,-0.042 -0.063,-0.063 -0.653,-0.667 -1.301,-1.347 -1.969,-2 -0.327,-0.327 -0.669,-0.645 -1,-0.969 -0.021,-0.021 -0.042,-0.041 -0.063,-0.063 -0.095,-0.092 -0.186,-0.189 -0.281,-0.281 -0.219,-0.217 -0.436,-0.44 -0.656,-0.656 -0.265,-0.265 -0.545,-0.519 -0.813,-0.781 -0.021,-0.021 -0.042,-0.041 -0.063,-0.063 -0.006,-0.006 0.006,-0.025 0,-0.031 -0.021,-0.021 -0.041,-0.042 -0.063,-0.063 -0.297,-0.311 -0.637,-0.598 -0.938,-0.906 -0.01,-0.011 -0.021,-0.021 -0.031,-0.031 -0.037,-0.036 -0.057,-0.089 -0.094,-0.125 -0.305,-0.319 -0.629,-0.622 -0.938,-0.938 -0.021,-0.021 -0.041,-0.042 -0.063,-0.063 -0.648,-0.662 -1.307,-1.321 -1.969,-1.969 -0.031,-0.032 -0.063,-0.062 -0.094,-0.094 -0.084,-0.082 -0.166,-0.168 -0.25,-0.25 -0.219,-0.217 -0.436,-0.44 -0.656,-0.656 -0.333,-0.333 -0.664,-0.671 -1,-1 -0.265,-0.265 -0.545,-0.519 -0.813,-0.781 -0.021,-0.021 -0.042,-0.041 -0.063,-0.063 -0.01,-0.01 -0.021,-0.021 -0.031,-0.031 -0.037,-0.036 -0.057,-0.089 -0.094,-0.125 -0.288,-0.288 -0.584,-0.559 -0.875,-0.844 -0.026,-0.027 -0.036,-0.067 -0.063,-0.094 -0.021,-0.021 -0.041,-0.042 -0.063,-0.063 -0.648,-0.662 -1.307,-1.321 -1.969,-1.969 -0.021,-0.021 -0.042,-0.041 -0.063,-0.063 -0.147,-0.144 -0.29,-0.294 -0.438,-0.438 -0.166,-0.164 -0.333,-0.337 -0.5,-0.5 -0.333,-0.333 -0.664,-0.671 -1,-1 -0.265,-0.265 -0.545,-0.519 -0.813,-0.781 -0.021,-0.021 -0.042,-0.041 -0.063,-0.063 -0.006,-0.006 0.006,-0.025 0,-0.031 -0.021,-0.021 -0.041,-0.042 -0.063,-0.063 -0.325,-0.34 -0.671,-0.663 -1,-1 -0.021,-0.021 -0.041,-0.042 -0.063,-0.063 -0.653,-0.667 -1.301,-1.347 -1.969,-2 -0.327,-0.327 -0.669,-0.645 -1,-0.969 -0.031,-0.032 -0.063,-0.062 -0.094,-0.094 -0.084,-0.082 -0.166,-0.168 -0.25,-0.25 -0.219,-0.217 -0.436,-0.44 -0.656,-0.656 -0.265,-0.265 -0.545,-0.519 -0.813,-0.781 -0.021,-0.021 -0.042,-0.041 -0.063,-0.063 -0.01,-0.01 -0.021,-0.021 -0.031,-0.031 -0.037,-0.036 -0.057,-0.089 -0.094,-0.125 -0.288,-0.288 -0.584,-0.559 -0.875,-0.844 -0.026,-0.027 -0.036,-0.067 -0.063,-0.094 -0.021,-0.021 -0.041,-0.042 -0.063,-0.063 -0.653,-0.667 -1.301,-1.347 -1.969,-2 -0.327,-0.327 -0.669,-0.645 -1,-0.969 -0.021,-0.021 -0.042,-0.041 -0.063,-0.063 -0.095,-0.092 -0.186,-0.189 -0.281,-0.281 -0.219,-0.217 -0.436,-0.44 -0.656,-0.656 -0.265,-0.265 -0.545,-0.519 -0.813,-0.781 -0.021,-0.021 -0.042,-0.041 -0.063,-0.063 -0.006,-0.006 0.006,-0.025 0,-0.031 -0.021,-0.021 -0.041,-0.042 -0.063,-0.063 -0.297,-0.311 -0.637,-0.598 -0.938,-0.906 -0.01,-0.011 -0.021,-0.021 -0.031,-0.031 -0.037,-0.036 -0.057,-0.089 -0.094,-0.125 -0.305,-0.319 -0.629,-0.622 -0.938,-0.938 -0.021,-0.021 -0.041,-0.042 -0.063,-0.063 -0.648,-0.662 -1.307,-1.321 -1.969,-1.969 -0.031,-0.032 -0.063,-0.062 -0.094,-0.094 -0.084,-0.082 -0.166,-0.168 -0.25,-0.25 -0.219,-0.217 -0.436,-0.44 -0.656,-0.656 -0.333,-0.333 -0.664,-0.671 -1,-1 -0.265,-0.265 -0.545,-0.519 -0.813,-0.781 -0.021,-0.021 -0.042,-0.041 -0.063,-0.063 -0.01,-0.01 -0.021,-0.021 -0.031,-0.031 -0.037,-0.036 -0.057,-0.089 -0.094,-0.125 -0.288,-0.288 -0.584,-0.559 -0.875,-0.844 -0.026,-0.027 -0.036,-0.067 -0.063,-0.094 -0.021,-0.021 -0.041,-0.042 -0.063,-0.063 -0.648,-0.662 -1.307,-1.321 -1.969,-1.969 -0.021,-0.021 -0.042,-0.041 -0.063,-0.063 -0.147,-0.144 -0.29,-0.294 -0.438,-0.438 -0.166,-0.164 -0.333,-0.337 -0.5,-0.5 -0.333,-0.333 -0.664,-0.671 -1,-1 -0.265,-0.265 -0.545,-0.519 -0.813,-0.781 -0.021,-0.021 -0.042,-0.041 -0.063,-0.063 -0.006,-0.006 0.006,-0.025 0,-0.031 -0.021,-0.021 -0.041,-0.042 -0.063,-0.063 -0.325,-0.34 -0.671,-0.663 -1,-1 -0.021,-0.021 -0.041,-0.042 -0.063,-0.063 -0.653,-0.667 -1.301,-1.347 -1.969,-2 -0.327,-0.327 -0.669,-0.645 -1,-0.969 -0.031,-0.032 -0.063,-0.062 -0.094,-0.094 -0.084,-0.082 -0.166,-0.168 -0.25,-0.25 -0.219,-0.217 -0.436,-0.44 -0.656,-0.656 -0.265,-0.265 -0.545,-0.519 -0.813,-0.781 -0.021,-0.021 -0.042,-0.041 -0.063,-0.063 -0.01,-0.01 -0.021,-0.021 -0.031,-0.031 -0.037,-0.036 -0.057,-0.089 -0.094,-0.125 -0.288,-0.288 -0.584,-0.559 -0.875,-0.844 -0.026,-0.027 -0.037,-0.067 -0.063,-0.094 -0.021,-0.021 -0.041,-0.042 -0.063,-0.063 -0.279,-0.292 -0.593,-0.554 -0.875,-0.844 -0.027,-0.026 -0.036,-0.068 -0.063,-0.094 -0.021,-0.021 -0.041,-0.042 -0.063,-0.063 -0.648,-0.662 -1.307,-1.321 -1.969,-1.969 -0.021,-0.021 -0.042,-0.041 -0.063,-0.063 -0.095,-0.092 -0.186,-0.189 -0.281,-0.281 -0.219,-0.217 -0.436,-0.44 -0.656,-0.656 -0.333,-0.333 -0.664,-0.671 -1,-1 -0.164,-0.168 -0.335,-0.333 -0.5,-0.5 -0.167,-0.165 -0.332,-0.336 -0.5,-0.5 -22.621,-22.62 -53.857,-36.625 -88.37,-36.625" />
  </g>
  <path
     style="fill:#ffffff;fill-rule:evenodd"
     id="path561"
     d="m 256.0012,161.5805 c -69.04,0 -125,55.964 -125,125 0,69.04 55.964,125 125,125 69.04,0 125,-55.964 125,-125 0,-69.04 -55.964,-125 -125,-125 m -0.875,49.16 1.75,0 c 10,0 18.06,9.357 18.06,21 l 0,35.906 35.906,0 c 11.643,0 21.03,8.06 21.03,18.06 l 0,1.781 c 0,10 -9.388,18.03 -21.03,18.03 l -35.906,0 0,35.906 c 0,11.643 -8.06,21.03 -18.06,21.03 l -1.75,0 c -10,0 -18.06,-9.388 -18.06,-21.03 l 0,-35.906 -35.906,0 c -11.643,0 -21.03,-8.03 -21.03,-18.03 l 0,-1.781 c 0,-10 9.388,-18.06 21.03,-18.06 l 35.906,0 0,-35.906 c 0,-11.643 8.06,-21 18.06,-21" />
  <path
     style="fill:#c08400;fill-opacity:1;stroke:#fce94f;stroke-width:2.16949153"
     d="m 216.94915,423.48475 c -16.07532,-16.10848 -28.69192,-29.28814 -28.0369,-29.28814 0.65502,0 6.3341,2.48114 12.62018,5.51364 19.6854,9.49655 35.61839,12.46714 60.94893,11.36349 26.0303,-1.13415 44.08992,-7.06025 65.414,-21.46499 48.54027,-32.7897 67.24313,-99.77431 42.868,-153.53251 -3.47994,-7.67484 -6.03058,-14.25083 -5.66809,-14.61332 0.3625,-0.36249 28.34269,27.03733 62.17823,60.88849 l 61.51915,61.54756 -4.66404,41.66079 c -5.10833,45.62953 -7.71649,53.50708 -20.64966,62.36904 l -7.06948,4.84408 H 351.29324 246.177 Z"
     id="path4539"
     inkscape:connector-curvature="0" />
</svg>
