<?xml version="1.0" encoding="UTF-8" standalone="no"?>
<svg
   xmlns:dc="http://purl.org/dc/elements/1.1/"
   xmlns:cc="http://creativecommons.org/ns#"
   xmlns:rdf="http://www.w3.org/1999/02/22-rdf-syntax-ns#"
   xmlns:svg="http://www.w3.org/2000/svg"
   xmlns="http://www.w3.org/2000/svg"
   xmlns:sodipodi="http://sodipodi.sourceforge.net/DTD/sodipodi-0.dtd"
   xmlns:inkscape="http://www.inkscape.org/namespaces/inkscape"
   id="svg2"
   viewBox="0 0 512 512"
   height="100%"
   width="100%"
   version="1.1"
   sodipodi:docname="folder-picture.svg"
   inkscape:version="0.92.1 r">
  <sodipodi:namedview
     pagecolor="#ffffff"
     bordercolor="#666666"
     borderopacity="1"
     objecttolerance="10"
     gridtolerance="10"
     guidetolerance="10"
     inkscape:pageopacity="0"
     inkscape:pageshadow="2"
     inkscape:window-width="1186"
     inkscape:window-height="739"
     id="namedview23"
     showgrid="false"
     inkscape:zoom="0.4609375"
     inkscape:cx="256"
     inkscape:cy="238.64407"
     inkscape:window-x="77"
     inkscape:window-y="139"
     inkscape:window-maximized="0"
     inkscape:current-layer="svg2" />
  <metadata
     id="metadata485">
    <rdf:RDF>
      <cc:Work
         rdf:about="">
        <dc:format>image/svg+xml</dc:format>
        <dc:type
           rdf:resource="http://purl.org/dc/dcmitype/StillImage" />
      </cc:Work>
    </rdf:RDF>
  </metadata>
  <defs
     id="defs4">
    <linearGradient
       gradientUnits="userSpaceOnUse"
       id="0-4"
       y2="453.23999"
       x2="0"
       y1="121.74"
       gradientTransform="translate(0.0012,5e-4)">
      <stop
         offset="0"
         style="stop-color:#6a6a6a;stop-opacity:1"
         id="stop7-8" />
      <stop
         offset="0.47"
         style="stop-color:#000000;stop-opacity:1"
         id="stop9-1" />
      <stop
         offset="0.49399999"
         style="stop-color:#ffffff;stop-opacity:1"
         id="stop11-2" />
      <stop
         offset="0.90100002"
         style="stop-color:#ffffff;stop-opacity:1"
         id="stop13-5" />
      <stop
         offset="0.95499998"
         style="stop-color:#000000;stop-opacity:1"
         id="stop15-9" />
      <stop
         offset="1"
         style="stop-color:#000000;stop-opacity:1"
         id="stop17-4" />
    </linearGradient>
  </defs>
  <path
     d="m 108.6312,57.3705 c -7.963,0 -15.228,2.293 -20.693,6.22 -4.545,3.266 -7.751,7.872 -8.752,13.13 l -11.909,0 c -16.447,0 -29.883,13.03 -29.883,29.2 l 0,66.736 c 0,16.17 13.436,29.19 29.883,29.19 l 377.47,0 c 16.447,0 29.883,-13.03 29.883,-29.19 l 0,-66.736 c 0,-16.17 -13.436,-29.2 -29.883,-29.2 l -262.91,0 c -1,-5.256 -4.208,-9.862 -8.753,-13.13 -5.465,-3.927 -12.73,-6.22 -20.693,-6.22 l -43.761,0"
     id="path115"
     style="fill:#cccccc;fill-rule:evenodd" />
  <path
     d="m 37.3612,118.4605 c -19.928,0 -38.06,15.818 -36.23,35.853 l 24.26,265.41 c 1.733,18.966 16.271,34.947 36.2,34.947 l 383.41,0 c 19.933,0 34.1,-16.05 36.2,-34.853 l 29.632,-265.41 c 1.123,-10.05 -3.137,-19.263 -9.971,-25.663 -6.833,-6.399 -16.258,-10.284 -26.22,-10.284 l -437.27,0"
     id="path117"
     style="fill:#6997c7;fill-rule:evenodd" />
  <path
     style="opacity:0.05;fill:#edd400"
     id="path119"
     d="m 37.3612,118.4505 c -19.928,0 -38.08,15.84 -36.25,35.875 l 11.781,128.78 12.469,136.63 c 1.733,18.966 16.29,34.938 36.22,34.938 l 383.41,0 c 19.933,0 34.09,-16.04 36.19,-34.844 l 15.281,-136.72 14.375,-128.69 c 1.123,-10.05 -3.135,-19.287 -9.969,-25.688 -6.833,-6.399 -16.257,-10.281 -26.22,-10.281 l -437.28,0" />
  <path
     d="m 37.3512,118.4505 c -6.165,0 -12.154,1.503 -17.438,4.188 l 332.06,332.03 28.25,0 -336.19,-336.22 -6.688,0 m 34.969,0 336.22,336.22 28.28,0 -336.22,-336.22 -28.28,0 m 56.59,0 332.25,332.28 c 5.997,-3.165 10.884,-8.06 14.375,-13.938 l -318.37,-318.34 -28.25,0 m 56.56,0 296.28,296.31 2.844,-25.469 -270.87,-270.84 -28.25,0 m 56.56,0 245.41,245.44 2.844,-25.469 -220,-219.97 -28.25,0 m 56.56,0 194.53,194.53 2.844,-25.438 -169.12,-169.09 -28.25,0 m 56.56,0 143.63,143.63 2.844,-25.438 -118.19,-118.19 -28.28,0 m 56.56,0 92.75,92.75 2.844,-25.438 -67.28,-67.31 -28.313,0 m 56.59,0 41.844,41.844 0.656,-5.875 c 1.123,-10.05 -3.134,-19.288 -9.969,-25.688 -6.833,-6.399 -16.252,-10.281 -26.22,-10.281 l -6.313,0 m -463.06,17.781 c -3.108,5.286 -4.73,11.464 -4.125,18.09 l 0.625,6.719 293.66,293.63 28.25,0 -318.41,-318.44 m -0.656,55.906 2.844,31.13 231.41,231.41 28.25,0 -262.5,-262.53 m 5.688,62.25 2.844,31.13 169.16,169.16 28.25,0 -200.25,-200.28 m 5.688,62.28 2.844,31.13 106.88,106.88 28.28,0 -138,-138 m 5.688,62.25 2.844,31.13 44.625,44.625 28.28,0 -75.75,-75.75"
     id="path123"
     style="opacity:0;fill:#ffffff;fill-rule:evenodd" />
  <path
     d="m 108.5512,57.2905 c -7.963,0 -15.11,2.403 -20.572,6.33 -4.545,3.266 -7.702,7.931 -8.703,13.187 l -12.13,0 c -17.677,0 -29.802,12.771 -29.802,30.661 l 0,3.956 c 0,-16.17 13.355,-29.27 29.802,-29.27 l 14.286,0 c 1,-5.256 2,-9.657 6.549,-12.923 5.465,-3.927 12.609,-6.33 20.572,-6.33 l 43.78,0 c 7.963,0 15.371,2.403 20.835,6.33 4.545,3.266 5.766,7.668 6.769,12.923 l 264.88,0 c 16.447,0 29.802,11.455 29.802,27.625 l 0,-3.956 c 0,-16.17 -13.355,-29.01 -29.802,-29.01 l -262.95,0 c -1,-5.256 -4.159,-9.921 -8.703,-13.187 -5.465,-3.927 -12.872,-6.33 -20.835,-6.33 z"
     id="path125"
     style="opacity:0.76399997;fill:#ffffff;fill-rule:evenodd" />
  <path
     d="m 37.3512,118.4505 c -19.928,0 -38.05,15.84 -36.22,35.875 l 0.406,4.375 c 3,-15.936 18.732,-27.563 35.813,-27.563 l 437.28,0 c 9.966,0 19.386,3.882 26.22,10.281 4.736,4.435 8.234,10.208 9.563,16.688 l 0.406,-3.688 c 1.123,-10.05 -3.134,-19.288 -9.969,-25.688 -6.833,-6.399 -16.252,-10.281 -26.22,-10.281 l -437.28,0"
     id="path127"
     style="opacity:0.4;fill:#f57900;fill-rule:evenodd" />
  <path
     style="fill-opacity:0.23500001;fill-rule:evenodd;fill:#d4a018"
     id="path469"
     d="m 169.5612,161.0905 c -27.894,0 -50.34,22.481 -50.34,50.38 l 0,150.28 c 0,14.2 5.826,26.99 15.219,36.13 0.214,0.22 0.438,0.44 0.656,0.656 0.433,0.454 0.863,0.907 1.313,1.344 0.329,0.338 0.662,0.671 1,1 0.406,0.418 0.83,0.815 1.25,1.219 0.284,0.288 0.584,0.563 0.875,0.844 0.293,0.299 0.575,0.615 0.875,0.906 0.261,0.268 0.546,0.519 0.813,0.781 0.311,0.323 0.618,0.654 0.938,0.969 0.403,0.42 0.801,0.844 1.219,1.25 0.406,0.418 0.83,0.815 1.25,1.219 0.284,0.288 0.584,0.563 0.875,0.844 0.293,0.299 0.575,0.615 0.875,0.906 0.261,0.268 0.546,0.519 0.813,0.781 0.311,0.323 0.618,0.654 0.938,0.969 0.403,0.42 0.801,0.844 1.219,1.25 0.329,0.338 0.662,0.671 1,1 0.422,0.434 0.875,0.832 1.313,1.25 0.232,0.235 0.451,0.489 0.688,0.719 0.261,0.268 0.546,0.519 0.813,0.781 0.311,0.323 0.618,0.654 0.938,0.969 0.403,0.42 0.801,0.844 1.219,1.25 0.329,0.338 0.662,0.671 1,1 0.406,0.418 0.83,0.815 1.25,1.219 0.284,0.288 0.584,0.563 0.875,0.844 0.293,0.299 0.575,0.615 0.875,0.906 0.214,0.22 0.438,0.44 0.656,0.656 0.433,0.454 0.863,0.907 1.313,1.344 0.329,0.338 0.662,0.671 1,1 0.406,0.418 0.83,0.815 1.25,1.219 0.284,0.288 0.584,0.563 0.875,0.844 0.293,0.299 0.575,0.615 0.875,0.906 0.261,0.268 0.546,0.519 0.813,0.781 0.311,0.323 0.618,0.654 0.938,0.969 0.403,0.42 0.801,0.844 1.219,1.25 0.329,0.338 0.662,0.671 1,1 0.422,0.434 0.875,0.832 1.313,1.25 0.232,0.235 0.451,0.489 0.688,0.719 0.261,0.268 0.546,0.519 0.813,0.781 0.311,0.323 0.618,0.654 0.938,0.969 0.403,0.42 0.801,0.844 1.219,1.25 0.329,0.338 0.662,0.671 1,1 0.406,0.418 0.83,0.815 1.25,1.219 0.284,0.288 0.584,0.563 0.875,0.844 0.227,0.232 0.456,0.46 0.688,0.688 0.311,0.323 0.618,0.654 0.938,0.969 0.403,0.42 0.801,0.844 1.219,1.25 0.329,0.338 0.662,0.671 1,1 0.406,0.418 0.83,0.815 1.25,1.219 0.284,0.288 0.584,0.563 0.875,0.844 0.293,0.299 0.575,0.615 0.875,0.906 0.214,0.22 0.438,0.44 0.656,0.656 0.433,0.454 0.863,0.907 1.313,1.344 0.329,0.338 0.662,0.671 1,1 0.406,0.418 0.83,0.815 1.25,1.219 0.284,0.288 0.584,0.563 0.875,0.844 0.293,0.299 0.575,0.615 0.875,0.906 0.261,0.268 0.546,0.519 0.813,0.781 0.102,0.106 0.211,0.206 0.313,0.313 l 253.72,0 c 19.933,0 34.09,-16.04 36.19,-34.844 l 14.156,-126.75 c -0.289,-0.284 -0.58,-0.565 -0.875,-0.844 -0.166,-0.166 -0.332,-0.337 -0.5,-0.5 -0.326,-0.336 -0.664,-0.674 -1,-1 -0.163,-0.168 -0.334,-0.334 -0.5,-0.5 -0.482,-0.509 -0.966,-1.01 -1.469,-1.5 -0.329,-0.339 -0.661,-0.671 -1,-1 -0.489,-0.503 -0.991,-0.987 -1.5,-1.469 -0.166,-0.166 -0.332,-0.337 -0.5,-0.5 -0.326,-0.336 -0.664,-0.674 -1,-1 -0.163,-0.168 -0.334,-0.334 -0.5,-0.5 -0.482,-0.509 -0.966,-1.01 -1.469,-1.5 -0.329,-0.339 -0.661,-0.671 -1,-1 -0.489,-0.503 -0.991,-0.987 -1.5,-1.469 -0.233,-0.233 -0.481,-0.459 -0.719,-0.688 -0.263,-0.267 -0.513,-0.551 -0.781,-0.813 -0.292,-0.3 -0.607,-0.582 -0.906,-0.875 -0.198,-0.205 -0.392,-0.423 -0.594,-0.625 -0.482,-0.509 -0.966,-1.01 -1.469,-1.5 -0.489,-0.503 -0.991,-0.987 -1.5,-1.469 -0.233,-0.233 -0.481,-0.459 -0.719,-0.688 -0.263,-0.267 -0.513,-0.551 -0.781,-0.813 -0.292,-0.3 -0.607,-0.582 -0.906,-0.875 -0.198,-0.205 -0.392,-0.423 -0.594,-0.625 -0.482,-0.509 -0.966,-1.01 -1.469,-1.5 -0.329,-0.339 -0.661,-0.671 -1,-1 -0.489,-0.503 -0.991,-0.987 -1.5,-1.469 -0.166,-0.166 -0.332,-0.337 -0.5,-0.5 -0.326,-0.336 -0.664,-0.674 -1,-1 -0.163,-0.168 -0.334,-0.334 -0.5,-0.5 -0.482,-0.509 -0.966,-1.01 -1.469,-1.5 -0.329,-0.339 -0.661,-0.671 -1,-1 -0.489,-0.503 -0.991,-0.987 -1.5,-1.469 -0.166,-0.166 -0.332,-0.337 -0.5,-0.5 -0.326,-0.336 -0.664,-0.674 -1,-1 -0.163,-0.168 -0.334,-0.334 -0.5,-0.5 -0.482,-0.509 -0.966,-1.01 -1.469,-1.5 -0.329,-0.339 -0.661,-0.671 -1,-1 -0.489,-0.503 -0.991,-0.987 -1.5,-1.469 -0.233,-0.233 -0.481,-0.459 -0.719,-0.688 -0.263,-0.267 -0.513,-0.551 -0.781,-0.813 -0.292,-0.3 -0.607,-0.582 -0.906,-0.875 -0.198,-0.205 -0.392,-0.423 -0.594,-0.625 -0.482,-0.509 -0.966,-1.01 -1.469,-1.5 -0.329,-0.339 -0.661,-0.671 -1,-1 -0.489,-0.503 -0.991,-0.987 -1.5,-1.469 -0.166,-0.166 -0.332,-0.337 -0.5,-0.5 -0.326,-0.336 -0.664,-0.674 -1,-1 -0.163,-0.168 -0.334,-0.334 -0.5,-0.5 -0.482,-0.509 -0.966,-1.01 -1.469,-1.5 -0.329,-0.339 -0.661,-0.671 -1,-1 -0.489,-0.503 -0.991,-0.987 -1.5,-1.469 -0.166,-0.166 -0.332,-0.337 -0.5,-0.5 -0.326,-0.336 -0.664,-0.674 -1,-1 -0.163,-0.168 -0.334,-0.334 -0.5,-0.5 -0.482,-0.509 -0.966,-1.01 -1.469,-1.5 -0.329,-0.339 -0.661,-0.671 -1,-1 -0.489,-0.503 -0.991,-0.987 -1.5,-1.469 -0.233,-0.233 -0.481,-0.459 -0.719,-0.688 -0.263,-0.267 -0.513,-0.551 -0.781,-0.813 -0.292,-0.3 -0.607,-0.582 -0.906,-0.875 -0.198,-0.205 -0.392,-0.423 -0.594,-0.625 -0.482,-0.509 -0.966,-1.01 -1.469,-1.5 -0.48901,-0.503 -0.99101,-0.987 -1.50001,-1.469 -0.233,-0.233 -0.481,-0.459 -0.719,-0.688 -0.263,-0.267 -0.513,-0.551 -0.781,-0.813 -0.292,-0.3 -0.607,-0.582 -0.906,-0.875 -0.198,-0.205 -0.392,-0.423 -0.594,-0.625 -0.482,-0.509 -0.966,-1.01 -1.469,-1.5 -0.329,-0.339 -0.661,-0.671 -1,-1 -0.489,-0.503 -0.991,-0.987 -1.5,-1.469 -0.166,-0.166 -0.332,-0.337 -0.5,-0.5 -0.326,-0.336 -0.664,-0.674 -1,-1 -0.163,-0.168 -0.334,-0.334 -0.5,-0.5 -0.482,-0.509 -0.966,-1.01 -1.469,-1.5 -0.329,-0.339 -0.661,-0.671 -1,-1 -0.489,-0.503 -0.991,-0.987 -1.5,-1.469 -0.166,-0.166 -0.332,-0.337 -0.5,-0.5 -0.326,-0.336 -0.664,-0.674 -1,-1 -0.163,-0.168 -0.334,-0.334 -0.5,-0.5 -0.482,-0.509 -0.966,-1.01 -1.469,-1.5 -0.329,-0.339 -0.661,-0.671 -1,-1 -0.489,-0.503 -0.991,-0.987 -1.5,-1.469 -0.233,-0.233 -0.481,-0.459 -0.719,-0.688 -0.263,-0.267 -0.513,-0.551 -0.781,-0.813 -0.292,-0.3 -0.607,-0.582 -0.906,-0.875 -0.198,-0.205 -0.392,-0.423 -0.594,-0.625 -0.482,-0.509 -0.966,-1.01 -1.469,-1.5 -0.329,-0.339 -0.661,-0.671 -1,-1 -0.489,-0.503 -0.991,-0.987 -1.5,-1.469 -0.166,-0.166 -0.332,-0.337 -0.5,-0.5 -0.326,-0.336 -0.664,-0.674 -1,-1 -0.163,-0.168 -0.334,-0.334 -0.5,-0.5 -0.482,-0.509 -0.966,-1.01 -1.469,-1.5 -0.329,-0.339 -0.661,-0.671 -1,-1 -0.489,-0.503 -0.991,-0.987 -1.5,-1.469 -0.166,-0.166 -0.332,-0.337 -0.5,-0.5 -0.326,-0.336 -0.664,-0.674 -1,-1 -0.163,-0.168 -0.334,-0.334 -0.5,-0.5 -0.482,-0.509 -0.966,-1.01 -1.469,-1.5 -0.329,-0.339 -0.661,-0.671 -1,-1 -0.489,-0.503 -0.991,-0.987 -1.5,-1.469 -0.233,-0.233 -0.481,-0.459 -0.719,-0.688 -0.263,-0.267 -0.513,-0.551 -0.781,-0.813 -0.292,-0.3 -0.607,-0.582 -0.906,-0.875 -0.198,-0.205 -0.392,-0.423 -0.594,-0.625 -0.482,-0.509 -0.966,-1.01 -1.469,-1.5 -0.489,-0.503 -0.991,-0.987 -1.5,-1.469 -0.233,-0.233 -0.481,-0.459 -0.719,-0.688 -0.263,-0.267 -0.513,-0.551 -0.781,-0.813 -0.292,-0.3 -0.607,-0.582 -0.906,-0.875 -0.198,-0.205 -0.392,-0.423 -0.594,-0.625 -0.482,-0.509 -0.966,-1.01 -1.469,-1.5 -0.329,-0.339 -0.661,-0.671 -1,-1 -0.489,-0.503 -0.991,-0.987 -1.5,-1.469 -0.166,-0.166 -0.332,-0.337 -0.5,-0.5 -0.326,-0.336 -0.664,-0.674 -1,-1 -0.163,-0.168 -0.334,-0.334 -0.5,-0.5 -0.482,-0.509 -0.966,-1.01 -1.469,-1.5 -9.143,-9.403 -21.953,-15.219 -36.15999,-15.219 l -172.84,0" />
  <path
     d="m 169.54918,161.58234 c -27.62536,0 -49.85017,22.25861 -49.85017,49.88397 l 0,150.26251 c 0,27.62536 22.22372,49.85017 49.85017,49.85017 l 172.85477,0 c 27.62536,0 49.88397,-22.22372 49.88397,-49.85017 l 0,-150.26251 c 0,-27.62536 -22.25861,-49.88397 -49.88397,-49.88397 l -172.85477,0 m 19.0126,24.66939 134.83392,0 c 23.25193,0 41.97886,18.72148 41.97886,41.97886 l 0,116.70123 c 0,23.25193 -18.72148,41.97886 -41.97886,41.97886 l -134.83392,0 c -23.25192,0 -41.97886,-18.72148 -41.97886,-41.97886 l 0,-116.70123 c 0,-23.25193 18.72149,-41.97886 41.97886,-41.97886"
     id="path473"
     style="fill:#ffffff;fill-rule:evenodd" />
  <path
     id="path477"
     d="m 152.56495,367.18607 206.57866,0 c -18.86357,-38.37624 -26.6948,-83.91487 -62.66713,-83.25095 -14.7937,-0.49609 -24.87829,10.324 -33.43761,19.17208 -7.6165,7.89046 -15.69208,16.53616 -22.74833,21.63029 -8.38161,4.67455 -14.0508,3.09745 -19.65336,-3.33438 -35.14058,-40.21497 -61.47011,7.1994 -68.08457,45.78296 z"
     style="fill:#ffffff;stroke:#fff8eb;stroke-width:2.46808434" />
  <path
     style="fill:#ffffff;fill-rule:evenodd;stroke:#fff8eb;stroke-width:2.76667333"
     id="path479"
     d="m 249.10906,255.68582 c 0,14.68551 -11.90499,26.58773 -26.58773,26.58773 -14.6855,0 -26.58773,-11.90499 -26.58773,-26.58773 0,-14.6855 11.905,-26.58773 26.58773,-26.58773 14.6855,0 26.58773,11.905 26.58773,26.58773 z" />
  <rect
     width="216.42557"
     height="37.724274"
     rx="38.489708"
     ry="17.298561"
     x="145.63759"
     y="360.14777"
     id="rect481"
     style="fill:#ffffff;fill-rule:evenodd;stroke:none" />
  <path
     style="opacity:1;fill:#c4a000;fill-opacity:1;stroke:#fce94f;stroke-width:2.16949153"
     d="M 47.945763,450.2113 C 37.902585,445.59946 32.994391,440.63544 29.452668,431.50789 26.896581,424.92047 3.6025676,182.88167 3.5174005,162.02486 3.4762945,151.95828 4.308762,149.86977 11.048936,143.12959 c 4.167763,-4.16776 11.415927,-8.61126 16.107032,-9.87444 5.810328,-1.56456 80.384572,-2.11124 233.937412,-1.71491 l 225.40815,0.58179 8.71606,5.76856 c 15.16371,10.03578 15.24177,10.9079 7.4024,82.70215 -3.80716,34.86654 -7.32735,67.78692 -7.82267,73.15641 -0.49532,5.36949 -3.89218,37.09831 -7.54855,70.50848 -7.53981,68.89504 -9.76384,76.44975 -25.05756,85.11685 l -8.55053,4.84567 -198.50848,-0.012 C 67.112999,454.19735 56.165181,453.98567 47.945763,450.2113 Z M 367.9475,403.85085 c 9.0575,-5.43887 13.1275,-9.71147 17.80233,-18.68841 l 6.06034,-11.63757 -0.0477,-87.0743 C 391.70994,190.31689 391.66091,189.93862 377.47651,175.7355 363.21807,161.45834 363.56864,161.49992 256.3197,161.36556 l -97.07262,-0.12162 -12.50026,5.90267 c -14.00063,6.61116 -21.93043,16.73901 -26.08784,33.31906 -1.66788,6.65164 -2.23716,36.06401 -1.78461,92.20339 0.64654,80.20509 0.79405,82.67816 5.45075,91.38346 5.28138,9.87308 15.57501,19.46245 25.58666,23.83608 5.04736,2.20496 28.93375,2.86232 106.40106,2.92818 l 99.89257,0.0848 11.742,-7.05085 z"
     id="path4500"
     inkscape:connector-curvature="0" />
  <path
     style="opacity:1;fill:#e9b96e;fill-opacity:1;stroke:#fce94f;stroke-width:2.16949153"
     d="M 56.510902,450.13458 C 44.034799,448.08474 34.380338,440.53372 31.867585,430.86039 27.99949,415.96939 5.6668971,187.0634 5.6488136,162.1216 5.64126,151.70365 6.2639742,150.3673 14.35218,143.4441 c 7.1499,-6.12005 11.095923,-7.70594 22.01316,-8.84702 7.315912,-0.76467 111.29463,-1.3903 231.06382,-1.3903 h 217.76217 l 8.60408,5.69391 c 15.40621,10.19534 15.4714,1.93631 -1.24705,157.95918 -13.67958,127.66287 -14.84023,134.81748 -23.37286,144.07846 -10.77528,11.69507 -1.33442,11.20483 -210.13895,10.91215 -106.55417,-0.14926 -197.690712,-0.92149 -202.525648,-1.7159 z M 368.3497,405.26349 c 8.03586,-5.29204 14.14036,-11.62711 18.94604,-19.66169 l 7.09018,-11.85399 -0.82864,-88.27051 c -0.92355,-98.38118 -0.68152,-96.70953 -16.13869,-111.46339 -4.61345,-4.40353 -11.3169,-9.22495 -14.89656,-10.71425 -4.75847,-1.97975 -32.81349,-2.94369 -104.34045,-3.58502 l -97.83198,-0.87718 -12.81209,6.47287 c -15.2172,7.68796 -18.6885,11.21868 -25.0386,25.46724 -4.43518,9.95181 -4.86345,14.79791 -5.64897,63.92074 -0.46748,29.23389 -0.0204,69.38257 0.99345,89.21927 1.73371,33.92035 2.18898,36.58893 7.65023,44.84142 9.87201,14.91762 19.3582,20.6044 37.10384,22.24299 8.53479,0.78809 55.65298,1.57605 104.70709,1.75104 l 89.18929,0.31816 z"
     id="path4502"
     inkscape:connector-curvature="0" />
  <path
     style="opacity:1;fill:#e9b96e;fill-opacity:1;stroke:#fce94f;stroke-width:2.16949153"
     d="m 356.10745,355.57966 c -2.04081,-4.77288 -5.57501,-13.3348 -7.85379,-19.02649 -11.18195,-27.92907 -22.22762,-43.90159 -34.97982,-50.58234 -8.07333,-4.22953 -27.64727,-3.94911 -34.33688,0.49192 -2.95024,1.95858 -13.31731,11.35519 -23.03793,20.88136 -20.72292,20.30837 -25.01809,21.4274 -37.27899,9.7124 -10.04825,-9.60088 -15.64181,-12.4599 -24.37727,-12.4599 -15.06855,0 -30.26347,16.59059 -38.22211,41.73285 -2.16662,6.8446 -4.61169,12.45816 -5.43349,12.47458 -3.27838,0.0655 -4.21804,-21.19043 -3.54721,-80.24133 0.75608,-66.55467 1.10295,-68.67998 12.97086,-79.47504 12.73701,-11.58559 13.24439,-11.64717 95.55602,-11.59596 86.35765,0.0537 88.52659,0.40605 100.69857,16.35726 l 6.25662,8.19922 0.6251,70.81077 c 0.3448,39.0603 -0.26142,73.18449 -1.35203,76.10472 -1.93124,5.17114 -2.06318,5.09264 -5.68765,-3.38402 z M 233.35173,281.59805 c 22.34532,-8.94082 23.37256,-41.16783 1.64093,-51.48016 -9.35512,-4.4393 -14.66685,-4.54818 -24.35721,-0.49929 -23.63014,9.87331 -20.51858,47.52728 4.45159,53.87006 7.37665,1.87378 9.37303,1.66713 18.26469,-1.89061 z"
     id="path4504"
     inkscape:connector-curvature="0" />
</svg>
