<?xml version="1.0" encoding="UTF-8" standalone="no"?>
<svg
   xmlns:dc="http://purl.org/dc/elements/1.1/"
   xmlns:cc="http://creativecommons.org/ns#"
   xmlns:rdf="http://www.w3.org/1999/02/22-rdf-syntax-ns#"
   xmlns:svg="http://www.w3.org/2000/svg"
   xmlns="http://www.w3.org/2000/svg"
   xmlns:sodipodi="http://sodipodi.sourceforge.net/DTD/sodipodi-0.dtd"
   xmlns:inkscape="http://www.inkscape.org/namespaces/inkscape"
   id="svg2"
   viewBox="0 0 512 512"
   height="100%"
   width="100%"
   version="1.1"
   sodipodi:docname="folder-public-share.svg"
   inkscape:version="0.92.1 r">
  <sodipodi:namedview
     pagecolor="#ffffff"
     bordercolor="#666666"
     borderopacity="1"
     objecttolerance="10"
     gridtolerance="10"
     guidetolerance="10"
     inkscape:pageopacity="0"
     inkscape:pageshadow="2"
     inkscape:window-width="1248"
     inkscape:window-height="742"
     id="namedview20"
     showgrid="false"
     inkscape:zoom="0.4609375"
     inkscape:cx="360.13559"
     inkscape:cy="238.64407"
     inkscape:window-x="0"
     inkscape:window-y="0"
     inkscape:window-maximized="0"
     inkscape:current-layer="svg2" />
  <metadata
     id="metadata465">
    <rdf:RDF>
      <cc:Work
         rdf:about="">
        <dc:format>image/svg+xml</dc:format>
        <dc:type
           rdf:resource="http://purl.org/dc/dcmitype/StillImage" />
      </cc:Work>
    </rdf:RDF>
  </metadata>
  <defs
     id="defs4">
    <linearGradient
       gradientUnits="userSpaceOnUse"
       id="0-5"
       y2="453.23999"
       x2="0"
       y1="121.74"
       gradientTransform="translate(0.00121,5e-4)">
      <stop
         offset="0"
         style="stop-color:#6a6a6a;stop-opacity:1"
         id="stop7-5" />
      <stop
         offset="0.47"
         style="stop-color:#000000;stop-opacity:1"
         id="stop9-1" />
      <stop
         offset="0.49399999"
         style="stop-color:#ffffff;stop-opacity:1"
         id="stop11-5" />
      <stop
         offset="0.90100002"
         style="stop-color:#ffffff;stop-opacity:1"
         id="stop13-7" />
      <stop
         offset="0.95499998"
         style="stop-color:#000000;stop-opacity:1"
         id="stop15-0" />
      <stop
         offset="1"
         style="stop-color:#000000;stop-opacity:1"
         id="stop17-0" />
    </linearGradient>
  </defs>
  <path
     d="m 108.63121,57.3705 c -7.963,0 -15.228,2.293 -20.693,6.22 -4.545,3.266 -7.751,7.872 -8.752,13.13 l -11.909,0 c -16.447,0 -29.883,13.03 -29.883,29.2 l 0,66.736 c 0,16.17 13.436,29.19 29.883,29.19 l 377.47,0 c 16.447,0 29.883,-13.03 29.883,-29.19 l 0,-66.736 c 0,-16.17 -13.436,-29.2 -29.883,-29.2 l -262.91,0 c -1,-5.256 -4.208,-9.862 -8.753,-13.13 -5.465,-3.927 -12.73,-6.22 -20.693,-6.22 l -43.761,0"
     id="path115"
     style="fill:#cccccc;fill-rule:evenodd" />
  <path
     d="m 37.36121,118.4605 c -19.928,0 -38.06,15.818 -36.23,35.853 l 24.26,265.41 c 1.733,18.966 16.271,34.947 36.2,34.947 l 383.41,0 c 19.933,0 34.1,-16.05 36.2,-34.853 l 29.632,-265.41 c 1.123,-10.05 -3.137,-19.263 -9.971,-25.663 -6.833,-6.399 -16.258,-10.284 -26.22,-10.284 l -437.27,0"
     id="path117"
     style="fill:#6997c7;fill-rule:evenodd" />
  <path
     style="opacity:0.05;fill:#ffff3e"
     id="path119"
     d="m 37.36121,118.4505 c -19.928,0 -38.08,15.84 -36.25,35.875 l 11.781,128.78 12.469,136.63 c 1.733,18.966 16.29,34.938 36.22,34.938 l 383.40999,0 c 19.933,0 34.09,-16.04 36.19,-34.844 l 15.281,-136.72 14.375,-128.69 c 1.123,-10.05 -3.135,-19.287 -9.969,-25.688 -6.833,-6.399 -16.257,-10.281 -26.22,-10.281 l -437.27999,0" />
  <path
     d="m 37.35121,118.4505 c -6.165,0 -12.154,1.503 -17.438,4.188 l 332.06,332.03 28.25,0 -336.19,-336.22 -6.688,0 m 34.969,0 336.22,336.22 28.28,0 -336.22,-336.22 -28.28,0 m 56.59,0 332.25,332.28 c 5.997,-3.165 10.884,-8.06 14.375,-13.938 l -318.37,-318.34 -28.25,0 m 56.56,0 296.28,296.31 2.844,-25.469 -270.87,-270.84 -28.25,0 m 56.56,0 245.41,245.44 2.844,-25.469 -220,-219.97 -28.25,0 m 56.56,0 194.53,194.53 2.844,-25.438 -169.12,-169.09 -28.25,0 m 56.56,0 143.63,143.63 2.844,-25.438 -118.19,-118.19 -28.28,0 m 56.56,0 92.75,92.75 2.844,-25.438 -67.28,-67.31 -28.313,0 m 56.59,0 41.844,41.844 0.656,-5.875 c 1.123,-10.05 -3.134,-19.288 -9.969,-25.688 -6.833,-6.399 -16.252,-10.281 -26.22,-10.281 l -6.313,0 m -463.06,17.781 c -3.108,5.286 -4.73,11.464 -4.125,18.09 l 0.625,6.719 293.66,293.63 28.25,0 -318.41,-318.44 m -0.656,55.906 2.844,31.13 231.41,231.41 28.25,0 -262.5,-262.53 m 5.688,62.25 2.844,31.13 169.16,169.16 28.25,0 -200.25,-200.28 m 5.688,62.28 2.844,31.13 106.88,106.88 28.28,0 -138,-138 m 5.688,62.25 2.844,31.13 44.625,44.625 28.28,0 -75.75,-75.75"
     id="path123"
     style="opacity:0;fill:#ffffff;fill-rule:evenodd" />
  <path
     d="m 108.55121,57.2905 c -7.963,0 -15.11,2.403 -20.572,6.33 -4.545,3.266 -7.702,7.931 -8.703,13.187 l -12.13,0 c -17.677,0 -29.802,12.771 -29.802,30.661 l 0,3.956 c 0,-16.17 13.355,-29.27 29.802,-29.27 l 14.286,0 c 1,-5.256 2,-9.657 6.549,-12.923 5.465,-3.927 12.609,-6.33 20.572,-6.33 l 43.78,0 c 7.963,0 15.371,2.403 20.835,6.33 4.545,3.266 5.766,7.668 6.769,12.923 l 264.88,0 c 16.447,0 29.802,11.455 29.802,27.625 l 0,-3.956 c 0,-16.17 -13.355,-29.01 -29.802,-29.01 l -262.95,0 c -1,-5.256 -4.159,-9.921 -8.703,-13.187 -5.465,-3.927 -12.872,-6.33 -20.835,-6.33 z"
     id="path125"
     style="opacity:0.76399997;fill:#ffffff;fill-rule:evenodd" />
  <path
     d="m 37.35121,118.4505 c -19.928,0 -38.05,15.84 -36.22,35.875 l 0.406,4.375 c 3,-15.936 18.732,-27.563 35.813,-27.563 l 437.28,0 c 9.966,0 19.386,3.882 26.22,10.281 4.736,4.435 8.234,10.208 9.563,16.688 l 0.406,-3.688 c 1.123,-10.05 -3.134,-19.288 -9.969,-25.688 -6.833,-6.399 -16.252,-10.281 -26.22,-10.281 l -437.28,0"
     id="path127"
     style="opacity:0.4;fill:#ff9900;fill-rule:evenodd" />
  <path
     d="m 196.09121,161.5905 c -2.676,0.002 -5.359,0.663 -7.875,2.031 -8.05,4.38 -11.04,14.449 -6.656,22.5 0.924,1.698 2.109,3.182 3.469,4.406 0.321,0.343 0.654,0.658 1,0.969 0.321,0.343 0.623,0.689 0.969,1 0.325,0.348 0.649,0.684 1,1 0.325,0.348 0.649,0.684 1,1 0.321,0.343 0.654,0.689 1,1 0.321,0.343 0.654,0.689 1,1 0.321,0.343 0.654,0.658 1,0.969 0.321,0.343 0.623,0.689 0.969,1 0.325,0.348 0.649,0.684 1,1 0.325,0.348 0.649,0.684 1,1 0.325,0.348 0.65,0.684 1,1 0.321,0.343 0.654,0.689 1,1 0.321,0.343 0.654,0.689 1,1 0.321,0.343 0.654,0.658 1,0.969 0.321,0.343 0.623,0.689 0.969,1 0.325,0.348 0.649,0.684 1,1 0.325,0.348 0.65,0.685 1,1 0.321,0.343 0.654,0.689 1,1 0.321,0.343 0.654,0.689 1,1 0.321,0.343 0.654,0.658 1,0.969 0.321,0.343 0.623,0.689 0.969,1 0.325,0.348 0.649,0.684 1,1 0.325,0.348 0.65,0.685 1,1 0.321,0.343 0.654,0.689 1,1 0.321,0.343 0.654,0.689 1,1 0.321,0.343 0.654,0.658 1,0.969 0.321,0.343 0.623,0.689 0.969,1 0.325,0.348 0.649,0.684 1,1 0.325,0.348 0.649,0.684 1,1 0.015,0.016 0.016,0.046 0.031,0.063 l 20.969,38.719 c -0.843,0.64 -1.652,1.321 -2.438,2.031 -0.217,-0.217 -0.425,-0.45 -0.656,-0.656 -0.213,-0.226 -0.428,-0.441 -0.656,-0.656 -0.325,-0.364 -0.701,-0.693 -1.063,-1.031 -0.312,-0.347 -0.655,-0.677 -1,-1 -0.4,-0.444 -0.796,-0.877 -1.25,-1.281 -0.32,-0.338 -0.647,-0.686 -1,-1 -0.32,-0.338 -0.647,-0.686 -1,-1 -0.32,-0.338 -0.647,-0.654 -1,-0.969 -0.218,-0.231 -0.423,-0.467 -0.656,-0.688 -0.325,-0.364 -0.701,-0.693 -1.063,-1.031 -0.395,-0.438 -0.803,-0.881 -1.25,-1.281 -0.32,-0.338 -0.647,-0.686 -1,-1 -0.32,-0.338 -0.647,-0.686 -1,-1 -0.32,-0.338 -0.647,-0.686 -1,-1 -0.213,-0.226 -0.428,-0.441 -0.656,-0.656 -0.325,-0.364 -0.701,-0.693 -1.063,-1.031 -0.312,-0.347 -0.655,-0.677 -1,-1 -0.4,-0.444 -0.796,-0.877 -1.25,-1.281 -0.32,-0.338 -0.647,-0.686 -1,-1 -0.32,-0.338 -0.647,-0.686 -1,-1 -0.213,-0.226 -0.428,-0.441 -0.656,-0.656 -0.325,-0.364 -0.701,-0.693 -1.063,-1.031 -0.71,-0.789 -1.495,-1.529 -2.375,-2.188 -2.752,-2.059 -5.932,-3.065 -9.125,-3.219 -5.321,-0.256 -10.631,1.975 -14.06,6.563 -5.182,6.928 -4.15,16.573 2.156,22.25 0.282,0.302 0.567,0.592 0.875,0.875 0.315,0.343 0.652,0.68 1,1 0.315,0.343 0.652,0.68 1,1 0.354,0.386 0.729,0.769 1.125,1.125 0.312,0.332 0.625,0.659 0.969,0.969 0.321,0.343 0.645,0.681 1,1 0.282,0.302 0.567,0.592 0.875,0.875 0.315,0.343 0.652,0.68 1,1 0.315,0.343 0.652,0.68 1,1 0.315,0.343 0.652,0.68 1,1 0.393,0.428 0.806,0.828 1.25,1.219 0.28,0.292 0.539,0.601 0.844,0.875 0.321,0.343 0.645,0.681 1,1 0.282,0.302 0.567,0.592 0.875,0.875 0.315,0.343 0.652,0.68 1,1 0.315,0.343 0.652,0.68 1,1 0.393,0.428 0.806,0.828 1.25,1.219 0.28,0.292 0.539,0.601 0.844,0.875 0.317,0.339 0.651,0.653 1,0.969 0.216,0.232 0.425,0.466 0.656,0.688 0.048,0.055 0.107,0.102 0.156,0.156 l -57.16,-1.875 c -0.262,-0.271 -0.533,-0.529 -0.813,-0.781 -0.321,-0.343 -0.651,-0.685 -1,-1 -0.283,-0.302 -0.571,-0.594 -0.875,-0.875 -0.208,-0.227 -0.436,-0.441 -0.656,-0.656 -0.308,-0.355 -0.664,-0.672 -1,-1 -0.418,-0.482 -0.873,-0.912 -1.344,-1.344 -0.321,-0.349 -0.65,-0.679 -1,-1 -0.351,-0.381 -0.709,-0.746 -1.094,-1.094 -2.91,-3.11 -6.981,-5.13 -11.563,-5.281 -9.16,-0.303 -16.822,6.902 -17.12,16.06 -0.171,5.153 2.01,9.839 5.594,13 0.326,0.341 0.646,0.688 1,1 0.16,0.167 0.333,0.308 0.5,0.469 0.35,0.399 0.738,0.761 1.125,1.125 0.35,0.39 0.709,0.77 1.094,1.125 0.04,0.044 0.084,0.082 0.125,0.125 0.049,0.045 0.106,0.081 0.156,0.125 0.201,0.21 0.413,0.426 0.625,0.625 0.075,0.083 0.142,0.168 0.219,0.25 0.049,0.044 0.107,0.082 0.156,0.125 0.221,0.231 0.453,0.47 0.688,0.688 0.055,0.06 0.101,0.128 0.156,0.188 0.049,0.044 0.107,0.082 0.156,0.125 0.27,0.282 0.523,0.581 0.813,0.844 0.03,0.033 0.063,0.061 0.094,0.094 0.033,0.029 0.061,0.065 0.094,0.094 0.233,0.242 0.471,0.46 0.719,0.688 0.045,0.049 0.08,0.108 0.125,0.156 0.039,0.035 0.086,0.059 0.125,0.094 0.165,0.173 0.328,0.334 0.5,0.5 0.35,0.399 0.738,0.761 1.125,1.125 0.35,0.39 0.709,0.77 1.094,1.125 0.04,0.044 0.084,0.082 0.125,0.125 0.049,0.045 0.106,0.081 0.156,0.125 0.211,0.22 0.433,0.448 0.656,0.656 0.064,0.071 0.122,0.149 0.188,0.219 0.049,0.044 0.107,0.082 0.156,0.125 0.27,0.282 0.523,0.581 0.813,0.844 0.01,0.011 0.021,0.021 0.031,0.031 0.044,0.039 0.081,0.086 0.125,0.125 0.326,0.341 0.646,0.688 1,1 0.16,0.167 0.333,0.308 0.5,0.469 0.35,0.399 0.738,0.761 1.125,1.125 0.35,0.39 0.709,0.77 1.094,1.125 0.04,0.044 0.084,0.082 0.125,0.125 0.049,0.045 0.106,0.081 0.156,0.125 0.221,0.231 0.453,0.47 0.688,0.688 0.055,0.06 0.101,0.128 0.156,0.188 0.049,0.044 0.107,0.082 0.156,0.125 0.27,0.282 0.523,0.581 0.813,0.844 0.01,0.011 0.021,0.021 0.031,0.031 0.044,0.039 0.081,0.086 0.125,0.125 0.326,0.341 0.646,0.688 1,1 0.16,0.167 0.333,0.308 0.5,0.469 0.35,0.399 0.738,0.761 1.125,1.125 0.35,0.39 0.709,0.77 1.094,1.125 0.04,0.044 0.084,0.082 0.125,0.125 0.049,0.045 0.106,0.081 0.156,0.125 0.201,0.21 0.413,0.426 0.625,0.625 0.075,0.083 0.142,0.168 0.219,0.25 0.049,0.044 0.107,0.082 0.156,0.125 0.27,0.282 0.523,0.581 0.813,0.844 0.01,0.011 0.021,0.021 0.031,0.031 0.044,0.039 0.081,0.086 0.125,0.125 0.326,0.341 0.646,0.688 1,1 0.16,0.167 0.333,0.308 0.5,0.469 0.35,0.399 0.738,0.761 1.125,1.125 0.315,0.351 0.656,0.676 1,1 0.35,0.39 0.709,0.77 1.094,1.125 0.04,0.044 0.084,0.082 0.125,0.125 0.049,0.045 0.106,0.081 0.156,0.125 0.221,0.231 0.453,0.47 0.688,0.688 0.055,0.06 0.101,0.128 0.156,0.188 0.049,0.044 0.107,0.082 0.156,0.125 0.27,0.282 0.523,0.581 0.813,0.844 0.01,0.011 0.021,0.021 0.031,0.031 0.044,0.039 0.081,0.086 0.125,0.125 0.326,0.341 0.646,0.688 1,1 0.16,0.167 0.333,0.308 0.5,0.469 0.35,0.399 0.738,0.761 1.125,1.125 0.35,0.39 0.709,0.77 1.094,1.125 0.04,0.044 0.084,0.082 0.125,0.125 0.049,0.045 0.106,0.081 0.156,0.125 0.211,0.22 0.433,0.448 0.656,0.656 0.064,0.071 0.122,0.149 0.188,0.219 0.049,0.044 0.107,0.082 0.156,0.125 0.27,0.282 0.523,0.581 0.813,0.844 0.01,0.011 0.021,0.021 0.031,0.031 0.044,0.039 0.081,0.086 0.125,0.125 0.326,0.341 0.646,0.688 1,1 0.16,0.167 0.333,0.308 0.5,0.469 0.35,0.399 0.738,0.761 1.125,1.125 0.35,0.39 0.709,0.77 1.094,1.125 0.04,0.044 0.084,0.082 0.125,0.125 0.049,0.045 0.106,0.081 0.156,0.125 0.221,0.231 0.453,0.47 0.688,0.688 0.055,0.06 0.101,0.128 0.156,0.188 0.049,0.044 0.107,0.082 0.156,0.125 0.27,0.282 0.523,0.581 0.813,0.844 0.01,0.011 0.021,0.021 0.031,0.031 0.044,0.039 0.081,0.086 0.125,0.125 0.326,0.341 0.646,0.688 1,1 0.16,0.167 0.333,0.308 0.5,0.469 0.35,0.399 0.738,0.761 1.125,1.125 0.35,0.39 0.709,0.77 1.094,1.125 0.04,0.044 0.084,0.082 0.125,0.125 0.049,0.045 0.106,0.081 0.156,0.125 0.201,0.21 0.413,0.426 0.625,0.625 0.075,0.083 0.142,0.168 0.219,0.25 0.049,0.044 0.107,0.082 0.156,0.125 0.211,0.22 0.433,0.448 0.656,0.656 0.064,0.071 0.122,0.149 0.188,0.219 0.049,0.044 0.107,0.082 0.156,0.125 0.27,0.282 0.523,0.581 0.813,0.844 0.03,0.033 0.063,0.061 0.094,0.094 0.033,0.029 0.061,0.065 0.094,0.094 0.233,0.242 0.471,0.46 0.719,0.688 0.045,0.049 0.08,0.108 0.125,0.156 0.039,0.035 0.086,0.059 0.125,0.094 0.165,0.173 0.328,0.334 0.5,0.5 0.35,0.399 0.738,0.761 1.125,1.125 0.35,0.39 0.709,0.77 1.094,1.125 0.04,0.044 0.084,0.082 0.125,0.125 0.049,0.045 0.106,0.081 0.156,0.125 0.221,0.231 0.453,0.47 0.688,0.688 0.055,0.06 0.101,0.128 0.156,0.188 0.049,0.044 0.107,0.082 0.156,0.125 0.27,0.282 0.523,0.581 0.813,0.844 0.01,0.011 0.021,0.021 0.031,0.031 0.044,0.039 0.081,0.086 0.125,0.125 0.326,0.341 0.646,0.688 1,1 0.16,0.167 0.333,0.308 0.5,0.469 0.078,0.089 0.139,0.194 0.219,0.281 l -3.125,2.781 c -6.1,-4.16 -14.469,-3.841 -20.281,1.25 -6.895,6.04 -7.601,16.512 -1.563,23.406 0.417,0.476 0.855,0.927 1.313,1.344 0.328,0.355 0.68,0.68 1.031,1 0.308,0.332 0.609,0.668 0.938,0.969 0.377,0.409 0.749,0.794 1.156,1.156 0.28,0.295 0.579,0.574 0.875,0.844 0.323,0.347 0.655,0.686 1,1 0.318,0.342 0.63,0.691 0.969,1 0.322,0.348 0.656,0.686 1,1 0.312,0.337 0.635,0.663 0.969,0.969 0.377,0.409 0.749,0.794 1.156,1.156 0.28,0.295 0.579,0.574 0.875,0.844 0.323,0.347 0.655,0.686 1,1 0.323,0.347 0.655,0.686 1,1 0.318,0.342 0.63,0.691 0.969,1 0.312,0.337 0.635,0.663 0.969,0.969 0.377,0.409 0.749,0.794 1.156,1.156 0.28,0.295 0.579,0.574 0.875,0.844 0.323,0.347 0.655,0.686 1,1 0.323,0.347 0.655,0.686 1,1 0.318,0.342 0.63,0.691 0.969,1 0.328,0.355 0.68,0.68 1.031,1 0.308,0.332 0.609,0.668 0.938,0.969 0.37,0.4 0.757,0.801 1.156,1.156 0.28,0.295 0.579,0.574 0.875,0.844 0.323,0.347 0.655,0.686 1,1 0.318,0.342 0.63,0.691 0.969,1 0.322,0.348 0.656,0.686 1,1 0.312,0.337 0.635,0.663 0.969,0.969 0.377,0.409 0.749,0.794 1.156,1.156 0.28,0.295 0.579,0.574 0.875,0.844 0.323,0.347 0.655,0.686 1,1 0.318,0.342 0.63,0.691 0.969,1 0.322,0.348 0.656,0.686 1,1 0.312,0.337 0.635,0.663 0.969,0.969 0.377,0.409 0.749,0.794 1.156,1.156 0.28,0.295 0.579,0.574 0.875,0.844 0.323,0.347 0.655,0.686 1,1 0.323,0.347 0.655,0.686 1,1 0.318,0.342 0.63,0.691 0.969,1 0.312,0.337 0.635,0.663 0.969,0.969 0.362,0.393 0.735,0.744 1.125,1.094 0.338,0.359 0.669,0.74 1.031,1.063 0.28,0.295 0.579,0.574 0.875,0.844 0.323,0.347 0.655,0.686 1,1 0.318,0.342 0.63,0.691 0.969,1 0.328,0.355 0.68,0.68 1.031,1 0.308,0.332 0.609,0.668 0.938,0.969 0.377,0.409 0.749,0.794 1.156,1.156 0.28,0.295 0.579,0.574 0.875,0.844 0.323,0.347 0.655,0.686 1,1 0.318,0.342 0.63,0.691 0.969,1 0.322,0.348 0.656,0.686 1,1 0.312,0.337 0.635,0.663 0.969,0.969 0.377,0.409 0.749,0.794 1.156,1.156 0.28,0.295 0.579,0.574 0.875,0.844 0.323,0.347 0.655,0.686 1,1 0.323,0.347 0.655,0.686 1,1 0.318,0.342 0.63,0.691 0.969,1 0.312,0.337 0.635,0.663 0.969,0.969 0.377,0.409 0.749,0.794 1.156,1.156 0.28,0.295 0.579,0.574 0.875,0.844 0.323,0.347 0.655,0.686 1,1 0.323,0.347 0.655,0.686 1,1 0.318,0.342 0.63,0.691 0.969,1 0.328,0.355 0.68,0.68 1.031,1 0.308,0.332 0.609,0.668 0.938,0.969 0.37,0.4 0.757,0.801 1.156,1.156 0.28,0.295 0.579,0.574 0.875,0.844 0.323,0.347 0.655,0.686 1,1 0.318,0.342 0.63,0.691 0.969,1 0.322,0.348 0.656,0.686 1,1 0.312,0.337 0.635,0.663 0.969,0.969 0.193,0.21 0.397,0.396 0.594,0.594 l 219.56,0 c 19.933,0 34.09,-16.04 36.19,-34.844 l 10.563,-94.72 c -0.043,-0.04 -0.082,-0.086 -0.125,-0.125 -0.314,-0.338 -0.634,-0.663 -0.969,-0.969 l -0.031,-0.031 c -0.322,-0.347 -0.625,-0.656 -0.969,-0.969 -0.324,-0.349 -0.654,-0.685 -1,-1 -0.324,-0.349 -0.654,-0.685 -1,-1 -0.324,-0.349 -0.654,-0.685 -1,-1 -0.324,-0.349 -0.654,-0.685 -1,-1 -0.324,-0.349 -0.654,-0.685 -1,-1 -0.241,-0.26 -0.497,-0.478 -0.75,-0.719 -0.075,-0.084 -0.142,-0.167 -0.219,-0.25 -0.324,-0.349 -0.654,-0.685 -1,-1 -0.324,-0.349 -0.654,-0.685 -1,-1 -0.324,-0.349 -0.654,-0.685 -1,-1 -0.324,-0.349 -0.654,-0.685 -1,-1 -0.324,-0.349 -0.654,-0.685 -1,-1 -0.314,-0.338 -0.634,-0.663 -0.969,-0.969 -0.324,-0.349 -0.654,-0.685 -1,-1 -0.324,-0.349 -0.654,-0.685 -1,-1 -0.324,-0.349 -0.654,-0.685 -1,-1 -0.324,-0.349 -0.654,-0.685 -1,-1 -0.324,-0.349 -0.654,-0.685 -1,-1 -0.314,-0.338 -0.634,-0.663 -0.969,-0.969 -0.324,-0.349 -0.654,-0.685 -1,-1 -0.324,-0.349 -0.654,-0.685 -1,-1 -0.324,-0.349 -0.654,-0.685 -1,-1 -0.324,-0.349 -0.654,-0.685 -1,-1 -0.324,-0.349 -0.654,-0.685 -1,-1 -0.324,-0.349 -0.654,-0.685 -1,-1 -0.322,-0.347 -0.625,-0.656 -0.969,-0.969 -0.324,-0.349 -0.654,-0.685 -1,-1 -0.324,-0.349 -0.654,-0.685 -1,-1 -0.324,-0.349 -0.654,-0.685 -1,-1 -0.324,-0.349 -0.654,-0.685 -1,-1 -0.324,-0.349 -0.654,-0.685 -1,-1 -0.241,-0.26 -0.497,-0.478 -0.75,-0.719 -0.075,-0.084 -0.142,-0.167 -0.219,-0.25 -0.324,-0.349 -0.654,-0.685 -1,-1 -0.324,-0.349 -0.654,-0.685 -1,-1 -0.324,-0.349 -0.654,-0.685 -1,-1 -0.324,-0.349 -0.654,-0.685 -1,-1 -0.324,-0.349 -0.654,-0.685 -1,-1 -0.314,-0.338 -0.634,-0.663 -0.969,-0.969 -0.324,-0.349 -0.654,-0.685 -1,-1 -0.324,-0.349 -0.654,-0.685 -1,-1 -0.324,-0.349 -0.654,-0.685 -1,-1 -0.324,-0.349 -0.654,-0.685 -1,-1 -0.324,-0.349 -0.654,-0.685 -1,-1 -0.314,-0.338 -0.634,-0.663 -0.969,-0.969 -0.324,-0.349 -0.654,-0.685 -1,-1 -0.324,-0.349 -0.654,-0.685 -1,-1 -0.324,-0.349 -0.654,-0.685 -1,-1 -0.324,-0.349 -0.654,-0.685 -1,-1 -0.324,-0.349 -0.654,-0.685 -1,-1 -0.324,-0.349 -0.654,-0.685 -1,-1 -0.322,-0.347 -0.625,-0.656 -0.969,-0.969 -0.324,-0.349 -0.654,-0.685 -1,-1 -0.324,-0.349 -0.654,-0.685 -1,-1 -0.324,-0.349 -0.654,-0.685 -1,-1 -0.324,-0.349 -0.654,-0.685 -1,-1 -0.324,-0.349 -0.654,-0.685 -1,-1 -0.314,-0.338 -0.634,-0.663 -0.969,-0.969 -0.324,-0.349 -0.654,-0.685 -1,-1 -0.324,-0.349 -0.654,-0.685 -1,-1 -0.324,-0.349 -0.654,-0.685 -1,-1 -0.324,-0.349 -0.654,-0.685 -1,-1 -0.324,-0.349 -0.654,-0.685 -1,-1 -0.314,-0.338 -0.634,-0.663 -0.969,-0.969 -0.324,-0.349 -0.654,-0.685 -1,-1 -0.324,-0.349 -0.654,-0.685 -1,-1 -0.324,-0.349 -0.654,-0.685 -1,-1 -0.324,-0.349 -0.654,-0.685 -1,-1 -0.324,-0.349 -0.654,-0.685 -1,-1 -0.324,-0.349 -0.654,-0.685 -1,-1 -0.322,-0.347 -0.625,-0.656 -0.969,-0.969 -0.324,-0.349 -0.654,-0.685 -1,-1 -0.324,-0.349 -0.654,-0.685 -1,-1 -0.324,-0.349 -0.654,-0.685 -1,-1 -0.324,-0.349 -0.654,-0.685 -1,-1 -0.324,-0.349 -0.654,-0.685 -1,-1 -0.241,-0.26 -0.497,-0.478 -0.75,-0.719 -0.075,-0.084 -0.142,-0.167 -0.219,-0.25 -0.324,-0.349 -0.654,-0.685 -1,-1 -0.324,-0.349 -0.654,-0.685 -1,-1 -0.324,-0.349 -0.654,-0.685 -1,-1 -0.324,-0.349 -0.654,-0.685 -1,-1 -0.324,-0.349 -0.654,-0.685 -1,-1 -0.314,-0.338 -0.634,-0.663 -0.969,-0.969 -0.324,-0.349 -0.654,-0.685 -1,-1 -0.324,-0.349 -0.654,-0.685 -1,-1 -0.324,-0.349 -0.654,-0.685 -1,-1 -0.324,-0.349 -0.654,-0.685 -1,-1 -0.324,-0.349 -0.654,-0.685 -1,-1 -0.314,-0.338 -0.634,-0.663 -0.969,-0.969 -0.324,-0.349 -0.654,-0.685 -1,-1 -0.324,-0.349 -0.654,-0.685 -1,-1 -0.324,-0.349 -0.654,-0.685 -1,-1 -0.324,-0.349 -0.654,-0.685 -1,-1 -0.324,-0.349 -0.654,-0.685 -1,-1 -0.324,-0.349 -0.654,-0.685 -1,-1 -0.322,-0.347 -0.625,-0.656 -0.969,-0.969 -0.324,-0.349 -0.654,-0.685 -1,-1 -0.324,-0.349 -0.654,-0.685 -1,-1 -0.324,-0.349 -0.654,-0.685 -1,-1 -0.324,-0.349 -0.654,-0.685 -1,-1 -0.324,-0.349 -0.654,-0.685 -1,-1 -0.241,-0.26 -0.497,-0.478 -0.75,-0.719 -0.075,-0.084 -0.142,-0.167 -0.219,-0.25 -0.324,-0.349 -0.654,-0.685 -1,-1 -0.324,-0.349 -0.654,-0.685 -1,-1 -0.324,-0.349 -0.654,-0.685 -1,-1 -0.324,-0.349 -0.654,-0.685 -1,-1 -0.324,-0.349 -0.654,-0.685 -1,-1 -0.314,-0.338 -0.634,-0.663 -0.969,-0.969 -0.324,-0.349 -0.654,-0.685 -1,-1 -0.324,-0.349 -0.654,-0.685 -1,-1 -0.324,-0.349 -0.654,-0.685 -1,-1 -0.324,-0.349 -0.654,-0.685 -1,-1 -0.324,-0.349 -0.654,-0.685 -1,-1 -0.324,-0.349 -0.654,-0.685 -1,-1 -0.322,-0.347 -0.625,-0.656 -0.969,-0.969 -0.324,-0.349 -0.654,-0.685 -1,-1 -0.324,-0.349 -0.654,-0.685 -1,-1 -0.324,-0.349 -0.654,-0.685 -1,-1 -0.324,-0.349 -0.654,-0.685 -1,-1 -0.324,-0.349 -0.654,-0.685 -1,-1 -0.322,-0.347 -0.625,-0.656 -0.969,-0.969 -0.324,-0.349 -0.654,-0.685 -1,-1 -0.324,-0.349 -0.654,-0.685 -1,-1 -0.324,-0.349 -0.654,-0.685 -1,-1 -0.324,-0.349 -0.654,-0.685 -1,-1 -0.324,-0.349 -0.654,-0.685 -1,-1 -0.314,-0.338 -0.634,-0.663 -0.969,-0.969 -0.324,-0.349 -0.654,-0.685 -1,-1 -0.324,-0.349 -0.654,-0.685 -1,-1 -0.324,-0.349 -0.654,-0.685 -1,-1 -0.324,-0.349 -0.654,-0.685 -1,-1 -0.324,-0.349 -0.654,-0.685 -1,-1 -0.314,-0.338 -0.634,-0.663 -0.969,-0.969 -0.324,-0.349 -0.654,-0.685 -1,-1 -0.324,-0.349 -0.654,-0.685 -1,-1 -0.324,-0.349 -0.654,-0.685 -1,-1 -6.237,-6.716 -16.722,-7.112 -23.438,-0.875 -5.667,5.262 -6.865,13.564 -3.344,20.06 l -27.438,25.469 c -0.032,-0.03 -0.061,-0.064 -0.094,-0.094 -0.317,-0.342 -0.656,-0.686 -1,-1 -0.317,-0.342 -0.656,-0.686 -1,-1 -0.317,-0.342 -0.656,-0.686 -1,-1 -0.321,-0.346 -0.651,-0.682 -1,-1 -0.041,-0.044 -0.084,-0.082 -0.125,-0.125 -0.011,-0.01 -0.02,-0.022 -0.031,-0.031 -0.274,-0.287 -0.55,-0.545 -0.844,-0.813 -0.321,-0.346 -0.651,-0.682 -1,-1 -0.04,-0.043 -0.084,-0.082 -0.125,-0.125 -0.011,-0.01 -0.02,-0.022 -0.031,-0.031 -0.27,-0.283 -0.523,-0.58 -0.813,-0.844 -0.317,-0.342 -0.656,-0.686 -1,-1 -0.317,-0.342 -0.656,-0.686 -1,-1 -0.321,-0.346 -0.651,-0.682 -1,-1 -0.041,-0.044 -0.084,-0.082 -0.125,-0.125 -0.011,-0.01 -0.02,-0.022 -0.031,-0.031 -0.279,-0.293 -0.544,-0.572 -0.844,-0.844 -0.321,-0.346 -0.651,-0.651 -1,-0.969 -0.316,-0.341 -0.625,-0.686 -0.969,-1 -0.317,-0.342 -0.656,-0.686 -1,-1 -0.317,-0.342 -0.656,-0.686 -1,-1 -0.321,-0.346 -0.651,-0.682 -1,-1 -0.041,-0.044 -0.084,-0.082 -0.125,-0.125 -0.011,-0.01 -0.02,-0.022 -0.031,-0.031 -0.279,-0.293 -0.544,-0.572 -0.844,-0.844 -0.321,-0.346 -0.651,-0.651 -1,-0.969 -0.316,-0.341 -0.625,-0.686 -0.969,-1 -0.317,-0.342 -0.656,-0.686 -1,-1 -0.317,-0.342 -0.656,-0.686 -1,-1 -0.317,-0.342 -0.656,-0.686 -1,-1 -0.326,-0.351 -0.645,-0.678 -1,-1 -0.321,-0.346 -0.651,-0.651 -1,-0.969 -0.316,-0.341 -0.625,-0.686 -0.969,-1 -0.317,-0.342 -0.656,-0.686 -1,-1 -0.317,-0.342 -0.656,-0.686 -1,-1 -0.317,-0.342 -0.656,-0.686 -1,-1 -0.321,-0.346 -0.651,-0.682 -1,-1 -0.326,-0.351 -0.645,-0.678 -1,-1 -0.321,-0.346 -0.651,-0.651 -1,-0.969 -2.89,-3.117 -6.952,-5.143 -11.531,-5.313 -5.532,-0.205 -10.524,2.323 -13.688,6.375 -0.292,-0.302 -0.595,-0.599 -0.906,-0.875 -0.325,-0.343 -0.65,-0.689 -1,-1 -0.227,-0.239 -0.449,-0.464 -0.688,-0.688 -0.413,-0.459 -0.857,-0.877 -1.313,-1.281 -0.132,-0.139 -0.27,-0.272 -0.406,-0.406 -0.092,-0.107 -0.187,-0.208 -0.281,-0.313 -0.102,-0.095 -0.209,-0.189 -0.313,-0.281 -0.244,-0.257 -0.492,-0.511 -0.75,-0.75 -0.394,-0.432 -0.787,-0.867 -1.219,-1.25 -0.325,-0.343 -0.65,-0.689 -1,-1 -0.284,-0.3 -0.571,-0.6 -0.875,-0.875 -0.36,-0.387 -0.734,-0.746 -1.125,-1.094 -0.132,-0.139 -0.27,-0.272 -0.406,-0.406 -0.092,-0.107 -0.187,-0.208 -0.281,-0.313 -0.102,-0.095 -0.209,-0.189 -0.313,-0.281 -0.244,-0.257 -0.492,-0.511 -0.75,-0.75 -0.394,-0.432 -0.787,-0.867 -1.219,-1.25 -0.325,-0.343 -0.65,-0.689 -1,-1 -0.325,-0.343 -0.65,-0.689 -1,-1 -0.225,-0.237 -0.45,-0.465 -0.688,-0.688 -0.413,-0.459 -0.857,-0.877 -1.313,-1.281 -0.132,-0.139 -0.27,-0.272 -0.406,-0.406 -0.492,-0.576 -1.01,-1.099 -1.563,-1.594 -0.325,-0.343 -0.65,-0.689 -1,-1 -0.325,-0.343 -0.65,-0.689 -1,-1 -0.227,-0.239 -0.449,-0.464 -0.688,-0.688 -0.413,-0.459 -0.857,-0.877 -1.313,-1.281 -0.132,-0.139 -0.27,-0.272 -0.406,-0.406 -0.092,-0.107 -0.187,-0.208 -0.281,-0.313 -0.102,-0.095 -0.209,-0.189 -0.313,-0.281 -0.244,-0.257 -0.492,-0.511 -0.75,-0.75 -0.394,-0.432 -0.787,-0.867 -1.219,-1.25 -0.325,-0.343 -0.65,-0.689 -1,-1 -0.325,-0.343 -0.65,-0.689 -1,-1 -0.324,-0.341 -0.652,-0.659 -1,-0.969 -0.132,-0.139 -0.27,-0.272 -0.406,-0.406 -0.092,-0.107 -0.187,-0.208 -0.281,-0.313 -0.102,-0.095 -0.209,-0.189 -0.313,-0.281 -0.244,-0.257 -0.492,-0.511 -0.75,-0.75 -0.394,-0.432 -0.787,-0.867 -1.219,-1.25 -0.325,-0.343 -0.65,-0.689 -1,-1 -0.325,-0.343 -0.65,-0.689 -1,-1 -0.324,-0.341 -0.652,-0.659 -1,-0.969 -0.132,-0.139 -0.27,-0.272 -0.406,-0.406 -0.092,-0.107 -0.187,-0.208 -0.281,-0.313 -0.102,-0.095 -0.209,-0.189 -0.313,-0.281 -0.132,-0.139 -0.27,-0.272 -0.406,-0.406 -0.492,-0.576 -1.01,-1.099 -1.563,-1.594 -3.173,-3.345 -7.585,-5.19 -12.09,-5.188"
     id="path459"
     style="fill-opacity:0.23500001;fill-rule:evenodd;fill:#e1c62b;stroke:#fce94f" />
  <path
     d="m 196.10121,161.5805 c -2.676,0.002 -5.376,0.669 -7.892,2.037 -8.05,4.38 -11.03,14.454 -6.651,22.505 3.696,6.793 11.449,9.976 18.618,8.173 l 34.683,63.862 c -2.931,2.224 -5.5,4.882 -7.658,7.869 l -0.023,0 -12.927,-9.672 c 2.74,-6.843 0.701,-14.995 -5.456,-19.601 -2.752,-2.059 -5.94,-3.055 -9.133,-3.208 -5.321,-0.256 -10.643,1.97 -14.07,6.557 -5.49,7.339 -3.99,17.718 3.349,23.21 6.193,4.632 14.546,4.409 20.304,-0.187 l 13.793,10.281 c -1.627,3.877 -2.611,8.07 -2.834,12.482 0.043,-1.137 0.126,-2.277 0.281,-3.372 l -73.861,-2.459 c -1.638,-7.169 -7.948,-12.625 -15.643,-12.88 -9.16,-0.303 -16.839,6.881 -17.14,16.04 -0.303,9.16 6.881,16.816 16.04,17.12 7.695,0.255 14.355,-4.758 16.463,-11.803 l 73.955,2.482 c 0.635,7.426 3.462,14.205 7.822,19.718 l -53.37,46.743 c -6.1,-4.16 -14.468,-3.849 -20.28,1.241 -6.895,6.04 -7.584,16.524 -1.546,23.418 6.04,6.895 16.524,7.584 23.418,1.546 5.798,-5.078 7.199,-13.295 3.911,-19.882 l 53.745,-47.14 c 5.77,4.628 12.95,7.574 20.819,8.06 -1.274,-0.072 -2.517,-0.212 -3.77,-0.422 l -0.492,15.948 c -7.243,1.382 -12.933,7.498 -13.442,15.199 -0.605,9.145 6.311,17.05 15.456,17.657 9.145,0.605 17.05,-6.311 17.657,-15.456 0.51,-7.709 -4.325,-14.544 -11.335,-16.861 0,-0.055 0,-0.109 0,-0.164 l 0.468,-15.901 c 4.37,-0.259 8.549,-1.264 12.388,-2.904 l 36.626,61.59 c -5.14,5.257 -6.314,13.485 -2.365,20.09 4.702,7.867 14.895,10.439 22.763,5.737 7.867,-4.702 10.416,-14.895 5.714,-22.763 -3.971,-6.645 -11.85,-9.504 -18.945,-7.4 l -36.65,-61.33 c 3.296,-2.38 6.191,-5.285 8.548,-8.595 l 12.318,8.618 c -2.595,6.93 -0.285,15.01 6.07,19.437 7.519,5.241 17.849,3.397 23.09,-4.122 5.241,-7.519 3.397,-17.873 -4.122,-23.11 -6.31,-4.399 -14.606,-3.789 -20.21,0.96 l -13.09,-9.11 c 1.431,-3.474 2.343,-7.21 2.646,-11.124 l 71.24,2.599 c 1.583,7.211 7.877,12.734 15.597,13.02 9.159,0.34 16.849,-6.812 17.189,-15.971 0.34,-9.159 -6.789,-16.849 -15.948,-17.189 -7.702,-0.286 -14.381,4.731 -16.51,11.779 l -71.871,-2.717 c -1.152,-7.567 -4.593,-14.39 -9.602,-19.742 l 51.05,-47.45 c 6.21,3.924 14.526,3.361 20.16,-1.873 6.716,-6.237 7.103,-16.749 0.867,-23.465 -6.237,-6.716 -16.726,-7.103 -23.442,-0.866 -5.667,5.262 -6.847,13.571 -3.325,20.07 l -51.778,48.03 c 0.552,0.369 1.053,0.753 1.546,1.147 -4.982,-3.73 -10.919,-6.231 -17.376,-7.07 l 0.726,-20.12 c 7.162,-1.619 12.619,-7.888 12.904,-15.573 0.339,-9.159 -6.812,-16.874 -15.971,-17.212 -9.159,-0.339 -16.85,6.812 -17.189,15.971 -0.285,7.695 4.718,14.375 11.756,16.51 l -0.726,20.28 c -4.04,0.402 -7.883,1.47 -11.428,3.068 l -34.495,-63.65 c 5.368,-5.04 6.893,-13.25 3.208,-20.02 -3.01,-5.535 -8.726,-8.668 -14.613,-8.665 m 84.8,97.72 c 0.084,0.048 0.162,0.1 0.234,0.164 0.077,0.065 0.145,0.153 0.211,0.234 -0.15,-0.129 -0.293,-0.271 -0.445,-0.398 m -23.77,2.084 c 14.564,0 26.393,11.852 26.393,26.416 0,14.564 -11.829,26.416 -26.393,26.416 -14.564,0 -26.416,-11.852 -26.416,-26.416 0,-14.564 11.852,-26.416 26.416,-26.416 m 0,7.775 c -10.284,0 -18.664,8.357 -18.664,18.641 0,10.284 8.38,18.641 18.664,18.641 10.284,0 18.641,-8.357 18.641,-18.641 0,-10.284 -8.357,-18.641 -18.641,-18.641"
     id="path461"
     style="fill:#d00000;fill-rule:evenodd;fill-opacity:1" />
  <path
     style="fill:#ffff3e;stroke-width:2.16949153"
     d="M 45.666139,449.74325 C 37.073239,445.50949 28.792225,433.67402 26.990043,423.05085 23.15008,400.4157 2.4071585,155.29013 3.9813322,151.14974 6.1505543,145.44425 19.212437,134.19305 21.806017,135.79597 c 1.012792,0.62594 1.841441,0.11299 1.841441,-1.13987 0,-1.57308 71.159402,-2.45184 229.966232,-2.83991 126.48142,-0.30907 229.96617,0.22787 229.9661,1.1932 -6e-5,0.96534 0.85623,1.2259 1.90291,0.57902 3.12458,-1.9311 16.3014,8.1895 19.66346,15.10275 l 3.12585,6.42748 1.70249,-5.42372 c 1.3512,-4.30457 1.51068,-3.85691 0.7729,2.16949 -5.50715,44.98335 -18.55657,163.09468 -18.78521,170.02628 -0.1625,4.92622 -0.69693,6.92511 -1.18761,4.44197 -0.49069,-2.48313 -31.90536,-35.43228 -69.81037,-73.22034 -64.22947,-64.03124 -69.43649,-68.70554 -76.53593,-68.70554 -10.04171,0 -17.05201,7.28633 -17.05201,17.72343 0,6.4997 -1.84216,9.42331 -11.97752,19.00891 -6.58764,6.23031 -12.86366,11.00922 -13.94669,10.61978 -1.08303,-0.38943 -9.80443,-8.27415 -19.38087,-17.52161 -17.89357,-17.2789 -23.55532,-19.79182 -31.50125,-13.98161 -3.43973,2.5152 -5.48806,1.14698 -18.31296,-12.23259 -17.38253,-18.13431 -29.68352,-27.48072 -36.16788,-27.48072 -2.6431,0 -7.37798,2.0234 -10.52195,4.49645 -4.3796,3.44499 -5.7163,6.41984 -5.7163,12.72171 0,7.33673 1.88999,10.19062 17.49585,26.4188 14.78764,15.37734 27.4787,34.12313 34.34866,50.73592 0.49343,1.19322 -3.4878,-1.8524 -8.84723,-6.76805 -19.12623,-17.54258 -26.53414,-19.4578 -36.54399,-9.44795 -7.94145,7.94145 -5.65782,16.95931 7.64126,30.17465 6.52512,6.48404 11.63678,11.89781 11.35923,12.0306 -0.27755,0.13279 -13.19616,-0.29098 -28.70802,-0.9417 -27.18175,-1.14028 -28.41593,-1.39926 -34.07088,-7.14924 -10.6054,-10.78364 -26.25847,-6.07033 -29.12756,8.77064 -1.33105,6.88515 -0.17391,8.36021 31.99347,40.78334 l 33.37446,33.63981 -9.12516,-1.45217 c -8.22156,-1.30837 -9.77908,-0.79826 -15.72882,5.15146 -11.93058,11.9306 -10.7325,14.07139 32.18469,57.50992 18.6393,18.86571 34.29641,34.73011 34.79359,35.25424 0.49716,0.52411 -37.08927,0.93069 -83.52543,0.90353 -74.031394,-0.0434 -85.324654,-0.4905 -91.698831,-3.63108 z"
     id="path3692"
     inkscape:connector-curvature="0" />
  <path
     style="fill:#e1c62b;fill-opacity:0.23500001;stroke:#fce94f;stroke-width:2.16949153"
     d="M 136.5785,453.48287 C 38.918504,452.21289 42.162467,452.71819 32.628126,437.2913 30.018894,433.06947 27.035518,423.50097 25.998397,416.02796 24.481074,405.09481 15.339846,305.49367 9.8179558,239.72881 9.2168294,232.56949 7.1210665,210.27672 5.1607049,190.18931 1.6759326,154.4816 1.6904995,153.54074 5.8136114,148.01828 c 2.3194602,-3.10667 6.9106676,-7.66135 10.2026836,-10.12152 5.723607,-4.27733 9.656884,-4.53264 89.899845,-5.83542 117.80003,-1.91254 298.11896,-2.15785 345.53268,-0.47007 l 39.94101,1.42177 8.37246,8.32258 c 4.60487,4.57742 9.34656,7.72057 10.53709,6.98478 1.34966,-0.83415 1.68441,1.01051 0.88917,4.89971 -1.19383,5.83849 -10.73181,91.27865 -24.18851,216.6782 -7.12696,66.41421 -9.39987,73.00341 -28.15258,81.61468 -8.10869,3.72352 -16.07845,3.95637 -121.49153,3.54936 -62.04746,-0.23958 -152.3973,-0.95035 -200.77743,-1.57948 z m 195.33711,-46.68555 c 7.10645,-7.56447 6.76026,-17.69865 -0.82756,-24.22541 -3.24844,-2.79422 -8.06256,-5.08038 -10.698,-5.08038 -3.84492,0 -8.30622,-5.87809 -22.57831,-29.74851 -16.5177,-27.62629 -17.53936,-30.02166 -14.32127,-33.57761 3.23697,-3.57682 3.86163,-3.59499 9.48049,-0.27585 3.4624,2.04529 5.53565,4.80296 4.88524,6.49794 -1.60766,4.18949 3.5787,15.66444 8.19703,18.13609 6.51737,3.48799 15.55864,2.34771 20.85779,-2.63058 13.70969,-12.87957 -2.39008,-36.63067 -18.85657,-27.81807 -5.97822,3.19944 -15.69648,-5.67573 -13.80178,-12.60442 0.87903,-3.21446 2.49372,-4.57224 4.51497,-3.79661 1.73061,0.66409 16.2124,1.20745 32.18176,1.20745 h 29.03522 l 7.82455,6.87005 c 10.08697,8.85647 19.21996,9.19119 26.29689,0.96377 14.79797,-17.20365 -8.81849,-37.71863 -25.27313,-21.95409 l -5.64176,5.40517 -34.11979,-1.40788 -34.11979,-1.40789 -4.35599,-9.84744 -4.35599,-9.84743 4.94798,-4.67502 c 40.35593,-38.12952 42.1424,-39.49549 51.33863,-39.25436 10.06306,0.26386 16.40949,-4.57651 18.79142,-14.33206 1.19884,-4.90995 0.22563,-7.11075 -5.51637,-12.47457 -3.83459,-3.58206 -9.35382,-6.51283 -12.26491,-6.51283 -7.90528,0 -15.94314,9.15371 -15.94314,18.15645 0,6.79084 -2.36707,9.6895 -24.83647,30.41415 l -24.83645,22.90793 -7.16355,-2.99745 c -6.05631,-2.53415 -7.27098,-4.25875 -7.85879,-11.15779 -0.5916,-6.94385 0.29779,-8.9375 5.96611,-13.37363 8.36681,-6.54802 9.15725,-17.08228 1.78,-23.72278 -6.88688,-6.19911 -11.40062,-7.35861 -18.71705,-4.80808 -12.0561,4.20278 -13.58746,21.50999 -2.51507,28.42481 7.66668,4.78792 4.55558,23.41063 -3.91097,23.41063 -4.94613,0 -38.19019,-60.65317 -34.99521,-63.84815 2.71923,-2.71923 2.70808,-13.4108 -0.0193,-18.50696 -1.16803,-2.18249 -5.16074,-5.02688 -8.87268,-6.32087 -16.96878,-5.91535 -29.03591,14.12905 -16.22088,26.94408 2.92881,2.92882 7.28088,5.32512 9.67126,5.32512 2.84697,0 6.14892,3.18049 9.57244,9.22034 2.87447,5.07118 10.23765,18.04059 16.36262,28.82089 11.6316,20.47225 12.95189,25.00547 8.38626,28.7946 -4.49957,3.73431 -12.92563,-4.16126 -13.60085,-12.74453 -1.09352,-13.90098 -18.14822,-20.07288 -28.52617,-10.3233 -5.85441,5.49993 -6.29409,10.39272 -1.72749,19.22356 3.5649,6.89375 10.95733,9.85132 19.35512,7.74361 6.9865,-1.7535 17.82556,7.03607 15.65429,12.69432 -1.36262,3.55095 -4.14354,3.7212 -36.70228,2.24691 -34.71047,-1.57173 -35.33263,-1.68688 -42.35428,-7.83917 -8.10833,-7.10442 -12.56258,-7.73263 -19.64652,-2.77084 -8.22201,5.75892 -9.80801,13.18641 -4.6112,21.59502 7.047,11.40228 17.84214,12.36259 27.04507,2.40585 4.1884,-4.53144 5.54333,-4.65673 39.0362,-3.60964 l 34.6972,1.08475 3.70707,7.59322 c 2.03889,4.17627 3.75396,8.66135 3.81128,9.96685 0.0573,1.3055 -11.20383,12.38689 -25.02475,24.62532 -21.34431,18.9004 -25.99456,22.08623 -30.8763,21.15302 -12.36387,-2.36351 -24.82462,10.85486 -19.65815,20.85337 4.50367,8.71583 9.02189,12.35059 15.35249,12.35059 8.78618,0 16.92108,-8.64965 16.92108,-17.99181 0,-6.59553 2.24426,-9.3062 22.08511,-26.67488 30.40513,-26.61663 28.12911,-25.3101 37.3669,-21.45031 6.84144,2.85854 7.80223,4.19144 7.80223,10.82408 0,4.16026 -0.93824,7.56411 -2.08497,7.56411 -1.14675,0 -4.07557,2.13663 -6.50848,4.74806 -9.88379,10.60901 -1.88763,27.79431 12.93243,27.79431 6.45072,0 9.39121,-1.30712 12.85949,-5.7163 5.95475,-7.57023 5.67454,-14.2456 -0.92729,-22.09144 -7.07538,-8.40863 -7.3572,-18.90939 -0.55521,-20.68815 2.67767,-0.70023 5.95497,-0.0819 7.28289,1.37409 6.37182,6.98633 35.10821,58.00317 33.30081,59.1202 -1.13432,0.70105 -2.06239,5.05125 -2.06239,9.6671 0,15.50824 17.77471,23.06243 28.1868,11.97928 z"
     id="path4505"
     inkscape:connector-curvature="0" />
  <path
     style="fill:#e1c62b;fill-opacity:0.23500001;stroke:#fce94f;stroke-width:2.16949153"
     d="M 104.13559,453.52669 C 39.65158,452.14228 38.268715,451.77183 30.542418,433.81157 25.398879,421.85509 23.387956,403.78739 8.3840666,234.72372 1.8968669,161.62603 1.5160995,153.22527 4.4529582,147.99289 9.150666,139.62333 20.203184,132.94871 32.023543,131.34298 c 17.746291,-2.41073 454.648987,-2.4953 458.489487,-0.0887 1.90418,1.19322 7.57294,5.72733 12.59722,10.0758 l 9.13503,7.90631 -4.39458,37.65301 c -2.41701,20.70916 -8.80664,78.70745 -14.19915,128.8851 -5.39251,50.17765 -10.80746,96.52037 -12.03324,102.98383 -3.2853,17.32341 -8.68671,26.15804 -19.48349,31.86751 l -9.39355,4.96742 -146.64181,-0.43941 c -80.65302,-0.24168 -171.53675,-0.97388 -201.96387,-1.62712 z m 227.84894,-49.47582 c 2.35767,-2.99726 4.28666,-7.13879 4.28666,-9.20341 0,-5.85067 -8.09878,-14.71447 -14.78659,-16.18337 -4.76659,-1.04691 -8.85235,-5.81625 -19.19275,-22.40386 -7.22536,-11.59057 -15.21694,-25.16363 -17.75909,-30.16232 -4.18846,-8.23593 -4.3044,-9.40617 -1.236,-12.47457 4.17568,-4.17569 4.19343,-4.1755 10.74566,0.11769 3.55654,2.33033 5.34741,5.51942 5.34741,9.52237 0,15.33464 17.51691,21.55602 27.62056,9.80981 5.77898,-6.71848 5.3591,-14.13959 -1.21331,-21.44357 -2.90289,-3.22601 -5.63556,-3.7942 -13.67878,-2.84415 -8.61305,1.01735 -10.73642,0.45781 -14.8404,-3.91068 -2.63409,-2.80385 -4.43314,-6.89347 -3.99792,-9.08805 0.73578,-3.71019 3.13691,-3.9328 34.22206,-3.17265 32.78685,0.80177 33.5965,0.93758 42.03563,7.05085 10.29819,7.45996 15.74016,7.82736 22.4581,1.51618 7.09832,-6.66852 6.77704,-17.45117 -0.69513,-23.32877 -7.48375,-5.88671 -12.07812,-5.67286 -19.92194,0.92728 -5.75364,4.84137 -8.39216,5.42234 -24.57324,5.41073 -9.97012,-0.007 -25.97919,-0.62437 -35.57567,-1.37159 l -17.44818,-1.35859 -3.98948,-9.64562 -3.98946,-9.64561 9.50544,-9.83251 c 5.22799,-5.40789 16.12034,-15.58235 24.20523,-22.60992 11.62513,-10.10485 16.21513,-12.77739 21.94471,-12.77739 9.68381,0 18.67754,-7.22659 18.67754,-15.00766 0,-6.17524 -3.70275,-10.62237 -12.7455,-15.30776 -7.35629,-3.81158 -15.8234,2.85738 -18.76458,14.77957 -2.29224,9.29159 -17.92668,27.08319 -40.77755,46.40376 l -10.45712,8.84157 -7.44118,-3.54845 c -6.45927,-3.08021 -7.44119,-4.58885 -7.44119,-11.43274 0,-5.66672 1.8306,-9.96923 6.50848,-15.29703 7.95121,-9.05593 8.06354,-11.58923 0.8919,-20.11226 -6.67516,-7.93296 -16.02304,-8.89972 -22.58682,-2.33595 -6.01515,6.01515 -5.54244,15.46899 1.08475,21.69492 9.25433,8.69398 5.84172,29.15605 -4.21871,25.2955 -4.03397,-1.54798 -11.9409,-14.05716 -25.20912,-39.88217 -9.14557,-17.80075 -10.15456,-21.06464 -8.22395,-26.60278 4.57738,-13.1307 -8.47407,-25.62385 -20.86903,-19.97633 -13.42066,6.11486 -11.26722,21.76518 4.09148,29.73524 7.00954,3.63744 10.78986,8.57918 22.40842,29.29291 15.43209,27.51255 18.53359,37.48649 12.38998,39.84401 -4.70929,1.80713 -13.99619,-6.28349 -13.99619,-12.19328 0,-11.30708 -11.38475,-18.93626 -21.8124,-14.61698 -8.27792,3.42883 -10.97102,10.431 -7.33646,19.07508 3.25016,7.72985 10.22805,11.36131 18.71386,9.73915 7.81967,-1.49483 16.94348,4.88255 16.94348,11.84319 v 5.4952 l -35.84347,-1.18397 c -34.38188,-1.1357 -36.14529,-1.41419 -43.24508,-6.82946 -9.02401,-6.88295 -15.56571,-7.15655 -22.19536,-0.92833 -6.21791,5.84143 -6.39261,12.47964 -0.52473,19.93943 5.9201,7.52619 15.43715,7.58405 24.27489,0.14759 l 6.61804,-5.56872 32.74599,1.39413 c 18.01029,0.76678 33.77582,1.70455 35.03452,2.08394 1.25869,0.3794 3.62051,4.72577 5.2485,9.65861 2.93389,8.88978 2.89462,9.03672 -4.45803,16.67962 -4.0799,4.24096 -15.34781,14.46467 -25.03982,22.71937 -14.8436,12.64232 -18.8781,15.00854 -25.59014,15.00854 -9.15318,0 -18.61853,7.75524 -18.61853,15.25471 0,2.53247 2.92174,7.52623 6.49277,11.09726 4.94702,4.94702 7.65862,6.13742 11.38983,5.00022 8.06842,-2.4591 12.47883,-7.73684 13.90182,-16.63573 1.13229,-7.08093 4.23674,-11.04761 19.57103,-25.00655 10.02391,-9.12486 21.62785,-19.01162 25.78654,-21.97058 7.35799,-5.23527 7.7642,-5.28316 15.10795,-1.78116 6.52143,3.10984 7.54667,4.64434 7.54667,11.29516 0,4.92223 -1.20192,8.15763 -3.33449,8.97597 -1.83396,0.70375 -4.75945,4.03519 -6.50112,7.4032 -7.62765,14.75022 10.42749,29.62367 23.48882,19.34961 7.15284,-5.62641 7.80792,-15.80783 1.53323,-23.82957 -5.88948,-7.52926 -5.75076,-18.78494 0.25498,-20.6911 6.43742,-2.04316 10.22973,2.39716 26.93597,31.53856 12.7803,22.29324 14.16546,25.84444 13.01183,33.3594 -2.90608,18.93094 15.82991,29.22731 27.10378,14.89486 z"
     id="path4507"
     inkscape:connector-curvature="0" />
  <path
     style="fill:#e1c62b;fill-opacity:0.23500001;stroke:#fce94f;stroke-width:2.16949153"
     d="M 51.270702,451.94136 C 26.551977,445.74948 27.071777,447.90691 12.947597,292.88136 8.1098785,239.78305 3.5663701,185.06021 2.8509112,171.27505 l -1.300834,-25.06393 8.4453005,-6.66195 c 4.6955663,-3.70403 13.2615973,-7.69477 19.2927583,-8.98812 16.540819,-3.54707 456.266544,-3.35523 462.206934,0.20165 16.14174,9.66501 18.38106,11.71504 19.49564,17.84747 1.21871,6.70539 -25.41813,254.10781 -29.41386,273.19526 -3.07452,14.68689 -9.62252,24.42238 -19.98043,29.70659 -8.66569,4.42088 -10.54178,4.4555 -204.25596,3.76819 -144.5337,-0.51283 -198.263262,-1.38338 -206.069758,-3.33885 z m 279.383908,-48.5824 c 3.08912,-3.67119 5.61658,-7.50139 5.61658,-8.5115 0,-3.75988 -11.01666,-14.75853 -16.04741,-16.02115 -5.30011,-1.33025 -18.64179,-20.29738 -34.06286,-48.42525 -7.07349,-12.90198 -7.22059,-13.62478 -3.52781,-17.33529 3.50857,-3.5254 4.37504,-3.57917 9.68147,-0.60076 3.70928,2.08197 6.35606,5.85308 7.28053,10.37329 3.04225,14.87495 15.26682,20.16664 25.14642,10.88522 6.24484,-5.86671 6.45292,-14.6228 0.49938,-21.01317 -3.84057,-4.12237 -5.93278,-4.642 -13.88748,-3.44911 -7.83562,1.17502 -10.13133,0.63882 -14.0523,-3.28213 -2.66335,-2.66337 -4.39485,-6.73632 -4.0108,-9.43455 0.66653,-4.68301 1.13566,-4.73919 34.30289,-4.1073 31.28463,0.59603 34.15606,1.00035 41.22034,5.80416 12.7742,8.68664 21.58961,7.5389 26.121,-3.40089 2.38668,-5.76194 2.18791,-7.29478 -1.60835,-12.40243 -5.52865,-7.43849 -14.04312,-8.48384 -22.14018,-2.71823 -5.52003,3.93061 -9.4953,4.48352 -32.23509,4.48352 -14.26621,0 -30.3885,-0.60993 -35.82731,-1.3554 -9.34339,-1.28066 -10.12534,-1.92471 -14.17879,-11.67842 l -4.29004,-10.32302 18.59625,-17.06734 c 24.8392,-22.79702 29.48974,-26.05788 39.42986,-27.64737 8.36998,-1.33841 17.45468,-9.43365 17.45468,-15.55359 0,-3.89434 -12.53525,-14.00198 -17.36493,-14.00198 -5.04231,0 -12.25444,8.98643 -14.15431,17.6365 -1.69901,7.73548 -42.44547,49.04127 -50.32908,51.01992 -2.87841,0.72244 -7.23438,-0.24268 -10.37088,-2.29778 -7.36506,-4.82577 -7.35805,-16.36258 0.0152,-26.03021 8.08331,-10.59776 6.51661,-18.79299 -4.73873,-24.78762 -6.75823,-3.59945 -8.8848,-3.19925 -14.88529,2.80125 -6.67852,6.67851 -6.66444,9.45175 0.0987,19.41764 5.25776,7.74776 7.06182,19.37774 3.76339,24.26111 -2.05748,3.04689 -11.35609,5.42379 -11.35609,2.90296 0,-1.05835 -3.46793,-7.34551 -7.70651,-13.97148 -4.23858,-6.62597 -11.46767,-19.82484 -16.06467,-29.33082 -6.80989,-14.08199 -8.14308,-18.88717 -7.19706,-25.94026 1.28223,-9.55971 -1.41905,-14.43022 -9.76261,-17.60244 -5.21846,-1.98406 -12.97025,0.6178 -16.18508,5.43245 -5.18117,7.75952 -0.26141,17.02825 13.57711,25.57902 7.11592,4.39691 34.66085,52.76279 34.66085,60.86066 0,3.52563 -1.42553,6.66451 -3.36462,7.40861 -4.08628,1.56805 -13.99131,-7.18236 -13.99131,-12.36036 0,-6.43942 -8.52396,-15.10084 -14.86118,-15.10084 -13.93775,0 -19.60427,11.56791 -11.01526,22.48708 3.58394,4.55624 6.34778,5.71631 13.61897,5.71631 11.29757,0 18.76595,4.88641 18.76595,12.27818 v 5.52367 l -35.25424,-0.80109 c -34.02568,-0.77318 -35.6086,-1.01216 -45.42296,-6.85767 -9.75679,-5.81123 -10.43788,-5.91738 -16.81356,-2.62039 -3.65466,1.8899 -6.64484,4.30753 -6.64484,5.37252 0,1.06499 -0.58444,3.45938 -1.29877,5.32088 -1.47871,3.85348 9.96421,16.49576 14.93084,16.49576 1.7151,0 6.71491,-2.44068 11.11068,-5.42373 7.30884,-4.95991 9.88574,-5.40359 30.13326,-5.18826 12.17752,0.12949 27.97498,0.8617 35.10546,1.62712 12.93583,1.38857 12.97221,1.41255 16.44313,10.83398 l 3.47863,9.44233 -16.44314,15.54141 c -23.59193,22.29815 -32.64716,28.74933 -42.47704,30.26175 -8.04558,1.23789 -18.44067,9.38519 -18.44067,14.45315 0,4.29429 11.55082,15.23191 16.08586,15.23191 6.20439,0 13.40963,-7.82672 15.25709,-16.57305 2.18796,-10.35837 45.65653,-50.68119 54.63506,-50.68119 13.35335,0 18.08887,14.90887 8.39487,26.42955 -6.54655,7.78012 -6.93702,15.447 -1.08475,21.29927 6.24276,6.24275 16.03614,5.61646 21.53745,-1.37733 5.57816,-7.09148 5.58104,-8.5955 0.0362,-18.94083 -8.28435,-15.45683 -1.85298,-29.45749 9.01407,-19.62295 2.32706,2.10597 10.55273,14.71551 18.27924,28.02121 12.35513,21.2765 14.04822,25.54437 14.04822,35.41195 0,19.30379 13.5498,26.54102 24.75631,13.22284 z"
     id="path4509"
     inkscape:connector-curvature="0" />
</svg>
