<?xml version="1.0" encoding="UTF-8" standalone="no"?>
<svg
   xmlns:dc="http://purl.org/dc/elements/1.1/"
   xmlns:cc="http://creativecommons.org/ns#"
   xmlns:rdf="http://www.w3.org/1999/02/22-rdf-syntax-ns#"
   xmlns:svg="http://www.w3.org/2000/svg"
   xmlns="http://www.w3.org/2000/svg"
   xmlns:sodipodi="http://sodipodi.sourceforge.net/DTD/sodipodi-0.dtd"
   xmlns:inkscape="http://www.inkscape.org/namespaces/inkscape"
   version="1.1"
   id="svg2"
   viewBox="0 0 512 512"
   sodipodi:docname="folder-document.svg"
   inkscape:version="0.92.1 r">
  <sodipodi:namedview
     pagecolor="#ffffff"
     bordercolor="#666666"
     borderopacity="1"
     objecttolerance="10"
     gridtolerance="10"
     guidetolerance="10"
     inkscape:pageopacity="0"
     inkscape:pageshadow="2"
     inkscape:window-width="1167"
     inkscape:window-height="834"
     id="namedview19"
     showgrid="false"
     inkscape:zoom="0.4609375"
     inkscape:cx="256"
     inkscape:cy="256"
     inkscape:window-x="186"
     inkscape:window-y="98"
     inkscape:window-maximized="0"
     inkscape:current-layer="svg2" />
  <metadata
     id="metadata367">
    <rdf:RDF>
      <cc:Work
         rdf:about="">
        <dc:format>image/svg+xml</dc:format>
        <dc:type
           rdf:resource="http://purl.org/dc/dcmitype/StillImage" />
      </cc:Work>
    </rdf:RDF>
  </metadata>
  <defs
     id="defs4">
    <linearGradient
       gradientUnits="userSpaceOnUse"
       id="0-0"
       y2="453.26001"
       x2="0"
       y1="121.76"
       gradientTransform="translate(0.0012,-0.013)">
      <stop
         id="stop7-9"
         style="stop-color:#6a6a6a" />
      <stop
         id="stop9-7"
         offset=".47" />
      <stop
         id="stop11-6"
         style="stop-color:#fff"
         offset=".494" />
      <stop
         id="stop13-4"
         style="stop-color:#fff"
         offset=".901" />
      <stop
         id="stop15-0"
         offset=".955" />
      <stop
         id="stop17-4"
         offset="1" />
    </linearGradient>
  </defs>
  <path
     d="m 108.6312,57.377 c -7.963,0 -15.228,2.293 -20.693,6.22 -4.545,3.266 -7.751,7.872 -8.752,13.13 l -11.909,0 c -16.447,0 -29.883,13.03 -29.883,29.2 l 0,66.736 c 0,16.17 13.436,29.19 29.883,29.19 l 377.47,0 c 16.447,0 29.883,-13.03 29.883,-29.19 l 0,-66.736 c 0,-16.17 -13.436,-29.2 -29.883,-29.2 l -262.91,0 c -1,-5.256 -4.208,-9.862 -8.753,-13.13 -5.465,-3.927 -12.73,-6.22 -20.693,-6.22 l -43.761,0"
     style="fill:#cccccc;fill-rule:evenodd"
     id="path115" />
  <path
     d="m 37.3612,118.467 c -19.928,0 -38.06,15.818 -36.23,35.853 l 24.26,265.41 c 1.733,18.966 16.271,34.947 36.2,34.947 l 383.41,0 c 19.933,0 34.1,-16.05 36.2,-34.853 l 29.632,-265.41 c 1.123,-10.05 -3.137,-19.263 -9.971,-25.663 -6.833,-6.399 -16.258,-10.284 -26.22,-10.284 l -437.27,0"
     style="fill:#6997c7;fill-rule:evenodd"
     id="path117" />
  <path
     id="path119"
     style="opacity:0.05;fill:url(#0-0)"
     d="m 37.3612,118.457 c -19.928,0 -38.08,15.84 -36.25,35.875 l 11.781,128.78 12.469,136.63 c 1.733,18.966 16.29,34.938 36.22,34.938 l 383.41,0 c 19.933,0 34.09,-16.04 36.19,-34.844 l 15.281,-136.72 14.375,-128.69 c 1.123,-10.05 -3.135,-19.287 -9.969,-25.688 -6.833,-6.399 -16.257,-10.281 -26.22,-10.281 l -437.28,0" />
  <path
     d="m 108.5512,57.297 c -7.963,0 -15.11,2.403 -20.572,6.33 -4.545,3.266 -7.702,7.931 -8.703,13.187 l -12.13,0 c -17.677,0 -29.802,12.771 -29.802,30.661 l 0,3.956 c 0,-16.17 13.355,-29.27 29.802,-29.27 l 14.286,0 c 1,-5.256 2,-9.657 6.549,-12.923 5.465,-3.927 12.609,-6.33 20.572,-6.33 l 43.78,0 c 7.963,0 15.371,2.403 20.835,6.33 4.545,3.266 5.766,7.668 6.769,12.923 l 264.88,0 c 16.447,0 29.802,11.455 29.802,27.625 l 0,-3.956 c 0,-16.17 -13.355,-29.01 -29.802,-29.01 l -262.95,0 c -1,-5.256 -4.159,-9.921 -8.703,-13.187 -5.465,-3.927 -12.872,-6.33 -20.835,-6.33 z"
     style="opacity:0.76399997;fill:#ffffff;fill-rule:evenodd"
     id="path123" />
  <path
     d="m 37.3512,118.457 c -19.928,0 -38.05,15.84 -36.22,35.875 l 0.406,4.375 c 3,-15.936 18.732,-27.563 35.813,-27.563 l 437.28,0 c 9.966,0 19.386,3.882 26.22,10.281 4.736,4.435 8.234,10.208 9.563,16.688 l 0.406,-3.688 c 1.123,-10.05 -3.134,-19.288 -9.969,-25.688 -6.833,-6.399 -16.252,-10.281 -26.22,-10.281 l -437.28,0"
     style="opacity:0.4;fill:#ffffff;fill-rule:evenodd"
     id="path125" />
  <path
     id="path361"
     style="opacity:0.25;fill:#c4a000"
     d="m 208.0412,161.587 c -13.599,0 -27.2,5.211 -37.617,15.631 -20.84,20.84 -20.84,54.4 0,75.24 l 137.31,137.31 64.922,64.922 72.33,0 c 19.933,0 34.09,-16.04 36.19,-34.844 l 0.715,-6.391 -236.23,-236.23 c -10.42,-10.42 -24.02,-15.631 -37.619,-15.631 m 40.471,2.494 26.625,27.16 26.656,27.13 181.6,181.61 12.926,-115.65 -84.26,-84.26 c -2.168,-2.168 -11.02,-5.567 -38.41,-15.289 -21.17,-7.514 -29.563,-9.01 -92.84,-16.723 l -32.3,-3.967 m -147.83,104.39 c -0.522,-0.133 -3.712,1.904 -7.05,4.525 -3.615,2.837 -9.19,5.641 -13.756,6.936 -4.219,1.196 -7.874,2.409 -8.141,2.676 -0.261,0.261 3.694,4.633 8.848,9.787 l 0.322,0.322 98.19,98.19 c 0.921,1.067 1.897,2.125 2.93,3.158 l 60.62,60.62 114.96,0 -63.717,-63.717 -11.521,-11.521 -96.25,-96.25 -4.967,3.674 -3.48,2.574 -11.125,-11.125 -4.232,2.996 c -3.625,2.576 -5.618,4.057 -7.125,4.396 l -11.07,-11.07 -6.03,4.672 -4.03,3.156 -10.188,-10.188 c -0.912,-0.912 -2.295,-0.232 -5.947,2.564 -3.254,2.492 -5.146,3.858 -6.652,4.063 l -9.811,-9.811 c -0.368,-0.368 -0.644,-0.592 -0.789,-0.629" />
  <path
     id="path363"
     style="fill:#ffffff"
     d="m 170.4312,177.217 c -20.84,20.84 -20.84,54.4 0,75.24 l 137.31,137.31 c 20.841,20.84 54.4,20.84 75.24,0 20.84,-20.84 20.84,-54.4 0,-75.24 l -137.31,-137.31 c -20.84,-20.84 -54.4,-20.84 -75.24,0 m -98.69,105.39 c -0.267,0.267 3.859,4.817 9.169,10.11 10.896,10.859 21.96,18.528 30.8,21.395 5.455,1.769 124.96,21.748 125.7,21.01 0.174,-0.174 -11.288,-11.934 -25.48,-26.13 l -25.804,-25.804 -4.967,3.674 -4.967,3.674 -4.82,-6.113 -4.82,-6.113 -4.232,2.998 c -8.518,6.05 -8.04,6.079 -13.372,-0.617 l -4.82,-6.05 -6.02,4.673 -5.995,4.702 -3.321,-4.555 c -1.822,-2.491 -3.832,-5.451 -4.467,-6.583 -0.939,-1.675 -2.109,-1.3 -6.377,1.969 -7.298,5.589 -7.755,5.566 -12.344,-0.705 -2.185,-2.987 -4.385,-5.54 -4.908,-5.672 -0.522,-0.133 -3.713,1.904 -7.05,4.526 -3.615,2.837 -9.188,5.641 -13.754,6.936 -4.219,1.196 -7.874,2.408 -8.141,2.674 m 123.7,-80.56 c 6.492,-6.492 17.02,-6.492 23.511,0 6.493,6.492 6.492,17.02 0,23.511 -6.493,6.493 -17.02,6.492 -23.511,0 -6.492,-6.492 -6.493,-17.02 0,-23.511 m 53.08,-37.971 26.626,27.16 26.656,27.13 27.655,2.733 c 15.219,1.495 31.03,2.661 35.12,2.616 10.326,-0.113 22.774,-2.809 30.594,-6.613 6.917,-3.365 16.667,-12.05 17.457,-15.576 0.523,-2.334 -4.789,-4.619 -38.97,-16.752 -21.17,-7.514 -29.562,-9.01 -92.84,-16.722 l -32.3,-3.968 m -75.24,207.31 c -0.577,0.516 -0.995,1.55 -1.469,3.115 -2.327,7.687 12.286,24.911 25.98,30.624 19.788,8.254 54.23,8.613 94.31,0.97 6.516,-1.243 12.197,-2.544 12.608,-2.91 0.411,-0.365 -4.472,-5.882 -10.815,-12.226 l -11.521,-11.521 -6.172,1.469 c -12.513,3 -22.386,-0.142 -36.12,-11.55 -15.46,-12.843 -27.28,-16.14 -37,-10.316 -6.393,3.827 -5.697,5.203 5.173,9.992 5.669,2.498 11.177,5.796 12.696,7.641 2.5,3.037 2.426,3.472 -0.94,6.642 -8.36,7.873 -24.676,4.9 -38.24,-7.02 -5.163,-4.54 -7.223,-6.04 -8.494,-4.908 m 157.56,-26.24 3.762,-3.762 3.762,-3.762 4.232,4.232 4.232,4.232 4.232,-4.232 4.232,-4.232 3.762,3.762 3.762,3.762 -4.232,4.232 -4.232,4.232 4.232,4.232 4.232,4.232 -3.762,3.762 -3.762,3.762 -4.232,-4.232 -4.232,-4.232 -4.232,4.232 -4.232,4.232 -3.762,-3.762 -3.762,-3.762 4.232,-4.232 4.232,-4.232 -4.232,-4.232 -4.232,-4.232" />
  <path
     style="opacity:1;fill:#fce94f;fill-opacity:1;stroke:#fce94f;stroke-width:2.16949153"
     d="M 48.384497,450.87371 C 29.107877,440.82258 28.114408,437.59505 21.071549,362.14062 17.727625,326.31515 12.037494,265.41519 8.4268132,226.80739 2.5739865,164.22507 2.203351,155.95117 5.0096581,150.52437 c 4.091986,-7.91303 12.7041119,-14.5796 22.5112079,-17.42574 5.313976,-1.54218 80.574184,-2.06639 233.468964,-1.6262 l 225.62712,0.6496 7.78941,4.84435 c 4.4081,2.74146 9.41316,8.44517 11.52998,13.13941 3.61072,8.00719 3.50702,10.39891 -2.98859,68.91837 -3.701,33.34281 -6.93695,61.34446 -7.19097,62.22589 -0.25403,0.88143 -19.49915,-17.42438 -42.76695,-40.67957 -40.87079,-40.84866 -42.85674,-42.49534 -58.57627,-48.56974 -29.96393,-11.57878 -45.85856,-15.39917 -86.51119,-20.79361 -22.22223,-2.9488 -44.73652,-5.95861 -50.03175,-6.68848 l -9.62768,-1.32702 25.62473,27.31266 c 16.57477,17.66658 27.25394,27.37315 30.23783,27.48393 2.80468,0.10414 3.44654,0.63475 1.63732,1.35353 -1.91966,0.76265 28.96802,33.23396 87.02778,91.48974 77.35806,77.61924 89.81635,90.99576 88.67075,95.20616 C 480.27377,410.3288 465.08036,395.91014 358.93001,289.77359 224.10533,154.96641 230.27708,160.02841 202.86831,161.77367 c -17.10518,1.08917 -30.59715,9.76607 -40.69486,26.17149 -5.97873,9.71344 -7.05566,13.55289 -7.16697,25.55158 -0.0953,10.27646 1.1547,16.77306 4.59183,23.86441 3.32548,6.86098 26.62639,31.56825 78.75335,83.50665 40.7168,40.56949 75.15878,74.90117 76.53773,76.29264 1.37898,1.39147 14.6823,14.8152 29.56295,29.83051 26.50212,26.74193 26.91089,27.30058 19.97642,27.30058 -6.20351,0 -10.18466,-3.2181 -32.17977,-26.01195 -13.80525,-14.30658 -25.96751,-25.47608 -27.02726,-24.82113 -1.05976,0.65497 -1.92807,-0.087 -1.92959,-1.64905 -0.002,-1.56195 -26.24527,-29.05138 -58.31941,-61.08762 -53.40395,-53.34088 -58.70375,-58.04051 -62.91246,-55.78807 -4.90915,2.62729 -12.14776,0.26145 -13.73082,-4.48775 -0.61033,-1.83097 -2.26734,-1.71974 -6.15518,0.41318 -8.27506,4.53979 -10.80682,4.27782 -13.38707,-1.38522 -2.76626,-6.07127 -5.04887,-6.54591 -9.59882,-1.99595 -4.25678,4.25677 -5.53735,4.1186 -11.26258,-1.21527 -4.71786,-4.39536 -13.37665,-4.21623 -13.37665,0.27672 0,4.08483 -6.11327,1.86483 -9.62545,-3.49543 l -3.61601,-5.51872 -11.541657,6.60347 c -6.347912,3.6319 -13.131296,6.60346 -15.074186,6.60346 -1.942889,0 -3.528665,0.73221 -3.523947,1.62712 0.0048,0.89492 27.349927,28.96271 60.76713,62.37288 33.41721,33.41017 71.70408,71.72882 85.08194,85.15255 l 24.32336,24.40678 -93.22609,-0.013 c -80.301808,-0.0109 -94.12773,-0.48349 -99.729743,-3.40445 z"
     id="path4508"
     inkscape:connector-curvature="0" />
  <path
     style="opacity:1;fill:#fce94f;fill-opacity:1;stroke:#fce94f;stroke-width:2.16949153"
     d="M 44.040678,449.35537 C 33.443374,443.41465 28.708254,434.34164 25.670383,414.15593 24.413358,405.80339 19.055776,352.10847 13.764646,294.8339 -0.35611618,141.98173 0.41840076,156.46036 5.8890123,147.60872 c 2.6711873,-4.32207 8.6811587,-9.51858 13.9692827,-12.07852 9.207537,-4.45729 11.094602,-4.49285 238.019875,-4.4848 224.41874,0.008 228.87231,0.0895 235.80946,4.31915 3.88887,2.37108 9.08077,7.49285 11.53757,11.38172 5.35274,8.47286 4.93065,19.15824 -3.5482,89.82478 -8.92659,74.39814 -17.73536,150.55527 -19.28583,166.73742 -2.75584,28.76271 -9.34252,41.75371 -24.34901,48.0238 -9.43672,3.94292 -83.17066,4.24431 -87.05911,0.35587 -2.02485,-2.02486 -2.60339,-2.02486 -2.60339,0 0,2.00133 -36.49994,2.59514 -157.83051,2.5677 l -157.830506,-0.0358 -8.677966,-4.86478 z M 283.76949,408.41168 c 21.25952,-3.58278 21.40112,-3.8454 9.21832,-17.09472 -10.60996,-11.53883 -10.75145,-11.6085 -22.47543,-11.06541 -11.05803,0.51222 -12.9111,-0.19417 -29.5368,-11.25836 -20.40218,-13.57748 -26.73883,-15.74155 -34.71072,-11.85423 -9.03314,4.40483 -8.19016,7.5807 3.59768,13.55405 12.01561,6.08877 13.87361,10.78524 5.734,14.4939 -7.63554,3.47897 -18.63557,0.6598 -30.59076,-7.84002 -11.21289,-7.97208 -14.04985,-8.05537 -14.04985,-0.41253 0,5.87053 19.93639,26.11408 29.28814,29.73936 16.62225,6.44374 51.31854,7.16568 83.52542,1.73796 z m 77.16556,-5.0409 c 28.53686,-8.51375 44.21304,-38.95821 35.32874,-68.6114 -2.00238,-6.68333 -17.58388,-23.30096 -79.72882,-85.03053 -88.98562,-88.39087 -91.35082,-90.15891 -115.42366,-86.28209 -25.00115,4.02632 -42.89531,22.7284 -44.90226,46.92959 -1.94197,23.41756 -1.35014,24.19061 85.07893,111.13085 81.19941,81.67965 84.84886,84.71078 102.29114,84.96029 3.66138,0.0523 11.47155,-1.34113 17.35593,-3.09671 z m 105.07173,-21.33163 c 0,-0.36255 -3.66102,-4.02356 -8.13559,-8.13559 l -8.1356,-7.47644 7.47644,8.13559 c 6.95888,7.57244 8.79475,9.13311 8.79475,7.47644 z M 216.47241,314.20464 c -26.02923,-26.27923 -31.08384,-30.04377 -36.4694,-27.1615 -3.14985,1.68574 -5.17888,1.16619 -8.86799,-2.27073 -4.264,-3.97252 -5.51015,-4.15568 -11.47213,-1.68615 -6.13012,2.53918 -7.03506,2.34253 -10.83926,-2.35546 -4.00379,-4.94447 -4.3664,-4.99853 -10.24319,-1.52702 -5.77998,3.41431 -6.29157,3.3789 -9.97439,-0.69057 -4.47413,-4.94386 -8.05135,-5.36703 -13.99446,-1.6555 -3.54547,2.21418 -5.03809,1.86323 -9.36539,-2.20206 l -5.14772,-4.83604 -13.458183,6.94093 -13.45818,6.94092 11.463179,11.70449 c 6.304748,6.43747 14.880128,13.47213 19.056394,15.63257 8.13281,4.20722 108.6262,22.96163 126.87241,23.67735 6.1125,0.23977 5.34231,-0.88048 -14.10169,-20.51123 z m 169.05222,-93.27179 c 6.36004,-1.88873 14.91116,-6.58828 19.29073,-10.60186 l 7.86671,-7.20929 -7.50714,-4.57696 c -9.43303,-5.75114 -41.77831,-16.54806 -61.74442,-20.61042 -19.44064,-3.95544 -87.8505,-12.92223 -89.09468,-11.67805 -1.57885,1.57885 39.88846,44.45565 47.60886,49.22712 12.69087,7.84339 64.20792,11.20233 83.57994,5.44946 z"
     id="path4512"
     inkscape:connector-curvature="0" />
  <path
     style="opacity:1;fill:#fce94f;fill-opacity:1;stroke:#fce94f;stroke-width:2.16949153"
     d="m 333.9411,364.58694 c -1.85266,-2.23232 -1.39386,-3.86033 1.93751,-6.87519 l 4.36499,-3.95026 -4.44491,-4.73139 c -3.97576,-4.232 -4.08951,-5.02637 -1.07772,-7.52593 2.79042,-2.31584 4.10347,-2.12821 7.66549,1.09537 4.13287,3.7402 4.4637,3.7402 8.59657,0 3.56202,-3.22358 4.87507,-3.41121 7.66549,-1.09537 3.01179,2.49956 2.89804,3.29393 -1.07771,7.52593 l -4.44492,4.73139 4.44018,4.01831 c 3.94683,3.57183 4.0786,4.37989 1.18594,7.27255 -2.89265,2.89265 -3.74385,2.81114 -7.66075,-0.73361 -4.10871,-3.71833 -4.67464,-3.74519 -8.37395,-0.39736 -4.80433,4.34786 -5.66594,4.4132 -8.77621,0.66556 z"
     id="path4514"
     inkscape:connector-curvature="0" />
  <path
     style="opacity:1;fill:#fce94f;fill-opacity:1;stroke:#fce94f;stroke-width:2.16949153"
     d="m 195.91099,224.33195 c -8.96512,-9.90635 -1.5245,-26.04042 12.00918,-26.04042 7.01053,0 15.10356,8.65625 15.10356,16.15467 0,12.29625 -18.74569,19.13123 -27.11274,9.88575 z"
     id="path4516"
     inkscape:connector-curvature="0" />
</svg>
