<?xml version="1.0" encoding="UTF-8" standalone="no"?>
<!-- Created with Inkscape (http://www.inkscape.org/) -->

<svg
   xmlns:dc="http://purl.org/dc/elements/1.1/"
   xmlns:cc="http://creativecommons.org/ns#"
   xmlns:rdf="http://www.w3.org/1999/02/22-rdf-syntax-ns#"
   xmlns:svg="http://www.w3.org/2000/svg"
   xmlns="http://www.w3.org/2000/svg"
   xmlns:xlink="http://www.w3.org/1999/xlink"
   xmlns:sodipodi="http://sodipodi.sourceforge.net/DTD/sodipodi-0.dtd"
   xmlns:inkscape="http://www.inkscape.org/namespaces/inkscape"
   id="svg2"
   version="1.1"
   inkscape:version="0.91 r"
   width="512"
   height="513"
   sodipodi:docname="folder-games.svg">
  <metadata
     id="metadata8">
    <rdf:RDF>
      <cc:Work
         rdf:about="">
        <dc:format>image/svg+xml</dc:format>
        <dc:type
           rdf:resource="http://purl.org/dc/dcmitype/StillImage" />
        <dc:title></dc:title>
      </cc:Work>
    </rdf:RDF>
  </metadata>
  <defs
     id="defs6">
    <linearGradient
       inkscape:collect="always"
       id="linearGradient3406">
      <stop
         style="stop-color:#9f5722;stop-opacity:1;"
         offset="0"
         id="stop3408" />
      <stop
         id="stop3414"
         offset="0.25083286"
         style="stop-color:#e58f45;stop-opacity:1" />
      <stop
         style="stop-color:#c04b2e;stop-opacity:1"
         offset="0.53900057"
         id="stop3417" />
      <stop
         id="stop3419"
         offset="0.81355542"
         style="stop-color:#a13732;stop-opacity:1" />
      <stop
         style="stop-color:#9f5722;stop-opacity:0;"
         offset="1"
         id="stop3410" />
    </linearGradient>
    <linearGradient
       inkscape:collect="always"
       id="linearGradient3345">
      <stop
         style="stop-color:#ef7e2c;stop-opacity:1;"
         offset="0"
         id="stop3347" />
      <stop
         id="stop3353"
         offset="0.12345002"
         style="stop-color:#f19f4a;stop-opacity:1" />
      <stop
         style="stop-color:#f1883f;stop-opacity:1"
         offset="0.38271335"
         id="stop3361" />
      <stop
         style="stop-color:#dd6326;stop-opacity:1"
         offset="0.69351476"
         id="stop3357" />
      <stop
         id="stop3359"
         offset="0.88750315"
         style="stop-color:#e55d17;stop-opacity:0.98823529" />
      <stop
         style="stop-color:#ef7e2c;stop-opacity:0;"
         offset="1"
         id="stop3349" />
    </linearGradient>
    <linearGradient
       inkscape:collect="always"
       xlink:href="#linearGradient3345"
       id="linearGradient3351"
       x1="265.19492"
       y1="56.516945"
       x2="268.45551"
       y2="496.69702"
       gradientUnits="userSpaceOnUse" />
    <linearGradient
       gradientUnits="userSpaceOnUse"
       y2="496.69702"
       x2="268.45551"
       y1="56.516945"
       x1="265.19492"
       id="linearGradient3594"
       xlink:href="#linearGradient3345"
       inkscape:collect="always" />
    <linearGradient
       gradientUnits="userSpaceOnUse"
       y2="496.69702"
       x2="268.45551"
       y1="56.516945"
       x1="265.19492"
       id="linearGradient3390"
       xlink:href="#linearGradient3345"
       inkscape:collect="always" />
    <linearGradient
       inkscape:collect="always"
       xlink:href="#linearGradient3406"
       id="linearGradient3412"
       x1="120.20815"
       y1="50.552166"
       x2="127.27922"
       y2="467.74518"
       gradientUnits="userSpaceOnUse" />
  </defs>
  <sodipodi:namedview
     pagecolor="#ffffff"
     bordercolor="#666666"
     borderopacity="1"
     objecttolerance="10"
     gridtolerance="10"
     guidetolerance="10"
     inkscape:pageopacity="0"
     inkscape:pageshadow="2"
     inkscape:window-width="1366"
     inkscape:window-height="744"
     id="namedview4"
     showgrid="false"
     inkscape:zoom="0.70710678"
     inkscape:cx="681.56045"
     inkscape:cy="171.05764"
     inkscape:window-x="0"
     inkscape:window-y="24"
     inkscape:window-maximized="1"
     inkscape:current-layer="svg2" />
  <rect
     style="fill:#bdcdd4;fill-opacity:1;fill-rule:evenodd;stroke:#000000;stroke-width:0;stroke-linecap:butt;stroke-linejoin:miter;stroke-miterlimit:4;stroke-dasharray:none;stroke-opacity:0"
     id="rect2984"
     width="183.68008"
     height="70.691429"
     x="33.692795"
     y="71.733047"
     ry="25" />
  <rect
     style="fill:url(#linearGradient3351);fill-opacity:1;fill-rule:evenodd;stroke:none;stroke-width:0;stroke-linecap:butt;stroke-linejoin:miter;stroke-miterlimit:4;stroke-dasharray:none;stroke-opacity:1"
     id="rect2982"
     width="493.43646"
     height="326.0593"
     x="8.6949148"
     y="115.20763"
     ry="25" />
  <path
     style="opacity:1;fill:url(#linearGradient3412);fill-opacity:1;fill-rule:evenodd;stroke:none;stroke-width:35.59999847;stroke-miterlimit:4;stroke-dasharray:none;stroke-opacity:1"
     d="m 123.97452,357.39467 -6.55081,-7.7288 -7.89183,6.22701 -7.89182,6.22699 -13.592004,-15.86685 -13.591928,-15.86686 -7.65899,6.26486 -7.658999,6.26486 8.040791,9.83375 c 4.422592,5.40845 10.231288,12.80948 12.908846,16.44621 l 4.86834,6.61221 -7.88857,6.45266 -7.888582,6.45265 -19.953718,-24.39406 -19.953726,-24.39406 4.602106,-3.77031 c 2.531305,-2.07351 5.997474,-5.15007 7.702911,-6.83641 l 3.100763,-3.06616 -6.456621,-7.89342 -6.45662,-7.89342 7.908696,-6.46911 7.908695,-6.46911 -6.153142,-8.2618 -6.153141,-8.26181 2.60393,-2.12995 c 1.432165,-1.17147 4.871617,-4.22863 7.643184,-6.79367 l 5.039243,-4.66372 -6.250005,-7.64082 -6.250007,-7.64084 -5.356074,4.37227 c -2.944934,2.40593 -6.646997,5.19405 -8.225724,6.19724 l -2.870458,1.82398 -6.458785,-7.89608 -6.4587734,-7.89604 7.9031734,-6.4646 7.903181,-6.4646 1.583687,1.30123 c 0.871038,0.71569 3.943035,4.18558 6.826655,7.7109 l 5.242942,6.40966 7.888272,-6.4524 7.888262,-6.45241 6.665159,7.52868 c 3.665884,4.14075 6.779882,7.53406 6.920039,7.54064 0.140191,0.007 11.027415,-8.64608 24.193948,-19.22818 l 23.939094,-19.24012 -2.66111,-3.26413 c -1.46656,-1.79291 -4.30582,-5.56459 -6.31274,-8.37885 l -3.64897,-5.11682 7.89033,-6.45408 7.89032,-6.45409 -6.51551,-7.96539 -6.5155,-7.96541 8.21433,-6.71911 8.21435,-6.71912 6.4691,7.90867 6.46912,7.9087 -7.66905,6.87788 -7.66903,6.87782 6.20363,7.58414 6.20362,7.58411 5.57023,-4.01457 c 3.06362,-2.20799 6.76188,-4.98929 8.21828,-6.18058 l 2.64802,-2.16602 6.55081,7.72879 6.55081,7.72879 7.88075,-6.21804 7.88076,-6.21804 3.4265,3.5341 c 1.88457,1.94376 4.9299,5.37216 6.76748,7.61865 l 3.34102,4.08452 3.62003,-2.43137 c 1.99099,-1.33727 5.69354,-4.1248 8.22788,-6.1946 l 4.60792,-3.76326 19.95372,24.39406 19.95373,24.39407 -8.20743,6.71347 -8.20743,6.71346 -13.26419,-15.94782 -13.26415,-15.94785 -7.7165,6.31191 -7.71645,6.31186 13.00141,16.16275 13.00146,16.16274 -7.89084,6.45451 -7.89081,6.45448 1.57268,2.56873 c 0.86502,1.4128 3.65452,5.11375 6.19893,8.22437 l 4.62618,5.65566 -16.1797,13.23459 -16.17976,13.23463 -6.46848,-7.90793 -6.46847,-7.90792 15.87899,-13.60231 15.87893,-13.60231 -4.37243,-5.34544 c -2.40485,-2.94001 -5.36512,-6.26828 -6.57833,-7.39627 l -2.20595,-2.05076 -40.00824,32.72573 -40.00833,32.72578 6.3119,7.7165 6.3119,7.7165 9.58486,-7.83723 c 5.27148,-4.31058 12.56051,-10.02764 16.19726,-12.70524 l 6.61222,-4.86831 6.45266,7.88857 6.45266,7.88859 -16.1671,13.22429 -16.16709,13.22424 -6.5508,-7.72876 2e-5,10e-6 z m -33.303434,-68.52365 2.41405,-1.97463 -6.3119,-7.71648 -6.31188,-7.71648 -7.716481,6.31188 -7.716489,6.31189 6.286083,7.68494 6.286099,7.68496 1.807513,-1.09171 c 0.994188,-0.60049 3.391855,-2.53803 5.328225,-4.30574 1.93635,-1.76775 4.60701,-4.10257 5.93477,-5.18864 l -4e-5,-5e-5 z m 63.411904,-60.47809 c -2.5444,-3.11062 -5.61883,-6.57853 -6.83206,-7.70647 l -2.20595,-2.05077 -7.64878,6.25651 -7.64883,6.25654 6.28608,7.68495 6.2861,7.68495 1.78218,-1.12267 c 0.98018,-0.61751 4.66791,-3.42324 8.19483,-6.23501 l 6.41262,-5.11238 -4.62619,-5.65566 z"
     id="path3335"
     inkscape:connector-curvature="0" />
</svg>
