<?xml version="1.0" encoding="UTF-8" standalone="no"?>
<svg
   xmlns:dc="http://purl.org/dc/elements/1.1/"
   xmlns:cc="http://creativecommons.org/ns#"
   xmlns:rdf="http://www.w3.org/1999/02/22-rdf-syntax-ns#"
   xmlns:svg="http://www.w3.org/2000/svg"
   xmlns="http://www.w3.org/2000/svg"
   xmlns:sodipodi="http://sodipodi.sourceforge.net/DTD/sodipodi-0.dtd"
   xmlns:inkscape="http://www.inkscape.org/namespaces/inkscape"
   id="svg2"
   viewBox="0 0 512 512"
   height="100%"
   width="100%"
   version="1.1"
   sodipodi:docname="folder-download.svg"
   inkscape:version="0.92.1 r">
  <sodipodi:namedview
     pagecolor="#ffffff"
     bordercolor="#666666"
     borderopacity="1"
     objecttolerance="10"
     gridtolerance="10"
     guidetolerance="10"
     inkscape:pageopacity="0"
     inkscape:pageshadow="2"
     inkscape:window-width="1238"
     inkscape:window-height="823"
     id="namedview188"
     showgrid="false"
     inkscape:zoom="0.4609375"
     inkscape:cx="256"
     inkscape:cy="256"
     inkscape:window-x="143"
     inkscape:window-y="109"
     inkscape:window-maximized="0"
     inkscape:current-layer="svg2" />
  <metadata
     id="metadata515">
    <rdf:RDF>
      <cc:Work
         rdf:about="">
        <dc:format>image/svg+xml</dc:format>
        <dc:type
           rdf:resource="http://purl.org/dc/dcmitype/StillImage" />
      </cc:Work>
    </rdf:RDF>
  </metadata>
  <defs
     id="defs4">
    <linearGradient
       gradientUnits="userSpaceOnUse"
       id="0-0"
       y2="453.26001"
       x2="0"
       y1="121.76">
      <stop
         offset="0"
         style="stop-color:#6a6a6a;stop-opacity:1"
         id="stop7-3" />
      <stop
         offset="0.47"
         style="stop-color:#000000;stop-opacity:1"
         id="stop9-3" />
      <stop
         offset="0.49399999"
         style="stop-color:#ffffff;stop-opacity:1"
         id="stop11-6" />
      <stop
         offset="0.90100002"
         style="stop-color:#ffffff;stop-opacity:1"
         id="stop13-5" />
      <stop
         offset="0.95499998"
         style="stop-color:#000000;stop-opacity:1"
         id="stop15-7" />
      <stop
         offset="1"
         style="stop-color:#000000;stop-opacity:1"
         id="stop17-8" />
    </linearGradient>
  </defs>
  <g
     id="g19"
     transform="translate(0.0012,-0.0195)">
    <text
       style="font-size:129.22999573px;line-height:125%;font-family:'Gentium Book Basic';letter-spacing:0;word-spacing:0"
       id="text21"
       y="233.74001"
       x="729.64001">
      <tspan
         id="tspan23"
         y="233.74001"
         x="729.64001" />
    </text>
    <text
       style="font-size:46.95399857px;font-family:Arial;text-anchor:middle"
       id="text25"
       transform="scale(4.0128,0.2492)"
       y="588.81"
       x="378.91" />
    <text
       style="font-size:129.22999573px;line-height:125%;font-family:'Gentium Book Basic';letter-spacing:0;word-spacing:0"
       id="text27"
       y="153.74001"
       x="1310.91">
      <tspan
         id="tspan29"
         y="153.74001"
         x="1310.91" />
    </text>
    <text
       style="font-size:46.95399857px;font-family:Arial;text-anchor:middle"
       id="text31"
       transform="scale(4.0128,0.2492)"
       y="267.76999"
       x="523.76001" />
    <text
       style="font-size:129.22999573px;line-height:125%;font-family:'Gentium Book Basic';letter-spacing:0;word-spacing:0"
       id="text33"
       y="-27.52"
       x="239.33">
      <tspan
         id="tspan35"
         y="-27.52"
         x="239.33" />
    </text>
    <text
       style="font-size:46.95399857px;font-family:Arial;text-anchor:middle"
       id="text37"
       transform="scale(4.0128,0.2492)"
       y="-459.57999"
       x="256.72" />
    <text
       style="font-size:129.22999573px;line-height:125%;font-family:'Gentium Book Basic';letter-spacing:0;word-spacing:0"
       id="text39"
       y="-243.99001"
       x="1337.38">
      <tspan
         id="tspan41"
         y="-243.99001"
         x="1337.38" />
    </text>
    <text
       style="font-size:46.95399857px;font-family:Arial;text-anchor:middle"
       id="text43"
       transform="scale(4.0128,0.2492)"
       y="-1328.26"
       x="530.35999" />
    <text
       style="font-size:129.22999573px;line-height:125%;font-family:'Gentium Book Basic';letter-spacing:0;word-spacing:0"
       id="text45"
       y="-324"
       x="1918.65">
      <tspan
         id="tspan47"
         y="-324"
         x="1918.65" />
    </text>
    <text
       style="font-size:46.95399857px;font-family:Arial;text-anchor:middle"
       id="text49"
       transform="scale(4.0128,0.2492)"
       y="-1649.29"
       x="675.21002" />
    <text
       style="font-size:129.22999573px;line-height:125%;font-family:'Gentium Book Basic';letter-spacing:0;word-spacing:0"
       id="text51"
       y="-796.40002"
       x="1529.53">
      <tspan
         id="tspan53"
         y="-796.40002"
         x="1529.53" />
    </text>
    <text
       style="font-size:46.95399857px;font-family:Arial;text-anchor:middle"
       id="text55"
       transform="scale(4.0128,0.2492)"
       y="-3544.95"
       x="578.23999" />
    <text
       style="font-size:129.22999573px;line-height:125%;font-family:'Gentium Book Basic';letter-spacing:0;word-spacing:0"
       id="text57"
       y="-876.40002"
       x="2110.8">
      <tspan
         id="tspan59"
         y="-876.40002"
         x="2110.8" />
    </text>
    <text
       style="font-size:46.95399857px;font-family:Arial;text-anchor:middle"
       id="text61"
       transform="scale(4.0128,0.2492)"
       y="-3865.99"
       x="723.09003" />
    <g
       style="line-height:125%;font-family:'Gentium Book Basic';letter-spacing:0;word-spacing:0"
       id="g63">
      <text
         style="font-size:208.33000183px"
         id="text65"
         y="538.32001"
         x="277.98999">
        <tspan
           id="tspan67"
           y="538.32001"
           x="277.98999" />
      </text>
      <text
         style="font-size:129.22999573px"
         id="text69"
         y="-509.14001"
         x="3833.78">
        <tspan
           id="tspan71"
           y="-509.14001"
           x="3833.78" />
      </text>
    </g>
    <text
       style="font-size:46.95399857px;font-family:Arial;text-anchor:middle"
       id="text73"
       transform="scale(4.0128,0.2492)"
       y="-2392.23"
       x="1152.46" />
    <text
       style="font-size:129.22999573px;line-height:125%;font-family:'Gentium Book Basic';letter-spacing:0;word-spacing:0"
       id="text75"
       y="-589.14001"
       x="4415.0498">
      <tspan
         id="tspan77"
         y="-589.14001"
         x="4415.0498" />
    </text>
    <text
       style="font-size:46.95399857px;font-family:Arial;text-anchor:middle"
       id="text79"
       transform="scale(4.0128,0.2492)"
       y="-2713.26"
       x="1297.3101" />
    <text
       style="font-size:129.22999573px;line-height:125%;font-family:'Gentium Book Basic';letter-spacing:0;word-spacing:0"
       id="text81"
       y="-770.39001"
       x="3343.47">
      <tspan
         id="tspan83"
         y="-770.39001"
         x="3343.47" />
    </text>
    <text
       style="font-size:46.95399857px;font-family:Arial;text-anchor:middle"
       id="text85"
       transform="scale(4.0128,0.2492)"
       y="-3440.6201"
       x="1030.27" />
    <text
       style="font-size:129.22999573px;line-height:125%;font-family:'Gentium Book Basic';letter-spacing:0;word-spacing:0"
       id="text87"
       y="-986.87"
       x="4441.52">
      <tspan
         id="tspan89"
         y="-986.87"
         x="4441.52" />
    </text>
    <text
       style="font-size:46.95399857px;font-family:Arial;text-anchor:middle"
       id="text91"
       transform="scale(4.0128,0.2492)"
       y="-4309.29"
       x="1303.91" />
    <text
       style="font-size:129.22999573px;line-height:125%;font-family:'Gentium Book Basic';letter-spacing:0;word-spacing:0"
       id="text93"
       y="-1066.87"
       x="5022.79">
      <tspan
         id="tspan95"
         y="-1066.87"
         x="5022.79" />
    </text>
    <text
       style="font-size:46.95399857px;font-family:Arial;text-anchor:middle"
       id="text97"
       transform="scale(4.0128,0.2492)"
       y="-4630.3198"
       x="1448.76" />
    <text
       style="font-size:129.22999573px;line-height:125%;font-family:'Gentium Book Basic';letter-spacing:0;word-spacing:0"
       id="text99"
       y="-1539.27"
       x="4633.6699">
      <tspan
         id="tspan101"
         y="-1539.27"
         x="4633.6699" />
    </text>
    <text
       style="font-size:46.95399857px;font-family:Arial;text-anchor:middle"
       id="text103"
       transform="scale(4.0128,0.2492)"
       y="-6525.9902"
       x="1351.79" />
    <text
       style="font-size:129.22999573px;line-height:125%;font-family:'Gentium Book Basic';letter-spacing:0;word-spacing:0"
       id="text105"
       y="-1619.27"
       x="5214.9302">
      <tspan
         id="tspan107"
         y="-1619.27"
         x="5214.9302" />
    </text>
    <text
       style="font-size:46.95399857px;font-family:Arial;text-anchor:middle"
       id="text109"
       transform="scale(4.0128,0.2492)"
       y="-6847.02"
       x="1496.64" />
    <text
       style="font-size:208.33000183px;line-height:125%;font-family:'Gentium Book Basic';letter-spacing:0;word-spacing:0"
       id="text111"
       y="-204.56"
       x="3382.1299">
      <tspan
         id="tspan113"
         y="-204.56"
         x="3382.1299" />
    </text>
    <g
       style="fill-rule:evenodd"
       id="g115">
      <path
         style="fill:#cccccc"
         id="path117"
         d="m 108.63,57.39 c -7.963,0 -15.228,2.293 -20.693,6.22 -4.545,3.266 -7.751,7.872 -8.752,13.13 l -11.909,0 c -16.447,0 -29.883,13.03 -29.883,29.2 l 0,66.736 c 0,16.17 13.436,29.19 29.883,29.19 l 377.47,0 c 16.447,0 29.883,-13.03 29.883,-29.19 l 0,-66.736 c 0,-16.17 -13.436,-29.2 -29.883,-29.2 l -262.91,0 c -1,-5.256 -4.208,-9.862 -8.753,-13.13 -5.465,-3.927 -12.73,-6.22 -20.693,-6.22 l -43.761,0" />
      <path
         style="fill:#6997c7"
         id="path119"
         d="m 37.36,118.48 c -19.928,0 -38.06,15.818 -36.23,35.853 l 24.26,265.41 c 1.733,18.966 16.271,34.947 36.2,34.947 l 383.41,0 c 19.933,0 34.1,-16.05 36.2,-34.853 l 29.632,-265.41 c 1.123,-10.05 -3.137,-19.263 -9.971,-25.663 -6.833,-6.399 -16.258,-10.284 -26.22,-10.284 l -437.27,0" />
    </g>
    <path
       style="opacity:0.821;fill:#fce94f"
       id="path121"
       d="m 37.36,118.47 c -19.928,0 -38.08,15.84 -36.25,35.875 l 11.781,128.78 12.469,136.63 c 1.733,18.966 16.29,34.938 36.22,34.938 l 383.41,0 c 19.933,0 34.09,-16.04 36.19,-34.844 l 15.281,-136.72 14.375,-128.69 c 1.123,-10.05 -3.135,-19.287 -9.969,-25.688 -6.833,-6.399 -16.257,-10.281 -26.22,-10.281 l -437.28,0" />
    <g
       style="fill:#ffffff;fill-rule:evenodd"
       id="g123">
      <path
         style="opacity:0"
         id="path125"
         d="m 37.35,118.47 c -6.165,0 -12.154,1.503 -17.438,4.188 l 332.06,332.03 28.25,0 -336.19,-336.22 -6.688,0 m 34.969,0 336.22,336.22 28.28,0 -336.22,-336.22 -28.28,0 m 56.59,0 332.25,332.28 c 5.997,-3.165 10.884,-8.06 14.375,-13.938 l -318.37,-318.34 -28.25,0 m 56.56,0 296.28,296.31 2.844,-25.469 -270.87,-270.84 -28.25,0 m 56.56,0 245.41,245.44 2.844,-25.469 -220,-219.97 -28.25,0 m 56.56,0 194.53,194.53 2.844,-25.438 -169.12,-169.09 -28.25,0 m 56.56,0 143.63,143.63 2.844,-25.438 -118.19,-118.19 -28.28,0 m 56.56,0 92.75,92.75 2.844,-25.438 -67.28,-67.31 -28.313,0 m 56.59,0 41.844,41.844 0.656,-5.875 c 1.123,-10.05 -3.134,-19.288 -9.969,-25.688 -6.833,-6.399 -16.252,-10.281 -26.22,-10.281 l -6.313,0 M 5.253,136.259 c -3.108,5.286 -4.73,11.464 -4.125,18.09 l 0.625,6.719 293.66,293.63 28.25,0 -318.41,-318.44 m -0.656,55.906 2.844,31.13 231.41,231.41 28.25,0 -262.5,-262.53 m 5.688,62.25 2.844,31.13 169.16,169.16 28.25,0 -200.25,-200.28 m 5.688,62.28 2.844,31.13 106.88,106.88 28.28,0 -138,-138 m 5.688,62.25 2.844,31.13 44.625,44.625 28.28,0 -75.75,-75.75" />
      <path
         style="opacity:0.76399997"
         id="path127"
         d="m 108.55,57.31 c -7.963,0 -15.11,2.403 -20.572,6.33 -4.545,3.266 -7.702,7.931 -8.703,13.187 l -12.13,0 c -17.677,0 -29.802,12.771 -29.802,30.661 l 0,3.956 c 0,-16.17 13.355,-29.27 29.802,-29.27 l 14.286,0 c 1,-5.256 2,-9.657 6.549,-12.923 5.465,-3.927 12.609,-6.33 20.572,-6.33 l 43.78,0 c 7.963,0 15.371,2.403 20.835,6.33 4.545,3.266 5.766,7.668 6.769,12.923 l 264.88,0 c 16.447,0 29.802,11.455 29.802,27.625 l 0,-3.956 c 0,-16.17 -13.355,-29.01 -29.802,-29.01 l -262.95,0 c -1,-5.256 -4.159,-9.921 -8.703,-13.187 -5.465,-3.927 -12.872,-6.33 -20.835,-6.33 z" />
      <path
         style="opacity:0.4"
         id="path129"
         d="m 37.35,118.47 c -19.928,0 -38.05,15.84 -36.22,35.875 l 0.406,4.375 c 3,-15.936 18.732,-27.563 35.813,-27.563 l 437.28,0 c 9.966,0 19.386,3.882 26.22,10.281 4.736,4.435 8.234,10.208 9.563,16.688 l 0.406,-3.688 c 1.123,-10.05 -3.134,-19.288 -9.969,-25.688 -6.833,-6.399 -16.252,-10.281 -26.22,-10.281 l -437.28,0" />
    </g>
    <text
       style="font-size:129.22999573px;line-height:125%;font-family:'Gentium Book Basic';letter-spacing:0;word-spacing:0"
       id="text131"
       y="140.66"
       x="90.120003">
      <tspan
         id="tspan133"
         y="140.66"
         x="90.120003" />
    </text>
    <text
       style="font-size:46.95399857px;font-family:Arial;text-anchor:middle"
       id="text135"
       transform="scale(4.0128,0.2492)"
       y="215.28999"
       x="219.53999" />
    <text
       style="font-size:129.22999573px;line-height:125%;font-family:'Gentium Book Basic';letter-spacing:0;word-spacing:0"
       id="text137"
       y="60.661999"
       x="671.39001">
      <tspan
         id="tspan139"
         y="60.661999"
         x="671.39001" />
    </text>
    <text
       style="font-size:46.95399857px;font-family:Arial;text-anchor:middle"
       id="text141"
       transform="scale(4.0128,0.2492)"
       y="-105.74"
       x="364.39001" />
    <text
       style="font-size:129.22999573px;line-height:125%;font-family:'Gentium Book Basic';letter-spacing:0;word-spacing:0"
       id="text143"
       y="-120.6"
       x="-400.19">
      <tspan
         id="tspan145"
         y="-120.6"
         x="-400.19" />
    </text>
    <text
       style="font-size:46.95399857px;font-family:Arial;text-anchor:middle"
       id="text147"
       transform="scale(4.0128,0.2492)"
       y="-833.09003"
       x="97.349998" />
    <text
       style="font-size:129.22999573px;line-height:125%;font-family:'Gentium Book Basic';letter-spacing:0;word-spacing:0"
       id="text149"
       y="-337.07001"
       x="697.85999">
      <tspan
         id="tspan151"
         y="-337.07001"
         x="697.85999" />
    </text>
    <text
       style="font-size:46.95399857px;font-family:Arial;text-anchor:middle"
       id="text153"
       transform="scale(4.0128,0.2492)"
       y="-1701.76"
       x="370.98999" />
    <text
       style="font-size:129.22999573px;line-height:125%;font-family:'Gentium Book Basic';letter-spacing:0;word-spacing:0"
       id="text155"
       y="-417.07999"
       x="1279.13">
      <tspan
         id="tspan157"
         y="-417.07999"
         x="1279.13" />
    </text>
    <text
       style="font-size:46.95399857px;font-family:Arial;text-anchor:middle"
       id="text159"
       transform="scale(4.0128,0.2492)"
       y="-2022.8"
       x="515.84003" />
    <text
       style="font-size:129.22999573px;line-height:125%;font-family:'Gentium Book Basic';letter-spacing:0;word-spacing:0"
       id="text161"
       y="-889.47998"
       x="890.01001">
      <tspan
         id="tspan163"
         y="-889.47998"
         x="890.01001" />
    </text>
    <text
       style="font-size:46.95399857px;font-family:Arial;text-anchor:middle"
       id="text165"
       transform="scale(4.0128,0.2492)"
       y="-3918.45"
       x="418.87" />
    <text
       style="font-size:129.22999573px;line-height:125%;font-family:'Gentium Book Basic';letter-spacing:0;word-spacing:0"
       id="text167"
       y="-969.47998"
       x="1471.27">
      <tspan
         id="tspan169"
         y="-969.47998"
         x="1471.27" />
    </text>
    <text
       style="font-size:46.95399857px;font-family:Arial;text-anchor:middle"
       id="text171"
       transform="scale(4.0128,0.2492)"
       y="-4239.48"
       x="563.71997" />
    <g
       style="font-size:208.33000183px;line-height:125%;font-family:'Gentium Book Basic';letter-spacing:0;word-spacing:0"
       id="g173">
      <text
         id="text175"
         y="445.23999"
         x="-361.53">
        <tspan
           id="tspan177"
           y="445.23999"
           x="-361.53" />
      </text>
      <text
         id="text179"
         y="426.28"
         x="-2585.3601">
        <tspan
           id="tspan181"
           y="426.28"
           x="-2585.3601" />
      </text>
    </g>
    <text
       style="font-size:75.69999695px;font-family:Arial;text-anchor:middle"
       id="text183"
       transform="scale(4.0128,0.2492)"
       y="1147.7"
       x="-326.54999" />
    <text
       style="font-size:208.33000183px;line-height:125%;font-family:'Gentium Book Basic';letter-spacing:0;word-spacing:0"
       id="text185"
       y="270.64999"
       x="-1879.02">
      <tspan
         id="tspan187"
         y="270.64999"
         x="-1879.02" />
    </text>
    <text
       style="font-size:75.69999695px;font-family:Arial;text-anchor:middle"
       id="text189"
       transform="scale(4.0128,0.2492)"
       y="523.16998"
       x="-150.53" />
    <text
       style="font-size:208.33000183px;line-height:125%;font-family:'Gentium Book Basic';letter-spacing:0;word-spacing:0"
       id="text191"
       y="262.53"
       x="-1845.65">
      <tspan
         id="tspan193"
         y="262.53"
         x="-1845.65" />
    </text>
    <text
       style="font-size:75.69999695px;font-family:Arial;text-anchor:middle"
       id="text195"
       transform="scale(4.0128,0.2492)"
       y="490.57001"
       x="-142.21001" />
    <text
       style="font-size:129.22999573px;line-height:125%;font-family:'Gentium Book Basic';letter-spacing:0;word-spacing:0"
       id="text197"
       y="108.12"
       x="-695.22998">
      <tspan
         id="tspan199"
         y="108.12"
         x="-695.22998" />
    </text>
    <text
       style="font-size:46.95399857px;font-family:Arial;text-anchor:middle"
       id="text201"
       transform="scale(4.0128,0.2492)"
       y="84.709999"
       x="23.830999" />
    <text
       style="font-size:129.22999573px;line-height:125%;font-family:'Gentium Book Basic';letter-spacing:0;word-spacing:0"
       id="text203"
       y="28.120001"
       x="-113.97">
      <tspan
         id="tspan205"
         y="28.120001"
         x="-113.97" />
    </text>
    <text
       style="font-size:46.95399857px;font-family:Arial;text-anchor:middle"
       id="text207"
       transform="scale(4.0128,0.2492)"
       y="-236.33"
       x="168.67999" />
    <text
       style="font-size:129.22999573px;line-height:125%;font-family:'Gentium Book Basic';letter-spacing:0;word-spacing:0"
       id="text209"
       y="-153.14"
       x="-1185.55">
      <tspan
         id="tspan211"
         y="-153.14"
         x="-1185.55" />
    </text>
    <text
       style="font-size:46.95399857px;font-family:Arial;text-anchor:middle"
       id="text213"
       transform="scale(4.0128,0.2492)"
       y="-963.65997"
       x="-98.360001" />
    <text
       style="font-size:129.22999573px;line-height:125%;font-family:'Gentium Book Basic';letter-spacing:0;word-spacing:0"
       id="text215"
       y="-369.60999"
       x="-87.5">
      <tspan
         id="tspan217"
         y="-369.60999"
         x="-87.5" />
    </text>
    <text
       style="font-size:46.95399857px;font-family:Arial;text-anchor:middle"
       id="text219"
       transform="scale(4.0128,0.2492)"
       y="-1832.34"
       x="175.28" />
    <text
       style="font-size:129.22999573px;line-height:125%;font-family:'Gentium Book Basic';letter-spacing:0;word-spacing:0"
       id="text221"
       y="-449.60999"
       x="493.76999">
      <tspan
         id="tspan223"
         y="-449.60999"
         x="493.76999" />
    </text>
    <text
       style="font-size:46.95399857px;font-family:Arial;text-anchor:middle"
       id="text225"
       transform="scale(4.0128,0.2492)"
       y="-2153.3701"
       x="320.12" />
    <text
       style="font-size:129.22999573px;line-height:125%;font-family:'Gentium Book Basic';letter-spacing:0;word-spacing:0"
       id="text227"
       y="-922.01001"
       x="104.65">
      <tspan
         id="tspan229"
         y="-922.01001"
         x="104.65" />
    </text>
    <text
       style="font-size:46.95399857px;font-family:Arial;text-anchor:middle"
       id="text231"
       transform="scale(4.0128,0.2492)"
       y="-4049.01"
       x="223.16" />
    <text
       style="font-size:129.22999573px;line-height:125%;font-family:'Gentium Book Basic';letter-spacing:0;word-spacing:0"
       id="text233"
       y="-1002.02"
       x="685.90997">
      <tspan
         id="tspan235"
         y="-1002.02"
         x="685.90997" />
    </text>
    <text
       style="font-size:46.95399857px;font-family:Arial;text-anchor:middle"
       id="text237"
       transform="scale(4.0128,0.2492)"
       y="-4370.04"
       x="368" />
    <g
       style="line-height:125%;font-family:'Gentium Book Basic';letter-spacing:0;word-spacing:0"
       id="g239">
      <text
         style="font-size:208.33000183px"
         id="text241"
         y="412.70001"
         x="-1146.89">
        <tspan
           id="tspan243"
           y="412.70001"
           x="-1146.89" />
      </text>
      <text
         style="font-size:129.22999573px"
         id="text245"
         y="-630.89001"
         x="-745.67999">
        <tspan
           id="tspan247"
           y="-630.89001"
           x="-745.67999" />
      </text>
    </g>
    <text
       style="font-size:46.95399857px;font-family:Arial;text-anchor:middle"
       id="text249"
       transform="scale(4.0128,0.2492)"
       y="-2880.79"
       x="11.261" />
    <text
       style="font-size:129.22999573px;line-height:125%;font-family:'Gentium Book Basic';letter-spacing:0;word-spacing:0"
       id="text251"
       y="-710.89001"
       x="-164.41">
      <tspan
         id="tspan253"
         y="-710.89001"
         x="-164.41" />
    </text>
    <text
       style="font-size:46.95399857px;font-family:Arial;text-anchor:middle"
       id="text255"
       transform="scale(4.0128,0.2492)"
       y="-3201.8201"
       x="156.11" />
    <text
       style="font-size:129.22999573px;line-height:125%;font-family:'Gentium Book Basic';letter-spacing:0;word-spacing:0"
       id="text257"
       y="-892.15002"
       x="-1235.99">
      <tspan
         id="tspan259"
         y="-892.15002"
         x="-1235.99" />
    </text>
    <text
       style="font-size:46.95399857px;font-family:Arial;text-anchor:middle"
       id="text261"
       transform="scale(4.0128,0.2492)"
       y="-3929.1799"
       x="-110.93" />
    <text
       style="font-size:129.22999573px;line-height:125%;font-family:'Gentium Book Basic';letter-spacing:0;word-spacing:0"
       id="text263"
       y="-1108.62"
       x="-137.94">
      <tspan
         id="tspan265"
         y="-1108.62"
         x="-137.94" />
    </text>
    <text
       style="font-size:46.95399857px;font-family:Arial;text-anchor:middle"
       id="text267"
       transform="scale(4.0128,0.2492)"
       y="-4797.8301"
       x="162.71001" />
    <text
       style="font-size:129.22999573px;line-height:125%;font-family:'Gentium Book Basic';letter-spacing:0;word-spacing:0"
       id="text269"
       y="-1188.63"
       x="443.32001">
      <tspan
         id="tspan271"
         y="-1188.63"
         x="443.32001" />
    </text>
    <text
       style="font-size:46.95399857px;font-family:Arial;text-anchor:middle"
       id="text273"
       transform="scale(4.0128,0.2492)"
       y="-5118.8701"
       x="307.54999" />
    <text
       style="font-size:129.22999573px;line-height:125%;font-family:'Gentium Book Basic';letter-spacing:0;word-spacing:0"
       id="text275"
       y="-1661.03"
       x="54.200001">
      <tspan
         id="tspan277"
         y="-1661.03"
         x="54.200001" />
    </text>
    <text
       style="font-size:46.95399857px;font-family:Arial;text-anchor:middle"
       id="text279"
       transform="scale(4.0128,0.2492)"
       y="-7014.5098"
       x="210.59" />
    <text
       style="font-size:129.22999573px;line-height:125%;font-family:'Gentium Book Basic';letter-spacing:0;word-spacing:0"
       id="text281"
       y="-1741.03"
       x="635.46997">
      <tspan
         id="tspan283"
         y="-1741.03"
         x="635.46997" />
    </text>
    <text
       style="font-size:46.95399857px;font-family:Arial;text-anchor:middle"
       id="text285"
       transform="scale(4.0128,0.2492)"
       y="-7335.54"
       x="355.42999" />
    <g
       style="line-height:125%;font-family:'Gentium Book Basic';letter-spacing:0;word-spacing:0"
       id="g287">
      <text
         style="font-size:208.33000183px"
         id="text289"
         y="-326.31"
         x="-1197.34">
        <tspan
           id="tspan291"
           y="-326.31"
           x="-1197.34" />
      </text>
      <text
         style="font-size:129.22999573px"
         id="text293"
         y="-1373.77"
         x="2358.46">
        <tspan
           id="tspan295"
           y="-1373.77"
           x="2358.46" />
      </text>
    </g>
    <text
       style="font-size:46.95399857px;font-family:Arial;text-anchor:middle"
       id="text297"
       transform="scale(4.0128,0.2492)"
       y="-5861.7998"
       x="784.79999" />
    <text
       style="font-size:129.22999573px;line-height:125%;font-family:'Gentium Book Basic';letter-spacing:0;word-spacing:0"
       id="text299"
       y="-1453.77"
       x="2939.72">
      <tspan
         id="tspan301"
         y="-1453.77"
         x="2939.72" />
    </text>
    <text
       style="font-size:46.95399857px;font-family:Arial;text-anchor:middle"
       id="text303"
       transform="scale(4.0128,0.2492)"
       y="-6182.8398"
       x="929.65002" />
    <text
       style="font-size:129.22999573px;line-height:125%;font-family:'Gentium Book Basic';letter-spacing:0;word-spacing:0"
       id="text305"
       y="-1635.02"
       x="1868.14">
      <tspan
         id="tspan307"
         y="-1635.02"
         x="1868.14" />
    </text>
    <text
       style="font-size:46.95399857px;font-family:Arial;text-anchor:middle"
       id="text309"
       transform="scale(4.0128,0.2492)"
       y="-6910.1699"
       x="662.60999" />
    <text
       style="font-size:129.22999573px;line-height:125%;font-family:'Gentium Book Basic';letter-spacing:0;word-spacing:0"
       id="text311"
       y="-1851.5"
       x="2966.1899">
      <tspan
         id="tspan313"
         y="-1851.5"
         x="2966.1899" />
    </text>
    <text
       style="font-size:46.95399857px;font-family:Arial;text-anchor:middle"
       id="text315"
       transform="scale(4.0128,0.2492)"
       y="-7778.8398"
       x="936.25" />
    <text
       style="font-size:129.22999573px;line-height:125%;font-family:'Gentium Book Basic';letter-spacing:0;word-spacing:0"
       id="text317"
       y="-1931.5"
       x="3547.46">
      <tspan
         id="tspan319"
         y="-1931.5"
         x="3547.46" />
    </text>
    <text
       style="font-size:46.95399857px;font-family:Arial;text-anchor:middle"
       id="text321"
       transform="scale(4.0128,0.2492)"
       y="-8099.8799"
       x="1081.1" />
    <text
       style="font-size:129.22999573px;line-height:125%;font-family:'Gentium Book Basic';letter-spacing:0;word-spacing:0"
       id="text323"
       y="-2403.8999"
       x="3158.3401">
      <tspan
         id="tspan325"
         y="-2403.8999"
         x="3158.3401" />
    </text>
    <text
       style="font-size:46.95399857px;font-family:Arial;text-anchor:middle"
       id="text327"
       transform="scale(4.0128,0.2492)"
       y="-9995.5195"
       x="984.13" />
    <text
       style="font-size:129.22999573px;line-height:125%;font-family:'Gentium Book Basic';letter-spacing:0;word-spacing:0"
       id="text329"
       y="-2483.8999"
       x="3739.6101">
      <tspan
         id="tspan331"
         y="-2483.8999"
         x="3739.6101" />
    </text>
    <text
       style="font-size:46.95399857px;font-family:Arial;text-anchor:middle"
       id="text333"
       transform="scale(4.0128,0.2492)"
       y="-10316.54"
       x="1128.98" />
    <g
       style="font-size:208.33000183px;line-height:125%;font-family:'Gentium Book Basic';letter-spacing:0;word-spacing:0"
       id="g335">
      <text
         id="text337"
         y="-1069.1899"
         x="1906.8">
        <tspan
           id="tspan339"
           y="-1069.1899"
           x="1906.8" />
      </text>
      <text
         id="text341"
         y="-315.10999"
         x="-2635.8101">
        <tspan
           id="tspan343"
           y="-315.10999"
           x="-2635.8101" />
      </text>
    </g>
    <text
       style="font-size:75.69999695px;font-family:Arial;text-anchor:middle"
       id="text345"
       transform="scale(4.0128,0.2492)"
       y="-1827.37"
       x="-339.12" />
    <text
       style="font-size:208.33000183px;line-height:125%;font-family:'Gentium Book Basic';letter-spacing:0;word-spacing:0"
       id="text347"
       y="-315.10999"
       x="-2635.8101">
      <tspan
         id="tspan349"
         y="-315.10999"
         x="-2635.8101" />
    </text>
    <text
       style="font-size:75.69999695px;font-family:Arial;text-anchor:middle"
       id="text351"
       transform="scale(4.0128,0.2492)"
       y="-1827.37"
       x="-339.12" />
    <text
       style="font-size:208.33000183px;line-height:125%;font-family:'Gentium Book Basic';letter-spacing:0;word-spacing:0"
       id="text353"
       y="317.79999"
       x="-2969.3601">
      <tspan
         id="tspan355"
         y="317.79999"
         x="-2969.3601" />
    </text>
    <text
       style="font-size:75.69999695px;font-family:Arial;text-anchor:middle"
       id="text357"
       transform="scale(4.0128,0.2492)"
       y="712.40002"
       x="-422.23999" />
    <text
       style="font-size:208.33000183px;line-height:125%;font-family:'Gentium Book Basic';letter-spacing:0;word-spacing:0"
       id="text359"
       y="162.17"
       x="-2263.02">
      <tspan
         id="tspan361"
         y="162.17"
         x="-2263.02" />
    </text>
    <text
       style="font-size:75.69999695px;font-family:Arial;text-anchor:middle"
       id="text363"
       transform="scale(4.0128,0.2492)"
       y="87.879997"
       x="-246.22" />
  </g>
  <g
     style="fill-rule:evenodd"
     id="g507"
     transform="translate(0.0012,5e-4)">
    <path
       style="opacity:0.63899997;fill:#c4a000;fill-opacity:1;stroke-width:1.00001705"
       id="path509"
       d="m 264.51,161.58 c -9.751,0.012 -15.12005,0.74203 -23.09022,3.15611 -4.39409,1.33004 -9.99923,3.44512 -10.65627,4.03014 -0.29702,0.276 2.33739,8.9063 2.71839,8.9063 0.019,0 0.30801,-0.11 0.43801,-0.15601 0.25696,0.68703 0.47592,1.15604 0.56292,1.15604 0.02,0 0.32401,-0.104 0.46901,-0.156 0.24996,0.66602 0.44693,1.15604 0.53093,1.15604 0.019,0 0.31,-0.11101 0.43801,-0.15601 0.25095,0.66702 0.47792,1.15604 0.56292,1.15604 0.019,0 0.304,-0.109 0.43801,-0.156 0.24995,0.66302 0.44692,1.12503 0.53092,1.12503 0.019,0 0.30801,-0.11 0.43801,-0.156 0.25695,0.68802 0.47592,1.15604 0.56292,1.15604 0.019,0 0.30801,-0.11001 0.43801,-0.15601 0.25696,0.68703 0.47592,1.15604 0.56292,1.15604 0.019,0 0.30801,-0.11 0.43802,-0.156 0.25695,0.68702 0.47592,1.15604 0.56292,1.15604 0.02,0 0.324,-0.10401 0.46901,-0.15601 0.24995,0.66602 0.44692,1.15604 0.53092,1.15604 0.019,0 0.31001,-0.111 0.43801,-0.156 0.25095,0.66702 0.47792,1.15604 0.56292,1.15604 0.019,0 0.31001,-0.11101 0.43801,-0.15601 0.25096,0.66702 0.44592,1.12504 0.53092,1.12504 0.019,0 0.30801,-0.11001 0.43801,-0.15601 0.25696,0.68803 0.47593,1.15604 0.56293,1.15604 0.019,0 0.308,-0.11 0.43801,-0.156 0.065,0.174 0.13098,0.29801 0.18797,0.43801 -2.01005,0.63402 -4.1021,1.40705 -6.40616,2.31308 l -1.06303,0.40601 1.40573,4.00014 c 0.76785,2.20208 1.42972,4.06614 1.46872,4.12514 0.014,0.022 0.264,-0.044 0.59401,-0.156 0.097,0.26701 0.39492,1.14004 0.40592,1.15604 0.015,0.022 0.255,-0.041 0.59401,-0.15601 0.097,0.26701 0.39492,1.14004 0.40592,1.15604 0.015,0.022 0.253,-0.071 0.59401,-0.18801 0.10098,0.27901 0.39492,1.17104 0.40592,1.18804 0.014,0.022 0.23801,-0.077 0.56301,-0.188 0.097,0.26701 0.39493,1.14004 0.40593,1.15604 0.014,0.022 0.269,-0.046 0.59401,-0.15601 0.097,0.26701 0.39492,1.14004 0.40592,1.15604 0.014,0.022 0.264,-0.044 0.59401,-0.156 0.097,0.26701 0.39492,1.14003 0.40592,1.15604 0.014,0.022 0.264,-0.044 0.59401,-0.15601 0.097,0.26701 0.39492,1.14004 0.40592,1.15604 0.015,0.022 0.255,-0.041 0.59401,-0.15601 0.097,0.26701 0.39492,1.14004 0.40592,1.15604 0.015,0.022 0.25501,-0.041 0.59401,-0.156 0.097,0.26701 0.39493,1.14004 0.40592,1.15604 0.014,0.022 0.23801,-0.077 0.56302,-0.18801 0.097,0.26701 0.39492,1.14004 0.40592,1.15604 0.014,0.022 0.269,-0.046 0.59401,-0.156 0.05,0.138 0.18996,0.51801 0.21896,0.59402 -3.34807,0.93903 -6.68815,2.22507 -6.68818,2.65609 -2e-5,0.245 0.52386,2.07107 1.18772,4.06313 0.9948,2.98711 1.34776,3.57013 1.87477,3.34412 0.38594,0.85903 0.67393,1.10904 0.99994,0.96903 0.005,0.015 -0.002,0.032 -1e-5,0.031 0.38095,0.84403 0.64593,1.10704 0.96894,0.96904 0.38494,0.86103 0.67592,1.10803 0.99993,0.96903 0.015,0.045 0.023,0.066 0.031,0.063 0.36794,0.80503 0.62293,1.04104 0.93794,0.90603 0.38694,0.87503 0.67592,1.13904 0.99993,1.00004 0.37894,0.84803 0.64992,1.10603 0.96893,0.96903 0.03,0.089 0.047,0.101 0.063,0.094 0.35995,0.78503 0.62894,1.01004 0.93794,0.87503 0.38195,0.86103 0.64993,1.10604 0.96894,0.96904 0.04,0.119 0.073,0.165 0.094,0.156 0.34895,0.75203 0.60493,0.97303 0.90594,0.84403 0.045,0.134 0.07,0.16601 0.094,0.15601 0.34195,0.73002 0.57794,0.94003 0.87494,0.81302 0.05,0.14901 0.067,0.16801 0.094,0.15601 0.009,-0.004 0.023,0.004 0.031,0 0.34095,0.72602 0.57894,0.94003 0.87495,0.81303 0.38694,0.88903 0.68092,1.13703 0.99993,1.00003 0.059,0.17801 0.062,0.20101 0.094,0.18801 0.33095,0.69802 0.58594,0.90603 0.87494,0.78102 0.064,0.19301 0.091,0.23301 0.12499,0.21901 0.32495,0.68002 0.58894,0.87303 0.87495,0.75003 0.069,0.208 0.088,0.26601 0.12498,0.25 0.32195,0.67003 0.56094,0.87203 0.84395,0.75003 0.074,0.22301 0.11698,0.26701 0.15598,0.25001 0.31296,0.64402 0.56595,0.83803 0.84395,0.71902 0.079,0.23801 0.083,0.26801 0.12499,0.25001 0.31795,0.66302 0.56394,0.83903 0.84395,0.71903 0.084,0.253 0.11198,0.30001 0.15598,0.28101 0.009,-0.004 0.023,0.004 0.031,0 0.30995,0.63702 0.53794,0.83702 0.81295,0.71902 0.089,0.26701 0.10898,0.30201 0.15598,0.28101 0.30396,0.62002 0.54094,0.80403 0.81295,0.68802 0.094,0.28201 0.13798,0.33401 0.18798,0.31301 0.30096,0.61103 0.54395,0.77203 0.81296,0.65603 0.099,0.29701 0.13497,0.36601 0.18797,0.34401 0.29496,0.59402 0.51595,0.73902 0.78096,0.62502 0.10398,0.31201 0.16397,0.39901 0.21897,0.37501 0.28597,0.56502 0.52195,0.73603 0.78096,0.62502 0.10898,0.32701 0.12998,0.36902 0.18798,0.34402 0.29196,0.58702 0.51895,0.73802 0.78096,0.62502 0.11397,0.34201 0.15797,0.40101 0.21897,0.37501 0.009,-0.004 0.023,0.004 0.031,0 0.28296,0.55702 0.49395,0.70402 0.74996,0.59402 0.11898,0.35701 0.15597,0.43301 0.21897,0.40601 0.28096,0.55502 0.52695,0.70303 0.78096,0.59402 0.12398,0.37102 0.15297,0.43402 0.21897,0.40602 0.009,-0.004 0.023,0.004 0.031,0 0.27197,0.52602 0.46996,0.66902 0.71897,0.56302 0.12897,0.38601 0.18196,0.46701 0.24997,0.43801 0.009,-0.004 0.023,0.004 0.031,0 0.26596,0.50702 0.47495,0.63602 0.71896,0.53102 0.13397,0.40101 0.17897,0.49902 0.24997,0.46902 0.26496,0.50501 0.47595,0.63602 0.71896,0.53101 0.13897,0.41602 0.20797,0.50002 0.28097,0.46902 0.25797,0.48502 0.47996,0.60202 0.71897,0.50002 0.14397,0.43101 0.17396,0.50101 0.24996,0.46901 0.009,-0.004 0.023,0.004 0.031,0 0.26097,0.49902 0.44696,0.60302 0.68797,0.50002 0.14897,0.44602 0.20296,0.53402 0.28096,0.50002 0.25497,0.47901 0.48296,0.60102 0.71897,0.50001 0.15297,0.46102 0.19996,0.53502 0.28097,0.50002 0.009,-0.004 0.023,0.004 0.031,0 0.24597,0.45302 0.42596,0.56702 0.65596,0.46902 0.15797,0.47501 0.22897,0.56702 0.31297,0.53102 0.009,-0.004 0.023,0.004 0.031,0 0.24497,0.44901 0.42796,0.53601 0.65597,0.43801 0.16297,0.49002 0.22596,0.60002 0.31296,0.56302 0.23897,0.43101 0.43197,0.50202 0.65597,0.40601 0.16797,0.50502 0.25496,0.63203 0.34396,0.59402 0.009,-0.004 0.023,0.004 0.031,0 0.22997,0.40502 0.40697,0.50002 0.62497,0.40602 0.17297,0.52002 0.22096,0.60202 0.31297,0.56302 0.009,-0.004 0.023,0.004 0.031,0 0.23597,0.42601 0.43496,0.50101 0.65597,0.40601 0.17796,0.53502 0.21795,0.63402 0.31296,0.59402 0.009,-0.004 0.023,0.004 0.031,0 0.22697,0.40101 0.40997,0.46702 0.62497,0.37501 0.18296,0.55002 0.24696,0.66703 0.34396,0.62503 0.009,-0.004 0.023,0.004 0.031,0 0.22597,0.39801 0.41097,0.46701 0.62497,0.37501 0.18797,0.56502 0.24396,0.66802 0.34396,0.62502 0.21798,0.37501 0.41697,0.43301 0.62498,0.34401 0.19296,0.57902 0.27295,0.70002 0.37495,0.65602 0.009,-0.004 0.022,0.004 0.031,0 0.20498,0.33501 0.39498,0.39802 0.59398,0.31301 0.19796,0.59402 0.26995,0.73303 0.37495,0.68803 0.009,-0.004 0.023,0.004 0.031,0 0.20198,0.32801 0.36598,0.39701 0.56298,0.31301 0.20296,0.60902 0.26696,0.70202 0.37496,0.65602 0.009,-0.004 0.023,0.004 0.031,0 0.20398,0.33401 0.39697,0.39701 0.59398,0.31301 0.20795,0.62402 0.26495,0.73503 0.37495,0.68802 0.009,-0.004 0.023,0.004 0.031,0 0.19998,0.32402 0.36898,0.36502 0.56298,0.28101 0.21296,0.63903 0.29295,0.76703 0.40595,0.71903 0.02,-0.009 0.042,-0.023 0.063,-0.031 0.19398,0.30701 0.34198,0.39401 0.53098,0.31301 0.21796,0.65402 0.29095,0.76802 0.40595,0.71902 0.009,-0.004 0.023,0.004 0.031,0 0.18198,0.27301 0.35098,0.32801 0.53099,0.25001 0.22295,0.66902 0.31894,0.80103 0.43795,0.75003 0.012,-0.005 0.019,-0.026 0.031,-0.031 0.18498,0.28201 0.34898,0.32801 0.53098,0.25 0.22795,0.68303 0.31694,0.83303 0.43795,0.78103 0.021,-0.009 0.042,-0.022 0.063,-0.031 0.17298,0.24801 0.29598,0.32401 0.46898,0.25001 0.23295,0.69802 0.34495,0.83403 0.46895,0.78103 0.012,-0.005 0.019,-0.026 0.031,-0.031 0.16898,0.23901 0.32998,0.29201 0.49999,0.21901 0.23795,0.71303 0.31194,0.83503 0.43794,0.78103 0.021,-0.009 0.042,-0.022 0.063,-0.031 0.16999,0.24501 0.32998,0.29201 0.49999,0.219 0.24295,0.72803 0.30894,0.86803 0.43794,0.81303 0.029,-0.013 0.064,-0.019 0.094,-0.031 0.15898,0.21301 0.27598,0.25701 0.43798,0.18801 0.24695,0.74302 0.33794,0.90003 0.46895,0.84403 0.021,-0.009 0.042,-0.022 0.063,-0.031 0.15798,0.212 0.30898,0.256 0.46899,0.188 0.25194,0.75803 0.33493,0.90103 0.46894,0.84403 0.021,-0.009 0.042,-0.022 0.063,-0.031 0.15099,0.19401 0.28298,0.22301 0.43799,0.15601 0.25695,0.77302 0.36394,0.93403 0.49994,0.87503 0.021,-0.009 0.042,-0.022 0.063,-0.031 0.14099,0.16701 0.29199,0.18801 0.43799,0.12501 0.26195,0.78803 0.36094,0.96603 0.49994,0.90603 0.021,-0.009 0.042,-0.022 0.063,-0.031 0.13999,0.166 0.26199,0.187 0.40599,0.125 0.26695,0.80203 0.35794,0.93603 0.49995,0.87503 0.029,-0.012 0.065,-0.019 0.094,-0.031 0.13899,0.16501 0.26298,0.18701 0.40599,0.12501 0.27194,0.81702 0.35593,0.96803 0.49994,0.90603 0.029,-0.013 0.064,-0.019 0.094,-0.031 0.12699,0.133 0.24299,0.151 0.37499,0.094 0.27695,0.83203 0.38393,1.00003 0.53094,0.93803 0.029,-0.013 0.064,-0.019 0.094,-0.031 0.12299,0.124 0.24699,0.149 0.37499,0.094 0.28195,0.84703 0.38194,1.00004 0.53094,0.93803 0.038,-0.016 0.086,-0.015 0.125,-0.031 0.111,0.097 0.19499,0.11301 0.313,0.063 0.28694,0.86203 0.40993,1.03403 0.56293,0.96903 0.041,-0.018 0.083,-0.045 0.12501,-0.063 0.10699,0.089 0.19899,0.111 0.31299,0.063 0.29194,0.87703 0.40793,1.06704 0.56293,1.00003 0.042,-0.018 0.082,-0.045 0.12501,-0.063 0.099,0.073 0.20699,0.108 0.31299,0.063 0.29694,0.89203 0.37393,1.03604 0.53094,0.96904 0.041,-0.018 0.083,-0.045 0.125,-0.063 0.108,0.095 0.19799,0.11201 0.313,0.063 0.30194,0.90603 0.40192,1.06903 0.56293,1.00003 0.041,-0.017 0.084,-0.045 0.125,-0.063 0.096,0.069 0.21,0.075 0.313,0.031 0.30694,0.92103 0.39993,1.10104 0.56293,1.03103 0.05,-0.021 0.106,-0.041 0.15601,-0.063 0.084,0.048 0.15899,0.039 0.25,0 0.31193,0.93603 0.42792,1.13404 0.59392,1.06304 0.049,-0.021 0.10601,-0.041 0.15601,-0.063 0.084,0.047 0.15999,0.039 0.25,0 0.31693,0.95103 0.42592,1.13503 0.59392,1.06303 0.059,-0.025 0.12801,-0.038 0.18801,-0.063 0.061,0.016 0.122,-0.003 0.188,-0.031 0.32194,0.96603 0.45392,1.16704 0.62493,1.09404 0.079,-0.034 0.17,-0.06 0.25,-0.094 0.042,0 0.081,-0.012 0.12501,-0.031 0.32693,0.98104 0.42092,1.16804 0.59392,1.09404 0.059,-0.025 0.128,-0.038 0.188,-0.063 0.06,0.015 0.123,-0.003 0.18801,-0.031 0.33193,0.99603 0.44892,1.16904 0.62492,1.09403 0.11601,-0.05 0.25601,-0.076 0.37501,-0.125 0.33693,1.01003 0.44692,1.20204 0.62492,1.12504 0.10901,-0.047 0.23201,-0.079 0.34401,-0.12501 0.33093,0.99004 0.47792,1.20204 0.65593,1.12504 0.108,-0.047 0.233,-0.08 0.344,-0.125 0.33594,1.00003 0.47492,1.20304 0.65593,1.12504 0.122,-0.053 0.249,-0.10501 0.37501,-0.15601 0.33693,1.00003 0.44191,1.23504 0.62492,1.15604 0.109,-0.047 0.232,-0.079 0.34401,-0.125 0.32193,0.95003 0.47592,1.20304 0.65592,1.12503 0.108,-0.047 0.23201,-0.08 0.34401,-0.125 0.32593,0.96303 0.44192,1.17204 0.62492,1.09404 0.10901,-0.047 0.23201,-0.08 0.34401,-0.12501 0.33094,0.97904 0.47092,1.20504 0.65593,1.12504 0.108,-0.046 0.233,-0.08 0.34401,-0.125 0.32593,0.95803 0.47091,1.20504 0.65592,1.12504 0.109,-0.047 0.231,-0.079 0.34401,-0.12501 0.31893,0.93103 0.47091,1.20504 0.65592,1.12504 0.109,-0.047 0.23201,-0.08 0.34401,-0.125 0.32193,0.94103 0.46892,1.20604 0.65592,1.12503 0.102,-0.044 0.20801,-0.082 0.31301,-0.125 0.31894,0.92803 0.49992,1.20604 0.68792,1.12504 0.10901,-0.047 0.23101,-0.079 0.34401,-0.12501 0.31194,0.90203 0.43792,1.17404 0.62493,1.09404 0.11,-0.047 0.231,-0.079 0.34401,-0.125 0.32393,0.94103 0.46391,1.20704 0.65592,1.12504 0.109,-0.047 0.232,-0.08 0.34401,-0.12501 0.31993,0.92503 0.46392,1.20804 0.65592,1.12504 0.099,-0.043 0.21101,-0.083 0.31301,-0.125 0.33393,0.97103 0.48992,1.21004 0.68792,1.12503 0.10101,-0.043 0.20901,-0.083 0.31301,-0.125 0.33693,0.98003 0.48792,1.21104 0.68792,1.12504 0.099,-0.043 0.21101,-0.084 0.31301,-0.12501 0.33394,0.96604 0.48792,1.21104 0.68793,1.12504 0.101,-0.043 0.209,-0.083 0.313,-0.125 0.33194,0.95603 0.45592,1.18004 0.65593,1.09403 0.098,-0.042 0.21101,-0.084 0.31301,-0.125 0.34193,0.98903 0.48292,1.21304 0.68792,1.12504 0.1,-0.043 0.21001,-0.083 0.31301,-0.12501 0.33993,0.97904 0.48192,1.21305 0.68792,1.12504 0.099,-0.043 0.21101,-0.084 0.31301,-0.125 0.33894,0.97603 0.48092,1.21404 0.68793,1.12504 0.092,-0.04 0.187,-0.086 0.281,-0.12501 0.33594,0.96204 0.51192,1.21404 0.71893,1.12504 0.092,-0.039 0.187,-0.087 0.28101,-0.125 0.33993,0.97303 0.50991,1.21504 0.71892,1.12504 0.091,-0.039 0.18801,-0.087 0.28101,-0.12501 0.33593,0.95503 0.50991,1.21504 0.71892,1.12504 0.092,-0.04 0.18601,-0.086 0.28101,-0.125 0.33493,0.95003 0.47792,1.18404 0.68792,1.09403 0.087,-0.037 0.19201,-0.057 0.28101,-0.094 0.33994,0.96403 0.50592,1.18504 0.71893,1.09404 0.092,-0.039 0.187,-0.087 0.281,-0.12501 0.34294,0.97504 0.50392,1.21704 0.71893,1.12504 0.087,-0.038 0.192,-0.057 0.281,-0.094 0.33594,0.94603 0.50492,1.18604 0.71893,1.09403 0.089,-0.038 0.19,-0.056 0.28101,-0.094 0.33393,0.93903 0.50392,1.18604 0.71892,1.09404 0.08,-0.034 0.16801,-0.06 0.25001,-0.094 0.33593,0.94203 0.53392,1.18704 0.74992,1.09403 0.081,-0.035 0.16701,-0.06 0.25001,-0.094 0.33594,0.94003 0.50092,1.15604 0.71893,1.06304 0.088,-0.038 0.191,-0.057 0.281,-0.094 0.34194,0.95904 0.49792,1.18804 0.71893,1.09404 0.078,-0.034 0.17,-0.061 0.25001,-0.094 0.34293,0.96003 0.52791,1.18904 0.74992,1.09403 0.08,-0.034 0.16801,-0.06 0.25001,-0.094 0.33993,0.94603 0.52792,1.18904 0.74992,1.09404 0.079,-0.034 0.16901,-0.061 0.25001,-0.094 0.34093,0.94603 0.52692,1.19004 0.74992,1.09403 0.081,-0.035 0.16701,-0.06 0.25001,-0.094 0.23996,0.66402 0.38493,0.98003 0.53093,1.06304 -0.27099,-0.15301 -2.8329,-1.48706 -3.84386,-2.03107 -0.14099,-0.12301 -0.26899,-0.20701 -0.40598,-0.31301 -0.16098,-0.24601 -0.36097,-0.48302 -0.59395,-0.68803 -0.142,-0.124 -0.26799,-0.206 -0.40598,-0.31301 -0.15899,-0.24301 -0.36397,-0.48602 -0.59396,-0.68802 -0.14299,-0.12501 -0.26698,-0.20501 -0.40598,-0.31301 -0.15698,-0.23901 -0.33596,-0.45702 -0.56295,-0.65603 -0.15699,-0.138 -0.31598,-0.228 -0.46898,-0.34401 -0.15398,-0.234 -0.30897,-0.46101 -0.53095,-0.65602 -0.15099,-0.133 -0.28999,-0.23101 -0.43798,-0.34401 -0.15598,-0.24301 -0.33397,-0.45502 -0.56295,-0.65602 -0.15299,-0.13401 -0.28899,-0.23001 -0.43798,-0.34402 -0.15298,-0.239 -0.33697,-0.45801 -0.56296,-0.65602 -0.12199,-0.107 -0.25598,-0.156 -0.37498,-0.25001 -0.16098,-0.27301 -0.37196,-0.52801 -0.62495,-0.75002 -0.12299,-0.10801 -0.25499,-0.15501 -0.37498,-0.25001 -0.15898,-0.26901 -0.37596,-0.53102 -0.62495,-0.75003 -0.12399,-0.109 -0.25399,-0.155 -0.37498,-0.25 -0.15598,-0.26501 -0.37997,-0.53502 -0.62495,-0.75003 -0.12499,-0.109 -0.25299,-0.154 -0.37498,-0.25001 -0.15399,-0.26101 -0.35197,-0.50702 -0.59395,-0.71902 -0.144,-0.12701 -0.29699,-0.20301 -0.43798,-0.31301 -0.15199,-0.25701 -0.32497,-0.47902 -0.56296,-0.68803 -0.14499,-0.128 -0.29598,-0.203 -0.43798,-0.31301 -0.14898,-0.25301 -0.32796,-0.48201 -0.56295,-0.68802 -0.14599,-0.12901 -0.29498,-0.20201 -0.43798,-0.31301 -0.14698,-0.24901 -0.33196,-0.48502 -0.56295,-0.68803 -0.14799,-0.13 -0.29299,-0.201 -0.43798,-0.31301 -0.14398,-0.245 -0.33597,-0.48801 -0.56295,-0.68802 -0.14899,-0.13 -0.29199,-0.20001 -0.43798,-0.31301 -0.14198,-0.24101 -0.33997,-0.49202 -0.56295,-0.68802 -0.15499,-0.13601 -0.28599,-0.22701 -0.43798,-0.34402 -0.13998,-0.237 -0.31197,-0.43201 -0.53096,-0.62502 -0.18099,-0.159 -0.35497,-0.33601 -0.53097,-0.46901 -0.12798,-0.19801 -0.28197,-0.36702 -0.46896,-0.53102 -0.16999,-0.15001 -0.33398,-0.28001 -0.49997,-0.40601 -0.13199,-0.21601 -0.29897,-0.41702 -0.49996,-0.59402 -0.18299,-0.16101 -0.35298,-0.30302 -0.53097,-0.43802 -0.12699,-0.20301 -0.27797,-0.39501 -0.46896,-0.56302 -0.18499,-0.162 -0.35098,-0.30201 -0.53097,-0.43801 -0.12499,-0.19901 -0.28198,-0.39802 -0.46896,-0.56302 -0.17399,-0.15301 -0.33099,-0.27701 -0.49998,-0.40602 -0.12798,-0.217 -0.29897,-0.41801 -0.49996,-0.59402 -0.17499,-0.154 -0.32898,-0.27601 -0.49997,-0.40601 -0.12598,-0.21301 -0.27197,-0.39001 -0.46896,-0.56302 -0.17599,-0.15501 -0.35898,-0.30701 -0.53097,-0.43802 -0.12299,-0.209 -0.27597,-0.39301 -0.46896,-0.56301 -0.17699,-0.15601 -0.35798,-0.30601 -0.53097,-0.43802 -0.12099,-0.20501 -0.27897,-0.39601 -0.46896,-0.56302 -0.17899,-0.157 -0.35698,-0.30501 -0.53097,-0.43801 -0.11799,-0.20101 -0.28298,-0.39902 -0.46896,-0.56302 -0.19199,-0.16801 -0.37598,-0.32801 -0.56297,-0.46902 -0.11599,-0.19701 -0.25498,-0.37101 -0.43797,-0.53102 -0.19298,-0.17 -0.37397,-0.32701 -0.56296,-0.46901 -0.11399,-0.19301 -0.25898,-0.37502 -0.43797,-0.53102 -0.19399,-0.17101 -0.37298,-0.32601 -0.56297,-0.46902 -0.11098,-0.189 -0.23197,-0.34701 -0.40596,-0.50001 -0.19599,-0.17201 -0.40298,-0.35702 -0.59397,-0.50002 -0.10899,-0.18501 -0.23497,-0.35001 -0.40596,-0.50002 -0.19699,-0.173 -0.40198,-0.35601 -0.59397,-0.50002 -0.10699,-0.181 -0.23898,-0.35301 -0.40597,-0.50001 -0.18598,-0.16301 -0.38097,-0.33101 -0.56296,-0.46902 -0.10899,-0.19901 -0.25598,-0.37201 -0.43797,-0.53102 -0.18699,-0.164 -0.37997,-0.33001 -0.56297,-0.46901 -0.10598,-0.19601 -0.25897,-0.37502 -0.43796,-0.53102 -0.18799,-0.16501 -0.37898,-0.29801 -0.56297,-0.43802 -0.10599,-0.203 -0.25497,-0.40201 -0.43796,-0.56301 -0.20199,-0.17701 -0.39698,-0.32102 -0.59397,-0.46902 -0.10199,-0.18801 -0.23497,-0.38101 -0.40596,-0.53102 -0.20299,-0.178 -0.39598,-0.32001 -0.59397,-0.46901 -0.099,-0.18501 -0.20698,-0.35302 -0.37497,-0.50002 -0.20398,-0.17901 -0.42597,-0.35001 -0.62496,-0.50002 -0.097,-0.18001 -0.21198,-0.35601 -0.37497,-0.50002 -0.21199,-0.186 -0.41897,-0.34601 -0.62496,-0.50001 -0.096,-0.18601 -0.20798,-0.35302 -0.37497,-0.50002 -0.21299,-0.18701 -0.41698,-0.34501 -0.62497,-0.50002 -0.093,-0.183 -0.21097,-0.35601 -0.37496,-0.50001 -0.21399,-0.18801 -0.41698,-0.34402 -0.62497,-0.50002 -0.091,-0.17801 -0.21497,-0.36001 -0.37496,-0.50002 -0.21499,-0.189 -0.41498,-0.34301 -0.62497,-0.50002 -0.089,-0.176 -0.21697,-0.36201 -0.37497,-0.50001 -0.22898,-0.20101 -0.43397,-0.36701 -0.65596,-0.53102 -0.085,-0.16001 -0.16798,-0.31001 -0.31297,-0.43802 -0.22999,-0.202 -0.46397,-0.39701 -0.68796,-0.56301 -0.084,-0.16501 -0.16398,-0.30802 -0.31297,-0.43802 -0.22399,-0.19701 -0.43797,-0.40001 -0.65596,-0.56302 -0.082,-0.166 -0.19498,-0.30701 -0.34397,-0.43801 -0.23299,-0.20401 -0.46098,-0.39502 -0.68796,-0.56302 -0.079,-0.15801 -0.17098,-0.31301 -0.31297,-0.43802 -0.23399,-0.20601 -0.45998,-0.39401 -0.68797,-0.56302 -0.077,-0.155 -0.17397,-0.31601 -0.31297,-0.43801 -0.23598,-0.20701 -0.45797,-0.39302 -0.68796,-0.56302 -0.074,-0.15001 -0.17898,-0.32001 -0.31297,-0.43802 -0.23698,-0.208 -0.45697,-0.39201 -0.68796,-0.56302 -0.072,-0.156 -0.14298,-0.28501 -0.28097,-0.40601 -0.22499,-0.19801 -0.46798,-0.36701 -0.68797,-0.53102 -0.07,-0.179 -0.15797,-0.33301 -0.31296,-0.46901 -0.23899,-0.21001 -0.48598,-0.39002 -0.71896,-0.56302 -0.067,-0.16001 -0.14198,-0.31501 -0.28098,-0.43802 -0.23998,-0.211 -0.48497,-0.38901 -0.71896,-0.56302 -0.065,-0.161 -0.14198,-0.31501 -0.28097,-0.43801 -0.24198,-0.21201 -0.48397,-0.38802 -0.71896,-0.56302 -0.062,-0.16001 -0.14298,-0.31601 -0.28097,-0.43802 -0.24298,-0.213 -0.48297,-0.38701 -0.71896,-0.56302 -0.059,-0.158 -0.14598,-0.31801 -0.28097,-0.43801 -0.23699,-0.20801 -0.45697,-0.39001 -0.68796,-0.56302 -0.055,-0.162 -0.17498,-0.31701 -0.31297,-0.43801 -0.24499,-0.21501 -0.48098,-0.38602 -0.71896,-0.56302 -0.053,-0.15301 -0.11998,-0.29201 -0.24998,-0.40602 -0.24598,-0.216 -0.51097,-0.41601 -0.74996,-0.59402 -0.049,-0.153 -0.12098,-0.29301 -0.24997,-0.40601 -0.23498,-0.20601 -0.48997,-0.39101 -0.71896,-0.56302 -0.042,-0.17101 -0.13998,-0.31301 -0.28097,-0.43802 -0.25598,-0.225 -0.53197,-0.41001 -0.78096,-0.59402 -0.043,-0.148 -0.095,-0.29801 -0.21897,-0.40601 -0.25599,-0.22501 -0.50097,-0.41001 -0.74996,-0.59402 -0.037,-0.15301 -0.12398,-0.29501 -0.24997,-0.40601 -0.25799,-0.22601 -0.49997,-0.40902 -0.74996,-0.59402 -0.035,-0.14401 -0.13098,-0.30201 -0.24997,-0.40602 -0.27099,-0.23801 -0.51797,-0.43201 -0.78096,-0.62502 -0.033,-0.135 -0.076,-0.24601 -0.18798,-0.34401 -0.27698,-0.24401 -0.54296,-0.49102 -0.81295,-0.68802 -0.031,-0.12601 -0.083,-0.22101 -0.18798,-0.31302 -0.27898,-0.245 -0.54197,-0.49001 -0.81295,-0.68802 -0.028,-0.117 -0.091,-0.22801 -0.18798,-0.31301 -0.27899,-0.24501 -0.54097,-0.45801 -0.81296,-0.65602 -0.019,-0.13001 -0.082,-0.25101 -0.18797,-0.34401 -0.28799,-0.25301 -0.56397,-0.45302 -0.84396,-0.65603 -0.015,-0.124 -0.056,-0.256 -0.15598,-0.34401 -0.28898,-0.25401 -0.56296,-0.45201 -0.84395,-0.65602 -0.008,-0.124 -0.057,-0.25701 -0.15598,-0.34401 -0.29098,-0.25501 -0.56097,-0.45102 -0.84395,-0.65602 0.003,-0.12701 -0.025,-0.22401 -0.12498,-0.31301 -0.30498,-0.26801 -0.60997,-0.50602 -0.90595,-0.71903 -9.9e-4,-0.107 -0.009,-0.20701 -0.094,-0.28101 -0.30598,-0.26901 -0.60897,-0.50502 -0.90595,-0.71902 0.011,-0.11001 -0.007,-0.20501 -0.094,-0.28101 -0.30799,-0.27001 -0.60697,-0.50402 -0.90596,-0.71903 0.017,-0.101 -0.013,-0.211 -0.094,-0.28101 -0.31898,-0.28001 -0.62796,-0.52902 -0.93794,-0.75002 0.025,-0.092 0.012,-0.18501 -0.063,-0.25001 -0.32798,-0.28801 -0.64996,-0.52402 -0.96895,-0.75003 0.039,-0.083 0.04,-0.188 -0.031,-0.25001 -0.34198,-0.30001 -0.66796,-0.54801 -0.99995,-0.78102 0.059,-0.065 0.098,-0.12901 0.031,-0.18801 -0.31198,-0.27401 -0.63497,-0.53202 -0.93795,-0.75002 -0.033,-0.041 -0.06,-0.085 -0.094,-0.12501 0.039,-0.043 0.076,-0.086 0.031,-0.125 -0.16399,-0.14401 -0.33898,-0.27801 -0.49997,-0.40602 -0.01,-0.011 -0.021,-0.021 -0.031,-0.031 -0.061,-0.048 -0.12699,-0.11 -0.18798,-0.156 -0.016,-0.015 -0.015,-0.047 -0.031,-0.063 -0.087,-0.11401 -0.15698,-0.23301 -0.24998,-0.34402 -0.029,-0.025 -0.065,-0.038 -0.094,-0.063 -0.27598,-0.32201 -0.57696,-0.64802 -0.90594,-0.93803 -1.91488,-1.68106 -3.55484,-2.28608 -6.18784,-2.28108 -7.194,0.012 -12.66954,7.89827 -10.31402,14.84451 l 0.74985,2.21907 -2.37531,4.56316 c -1.31117,2.52009 -2.54931,4.56716 -2.75031,4.53115 -0.201,-0.036 -20.88225,-10.91437 -45.96735,-24.19082 -29.44293,-15.57953 -45.73236,-23.99882 -45.90438,-23.71981 -0.65307,1.05604 -1.26784,12.34642 -1.03229,18.93865 0.89129,25.02085 8.80376,47.42161 23.71442,67.09228 3.13372,4.13415 6.55645,8.02028 10.21821,11.6564 0.062,0.063 0.12499,0.12401 0.18798,0.18801 0.23099,0.22801 0.45497,0.46101 0.68796,0.68802 0.093,0.094 0.18798,0.18701 0.28098,0.28101 0.21798,0.21001 0.43697,0.41702 0.65595,0.62502 0.097,0.099 0.18399,0.21401 0.28098,0.31301 0.21599,0.20901 0.43797,0.41802 0.65596,0.62502 0.16999,0.17401 0.32898,0.35902 0.49996,0.53102 0.032,0.031 0.062,0.063 0.094,0.094 0.15499,0.148 0.31298,0.29001 0.46897,0.43801 0.032,0.031 0.062,0.063 0.094,0.094 0.031,0.031 0.063,0.062 0.094,0.094 0.20799,0.2 0.41598,0.39501 0.62496,0.59402 0.108,0.11 0.20399,0.23401 0.31298,0.34401 0.20699,0.19901 0.41697,0.39601 0.62496,0.59402 0.10899,0.111 0.20298,0.23301 0.31298,0.34401 0.1,0.099 0.21198,0.18301 0.31298,0.28101 0.14899,0.14301 0.28798,0.29601 0.43797,0.43802 0.037,0.036 0.088,0.058 0.12499,0.094 0.036,0.037 0.058,0.088 0.094,0.125 0.19699,0.19001 0.39598,0.37402 0.59396,0.56302 0.119,0.12201 0.22399,0.25401 0.34398,0.37502 0.19499,0.189 0.39697,0.37501 0.59396,0.56301 0.30898,0.31602 0.62396,0.62503 0.93794,0.93804 0.054,0.051 0.10299,0.105 0.15599,0.156 0.072,0.074 0.14599,0.14501 0.21898,0.21901 0.11499,0.114 0.22798,0.23001 0.34398,0.34401 0.19998,0.20501 0.39297,0.42102 0.59395,0.62502 0.17499,0.16901 0.35498,0.33301 0.53097,0.50002 0.13999,0.143 0.26598,0.29501 0.40597,0.43801 0.17499,0.16901 0.35498,0.33202 0.53097,0.50002 0.068,0.068 0.14999,0.12001 0.21898,0.18801 0.077,0.078 0.14199,0.172 0.21899,0.25001 0.079,0.078 0.17099,0.141 0.24998,0.219 0.01,0.011 0.021,0.021 0.031,0.031 0.057,0.058 0.099,0.13 0.15599,0.188 0.059,0.056 0.12799,0.1 0.18799,0.15601 0.10799,0.111 0.20398,0.234 0.31297,0.34401 0.16499,0.159 0.33398,0.31101 0.49997,0.46901 0.14899,0.15301 0.28698,0.31602 0.43797,0.46902 0.16499,0.15901 0.33398,0.31101 0.49997,0.46902 0.15399,0.158 0.31397,0.31201 0.46896,0.46901 0.073,0.073 0.14499,0.14601 0.21899,0.21901 0.11699,0.112 0.22598,0.23201 0.34398,0.34401 0.11599,0.11301 0.22698,0.23101 0.34397,0.34401 0.01,0.01 0.021,0.021 0.031,0.031 0.15399,0.14801 0.31398,0.29001 0.46897,0.43802 0.15999,0.16501 0.30698,0.33701 0.46897,0.50002 0.15399,0.148 0.31398,0.29001 0.46897,0.43801 0.16398,0.16901 0.33397,0.33201 0.49996,0.50002 0.068,0.067 0.11899,0.152 0.18799,0.21901 0.12199,0.117 0.25198,0.227 0.37497,0.34401 0.29798,0.30501 0.60396,0.60502 0.90594,0.90603 0.39997,0.41001 0.81195,0.81603 1.21892,1.21904 0.051,0.052 0.10499,0.104 0.15599,0.15601 0.13099,0.129 0.27498,0.247 0.40597,0.37501 0.17899,0.185 0.34998,0.37901 0.53096,0.56302 0.132,0.127 0.27299,0.24901 0.40598,0.37501 0.17999,0.18501 0.34997,0.37901 0.53096,0.56302 0.12299,0.119 0.25098,0.22601 0.37498,0.34401 0.19398,0.20001 0.39797,0.39601 0.59396,0.59402 0.11699,0.11301 0.22598,0.23201 0.34397,0.34401 0.19499,0.20101 0.39698,0.39402 0.59396,0.59402 0.19099,0.18301 0.36998,0.38102 0.56296,0.56302 0.091,0.088 0.18999,0.16201 0.28099,0.25001 0.036,0.037 0.057,0.088 0.094,0.12501 0.11199,0.108 0.23098,0.205 0.34398,0.31301 0.20498,0.211 0.41797,0.41601 0.62495,0.62502 0.107,0.102 0.20599,0.211 0.31298,0.31301 0.20499,0.21101 0.41797,0.41601 0.62496,0.62502 0.19099,0.18301 0.36997,0.38101 0.56296,0.56302 0.085,0.082 0.16499,0.168 0.24998,0.25001 0.29998,0.30501 0.60196,0.60502 0.90594,0.90603 0.061,0.062 0.12599,0.125 0.18799,0.188 0.089,0.088 0.19199,0.16201 0.28098,0.25001 0.21899,0.22701 0.43497,0.46302 0.65596,0.68803 0.09,0.087 0.19098,0.164 0.28098,0.25001 0.052,0.052 0.10399,0.104 0.15599,0.156 0.16899,0.17401 0.32997,0.35901 0.49996,0.53102 0.037,0.036 0.088,0.058 0.125,0.094 0.075,0.071 0.14399,0.14801 0.21898,0.21901 0.11599,0.113 0.22698,0.23101 0.34398,0.34401 0.093,0.095 0.18798,0.18701 0.28098,0.28101 0.08,0.077 0.16999,0.14201 0.24998,0.21901 0.22999,0.23801 0.45497,0.48301 0.68795,0.71902 0.08,0.076 0.16999,0.14301 0.24999,0.21901 0.23098,0.23901 0.45397,0.48302 0.68795,0.71902 0.08,0.076 0.16999,0.14301 0.24999,0.21901 0.23598,0.24401 0.47996,0.47702 0.71895,0.71903 0.064,0.061 0.12299,0.126 0.18798,0.188 0.31598,0.30901 0.61696,0.63302 0.93794,0.93804 0.24698,0.256 0.49997,0.49701 0.74995,0.75002 0.14399,0.13801 0.29198,0.26901 0.43797,0.40601 0.17799,0.18401 0.35197,0.38102 0.53096,0.56302 0.048,0.046 0.108,0.079 0.15599,0.12501 0.042,0.041 0.083,0.084 0.12499,0.125 0.21999,0.22801 0.43297,0.46202 0.65596,0.68803 0.048,0.046 0.10799,0.079 0.15599,0.125 0.16099,0.16201 0.30698,0.33901 0.46897,0.50002 -11.12375,-3.78213 -21.08938,-9.18932 -29.9369,-16.21956 -1.64491,-1.30704 -3.13184,-2.37508 -3.31284,-2.37508 -0.18,0 -1.2662,3.00011 -2.40645,6.68823 -3.82785,12.37042 -11.16231,33.82916 -13.90878,40.68939 -3.05652,7.63526 -4.76079,11.52539 -8.18928,18.75064 l -2.37534,5.00017 h 1.469 l -0.46907,0.96903 v 0.031 h 1.469 l -0.46906,0.93804 -1e-5,0.063 h 1.469 l -0.43806,0.90603 -0.031,0.094 h 1.438 l -0.40606,0.87503 -0.063,0.094 h 1.469 l -0.40606,0.87503 -0.063,0.12501 h 1.469 l -0.40606,0.84403 c -0.001,10e-4 -0.063,0.156 -0.063,0.156 h 1.469 l -0.37505,0.81303 c -0.001,0.001 -0.094,0.18801 -0.094,0.18801 h 1.469 l -0.37505,0.78102 c -0.001,0.002 -0.094,0.21901 -0.094,0.21901 h 1.469 l -0.37505,0.75003 c -0.001,0.002 -0.094,0.25001 -0.094,0.25001 h 1.438 l -0.34405,0.71902 c -0.001,0.002 -0.12502,0.25001 -0.12502,0.25001 h 1.469 l -0.34405,0.71902 c -10e-4,0.002 -0.12502,0.28101 -0.12502,0.28101 h 1.5 l -0.34405,0.71903 c -0.001,0.002 -0.15601,0.28101 -0.15601,0.28101 h 1.5 l -0.34405,0.68802 -0.15602,0.31301 h 1.469 l -0.31305,0.65602 c -10e-4,0.003 -0.15602,0.34402 -0.15602,0.34402 h 1.469 l -0.31304,0.62502 c -0.001,0.003 -0.15603,0.37501 -0.15603,0.37501 h 1.438 l -0.28104,0.59402 c -0.001,0.003 -0.18803,0.37501 -0.18803,0.37501 h 1.5 l -0.28104,0.59402 c -0.002,0.003 -0.21902,0.40602 -0.21902,0.40602 h 1.5 l -0.28104,0.56302 c -0.002,0.003 -0.21903,0.43801 -0.21903,0.43801 h 1.469 l -0.25004,0.53102 c -0.002,0.004 -0.21903,0.46901 -0.21903,0.46901 h 1.469 l -0.25003,0.50002 c -0.002,0.004 -0.21904,0.50002 -0.21904,0.50002 h 1.469 l -0.21903,0.46901 c -0.002,0.004 -0.25004,0.53102 -0.25004,0.53102 h 1.469 l -0.21903,0.43802 c -0.002,0.004 -0.28103,0.53102 -0.28103,0.53102 h 1.5 l -0.21903,0.43801 -0.28104,0.56302 h 1.469 l -0.18803,0.40601 c -0.002,0.005 -0.28104,0.59402 -0.28104,0.59402 h 1.469 l -0.18802,0.37502 c -0.002,0.005 -0.28105,0.62502 -0.28105,0.62502 h 1.469 l -0.15602,0.34401 c -0.002,0.005 -0.31305,0.65602 -0.31305,0.65602 h 1.469 l -0.15602,0.31301 c -0.002,0.005 -0.31304,0.68803 -0.31304,0.68803 h 1.438 l -0.12502,0.28101 c -0.003,0.005 -0.31305,0.71902 -0.31305,0.71902 h 1.438 l -0.12502,0.25001 c -0.003,0.006 -0.34405,0.71902 -0.34405,0.71902 h 1.5 l -0.12502,0.25001 -0.37505,0.75003 h 1.469 l -0.094,0.21901 c -0.003,0.006 -0.37505,0.78102 -0.37505,0.78102 h 1.469 l -0.094,0.18801 c -0.003,0.006 -0.37505,0.81303 -0.37505,0.81303 h 1.469 l -0.094,0.156 c -0.003,0.006 -0.37506,0.84403 -0.37506,0.84403 h 1.469 l -0.094,0.15601 c -0.003,0.007 -0.37506,0.84402 -0.37506,0.84402 h 1.469 l -0.063,0.12501 c -0.003,0.007 -0.43806,0.84403 -0.43806,0.84403 h 1.5 l -0.063,0.125 c -0.003,0.007 -0.43806,0.87503 -0.43806,0.87503 h 1.5 l -0.063,0.094 c -0.003,0.007 -0.43806,0.90604 -0.43806,0.90604 h 1.469 l -0.031,0.063 c -0.003,0.007 -0.43806,0.93803 -0.43806,0.93803 h 1.5 l -0.031,0.031 c -0.004,0.008 -0.46907,0.96903 -0.46907,0.96903 h 1.469 c -0.004,0.008 -0.46907,1.00004 -0.46907,1.00004 h 1.469 c -0.027,0.056 -0.50006,0.96903 -0.50006,0.96903 h 1.5 c -0.027,0.056 -0.50007,1.00004 -0.50007,1.00004 h 1.469 c -0.056,0.118 -0.46907,1.00003 -0.46907,1.00003 h 1.5 c -0.023,0.048 -0.088,0.17601 -0.15602,0.31301 h 229.78 c 19.933,0 34.09109,-16.04055 36.19238,-34.84519 l 7.8488,-70.4124 c -0.052,-0.052 -0.10399,-0.104 -0.15599,-0.15601 -0.32698,-0.33201 -0.66695,-0.66702 -0.99993,-1.00003 -0.32698,-0.33201 -0.66695,-0.66702 -0.99993,-1.00003 -0.10199,-0.10401 -0.20999,-0.20901 -0.31298,-0.31302 -0.23398,-0.228 -0.45197,-0.46201 -0.68795,-0.68802 -0.062,-0.063 -0.12599,-0.125 -0.18799,-0.18801 -0.57996,-0.60002 -1.17592,-1.17704 -1.78088,-1.78106 -0.32698,-0.33201 -0.66695,-0.66702 -0.99993,-1.00003 -0.32698,-0.33201 -0.66695,-0.66702 -0.99993,-1.00003 -0.32698,-0.33202 -0.66696,-0.66703 -0.99993,-1.00004 -0.102,-0.104 -0.20999,-0.20901 -0.31298,-0.31301 -0.23399,-0.22801 -0.45197,-0.46201 -0.68796,-0.68802 -0.32097,-0.32701 -0.64095,-0.67303 -0.96893,-1.00004 -0.32897,-0.33501 -0.66395,-0.66502 -0.99993,-1.00003 -0.32398,-0.32901 -0.66996,-0.63902 -0.99993,-0.96903 -0.32698,-0.33202 -0.66696,-0.66703 -0.99993,-1.00004 -0.32698,-0.33201 -0.66696,-0.66702 -0.99994,-1.00003 -0.32697,-0.33201 -0.66695,-0.66702 -0.99993,-1.00004 -0.32098,-0.32701 -0.64095,-0.67302 -0.96893,-1.00003 -0.32898,-0.33501 -0.66395,-0.66502 -0.99993,-1.00003 -0.32398,-0.32902 -0.66996,-0.63903 -0.99994,-0.96904 -0.32697,-0.33201 -0.66695,-0.66702 -0.99993,-1.00003 -0.32697,-0.33201 -0.66695,-0.66702 -0.99993,-1.00004 -0.32698,-0.33201 -0.66695,-0.66702 -0.99993,-1.00003 -0.32098,-0.32701 -0.64096,-0.67302 -0.96893,-1.00003 -0.107,-0.10901 -0.23599,-0.20301 -0.34398,-0.31301 -0.096,-0.093 -0.18499,-0.18801 -0.28098,-0.28101 -0.12899,-0.13001 -0.24498,-0.27601 -0.37497,-0.40602 -0.32398,-0.32901 -0.66996,-0.63902 -0.99994,-0.96903 -0.32698,-0.33201 -0.66695,-0.66702 -0.99993,-1.00004 -0.32698,-0.33201 -0.66695,-0.66702 -0.99993,-1.00003 -0.32698,-0.33201 -0.66696,-0.66702 -0.99993,-1.00003 -0.102,-0.10401 -0.20999,-0.20901 -0.31298,-0.31301 -0.23399,-0.22801 -0.45197,-0.46202 -0.68796,-0.68803 -0.32097,-0.32701 -0.64095,-0.67302 -0.96893,-1.00003 -0.32897,-0.33501 -0.66395,-0.66502 -0.99993,-1.00004 -0.32398,-0.32901 -0.66996,-0.63902 -0.99993,-0.96903 -0.32698,-0.33201 -0.66696,-0.66702 -0.99993,-1.00003 -0.32698,-0.33201 -0.66696,-0.66703 -0.99994,-1.00004 -0.32697,-0.33201 -0.66695,-0.66702 -0.99993,-1.00003 -0.32098,-0.32701 -0.64095,-0.67302 -0.96893,-1.00004 -0.32898,-0.33501 -0.66395,-0.66502 -0.99993,-1.00003 -0.32398,-0.32901 -0.66996,-0.63902 -0.99994,-0.96903 -0.32697,-0.33201 -0.66695,-0.66703 -0.99993,-1.00004 -0.32697,-0.33201 -0.66695,-0.66702 -0.99993,-1.00003 -0.32698,-0.33201 -0.66695,-0.66702 -0.99993,-1.00003 -0.32098,-0.32702 -0.64095,-0.67303 -0.96893,-1.00004 -0.107,-0.109 -0.23599,-0.20301 -0.34398,-0.31301 -0.096,-0.093 -0.18499,-0.18801 -0.28098,-0.28101 -0.12899,-0.13 -0.24498,-0.27601 -0.37497,-0.40601 -0.32398,-0.32901 -0.66996,-0.63902 -0.99994,-0.96904 -0.32698,-0.33201 -0.66695,-0.66702 -0.99993,-1.00003 -0.32698,-0.33201 -0.66695,-0.66702 -0.99993,-1.00003 -0.32698,-0.33202 -0.66696,-0.66703 -0.99993,-1.00004 -0.102,-0.104 -0.20999,-0.20901 -0.31298,-0.31301 -0.23399,-0.22801 -0.45197,-0.46201 -0.68796,-0.68802 -0.062,-0.063 -0.12599,-0.12501 -0.18798,-0.18801 -0.57996,-0.60002 -1.17592,-1.17704 -1.78088,-1.78106 -0.32698,-0.33201 -0.66696,-0.66702 -0.99993,-1.00003 -0.32698,-0.33202 -0.66696,-0.66703 -0.99993,-1.00004 -0.32698,-0.33201 -0.66696,-0.66702 -0.99994,-1.00003 -0.10199,-0.10401 -0.20998,-0.20901 -0.31297,-0.31301 -0.23399,-0.22801 -0.45197,-0.46202 -0.68796,-0.68803 -0.32098,-0.32701 -0.64095,-0.67302 -0.96893,-1.00003 -0.32898,-0.33501 -0.66395,-0.66502 -0.99993,-1.00003 -0.32398,-0.32902 -0.66996,-0.63903 -0.99994,-0.96904 -0.32697,-0.33201 -0.66695,-0.66702 -0.99993,-1.00003 -0.32697,-0.33201 -0.66695,-0.66702 -0.99993,-1.00004 -0.32698,-0.33201 -0.66695,-0.66702 -0.99993,-1.00003 -0.32098,-0.32701 -0.64095,-0.67302 -0.96893,-1.00003 -0.32898,-0.33502 -0.66396,-0.66503 -0.99993,-1.00004 -0.32398,-0.32901 -0.66996,-0.63902 -0.99994,-0.96903 -0.32698,-0.33201 -0.66695,-0.66702 -0.99993,-1.00004 -0.32698,-0.33201 -0.66695,-0.66702 -0.99993,-1.00003 -0.32698,-0.33201 -0.66696,-0.66702 -0.99993,-1.00003 -0.32098,-0.32701 -0.64096,-0.67303 -0.96893,-1.00004 -0.107,-0.109 -0.23599,-0.203 -0.34398,-0.31301 -0.096,-0.093 -0.18499,-0.188 -0.28098,-0.28101 -0.129,-0.13 -0.24499,-0.27601 -0.37498,-0.40601 -0.32397,-0.32901 -0.66995,-0.63902 -0.99993,-0.96903 -0.32698,-0.33202 -0.66696,-0.66703 -0.99993,-1.00004 -0.32698,-0.33201 -0.66696,-0.66702 -0.99993,-1.00003 -0.32698,-0.33201 -0.66696,-0.66703 -0.99994,-1.00004 -0.10199,-0.104 -0.20998,-0.209 -0.31297,-0.31301 -0.23399,-0.22801 -0.45197,-0.46201 -0.68796,-0.68802 -0.32098,-0.32701 -0.64095,-0.67302 -0.96893,-1.00004 -0.32898,-0.33501 -0.66395,-0.66502 -0.99993,-1.00003 -0.32398,-0.32901 -0.66996,-0.63902 -0.99993,-0.96903 -0.32698,-0.33201 -0.66696,-0.66703 -0.99994,-1.00004 -0.32697,-0.33201 -0.66695,-0.66702 -0.99993,-1.00003 -0.32698,-0.33201 -0.66695,-0.66702 -0.99993,-1.00004 -0.32098,-0.32701 -0.64095,-0.67302 -0.96893,-1.00003 -0.32898,-0.33501 -0.66396,-0.66502 -0.99993,-1.00003 -0.32398,-0.32901 -0.66996,-0.63903 -0.99994,-0.96904 -0.32698,-0.33201 -0.66695,-0.66702 -0.99993,-1.00003 -0.32698,-0.33201 -0.66695,-0.66702 -0.99993,-1.00003 -0.32698,-0.33202 -0.66696,-0.66703 -0.99993,-1.00004 -0.32098,-0.32701 -0.64096,-0.67302 -0.96893,-1.00003 -0.107,-0.10901 -0.23599,-0.20301 -0.34398,-0.31301 -0.096,-0.093 -0.18499,-0.18801 -0.28098,-0.28101 -0.129,-0.13001 -0.24499,-0.27601 -0.37498,-0.40602 -0.32397,-0.32901 -0.66995,-0.63902 -0.99993,-0.96903 -0.32698,-0.33201 -0.66695,-0.66702 -0.99993,-1.00003 -0.32698,-0.33202 -0.66696,-0.66703 -0.99993,-1.00004 -0.32698,-0.33201 -0.66696,-0.66702 -0.99994,-1.00003 -0.32097,-0.32701 -0.64095,-0.67303 -0.96893,-1.00004 -0.10699,-0.109 -0.23598,-0.203 -0.34398,-0.31301 -0.096,-0.093 -0.18498,-0.188 -0.28098,-0.28101 -0.12899,-0.13 -0.24498,-0.27601 -0.37497,-0.40601 -0.32398,-0.32901 -0.66996,-0.63902 -0.99993,-0.96903 -0.32698,-0.33201 -0.66696,-0.66703 -0.99993,-1.00004 -0.32698,-0.33201 -0.66696,-0.66702 -0.99994,-1.00003 -0.32697,-0.33201 -0.66695,-0.66702 -0.99993,-1.00004 -0.10199,-0.104 -0.20998,-0.209 -0.31298,-0.31301 -0.23398,-0.228 -0.45197,-0.46201 -0.68795,-0.68802 -0.32098,-0.32701 -0.64095,-0.67302 -0.96893,-1.00003 -0.32898,-0.33502 -0.66396,-0.66503 -0.99993,-1.00004 -0.32398,-0.32901 -0.66996,-0.63902 -0.99994,-0.96903 -0.32697,-0.33201 -0.66695,-0.66702 -0.99993,-1.00004 -0.32698,-0.33201 -0.66695,-0.66702 -0.99993,-1.00003 -0.32698,-0.33201 -0.66696,-0.66702 -0.99993,-1.00003 -0.32098,-0.32701 -0.64096,-0.67303 -0.96893,-1.00004 -0.32898,-0.33501 -0.66396,-0.66502 -0.99994,-1.00003 -0.32397,-0.32901 -0.66995,-0.63902 -0.99993,-0.96904 -0.32698,-0.33201 -0.66695,-0.66702 -0.99993,-1.00003 -0.32698,-0.33201 -0.66696,-0.66702 -0.99993,-1.00003 -0.32698,-0.33201 -0.66696,-0.66703 -0.99994,-1.00004 -0.32097,-0.32701 -0.64095,-0.67302 -0.96893,-1.00003 -0.10699,-0.10901 -0.23598,-0.20301 -0.34398,-0.31301 -0.096,-0.093 -0.18498,-0.18801 -0.28098,-0.28101 -0.12899,-0.13001 -0.24498,-0.27601 -0.37497,-0.40602 -0.32398,-0.32901 -0.66996,-0.63902 -0.99993,-0.96903 -0.32698,-0.33201 -0.66696,-0.66702 -0.99993,-1.00003 -0.32698,-0.33201 -0.66696,-0.66703 -0.99994,-1.00004 -0.32697,-0.33201 -0.66695,-0.66702 -0.99993,-1.00003 -0.10199,-0.104 -0.20998,-0.20901 -0.31298,-0.31301 -0.23398,-0.22801 -0.45197,-0.46202 -0.68795,-0.68803 -0.32098,-0.32701 -0.64095,-0.67302 -0.96893,-1.00003 -0.32898,-0.33501 -0.66396,-0.66502 -0.99993,-1.00003 -0.32398,-0.32901 -0.66996,-0.63903 -0.99994,-0.96904 -0.32697,-0.33201 -0.66695,-0.66702 -0.99993,-1.00003 -0.32698,-0.33201 -0.66695,-0.66702 -0.99993,-1.00003 -0.32698,-0.33202 -0.66696,-0.66703 -0.99993,-1.00004 -0.32098,-0.32701 -0.64096,-0.67302 -0.96893,-1.00003 -0.32898,-0.33501 -0.66396,-0.66503 -0.99994,-1.00004 -0.32397,-0.32901 -0.66995,-0.63902 -0.99993,-0.96903 -0.32698,-0.33201 -0.66695,-0.66702 -0.99993,-1.00003 -0.32698,-0.33202 -0.66696,-0.66703 -0.99993,-1.00004 -0.32698,-0.33201 -0.66696,-0.66702 -0.99994,-1.00003 -0.32097,-0.32701 -0.64095,-0.67303 -0.96893,-1.00004 -0.32897,-0.33501 -0.66395,-0.66502 -0.99993,-1.00003 -0.32398,-0.32901 -0.66996,-0.63902 -0.99993,-0.96903 -0.32698,-0.33202 -0.66696,-0.66703 -0.99993,-1.00004 -0.32698,-0.33201 -0.66696,-0.66702 -0.99994,-1.00003 -0.32697,-0.33201 -0.66695,-0.66702 -0.99993,-1.00004 -0.32098,-0.32701 -0.64095,-0.67302 -0.96893,-1.00003 -0.10699,-0.109 -0.23599,-0.20301 -0.34398,-0.31301 -0.096,-0.093 -0.18499,-0.18801 -0.28098,-0.28101 -0.12899,-0.13 -0.24498,-0.27601 -0.37497,-0.40601 -0.32398,-0.32902 -0.66996,-0.63903 -0.99994,-0.96904 -0.32697,-0.33201 -0.66695,-0.66702 -0.99993,-1.00003 -0.32697,-0.33201 -0.66695,-0.66702 -0.99993,-1.00004 -0.32698,-0.33201 -0.66695,-0.66702 -0.99993,-1.00003 -0.10199,-0.104 -0.20999,-0.20901 -0.31298,-0.31301 -0.23398,-0.22801 -0.45197,-0.46202 -0.68795,-0.68802 -0.32098,-0.32702 -0.64096,-0.67303 -0.96893,-1.00004 -0.32898,-0.33501 -0.66396,-0.66502 -0.99994,-1.00003 -0.32397,-0.32901 -0.66995,-0.63902 -0.99993,-0.96904 -0.32698,-0.33201 -0.66695,-0.66702 -0.99993,-1.00003 -0.32698,-0.33201 -0.66696,-0.66702 -0.99993,-1.00003 -0.32698,-0.33201 -0.66696,-0.66703 -0.99993,-1.00004 -0.32098,-0.32701 -0.64096,-0.67302 -0.96894,-1.00003 -0.32897,-0.33501 -0.66395,-0.66502 -0.99993,-1.00004 -0.32398,-0.32901 -0.66995,-0.63902 -0.99993,-0.96903 -0.32698,-0.33201 -0.66696,-0.66702 -0.99993,-1.00003 -0.32698,-0.33201 -0.66696,-0.66703 -0.99994,-1.00004 -0.32697,-0.33201 -0.66695,-0.66702 -0.99993,-1.00003 -0.32098,-0.32701 -0.64095,-0.67302 -0.96893,-1.00004 -0.10699,-0.109 -0.23599,-0.203 -0.34398,-0.31301 -0.096,-0.093 -0.18499,-0.188 -0.28098,-0.28101 -0.12899,-0.13 -0.24498,-0.27601 -0.37497,-0.40601 -0.32398,-0.32901 -0.66996,-0.63902 -0.99993,-0.96903 -0.32698,-0.33201 -0.66696,-0.66703 -0.99994,-1.00004 -0.32697,-0.33201 -0.66695,-0.66702 -0.99993,-1.00003 -0.32698,-0.33201 -0.66695,-0.66702 -0.99993,-1.00003 -0.10199,-0.10401 -0.20999,-0.20901 -0.31298,-0.31302 -0.23398,-0.228 -0.45197,-0.46201 -0.68795,-0.68802 -0.43097,-0.43901 -0.86994,-0.87403 -1.31291,-1.31304 -0.33798,-0.32902 -0.66096,-0.64503 -0.99994,-0.96904 -3.13179,-3.0481 -6.36459,-5.9502 -8.84346,-7.81326 -10.53246,-7.91527 -22.14909,-13.41646 -34.18889,-16.25056 -7.84688,-1.84806 -10.65686,-2.13707 -19.81286,-2.12507 m 85.79901,161.00549 c 0.054,0.14801 0.10998,0.29401 0.15598,0.40602 -0.02,-0.012 -0.49498,-0.29201 -0.53098,-0.31301 0.032,0 0.091,0.015 0.125,0 0.08,-0.034 0.168,-0.06 0.25,-0.094 m 0.96894,0.96904 c 0.064,0.178 0.13398,0.34001 0.18797,0.46901 -0.023,-0.014 -0.58098,-0.31901 -0.62498,-0.34401 0.007,-0.009 0.025,-0.023 0.031,-0.031 0.054,0.021 0.098,0.025 0.156,0 0.08,-0.034 0.16801,-0.06 0.25001,-0.094 m 0.99993,1.00003 c 0.06,0.16501 0.10598,0.31601 0.15597,0.43801 -0.023,-0.013 -0.55198,-0.28901 -0.59398,-0.31301 0.003,-0.004 -0.003,-0.027 0,-0.031 0.064,0.036 0.119,0.03 0.188,0 0.078,-0.034 0.17001,-0.061 0.25001,-0.094 m 0.99993,1.00003 c 0.059,0.16301 0.10598,0.31701 0.15597,0.43802 -0.02,-0.012 -0.46498,-0.29301 -0.49998,-0.31301 0.033,0 0.059,-0.016 0.094,-0.031 0.08,-0.034 0.168,-0.06 0.25,-0.094 m 0.99993,1.00004 c 0.054,0.148 0.10998,0.29301 0.15598,0.40601 -0.019,-0.011 -0.46699,-0.26301 -0.49998,-0.28101 0.033,0 0.059,-0.016 0.094,-0.031 0.079,-0.034 0.169,-0.061 0.25,-0.094 m 0.96894,1.00003 c 0.051,0.13901 0.11198,0.26701 0.15597,0.37501 -0.019,-0.011 -0.43798,-0.233 -0.46898,-0.25 0.033,0 0.058,-0.016 0.094,-0.031 0.07,-0.03 0.147,-0.065 0.21901,-0.094 m 0.99993,1.00004 c 0.051,0.141 0.11198,0.26601 0.15597,0.37501 -0.02,-0.012 -0.46598,-0.26201 -0.49998,-0.28101 0.034,0 0.089,0.015 0.125,0 0.071,-0.031 0.14601,-0.064 0.21901,-0.094 m 0.46893,0.96903 c 0.028,0.029 0.067,0.079 0.094,0.094 -0.006,-0.004 -0.087,-0.028 -0.094,-0.031 0.003,-0.027 0.014,-0.048 0,-0.063 m 0.5,0 c 0.055,0.15 0.10898,0.29201 0.15597,0.40601 -0.02,-0.012 -0.43598,-0.26301 -0.46898,-0.28101 0.034,0 0.058,-0.016 0.094,-0.031 0.069,-0.03 0.14801,-0.065 0.21901,-0.094 m 0.49993,0.96903 c 0.033,0.038 0.062,0.10701 0.094,0.12501 -0.011,-0.006 -0.144,-0.056 -0.156,-0.063 0.035,-0.026 0.029,-0.037 0.063,-0.063 m 0.49999,0.031 c 0.055,0.15201 0.10898,0.29101 0.15598,0.40602 -0.02,-0.012 -0.43599,-0.26301 -0.46899,-0.28101 0.034,0 0.057,-0.016 0.094,-0.031 0.07,-0.03 0.146,-0.064 0.219,-0.094 m 0.49993,1.00004 c 0.025,0.025 0.038,0.08 0.063,0.094 -0.009,-0.005 -0.115,-0.057 -0.125,-0.063 0.027,-0.02 0.037,-0.012 0.063,-0.031 m 0.5,0 c 0.055,0.151 0.10898,0.29101 0.15598,0.40601 -0.021,-0.012 -0.35999,-0.20701 -0.49998,-0.28101 0.037,-0.001 0.088,-0.015 0.125,-0.031 0.07,-0.03 0.147,-0.065 0.219,-0.094 m 0.46894,0.96903 c 0.019,0.022 0.044,0.047 0.063,0.063 -0.007,-0.004 -0.087,-0.027 -0.094,-0.031 0.016,-0.012 0.016,-0.019 0.031,-0.031 m 0.531,0.031 c 0.051,0.13801 0.081,0.26701 0.12497,0.37501 -0.019,-0.011 -0.40798,-0.233 -0.43798,-0.25 0.035,0 0.057,-0.015 0.094,-0.031 0.071,-0.031 0.146,-0.064 0.21901,-0.094 m 0.46893,0.96903 c 0.023,0.025 0.04,0.078 0.063,0.094 -0.007,-0.004 -0.086,-0.058 -0.094,-0.063 0.015,-0.012 0.017,-0.02 0.031,-0.031 m 0.531,0.063 c 0.049,0.133 0.11298,0.239 0.15597,0.34401 -0.02,-0.012 -0.46598,-0.23101 -0.49998,-0.25001 0.035,0 0.088,-0.015 0.125,-0.031 0.065,-0.028 0.152,-0.035 0.21901,-0.063 m 0.46893,0.93803 c 0.023,0.025 0.04,0.078 0.063,0.094 -0.008,-0.004 -0.086,-0.058 -0.094,-0.063 0.014,-0.012 0.018,-0.02 0.031,-0.031 m 0.531,0.031 c 0.059,0.15901 0.10598,0.28801 0.15597,0.40601 -0.023,-0.013 -0.52098,-0.28901 -0.56298,-0.31301 0.058,0.021 0.125,0.027 0.188,0 0.069,-0.03 0.14801,-0.065 0.21901,-0.094 m 0.46893,0.96903 c 0.027,0.028 0.067,0.079 0.094,0.094 -0.011,-0.006 -0.144,-0.056 -0.156,-0.063 0.022,-0.018 0.043,-0.015 0.063,-0.031 m 0.5,0.063 c 0.05,0.135 0.11198,0.239 0.15598,0.34401 -0.021,-0.012 -0.43499,-0.26201 -0.46898,-0.28101 0.036,0 0.087,0.016 0.125,0 0.058,-0.025 0.129,-0.038 0.188,-0.063 m 0.46894,0.93803 c 0.029,0.031 0.065,0.078 0.094,0.094 -0.009,-0.005 -0.115,-0.057 -0.125,-0.063 0.013,-0.011 0.019,-0.021 0.031,-0.031 m 0.531,0 c 0.059,0.158 0.10598,0.28701 0.15597,0.40601 -0.022,-0.013 -0.35999,-0.20701 -0.49998,-0.28101 0.036,-10e-4 0.087,-0.015 0.125,-0.031 0.069,-0.03 0.148,-0.065 0.21901,-0.094 m 0.49993,1.00003 c 0.023,0.022 0.04,0.081 0.063,0.094 -0.01,-0.005 -0.115,-0.057 -0.12499,-0.063 0.017,-0.014 0.046,-0.018 0.063,-0.031 m 0.5,0 c 0.059,0.16001 0.10598,0.28601 0.15597,0.40601 -0.022,-0.013 -0.35999,-0.207 -0.49998,-0.281 0.036,-0.001 0.086,-0.015 0.125,-0.031 0.068,-0.029 0.14901,-0.065 0.21901,-0.094 m 0.49993,1.00004 c 0.014,0.014 0.017,0.052 0.031,0.063 -0.005,-0.003 -0.057,-0.028 -0.063,-0.031 0.01,-0.008 0.021,-0.023 0.031,-0.031 m 0.469,0.031 c 0.051,0.137 0.11198,0.237 0.15597,0.34401 -0.02,-0.012 -0.43598,-0.23101 -0.46898,-0.25001 0.037,0 0.086,-0.014 0.125,-0.031 0.057,-0.025 0.12901,-0.038 0.18801,-0.063 m 0.53093,0.96903 c 0.013,0.012 0.018,0.053 0.031,0.063 -0.005,-0.003 -0.057,-0.028 -0.063,-0.031 0.01,-0.008 0.022,-0.023 0.031,-0.031 m 0.5,0.031 c 0.05,0.13401 0.081,0.23901 0.12498,0.34401 -0.02,-0.012 -0.43499,-0.23101 -0.46899,-0.25001 0.037,0 0.086,-0.014 0.125,-0.031 0.066,-0.028 0.15101,-0.035 0.21901,-0.063 m 0.49993,0.96903 c 0.013,0.013 0.018,0.053 0.031,0.063 -0.005,-0.003 -0.057,-0.028 -0.063,-0.031 0.01,-0.008 0.022,-0.023 0.031,-0.031 m 0.469,0.031 c 0.052,0.13801 0.11098,0.23701 0.15598,0.34402 -0.02,-0.012 -0.43499,-0.23101 -0.46899,-0.25001 0.037,0 0.085,-0.014 0.12501,-0.031 0.058,-0.025 0.128,-0.038 0.188,-0.063 m 0.49993,0.96904 c 0.02,0.018 0.043,0.051 0.063,0.063 0.075,0.042 0.17,0.066 0.25,0.031 0.057,-0.025 0.129,-0.038 0.188,-0.063 0.052,0.138 0.079,0.23701 0.12498,0.34401 -0.026,-0.015 -0.51798,-0.28701 -0.56298,-0.31301 -0.007,-0.004 -0.087,-0.027 -0.094,-0.031 0.01,-0.008 0.022,-0.023 0.031,-0.031 m 0.99994,1.00003 c 0.018,0.015 0.045,0.053 0.063,0.063 -0.007,-0.004 -0.086,-0.027 -0.094,-0.031 0.01,-0.008 0.022,-0.023 0.031,-0.031 m 0.469,0 c 0.057,0.15101 0.10698,0.26001 0.15597,0.37501 -0.022,-0.013 -0.33399,-0.206 -0.46898,-0.281 0.035,-10e-4 0.085,-0.014 0.125,-0.031 0.057,-0.024 0.129,-0.039 0.18801,-0.063 m 0.53093,1.00004 c 0.018,0.015 0.045,0.052 0.063,0.063 -0.007,-0.004 -0.086,-0.027 -0.094,-0.031 0.009,-0.008 0.022,-0.024 0.031,-0.031 m 0.469,0 c 0.053,0.141 0.10998,0.234 0.15597,0.34401 -0.022,-0.013 -0.43398,-0.23001 -0.46898,-0.25001 0.038,0 0.084,-0.014 0.125,-0.031 0.057,-0.025 0.12901,-0.038 0.18801,-0.063 m 0.53093,0.96903 c 0.014,0.013 0.017,0.053 0.031,0.063 -0.005,-0.003 -0.057,-0.028 -0.063,-0.031 0.021,-0.017 0.012,-0.015 0.031,-0.031 m 0.469,0.031 c 0.053,0.14 0.10998,0.23501 0.15598,0.34401 -0.021,-0.012 -0.43499,-0.23101 -0.46899,-0.25001 0.039,0 0.084,-0.014 0.125,-0.031 0.058,-0.025 0.12801,-0.038 0.18801,-0.063 m 0.99993,1.00003 c 0.053,0.14101 0.078,0.23401 0.12498,0.34402 -0.021,-0.012 -0.40499,-0.23201 -0.43799,-0.25001 0.039,0 0.084,-0.013 0.12501,-0.031 0.057,-0.024 0.129,-0.039 0.188,-0.063 m 0.96893,1.00004 c 0.054,0.143 0.10899,0.23301 0.15598,0.34401 -0.021,-0.012 -0.40498,-0.23201 -0.43798,-0.25001 0.039,0 0.083,-0.013 0.125,-0.031 0.049,-0.021 0.106,-0.042 0.156,-0.063 m 0.53094,0.96903 c 0.019,0.016 0.044,0.052 0.063,0.063 -0.007,-0.004 -0.086,-0.027 -0.094,-0.031 0.019,-0.016 0.014,-0.016 0.031,-0.031 m 0.46899,0.031 c 0.055,0.14501 0.10799,0.23301 0.15598,0.34401 -0.021,-0.012 -0.40498,-0.232 -0.43798,-0.25 0.04,0 0.083,-0.013 0.125,-0.031 0.049,-0.021 0.106,-0.042 0.156,-0.063 m 0.56294,0.96904 c 0.014,0.011 0.017,0.055 0.031,0.063 -0.005,-0.003 -0.057,-0.028 -0.063,-0.031 0.017,-0.015 0.015,-0.017 0.031,-0.031 m 0.438,0 c 0.058,0.154 0.10598,0.258 0.15597,0.37501 -0.023,-0.013 -0.33298,-0.20601 -0.46898,-0.28101 0.034,-10e-4 0.083,-0.013 0.125,-0.031 0.057,-0.025 0.12901,-0.038 0.18801,-0.063 m 0.53093,1.00003 c 0.019,0.016 0.044,0.052 0.063,0.063 -0.007,-0.004 -0.086,-0.027 -0.094,-0.031 0.017,-0.015 0.015,-0.017 0.031,-0.031 m 0.438,0 c 0.056,0.146 0.10798,0.23101 0.15598,0.34401 -0.022,-0.013 -0.40299,-0.23101 -0.43799,-0.25001 0.04,0 0.082,-0.013 0.12501,-0.031 0.048,-0.021 0.107,-0.042 0.156,-0.063 m 0.99993,1.00003 c 0.061,0.15901 0.10398,0.25501 0.15598,0.37502 -0.028,-0.016 -0.51498,-0.28601 -0.56298,-0.31301 0.08,0.045 0.16399,0.037 0.25,0 0.048,-0.021 0.107,-0.042 0.156,-0.063 m 1.03093,1.00004 c 0.055,0.143 0.077,0.23401 0.12498,0.34401 -0.021,-0.012 -0.40398,-0.23101 -0.43798,-0.25001 0.041,0 0.082,-0.013 0.125,-0.031 0.057,-0.025 0.129,-0.039 0.188,-0.063 m 0.96894,1.00003 c 0.051,0.13201 0.08,0.20801 0.12497,0.31301 -0.02,-0.012 -0.37498,-0.201 -0.40598,-0.219 0.041,0 0.081,-0.013 0.125,-0.031 0.049,-0.021 0.106,-0.042 0.15601,-0.063 m 0.99993,1.00004 c 0.053,0.138 0.078,0.205 0.12498,0.31301 -0.021,-0.012 -0.37499,-0.20101 -0.40599,-0.21901 0.041,0 0.081,-0.012 0.125,-0.031 0.048,-0.021 0.10701,-0.042 0.15601,-0.063 m 0.99993,1.00003 c 0.053,0.13701 0.079,0.20601 0.12498,0.31301 -0.022,-0.013 -0.40199,-0.23001 -0.43799,-0.25001 0.042,0 0.112,0.019 0.156,0 0.049,-0.021 0.10601,-0.042 0.15601,-0.063 m 0.96893,0.96903 c 0.057,0.15001 0.10599,0.22901 0.15598,0.34402 -0.023,-0.013 -0.40199,-0.23001 -0.43798,-0.25001 0.042,0 0.08,-0.012 0.125,-0.031 0.048,-0.021 0.107,-0.042 0.156,-0.063 m 0.99993,1.00004 c 0.052,0.134 0.079,0.207 0.12498,0.31301 -0.022,-0.013 -0.37398,-0.20101 -0.40598,-0.21901 0.042,0 0.08,-0.012 0.125,-0.031 0.049,-0.021 0.106,-0.042 0.156,-0.063 m 0.99994,1.00003 c 0.052,0.13501 0.079,0.20601 0.12497,0.31301 -0.021,-0.012 -0.37398,-0.201 -0.40598,-0.21901 0.043,0 0.08,-0.012 0.125,-0.031 0.048,-0.021 0.107,-0.042 0.15601,-0.063 m 0.96893,1.03104 c 0.05,0.13 0.11098,0.178 0.15598,0.28101 -0.021,-0.012 -0.37399,-0.20101 -0.40599,-0.21901 0.043,0 0.079,-0.012 0.125,-0.031 0.037,-0.016 0.087,-0.016 0.12501,-0.031 m 1.03093,0.96903 c 0.052,0.133 0.079,0.20801 0.12498,0.31301 -0.022,-0.013 -0.40299,-0.19901 -0.43799,-0.21901 0.043,0 0.11,-0.012 0.15601,-0.031 0.049,-0.021 0.106,-0.042 0.156,-0.063 m 0.96893,1.03104 c 0.047,0.119 0.083,0.186 0.12498,0.281 -0.022,-0.013 -0.37299,-0.2 -0.40598,-0.219 0.044,0 0.11,-0.011 0.156,-0.031 0.038,-0.016 0.086,-0.015 0.125,-0.031 m 0.99994,0.93803 c 0.05,0.129 0.08,0.21 0.12497,0.31301 -0.022,-0.013 -0.37298,-0.20001 -0.40598,-0.21901 0.044,0 0.078,-0.011 0.125,-0.031 0.048,-0.021 0.107,-0.042 0.15601,-0.063 m 0.99993,1.00003 c 0.052,0.13401 0.079,0.20701 0.12498,0.31301 -0.022,-0.013 -0.37299,-0.2 -0.40599,-0.21901 0.044,0 0.078,-0.011 0.125,-0.031 0.048,-0.021 0.10701,-0.042 0.15601,-0.063 m 0.96893,1.03104 c 0.043,0.11 0.086,0.16 0.12498,0.25 -0.021,-0.012 -0.34499,-0.171 -0.37499,-0.188 0.044,0 0.078,-0.011 0.125,-0.031 0.037,-0.016 0.087,-0.016 0.12501,-0.031 m 0.99993,1.00003 c 0.046,0.116 0.084,0.18801 0.12498,0.28101 -0.021,-0.012 -0.34399,-0.20101 -0.37499,-0.21901 0.045,0 0.077,-0.011 0.12501,-0.031 0.038,-0.016 0.087,-0.015 0.125,-0.031 m 0.99993,0.96903 c 0.051,0.13001 0.079,0.20901 0.12498,0.31301 -0.023,-0.013 -0.37199,-0.2 -0.40598,-0.219 0.045,0 0.108,-0.011 0.156,-0.031 0.041,-0.018 0.083,-0.045 0.125,-0.063 m 0.99993,1.03104 c 0.046,0.114 0.084,0.18901 0.12498,0.28101 -0.023,-0.013 -0.37198,-0.20001 -0.40598,-0.21901 0.045,0 0.108,-0.011 0.156,-0.031 0.037,-0.016 0.087,-0.016 0.125,-0.031 m 0.96894,0.96903 c 0.047,0.11801 0.083,0.18601 0.12498,0.28101 -0.022,-0.013 -0.34199,-0.20101 -0.37499,-0.21901 0.046,0 0.076,-0.01 0.125,-0.031 0.037,-0.016 0.087,-0.016 0.12501,-0.031 m 0.99993,1.00004 c 0.047,0.119 0.082,0.185 0.12498,0.28101 -0.023,-0.013 -0.34199,-0.20101 -0.37499,-0.21901 0.046,0 0.076,-0.01 0.12501,-0.031 0.037,-0.016 0.087,-0.016 0.125,-0.031 m 0.99993,1.00003 c 0.045,0.112 0.084,0.19001 0.12498,0.28101 -0.023,-0.013 -0.34199,-0.20001 -0.37498,-0.21901 0.046,0 0.076,-0.01 0.125,-0.031 0.038,-0.016 0.087,-0.015 0.125,-0.031 m 0.99993,1.00003 c 0.04,0.099 0.057,0.16701 0.094,0.25001 -0.022,-0.013 -0.34298,-0.17 -0.37498,-0.188 0.047,0 0.107,-0.01 0.156,-0.031 0.037,-0.016 0.087,-0.016 0.125,-0.031 m 0.99993,1.00004 c 0.045,0.113 0.084,0.19 0.12498,0.28101 -0.023,-0.013 -0.37098,-0.19901 -0.40598,-0.21901 0.047,0 0.106,-0.01 0.156,-0.031 0.037,-0.016 0.087,-0.016 0.125,-0.031 m 0.96893,1.00003 c 0.041,0.10201 0.087,0.16601 0.12499,0.25001 -0.022,-0.013 -0.34299,-0.17 -0.37499,-0.18801 0.047,0 0.106,-0.01 0.156,-0.031 0.029,-0.012 0.064,-0.019 0.094,-0.031 m 0.99994,0.96904 c 0.046,0.115 0.083,0.188 0.12498,0.28101 -0.022,-0.013 -0.34299,-0.17001 -0.37499,-0.18801 0.048,0 0.074,-0.041 0.12501,-0.063 0.037,-0.016 0.087,-0.016 0.125,-0.031 m 0.96893,1.00003 c 0.04,0.1 0.088,0.16701 0.12498,0.25001 -0.022,-0.012 -0.31299,-0.17001 -0.34398,-0.18801 0.048,0 0.074,-0.009 0.125,-0.031 0.028,-0.012 0.065,-0.019 0.094,-0.031 m 0.99993,1.00003 c 0.046,0.11401 0.083,0.18901 0.12498,0.28101 -0.024,-0.014 -0.33998,-0.199 -0.37498,-0.219 0.048,0 0.105,-0.009 0.156,-0.031 0.029,-0.012 0.064,-0.019 0.094,-0.031 m 1.03093,1.00004 c 0.043,0.104 0.055,0.195 0.094,0.28101 -0.023,-0.013 -0.34098,-0.20001 -0.37498,-0.21901 0.048,0 0.105,-0.009 0.156,-0.031 0.038,-0.016 0.086,-0.015 0.125,-0.031 m 0.96894,1.00003 c 0.039,0.095 0.058,0.17001 0.094,0.25001 -0.022,-0.013 -0.31299,-0.17001 -0.34399,-0.18801 0.049,0 0.104,-0.009 0.156,-0.031 0.029,-0.013 0.064,-0.019 0.094,-0.031 m 0.99993,1.00004 c 0.035,0.085 0.061,0.146 0.094,0.219 -0.02,-0.011 -0.28499,-0.141 -0.31299,-0.156 0.04,-0.004 0.083,-0.013 0.12501,-0.031 0.029,-0.012 0.064,-0.019 0.094,-0.031 m 0.99993,1.00003 c 0.041,0.099 0.088,0.16801 0.12498,0.25001 -0.023,-0.013 -0.34199,-0.16901 -0.37499,-0.18801 0.049,0 0.10401,-0.009 0.15601,-0.031 0.029,-0.012 0.064,-0.019 0.094,-0.031"
       inkscape:connector-curvature="0" />
    <path
       style="fill:#e50048;fill-opacity:1"
       id="path511"
       d="m 264.51,161.58 c -9.751,0.012 -15.14,0.742 -23.11,3.156 -4.394,1.33 -9.977,3.456 -10.634,4.04 -0.3,0.268 2.314,8.91 2.695,8.91 0.086,0 1.61,-0.596 3.375,-1.323 20.05,-8.266 43.11,-7.266 63.03,2.744 21.11,10.607 36.926,28.845 44.867,51.702 0.909,2.617 1.85,4.759 2.088,4.759 0.238,0 2.053,-0.543 4.03,-1.202 1.977,-0.659 3.593,-1.333 3.593,-1.505 0,-0.621 -3.075,-9.214 -4.455,-12.443 -3.333,-7.796 -8.915,-17.02 -14.458,-23.89 -4.047,-5.02 -12.07,-12.82 -17.03,-16.546 -10.533,-7.915 -22.13,-13.432 -34.17,-16.267 -7.847,-1.848 -10.656,-2.148 -19.812,-2.137 m -0.413,24.582 c -9.475,0 -15.798,1.256 -25.481,5.062 l -1.044,0.401 1.396,4.01 c 0.768,2.202 1.43,4.056 1.469,4.115 0.039,0.059 1.448,-0.455 3.132,-1.129 17.335,-6.941 37.22,-4.769 52.819,5.766 12.225,8.257 20.771,19.789 26.379,35.581 0.779,2.193 1.231,2.968 1.627,2.816 0.301,-0.116 1.809,-0.583 3.35,-1.044 4.518,-1.351 4.296,-0.932 2.744,-5.293 -10.791,-30.3 -37.18,-50.28 -66.39,-50.28 m -1.602,22.349 c -3.344,0.014 -6.695,0.419 -9.991,1.238 -3.731,0.927 -8,2.547 -8,3.035 0,0.245 0.538,2.076 1.202,4.067 0.995,2.987 1.318,3.565 1.845,3.338 4.61,-1.981 10.974,-3.266 16.11,-3.266 6.446,0 13.305,1.819 18.695,4.965 3.85,2.247 10.137,8.335 12.929,12.516 2.655,3.976 4.798,8.279 7.126,14.276 0.187,0.481 0.451,0.874 0.583,0.874 0.132,0 1.975,-0.544 4.091,-1.202 2.116,-0.658 3.848,-1.345 3.848,-1.53 0,-0.749 -2.14,-6.205 -3.569,-9.105 -8.877,-18.02 -26.808,-29.28 -44.867,-29.21 m -103.85,13.475 c -0.653,1.056 -1.267,12.346 -1.032,18.938 0.893,25.02 8.809,47.41 23.72,67.08 23.353,30.806 62.46,48.37 100.73,45.24 21.509,-1.754 41.824,-9.183 59.09,-21.608 5.142,-3.699 10.228,-7.992 9.869,-8.34 -0.154,-0.149 -20.819,-11.145 -45.924,-24.425 -25.1,-13.28 -45.684,-24.17 -45.729,-24.22 -0.045,-0.045 1,-2.153 2.331,-4.686 l 2.416,-4.613 2.246,-0.68 c 8.05,-2.437 11,-13.423 5.03,-18.67 -1.915,-1.681 -3.559,-2.287 -6.191,-2.282 -7.194,0.012 -12.675,7.889 -10.318,14.834 l 0.753,2.222 -2.379,4.577 c -1.311,2.52 -2.554,4.552 -2.756,4.516 -0.201,-0.036 -20.886,-10.92 -45.972,-24.19 -29.444,-15.579 -45.714,-23.976 -45.887,-23.696 m 39.32,118.47 c -0.18,0 -1.263,3.02 -2.404,6.701 -3.827,12.37 -11.166,33.832 -13.912,40.691 -3.056,7.635 -4.755,11.531 -8.182,18.755 l -2.355,4.977 48.837,-0.267 c 26.861,-0.147 48.88,-0.297 48.934,-0.34 0.054,-0.043 -1.279,-2.952 -2.962,-6.458 -5.693,-11.859 -10.575,-23.643 -14.713,-35.508 -0.969,-2.778 -1.809,-5.11 -1.869,-5.184 -0.06,-0.074 -2.162,-0.565 -4.661,-1.093 -16.668,-3.518 -31.13,-10.146 -43.4,-19.897 -1.645,-1.307 -3.134,-2.379 -3.314,-2.379" />
  </g>
</svg>
