<?xml version="1.0" encoding="UTF-8" standalone="no"?>
<svg
   xmlns:dc="http://purl.org/dc/elements/1.1/"
   xmlns:cc="http://creativecommons.org/ns#"
   xmlns:rdf="http://www.w3.org/1999/02/22-rdf-syntax-ns#"
   xmlns:svg="http://www.w3.org/2000/svg"
   xmlns="http://www.w3.org/2000/svg"
   xmlns:sodipodi="http://sodipodi.sourceforge.net/DTD/sodipodi-0.dtd"
   xmlns:inkscape="http://www.inkscape.org/namespaces/inkscape"
   version="1.1"
   id="svg2"
   viewBox="0 0 512 512"
   sodipodi:docname="folder-template.svg"
   inkscape:version="0.92.1 r">
  <sodipodi:namedview
     pagecolor="#ffffff"
     bordercolor="#666666"
     borderopacity="1"
     objecttolerance="10"
     gridtolerance="10"
     guidetolerance="10"
     inkscape:pageopacity="0"
     inkscape:pageshadow="2"
     inkscape:window-width="974"
     inkscape:window-height="735"
     id="namedview19"
     showgrid="false"
     inkscape:zoom="0.4609375"
     inkscape:cx="256"
     inkscape:cy="256"
     inkscape:window-x="99"
     inkscape:window-y="104"
     inkscape:window-maximized="0"
     inkscape:current-layer="svg2" />
  <metadata
     id="metadata367">
    <rdf:RDF>
      <cc:Work
         rdf:about="">
        <dc:format>image/svg+xml</dc:format>
        <dc:type
           rdf:resource="http://purl.org/dc/dcmitype/StillImage" />
      </cc:Work>
    </rdf:RDF>
  </metadata>
  <defs
     id="defs4">
    <linearGradient
       gradientUnits="userSpaceOnUse"
       id="0-9"
       y2="453.26001"
       x2="0"
       y1="121.76"
       gradientTransform="translate(0.0012,-0.005)">
      <stop
         id="stop7-4"
         style="stop-color:#6a6a6a" />
      <stop
         id="stop9-8"
         offset=".47" />
      <stop
         id="stop11-9"
         style="stop-color:#fff"
         offset=".494" />
      <stop
         id="stop13-3"
         style="stop-color:#fff"
         offset=".901" />
      <stop
         id="stop15-9"
         offset=".955" />
      <stop
         id="stop17-6"
         offset="1" />
    </linearGradient>
  </defs>
  <path
     d="m 108.6312,57.385 c -7.963,0 -15.228,2.293 -20.693,6.22 -4.545,3.266 -7.751,7.872 -8.752,13.13 l -11.909,0 c -16.447,0 -29.883,13.03 -29.883,29.2 l 0,66.736 c 0,16.17 13.436,29.19 29.883,29.19 l 377.47,0 c 16.447,0 29.883,-13.03 29.883,-29.19 l 0,-66.736 c 0,-16.17 -13.436,-29.2 -29.883,-29.2 l -262.91,0 c -1,-5.256 -4.208,-9.862 -8.753,-13.13 -5.465,-3.927 -12.73,-6.22 -20.693,-6.22 l -43.761,0"
     style="fill:#cccccc;fill-rule:evenodd"
     id="path115" />
  <path
     d="m 37.3612,118.475 c -19.928,0 -38.06,15.818 -36.23,35.853 l 24.26,265.41 c 1.733,18.966 16.271,34.947 36.2,34.947 l 383.41,0 c 19.933,0 34.1,-16.05 36.2,-34.853 l 29.632,-265.41 c 1.123,-10.05 -3.137,-19.263 -9.971,-25.663 -6.833,-6.399 -16.258,-10.284 -26.22,-10.284 l -437.27,0"
     style="fill:#6997c7;fill-rule:evenodd"
     id="path117" />
  <path
     id="path119"
     style="opacity:0.05;fill:#edd400"
     d="m 37.3612,118.465 c -19.928,0 -38.08,15.84 -36.25,35.875 l 11.781,128.78 12.469,136.63 c 1.733,18.966 16.29,34.938 36.22,34.938 l 383.41,0 c 19.933,0 34.09,-16.04 36.19,-34.844 l 15.281,-136.72 14.375,-128.69 c 1.123,-10.05 -3.135,-19.287 -9.969,-25.688 -6.833,-6.399 -16.257,-10.281 -26.22,-10.281 l -437.28,0" />
  <path
     d="m 108.5512,57.305 c -7.963,0 -15.11,2.403 -20.572,6.33 -4.545,3.266 -7.702,7.931 -8.703,13.187 l -12.13,0 c -17.677,0 -29.802,12.771 -29.802,30.661 l 0,3.956 c 0,-16.17 13.355,-29.27 29.802,-29.27 l 14.286,0 c 1,-5.256 2,-9.657 6.549,-12.923 5.465,-3.927 12.609,-6.33 20.572,-6.33 l 43.78,0 c 7.963,0 15.371,2.403 20.835,6.33 4.545,3.266 5.766,7.668 6.769,12.923 l 264.88,0 c 16.447,0 29.802,11.455 29.802,27.625 l 0,-3.956 c 0,-16.17 -13.355,-29.01 -29.802,-29.01 l -262.95,0 c -1,-5.256 -4.159,-9.921 -8.703,-13.187 -5.465,-3.927 -12.872,-6.33 -20.835,-6.33 z"
     style="opacity:0.76399997;fill:#ffffff;fill-rule:evenodd"
     id="path123" />
  <path
     d="m 37.3512,118.465 c -19.928,0 -38.05,15.84 -36.22,35.875 l 0.406,4.375 c 3,-15.936 18.732,-27.563 35.813,-27.563 l 437.28,0 c 9.966,0 19.386,3.882 26.22,10.281 4.736,4.435 8.234,10.208 9.563,16.688 l 0.406,-3.688 c 1.123,-10.05 -3.134,-19.288 -9.969,-25.688 -6.833,-6.399 -16.252,-10.281 -26.22,-10.281 l -437.28,0"
     style="opacity:0.4;fill:#ffffff;fill-rule:evenodd"
     id="path125" />
  <path
     id="path361"
     style="opacity:0.25"
     d="m 316.1712,161.595 c -2.365,0.022 -4.105,0.148 -5.387,0.418 -1.709,0.36 -2.607,0.974 -3.139,1.93 -0.953,1.713 -0.347,3.223 2.736,6.307 l 2.02,2.02 c 1.498,1.587 2.155,2.761 2.723,4.818 0.454,1.644 1,3.923 1.551,6.311 l -16.764,-16.764 c -1.956,-1.956 -5.495,-1.594 -13.199,-0.055 -0.902,0.18 -1.857,0.379 -2.877,0.59 -9.557,1.973 -11.294,2.499 -12.355,3.652 -1.744,1.894 -1.446,3.302 1.363,6.24 2.911,3.044 4.136,6.128 5.557,14.07 0.563,3.147 2.509,12.803 4.363,21.664 l -24.984,-24.984 c -1.42,-1.42 -2.996,-2.778 -4.766,-4.133 -6.067,-4.644 -13.391,-7.15 -19.715,-6.754 -0.279,0.017 -0.565,0.059 -0.836,0.125 -1.896,0.463 -3.503,2.023 -3.396,3.484 0.041,0.565 1.476,2.578 3.174,4.477 2.485,2.778 3.291,4.201 4.174,7.258 0.426,1.474 0.831,3.197 1.068,4.492 l -15.883,-15.883 c -0.555,-0.555 -1.388,-0.895 -2.498,-1.021 -0.484,-0.055 -1.012,-0.018 -1.578,0.09 -5.474,1.044 -14.314,9.305 -17.859,17.11 -0.763,1.678 -1.406,3.438 -1.938,5.262 l -12.955,-12.955 c -1.188,-1.188 -2.733,-1.403 -5.082,-1.232 -0.753,0.055 -1.461,0.167 -2.123,0.32 -4.637,1.074 -6.908,4.388 -4.826,7.682 0.408,0.646 2.04,2.546 3.641,4.209 2.042,2.121 3.397,4.2 4.516,6.977 0.932,2.314 2.183,4.4 3.301,5.518 l 12.508,12.508 c 0.015,0.09 0.028,0.181 0.043,0.271 l -31.916,-31.916 -0.016,-0.016 c -1.466,-1.401 -4.851,-1.468 -11.836,-0.246 -0.993,0.174 -1.892,0.345 -2.715,0.504 -5.759,1.109 -7.63,1.943 -9.258,3.826 -1.382,1.598 -1.476,2.041 -1.068,4.684 0.087,0.562 0.636,3.365 1.053,5.521 l -7.889,-7.889 c -1.289,-1.289 -4.115,-1.627 -6.887,-1.17 -2.385,0.394 -4.726,1.379 -6.01,2.859 -1.508,1.744 -1.419,4.066 0.488,13.232 1.277,6.138 2.529,9.774 3.828,11.07 l 25.27,25.27 c 0.009,0.035 0.05,0.229 0.057,0.25 0.201,0.649 0.943,4.01 1.652,7.457 1.421,6.904 1.295,10.239 -0.479,12.865 -1.216,1.8 -1.151,3.652 0.162,4.965 l 34.801,34.801 c -2.157,3.848 -3.587,8.108 -4.373,12.951 l -17.06,-17.06 c -0.129,-0.129 -0.267,-0.257 -0.416,-0.389 -1.802,-1.594 -2.688,-1.79 -8.393,-0.605 -0.815,0.169 -1.725,0.358 -2.754,0.584 -9.13,2 -9.943,2.465 -9.723,5.51 0.054,0.74 0.276,1.327 0.783,1.834 l 41.764,41.764 c 0.385,0.881 0.8,1.798 1.264,2.781 0.988,2.095 2.131,4.058 3.457,5.961 l -31.27,-31.26 c -0.364,-0.364 -0.742,-0.572 -1.133,-0.615 -0.206,-0.023 -0.416,-0.025 -0.625,0.012 -0.62,0.11 -1.239,0.481 -1.789,1.016 L 134.9502,313.4 c -0.046,-0.046 -0.091,-0.09 -0.137,-0.133 l -1.748,-1.633 -4.611,0.709 c -2.764,0.419 -5.978,0.972 -8.998,1.553 -5.03,0.97 -9.57,1.997 -10.805,2.494 -3.061,1.231 -3.205,4.633 -0.605,7.232 l 2.717,2.717 c 1.206,1.84 2.102,4.632 2.77,8.602 0.384,2.287 1.207,6.604 2.143,11.412 l -24.414,-24.414 c -0.336,-0.336 -0.725,-0.604 -1.125,-0.764 -1.294,-0.515 -1.921,-0.404 -4.299,0.738 -3.207,1.541 -4.895,1.734 -9.82,1.191 -1.908,-0.21 -3.346,-0.204 -4.406,0.008 -1.364,0.272 -2.079,0.907 -2.26,1.939 -0.191,1.091 0.019,1.937 0.795,2.713 l 52.49,52.49 c 0.448,2.254 0.706,3.914 0.734,5.193 l -24.291,-24.291 c -2.462,-2.462 -5.456,-4.462 -9.273,-6.127 l -27.992,-27.992 c -0.075,-0.075 -0.154,-0.15 -0.24,-0.225 -1.11,-0.96 -2.254,-1.267 -3.951,-0.887 -1.018,0.228 -2.241,0.711 -3.771,1.443 -3.398,1.626 -4.552,2.622 -8.941,7.705 -5.892,6.823 -6.598,8.731 -6.406,17.428 0.103,4.721 0.299,5.715 1.5,7.791 2.01,3.473 4.184,6.401 6.654,8.871 l 85.53,85.53 312.8,0 c 19.933,0 34.09,-16.04 36.19,-34.844 l 13.648,-122.11 -46.42,-46.42 c -0.5,-0.5 -1.138,-0.753 -2.078,-1.154 -2.489,-1.064 -4.215,-1.106 -12.09,0.395 -1.124,0.217 -2.383,0.468 -3.779,0.746 -3.974,0.792 -5.104,1.245 -6.17,2.479 -0.391,0.452 -0.679,0.869 -0.865,1.41 l -86.46,-86.46 c -1.035,-1.035 -2.208,-1.995 -3.527,-2.896 -4.583,-3.132 -8.04,-4.125 -14.697,-4.227 -0.934,-0.014 -1.792,-0.019 -2.58,-0.012 m 147.11,83.36 c -0.754,0.015 -1.519,0.097 -2.264,0.242 -2.344,0.457 -4.484,1.533 -5.436,3.125 -1.354,2.266 -0.819,3.632 2.979,7.648 2.362,2.498 4.11,5.01 5.04,7.182 1.453,3.404 2.691,5.565 3.881,6.754 l 27.398,27.398 1.586,-14.184 0.895,-8.01 -28.334,-28.334 -0.059,-0.061 c -1.25,-1.25 -3.42,-1.804 -5.684,-1.758 m -413.18,138.76 c -0.734,0.105 -1.498,0.637 -2.326,1.594 -1.572,1.817 -1.501,3.658 0.494,13.268 1.713,8.248 2.364,10.491 3.645,11.771 l 44.34,44.34 27.506,0 -50.555,-50.555 c -0.814,-0.814 -2.089,-1.592 -3.857,-2.379 l -17.1,-17.1 c -0.737,-0.737 -1.435,-1.048 -2.152,-0.945" />
  <path
     id="path363"
     style="fill:#ffffff"
     d="m 286.7112,166.575 c -0.902,0.18 -1.858,0.38 -2.878,0.59 -9.557,1.973 -11.294,2.498 -12.356,3.652 -1.744,1.894 -1.446,3.302 1.363,6.24 2.911,3.044 4.137,6.129 5.558,14.07 0.576,3.218 2.591,13.226 4.482,22.246 1.891,9.02 3.763,18.832 4.164,21.805 0.688,5.094 0.646,5.569 -0.56,8.348 -0.704,1.622 -1.246,3.412 -1.205,3.976 0.119,1.641 1.526,2.885 3.651,3.238 2.149,0.357 3.03,0.248 11.703,-1.645 3.208,-0.7 8.03,-1.686 10.703,-2.187 5.455,-1.024 7.919,-2.265 8.704,-4.382 0.449,-1.212 0.318,-1.678 -0.807,-2.89 -4.513,-4.859 -5.36,-6.767 -6.866,-15.463 -0.553,-3.193 -2.727,-14.189 -4.832,-24.435 -2.105,-10.246 -4.267,-21.14 -4.789,-24.21 -1.825,-10.725 -2.511,-11.652 -16.04,-8.949 m -54.25,10.467 c -1.896,0.463 -3.501,2.023 -3.395,3.484 0.041,0.565 1.475,2.578 3.173,4.476 2.485,2.778 3.292,4.201 4.174,7.257 0.603,2.089 1.182,4.722 1.269,5.846 0.202,2.619 6.815,34.97 8.325,40.709 1.758,6.683 1.8,9.541 0.15,13.801 -1.624,4.194 -1.678,6.126 -0.204,6.847 4.03,1.971 11.762,-3.275 19.396,-13.14 4.699,-6.073 5.359,-7.379 6.02,-11.89 0.722,-4.911 -1.211,-22.484 -3.101,-28.19 -3.556,-10.737 -7.576,-16.691 -15.257,-22.571 -6.067,-4.644 -13.392,-7.15 -19.716,-6.754 -0.279,0.017 -0.565,0.059 -0.836,0.125 m -14.938,2.895 c -5.474,1.044 -14.315,9.306 -17.861,17.11 -3.739,8.227 -4.714,18.309 -2.816,29.19 1.851,10.604 4.472,16.412 10.817,23.981 4.933,5.884 10.745,9.625 18.17,11.655 4.586,1.254 9.807,1.093 11.04,-0.335 1.53,-1.769 0.808,-3.96 -2.371,-7.103 -3.394,-3.355 -4.07,-4.993 -5.531,-13.463 -2.567,-14.88 -6.735,-36.01 -8.117,-41.21 -1.507,-5.67 -1.448,-8.356 0.219,-11.883 2.319,-4.908 1.645,-7.61 -1.975,-8.02 -0.484,-0.055 -1.01,-0.019 -1.577,0.089 m 93.26,-17.928 c -1.709,0.36 -2.608,0.974 -3.139,1.93 -1.042,1.873 -0.22,3.504 3.664,7.212 2.361,2.254 3.118,3.417 3.811,5.93 1.307,4.736 3.402,14.336 4.056,18.548 0.566,3.642 0.519,3.86 -1.463,7.752 -2.192,4.303 -2.431,6.765 -0.77,7.905 1.94,1.333 9.421,-0.339 15.15,-3.383 6.614,-7.263 6.461,-5.27 10.385,-12.677 0.835,-2.251 1.034,-4.233 0.891,-8.86 -0.305,-9.902 -3.227,-15.961 -9.921,-20.535 -4.583,-3.132 -8.04,-4.126 -14.697,-4.227 -3.736,-0.057 -6.256,0.046 -7.965,0.406 m -133.22,26.43 c -4.637,1.074 -6.908,4.39 -4.826,7.683 0.408,0.646 2.04,2.544 3.641,4.207 2.042,2.121 3.396,4.2 4.515,6.977 0.982,2.438 2.317,4.623 3.478,5.689 2.173,1.996 3.696,2.1 5.079,0.329 1.192,-1.528 0.951,-4.889 -0.993,-13.71 -2.272,-10.311 -3.471,-11.88 -8.771,-11.495 -0.753,0.055 -1.461,0.166 -2.124,0.32 m -27.3,5.491 c -5.759,1.109 -7.631,1.943 -9.259,3.826 -1.382,1.598 -1.476,2.041 -1.068,4.684 0.566,3.665 9.418,47.543 9.914,49.14 0.201,0.649 0.942,4.01 1.651,7.457 1.421,6.904 1.296,10.239 -0.478,12.865 -1.282,1.898 -1.14,3.853 0.387,5.174 1.652,1.428 4.658,1.129 18.11,-1.841 10.895,-2.405 11.04,-2.432 12.192,-1.435 1.084,0.937 1.283,0.937 2.78,0.02 2.32,-1.421 2.037,-4.435 -0.702,-7.55 -4.867,-5.535 -4.945,-5.709 -7,-16.996 -0.809,-4.442 -3.605,-18.55 -6.218,-31.352 -3.66,-17.934 -4.98,-23.506 -5.765,-24.26 -1.466,-1.401 -4.849,-1.468 -11.835,-0.246 -0.993,0.174 -1.892,0.347 -2.715,0.505 m -24.05,4.973 c -2.385,0.394 -4.726,1.378 -6.01,2.859 -1.508,1.744 -1.418,4.067 0.489,13.234 1.457,7 2.881,10.747 4.379,11.481 1.463,0.717 2.279,0.534 3.4,-0.762 1.198,-1.385 1.745,-4.107 1.881,-9.301 0.071,-2.73 0.621,-5.086 1.975,-8.442 1.984,-4.92 2.129,-5.867 1.126,-7.454 -1.044,-1.651 -4.177,-2.12 -7.244,-1.614 m 334.8,46.29 c -2.344,0.457 -4.484,1.533 -5.435,3.125 -1.354,2.266 -0.82,3.633 2.978,7.649 2.362,2.498 4.11,5.01 5.04,7.181 1.99,4.663 3.579,6.993 5.189,7.689 1.934,0.835 2.615,0.7 3.883,-0.766 0.985,-1.139 1.044,-1.714 0.51,-5.257 -1.06,-7.04 -3.423,-17.281 -4.156,-18.04 -1.647,-1.716 -4.992,-2.161 -8.01,-1.575 m -26.771,5.353 c -1.124,0.217 -2.384,0.468 -3.779,0.746 -3.974,0.792 -5.102,1.245 -6.169,2.478 -1.635,1.891 -1.565,3.106 0.908,15.876 5.54,28.603 7.359,37.582 8.772,43.31 2.171,8.798 2.219,10.664 0.406,14.755 -1.696,3.825 -1.465,5.973 0.711,6.67 1.681,0.539 7.372,0.133 10.514,-0.753 1.369,-0.386 5.945,-1.36 10.172,-2.156 7.995,-1.506 9.998,-2.166 11.543,-3.782 1.519,-1.589 0.918,-3.537 -2.03,-6.631 -1.508,-1.583 -3.066,-3.811 -3.46,-4.941 -0.688,-1.975 -2.602,-11.956 -4.544,-23.685 -0.508,-3.067 -1.701,-9.341 -2.647,-13.929 -0.946,-4.587 -2.36,-11.721 -3.161,-15.854 -2.222,-11.458 -2.12,-11.203 -5.148,-12.498 -2.489,-1.064 -4.214,-1.107 -12.09,0.393 m -25.04,5.055 c -2.382,0.435 -4.717,1.564 -5.961,3.28 -1.637,2.259 -1.555,3.285 0.917,13.223 2.489,10.01 2.701,10.621 3.857,11.188 1.239,0.611 1.645,0.574 2.896,-0.217 1.541,-0.974 1.928,-2.238 2.261,-7.511 0.192,-3.03 0.997,-6.964 2.184,-10.703 1.616,-5.09 1.767,-6.111 1.121,-7.292 -1.061,-1.943 -4.212,-2.525 -7.276,-1.966 m -30.01,6.05 c -2.352,0.444 -4.48,0.938 -5.495,1.327 -1.662,0.638 -3.579,2.762 -3.498,3.88 0.102,1.406 2.416,2.996 5.946,4.086 5.757,1.777 11.09,5.02 11.222,6.831 0.024,0.327 1.13,1.577 2.471,2.784 2.611,2.351 4.539,2.693 5.954,1.057 1.029,-1.19 0.844,-3.834 -0.849,-12.04 -1.474,-7.139 -2.435,-8.554 -6.107,-9.106 -1.17,-0.176 -5.725,0.436 -9.644,1.177 m -35.429,7.093 c -4.328,0.889 -8,1.904 -9.06,2.713 -2.153,1.645 -1.637,4.235 1.353,6.744 2.919,2.45 3.256,3.554 7.453,25.02 1.526,7.805 3.546,17.55 4.479,21.673 0.933,4.123 1.983,9.665 2.334,12.305 0.594,4.47 0.544,4.976 -0.666,7.24 -1.387,2.597 -1.52,5.884 -0.276,6.753 0.409,0.285 1.247,0.607 1.875,0.714 0.629,0.107 1.267,0.209 1.423,0.227 0.157,0.019 1.915,-0.32 3.9,-0.769 1.985,-0.449 6.246,-1.273 9.466,-1.823 7,-1.197 9.227,-2.01 11.131,-4.061 1.948,-2.102 2.059,-4.224 0.58,-10.663 -1.497,-6.519 -8.255,-39.16 -11.04,-53.32 -2.048,-10.413 -3.206,-13.806 -4.998,-14.604 -1.709,-0.761 -10.739,0.364 -17.952,1.846 m -77.02,15.373 c -3.608,0.706 -7.59,1.584 -10.715,2.404 -5.642,1.481 -6.349,4.438 -2.058,8.565 2.828,2.721 3.741,4.86 4.823,11.181 0.992,5.794 5.762,29.697 7.661,38.38 2.351,10.748 2.455,12.751 0.87,16.331 -1.445,3.263 -1.482,5.513 -0.106,6.702 1.131,0.978 6.978,0.707 11.557,-0.542 1.64,-0.447 6.119,-1.401 9.947,-2.113 8.593,-1.599 10.869,-2.408 11.912,-4.283 1,-1.8 0.474,-2.942 -2.966,-6.379 -2.728,-2.726 -2.17,-0.706 -6.667,-23.921 -3.916,-20.22 -8.366,-41.583 -9.09,-43.661 -1.186,-3.401 -2.666,-4.303 -6.65,-4.02 -1.67,0.118 -4.909,0.648 -8.517,1.354 m -62.31,12.06 c -2.192,0.435 -7.687,3.243 -9.942,5.211 -7.638,6.667 -11.733,14.377 -13.11,24.684 -0.624,4.681 -0.591,6.852 0.134,13.159 0.975,8.488 2.079,12.449 5.555,19.818 2.39,5.067 5.633,9.389 10.389,13.853 2.93,2.75 10.21,5.845 15.687,6.67 4.931,0.742 8.826,0.138 10.02,-1.571 1.465,-2.104 0.999,-3.332 -2.489,-6.507 -1.793,-1.632 -3.756,-3.946 -4.359,-5.144 -0.603,-1.198 -1.738,-5.82 -2.532,-10.261 -0.793,-4.441 -1.563,-8.166 -1.704,-8.288 -0.141,-0.122 0.13,-0.705 0.592,-1.296 0.777,-0.994 0.686,-1.851 -1.165,-11.258 -1.101,-5.596 -2.245,-10.398 -2.539,-10.671 -0.294,-0.274 -0.585,-1.196 -0.648,-2.061 -0.065,-0.902 -0.419,-1.554 -0.831,-1.524 -0.463,0.034 -1.07,-1.481 -1.715,-4.256 -1.644,-7.07 -1.575,-8.336 0.674,-12.311 2.724,-4.814 2.329,-7.276 -1.307,-8.275 -0.16,-0.044 -0.398,-0.033 -0.711,0.029 m 88.7,-16.763 c -3.589,0.659 -5.09,1.819 -5.17,3.755 -0.075,1.785 0.981,3.351 4.376,6.538 1.273,1.195 2.619,2.84 2.996,3.651 1.184,2.544 4.14,16.982 3.904,19.06 -0.124,1.087 -1.09,3.492 -2.16,5.342 -1.07,1.85 -1.911,3.899 -1.864,4.551 0.095,1.332 2.859,4.605 5.617,6.657 2.043,1.52 2.612,3.01 4.534,12.01 0.687,3.216 1.723,7.145 2.311,8.745 1.886,5.127 7,8.703 13.33,9.309 5.05,0.484 11.49,-1.388 14.807,-4.321 2.54,-2.246 5.768,-7.772 5.633,-9.63 -0.147,-2.027 -1.271,-2.933 -4.71,-3.804 -4.057,-1.028 -4.723,-1.905 -6.117,-8.137 -1.257,-5.62 -2.405,-7.612 -5.943,-10.302 -1.49,-1.133 -1.797,-1.276 -6.65,-3.09 -2.367,-0.885 -2.777,-1.266 -2.879,-2.67 -0.119,-1.642 0.168,-2.081 3.715,-5.731 2.991,-3.079 4.511,-7.285 4.448,-12.34 -0.17,-13.695 -9.895,-21.255 -25.869,-20.1 -1.685,0.123 -3.113,0.288 -4.309,0.508 m -58.6,11.502 c -0.653,0.183 -1.521,0.712 -3.124,1.73 l -3.365,2.153 -4.726,-0.541 c -3.226,-0.371 -5.154,-0.351 -6.076,0.077 -3.132,1.458 -1.904,4.4 2.778,6.612 5.566,2.63 10.962,7.699 14.15,13.307 1.527,2.683 3.209,5.296 3.733,5.802 1.354,1.305 3.903,0.968 4.859,-0.631 1.05,-1.758 0.725,-5.642 -1.383,-16.02 -1.898,-9.337 -2.595,-11.03 -4.992,-12.151 -0.763,-0.357 -1.204,-0.524 -1.857,-0.341 m -78.8,15.66 c -0.815,0.169 -1.725,0.359 -2.754,0.584 -9.13,2 -9.944,2.465 -9.723,5.509 0.144,1.98 1.493,2.856 6.284,4.074 1.963,0.499 4.281,1.47 5.146,2.162 0.864,0.692 2.096,1.494 2.744,1.782 0.648,0.289 2.144,1.826 3.326,3.408 1.181,1.582 2.741,3.235 3.465,3.668 1.716,1.026 2.955,0.895 3.918,-0.396 1.374,-1.842 1.3,-3.695 -0.5,-11.243 -1.572,-6.591 -1.953,-7.562 -3.514,-8.943 -1.802,-1.594 -2.688,-1.789 -8.393,-0.605 m -84.13,16.526 c -1.364,0.272 -2.079,0.907 -2.26,1.94 -0.375,2.139 0.791,3.338 4.743,4.908 5.904,2.346 14.12,9.566 14.338,12.591 0.033,0.46 0.656,1.379 1.379,2.045 2.352,2.165 5.781,1.032 6.166,-2.029 0.207,-1.649 -2.465,-15.189 -3.776,-19.14 -0.325,-0.98 -1.164,-1.895 -2.064,-2.254 -1.294,-0.515 -1.922,-0.404 -4.3,0.739 -3.207,1.541 -4.895,1.736 -9.82,1.193 -1.908,-0.21 -3.345,-0.205 -4.406,0.007 m 47.846,-9.216 c -5.03,0.97 -9.571,1.996 -10.806,2.493 -3.431,1.38 -3.198,5.487 0.456,8.135 2.094,1.517 3.482,4.807 4.424,10.416 1.178,7.01 5.962,30.946 8.105,40.59 2.234,10.06 2.265,11.23 0.403,15.11 -1.361,2.838 -1.353,4.225 0.03,5.924 0.987,1.212 1.207,1.219 6.103,0.526 8.458,-1.197 17.818,-3.189 19.908,-4.247 1.096,-0.554 2.292,-1.733 2.679,-2.648 0.85,-2.01 0.615,-3.419 -5.962,-36.721 -2.599,-13.159 -4.994,-25.551 -5.341,-27.544 -1.14,-6.552 -2.751,-10.914 -4.643,-12.666 l -1.748,-1.634 -4.611,0.709 c -2.764,0.419 -5.978,0.973 -8.998,1.554 m -61.831,12.03 c -1.018,0.228 -2.24,0.711 -3.771,1.443 -3.398,1.626 -4.552,2.622 -8.942,7.705 -5.892,6.823 -6.598,8.731 -6.406,17.428 0.103,4.721 0.3,5.714 1.5,7.79 6.503,11.242 14.747,16.777 29.11,19.544 11.314,2.179 15.363,4.122 17.686,8.488 1.599,3.01 1.364,4.47 -1.379,8.649 -3.896,5.936 -4.164,7.414 -1.648,9.113 l 1.528,1.049 3.652,-1.689 c 9.98,-4.594 16.387,-13.425 17.57,-24.2 0.734,-6.682 -1.993,-14.358 -6.964,-19.6 -4.948,-5.218 -12.1,-8.421 -23.997,-10.748 -7.402,-1.447 -14.03,-3.999 -15.558,-5.996 -0.582,-0.762 -1.241,-2.681 -1.484,-4.264 -0.408,-2.661 -0.275,-3.203 1.844,-6.983 2.47,-4.407 2.677,-5.572 1.208,-6.843 -1.11,-0.96 -2.253,-1.268 -3.951,-0.887 m 326.77,-38.486 c -0.924,0.224 -1.742,0.684 -1.919,1.104 -3.856,9.165 -5.68,14.628 -5.277,15.849 0.251,0.76 2.129,2.896 4.172,4.732 2.043,1.837 4.575,4.203 5.617,5.26 2.043,2.073 3.199,2.316 4.42,0.904 1.33,-1.538 1.331,-4.202 -0.005,-10.07 -0.709,-3.114 -1.711,-7.789 -2.234,-10.39 -0.523,-2.601 -1.284,-5.409 -1.687,-6.249 -0.635,-1.324 -0.994,-1.49 -2.689,-1.22 -0.135,0.02 -0.265,0.045 -0.397,0.077 m -226.89,45.707 c -1.467,0.26 -2.954,1.925 -3.444,3.977 -0.285,1.196 -1.385,3.761 -2.431,5.699 -3.276,6.068 -2.927,7.751 2.409,11.95 1.589,1.25 3.645,3.249 4.581,4.438 0.936,1.189 2.296,2.28 3.01,2.412 3.351,0.623 4.17,-1.972 2.692,-8.436 -0.559,-2.446 -1.424,-7.03 -1.928,-10.198 -0.978,-6.134 -2.504,-9.66 -4.263,-9.856 -0.206,-0.023 -0.415,-0.024 -0.625,0.013 m -107.42,50.569 c -0.734,0.105 -1.499,0.637 -2.326,1.595 -1.572,1.817 -1.5,3.659 0.496,13.268 1.879,9.05 2.481,10.869 4.04,12.12 1.633,1.314 2.748,1.216 6.07,-0.505 1.955,-1.014 3.319,-1.346 5.101,-1.233 1.336,0.085 4.142,0.199 6.229,0.251 3.732,0.093 3.795,0.067 4.371,-1.487 0.861,-2.322 -0.577,-4.13 -4.753,-5.981 -5.691,-2.524 -11.05,-7.694 -15.422,-14.872 -1.403,-2.304 -2.573,-3.331 -3.797,-3.156 m 351.92,-65.53 c -1.904,0.34 -3.199,2.166 -4.22,5.9 -0.711,2.6 -3.319,7.343 -4.977,9.04 -0.589,0.602 -2.335,2.068 -3.87,3.253 -4.188,3.234 -4.934,6.263 -1.861,7.542 1.766,0.736 2.946,0.681 7.755,-0.383 2.045,-0.453 5.413,-1.105 7.479,-1.441 4.516,-0.733 5.901,-1.84 6.249,-5.04 0.332,-3.052 -1.894,-14.789 -3.258,-17.197 -0.884,-1.561 -1.341,-1.828 -2.91,-1.715 -0.132,0.009 -0.26,0.016 -0.387,0.039 m -227.74,45.39 c -1.496,0.344 -2.479,1.727 -3.261,4.462 -1.883,6.588 -3.172,8.526 -9.701,14.551 -3.43,3.165 -3.987,5.588 -1.634,7.05 1.477,0.92 2.527,0.803 13.834,-1.464 8.361,-1.676 8.596,-2.238 6.259,-14.659 -1.545,-8.209 -2.092,-9.64 -3.814,-9.942 -0.624,-0.109 -1.185,-0.113 -1.684,0.002 m 73.32,-12.726 c -1.459,0.181 -2.89,2.342 -4.776,6.921 -2.077,5.04 -3.99,7.678 -7.477,10.289 -1.44,1.079 -2.964,2.597 -3.398,3.377 -1.042,1.874 -0.835,4.075 0.439,4.698 1.613,0.789 2.473,0.557 6.146,-1.667 4.269,-2.586 8.231,-7.407 10.318,-12.557 2,-4.938 2.306,-8.7 0.807,-10.133 -0.726,-0.694 -1.397,-1.011 -2.06,-0.929" />
  <path
     style="opacity:1;fill:#edd400;fill-opacity:1;stroke:#fce94f;stroke-width:2.16949153"
     d="M 52.869044,452.58312 C 44.213474,450.52249 33.521718,440.97512 29.589448,431.79524 27.923946,427.90712 21.62286,369.24553 14.44667,290.81964 2.4674972,159.90374 2.2537242,156.32218 6.0033287,149.35959 c 2.1158528,-3.9289 7.3418663,-9.317 11.6133633,-11.97356 l 7.766359,-4.8301 225.627119,-0.6496 c 152.89478,-0.4402 228.15499,0.084 233.46896,1.6262 9.68763,2.81146 18.40931,9.49354 22.358,17.12948 2.60912,5.04547 2.21483,12.76916 -3.06365,60.01183 -3.33199,29.82159 -6.67815,61.05497 -7.43593,69.40752 -0.75776,8.35254 -1.75729,18.11525 -2.22119,21.69491 -0.46388,3.57966 -1.46224,12.3661 -2.21856,19.52542 -0.75633,7.15933 -1.77753,16.4339 -2.26934,20.61017 -0.4918,4.17628 -1.47347,12.96272 -2.18149,19.52543 -0.70801,6.56271 -1.63501,14.86102 -2.05999,18.44068 -0.42498,3.57966 -1.39036,11.87796 -2.14526,18.44067 -2.52403,21.94224 -3.61309,28.61241 -5.46844,33.49233 -2.29398,6.03364 -14.46986,18.38649 -20.49486,20.79276 -5.75523,2.29853 -394.751147,2.2787 -404.409376,-0.0217 z M 69.044068,409.1661 c 7.62995,0 6.188743,-4.18816 -5.526693,-16.06059 -7.533264,-7.63423 -11.55663,-10.22996 -14.252761,-9.19535 -3.136373,1.20355 -3.508612,3.09498 -2.254707,11.45661 2.317175,15.45203 3.081266,16.5594 10.414171,15.09283 3.557096,-0.71142 8.786091,-1.2935 11.61999,-1.2935 z m 21.02398,-4.61008 c 14.243552,-7.3359 20.373672,-23.21061 13.817492,-35.78214 -3.21243,-6.15986 -40.754998,-44.21795 -43.618998,-44.21795 -4.579066,0 -14.467415,7.39512 -18.402855,13.7628 -6.230771,10.08161 -5.811441,19.11515 1.278427,27.54098 6.121075,7.2745 21.536831,15.103 29.740531,15.103 8.874172,0 18.231593,12.51962 12.161423,16.27119 -2.268349,1.40192 -3.075183,9.76271 -0.942121,9.76271 0.675054,0 3.3598,-1.09826 5.966101,-2.44059 z m 51.783682,-9.41716 c 9.55709,-1.55743 10.66374,-5.25674 6.8368,-22.85411 -1.4272,-6.56272 -3.13373,-15.34916 -3.79227,-19.52543 -1.34846,-8.55147 -2.0924,-12.51871 -4.67852,-24.94915 -0.99299,-4.77288 -1.87552,-10.14237 -1.96118,-11.9322 -0.12178,-2.54432 -2.84597,-3.16364 -12.48764,-2.83893 -6.78253,0.22842 -14.39355,1.51868 -16.91336,2.86724 -4.2716,2.2861 -4.35408,2.79899 -1.2195,7.58297 3.35945,5.12717 7.11415,18.93805 11.15183,41.01969 0.63618,3.47926 1.67212,7.15987 2.30208,8.17918 0.62996,1.01929 1.14538,7.26539 1.14538,13.88023 0,11.86428 0.0786,12.01241 5.81114,10.9501 3.19613,-0.59227 9.40849,-1.66309 13.80524,-2.37959 z m 37.97864,-10.22134 c 1.4206,-1.1564 2.18102,-3.25152 1.68983,-4.65579 -0.49118,-1.40429 -1.3665,-5.35778 -1.94513,-8.78553 -0.57864,-3.42778 -1.54103,-6.72126 -2.13865,-7.31887 -2.17969,-2.17971 -7.78218,1.58455 -7.78218,5.22876 0,2.06028 -2.5675,6.42586 -5.70554,9.70127 -8.12163,8.47716 -5.81007,13.14836 5.04092,10.18663 4.54181,-1.23965 9.42015,-3.20006 10.84075,-4.35647 z m 42.84216,-7.20905 c -0.0738,-1.19322 -2.1622,-6.56271 -4.6408,-11.9322 -2.47862,-5.36949 -5.07704,-16.10847 -5.77426,-23.86441 -0.69721,-7.75593 -2.65479,-17.9706 -4.35017,-22.69927 -2.08101,-5.80424 -2.44712,-10.26878 -1.12684,-13.74137 2.21439,-5.82429 0.93125,-9.11868 -3.55165,-9.11868 -5.304,0 -18.02018,12.92163 -20.69646,21.03084 -2.5101,7.6057 -1.80884,25.52946 1.34165,34.2912 0.8581,2.38644 -7.32923,-4.39667 -18.19406,-15.07359 -10.86483,-10.67691 -19.38029,-19.78652 -18.92324,-20.24357 1.46506,-1.46506 10.84879,4.22091 14.46426,8.76445 4.95093,6.22181 9.08366,2.95304 7.14818,-5.65383 -0.84652,-3.76437 -1.55453,-8.05051 -1.57334,-9.52474 -0.0473,-3.70396 -6.41515,-5.37634 -13.77062,-3.61654 -8.38207,2.00541 -11.56939,4.87024 -9.99195,8.98097 0.97034,2.52868 0.50082,2.98111 -1.75607,1.69213 -1.69431,-0.96767 0.58047,2.08622 5.05504,6.78642 9.1985,9.66231 9.36022,10.30227 4.80887,19.02991 -3.15068,6.04171 -3.03354,6.60617 2.58875,12.47458 9.40474,9.81643 12.00879,8.25318 10.54133,-6.32806 l -1.25544,-12.47457 17.96333,18.74787 c 9.87983,10.31131 20.78056,20.17072 24.22384,21.90979 7.01551,3.54325 17.67534,3.8866 17.46965,0.56267 z m 18.12372,-4.48407 c 5.26327,-3.68653 12.01238,-17.5551 10.07147,-20.69554 -2.01144,-3.25459 -4.91487,-2.17221 -6.35641,2.36965 -0.75212,2.36977 -4.29916,7.24033 -7.88229,10.82344 -8.93531,8.93531 -5.83847,14.51071 4.16723,7.50245 z m 53.06138,-9.35429 c 6.16077,-2.4013 7.62031,-6.41928 3.74102,-10.29857 -1.22378,-1.22379 -4.69927,-14.84278 -7.72325,-30.26441 -3.02402,-15.42163 -5.98741,-30.45922 -6.5853,-33.41685 -1.24412,-6.15426 -4.78562,-9.03175 -9.50027,-7.71904 -1.78983,0.49835 -7.40339,1.9781 -12.47458,3.28834 -10.07798,2.60382 -10.79573,4.11615 -6.04068,12.72772 4.95123,8.96683 12.64546,51.87652 11.06941,61.7326 l -1.3673,8.55062 11.45741,-1.13749 c 6.3016,-0.62561 14.14218,-2.18392 17.42354,-3.46292 z m 41.86131,-9.92744 c 6.40668,-6.40666 6.82279,-11.26307 1.12018,-13.07301 -2.31273,-0.73403 -5.31971,-4.7124 -6.68221,-8.84082 -1.36251,-4.12842 -4.10756,-8.4423 -6.10016,-9.5864 -9.75989,-5.60397 -9.87435,-5.85739 -5.00618,-11.08275 7.9483,-8.53151 4.90083,-25.2307 -5.46645,-29.95435 -7.6482,-3.48475 -22.32047,-3.0708 -23.75604,0.67024 -0.64983,1.69343 0.45492,5.57648 2.455,8.62899 5.46499,8.34062 7.48101,19.99387 4.72304,27.30057 -1.95777,5.18673 -1.73385,7.0591 1.23679,10.34161 1.99504,2.20451 5.29939,9.18535 7.34299,15.51298 2.3742,7.35131 5.33354,12.15973 8.19707,13.31891 8.44089,3.41695 16.46707,2.23293 21.93597,-3.23597 z m 27.45563,-3.60624 c 13.28881,-2.80059 16.87333,-5.08811 15.97024,-10.19159 -0.92509,-5.22791 -3.98896,-20.6167 -4.61549,-23.18213 -0.87973,-3.60227 -2.71036,-12.21482 -5.99482,-28.20339 -4.77113,-23.22577 -4.80395,-23.27077 -15.87346,-21.76955 -18.0678,2.4503 -23.81555,6.38422 -17.26765,11.81849 1.66502,1.38184 3.77433,6.13867 4.68738,10.57073 0.91303,4.43206 1.8985,9.03457 2.18991,10.22779 0.29138,1.19322 1.02634,4.61017 1.63323,7.59322 0.60688,2.98305 2.04829,9.51875 3.20313,14.52378 1.15484,5.00504 1.86428,13.30334 1.57655,18.44068 -0.49109,8.76788 0.16049,12.59486 2.14445,12.59486 0.46744,0 6.0234,-1.0903 12.34653,-2.42289 z M 95.891525,340.06611 c 0,-3.4016 -1.061206,-9.22891 -2.358235,-12.94957 -2.288453,-6.56466 -2.657588,-6.72642 -12.474576,-5.46624 -13.152417,1.68833 -15.325286,3.9456 -7.653756,7.95106 3.418459,1.78484 9.082778,6.26114 12.587375,9.94733 7.89814,8.30739 9.899192,8.41198 9.899192,0.51742 z m 310.779665,1.956 c 4.20994,-0.28525 -0.16556,-23.97465 -4.42817,-23.97465 -1.00303,0 -3.94718,3.7782 -6.54252,8.39601 -2.59536,4.61781 -6.18134,9.60978 -7.96882,11.09328 -5.21989,4.33211 -1.37238,6.98625 8.32824,5.74509 4.94128,-0.63221 9.71635,-1.19909 10.61127,-1.25973 z m 54.23728,-11.48297 c 4.47458,-1.28207 8.1356,-2.60883 8.1356,-2.94836 0,-0.33954 -1.85989,-3.84603 -4.1331,-7.7922 -2.27319,-3.94617 -4.77781,-11.56807 -5.56581,-16.93756 -2.76146,-18.81697 -10.08514,-51.00222 -12.05656,-52.98484 -1.21582,-1.22273 -6.02411,-1.22273 -12.3548,0 -13.23606,2.55644 -13.55205,4.72267 -6.02118,41.27763 3.12932,15.18969 5.52997,30.62762 5.33482,34.30649 -0.19525,3.67887 -0.25593,7.50687 -0.13494,8.50667 0.24122,1.99485 14.02368,0.23176 26.79608,-3.42783 z M 242.70922,309.13827 c -1.74028,-14.69394 -4.8386,-19.9618 -10.0882,-17.15229 -2.2579,1.20839 -7.09825,2.19707 -10.75636,2.19707 -8.44064,0 -8.48142,3.01248 -0.10783,7.95894 3.59886,2.12589 9.00524,7.58539 12.01419,12.13222 7.04037,10.63873 10.56642,8.61262 8.93811,-5.13594 z m 148.57023,-4.31155 c -0.77108,-9.82479 -3.55643,-17.15214 -6.52006,-17.15214 -0.93024,0 -3.3037,3.38112 -5.27434,7.5136 -3.50603,7.35223 -3.46227,7.65705 2.03709,14.19268 7.44925,8.85292 10.69077,7.33997 9.75731,-4.55414 z m 4.5594,-32.93503 c -1.27809,-10.01794 -5.6983,-12.76132 -16.59989,-10.30262 -10.31441,2.32629 -12.14941,4.24931 -7.02008,7.3569 2.23089,1.35158 8.08535,5.0965 13.00994,8.32205 4.92457,3.22555 9.56154,5.17809 10.30433,4.33899 0.74281,-0.83911 0.88038,-5.21101 0.3057,-9.71532 z m 16.96443,8.73204 c 0.0913,-1.49153 0.52905,-4.17627 0.97277,-5.9661 0.44373,-1.78983 1.47305,-6.91526 2.28736,-11.38983 1.31684,-7.2359 0.98897,-8.1356 -2.96482,-8.1356 -11.45982,0 -13.40015,4.31436 -9.0252,20.0678 2.12433,7.64931 8.35667,11.52135 8.72989,5.42373 z m -241.62887,-5.5236 c 5.01237,-1.15649 9.58471,-1.63141 10.16075,-1.05537 0.57604,0.57605 2.08131,0.40833 3.34504,-0.3727 1.51251,-0.93478 0.76158,-4.43107 -2.19746,-10.23129 -3.53615,-6.93142 -11.37117,-39.83348 -15.92739,-66.88484 -0.30145,-1.78983 -2.85751,-3.59257 -5.68011,-4.00608 -6.37498,-0.93394 -21.59388,3.45623 -21.59388,6.22915 0,1.1269 2.9719,16.77955 6.60423,34.78368 3.63233,18.00414 6.01,34.60709 5.2837,36.89545 -0.7263,2.28837 -0.70697,5.15345 0.043,6.36685 1.38236,2.2367 3.6366,2.04192 19.96218,-1.72485 z m 301.15724,-15.07807 c -2.07657,-13.84759 -3.1186,-15.73731 -8.67777,-15.73731 -10.03058,0 -10.68039,5.26777 -2.11972,17.1836 9.2844,12.9232 12.88009,12.44157 10.79749,-1.44629 z M 238.113,261.44688 c 0.78075,-1.2633 -0.52988,-4.42124 -2.9125,-7.01765 -4.0699,-4.43509 -5.35867,-8.35985 -7.96169,-24.24618 -0.58654,-3.57966 -2.19186,-11.87797 -3.56736,-18.44068 -4.91832,-23.46592 -2.49693,-31.19568 7.15297,-22.83426 4.88784,4.2352 6.61972,8.93071 10.54687,28.59484 5.07182,25.39588 5.64459,32.28345 3.17427,38.17163 -2.97867,7.09981 7.25051,4.23206 16.8537,-4.72494 8.74261,-8.15433 9.15295,-9.11262 9.52183,-22.23729 0.49848,-17.73614 -5.37708,-34.71636 -14.92664,-43.13743 -11.09522,-9.7841 -29.61152,-11.66169 -26.23642,-2.66043 1.2227,3.26087 0.92587,3.44975 -1.86332,1.18569 -1.82471,-1.48117 -3.96003,-2.05067 -4.74517,-1.26554 -0.78512,0.78513 -1.42751,0.28852 -1.42751,-1.10357 0,-8.9744 -20.03968,6.49007 -24.01358,18.53111 -3.03223,9.18775 -1.40029,32.74539 2.76829,39.96128 5.12291,8.86783 13.57887,17.6258 19.43967,20.13396 7.85972,3.36362 16.47238,3.87927 18.19659,1.08946 z m 72.39892,-13.75438 c 8.73882,-1.88686 10.18998,-4.86084 6.18069,-12.66674 -3.19063,-6.212 -5.14163,-14.10993 -9.23513,-37.38508 -1.29951,-7.3889 -3.34671,-17.95667 -4.41288,-22.77966 -0.39567,-1.78983 -0.7941,-4.37013 -0.88539,-5.73399 -0.28345,-4.23452 -6.3669,-5.13102 -18.13984,-2.67321 -14.17144,2.95853 -15.80826,4.49828 -11.60363,10.91538 1.85288,2.82783 4.44153,10.4983 5.7526,17.04548 1.31105,6.54718 3.89068,18.22123 5.73249,25.94233 1.84181,7.72111 2.84019,17.82991 2.21863,22.46401 l -1.13011,8.42564 10.12906,-1.20874 c 5.57097,-0.6648 12.49807,-1.72024 15.39351,-2.34542 z M 130.92403,215.9009 c 0.77405,-5.27024 1.75077,-11.02349 2.17048,-12.78499 0.96723,-4.05936 -8.08611,-5.6799 -12.28116,-2.19831 -2.03581,1.68957 -2.60747,4.79596 -1.72743,9.38688 3.64399,19.00967 9.46397,21.76104 11.83811,5.59642 z m 58.8709,-11.02283 c -1.31893,-13.18925 -4.11734,-17.39097 -11.04772,-16.58775 -3.1909,0.36982 -6.08962,2.19388 -6.44161,4.05349 -0.75121,3.96871 14.17028,24.32383 16.68946,22.76689 0.94435,-0.58364 1.3043,-5.18833 0.79987,-10.23263 z m 145.7531,-0.80123 c 6.67175,-6.67176 7.66553,-9.03272 7.66553,-18.21125 0,-8.64302 -1.1356,-11.76137 -6.29415,-17.28361 -5.43076,-5.81366 -7.79396,-6.73791 -17.22789,-6.73791 -12.89392,0 -15.19382,2.40716 -9.37166,9.80881 5.99242,7.61814 9.81343,24.72762 7.1102,31.83765 -4.24278,11.15937 7.1754,11.52887 18.11797,0.58631 z"
     id="path4496"
     inkscape:connector-curvature="0" />
  <path
     style="opacity:1;fill:#fce94f;fill-opacity:1;stroke:#fce94f;stroke-width:2.16949153"
     d="m 68.368355,348.19837 c -7.205578,-2.08479 -10.425998,-7.48794 -8.090521,-13.57409 1.989974,-5.18579 3.326026,-4.59039 13.918776,6.20284 10.177753,10.37037 9.12768,11.69845 -5.828255,7.37125 z"
     id="path4498"
     inkscape:connector-curvature="0" />
  <path
     style="opacity:0.44;fill:#fce94f;fill-opacity:1;stroke:#fce94f;stroke-width:2.16949153"
     d="m 56.840678,452.29915 7.59322,-1.34153 -8.044242,-0.28559 c -9.821876,-0.3487 -25.491938,-13.85817 -25.735359,-22.18695 -0.140757,-4.81625 -0.287586,-4.88377 -1.910116,-0.8783 -2.955648,7.29646 -5.405564,-9.99582 -5.378916,-37.9661 0.01562,-16.32996 -0.503474,-21.95118 -1.502392,-16.27119 -0.929725,5.28655 -1.228689,1.04728 -0.764991,-10.84746 0.562491,-14.42898 0.257766,-17.54346 -1.16746,-11.9322 -1.57417,6.19767 -1.741841,5.27145 -0.912306,-5.03968 1.384487,-17.20915 -1.52546,-50.58921 -3.626915,-41.60439 -0.837245,3.57966 -1.162843,-1.78983 -0.723551,-11.9322 0.555799,-12.8323 0.225894,-16.46125 -1.084746,-11.9322 -1.31064,4.52905 -1.640545,0.9001 -1.084746,-11.93221 0.555799,-12.83229 0.225894,-16.46125 -1.084746,-11.9322 -1.310639,4.52904 -1.6405445,0.90009 -1.084746,-11.9322 0.549893,-12.69593 0.21848,-16.41312 -1.0638355,-11.93221 -1.2744561,4.45345 -1.6256449,0.3434 -1.112251,-13.01695 0.5275246,-13.72808 0.2099425,-17.2709 -1.0696158,-11.9322 -1.2553007,5.23749 -1.6050913,0.86256 -1.1274786,-14.1017 0.4542169,-14.23123 0.1514138,-18.33626 -0.8801677,-11.9322 -1.39181,8.64036 -1.7760723,7.12149 -3.3424671,-13.21174 -1.47261979,-19.11593 -1.19686462,-24.0825 1.641907,-29.57208 4.9762632,-9.62303 15.6949407,-17.76841 25.4304217,-19.32517 8.022499,-1.28285 8.510075,-1.79638 8.510075,-8.96306 0,-16.29572 14.200492,-28.711132 32.870246,-28.738275 8.231457,-0.01197 9.912815,-0.853602 13.182291,-6.598638 5.93373,-10.426586 15.029209,-12.913069 47.235599,-12.913069 32.20639,0 41.30187,2.486483 47.2356,12.913069 l 3.74745,6.58492 135.13728,0.01371 c 129.68899,0.01317 135.47162,0.184288 143.43027,4.244485 9.09789,4.641408 15.39855,15.134098 15.39855,25.643758 0,5.70968 0.88301,6.5824 7.7949,7.70404 11.04685,1.79266 21.59019,10.63426 25.64133,21.50275 2.72347,7.30655 3.05089,12.2297 1.55355,23.35936 l -1.8972,14.1017 -0.27511,-13.26675 c -0.2048,-9.87487 -1.43341,-14.7393 -4.80564,-19.0264 -5.10892,-6.49494 -15.00217,-12.22891 -20.85324,-12.0862 -2.14739,0.0524 7.3e-4,1.47679 4.77362,3.16538 4.77288,1.68859 11.01303,5.76622 13.86697,9.0614 5.1049,5.89412 5.1589,6.4143 3.33043,32.08885 -1.02224,14.35369 -1.82962,32.93151 -1.79417,41.28406 0.0354,8.35254 -0.40717,13.2339 -0.98356,10.84745 -1.56168,-6.46585 -22.09581,178.8192 -20.79746,187.66103 0.8222,5.59896 0.53283,6.73855 -1.10173,4.33898 -1.76052,-2.58449 -2.2236,-2.01639 -2.24998,2.76033 -0.0495,8.96716 -15.85577,25.37648 -24.7163,25.65932 -5.90668,0.18852 -6.13313,0.39699 -1.76773,1.62711 2.75376,0.77599 -86.57505,1.41087 -198.50847,1.41087 -111.93341,0 -200.098343,-0.60368 -195.922072,-1.34153 z m -28.8418,-43.67542 c -0.517104,-2.68475 -0.94019,-0.48814 -0.94019,4.88135 0,5.3695 0.423086,7.56611 0.94019,4.88136 0.517105,-2.68475 0.517105,-7.07797 0,-9.76271 z m 45.8101,-2.27547 c 0.962278,-5.02995 -17.02262,-23.21606 -22.959203,-23.21606 -5.725833,0 -6.959382,3.68697 -4.935847,14.75283 2.406035,13.1576 4.634402,14.95897 16.774964,13.56062 7.685569,-0.88522 10.566938,-2.20602 11.120086,-5.09739 z m 22.455958,-4.07107 c 3.188426,-2.20735 7.413134,-8.24479 9.388234,-13.41653 3.21157,-8.40938 3.25366,-10.21076 0.39818,-17.04487 -1.7561,-4.20294 -9.760078,-14.60326 -17.786613,-23.11181 -14.504924,-15.37597 -17.411363,-21.66439 -4.009323,-8.67463 9.408699,9.11927 14.910328,7.36666 12.76544,-4.06656 -2.765446,-14.74111 -4.575119,-16.38371 -16.760111,-15.21288 -5.976084,0.57422 -11.519519,2.10208 -12.31874,3.39525 -0.936463,1.51524 -2.589835,1.63237 -4.65011,0.32948 -4.830112,-3.05453 -5.754177,-2.70663 -15.001914,5.64814 -17.209446,15.54771 -15.892322,32.03617 3.545895,44.38947 7.167455,4.55502 12.01181,6.2334 15.491668,5.36728 3.217252,-0.80078 4.554715,-0.43759 3.668574,0.99623 -0.779028,1.26049 0.428685,2.25644 2.736212,2.25644 2.271929,0 5.875254,1.92764 8.007396,4.28362 3.328989,3.67848 3.500205,5.19235 1.212025,10.71651 -4.711966,11.37568 0.517025,13.00365 13.313187,4.14486 z M 25.829387,389.09831 c -0.517105,-2.68475 -0.940191,-0.48814 -0.940191,4.88135 0,5.36949 0.423086,7.5661 0.940191,4.88136 0.517105,-2.68475 0.517105,-7.07797 0,-9.76271 z m 123.757053,4.42354 c 3.75871,-3.10881 3.45837,-7.474 -2.72368,-39.58593 -2.97655,-15.46135 -5.41191,-29.10696 -5.41191,-30.32359 0,-1.2166 2.61322,0.40121 5.80716,3.59513 5.62025,5.62027 5.71092,6.09877 2.81719,14.86683 -2.97126,9.00305 -2.94587,9.09909 4.0605,15.35927 3.87774,3.46476 7.9795,5.72539 9.115,5.02363 1.13551,-0.70179 2.06455,-5.83409 2.06455,-11.40513 v -10.12914 l 17.89831,17.61005 c 19.80302,19.48409 24.27168,22.42974 34.02687,22.42974 7.70343,0 8.20024,-2.28176 3.13086,-14.37913 -4.20083,-10.02463 -9.18195,-35.29595 -10.96724,-55.64151 -0.70939,-8.08422 -2.10445,-15.20208 -3.10015,-15.81748 -3.39595,-2.09881 -14.8186,5.59677 -20.31626,13.6873 -4.53262,6.67036 -5.48595,10.62482 -5.48595,22.75612 0,8.07556 -0.77814,14.68284 -1.72919,14.68284 -0.95106,0 -5.54241,-3.90509 -10.20301,-8.67797 -7.64227,-7.8264 -8.00481,-8.67796 -3.69453,-8.67796 4.14108,0 4.77928,-1.17591 4.77928,-8.80601 0,-5.68624 -0.82001,-8.29922 -2.31459,-7.37549 -1.38937,0.85866 -2.03979,-0.17421 -1.62712,-2.58385 0.55112,-3.21816 -0.90783,-4.14676 -7.35628,-4.68217 -9.45818,-0.78529 -16.9054,2.60081 -16.9054,7.68655 0,2.80919 -0.57853,3.03327 -2.60339,1.00842 -2.79495,-2.79495 -18.88819,-3.15678 -27.76949,-0.62433 -6.53095,1.86224 -6.51622,2.1087 2.08688,34.9023 3.59985,13.72203 6.55551,29.16248 6.56813,34.31211 0.038,15.47585 2.1961,17.55618 15.67688,15.11149 6.30559,-1.1435 12.68506,-3.08845 14.17658,-4.32209 z m 25.56121,-4.85521 c 8.2754,-3.45769 9.43851,-8.07164 5.14181,-20.39715 -3.62044,-10.38561 -5.42678,-9.51458 -16.9725,8.18419 -9.45597,14.49535 -4.89658,19.20204 11.83069,12.21296 z m 72.66156,-21.89184 c 4.57596,-7.40404 5.58504,-15.12587 2.24627,-17.18934 -2.16706,-1.33931 -3.01717,-0.52022 -13.17291,12.69251 -6.3619,8.27693 -7.77066,12.33451 -5.18137,14.9238 2.50339,2.50337 11.85976,-3.55313 16.10801,-10.42697 z m 44.77182,-1.18508 c 7.54031,-2.41061 10.72228,-7.55302 7.2571,-11.72827 -1.22645,-1.47782 -5.26952,-17.21848 -8.98455,-34.97928 -3.71506,-17.76078 -7.81601,-33.61712 -9.11321,-35.23627 -2.8779,-3.59218 -19.3807,-1.84904 -26.46982,2.79593 l -4.69946,3.0792 4.93414,14.66177 c 2.71377,8.06398 5.6075,20.46347 6.43048,27.55441 1.03808,8.9441 2.11046,11.97809 3.50149,9.90653 1.92529,-2.8672 1.71548,-0.13256 -1.66643,21.72066 l -1.13757,7.35087 11.54441,-1.46638 c 6.34945,-0.80651 14.63098,-2.45315 18.40342,-3.65917 z m 38.61422,-7.51122 c 3.89298,-1.84734 8.17775,-5.77219 9.52172,-8.7219 2.07156,-4.54658 1.7602,-5.93442 -2.04507,-9.11579 -2.46877,-2.06396 -6.38177,-7.41369 -8.69556,-11.88827 -2.3138,-4.47457 -4.91926,-8.15054 -5.78992,-8.16881 -0.87068,-0.0174 -3.00862,-0.93494 -4.75101,-2.03704 -2.70227,-1.70928 -2.55006,-2.68659 1.03546,-6.64854 10.01105,-11.0621 2.37583,-30.5485 -13.10775,-33.45325 -16.36805,-3.07066 -22.42241,3.38599 -15.13261,16.13815 1.70526,2.98305 3.15004,7.86441 3.21059,10.84746 0.0874,4.30937 0.54217,4.75511 2.21314,2.16949 1.61356,-2.4968 2.10304,-1.73937 2.10304,3.25424 0,4.447 -0.58841,5.57991 -1.85776,3.57682 -1.31829,-2.08033 -2.14376,-0.98315 -2.84258,3.77817 -1.06676,7.26829 5.52025,20.53692 7.49334,15.0943 0.58299,-1.60814 0.99415,0.61835 0.91373,4.94774 -0.16792,9.03882 5.29546,18.60849 12.21501,21.3957 6.65219,2.67954 7.5496,2.61196 15.51623,-1.16847 z m 40.2217,-8.34178 c 5.34803,-1.69368 7.80166,-3.87391 8.2982,-7.37362 0.38773,-2.73293 -2.37686,-19.81688 -6.14351,-37.96433 -7.94465,-38.27673 -9.70823,-41.05632 -24.30622,-38.30917 -18.10584,3.40728 -19.40059,4.94003 -13.82836,16.3703 4.10552,8.42164 12.11548,48.12271 12.11548,60.04994 0,5.23948 0.60338,10.1297 1.34088,10.86718 1.51185,1.51185 11.19798,-0.0536 22.52353,-3.6403 z m 38.0153,-7.90448 c 1.93176,-3.12563 -0.8646,-18.24815 -4.22382,-22.84216 -2.5108,-3.4337 -3.6362,-2.63229 -11.77533,8.38524 -4.94956,6.69997 -8.9992,13.19975 -8.9992,14.44391 0,2.96116 23.16884,2.97322 24.99835,0.013 z m 47.65614,-8.81874 c 10.93745,-2.75408 13.14662,-6.35774 8.92642,-14.56111 -1.64919,-3.20577 -5.09714,-16.56764 -7.66208,-29.69307 -6.9481,-35.55506 -9.54746,-42.23864 -16.42731,-42.23864 -1.19322,0 -0.70508,1.02056 1.08475,2.2679 2.42833,1.69233 1.49708,1.92255 -3.66937,0.9071 -10.46088,-2.05605 -15.84924,1.83635 -15.89068,11.47896 -0.0577,13.44142 7.18991,51.40401 8.94002,46.82699 0.85294,-2.23074 1.00912,3.0221 0.34703,11.67295 l -1.20376,15.72881 h 8.03191 c 4.41756,0 12.30295,-1.07546 17.52307,-2.38989 z m -212.8778,-13.90503 c 1.46272,-3.81175 -0.15034,-14.66414 -3.49292,-23.50013 -2.03195,-5.37129 -3.16416,-6.00174 -8.76616,-4.88135 -3.53807,0.70762 -8.29401,1.28657 -10.56874,1.28657 -7.85475,0 -6.22568,5.59429 5.17218,17.76145 12.02917,12.84107 15.58777,14.72228 17.65564,9.33346 z m 148.47994,-11.16384 c 0.36488,-3.74718 -0.92065,-10.57308 -2.85677,-15.16867 l -3.52017,-8.35562 -5.27883,6.08707 c -6.48034,7.47258 -6.64641,12.19936 -0.69443,19.76607 5.95807,7.57447 11.48741,6.53181 12.3502,-2.32885 z m 23.46535,-36.56098 c 1.40064,-6.99198 2.05377,-13.99705 1.45139,-15.56682 -1.48764,-3.87674 -7.2919,-3.5907 -13.35823,0.65832 -4.24995,2.97679 -4.79538,4.71376 -3.57648,11.38983 1.75376,9.60541 7.00499,18.2086 10.41951,17.07044 1.38446,-0.46149 3.66318,-6.55978 5.06381,-13.55177 z m -18.70503,3.98718 c 0,-13.62378 -8.86407,-19.02085 -22.63843,-13.78385 -8.31245,3.16039 -6.8165,6.92135 5.82487,14.64411 14.8084,9.04663 16.81356,8.94404 16.81356,-0.86026 z m -226.71187,1.2414 c 4.77288,-1.25447 10.38644,-2.26812 12.47458,-2.25256 4.46445,0.0333 4.60641,-1.07055 1.342,-10.43484 -1.86217,-5.34184 -2.95483,-6.33631 -4.52718,-4.12035 -1.47985,2.08561 -1.75367,1.47548 -0.95748,-2.13346 0.94341,-4.27622 -0.91451,-14.52611 -10.57493,-58.3406 -1.6047,-7.27805 -8.14082,-9.86714 -18.1235,-7.17908 -4.6289,1.24643 -9.3454,3.47957 -10.4811,4.96254 -1.34946,1.76207 -0.0469,13.59585 3.75945,34.15392 3.20341,17.30169 6.36435,29.50508 7.02433,27.11864 0.65997,-2.38644 0.67262,1.27458 0.0281,8.13559 l -1.17184,12.47458 6.2648,-0.0519 c 3.44564,-0.0284 10.16988,-1.07804 14.94276,-2.33253 z M 473.38305,262.1234 c 0,-11.34309 -4.59787,-20.09766 -10.42809,-19.85566 -3.03764,0.12609 -2.92244,0.50687 0.66538,2.19955 3.66848,1.73073 3.39061,1.91623 -1.79812,1.20042 -7.28231,-1.00463 -9.399,2.65032 -5.69708,9.83734 3.15882,6.13261 13.05812,16.98309 15.49431,16.98309 0.96998,0 1.7636,-4.66413 1.7636,-10.36474 z m -234.30508,-1.44346 c 0,-1.72163 -1.83641,-6.35891 -4.0809,-10.30508 -6.77832,-11.9173 -14.2825,-62.49689 -9.2723,-62.49689 7.47925,0 17.5558,34.37996 17.64523,60.20339 0.0549,15.87766 1.64673,16.64356 14.79511,7.11892 11.68354,-8.4635 13.45523,-12.27425 13.45523,-28.94082 0,-24.92806 -11.19521,-44.53981 -28.10715,-49.23806 -9.96712,-2.76893 -10.03117,-2.76299 -14.10345,1.3093 -2.6864,2.68641 -4.15549,2.90051 -6.50759,0.94844 -4.14726,-3.44191 -14.45815,1.99467 -20.87542,11.00689 -13.92154,19.551 -6.47316,56.89078 13.81603,69.26174 8.35293,5.09305 23.23521,5.81821 23.23521,1.13217 z m 73.22034,-12.37458 c 7.66863,-2.37929 8.70397,-6.00432 4.67093,-16.35396 -1.30894,-3.35903 -5.01771,-19.77513 -8.24168,-36.48021 l -5.86179,-30.37288 -7.88556,-0.66476 c -4.33705,-0.36561 -11.95681,0.43152 -16.93277,1.77142 -7.79479,2.09891 -8.87437,3.09195 -7.7985,7.17322 0.68682,2.60539 3.79544,14.01164 6.90803,25.34723 3.50312,12.75787 5.79953,27.05929 6.02741,37.53737 l 0.36816,16.92719 10.84746,-1.3485 c 5.9661,-0.74167 14.02034,-2.33293 17.89831,-3.53612 z M 130.22962,223.1322 c 1.07161,-2.08813 2.57593,-7.90843 3.34294,-12.93399 1.183,-7.75121 0.73444,-9.49067 -2.9568,-11.46616 -6.45487,-3.45455 -13.02932,0.79607 -13.02932,8.42393 0,14.92706 7.99622,25.03127 12.64318,15.97622 z m 61.11953,-15.85685 c 0,-5.8863 -0.79637,-8.31381 -2.40192,-7.32153 -1.59765,0.9874 -1.93621,0.0171 -1.0111,-2.8976 0.85824,-2.70409 0.0572,-5.71571 -2.09203,-7.8649 -4.1124,-4.11241 -4.38676,-4.14695 -9.82401,-1.23702 -5.81934,3.11441 -5.26674,7.34886 2.41634,18.51583 8.48958,12.33918 12.91272,12.615 12.91272,0.80522 z m 143.81282,-1.88576 c 8.38385,-7.82036 9.13634,-9.4168 9.13634,-19.38297 0,-9.02008 -1.0628,-11.97 -6.27101,-17.40621 -7.02475,-7.33226 -15.49596,-9.96951 -25.18662,-7.84109 -7.627,1.67517 -8.10401,4.87145 -2.17761,14.59163 2.382,3.90681 4.33454,8.86938 4.33899,11.02793 0.004,2.31601 0.9926,3.3162 2.41002,2.44019 1.5509,-0.95851 1.99263,-0.0431 1.24672,2.58382 -2.79055,9.82749 -3.8663,18.23212 -2.5966,20.28655 2.76133,4.46791 10.17915,2.02122 19.09977,-6.29985 z M 4.0402022,159.1322 c -0.6018436,-1.49152 -1.0942612,-0.27118 -1.0942612,2.71187 0,2.98305 0.4924176,4.20339 1.0942612,2.71186 0.6018436,-1.49152 0.6018436,-3.9322 0,-5.42373 z m 12.9745488,-18.67291 8.272165,-6.81861 226.759924,-0.53213 226.75994,-0.53212 -224.54237,-0.6059 c -123.49831,-0.33325 -226.56286,-0.11939 -229.032343,0.47522 -6.184315,1.48911 -20.4898473,15.767 -20.3216696,20.28241 0.1068908,2.8699 0.5489328,2.67413 1.9848522,-0.87904 1.0160347,-2.51416 5.5698104,-7.63958 10.1195014,-11.38983 z"
     id="path4500"
     inkscape:connector-curvature="0" />
</svg>
