<?xml version="1.0" encoding="UTF-8" standalone="no"?>
<!-- Created with Inkscape (http://www.inkscape.org/) -->

<svg
   xmlns:dc="http://purl.org/dc/elements/1.1/"
   xmlns:cc="http://creativecommons.org/ns#"
   xmlns:rdf="http://www.w3.org/1999/02/22-rdf-syntax-ns#"
   xmlns:svg="http://www.w3.org/2000/svg"
   xmlns="http://www.w3.org/2000/svg"
   xmlns:xlink="http://www.w3.org/1999/xlink"
   xmlns:sodipodi="http://sodipodi.sourceforge.net/DTD/sodipodi-0.dtd"
   xmlns:inkscape="http://www.inkscape.org/namespaces/inkscape"
   width="51.200001"
   height="51.200001"
   id="svg865"
   version="1.1"
   inkscape:version="0.92.1 r"
   sodipodi:docname="open.svg"
   viewBox="0 0 48 48">
  <defs
     id="defs867">
    <linearGradient
       inkscape:collect="always"
       id="linearGradient6589">
      <stop
         style="stop-color:#f4343f;stop-opacity:1"
         offset="0"
         id="stop6591" />
      <stop
         style="stop-color:#ff5756;stop-opacity:1"
         offset="1"
         id="stop6593" />
    </linearGradient>
    <linearGradient
       inkscape:collect="always"
       id="linearGradient3419">
      <stop
         style="stop-color:#d3d3d4;stop-opacity:1"
         offset="0"
         id="stop3421" />
      <stop
         style="stop-color:#f4f4f4;stop-opacity:1"
         offset="1"
         id="stop3423" />
    </linearGradient>
    <linearGradient
       inkscape:collect="always"
       xlink:href="#linearGradient3419"
       id="linearGradient4053"
       gradientUnits="userSpaceOnUse"
       gradientTransform="matrix(0.8095238,0,0,0.8095238,-1101.9534,-808.48368)"
       x1="2.9250314"
       y1="1029.4803"
       x2="44.956501"
       y2="1029.4803" />
    <linearGradient
       inkscape:collect="always"
       xlink:href="#linearGradient3419"
       id="linearGradient4055"
       gradientUnits="userSpaceOnUse"
       gradientTransform="matrix(0.69047615,0,0,0.69047615,-1099.0959,-686.05959)"
       x1="2.9250314"
       y1="1029.4803"
       x2="44.956501"
       y2="1029.4803" />
    <linearGradient
       inkscape:collect="always"
       xlink:href="#linearGradient6589"
       id="linearGradient4057"
       gradientUnits="userSpaceOnUse"
       gradientTransform="rotate(-90,51.0814,1055.4435)"
       x1="9.004282"
       y1="1032.9149"
       x2="41.929218"
       y2="1031.2874" />
  </defs>
  <sodipodi:namedview
     id="base"
     pagecolor="#ffffff"
     bordercolor="#666666"
     borderopacity="1.0"
     inkscape:pageopacity="0"
     inkscape:pageshadow="2"
     inkscape:zoom="24.438688"
     inkscape:cx="16.701457"
     inkscape:cy="31.380671"
     inkscape:document-units="px"
     inkscape:current-layer="layer1"
     showgrid="false"
     inkscape:window-width="1075"
     inkscape:window-height="699"
     inkscape:window-x="725"
     inkscape:window-y="180"
     inkscape:window-maximized="0" />
  <metadata
     id="metadata870">
    <rdf:RDF>
      <cc:Work
         rdf:about="">
        <dc:format>image/svg+xml</dc:format>
        <dc:type
           rdf:resource="http://purl.org/dc/dcmitype/StillImage" />
        <dc:title></dc:title>
      </cc:Work>
    </rdf:RDF>
  </metadata>
  <g
     inkscape:label="Capa 1"
     inkscape:groupmode="layer"
     id="layer1"
     transform="translate(0,-1004.3622)">
    <g
       id="g4131"
       transform="translate(0,1004.3622)">
      <g
         transform="translate(0,-1004.3622)"
         id="layer1-4"
         inkscape:label="Capa 1">
        <g
           inkscape:label="Capa 1"
           id="layer1-2">
          <path
             style="fill:#000000"
             d=""
             id="path906"
             inkscape:connector-curvature="0" />
          <g
             id="g3570"
             transform="translate(0,-54.162733)">
            <rect
               style="fill:#000000;fill-opacity:0.01960784;stroke:none"
               id="rect4025"
               width="44.399963"
               height="44.399963"
               x="1.8000183"
               y="1060.325"
               ry="6.2786646" />
            <rect
               ry="6.1938181"
               y="1060.625"
               x="2.1000061"
               height="43.799973"
               width="43.799973"
               id="rect4027"
               style="fill:#000000;fill-opacity:0.03921569;stroke:none" />
            <rect
               style="fill:#000000;fill-opacity:0.07843137;stroke:none"
               id="rect4029"
               width="43.199982"
               height="43.199982"
               x="2.3999939"
               y="1060.9253"
               ry="6.1089716" />
            <rect
               ry="6.0241251"
               y="1061.2251"
               x="2.7000122"
               height="42.599991"
               width="42.599991"
               id="rect4031"
               style="fill:#000000;fill-opacity:0.15686275;stroke:none" />
            <rect
               style="fill:#f42631;fill-opacity:1;stroke:none"
               id="rect4033"
               width="42"
               height="42"
               x="-1103.5249"
               y="3.0000219"
               ry="5.9392796"
               transform="rotate(-90)" />
            <rect
               style="opacity:0.1;fill:#000000;fill-opacity:1;stroke:none"
               id="rect4035"
               width="37.000004"
               height="37.000004"
               x="-1101.0249"
               y="5.50002"
               ry="5.2322216"
               transform="rotate(-90)" />
            <rect
               transform="rotate(-90)"
               ry="5.0625286"
               y="6.1000223"
               x="-1100.4249"
               height="35.799999"
               width="35.799999"
               id="rect4037"
               style="opacity:0.03999999;fill:#000000;fill-opacity:1;stroke:none" />
            <rect
               transform="rotate(-90)"
               ry="4.8079882"
               y="7.0000219"
               x="-1099.5249"
               height="34"
               width="34"
               id="rect4039"
               style="fill:url(#linearGradient4053);fill-opacity:1;stroke:none" />
            <rect
               transform="rotate(-90)"
               ry="4.3837538"
               y="8.50002"
               x="-1098.0249"
               height="31.000004"
               width="31.000004"
               id="rect4041"
               style="opacity:0.1;fill:#000000;fill-opacity:1;stroke:none" />
            <rect
               style="opacity:0.05;fill:#000000;fill-opacity:1;stroke:none"
               id="rect4043"
               width="30"
               height="30"
               x="-1097.5249"
               y="9.0000219"
               ry="4.2423429"
               transform="rotate(-90)" />
            <rect
               style="fill:url(#linearGradient4055);fill-opacity:1;stroke:none"
               id="rect4045"
               width="29.000004"
               height="29.000004"
               x="-1097.0249"
               y="9.50002"
               ry="4.1009312"
               transform="rotate(-90)" />
            <path
               inkscape:connector-curvature="0"
               style="opacity:0.98000004;fill:url(#linearGradient4057);fill-opacity:1;stroke:none"
               d="m 1.5939423,1098.8549 c 1.4060796,4.67 2.7403722,8.6998 10.1665917,7.708 l 25.184152,-3.3635 c 5.22983,-1.198 5.555337,-2.1745 8.055314,-6.112 l -0.651035,-5.2929 -2.658302,-8.2096 -1.519031,-5.7976 c 2.278546,8.6187 0,0 -2.319545,-6.3177 -2.084688,-1.8895 -3.213832,-2.2975 -4.183295,-2.301 l -4.60424,-0.017 -5.572953,2.1115 -2.126884,0.8844 c 0,0 -1.570742,0.7964 -2.260211,1.0412 -0.891351,0.3499 -1.150839,0.6138 -2.118913,0.081 -1.541517,-1.389 -1.319875,-1.0678 -1.319875,-1.0678 0,0 -1.363473,-1.3026 -1.4805,-1.464 -0.127361,-0.1788 -1.417453,-0.7117 -1.510253,-0.7337 -0.249987,-0.1155 -1.668543,-0.4256 -1.668543,-0.4256 l -1.2659231,0.077 -1.1043432,0.3883 -2.9295583,1.4105 c 0,0 -1.9319868,1.8909 -3.1169865,2.572 l -3.29342605,2.7607 -1.11567185,3.7627 1.8899311,9.2208 z"
               id="path4047"
               sodipodi:nodetypes="csccccccscccccccccccsccccc" />
            <path
               inkscape:connector-curvature="0"
               style="fill:#000000;fill-opacity:0.11764706;stroke:none"
               d="m 3.0000004,1095.0874 v 2.5 c 0,3.2904 2.64714,5.9375 5.9375,5.9375 H 39.0625 c 3.29036,0 5.9375,-2.6471 5.9375,-5.9375 v -2.5 c 0,3.2904 -2.64714,5.9375 -5.9375,5.9375 H 8.9375004 c -3.29036,0 -5.9375,-2.6471 -5.9375,-5.9375 z"
               id="path4049" />
            <path
               inkscape:connector-curvature="0"
               style="fill:#000000;fill-opacity:0.09803922;stroke:none"
               d="m 3.0000004,1097.0874 v 0.5 c 0,3.2904 2.64714,5.9375 5.9375,5.9375 H 39.0625 c 3.29036,0 5.9375,-2.6471 5.9375,-5.9375 v -0.5 c 0,3.2904 -2.64714,5.9375 -5.9375,5.9375 H 8.9375004 c -3.29036,0 -5.9375,-2.6471 -5.9375,-5.9375 z"
               id="path4051" />
          </g>
        </g>
      </g>
      <g
         inkscape:label="Capa 2"
         id="layer2-05" />
    </g>
  </g>
  <g
     inkscape:groupmode="layer"
     id="layer2"
     inkscape:label="Capa 2" />
</svg>
