<?xml version="1.0" encoding="UTF-8" standalone="no"?>
<svg
   xmlns:dc="http://purl.org/dc/elements/1.1/"
   xmlns:cc="http://creativecommons.org/ns#"
   xmlns:rdf="http://www.w3.org/1999/02/22-rdf-syntax-ns#"
   xmlns:svg="http://www.w3.org/2000/svg"
   xmlns="http://www.w3.org/2000/svg"
   xmlns:sodipodi="http://sodipodi.sourceforge.net/DTD/sodipodi-0.dtd"
   xmlns:inkscape="http://www.inkscape.org/namespaces/inkscape"
   viewBox="0 0 128 128"
   id="svg2"
   version="1.1"
   inkscape:version="0.91 r"
   sodipodi:docname="retroarch.svg"
   width="128"
   height="128">
  <metadata
     id="metadata24">
    <rdf:RDF>
      <cc:Work
         rdf:about="">
        <dc:format>image/svg+xml</dc:format>
        <dc:type
           rdf:resource="http://purl.org/dc/dcmitype/StillImage" />
        <dc:title></dc:title>
      </cc:Work>
    </rdf:RDF>
  </metadata>
  <sodipodi:namedview
     pagecolor="#ffffff"
     bordercolor="#666666"
     borderopacity="1"
     objecttolerance="10"
     gridtolerance="10"
     guidetolerance="10"
     inkscape:pageopacity="0"
     inkscape:pageshadow="2"
     inkscape:window-width="1366"
     inkscape:window-height="744"
     id="namedview22"
     showgrid="false"
     inkscape:zoom="2.4583333"
     inkscape:cx="51.127654"
     inkscape:cy="34.43403"
     inkscape:window-x="0"
     inkscape:window-y="24"
     inkscape:window-maximized="1"
     inkscape:current-layer="svg2" />
  <defs
     id="defs4">
    <linearGradient
       y2="518.77002"
       x2="455.78"
       y1="547.95001"
       x1="455.54999"
       gradientUnits="userSpaceOnUse"
       id="0">
      <stop
         stop-color="#141414"
         id="stop7" />
      <stop
         offset="1"
         stop-color="#2d2d2f"
         id="stop9" />
    </linearGradient>
    <linearGradient
       id="1"
       y1="38"
       x2="0"
       y2="13"
       gradientUnits="userSpaceOnUse">
      <stop
         stop-color="#00cafe"
         id="stop12" />
      <stop
         offset="1"
         stop-color="#1460f3"
         id="stop14" />
    </linearGradient>
  </defs>
  <g
     transform="matrix(0.15052714,0,0,0.15052714,23.613267,22.477406)"
     id="g16"
     style="fill:#ffffff;fill-opacity:1;enable-background:new">
    <circle
       r="14.5"
       cy="533.45001"
       cx="455.54999"
       transform="matrix(27.30267,0,0,27.30267,-12168.97,-14289.25)"
       id="circle18"
       style="fill:url(#0)" />
    <path
       transform="matrix(16.49531,0,0,16.49531,-127.08,-120.49)"
       d="m 14.264,11.941 c -0.205,0 -0.252,0.174 -0.252,0.379 l 0,2.23 c 0,0.205 0.047,0.359 0.252,0.359 l 2.248,0 c 0.205,0 0.369,-0.16 0.367,-0.365 -0.006,-0.742 -0.007,-1.488 -0.008,-2.23 0,-0.205 -0.166,-0.373 -0.371,-0.373 l -2.236,0 m 18.04,0 c -0.205,0 -0.482,0.17 -0.482,0.375 l 0,2.246 c 0,0.205 0.221,0.369 0.426,0.367 0.742,-0.006 1.459,-0.005 2.201,-0.006 0.205,0 0.342,-0.168 0.342,-0.373 l 0,-2.234 c 0,-0.205 -0.051,-0.375 -0.256,-0.375 l -2.23,0 M 17.326,14.925 C 17.12,14.923 16.98,15.087 16.98,15.292 l 0,2.297 c 0,0.205 -0.264,0.289 -0.469,0.289 l -2.277,0 c -0.205,0 -0.221,0.248 -0.221,0.453 l 0,2.268 c 0,0.205 -0.317,0.246 -0.521,0.246 l -2.271,0 c -0.205,0 -0.547,0.291 -0.547,0.496 l 0,2.271 c 0,0.205 0.009,0.201 -0.195,0.201 l -2.236,0 c -0.205,0 -0.537,0.334 -0.537,0.539 l 0,8.229 c 0,0.205 0.332,0.508 0.537,0.508 l 2.234,0 c 0.205,0 0.197,-0.303 0.197,-0.508 l 0,-5.236 c 0,-0.205 0.34,-0.191 0.545,-0.191 l 2.295,0 c 0.205,0 0.5,-0.013 0.5,0.191 l 0,5.27 c 0,0.205 0.101,0.371 0.307,0.371 0.761,0 1.529,0 2.262,0.006 0.205,0.002 0.398,-0.162 0.398,-0.367 l 0,-2.262 c 0,-0.205 0.047,-0.242 0.252,-0.242 l 14.34,0 c 0.205,0 0.371,0.102 0.371,0.307 0,0.761 0,1.53 -0.006,2.271 -0.002,0.205 0.162,0.391 0.367,0.391 l 2.258,0 c 0.204,0 0.227,-0.272 0.227,-0.477 l 0,-5.262 c 0,-0.205 0.311,-0.197 0.516,-0.197 l 2.307,0 c 0.205,0 0.518,-0.008 0.518,0.197 l 0,5.23 c 0,0.205 0.02,0.508 0.225,0.508 l 2.207,0 c 0.205,0 0.537,-0.303 0.537,-0.508 l 0,-8.242 c 0,-0.205 -0.332,-0.525 -0.537,-0.525 l -2.256,0 c -0.205,0 -0.547,-0.012 -0.547,-0.217 l 0,-2.277 c 0,-0.205 0.001,-0.475 -0.195,-0.475 l -2.266,0 c -0.205,0 -0.508,-0.063 -0.508,-0.268 l 0,-2.266 c 0,-0.205 -0.03,-0.434 -0.234,-0.434 l -2.26,0 c -0.205,0 -0.473,-0.104 -0.473,-0.309 l 0,-2.275 c 0,-0.205 -0.116,-0.371 -0.32,-0.369 -0.74,0.006 -1.499,0.008 -2.268,0.008 -0.205,0 -0.381,0.166 -0.381,0.371 l 0,2.256 c 0,0.206 -0.094,0.318 -0.299,0.318 l -8.324,0 c -0.205,0 -0.281,-0.114 -0.281,-0.318 l 0,-2.258 c 0,-0.205 -0.211,-0.371 -0.416,-0.371 -0.761,0 -1.474,0 -2.207,-0.006 m -0.08,5.92 2.266,0 c 0.205,0 0.438,0.267 0.438,0.473 0,0.754 0,1.502 0,2.262 0,0.205 -0.233,0.234 -0.438,0.234 l -2.266,0 c -0.205,0 -0.266,-0.03 -0.266,-0.234 l 0,-2.262 c 0,-0.205 0.06,-0.473 0.266,-0.473 m 12.05,0 2.262,0 c 0.205,0 0.268,0.272 0.268,0.477 l 0,2.264 c 0,0.205 -0.063,0.229 -0.268,0.229 l -2.262,0 c -0.205,0 -0.439,-0.023 -0.439,-0.229 l 0,-2.264 c 0,-0.204 0.235,-0.477 0.439,-0.477 m -12.05,12.152 c -0.205,-1e-4 -0.373,0.166 -0.371,0.371 0.006,0.742 0.004,1.531 0.004,2.273 0,0.205 0.164,0.416 0.369,0.416 l 5.248,0 c 0.205,0 0.428,-0.256 0.428,-0.461 l 0,-2.213 c 0,-0.205 -0.194,-0.372 -0.398,-0.371 -0.558,0 -1.123,0 -1.672,-0.002 C 19.655,33.005 18.449,33 17.249,32.995 m 14.463,0.006 c -0.058,0.004 -0.09,0.047 -0.148,0.047 -1.767,10e-5 -3.503,0.039 -5.27,0.039 l -0.17,0 c -0.093,0 -0.229,0.088 -0.229,0.293 l 0,2.221 c 0,0.205 0.228,0.455 0.434,0.455 l 5.242,0 c 0.205,0 0.26,-0.25 0.26,-0.455 l 0,-2.248 c 0,-0.205 -0.022,-0.359 -0.119,-0.352"
       id="path20"
       inkscape:connector-curvature="0"
       style="fill:url(#1)" />
  </g>
</svg>
