<?xml version="1.0" encoding="UTF-8" standalone="no"?>
<!-- Created with Inkscape (http://www.inkscape.org/) -->
<svg id="svg3449" xmlns:rdf="http://www.w3.org/1999/02/22-rdf-syntax-ns#" xmlns="http://www.w3.org/2000/svg" height="128" width="128" version="1.0" xmlns:cc="http://creativecommons.org/ns#" xmlns:xlink="http://www.w3.org/1999/xlink" xmlns:dc="http://purl.org/dc/elements/1.1/">
 <metadata id="metadata56">
  <rdf:RDF>
   <cc:Work rdf:about="">
    <dc:format>image/svg+xml</dc:format>
    <dc:type rdf:resource="http://purl.org/dc/dcmitype/StillImage"/>
    <dc:title/>
   </cc:Work>
  </rdf:RDF>
 </metadata>
 <defs id="defs3451">
  <filter id="filter3174-1" color-interpolation-filters="sRGB">
   <feGaussianBlur id="feGaussianBlur3176-0" stdDeviation="1.71"/>
  </filter>
  <linearGradient id="ButtonShadow-9" x1="45.448" gradientUnits="userSpaceOnUse" y1="92.54" gradientTransform="scale(1.0059 .99417)" x2="45.448" y2="7.0165">
   <stop id="stop3750-6" offset="0"/>
   <stop id="stop3752-7" style="stop-opacity:.58824" offset="1"/>
  </linearGradient>
  <filter id="filter3174-9" color-interpolation-filters="sRGB">
   <feGaussianBlur id="feGaussianBlur3176-5" stdDeviation="1.71"/>
  </filter>
  <filter id="filter3174-6" color-interpolation-filters="sRGB">
   <feGaussianBlur id="feGaussianBlur3176-1" stdDeviation="1.71"/>
  </filter>
  <filter id="filter3174-69" color-interpolation-filters="sRGB">
   <feGaussianBlur id="feGaussianBlur3176-2" stdDeviation="1.71"/>
  </filter>
  <linearGradient id="linearGradient7212" y2="7.0165" gradientUnits="userSpaceOnUse" x2="45.448" gradientTransform="matrix(1.0059 0 0 .99417 -350.06 -144.69)" y1="92.54" x1="45.448">
   <stop id="stop3750-2" offset="0"/>
   <stop id="stop3752-1" style="stop-opacity:.58824" offset="1"/>
  </linearGradient>
  <filter id="filter3174-93" color-interpolation-filters="sRGB">
   <feGaussianBlur id="feGaussianBlur3176-14" stdDeviation="1.71"/>
  </filter>
  <linearGradient id="linearGradient7745" y2="7.0165" gradientUnits="userSpaceOnUse" x2="45.448" gradientTransform="matrix(1.0059 0 0 .99417 188.83 18.712)" y1="92.54" x1="45.448">
   <stop id="stop3750-9" offset="0"/>
   <stop id="stop3752-59" style="stop-opacity:.58824" offset="1"/>
  </linearGradient>
  <filter id="filter3174-7" color-interpolation-filters="sRGB">
   <feGaussianBlur id="feGaussianBlur3176-4" stdDeviation="1.71"/>
  </filter>
  <linearGradient id="linearGradient8354" y2="7.0165" gradientUnits="userSpaceOnUse" x2="45.448" gradientTransform="matrix(1.0059 0 0 .99417 -241.74 36.163)" y1="92.54" x1="45.448">
   <stop id="stop3750-51" offset="0"/>
   <stop id="stop3752-15" style="stop-opacity:.58824" offset="1"/>
  </linearGradient>
  <filter id="filter3174-5" color-interpolation-filters="sRGB">
   <feGaussianBlur id="feGaussianBlur3176-41" stdDeviation="1.71"/>
  </filter>
  <linearGradient id="linearGradient8868" y2="46.187" gradientUnits="userSpaceOnUse" x2="81.065" gradientTransform="matrix(0 -.99172 1.0682 0 204.83 128.46)" y1="46.187" x1="10.48">
   <stop id="stop3270-48" style="stop-color:#e4e4e4" offset="0"/>
   <stop id="stop3272-9" style="stop-color:#7a7a7a" offset="1"/>
  </linearGradient>
  <linearGradient id="linearGradient8873" y2="5.9877" gradientUnits="userSpaceOnUse" x2="48" gradientTransform="translate(206.17 35.062)" y1="90" x1="48">
   <stop id="stop3259" style="stop-color:#aaa" offset="0"/>
   <stop id="stop3261" style="stop-color:#d2d2d2" offset="1"/>
  </linearGradient>
  <linearGradient id="linearGradient8941" y2="5.9877" gradientUnits="userSpaceOnUse" x2="48" gradientTransform="translate(206.17 35.062)" y1="90" x1="48">
   <stop id="stop3702-8" style="stop-color:#212121" offset="0"/>
   <stop id="stop3704-2" style="stop-color:#444" offset="1"/>
  </linearGradient>
  <linearGradient id="linearGradient8971" y2="7.0165" gradientUnits="userSpaceOnUse" x2="45.448" gradientTransform="matrix(1.0059 0 0 .99417 206.17 35.062)" y1="92.54" x1="45.448">
   <stop id="stop3750-7" offset="0"/>
   <stop id="stop3752-98" style="stop-opacity:.58824" offset="1"/>
  </linearGradient>
  <filter id="filter3174-6-5" color-interpolation-filters="sRGB">
   <feGaussianBlur id="feGaussianBlur3176-1-5" stdDeviation="1.71"/>
  </filter>
  <filter id="filter3174-9-5" color-interpolation-filters="sRGB">
   <feGaussianBlur id="feGaussianBlur3176-5-5" stdDeviation="1.71"/>
  </filter>
  <filter id="filter3174-1-1" color-interpolation-filters="sRGB">
   <feGaussianBlur id="feGaussianBlur3176-0-1" stdDeviation="1.71"/>
  </filter>
  <filter id="filter3174-6-7" color-interpolation-filters="sRGB">
   <feGaussianBlur id="feGaussianBlur3176-1-6" stdDeviation="1.71"/>
  </filter>
  <filter id="filter3174-9-1" color-interpolation-filters="sRGB">
   <feGaussianBlur id="feGaussianBlur3176-5-7" stdDeviation="1.71"/>
  </filter>
  <filter id="filter3174-1-13" color-interpolation-filters="sRGB">
   <feGaussianBlur id="feGaussianBlur3176-0-6" stdDeviation="1.71"/>
  </filter>
  <linearGradient id="linearGradient26518" y2="7.0165" gradientUnits="userSpaceOnUse" x2="45.448" gradientTransform="matrix(1.0059 0 0 .99417 332.3 -12.047)" y1="92.54" x1="45.448">
   <stop id="stop3750-6-81" offset="0"/>
   <stop id="stop3752-7-9" style="stop-opacity:.58824" offset="1"/>
  </linearGradient>
  <linearGradient id="linearGradient15636" y2="-144.51" gradientUnits="userSpaceOnUse" x2="142.6" y1="38.134" x1="-39.447">
   <stop id="stop15632" offset="0"/>
   <stop id="stop15634" style="stop-opacity:0" offset="1"/>
  </linearGradient>
  <linearGradient id="linearGradient15646" y2="63.384" gradientUnits="userSpaceOnUse" x2="99.325" y1="63.384" x1="9.2629">
   <stop id="stop15642" style="stop-color:#fff" offset="0"/>
   <stop id="stop15644" style="stop-color:#fff;stop-opacity:0" offset="1"/>
  </linearGradient>
  <filter id="filter3174-1-13-9" color-interpolation-filters="sRGB">
   <feGaussianBlur id="feGaussianBlur3176-0-6-6" stdDeviation="1.71"/>
  </filter>
  <filter id="filter3174-9-1-9" color-interpolation-filters="sRGB">
   <feGaussianBlur id="feGaussianBlur3176-5-7-4" stdDeviation="1.71"/>
  </filter>
  <filter id="filter3174-6-7-3" color-interpolation-filters="sRGB">
   <feGaussianBlur id="feGaussianBlur3176-1-6-5" stdDeviation="1.71"/>
  </filter>
  <filter id="filter3174-1-1-5" color-interpolation-filters="sRGB">
   <feGaussianBlur id="feGaussianBlur3176-0-1-1" stdDeviation="1.71"/>
  </filter>
  <filter id="filter3174-9-5-7" color-interpolation-filters="sRGB">
   <feGaussianBlur id="feGaussianBlur3176-5-5-7" stdDeviation="1.71"/>
  </filter>
  <filter id="filter3174-6-5-6" color-interpolation-filters="sRGB">
   <feGaussianBlur id="feGaussianBlur3176-1-5-1" stdDeviation="1.71"/>
  </filter>
  <filter id="filter3174-5-1" color-interpolation-filters="sRGB">
   <feGaussianBlur id="feGaussianBlur3176-41-9" stdDeviation="1.71"/>
  </filter>
  <filter id="filter3174-7-8" color-interpolation-filters="sRGB">
   <feGaussianBlur id="feGaussianBlur3176-4-0" stdDeviation="1.71"/>
  </filter>
  <filter id="filter3174-93-2" color-interpolation-filters="sRGB">
   <feGaussianBlur id="feGaussianBlur3176-14-0" stdDeviation="1.71"/>
  </filter>
  <filter id="filter3174-69-1" color-interpolation-filters="sRGB">
   <feGaussianBlur id="feGaussianBlur3176-2-3" stdDeviation="1.71"/>
  </filter>
  <filter id="filter3174-6-6" color-interpolation-filters="sRGB">
   <feGaussianBlur id="feGaussianBlur3176-1-68" stdDeviation="1.71"/>
  </filter>
  <filter id="filter3174-9-0" color-interpolation-filters="sRGB">
   <feGaussianBlur id="feGaussianBlur3176-5-0" stdDeviation="1.71"/>
  </filter>
  <filter id="filter3174-1-6" color-interpolation-filters="sRGB">
   <feGaussianBlur id="feGaussianBlur3176-0-16" stdDeviation="1.71"/>
  </filter>
  <linearGradient id="linearGradient39282" y2="7.0165" gradientUnits="userSpaceOnUse" x2="45.448" gradientTransform="matrix(1.0059 0 0 .99417 202.99 .72099)" y1="92.54" x1="45.448">
   <stop id="stop3750-6-81-2" offset="0"/>
   <stop id="stop3752-7-9-9" style="stop-opacity:.58824" offset="1"/>
  </linearGradient>
  <linearGradient id="linearGradient39312" y2="46.187" gradientUnits="userSpaceOnUse" x2="81.065" gradientTransform="matrix(0 -.99172 1.0682 0 75.529 141.22)" y1="46.187" x1="10.48">
   <stop id="stop3270-48-7" style="stop-color:#e4e4e4" offset="0"/>
   <stop id="stop3272-9-1" style="stop-color:#7a7a7a" offset="1"/>
  </linearGradient>
  <linearGradient id="linearGradient39317" y2="5.9877" gradientUnits="userSpaceOnUse" x2="48" gradientTransform="translate(76.863 47.83)" y1="90" x1="48">
   <stop id="stop3259-5" style="stop-color:#aaa" offset="0"/>
   <stop id="stop3261-2" style="stop-color:#d2d2d2" offset="1"/>
  </linearGradient>
  <linearGradient id="linearGradient39320" y2="5.9877" gradientUnits="userSpaceOnUse" x2="48" gradientTransform="translate(76.863 47.83)" y1="90" x1="48">
   <stop id="stop3702-8-5" style="stop-color:#212121" offset="0"/>
   <stop id="stop3704-2-0" style="stop-color:#444" offset="1"/>
  </linearGradient>
  <linearGradient id="linearGradient39323" y2="7.0165" gradientUnits="userSpaceOnUse" x2="45.448" gradientTransform="matrix(1.0059 0 0 .99417 76.863 47.83)" y1="92.54" x1="45.448">
   <stop id="stop3750-7-2" offset="0"/>
   <stop id="stop3752-98-2" style="stop-opacity:.58824" offset="1"/>
  </linearGradient>
  <linearGradient id="linearGradient39326" y2="7.0165" gradientUnits="userSpaceOnUse" x2="45.448" gradientTransform="matrix(1.0059 0 0 .99417 -371.05 48.931)" y1="92.54" x1="45.448">
   <stop id="stop3750-51-9" offset="0"/>
   <stop id="stop3752-15-4" style="stop-opacity:.58824" offset="1"/>
  </linearGradient>
  <linearGradient id="linearGradient39333" y2="7.0165" gradientUnits="userSpaceOnUse" x2="45.448" gradientTransform="matrix(1.0059 0 0 .99417 59.525 31.48)" y1="92.54" x1="45.448">
   <stop id="stop3750-9-3" offset="0"/>
   <stop id="stop3752-59-4" style="stop-opacity:.58824" offset="1"/>
  </linearGradient>
  <linearGradient id="linearGradient39336" y2="7.0165" gradientUnits="userSpaceOnUse" x2="45.448" gradientTransform="matrix(1.0059 0 0 .99417 -479.37 -131.92)" y1="92.54" x1="45.448">
   <stop id="stop3750-2-2" offset="0"/>
   <stop id="stop3752-1-3" style="stop-opacity:.58824" offset="1"/>
  </linearGradient>
  <linearGradient id="linearGradient4727">
   <stop id="stop4729" style="stop-color:#fff" offset="0"/>
   <stop id="stop4731" style="stop-color:#fff;stop-opacity:0" offset="1"/>
  </linearGradient>
  <linearGradient id="linearGradient4252">
   <stop id="stop4254" offset="0"/>
   <stop id="stop4256" style="stop-color:#6e6f71" offset="1"/>
  </linearGradient>
  <linearGradient id="linearGradient26730" y2="1034.9" xlink:href="#linearGradient4252" gradientUnits="userSpaceOnUse" x2="24.928" gradientTransform="matrix(2.591 0 0 2.591 116.63 -2600.1)" y1="1020.4" x1="10.339"/>
  <linearGradient id="linearGradient26732" y2="1025.7" gradientUnits="userSpaceOnUse" x2="22.113" gradientTransform="matrix(2.591 0 0 2.591 116.63 -2600.1)" y1="1035.8" x1="19.402">
   <stop id="stop4608" style="stop-color:#22849f" offset="0"/>
   <stop id="stop4610" style="stop-color:#38b549" offset="1"/>
  </linearGradient>
  <linearGradient id="linearGradient26734" y2="1035.3" xlink:href="#linearGradient4252" gradientUnits="userSpaceOnUse" x2="33.998" gradientTransform="matrix(2.591 0 0 2.591 116.63 -2600.1)" y1="1020.2" x1="18.91"/>
  <linearGradient id="linearGradient26736" y2="1035.3" xlink:href="#linearGradient4252" gradientUnits="userSpaceOnUse" x2="44.301" gradientTransform="matrix(2.591 0 0 2.591 116.63 -2600.1)" y1="1020" x1="28.978"/>
  <linearGradient id="linearGradient26738" y2="1025.7" gradientUnits="userSpaceOnUse" x2="34.801" gradientTransform="matrix(2.591 0 0 2.591 116.63 -2600.1)" y1="1035.7" x1="42.651">
   <stop id="stop4567" style="stop-color:#f7921e" offset="0"/>
   <stop id="stop4569" style="stop-color:#ae2e28" offset="1"/>
  </linearGradient>
  <linearGradient id="linearGradient26740" y2="19.605" xlink:href="#linearGradient4727" gradientUnits="userSpaceOnUse" x2="12.746" gradientTransform="matrix(2.6667 0 0 2.6667 126.46 .0000046882)" y1="26.704" x1="19.844"/>
  <linearGradient id="linearGradient26742" y2="1025.7" gradientUnits="userSpaceOnUse" x2="22.113" gradientTransform="matrix(2.591 0 0 2.591 145.6 -2600.1)" y1="1035.8" x1="19.402">
   <stop id="stop4598-65" style="stop-color:#d11f44" offset="0"/>
   <stop id="stop4600-6" style="stop-color:#532557" offset="1"/>
  </linearGradient>
  <linearGradient id="linearGradient26744" y2="20.331" xlink:href="#linearGradient4727" gradientUnits="userSpaceOnUse" x2="22.184" gradientTransform="matrix(2.6667 0 0 2.6667 126.46 .0000046882)" y1="27.349" x1="29.202"/>
  <linearGradient id="linearGradient26746" y2="18.883" xlink:href="#linearGradient4727" gradientUnits="userSpaceOnUse" x2="30.856" gradientTransform="matrix(2.6667 0 0 2.6667 126.46 .0000046882)" y1="31.164" x1="40.618"/>
 </defs>
 <rect id="rect892-2-7-8" style="stroke:url(#linearGradient15636);stroke-width:4.8445" transform="scale(1,-1)" ry="28.993" height="114.35" width="114.22" y="-121.16" x="6.8683"/>
 <g id="layer2" style="display:none" transform="translate(187.88 23.742)">
  <rect id="rect3745" style="opacity:.9;filter:url(#filter3174-1);fill:url(#ButtonShadow-9)" rx="6" ry="6" height="85" width="86" y="7" x="5"/>
 </g>
 <g id="layer2-2" style="display:none" transform="matrix(1.2166 0 0 1.2299 5.6049 3.1187)">
  <rect id="rect3745-5" style="opacity:.9;filter:url(#filter3174-9);fill:url(#ButtonShadow-9)" rx="6" ry="6" height="85" width="86" y="7" x="5"/>
 </g>
 <g id="layer2-8" style="display:none" transform="matrix(1.2166 0 0 1.2299 162.3 9.178)">
  <rect id="rect3745-8" style="opacity:.9;filter:url(#filter3174-6);fill:url(#ButtonShadow-9)" rx="6" ry="6" height="85" width="86" y="7" x="5"/>
 </g>
 <rect id="rect3745-9" style="opacity:.9;filter:url(#filter3174-69);display:none;fill:url(#linearGradient7212)" rx="6" ry="6" height="85" width="86" y="-137.69" x="-345.06"/>
 <rect id="rect3745-56" style="opacity:.9;filter:url(#filter3174-93);display:none;fill:url(#linearGradient7745)" rx="6" ry="6" height="85" width="86" y="25.712" x="193.83"/>
 <rect id="rect3745-6" style="opacity:.9;filter:url(#filter3174-7);display:none;fill:url(#linearGradient8354)" rx="6" ry="6" height="85" width="86" y="43.163" x="-236.74"/>
 <rect id="rect3745-7" style="opacity:.9;filter:url(#filter3174-5);display:none;fill:url(#linearGradient8971)" rx="6" ry="6" height="85" width="86" y="42.062" x="211.17"/>
 <rect id="rect2419" style="fill:url(#linearGradient8941);display:none" rx="6" ry="6" height="84" width="84" y="41.062" x="212.17"/>
 <path id="rect2476" d="m218.17 41.062c-3.324 0-6 2.676-6 6v72c0 3.324 2.676 6 6 6h72c3.324 0 6-2.676 6-6v-72c0-3.324-2.676-6-6-6h-72zm36 7c19.32 0 35 15.68 35 35s-15.68 35-35 35-35-15.68-35-35 15.68-35 35-35z" style="fill:url(#linearGradient8873);display:none"/>
 <path id="text3309" d="m232.74 51.754 1.2083-0.72757-0.50222-0.83402-0.66294 0.3992-0.33803-0.56136 0.66294-0.3992-0.84669-1.4061 0.55067-0.33159 2.025 3.3628-1.7589 1.0592-0.33803-0.56136m-1.435-1.1358 0.95366-0.62836 0.36397 0.55239-0.95366 0.62836-0.36397-0.55239m-1.0932 3.0146 0.94049-0.70144c0.23679-0.17661 0.25942-0.39331 0.0679-0.65011-0.20481-0.26766-0.40018-0.33475-0.58609-0.20128l-0.32017 0.23879c-0.54028 0.40295-1.0243 0.31761-1.4522-0.25602l-0.0821-0.11006c-0.4328-0.5803-0.33403-1.1055 0.29629-1.5756l0.97552-0.72756 0.39176 0.52528-1.0656 0.79472c-0.23012 0.17163-0.25315 0.38084-0.0691 0.62764l0.0112 0.01501c0.20148 0.27014 0.4006 0.33183 0.59737 0.18508l0.34518-0.25744c0.51609-0.37972 0.99551-0.27276 1.4383 0.32089l0.0858 0.11506c0.41539 0.55696 0.30959 1.0692-0.31741 1.5369l-0.86545 0.64547-0.39176-0.52528m-0.87697 0.70684-0.77538-0.89708-0.55714 0.48156c-0.17627 0.15236-0.17734 0.32926-0.003 0.53071l0.26934 0.31162c0.16324 0.18886 0.333 0.20711 0.50927 0.05476l0.55713-0.48156m-1.2039-1.3928-0.93455-1.0812 0.4816-0.41626 2.5669 2.9698-1.0482 0.90598c-0.49648 0.41812-0.96373 0.3738-1.4018-0.13297l-0.26526-0.3069c-0.46796-0.5414-0.45641-1.0243 0.0346-1.4487l0.56658-0.48972m-1.7071 3.8771c0.0823 0.08246 0.17202 0.07521 0.26921-0.02176l0.54341-0.54216c0.0913-0.0911 0.0958-0.17788 0.0135-0.26034l-1.5648-1.5684c-0.0558-0.05596-0.11023-0.08397-0.16318-0.08403-0.053-0.000061-0.0956 0.01607-0.12803 0.0484l-0.592 0.59065c-0.0324 0.03232-0.0413 0.0735-0.0266 0.12353 0.0117 0.05297 0.0396 0.10154 0.0837 0.14572l1.5648 1.5684m-2.108-1.2115c-0.35262-0.35932-0.35958-0.70795-0.0209-1.0459l0.70245-0.70084c0.34165-0.34087 0.68438-0.33901 1.0282 0.0056l1.7543 1.7583c0.33793 0.3387 0.34785 0.66674 0.0298 0.98411l-0.74222 0.74052c-0.33871 0.33793-0.67703 0.33754-1.015-0.0012l-1.7367-1.7407m0.31096 3.4923 0.52599-0.6012-2.4752-2.1656 0.41915-0.47908 2.4752 2.1656 0.48079-0.54954 0.49317 0.43148-1.4259 1.6298-0.49318-0.43148" style="fill:#666;display:none"/>
 <path id="text3313" d="m266.91 121.92-1.1775 0.35354c-0.56185 0.1687-0.9349-0.0538-1.1192-0.66743l-0.51686-1.7214c-0.18105-0.58855 0.0438-0.97535 0.6746-1.1604l1.0819-0.32483 0.11665 0.38852-1.2014 0.36072c-0.30284 0.0909-0.4076 0.2918-0.31428 0.60261l0.53839 1.7931c0.0969 0.32277 0.28085 0.44347 0.55181 0.36211l0.87267-0.26201-0.35534-1.1835-0.76508 0.22972-0.11844-0.3945 1.1416-0.34277 0.59044 1.9665m2.3366-0.85474-0.35704 0.13207-0.62789-1.6974c-0.10825-0.29266-0.3009-0.38774-0.57795-0.28527l-0.40972 0.15156c-0.31217 0.11548-0.40547 0.34295-0.27989 0.68243l0.6019 1.6272-0.36289 0.13424-0.931-2.5169 0.36289-0.13423 0.11259 0.30436c0.0133-0.24001 0.14546-0.40425 0.39664-0.49273l0.46825-0.17321c0.44874-0.16599 0.76693 0.005 0.95458 0.51192l0.64953 1.756m2.0679-1.8274c0.22499 0.51466 0.11141 0.87282-0.34075 1.0745l-0.59845 0.26693c-0.45216 0.20168-0.79263 0.046-1.0214-0.46691l-0.41438-0.92902c-0.22371-0.50156-0.10949-0.85317 0.34267-1.0549l0.59845-0.26693c0.45216-0.20167 0.792-0.0526 1.0195 0.44728l0.41438 0.92901m-0.3915 0.0721-0.33557-0.75233c-0.14067-0.31537-0.3459-0.41289-0.61567-0.29256l-0.44456 0.19829c-0.26598 0.11863-0.33053 0.33648-0.19366 0.65355l0.33556 0.75233c0.14026 0.32467 0.34718 0.42599 0.62076 0.30397l0.44456-0.1983c0.26977-0.12032 0.33263-0.34198 0.18858-0.66495m4.4635-1.3016-0.33861 0.18723-0.83953-1.5183c-0.17516-0.31676-0.39199-0.40367-0.65049-0.26073l-0.31677 0.17515c-0.29856 0.16509-0.35379 0.40482-0.1657 0.71918l0.83651 1.5128-0.33861 0.18723-0.85765-1.551c-0.16307-0.29491-0.37568-0.36989-0.63783-0.22494l-0.27854 0.15401c-0.29855 0.16509-0.35704 0.41613-0.17546 0.7531l0.82443 1.491-0.33861 0.18723-1.2986-2.3484 0.33861-0.18723 0.17818 0.32222c-0.046-0.25507 0.0585-0.45308 0.31335-0.59401l0.38776-0.21441c0.29492-0.16307 0.524-0.13999 0.68725 0.0693-0.0504-0.27166 0.061-0.48298 0.33404-0.63398l0.42599-0.23555c0.40779-0.22548 0.75463-0.0797 1.0405 0.43729l0.86973 1.5729m1.4835-2.3851-1.4004 0.93715 0.1753 0.27317c0.15386 0.22243 0.3328 0.26539 0.5368 0.12886l1.0166-0.68029 0.22908 0.34231-1.0114 0.67682c-0.42415 0.27884-0.78143 0.19755-1.0718-0.24389l-0.60218-0.88861c-0.30081-0.44949-0.23281-0.8229 0.204-1.1202l0.46507-0.30372c0.40109-0.26841 0.74857-0.18306 1.0424 0.25606l0.41651 0.62238m-1.626 0.60002 1.0944-0.73236-0.18567-0.26622c-0.14695-0.22706-0.31724-0.2758-0.51087-0.14623l-0.48234 0.3228c-0.22129 0.14809-0.25155 0.33104-0.0908 0.54885l0.1753 0.27316m2.7319-1.7888 0.88842 1.1194-0.30308 0.24053-2.2851-2.8792 0.98745-0.78367c0.4458-0.34848 0.85233-0.29135 1.2196 0.17141l0.25217 0.31775c0.39313 0.49535 0.36809 0.9189-0.0751 1.2706l-0.68437 0.54314m-1.1445-1.4421 0.8923 1.1243 0.6746-0.53538c0.24767-0.19656 0.26288-0.43172 0.0456-0.70546l-0.25606-0.32264c-0.2069-0.2607-0.4342-0.29278-0.68188-0.0962l-0.67459 0.53538m5.1206-0.0691-0.28336 0.25422-1.2086-1.3471c-0.20838-0.23226-0.4225-0.24976-0.64238-0.0525l-0.32517 0.29173c-0.24775 0.22227-0.25077 0.46812-0.009 0.73754l1.1586 1.2914-0.28801 0.25839-2.463-2.7454 0.28801-0.25838 0.88768 0.98944c-0.076-0.22803-0.0136-0.42941 0.18743-0.60413l0.37158-0.33339c0.35614-0.31951 0.7148-0.27797 1.076 0.12462l1.2503 1.3936m1.1809-2.3929c0.3982 0.39614 0.42401 0.77099 0.0774 1.1246l-0.4587 0.46797c-0.34657 0.35357-0.72041 0.33377-1.1215-0.0594l-0.72645-0.71207c-0.3922-0.38444-0.41501-0.75344-0.0684-1.107l0.4587-0.46796c0.34657-0.35357 0.71741-0.33962 1.1125 0.0418l0.72645 0.71207m-0.3377 0.21079-0.58829-0.57665c-0.24661-0.24172-0.4733-0.2571-0.68008-0.0462l-0.34075 0.34763c-0.20386 0.20799-0.18395 0.43433 0.0597 0.67902l0.5883 0.57665c0.24963 0.25052 0.4793 0.26882 0.68899 0.0549l0.34074-0.34763c0.20678-0.21095 0.18389-0.4402-0.0687-0.68775m1.9028-0.71023-0.0457 0.0512c-0.40418 0.45345-0.83299 0.47808-1.2864 0.0739l-2.0638-1.8396 0.25746-0.28884 0.74073 0.66025 0.39449-0.44258 0.30282 0.26992-0.39449 0.44258 1.0296 0.9177c0.24536 0.2187 0.49953 0.18052 0.76253-0.11453l0.30281 0.26991m0.8518-2.3647c0.43386 0.35672 0.49499 0.72746 0.1834 1.1122l-0.41241 0.50923c-0.3116 0.38475-0.68563 0.40037-1.1221 0.0469l-0.79052-0.64021c-0.42678-0.34564-0.48437-0.71083-0.17277-1.0956l0.4124-0.50923c0.3116-0.38474 0.68209-0.40592 1.1115-0.0635l0.79052 0.64021m-0.31626 0.24177-0.64018-0.51845c-0.26835-0.21733-0.49548-0.21122-0.68139 0.0183l-0.30636 0.37828c-0.18329 0.22633-0.14207 0.44977 0.12366 0.67034l0.64018 0.51845c0.2722 0.2258 0.50256 0.22231 0.69109-0.0105l0.30636-0.37828c0.18591-0.22956 0.14146-0.45562-0.13336-0.67819m3.2078-2.9277-0.21522 0.32155-2.5516-1.7078 0.6237 0.62772 1.5461 1.6506-0.24299 0.36304-2.0877-0.79656-0.83712-0.34252 2.5465 1.7044-0.21869 0.32674-3.0547-2.0446 0.3263-0.48751 2.7933 1.1111 0.37876 0.16339-0.28336-0.27226-2.1042-2.1744 0.32629-0.48751 3.0547 2.0446m1.2396-2.1469-0.67404 1.1746c-0.24435 0.42581-0.59721 0.50154-1.0586 0.22719-0.42942-0.24642-0.51781-0.58976-0.26517-1.03l0.46282-0.80651-0.21421-0.11573c-0.27733-0.16874-0.49261-0.11959-0.64585 0.14744l-0.54047 0.94183-0.35183-0.2019 0.54278-0.93331c0.30434-0.49691 0.71038-0.59009 1.2181-0.27954l1.5264 0.87594m-0.54442 0.1337-0.63871-0.36653-0.49699 0.86605c-0.10407 0.18972-0.0497 0.34566 0.16325 0.46784 0.2093 0.1201 0.36882 0.0845 0.47857-0.10672l0.49388-0.86064m1.7374-2.5126-0.16821 0.34151-1.6236-0.79967c-0.27992-0.13787-0.48515-0.07431-0.61567 0.19068l-0.19302 0.39189c-0.14707 0.29859-0.0582 0.52785 0.26646 0.68779l1.5564 0.76658-0.17097 0.34711-2.4074-1.1857 0.17096-0.3471 0.29112 0.14339c-0.15553-0.18328-0.1726-0.39343-0.0512-0.63046l0.2206-0.44788c0.21142-0.42922 0.55972-0.52433 1.0449-0.28535l1.6796 0.82725m0.96638-2.2875-0.52024 1.2503c-0.18859 0.45327-0.52905 0.57298-1.0214 0.35912-0.45711-0.19019-0.58817-0.51961-0.39319-0.98824l0.35722-0.85852-0.22712-0.08774c-0.29642-0.13234-0.50376-0.05639-0.62204 0.22786l-0.41714 1.0026-0.37453-0.15583 0.42051-0.99441c0.23913-0.53138 0.63014-0.67512 1.173-0.4312l1.6249 0.67606m-0.52317 0.20141-0.6799-0.28289-0.38358 0.9219c-0.0793 0.20134-0.006 0.34917 0.22105 0.44346 0.22279 0.0927 0.37654 0.03726 0.46125-0.16633l0.38118-0.91614m1.7998-0.82665-0.40115-0.13844 0.2789-0.80821c0.0624-0.18091 0.015-0.29851-0.14233-0.3528l-0.28907-0.09975-0.35219 1.0206c-0.13287 0.37227-0.40123 0.49312-0.8051 0.36255l-1.3392-0.46212c-0.39722-0.13708-0.52994-0.40294-0.39816-0.79759l0.4723-1.3687 2.8199 0.97311c0.4352 0.15458 0.58833 0.41869 0.4594 0.79231l-0.30334 0.87901m-2.7128-2.1443-0.32979 0.9557c-0.0611 0.17698 0.0106 0.30076 0.21515 0.37133l1.0973 0.37866c0.24777 0.0855 0.40572 0.01678 0.47386-0.20618l0.30741-0.8908-1.7639-0.6087m1.8764-2.391-0.44892 1.6241 0.31113 0.09248c0.26176 0.06804 0.42535-0.01624 0.49074-0.25284l0.32589-1.179 0.397 0.10974-0.32422 1.173c-0.13924 0.48813-0.46295 0.6598-0.97113 0.51502l-1.0363-0.27996c-0.52132-0.1441-0.71359-0.47134-0.57683-0.98174l0.15399-0.53369c0.12858-0.46517 0.44751-0.62737 0.9568-0.4866l0.72182 0.19952m-0.83991 1.516 0.35083-1.2692-0.31446-0.08044c-0.25954-0.07606-0.42036-0.0018-0.48243 0.22276l-0.15463 0.55941c-0.0709 0.25665 0.0256 0.41498 0.28957 0.475l0.31112 0.09247m0.1259-3.5639-0.1143 0.52439c-0.0735 0.3374 0.0771 0.54483 0.45199 0.62228l1.6646 0.36284-0.0824 0.37805-2.622-0.57151 0.0824-0.37805 0.33537 0.0731c-0.21205-0.1016-0.27821-0.33532-0.19846-0.70118l0.0864-0.39634 0.39634 0.08639" style="fill:#666;display:none"/>
 <path id="path2522" style="stroke:url(#linearGradient8868);stroke-linecap:square;stroke-width:2;display:none;fill:none" d="m254.17 48.062a35 35 0 0 1 0 70 35 35 0 1 1 0 -70z"/>
 <g id="layer2-86" style="display:none" transform="translate(-225.35 -4.4159)">
  <rect id="rect3745-0" style="opacity:.9;filter:url(#filter3174-1-1);fill:url(#ButtonShadow-9)" rx="6" ry="6" height="85" width="86" y="7" x="5"/>
 </g>
 <g id="layer2-2-0" style="display:none" transform="matrix(1.2166 0 0 1.2299 -407.62 -25.04)">
  <rect id="rect3745-5-7" style="opacity:.9;filter:url(#filter3174-9-5);fill:url(#ButtonShadow-9)" rx="6" ry="6" height="85" width="86" y="7" x="5"/>
 </g>
 <g id="layer2-8-5" style="display:none" transform="matrix(1.2166 0 0 1.2299 -250.92 -18.98)">
  <rect id="rect3745-8-8" style="opacity:.9;filter:url(#filter3174-6-5);fill:url(#ButtonShadow-9)" rx="6" ry="6" height="85" width="86" y="7" x="5"/>
 </g>
 <rect id="rect3745-05" style="opacity:.9;filter:url(#filter3174-1-13);display:none;fill:url(#linearGradient26518)" rx="6" ry="6" height="85" width="86" y="-5.0468" x="337.3"/>
 <rect id="rect3745-5-4" style="opacity:.9;filter:url(#filter3174-9-1);display:none;fill:url(#ButtonShadow-9)" transform="matrix(1.2166 0 0 1.2299 150.03 -32.671)" rx="6" ry="6" height="85" width="86" y="7" x="5"/>
 <rect id="rect3745-8-2" style="opacity:.9;filter:url(#filter3174-6-7);display:none;fill:url(#ButtonShadow-9)" transform="matrix(1.2166 0 0 1.2299 306.72 -26.611)" rx="6" ry="6" height="85" width="86" y="7" x="5"/>
 <path id="path1187" style="opacity:.33131;fill:url(#linearGradient15646)" d="m37.746 9.8724c-18.285 0.0429-28.473 15.047-27.577 25.928-0.3972 19.268 0.287 38.986 0 58.409 12.995 18.091 72.67-72.226 89.156-84.288-0.222-0.0258-0.454-0.0301-0.682-0.0301-41.05 0.3821-23.353-0.0185-60.897-0.0185z"/>
 <g id="layer2-1" style="display:none" transform="translate(58.573 36.51)">
  <rect id="rect3745-63" style="opacity:.9;filter:url(#filter3174-1-6);fill:url(#ButtonShadow-9)" rx="6" ry="6" height="85" width="86" y="7" x="5"/>
 </g>
 <g id="layer2-2-8" style="display:none" transform="matrix(1.2166 0 0 1.2299 -123.7 15.887)">
  <rect id="rect3745-5-6" style="opacity:.9;filter:url(#filter3174-9-0);fill:url(#ButtonShadow-9)" rx="6" ry="6" height="85" width="86" y="7" x="5"/>
 </g>
 <g id="layer2-8-3" style="display:none" transform="matrix(1.2166 0 0 1.2299 32.997 21.946)">
  <rect id="rect3745-8-4" style="opacity:.9;filter:url(#filter3174-6-6);fill:url(#ButtonShadow-9)" rx="6" ry="6" height="85" width="86" y="7" x="5"/>
 </g>
 <rect id="rect3745-9-4" style="opacity:.9;filter:url(#filter3174-69-1);display:none;fill:url(#linearGradient39336)" rx="6" ry="6" height="85" width="86" y="-124.92" x="-474.37"/>
 <rect id="rect3745-56-1" style="opacity:.9;filter:url(#filter3174-93-2);display:none;fill:url(#linearGradient39333)" rx="6" ry="6" height="85" width="86" y="38.48" x="64.525"/>
 <rect id="rect3745-6-5" style="opacity:.9;filter:url(#filter3174-7-8);display:none;fill:url(#linearGradient39326)" rx="6" ry="6" height="85" width="86" y="55.931" x="-366.05"/>
 <rect id="rect3745-7-1" style="opacity:.9;filter:url(#filter3174-5-1);display:none;fill:url(#linearGradient39323)" rx="6" ry="6" height="85" width="86" y="54.83" x="81.863"/>
 <rect id="rect2419-7" style="fill:url(#linearGradient39320);display:none" rx="6" ry="6" height="84" width="84" y="53.83" x="82.863"/>
 <path id="rect2476-3" d="m88.863 53.83c-3.324 0-6 2.676-6 6v72c0 3.324 2.676 6 6 6h72c3.324 0 6-2.676 6-6v-72c0-3.324-2.676-6-6-6h-72zm36 7c19.32 0 35 15.68 35 35s-15.68 35-35 35-35-15.68-35-35 15.68-35 35-35z" style="fill:url(#linearGradient39317);display:none"/>
 <path id="text3309-3" d="m103.44 64.522 1.2083-0.72757-0.50222-0.83402-0.66294 0.3992-0.33803-0.56136 0.66294-0.3992-0.84669-1.4061 0.55067-0.33159 2.025 3.3628-1.7589 1.0592-0.33803-0.56136m-1.435-1.1358 0.95366-0.62836 0.36397 0.55239-0.95366 0.62836-0.36397-0.55239m-1.0932 3.0146 0.94049-0.70144c0.23679-0.17661 0.25942-0.39331 0.0679-0.65011-0.20481-0.26766-0.40018-0.33475-0.58609-0.20128l-0.32017 0.23879c-0.54028 0.40295-1.0243 0.31761-1.4522-0.25602l-0.0821-0.11006c-0.4328-0.5803-0.33403-1.1055 0.29629-1.5756l0.97552-0.72756 0.39176 0.52528-1.0656 0.79472c-0.23012 0.17163-0.25315 0.38084-0.0691 0.62764l0.0112 0.01501c0.20148 0.27014 0.4006 0.33183 0.59737 0.18508l0.34518-0.25744c0.51609-0.37972 0.99551-0.27276 1.4383 0.32089l0.0858 0.11506c0.41539 0.55696 0.30959 1.0692-0.31741 1.5369l-0.86545 0.64547-0.39176-0.52528m-0.87697 0.70684-0.77538-0.89708-0.55714 0.48156c-0.17627 0.15236-0.17734 0.32926-0.003 0.53071l0.26934 0.31162c0.16324 0.18886 0.333 0.20711 0.50927 0.05476l0.55713-0.48156m-1.2039-1.3928-0.93455-1.0812 0.4816-0.41626 2.5669 2.9698-1.0482 0.90598c-0.49648 0.41812-0.96373 0.3738-1.4018-0.13297l-0.26526-0.3069c-0.46796-0.5414-0.45641-1.0243 0.0346-1.4487l0.56658-0.48972m-1.7071 3.8771c0.0823 0.08246 0.17202 0.07521 0.26921-0.02176l0.54341-0.54216c0.0913-0.0911 0.0958-0.17788 0.0135-0.26034l-1.5648-1.5684c-0.0558-0.05596-0.11023-0.08397-0.16318-0.08403-0.053-0.000061-0.0956 0.01607-0.12803 0.0484l-0.592 0.59065c-0.0324 0.03232-0.0413 0.0735-0.0266 0.12353 0.0117 0.05297 0.0396 0.10154 0.0837 0.14572l1.5648 1.5684m-2.108-1.2115c-0.35262-0.35932-0.35958-0.70795-0.0209-1.0459l0.70245-0.70084c0.34165-0.34087 0.68438-0.33901 1.0282 0.0056l1.7543 1.7583c0.33793 0.3387 0.34785 0.66674 0.0298 0.98411l-0.74222 0.74052c-0.33871 0.33793-0.67703 0.33754-1.015-0.0012l-1.7367-1.7407m0.31096 3.4923 0.52599-0.6012-2.4752-2.1656 0.41915-0.47908 2.4752 2.1656 0.48079-0.54954 0.49317 0.43148-1.4259 1.6298-0.49318-0.43148" style="fill:#666;display:none"/>
 <path id="text3313-5" d="m137.61 134.69-1.1775 0.35354c-0.56185 0.1687-0.9349-0.0538-1.1192-0.66743l-0.51686-1.7214c-0.18105-0.58855 0.0438-0.97535 0.6746-1.1604l1.0819-0.32483 0.11665 0.38852-1.2014 0.36072c-0.30284 0.0909-0.4076 0.2918-0.31428 0.60261l0.53839 1.7931c0.0969 0.32277 0.28085 0.44347 0.55181 0.36211l0.87267-0.26201-0.35534-1.1835-0.76508 0.22972-0.11844-0.3945 1.1416-0.34277 0.59044 1.9665m2.3366-0.85474-0.35704 0.13207-0.62789-1.6974c-0.10825-0.29266-0.3009-0.38774-0.57795-0.28527l-0.40972 0.15156c-0.31217 0.11548-0.40547 0.34295-0.27989 0.68243l0.6019 1.6272-0.36289 0.13424-0.931-2.5169 0.36289-0.13423 0.11259 0.30436c0.0133-0.24001 0.14546-0.40425 0.39664-0.49273l0.46825-0.17321c0.44874-0.16599 0.76693 0.005 0.95458 0.51192l0.64953 1.756m2.0679-1.8274c0.22499 0.51466 0.11141 0.87282-0.34075 1.0745l-0.59845 0.26693c-0.45216 0.20168-0.79263 0.046-1.0214-0.46691l-0.41438-0.92902c-0.22371-0.50156-0.10949-0.85317 0.34267-1.0549l0.59845-0.26693c0.45216-0.20167 0.792-0.0526 1.0195 0.44728l0.41438 0.92901m-0.3915 0.0721-0.33557-0.75233c-0.14067-0.31537-0.3459-0.41289-0.61567-0.29256l-0.44456 0.19829c-0.26598 0.11863-0.33053 0.33648-0.19366 0.65355l0.33556 0.75233c0.14026 0.32467 0.34718 0.42599 0.62076 0.30397l0.44456-0.1983c0.26977-0.12032 0.33263-0.34198 0.18858-0.66495m4.4635-1.3016-0.33861 0.18723-0.83953-1.5183c-0.17516-0.31676-0.39199-0.40367-0.65049-0.26073l-0.31677 0.17515c-0.29856 0.16509-0.35379 0.40482-0.1657 0.71918l0.83651 1.5128-0.33861 0.18723-0.85765-1.551c-0.16307-0.29491-0.37568-0.36989-0.63783-0.22494l-0.27854 0.15401c-0.29855 0.16509-0.35704 0.41613-0.17546 0.7531l0.82443 1.491-0.33861 0.18723-1.2986-2.3484 0.33861-0.18723 0.17818 0.32222c-0.046-0.25507 0.0585-0.45308 0.31335-0.59401l0.38776-0.21441c0.29492-0.16307 0.524-0.13999 0.68725 0.0693-0.0504-0.27166 0.061-0.48298 0.33404-0.63398l0.42599-0.23555c0.40779-0.22548 0.75463-0.0797 1.0405 0.43729l0.86973 1.5729m1.4835-2.3851-1.4004 0.93715 0.1753 0.27317c0.15386 0.22243 0.3328 0.26539 0.5368 0.12886l1.0166-0.68029 0.22908 0.34231-1.0114 0.67682c-0.42415 0.27884-0.78143 0.19755-1.0718-0.24389l-0.60218-0.88861c-0.30081-0.44949-0.23281-0.8229 0.204-1.1202l0.46507-0.30372c0.40109-0.26841 0.74857-0.18306 1.0424 0.25606l0.41651 0.62238m-1.626 0.60002 1.0944-0.73236-0.18567-0.26622c-0.14695-0.22706-0.31724-0.2758-0.51087-0.14623l-0.48234 0.3228c-0.22129 0.14809-0.25155 0.33104-0.0908 0.54885l0.1753 0.27316m2.7319-1.7888 0.88842 1.1194-0.30308 0.24053-2.2851-2.8792 0.98745-0.78367c0.4458-0.34848 0.85233-0.29135 1.2196 0.17141l0.25217 0.31775c0.39313 0.49535 0.36809 0.9189-0.0751 1.2706l-0.68437 0.54314m-1.1445-1.4421 0.8923 1.1243 0.6746-0.53538c0.24767-0.19656 0.26288-0.43172 0.0456-0.70546l-0.25606-0.32264c-0.2069-0.2607-0.4342-0.29278-0.68188-0.0962l-0.67459 0.53538m5.1206-0.0691-0.28336 0.25422-1.2086-1.3471c-0.20838-0.23226-0.4225-0.24976-0.64238-0.0525l-0.32517 0.29173c-0.24775 0.22227-0.25077 0.46812-0.009 0.73754l1.1586 1.2914-0.28801 0.25839-2.463-2.7454 0.28801-0.25838 0.88768 0.98944c-0.076-0.22803-0.0136-0.42941 0.18743-0.60413l0.37158-0.33339c0.35614-0.31951 0.7148-0.27797 1.076 0.12462l1.2503 1.3936m1.1809-2.3929c0.3982 0.39614 0.42401 0.77099 0.0774 1.1246l-0.4587 0.46797c-0.34657 0.35357-0.72041 0.33377-1.1215-0.0594l-0.72645-0.71207c-0.3922-0.38444-0.41501-0.75344-0.0684-1.107l0.4587-0.46796c0.34657-0.35357 0.71741-0.33962 1.1125 0.0418l0.72645 0.71207m-0.3377 0.21079-0.58829-0.57665c-0.24661-0.24172-0.4733-0.2571-0.68008-0.0462l-0.34075 0.34763c-0.20386 0.20799-0.18395 0.43433 0.0597 0.67902l0.5883 0.57665c0.24963 0.25052 0.4793 0.26882 0.68899 0.0549l0.34074-0.34763c0.20678-0.21095 0.18389-0.4402-0.0687-0.68775m1.9028-0.71023-0.0457 0.0512c-0.40418 0.45345-0.83299 0.47808-1.2864 0.0739l-2.0638-1.8396 0.25746-0.28884 0.74073 0.66025 0.39449-0.44258 0.30282 0.26992-0.39449 0.44258 1.0296 0.9177c0.24536 0.2187 0.49953 0.18052 0.76253-0.11453l0.30281 0.26991m0.8518-2.3647c0.43386 0.35672 0.49499 0.72746 0.1834 1.1122l-0.41241 0.50923c-0.3116 0.38475-0.68563 0.40037-1.1221 0.0469l-0.79052-0.64021c-0.42678-0.34564-0.48437-0.71083-0.17277-1.0956l0.4124-0.50923c0.3116-0.38474 0.68209-0.40592 1.1115-0.0635l0.79052 0.64021m-0.31626 0.24177-0.64018-0.51845c-0.26835-0.21733-0.49548-0.21122-0.68139 0.0183l-0.30636 0.37828c-0.18329 0.22633-0.14207 0.44977 0.12366 0.67034l0.64018 0.51845c0.2722 0.2258 0.50256 0.22231 0.69109-0.0105l0.30636-0.37828c0.18591-0.22956 0.14146-0.45562-0.13336-0.67819m3.2078-2.9277-0.21522 0.32155-2.5516-1.7078 0.6237 0.62772 1.5461 1.6506-0.24299 0.36304-2.0877-0.79656-0.83712-0.34252 2.5465 1.7044-0.21869 0.32674-3.0547-2.0446 0.3263-0.48751 2.7933 1.1111 0.37876 0.16339-0.28336-0.27226-2.1042-2.1744 0.32629-0.48751 3.0547 2.0446m1.2396-2.1469-0.67404 1.1746c-0.24435 0.42581-0.59721 0.50154-1.0586 0.22719-0.42942-0.24642-0.51781-0.58976-0.26517-1.03l0.46282-0.80651-0.21421-0.11573c-0.27733-0.16874-0.49261-0.11959-0.64585 0.14744l-0.54047 0.94183-0.35183-0.2019 0.54278-0.93331c0.30434-0.49691 0.71038-0.59009 1.2181-0.27954l1.5264 0.87594m-0.54442 0.1337-0.63871-0.36653-0.49699 0.86605c-0.10407 0.18972-0.0497 0.34566 0.16325 0.46784 0.2093 0.1201 0.36882 0.0845 0.47857-0.10672l0.49388-0.86064m1.7374-2.5126-0.16821 0.34151-1.6236-0.79968c-0.27992-0.13787-0.48515-0.0743-0.61567 0.19069l-0.19302 0.39189c-0.14707 0.29859-0.0582 0.52785 0.26646 0.68779l1.5564 0.76658-0.17097 0.34711-2.4074-1.1857 0.17096-0.3471 0.29112 0.14339c-0.15553-0.18328-0.1726-0.39343-0.0512-0.63046l0.2206-0.44789c0.21142-0.42921 0.55972-0.52433 1.0449-0.28535l1.6796 0.82725m0.96638-2.2875-0.52024 1.2503c-0.18859 0.45327-0.52905 0.57298-1.0214 0.35912-0.45711-0.19019-0.58817-0.51961-0.39319-0.98824l0.35722-0.85852-0.22712-0.0877c-0.29642-0.13235-0.50376-0.0564-0.62204 0.22786l-0.41714 1.0026-0.37453-0.15583 0.42051-0.99442c0.23913-0.53138 0.63014-0.67511 1.173-0.4312l1.6249 0.67607m-0.52317 0.2014-0.6799-0.28289-0.38358 0.92191c-0.0793 0.20134-0.006 0.34916 0.22105 0.44346 0.22279 0.0927 0.37654 0.0373 0.46125-0.16633l0.38118-0.91615m1.7998-0.82665-0.40115-0.13843 0.2789-0.80821c0.0624-0.18092 0.015-0.29852-0.14233-0.35281l-0.28907-0.0998-0.35219 1.0206c-0.13287 0.37227-0.40123 0.49312-0.8051 0.36256l-1.3392-0.46213c-0.39722-0.13707-0.52994-0.40294-0.39816-0.79759l0.4723-1.3686 2.8199 0.97311c0.4352 0.15458 0.58833 0.41869 0.4594 0.79231l-0.30334 0.87901m-2.7128-2.1443-0.32979 0.9557c-0.0611 0.17698 0.0106 0.30076 0.21515 0.37133l1.0973 0.37866c0.24777 0.0855 0.40572 0.0168 0.47386-0.20618l0.30741-0.89081-1.7639-0.6087m1.8764-2.391-0.44892 1.6241 0.31113 0.0925c0.26176 0.068 0.42535-0.0162 0.49074-0.25284l0.32589-1.179 0.397 0.10973-0.32422 1.173c-0.13924 0.48812-0.46295 0.6598-0.97113 0.51501l-1.0363-0.27996c-0.52132-0.1441-0.71359-0.47135-0.57683-0.98174l0.15399-0.53369c0.12858-0.46517 0.44751-0.62737 0.9568-0.4866l0.72182 0.19952m-0.83991 1.516 0.35083-1.2692-0.31446-0.0804c-0.25954-0.0761-0.42036-0.002-0.48243 0.22276l-0.15463 0.55941c-0.0709 0.25665 0.0256 0.41499 0.28957 0.475l0.31112 0.0925m0.1259-3.5639-0.1143 0.52439c-0.0735 0.3374 0.0771 0.54483 0.45199 0.62228l1.6646 0.36284-0.0824 0.37805-2.622-0.57151 0.0824-0.37805 0.33537 0.0731c-0.21205-0.1016-0.27821-0.33531-0.19846-0.70117l0.0864-0.39634 0.39634 0.0864" style="fill:#666;display:none"/>
 <path id="path2522-4" style="stroke:url(#linearGradient39312);stroke-linecap:square;stroke-width:2;display:none;fill:none" d="m124.86 60.83a35 35 0 0 1 0 70 35 35 0 1 1 0 -70z"/>
 <g id="layer2-86-1" style="display:none" transform="translate(-354.65 8.3519)">
  <rect id="rect3745-0-8" style="opacity:.9;filter:url(#filter3174-1-1-5);fill:url(#ButtonShadow-9)" rx="6" ry="6" height="85" width="86" y="7" x="5"/>
 </g>
 <g id="layer2-2-0-7" style="display:none" transform="matrix(1.2166 0 0 1.2299 -536.93 -12.272)">
  <rect id="rect3745-5-7-5" style="opacity:.9;filter:url(#filter3174-9-5-7);fill:url(#ButtonShadow-9)" rx="6" ry="6" height="85" width="86" y="7" x="5"/>
 </g>
 <g id="layer2-8-5-6" style="display:none" transform="matrix(1.2166 0 0 1.2299 -380.23 -6.2124)">
  <rect id="rect3745-8-8-5" style="opacity:.9;filter:url(#filter3174-6-5-6);fill:url(#ButtonShadow-9)" rx="6" ry="6" height="85" width="86" y="7" x="5"/>
 </g>
 <rect id="rect3745-05-4" style="opacity:.9;filter:url(#filter3174-1-13-9);display:none;fill:url(#linearGradient39282)" rx="6" ry="6" height="85" width="86" y="7.721" x="207.99"/>
 <rect id="rect3745-5-4-5" style="opacity:.9;filter:url(#filter3174-9-1-9);display:none;fill:url(#ButtonShadow-9)" transform="matrix(1.2166 0 0 1.2299 20.72 -19.903)" rx="6" ry="6" height="85" width="86" y="7" x="5"/>
 <rect id="rect3745-8-2-3" style="opacity:.9;filter:url(#filter3174-6-7-3);display:none;fill:url(#ButtonShadow-9)" transform="matrix(1.2166 0 0 1.2299 177.42 -13.843)" rx="6" ry="6" height="85" width="86" y="7" x="5"/>
 <g id="g26717" transform="translate(-126.48 -.010953)">
  <path id="path4259" style="fill:url(#linearGradient26730)" d="m178.23 78.509q0 1.0365-0.41456 1.9173-0.36274 0.88106-1.0364 1.5547-0.67366 0.62186-1.6064 1.0365-0.88094 0.36266-1.8655 0.36266-1.5028 0-2.6946-0.82906-1.1919-0.82933-1.7619-2.1765-3.5756 2.9019-8.1876 3.0056-4.5602 0-8.1876-2.9539-1.9173-1.5547-3.1092-3.7309-1.1919-2.2283-1.5028-4.664-0.2591-2.4872 0.36274-4.9747 0.67366-2.4872 2.3837-4.6637 1.6582-2.0211 3.8865-3.2128 2.2283-1.192 4.8193-1.4509 2.4874-0.25867 4.8193 0.4144 2.3319 0.6736 4.3011 2.1765v-2.9539h5.0784v25.755q1.8655-0.104 3.161-1.3992 1.2955-1.3472 1.2955-3.2128h0.2591zm-17.567 4.5603q4.5602 0 8.0839-2.9539-0.31092-0.77733-0.31092-1.6064v-17.826q-3.3683-2.7464-7.773-2.7464-2.1764 0-4.1456 0.6736t-3.6274 2.0211v19.743q2.9019 2.332 6.633 2.6429 0.31092 0.05067 0.57002 0.05067 0.31092 0 0.57002 0z"/>
  <path id="path4351" style="fill:url(#linearGradient26732)" d="m168.44 57.364v2.9583c-0.003-0.0024-0.007-0.0029-0.0104-0.0053v0.35937c0.003 0.0025 0.007 0.0027 0.0104 0.0053v17.828c0 0.55271 0.1 1.0859 0.30729 1.6042-0.1017 0.08525-0.21466 0.13779-0.31771 0.21875v0.32292c0.13744-0.10237 0.28712-0.17189 0.42188-0.28125 0.38001 0.89813 0.96584 1.6242 1.7604 2.1771 0.79457 0.55271 1.6961 0.82812 2.6979 0.82812 0.0719 0 0.13744-0.0224 0.20835-0.02613v-0.23437-25.755h-5.0781z"/>
  <path id="path4261" style="fill:url(#linearGradient26734)" d="m207.21 78.665q0 1.0365-0.41456 1.9173-0.36274 0.88106-1.0364 1.5547-0.67366 0.62186-1.6064 1.0363-0.88094 0.36293-1.8655 0.36293-1.5028 0-2.7465-0.82906-1.1919-0.88106-1.7619-2.2283-3.5756 2.9536-8.1358 2.9536-0.31092 0-0.62184 0-0.31093-0.05067-0.62185-0.104-3.8347-0.31067-6.7884-2.6944-2.0728-1.6067-3.3165-3.7829-1.2437-2.2283-1.5028-4.8195-0.31092-2.5909 0.36274-5.0264 0.67366-2.4875 2.3319-4.5083 1.9174-2.3837 4.5602-3.6275l0.0518-0.05333q0.0518 0 0.10366-0.05067 2.591-1.1917 5.3893-1.14 2.1764-0.05067 4.1456 0.62186 1.9692 0.6736 3.6792 2.0211v-15.805h5.0784v38.813q1.8137-0.104 3.1092-1.3992 1.3473-1.3472 1.3473-3.2128h0.25909zm-9.4831 1.6064q-0.31092-0.6736-0.31092-1.6064v-18.085q-1.9692-1.5547-4.4047-2.2283-2.3837-0.67386-4.9229-0.41466-2.021 0.25867-3.7829 1.0883-0.0518 0-0.10365 0.05067h-0.0518q-1.2955 0.6736-2.3837 1.5029v19.847q1.6582 1.3475 3.6274 2.0211 2.021 0.6736 4.1974 0.72533h0.0518q2.1764 0 4.2493-0.72533 2.0728-0.77733 3.7829-2.1765h0.0518z"/>
  <path id="path4263" style="fill:url(#linearGradient26736)" d="m206.8 57.574-0.15547-0.208 6.063-0.05067 8.7058 11.245 11.038-11.193 0.15547 0.208-10.986 11.193 11.504 14.769h-6.0111l-8.9131-11.401-10.986 11.297-0.20728-0.208 11.038-11.297-11.245-14.354z"/>
  <path id="path4409" style="fill:url(#linearGradient26738)" d="m212.71 57.318-5.9062 0.2552 11.245 14.354 9.0937 11.609h5.8698l-11.599-14.974-8.7031-11.245z"/>
  <path id="path4284" style="fill:url(#linearGradient26740)" d="m168.44 57.364v2.9583c-1.3128-1.002-2.7475-1.728-4.3021-2.1771-1.5546-0.44871-3.1647-0.58911-4.8229-0.41666-1.7273 0.17261-3.3322 0.65845-4.8177 1.4531-1.3188 0.70532-2.4599 1.6662-3.4792 2.8073 0.62759 0.02373 1.2493 0.06851 1.875 0.09896v-1.4583c1.1055-0.89831 2.3122-1.5718 3.625-2.0208 1.3128-0.44907 2.6949-0.67188 4.1458-0.67188 2.9365 0 5.5305 0.91386 7.776 2.7448v2.8073c1.7067 0.22523 3.3965 0.47476 5.0781 0.73958v-6.8646h-5.0781z"/>
  <path id="path4363" d="m197.42 44.463v15.807 0.05208c-0.003-0.0024-0.007 0-0.0104 0v0.25c0.003 0.0024 0.007 0.0025 0.0104 0.0053v0.10416 17.984c0 0.62186 0.1 1.1551 0.30729 1.6042-0.003 0.07152 0.0347 0.13888 0.0521 0.20835 0.38001 0.89813 0.96584 1.6418 1.7604 2.2292 0.82912 0.55271 1.7481 0.82812 2.75 0.82812 0.0714 0 0.13776-0.01787 0.20834-0.0208v-0.23957-38.812z" style="fill:url(#linearGradient26742)"/>
  <path id="path4286" style="fill:url(#linearGradient26744)" d="m197.42 44.463v15.807c-1.14-0.89831-2.3695-1.5718-3.6823-2.0208-1.3128-0.44835-2.6949-0.65878-4.1458-0.625-1.8655-0.03448-3.6633 0.34614-5.3906 1.1406-0.0346 0.03379-0.0644 0.05208-0.099 0.05208l-0.0521 0.05208c-1.7619 0.82915-3.2843 2.0358-4.5625 3.625-0.63354 0.77205-1.1445 1.6049-1.5625 2.4792 1.2896 0.23088 2.5722 0.46773 3.8438 0.71875v-5.1146c0.72548-0.55289 1.5218-1.0509 2.3854-1.5h0.0469c0.0346-0.03379 0.0696-0.05208 0.10416-0.05208 1.1746-0.55307 2.4391-0.9161 3.7865-1.0885 1.6928-0.1728 3.3327-0.03259 4.9219 0.41667 1.6237 0.44907 3.0935 1.1875 4.4062 2.224v8.8229c1.699 0.45801 3.4316 0.89447 5.0781 1.375v-26.312h-5.0781z"/>
  <path id="path4288" style="fill:url(#linearGradient26746)" d="m212.71 57.318-6.0625 0.04688 0.15624 0.20835 11.245 14.354-2.8646 2.9323c0.0932 0.0324 0.18307 0.06653 0.27604 0.09896l2.7448-2.8229 4.1458 5.3073c3.1198 1.1824 6.018 2.343 8.7448 3.4844l-9.474-12.156 10.99-11.198-0.15624-0.20312-11.042 11.193-8.7031-11.245z"/>
  <path id="path4327" style="fill:#fff;fill-opacity:.23529" d="m201.69 44.463v38.812c0.27709-0.016 0.54312-0.05683 0.80208-0.11459v-38.698h-0.80208zm11.016 12.854-0.79687 0.0053 8.6979 11.24 0.44791-0.45312-8.349-10.792zm-39.99 0.04688v25.755c0.27826-0.01547 0.54282-0.05437 0.80209-0.10939v-25.646h-0.80209zm59.734 0.0053-11.042 11.193-0.17187-0.22395-0.42187 0.43229 11.505 14.766h0.80208l-11.505-14.766 10.99-11.198-0.15624-0.20312zm-42.865 0.2552c-0.16658-0.0032-0.32928 0.01733-0.49479 0.0208 1.3368 0.0013 2.6207 0.18808 3.8385 0.60416 0.4376 0.14968 0.85198 0.36294 1.2708 0.5625 0.85067 0.32971 1.6552 0.74708 2.4115 1.2552v-0.32812c-0.91369-0.617-1.8638-1.142-2.8802-1.4897-1.3128-0.44835-2.6949-0.65878-4.1458-0.625zm-27.823 0.07813c-0.24808-0.0216-0.50468 0.01707-0.75521 0.0104 0.78937 0.07112 1.5646 0.21189 2.3281 0.43229 0.25629 0.07403 0.48981 0.20259 0.73958 0.29166 1.2665 0.3563 2.4536 0.9198 3.5625 1.6927v-0.3125c-1.0955-0.72054-2.2478-1.3102-3.5-1.6719-0.7773-0.22435-1.5709-0.37308-2.375-0.44271zm28.021 0.20835c-0.82048-0.06933-1.6536-0.05928-2.5 0.02613-1.0902 0.13939-2.1106 0.43931-3.0885 0.82812-0.0346 0.03379-0.0644 0.05208-0.099 0.05208l-0.0521 0.05208c-1.131 0.53227-2.1509 1.2386-3.0833 2.0833v19.078c0.22248 0.19675 0.40688 0.41895 0.64583 0.60416 0.98018 0.79102 2.031 1.4112 3.1562 1.8594 1.2936 0.41253 2.6323 0.64391 4.0208 0.67708h0.0521c0.13696 0 0.2699-0.02696 0.40625-0.03125-1.3266-0.06219-2.6152-0.27976-3.8542-0.6927-1.3128-0.44907-2.5195-1.1225-3.625-2.0208v-19.849c0.72548-0.55289 1.5218-1.0509 2.3854-1.5h0.0469c0.0346-0.03379 0.0696-0.05208 0.10416-0.05208 1.1746-0.55306 2.4391-0.91609 3.7864-1.0885 0.58895-0.06011 1.1633-0.03077 1.7396-0.01573-0.0144-0.0013-0.0274-0.0093-0.0417-0.0104zm-29.922 0.02613c-1.2996 0-2.5352 0.20776-3.724 0.56771-0.55565 0.20365-1.115 0.3959-1.6406 0.67708-0.87546 0.46822-1.6631 1.0635-2.4062 1.724v19.141c0.13616 0.12032 0.24329 0.26496 0.38542 0.38021 1.0414 0.84807 2.1505 1.4756 3.3073 1.9583 0.93569 0.31707 1.9062 0.54397 2.9375 0.63021 0.20728 0.02667 0.4002 0.05208 0.57292 0.05208h0.56771c0.0429 0 0.0822-0.01013 0.12499-0.0104-0.14582-0.0056-0.29586-0.0144-0.46355-0.04168-2.4874-0.20728-4.6956-1.086-6.6302-2.6406v-19.745c1.1055-0.89831 2.3122-1.5718 3.625-2.0208 1.1873-0.40615 2.4392-0.60208 3.7396-0.64062-0.13427-0.004-0.26011-0.03125-0.39583-0.03125zm57.734 14.448-10.594 10.839 0.20835 0.20835 10.547-10.839-0.16147-0.20835zm-39.625 6.125c0 1.2437-0.428 2.3154-1.2917 3.2135-0.64775 0.6476-1.404 1.0709-2.2656 1.2708-0.001 0.000653-0.004-0.000651-0.005 0-0.0131 0.0059-0.0232 0.01493-0.0365 0.0208-0.43723 0.18005-0.89973 0.27121-1.375 0.31771 0.10734 0.0067 0.20275 0.04688 0.3125 0.04688 0.65639 0 1.2773-0.1228 1.8646-0.36458 0.62184-0.27644 1.155-0.62188 1.6042-1.0365 0.44911-0.44907 0.79463-0.9647 1.0365-1.5521 0.27638-0.5872 0.41667-1.2256 0.41667-1.9167h-0.26043zm28.974 0.15601c0 1.2437-0.44554 2.3102-1.3438 3.2083-0.63525 0.6351-1.3653 1.0544-2.1875 1.2604-0.024 0.01093-0.0435 0.0256-0.0677 0.03645-0.44047 0.18139-0.90634 0.27187-1.3854 0.31771 0.11042 0.0069 0.21037 0.04688 0.32291 0.04688 0.65639 0 1.2773-0.12264 1.8646-0.36458 0.62184-0.27627 1.1551-0.62188 1.6042-1.0365 0.44911-0.44906 0.79463-0.9647 1.0365-1.5521 0.27638-0.5872 0.41667-1.2256 0.41667-1.9167h-0.26043zm-38.797 1.8698c-1.1501 0.86438-2.3744 1.5129-3.6823 1.9271-1.3302 0.52098-2.7477 0.8094-4.2448 0.88021 0.14976 0.0048 0.29141 0.03645 0.44271 0.03645 2.8393-0.06387 5.3697-0.95998 7.6198-2.6146-0.0419-0.07912-0.0971-0.14701-0.13541-0.22917zm28.937 0.13541c-0.9882 0.72601-2.0394 1.3416-3.1979 1.776-0.15784 0.05523-0.32041 0.07611-0.47917 0.12499-1.3972 0.54486-2.8787 0.83516-4.4531 0.84896 0.0208 0.0035 0.0418 0.0069 0.0625 0.0104h0.61979c2.8069 0 5.3204-0.8788 7.5677-2.5573-0.0369-0.07011-0.0857-0.13091-0.11979-0.20312z"/>
  <path id="path4339" style="fill:#fff;fill-opacity:.11765" d="m197.42 44.463v15.281c0.26437 0.17872 0.54143 0.32474 0.79687 0.52604v-15.807h-0.79687zm15.292 12.854-6.0625 0.04688 0.15624 0.20835 11.245 14.354-11.042 11.297 0.20835 0.20835 10.99-11.297 0.19272 0.25 0.44792-0.45833-11.245-14.354-0.15624-0.20835 5.2708-0.04168-0.005-0.0053zm-44.266 0.04688v2.4583c0.26302 0.17315 0.54297 0.30622 0.79688 0.5v-2.9583h-0.79688zm64.01 0.0053-10.594 10.74 0.17709 0.23437 10.573-10.771-0.15624-0.20312zm-42.865 0.2552c-1.8655-0.03448-3.6633 0.34614-5.3906 1.1406-0.0346 0.03379-0.0644 0.05208-0.099 0.05208l-0.0521 0.05208c-1.7619 0.82915-3.2843 2.0358-4.5625 3.625-1.1055 1.3472-1.8842 2.8521-2.3333 4.5104-0.44911 1.6236-0.56666 3.2987-0.35938 5.026 0.17275 1.7275 0.67088 3.3322 1.5 4.8177 0.82913 1.4508 1.9358 2.7153 3.3177 3.7864 1.9692 1.5892 4.23 2.4856 6.7865 2.6927 0.20728 0.03555 0.41772 0.0704 0.625 0.10416h0.61979c0.041 0 0.0789-0.01013 0.11979-0.0104-0.18872-0.03147-0.37948-0.06227-0.56771-0.09376-1.2847-0.104-2.4891-0.38586-3.625-0.83854-0.0578-0.0184-0.11944-0.0224-0.17709-0.04168-1.3128-0.44906-2.5195-1.1225-3.625-2.0208v-0.39062c-1.0667-0.94227-1.9901-1.9856-2.6771-3.1875-0.82912-1.4856-1.3272-3.0902-1.5-4.8177-0.20728-1.7272-0.0897-3.4026 0.35938-5.026 0.44911-1.6584 1.2278-3.1632 2.3333-4.5104 0.45892-0.57051 0.96274-1.0747 1.4844-1.5469v-0.36979c0.72548-0.55289 1.5218-1.0509 2.3854-1.5h0.0469c0.0346-0.03379 0.0696-0.05208 0.10416-0.05208 0.22253-0.10477 0.46377-0.16928 0.6927-0.26043 0.001-0.00068 0.004 0.00068 0.005 0 1.5717-0.72213 3.2043-1.0838 4.8906-1.1198-0.10248-0.000066-0.19891-0.0232-0.30208-0.0208zm-27.823 0.07813c-0.80412-0.06963-1.6188-0.06019-2.4479 0.02613-1.7273 0.17261-3.3322 0.65845-4.8177 1.4531-1.4855 0.79449-2.7799 1.8662-3.8854 3.2135-1.14 1.451-1.9363 3.0033-2.3854 4.6614-0.41456 1.6583-0.53211 3.3158-0.35937 4.9739 0.20728 1.6238 0.70542 3.1811 1.5 4.6667 0.79457 1.4508 1.8311 2.6927 3.1094 3.7292 2.4183 1.9692 5.1474 2.9531 8.1875 2.9531 0.12157-0.0027 0.23368-0.0308 0.35417-0.03645-1.5631-0.05099-3.037-0.37611-4.4323-0.95833-1.3212-0.4477-2.5602-1.1003-3.6927-2.0104v-0.32292c-1.0908-0.96321-2.0217-2.0626-2.7292-3.3544-0.79457-1.4853-1.2927-3.0427-1.5-4.6667-0.17273-1.6581-0.0552-3.3156 0.35938-4.9739 0.4491-1.6581 1.2454-3.2102 2.3854-4.6614 0.45558-0.55519 0.96448-1.0333 1.4844-1.4948v-0.27083c1.1055-0.89831 2.3122-1.5718 3.625-2.0208 0.13216-0.0452 0.27269-0.06355 0.40625-0.10416 1.0174-0.3737 2.068-0.6637 3.1875-0.77604 0.5721-0.05944 1.1324-0.03043 1.6927-0.01573-0.0141-0.0013-0.0274-0.0091-0.0417-0.0104zm29.62 0.20835c-0.24787-0.02107-0.50502 0.0168-0.75521 0.0104 0.80574 0.07064 1.5995 0.21157 2.3802 0.43229 1.6237 0.44907 3.0935 1.1875 4.4062 2.224v18.088c0 0.62186 0.1 1.1551 0.30729 1.6042h-0.0521c-1.14 0.9328-2.3994 1.6589-3.7812 2.1771-1.2548 0.43908-2.5423 0.65253-3.8542 0.6927 0.11782 0.0056 0.23048 0.02843 0.34896 0.03125h0.0521c1.287 0 2.5432-0.2188 3.776-0.59896 1.2566-0.49002 2.449-1.174 3.5625-2.0937 0.0299 0.07059 0.0822 0.12403 0.11459 0.19272 0.18968-0.13941 0.39465-0.25091 0.57812-0.40104h0.0521c-0.20728-0.44921-0.30729-0.98244-0.30729-1.6043v-18.088c-0.25112-0.19829-0.53427-0.33389-0.79687-0.51042v0.20312c-0.75555-0.59534-1.5635-1.0552-2.3958-1.4531-0.40289-0.15685-0.78962-0.3463-1.2136-0.46354-0.79457-0.224-1.6014-0.37337-2.4219-0.44271zm-29.922 0.02613c-0.13691 0-0.26536 0.02728-0.40105 0.03125 2.7705 0.08059 5.2385 0.96724 7.3802 2.7135v17.828c0 0.55271 0.1 1.0859 0.30729 1.6042-2.3174 1.9426-4.9738 2.9164-7.9635 2.9427 0.0344 0.0018 0.0764 0.0104 0.10936 0.0104h0.56771c1.3338 0 2.591-0.22003 3.7917-0.59896 1.2742-0.49716 2.4776-1.1837 3.599-2.0937 0.0251 0.05915 0.0669 0.10381 0.0938 0.16147 0.19723-0.14819 0.40637-0.26045 0.59896-0.42187-0.20728-0.5184-0.30729-1.0514-0.30729-1.6042v-17.828c-0.25584-0.20859-0.532-0.36207-0.79688-0.54687v0.18749c-1.0959-0.83644-2.2978-1.4342-3.5625-1.8854-1.0853-0.30552-2.2165-0.5-3.4167-0.5zm57.536 14.198-0.44271 0.45312 8.5573 10.948h0.79688l-8.9115-11.401zm-41.026 6.375c0 1.2437-0.428 2.3154-1.2917 3.2135-0.67166 0.6715-1.463 1.0961-2.3646 1.2865v0.10939c0.30916-0.01733 0.61012-0.05901 0.89583-0.12499 0.001-0.000651 0.004 0.00065 0.005 0 0.60303-0.27309 1.124-0.61086 1.5625-1.0156 0.44911-0.44907 0.79463-0.9647 1.0365-1.5521 0.27637-0.5872 0.41666-1.2256 0.41666-1.9167h-0.26042zm28.974 0.15601c0 1.2437-0.44554 2.3102-1.3438 3.2083-0.66701 0.66685-1.4394 1.0928-2.3125 1.2865v0.11459c0.32549-0.01867 0.63703-0.06944 0.9375-0.14584 0.58624-0.26979 1.0972-0.59887 1.526-0.99479 0.44911-0.44907 0.79463-0.9647 1.0365-1.5521 0.27637-0.5872 0.41666-1.2256 0.41666-1.9167h-0.26042zm-37.297 1.7083c-0.1828 0.14837-0.38085 0.25323-0.56771 0.39062 0.37462 0.70845 0.8636 1.3219 1.5312 1.7865 0.79457 0.55271 1.6961 0.82812 2.6979 0.82812 0.16232 0 0.31594-0.03192 0.47396-0.04688-0.86823-0.05533-1.6704-0.29102-2.375-0.78125-0.79457-0.5528-1.3804-1.2789-1.7604-2.1771zm28.922 0.10416c-0.18173 0.15011-0.37696 0.25717-0.5625 0.39583 0.37447 0.7115 0.85958 1.3407 1.526 1.8333 0.82912 0.55271 1.7481 0.82812 2.75 0.82812 0.16232 0 0.31594-0.03192 0.47396-0.04688-0.87273-0.05496-1.6911-0.29054-2.4271-0.78125-0.79458-0.5872-1.3804-1.331-1.7604-2.2292z"/>
 </g>
</svg>
