<?xml version="1.0" encoding="UTF-8" standalone="no"?>
<!-- Generator: flash2svg, http://dissentgraphics.com/tools/flash2svg -->

<svg
   xmlns:dc="http://purl.org/dc/elements/1.1/"
   xmlns:cc="http://creativecommons.org/ns#"
   xmlns:rdf="http://www.w3.org/1999/02/22-rdf-syntax-ns#"
   xmlns:svg="http://www.w3.org/2000/svg"
   xmlns="http://www.w3.org/2000/svg"
   xmlns:xlink="http://www.w3.org/1999/xlink"
   xmlns:sodipodi="http://sodipodi.sourceforge.net/DTD/sodipodi-0.dtd"
   xmlns:inkscape="http://www.inkscape.org/namespaces/inkscape"
   id="ClamXav"
   image-rendering="optimizeSpeed"
   version="1.1"
   style="background-color:#ffffff"
   x="0px"
   y="0px"
   width="1024px"
   height="1024px"
   viewBox="0 0 1024 1024"
   enable-background="new 0 0 1024 1024"
   inkscape:version="0.91 r"
   sodipodi:docname="clamtk.svg">
  <metadata
     id="metadata41">
    <rdf:RDF>
      <cc:Work
         rdf:about="">
        <dc:format>image/svg+xml</dc:format>
        <dc:type
           rdf:resource="http://purl.org/dc/dcmitype/StillImage" />
      </cc:Work>
    </rdf:RDF>
  </metadata>
  <sodipodi:namedview
     pagecolor="#ffffff"
     bordercolor="#666666"
     borderopacity="1"
     objecttolerance="10"
     gridtolerance="10"
     guidetolerance="10"
     inkscape:pageopacity="0"
     inkscape:pageshadow="2"
     inkscape:window-width="1366"
     inkscape:window-height="744"
     id="namedview39"
     showgrid="false"
     inkscape:zoom="0.32593203"
     inkscape:cx="471.22781"
     inkscape:cy="581.4059"
     inkscape:window-x="0"
     inkscape:window-y="24"
     inkscape:window-maximized="1"
     inkscape:current-layer="g3374" />
  <defs
     transform="matrix(1 0 0 1 0 0) "
     id="defs3">
    <linearGradient
       inkscape:collect="always"
       id="linearGradient3378">
      <stop
         style="stop-color:#000000;stop-opacity:1;"
         offset="0"
         id="stop3380" />
      <stop
         id="stop3386"
         offset="0.08178425"
         style="stop-color:#ff9900;stop-opacity:1" />
      <stop
         style="stop-color:#ff6600;stop-opacity:1"
         offset="0.45199621"
         id="stop3388" />
      <stop
         id="stop3390"
         offset="0.89840555"
         style="stop-color:#804d00;stop-opacity:1" />
      <stop
         style="stop-color:#000000;stop-opacity:0;"
         offset="1"
         id="stop3382" />
    </linearGradient>
    <linearGradient
       inkscape:collect="always"
       xlink:href="#linearGradient3378"
       id="linearGradient3384"
       x1="-78.101692"
       y1="-125.83051"
       x2="1106.4407"
       y2="1128.1356"
       gradientUnits="userSpaceOnUse" />
    <linearGradient
       inkscape:collect="always"
       xlink:href="#linearGradient3378"
       id="linearGradient3363"
       gradientUnits="userSpaceOnUse"
       x1="-78.101692"
       y1="-125.83051"
       x2="1106.4407"
       y2="1128.1356" />
    <linearGradient
       inkscape:collect="always"
       xlink:href="#linearGradient3378"
       id="linearGradient3365"
       gradientUnits="userSpaceOnUse"
       x1="-78.101692"
       y1="-125.83051"
       x2="1106.4407"
       y2="1128.1356"
       gradientTransform="translate(6.272497,3.0681243)" />
    <linearGradient
       inkscape:collect="always"
       xlink:href="#linearGradient3378"
       id="linearGradient3371"
       gradientUnits="userSpaceOnUse"
       x1="-78.101692"
       y1="-125.83051"
       x2="1106.4407"
       y2="1128.1356" />
  </defs>
  <g
     id="Calque.__209"
     transform="matrix(1.5275431,0,0,1.5275431,-274.51806,-238.98839)"
     style="fill:#ffc022">
    <g
       id="shape6"
       style="fill:#ffc022">
      <path
         id="path3"
         d="m 801.65,201.4 q 0,-3.35 -3.3,-3.35 l -143.9,32.25 c -2.25,0 -3.35,1.1 -3.35,3.35 l 0,111.6 c 0,2.25 1.1,3.35 3.35,3.35 l 111.65,0 c 2.15,0 3.25,-1.1 3.25,-3.35 l 32.3,-143.85 z"
         inkscape:connector-curvature="0"
         style="fill:#ffc022;fill-opacity:1" />
      <path
         id="path4"
         d="m 769.35,654.65 c 0,-2.3 -1.1,-3.4 -3.25,-3.4 l -111.65,0 c -2.25,0 -3.35,1.1 -3.35,3.4 l 0,111.55 c 0,2.25 1.1,3.35 3.35,3.35 l 143.9,32.3 c 2.2,0 3.3,-1.1 3.3,-3.35 l -32.3,-143.85 z"
         inkscape:connector-curvature="0"
         style="fill:#ffc022;fill-opacity:1" />
      <path
         id="path5"
         d="m 380.25,233.65 c 0,-2.25 -1.1,-3.35 -3.35,-3.35 L 232.95,198.05 c -2.15,0 -3.25,1.1 -3.25,3.35 l 32.25,143.85 c 0,2.25 1.1,3.35 3.3,3.35 l 111.65,0 c 2.25,0 3.35,-1.1 3.35,-3.35 l 0,-111.6 z"
         inkscape:connector-curvature="0"
         style="fill:#ffc022;fill-opacity:1" />
      <path
         id="path6"
         d="m 265.25,651.25 c -2.2,0 -3.3,1.1 -3.3,3.4 L 229.7,798.5 c 0,2.25 1.1,3.35 3.25,3.35 l 143.95,-32.3 c 2.25,0 3.35,-1.1 3.35,-3.35 l 0,-111.55 c 0,-2.3 -1.1,-3.4 -3.35,-3.4 l -111.65,0 z"
         inkscape:connector-curvature="0"
         style="fill:#ffc022;fill-opacity:1" />
    </g>
  </g>
  <g
     id="g3374"
     style="fill:url(#linearGradient3384);fill-opacity:1"
     transform="translate(-1190.4322,-312.94868)">
    <g
       id="g3367"
       style="fill:url(#linearGradient3371)"
       transform="translate(1189.3641,307.60806)">
      <path
         id="path7"
         d="M 836.69317,848.24041 Q 970.73508,714.1985 970.73508,524.70678 c 0,-126.40419 -44.68064,-234.24873 -134.04191,-323.61 C 779.94494,144.27217 715.559,105.54896 643.6881,84.850747 569.52588,106.61824 503.76515,154.43034 446.25315,228.13429 364.60597,332.92375 323.7442,459.40432 323.7442,607.49962 c 0,143.4363 38.34133,266.55627 114.94761,369.28354 24.05881,3.66611 48.88138,5.49916 74.46773,5.49916 0.0764,0 0.0764,0 0.15275,0 126.32782,-0.0764 234.09598,-44.75701 323.38088,-134.04191 z"
         inkscape:connector-curvature="0"
         style="fill:url(#linearGradient3363);fill-opacity:1" />
      <path
         id="path8"
         d="m 519.58479,70.122994 c -0.0764,0 -0.0764,0 -0.15275,0 -126.40419,0 -234.24873,44.680636 -323.61001,134.041906 -89.36127,89.36127 -134.041906,197.20581 -134.041906,323.61 0,126.32782 44.680636,234.17236 134.041906,323.53363 C 267.08192,922.56842 350.18026,965.416 444.96431,979.85128 368.35803,877.12401 330.0167,754.00404 330.0167,610.56774 c 0,-148.0953 40.86177,-274.57587 122.50895,-379.36533 C 510.03765,157.49846 575.79838,109.68636 649.9606,87.918871 608.94607,76.080412 565.48746,70.122994 519.58479,70.122994 Z"
         inkscape:connector-curvature="0"
         style="fill:url(#linearGradient3365);fill-opacity:1" />
    </g>
  </g>
  <g
     id="Calque.__211"
     transform="matrix(1.5275431,0,0,1.5275431,-274.51806,-238.98839)">
    <g
       id="shape15">
      <path
         id="path9"
         d="m 746.9,523.2 q 0,-29.15 -13.15,-52.85 l -205.85,66.3 c 2.75,24.65 13.25,46.05 31.4,64.2 21.45,21.45 47.35,32.2 77.7,32.2 30.35,0 56.25,-10.75 77.7,-32.2 21.45,-21.45 32.2,-47.3 32.2,-77.65 z M 298.95,470.35 c -8.75,15.8 -13.15,33.4 -13.15,52.85 0,30.35 10.7,56.2 32.15,77.65 21.45,21.45 47.35,32.2 77.7,32.2 30.35,0 56.25,-10.75 77.7,-32.2 18.65,-18.65 29.25,-40.65 31.7,-66.1 l -206.1,-64.4 z"
         inkscape:connector-curvature="0"
         style="fill:#000000;fill-opacity:0.2" />
    </g>
  </g>
  <g
     id="Calque.__212"
     transform="matrix(1.5275431,0,0,1.5275431,-274.51806,-238.98839)">
    <g
       id="shape19">
      <path
         id="path12"
         d="m 746.9,499.95 q 0,-29.15 -13.15,-52.85 L 527.9,513.45 c 2.75,24.6 13.25,46 31.4,64.15 21.45,21.45 47.35,32.2 77.7,32.2 30.35,0 56.25,-10.75 77.7,-32.2 21.45,-21.45 32.2,-47.3 32.2,-77.65 z m -461.1,0 c 0,30.35 10.7,56.2 32.15,77.65 21.45,21.45 47.35,32.2 77.7,32.2 30.35,0 56.25,-10.75 77.7,-32.2 18.65,-18.65 29.25,-40.65 31.7,-66.1 l -206.1,-64.4 c -8.75,15.8 -13.15,33.4 -13.15,52.85 z"
         inkscape:connector-curvature="0"
         style="fill:#ffffff;fill-opacity:1" />
    </g>
  </g>
  <mask
     id="Calque.__214">
    <g
       id="g">
      <g
         id="shape28">
        <path
           id="path19"
           fill="#FFFFFF"
           fill-opacity="1"
           d="M746.9,499.95 Q746.9,470.8 733.75,447.1 L527.9,513.45 C530.65,538.05 541.15,559.45 559.3,577.6 580.75,599.05 606.65,609.8 637,609.8 667.35,609.8 693.25,599.05 714.7,577.6 736.15,556.15 746.9,530.3 746.9,499.95z M285.8,499.95 C285.8,530.3 296.5,556.15 317.95,577.6 339.4,599.05 365.3,609.8 395.65,609.8 426,609.8 451.9,599.05 473.35,577.6 492,558.95 502.6,536.95 505.05,511.5 L298.95,447.1 C290.2,462.9 285.8,480.5 285.8,499.95z" />
      </g>
    </g>
  </mask>
  <g
     id="masked"
     mask="url(#Calque.__214)"
     transform="matrix(1.5275431,0,0,1.5275431,-274.51806,-238.98839)">
    <g
       id="Calque.__213">
      <g
         id="shape23">
        <path
           id="path15"
           d="m 602.15,453.45 q -9.3,0 -16.1,11.1 c -0.3,0.45 -0.55,0.9 -0.8,1.35 -4.65,8.35 -7,18.4 -7,30.15 0,11.75 2.35,21.8 7,30.1 2.65,4.75 5.65,8.2 9,10.25 2.45,1.5 5.1,2.25 7.9,2.25 6.6,0 12.2,-4.15 16.85,-12.5 4.7,-8.3 7.05,-18.35 7.05,-30.1 0,-11.75 -2.35,-21.8 -7.05,-30.15 -4.65,-8.3 -10.25,-12.45 -16.85,-12.45 z M 438.85,465.9 C 434.2,457.6 428.6,453.45 422,453.45 c -6.2,0 -11.55,3.7 -16.05,11.1 -0.3,0.45 -0.6,0.9 -0.85,1.35 -4.65,8.35 -6.95,18.4 -6.95,30.15 0,3.25 0.2,6.4 0.55,9.45 0.15,1.1 0.3,2.2 0.45,3.35 1.05,6.4 3.05,12.15 5.95,17.3 2.65,4.75 5.7,8.2 9.05,10.25 2.45,1.5 5.05,2.25 7.85,2.25 6.6,0 12.2,-4.15 16.85,-12.5 4.7,-8.3 7.05,-18.35 7.05,-30.1 0,-11.75 -2.35,-21.8 -7.05,-30.15 z"
           inkscape:connector-curvature="0"
           style="fill:#333333;fill-opacity:1" />
        <path
           id="path18"
           d="m 373.35,529.5 c -0.15,-1.15 -0.3,-2.25 -0.45,-3.35 -2.05,1.75 -3.95,4.35 -5.65,7.8 -3.55,7.2 -5.3,15.9 -5.3,26.05 0,10.15 1.75,18.8 5.3,26 3.55,7.2 7.8,10.8 12.8,10.8 1.5,0 2.95,-0.35 4.4,-1 -3.35,-2.05 -6.4,-5.5 -9.05,-10.25 -4.65,-8.3 -6.95,-18.35 -6.95,-30.1 0,-9.85 1.65,-18.5 4.9,-25.95 z"
           inkscape:connector-curvature="0"
           style="fill:#ffffff;fill-opacity:1" />
      </g>
    </g>
  </g>
</svg>
