<?xml version="1.0" encoding="UTF-8" standalone="no"?>
<!-- Created with Inkscape (http://www.inkscape.org/) -->
<svg id="svg3449" xmlns:rdf="http://www.w3.org/1999/02/22-rdf-syntax-ns#" xmlns="http://www.w3.org/2000/svg" height="128" width="128" version="1.0" xmlns:cc="http://creativecommons.org/ns#" xmlns:xlink="http://www.w3.org/1999/xlink" xmlns:dc="http://purl.org/dc/elements/1.1/">
 <metadata id="metadata56">
  <rdf:RDF>
   <cc:Work rdf:about="">
    <dc:format>image/svg+xml</dc:format>
    <dc:type rdf:resource="http://purl.org/dc/dcmitype/StillImage"/>
    <dc:title/>
   </cc:Work>
  </rdf:RDF>
 </metadata>
 <defs id="defs3451">
  <linearGradient id="linearGradient3516" y2="-11.847" gradientUnits="userSpaceOnUse" x2="58.98" gradientTransform="matrix(.96826 0 0 .97948 2.179 .16587)" y1="-118.55" x1="57.173">
   <stop id="stop4596" offset="0"/>
   <stop id="stop4598" style="stop-opacity:0" offset="1"/>
  </linearGradient>
  <linearGradient id="linearGradient3519" y2="50.369" gradientUnits="userSpaceOnUse" x2="76.558" gradientTransform="matrix(.96826 0 0 .97948 3.2423 -129.19)" y1="13.164" x1="76.558">
   <stop id="stop3392" style="stop-color:#425e7b" offset="0"/>
   <stop id="stop3394" style="stop-color:#7a91a7" offset="1"/>
  </linearGradient>
  <linearGradient id="linearGradient3521" y2="-8.7399" gradientUnits="userSpaceOnUse" x2="60.217" gradientTransform="matrix(.96826 0 0 .97948 2.179 .16587)" y1="-123.72" x1="60.395">
   <stop id="stop3392-4-8" style="stop-color:#425e7b" offset="0"/>
   <stop id="stop3394-8-0" style="stop-color:#7a91a7" offset="1"/>
  </linearGradient>
  <filter id="filter3174" color-interpolation-filters="sRGB">
   <feGaussianBlur id="feGaussianBlur3176" stdDeviation="1.71"/>
  </filter>
  <linearGradient id="linearGradient3966" y2="7.0165" gradientUnits="userSpaceOnUse" x2="45.448" gradientTransform="matrix(1.0059 0 0 .99417 -99.503 134.1)" y1="92.54" x1="45.448">
   <stop id="stop3750-4" offset="0"/>
   <stop id="stop3752-8" style="stop-opacity:.58824" offset="1"/>
  </linearGradient>
  <filter id="filter3174-2" color-interpolation-filters="sRGB">
   <feGaussianBlur id="feGaussianBlur3176-2" stdDeviation="1.71"/>
  </filter>
  <linearGradient id="ButtonShadow-2" x1="45.448" gradientUnits="userSpaceOnUse" y1="92.54" gradientTransform="scale(1.0059 .99417)" x2="45.448" y2="7.0165">
   <stop id="stop3750-6" offset="0"/>
   <stop id="stop3752-3" style="stop-opacity:.58824" offset="1"/>
  </linearGradient>
  <linearGradient id="linearGradient4590" y2="-9.1034" gradientUnits="userSpaceOnUse" x2="66.492" gradientTransform="matrix(.96826 0 0 .97948 2.179 .16587)" y1="-114.77" x1="71.759">
   <stop id="stop4601" style="stop-color:#5f5f5f" offset="0"/>
   <stop id="stop4603" style="stop-color:#fff" offset="1"/>
  </linearGradient>
  <filter id="filter3174-1" color-interpolation-filters="sRGB">
   <feGaussianBlur id="feGaussianBlur3176-5" stdDeviation="1.71"/>
  </filter>
  <linearGradient id="linearGradient2490-113-765-9">
   <stop id="stop3686-7" style="stop-color:#861318" offset="0"/>
   <stop id="stop3688-6" style="stop-color:#f67e2a" offset="1"/>
  </linearGradient>
  <linearGradient id="linearGradient3332-412-419-652-471-761-410-156-661-505-0">
   <stop id="stop8032-7" style="stop-color:#1a426c" offset="0"/>
   <stop id="stop8034-9" style="stop-color:#566f75" offset="1"/>
  </linearGradient>
  <linearGradient id="linearGradient5118">
   <stop id="stop5120" style="stop-color:#de1212" offset="0"/>
   <stop id="stop5128" style="stop-color:#f36565" offset=".5"/>
   <stop id="stop5122" style="stop-color:#a20c0c" offset="1"/>
  </linearGradient>
  <linearGradient id="linearGradient5081" x1="58.65" gradientUnits="userSpaceOnUse" y1="122" gradientTransform="matrix(1.0172 0 0 1.0172 -1.1034 -1.1034)" x2="58.65" y2="5.4252">
   <stop id="stop5083" style="stop-color:#dcdcdc" offset="0"/>
   <stop id="stop5085" style="stop-color:#f0f0f0" offset="1"/>
  </linearGradient>
  <linearGradient id="linearGradient4938">
   <stop id="stop4940" style="stop-color:#202020" offset="0"/>
   <stop id="stop4942" style="stop-color:#727272" offset="1"/>
  </linearGradient>
  <linearGradient id="linearGradient5137">
   <stop id="stop5139" offset="0"/>
   <stop id="stop5141" style="stop-opacity:0" offset="1"/>
  </linearGradient>
  <filter id="filter3174-4" color-interpolation-filters="sRGB">
   <feGaussianBlur id="feGaussianBlur3176-3" stdDeviation="1.71"/>
  </filter>
  <linearGradient id="linearGradient7407" y2="5.4252" gradientUnits="userSpaceOnUse" x2="58.65" gradientTransform="matrix(.79888 0 0 .79888 -116.85 -4.5654)" y1="122" x1="58.65">
   <stop id="stop5097" style="stop-color:#dcdcdc" offset="0"/>
   <stop id="stop5099" style="stop-color:#f5f5f5" offset=".89612"/>
   <stop id="stop5101" style="stop-color:#8d8d8d" offset="1"/>
  </linearGradient>
  <linearGradient id="linearGradient7409" y2="21.934" xlink:href="#linearGradient5118" gradientUnits="userSpaceOnUse" x2="64.607" gradientTransform="matrix(.69715 0 0 .69715 -110.49 -3.8352)" y1="22.808" x1="58.41"/>
  <linearGradient id="linearGradient7411" y2="55" xlink:href="#linearGradient5118" gradientUnits="userSpaceOnUse" x2="64.706" gradientTransform="matrix(.69715 0 0 .69715 -110.49 -3.8352)" y1="54.138" x1="54.881"/>
  <linearGradient id="linearGradient7413" y2="51.703" gradientUnits="userSpaceOnUse" x2="69.919" gradientTransform="matrix(.69715 0 0 .69715 -110.49 -3.8352)" y1="28.056" x1="63.582">
   <stop id="stop5139-3" offset="0"/>
   <stop id="stop5141-7" style="stop-opacity:0" offset="1"/>
  </linearGradient>
  <linearGradient id="linearGradient7415" y2="12.029" xlink:href="#linearGradient5081" gradientUnits="userSpaceOnUse" x2="47.759" gradientTransform="matrix(.64340 0 0 .65538 -107.23 -3.0491)" y1="5.2827" x1="52.471"/>
  <linearGradient id="linearGradient7417" y2="12.778" xlink:href="#linearGradient5081" gradientUnits="userSpaceOnUse" x2="57.254" gradientTransform="matrix(-.64340 0 0 .65538 -24.818 -3.0491)" y1="10.53" x1="43.476"/>
  <linearGradient id="linearGradient7419" y2="4.8938" xlink:href="#linearGradient3332-412-419-652-471-761-410-156-661-505-0" gradientUnits="userSpaceOnUse" x2="99.266" gradientTransform="matrix(-.71186 0 0 .71186 -20.468 -3.3315)" y1="123" x1="99.266"/>
  <linearGradient id="linearGradient7421" y2="24.234" xlink:href="#linearGradient2490-113-765-9" gradientUnits="userSpaceOnUse" x2="108.04" gradientTransform="matrix(-.71186 0 0 .71186 -20.468 -3.3315)" y1="3.4863" x1="79.514"/>
  <linearGradient id="linearGradient7423" y2="4.8938" xlink:href="#linearGradient3332-412-419-652-471-761-410-156-661-505-0" gradientUnits="userSpaceOnUse" x2="99.266" gradientTransform="matrix(.71186 0 0 .71186 -111.59 -3.3315)" y1="123" x1="99.266"/>
  <linearGradient id="linearGradient7425" y2="30.389" xlink:href="#linearGradient5137" gradientUnits="userSpaceOnUse" x2="-28.793" gradientTransform="matrix(.71186 0 0 .71186 -54.638 -3.3315)" y1="31.633" x1="-32.474"/>
  <linearGradient id="linearGradient7427" y2="19" xlink:href="#linearGradient2490-113-765-9" gradientUnits="userSpaceOnUse" x2="87.676" gradientTransform="matrix(.71186 0 0 .71186 -111.59 -3.3315)" y1="34.894" x1="123.49"/>
  <linearGradient id="linearGradient7429" y2="94.281" gradientUnits="userSpaceOnUse" x2="67.482" gradientTransform="matrix(.71186 0 0 .71186 -111.59 -3.3315)" y1="56.387" x1="69.894">
   <stop id="stop4814" style="stop-color:#fff" offset="0"/>
   <stop id="stop4816" style="stop-color:#fff;stop-opacity:0" offset="1"/>
  </linearGradient>
  <linearGradient id="linearGradient7431" y2="99.266" xlink:href="#linearGradient4938" gradientUnits="userSpaceOnUse" x2="74.494" gradientTransform="matrix(-.47007 -.47007 .47007 -.47007 -76.838 144.67)" y1="99.266" x1="65.928"/>
  <linearGradient id="linearGradient7433" y2="99.266" xlink:href="#linearGradient4938" gradientUnits="userSpaceOnUse" x2="74.494" gradientTransform="matrix(.36939 .36939 -.36939 .36939 -52.447 2.4036)" y1="99.266" x1="65.928"/>
  <linearGradient id="linearGradient7435" y2="99.266" xlink:href="#linearGradient4938" gradientUnits="userSpaceOnUse" x2="74.494" gradientTransform="matrix(-.47007 -.47007 .47007 -.47007 -76.838 156.06)" y1="99.266" x1="65.928"/>
  <linearGradient id="linearGradient7437" y2="99.266" xlink:href="#linearGradient4938" gradientUnits="userSpaceOnUse" x2="74.494" gradientTransform="matrix(.36939 .36939 -.36939 .36939 -52.447 13.793)" y1="99.266" x1="65.928"/>
  <linearGradient id="linearGradient7439" y2="30.389" xlink:href="#linearGradient5137" gradientUnits="userSpaceOnUse" x2="-28.793" gradientTransform="matrix(-.71186 0 0 .71186 -77.428 -3.3315)" y1="31.633" x1="-32.474"/>
 </defs>
 <rect id="rect892" style="stroke:url(#linearGradient3521);stroke-width:.97385;fill:url(#linearGradient3519)" transform="scale(1,-1)" ry="29.296" height="115.54" width="114.22" y="-122.25" x="7.0394"/>
 <rect id="rect892-2" style="stroke:url(#linearGradient3516);stroke-width:.97385;fill:url(#linearGradient4590)" transform="scale(1,-1)" ry="28.993" height="114.35" width="114.22" y="-121.46" x="7.0599"/>
 <g id="g7356" transform="matrix(1.3333 0 0 1.3181 152.04 8.9773)">
  <path id="path5168" style="fill:url(#linearGradient7407)" d="m-95.073 0.22785 29.72 75 28.37-75h-58.091z"/>
  <path id="path4427" style="opacity:0.08;fill-rule:evenodd" d="m-74.059 1.6966a1.0213 1.0213 0 0 0 -0.0625 0.03125c-1.1131 0.17542-1.8477 0.93792-2.3125 1.625-0.46481 0.68708-0.78406 1.342-1.0938 1.7188a1.0213 1.0213 0 0 0 -0.09375 0.15625c-0.26141 0.44881-0.74435 0.9883-1.125 1.7188-0.38065 0.73045-0.62681 1.8041-0.15625 2.8125a1.0213 1.0213 0 0 0 0.125 0.1875c1.7846 2.3042 3.798 4.3876 5.625 6.5312 0.04791 0.0885 0.0744 0.08157 0.125 0.15625 0.31375 0.46308 0.68985 0.74456 0.84375 0.90625 0.02979 0.0313 0.01717 0.01239 0.03125 0.03125-3.6477 11.553-7.3428 23.092-10.969 34.656a1.0213 1.0213 0 0 0 -0.03125 0.15625c-0.30464 2.0394 1.5697 3.5889 3.4688 3.375v0.03125c9.4285 0.11172 18.851 0.2364 28.281 0.34375a1.0213 1.0213 0 0 0 0.09375 0c2.0496-0.18702 3.1993-2.4324 2.375-4.25h0.03125l-0.0625-0.15625-10.688-34.344c1.8708-2.2532 3.8409-4.4919 5.6875-6.8125a1.0213 1.0213 0 0 0 0.09375 -0.15625c0.53517-1.0198 0.33064-2.0821 0.03125-2.875-0.29939-0.79295-0.68397-1.4723-0.8125-1.9375a1.0213 1.0213 0 0 0 -0.03125 -0.15625c-0.21855-0.47823-0.42448-1.2517-0.84375-2.0312-0.41927-0.77951-1.2752-1.6325-2.4688-1.7188a1.0213 1.0213 0 0 0 -0.1875 0.03125c-1.961 0.21694-3.6428 0.98033-5.2188 1.375-1.0203 0.25186-1.8705 0.63143-2.5938 0.75-2.4094-0.68324-4.8279-1.4877-7.3125-2.125a1.0213 1.0213 0 0 0 -0.25 -0.03125h-0.40625a1.0213 1.0213 0 0 0 -0.09375 0z"/>
  <path id="path4404" style="opacity:.1;fill-rule:evenodd" d="m-73.965 2.7278c0.0016-0.0001974-0.09539 0.03154-0.09375 0.03125 0.0016-0.0002897-0.12662 0.031631-0.125 0.03125 0.0016-0.0003811-0.09535 0.0004713-0.09375 0s-0.12657 0.03181-0.125 0.03125c0.0016-0.00056-0.09529 0.063147-0.09375 0.0625 0.0015-0.0006469-0.09525 0.031982-0.09375 0.03125 0.0015-0.0007319-0.0952 0.063315-0.09375 0.0625 0.0015-0.0008145-0.09516 0.063395-0.09375 0.0625 0.0014-0.0008946-0.0951 0.063472-0.09375 0.0625 0.0014-0.0009719-0.09505 0.063546-0.09375 0.0625 0.0013-0.00105-0.09499 0.063617-0.09375 0.0625 0.0012-0.00112-0.06367 0.094935-0.0625 0.09375 0.0012-0.00118-0.09485 0.063748-0.09375 0.0625 0.0011-0.00125-0.06353 0.095058-0.0625 0.09375 0.001-0.00131-0.06346 0.095114-0.0625 0.09375 0.000736-0.00105-0.04582 0.037304-0.0625 0.0625-0.005 0.00756-0.000203 0.031577 0 0.03125l-2.4375 3.7188h0.03125c0.0013-0.002-0.09491 0.12709-0.09375 0.125 0.0012-0.0021-0.06349 0.15842-0.0625 0.15625 0.000987-0.0022-0.06331 0.12725-0.0625 0.125 0.00081-0.0022-0.06313 0.15856-0.0625 0.15625 0.000627-0.0023-0.03169 0.1586-0.03125 0.15625 0.00044-0.0023-0.0315 0.15862-0.03125 0.15625 0.00025-0.0024-0.000059 0.15864 0 0.15625 0.000059-0.0024 0.000132 0.15864 0 0.15625-0.000132-0.0024 0.03157 0.15862 0.03125 0.15625-0.000323-0.0024 0.000512 0.15858 0 0.15625-0.000512-0.0023 0.0632 0.15853 0.0625 0.15625-0.000697-0.0023 0.03213 0.15847 0.03125 0.15625-0.000878-0.0022 0.06355 0.12714 0.0625 0.125-0.0011-0.0021 0.09497 0.1583 0.09375 0.15625-0.0012-0.0021 0.09513 0.12695 0.09375 0.125-0.0014-0.0019 0.09528 0.12683 0.09375 0.125a1.03 1.03 0 0 0 0 0.03125l6.6562 7.5937-11.031 34.844c0.000517-0.0017-0.03167 0.1267-0.03125 0.125 0.000418-0.0017-0.03157 0.09547-0.03125 0.09375 0.000318-0.0017-0.03147 0.12673-0.03125 0.125 0.000216-0.0017-0.000114 0.12674 0 0.125 0.000114-0.0017-0.000011 0.0955 0 0.09375 0.000011-0.0017 0.000091 0.12674 0 0.125-0.000091-0.0017 0.000193 0.12674 0 0.125-0.000193-0.0017 0.03155 0.12672 0.03125 0.125-0.000295-0.0017 0.000396 0.09545 0 0.09375s0.03175 0.12668 0.03125 0.125c-0.000495-0.0017 0.03184 0.09539 0.03125 0.09375-0.000592-0.0016 0.06319 0.12661 0.0625 0.125-0.000688-0.0016 0.03203 0.09531 0.03125 0.09375-0.000781-0.0016 0.06337 0.09526 0.0625 0.09375-0.000871-0.0015 0.06346 0.09521 0.0625 0.09375-0.000959-0.0015 0.06354 0.1264 0.0625 0.125-0.001-0.0014 0.06362 0.06384 0.0625 0.0625-0.0011-0.0013 0.09495 0.09502 0.09375 0.09375-0.0012-0.0013 0.09502 0.09495 0.09375 0.09375-0.0013-0.0012 0.06384 0.06362 0.0625 0.0625-0.0013-0.0011 0.09515 0.09479 0.09375 0.09375-0.0014-0.001 0.09521 0.06346 0.09375 0.0625-0.0015-0.000956 0.09527 0.06337 0.09375 0.0625-0.0015-0.000869 0.12656 0.03203 0.125 0.03125-0.0016-0.000778 0.09536 0.06318 0.09375 0.0625-0.0016-0.000685 0.09539 0.03184 0.09375 0.03125-0.0016-0.00059 0.12668 0.03174 0.125 0.03125-0.0017-0.000492 0.1267 0.03164 0.125 0.03125-0.0017-0.000393 0.09547 0.03154 0.09375 0.03125-0.0017-0.000292 0.12674 0.03144 0.125 0.03125-0.0017-0.000191 0.12674 0.000088 0.125 0-0.0017-0.000088 0.0955-0.000014 0.09375 0l28.562 0.34375c-0.0017-0.000014 0.09549-0.000088 0.09375 0-0.0017 0.000088 0.12674-0.000191 0.125 0-0.0017 0.000191 0.12672-0.03154 0.125-0.03125-0.0017 0.000292 0.09545-0.03164 0.09375-0.03125-0.0017 0.000393 0.12668-0.03174 0.125-0.03125-0.0017 0.000492 0.12664-0.03184 0.125-0.03125-0.0016 0.00059 0.09536-0.03193 0.09375-0.03125-0.0016 0.000685 0.09531-0.06328 0.09375-0.0625-0.0016 0.000778 0.12652-0.03212 0.125-0.03125-0.0015 0.000869 0.09521-0.06346 0.09375-0.0625-0.0015 0.000956 0.09515-0.06354 0.09375-0.0625-0.0014 0.001 0.09509-0.09487 0.09375-0.09375-0.0013 0.0011 0.06377-0.0637 0.0625-0.0625-0.0013 0.0012 0.09495-0.09502 0.09375-0.09375-0.0012 0.0013 0.09487-0.09509 0.09375-0.09375-0.0011 0.0013 0.06354-0.0639 0.0625-0.0625-0.001 0.0014 0.06346-0.12646 0.0625-0.125-0.000959 0.0015 0.06337-0.09526 0.0625-0.09375-0.000871 0.0015 0.06328-0.09531 0.0625-0.09375-0.000781 0.0016 0.03194-0.09536 0.03125-0.09375-0.000688 0.0016 0.06309-0.12664 0.0625-0.125-0.000592 0.0016 0.03175-0.09543 0.03125-0.09375-0.000495 0.0017 0.03165-0.1267 0.03125-0.125-0.000396 0.0017 0.000295-0.09547 0-0.09375-0.000295 0.0017 0.03144-0.12674 0.03125-0.125-0.000193 0.0017 0.000091-0.12674 0-0.125-0.000091 0.0017-0.000011-0.12675 0-0.125 0.000011 0.0017-0.000114-0.09549 0-0.09375 0.000114 0.0017-0.000216-0.12673 0-0.125 0.000216 0.0017-0.03157-0.12672-0.03125-0.125 0.000318 0.0017-0.03167-0.09545-0.03125-0.09375 0.000418 0.0017-0.03177-0.12667-0.03125-0.125l-11.031-35.375 5.7812-6.9062c-0.0013 0.0015 0.09491-0.09534 0.09375-0.09375-0.0012 0.0016 0.06355-0.12667 0.0625-0.125-0.001 0.0017 0.06344-0.09548 0.0625-0.09375-0.000938 0.0017 0.06332-0.12679 0.0625-0.125-0.000821 0.0018 0.0632-0.12684 0.0625-0.125-0.000701 0.0018 0.03183-0.12688 0.03125-0.125-0.000577 0.0019 0.0317-0.12692 0.03125-0.125-0.000452 0.0019 0.03157-0.12694 0.03125-0.125-0.000324 0.0019 0.03144-0.12696 0.03125-0.125-0.000195 0.002 0.000065-0.12697 0-0.125-0.000064 0.002-0.000066-0.12697 0-0.125 0.000066 0.002-0.000196-0.15821 0-0.15625 0.000196 0.002-0.03158-0.12694-0.03125-0.125 0.000325 0.0019-0.0317-0.12692-0.03125-0.125 0.000453 0.0019-0.03183-0.12688-0.03125-0.125 0.000579 0.0019-0.03195-0.12684-0.03125-0.125l-1.7188-4.3125c0.001 0.00261-0.09499-0.15876-0.09375-0.15625 0.0012 0.00251-0.06397-0.15863-0.0625-0.15625 0.0015 0.00238-0.12669-0.15848-0.125-0.15625 0.0017 0.00223-0.12689-0.15831-0.125-0.15625 0.0019 0.00206-0.12708-0.12688-0.125-0.125 0.0021 0.00188-0.12724-0.12667-0.125-0.125 0.0022 0.00167-0.15864-0.095205-0.15625-0.09375 0.0024 0.00146-0.19002-0.094974-0.1875-0.09375 0.0025 0.00122-0.15887-0.063483-0.15625-0.0625 0.0026 0.0009826-0.1902-0.063232-0.1875-0.0625 0.0027 0.0007321-0.15901-0.031725-0.15625-0.03125 0.0028 0.0004751-0.19029-0.031464-0.1875-0.03125 0.0028 0.000214-0.1903 0.0000491-0.1875 0s-0.19028 0.0003117-0.1875 0c0.0028-0.0003117-0.19024 0.031822-0.1875 0.03125 0.0022-0.0004573-0.11039 0.019474-0.15625 0.03125l-7.125 2.125-7.3125-2.125c0.0026 0.0007459-0.1902-0.031749-0.1875-0.03125 0.0027 0.0004994-0.15898-0.031498-0.15625-0.03125 0.0027 0.0002485-0.19024 0.0000044-0.1875 0 0.0027-0.0000044-0.19023 0.0002573-0.1875 0a1.03 1.03 0 0 0 -0.03125 0z"/>
  <path id="path4396" style="opacity:.15;fill-rule:evenodd" d="m-73.84 3.7591a0.94065 0.94065 0 0 0 -0.6875 0.4375l-2.4375 3.75a0.94065 0.94065 0 0 0 0.0625 1.125l7.0312 8-11.219 35.438a0.94065 0.94065 0 0 0 0.90625 1.2188l28.562 0.34375a0.94065 0.94065 0 0 0 0.90625 -1.2188l-11.188-35.906 6.125-7.3437a0.94065 0.94065 0 0 0 0.15625 -0.9375l-1.7188-4.3125a0.94065 0.94065 0 0 0 -1.1562 -0.5625l-7.4062 2.2188-7.5938-2.2188a0.94065 0.94065 0 0 0 -0.34375 -0.03125z"/>
  <path id="path4383" d="m-73.746 4.6966-2.4375 3.75 7.375 8.4062-11.375 35.938 28.562 0.34375-11.344-36.375 6.4688-7.75-1.7188-4.3125-7.6562 2.3125-7.875-2.3125z" style="opacity:.3;fill-rule:evenodd"/>
  <path id="path5114" style="fill:url(#linearGradient7409);fill-rule:evenodd" d="m-73.733 3.7046 7.8634 2.3163 7.6396-2.3163 1.7419 4.3077-9.3815 11.195-10.302-11.774 2.4387-3.7286z"/>
  <path id="path5116" style="fill:url(#linearGradient7411);fill-rule:evenodd" d="m-68.768 15.724-11.411 36.057 28.57 0.34838-11.391-36.445-5.7683 0.03875z"/>
  <path id="path5135" style="opacity:.4;fill:url(#linearGradient7413);fill-rule:evenodd" d="m-68.942 15.724c2.9612 1.2193 5.9225 0.08709 5.9225 0.08709s5.6226 17.779 10.396 33.619c-3.0805-3.5709-9.7601-31.178-11.093-31.528-1.4052-0.36975 0.82423 15.284-0.23494 16.2-2.0032-17.767-3.9456-18.551-5.165-16.809l0.03803-0.34224c0.05125-0.4613 0.13616-1.2255 0.13616-1.2255z"/>
  <path id="path5145" style="opacity:.2;fill:#fff" d="m-62.205 26.725a8.1293 0.61586 85.802 1 1 -1.2284 0.09017 8.1293 0.61586 85.802 1 1 1.2284 -0.09017z"/>
  <path id="path4460" style="opacity:.15;fill-rule:evenodd" d="m-83.778 2.2278-1.2812 2.3438 6.9375 15.719s3.3815-7.0511 12.062-13.437c-4.5947-0.72947-8.6502-2.7881-11.531-4.625h-6.1875zm29.344 0c-2.881 1.8369-6.9678 3.8955-11.562 4.625 8.681 6.3864 12.062 13.437 12.062 13.437l6.9375-15.719-1.2812-2.3438h-6.1562z"/>
  <path id="path5411" style="opacity:.4" d="m-81.61 0.22785c0.61867 2.953 7.2336 5.284 15.301 5.284 8.0672 0 14.664-2.331 15.281-5.284h-4.926c-2.2567 1.4767-5.9776 2.4577-10.194 2.4577-4.2162 0-7.9371-0.98096-10.194-2.4577h-5.2678z"/>
  <path id="path4453" style="opacity:.3;fill-rule:evenodd" d="m-83.778 1.2278-1.2812 2.3438 6.9375 15.719s3.3815-7.0511 12.062-13.437c-4.5947-0.72947-8.6502-2.7881-11.531-4.625h-6.1875zm29.344 0c-2.881 1.8369-6.9678 3.8955-11.562 4.625 8.681 6.3864 12.062 13.437 12.062 13.437l6.9375-15.719-1.2812-2.3438h-6.1562z"/>
  <path id="path4980" style="fill:url(#linearGradient7415);fill-rule:evenodd" d="m-83.781 0.22785-1.2667 2.3348 6.9366 15.729s3.3827-7.0489 12.064-13.435c-4.5947-0.72947-8.6599-2.7918-11.541-4.6286h-6.1927z"/>
  <path id="path4992" style="fill:url(#linearGradient7417);fill-rule:evenodd" d="m-54.447 0.22785c-2.881 1.8369-6.9462 3.8992-11.541 4.6286 8.681 6.3864 12.064 13.435 12.064 13.435l6.9165-15.729-1.2667-2.3348h-6.1726z"/>
  <path id="path4996" style="opacity:.1;fill-rule:evenodd" d="m-78.875 0.22785c2.862 1.8329 6.9098 3.8934 11.541 4.6286-6.4428 4.7398-9.9507 9.83-11.34 12.145l0.56297 1.2903s3.3827-7.0489 12.064-13.435c-4.595-0.73-8.659-2.7926-11.542-4.6292h-1.2868z"/>
  <path id="path5006" style="opacity:.8;fill:#fff;fill-rule:evenodd" d="m-65.987 4.8565c8.681 6.3864 12.064 13.435 12.064 13.435l0.56297-1.2903c-1.3892-2.3151-4.8971-7.4053-11.34-12.145"/>
  <path id="path5001" style="opacity:.1;fill-rule:evenodd" d="m-54.447 0.22785c-2.8774 1.8366-6.9462 3.8992-11.541 4.6286 0.47095 0.34647 0.90704 0.69542 1.3471 1.0445 5.1583-1.1266 9.5286-3.8072 12.104-5.6732h-1.9101zm5.4488 0 1.6688 3.0516 0.3217-0.71683-1.2667-2.3348h-0.72382z"/>
  <path id="path4871" style="fill:url(#linearGradient7419)" d="m-108.33 17.38v51.744c7.0272 16.61 19.028 15.104 17.3 15.104h27.969s0.24654-18.837 0-21.781c-0.48626-5.807-14.3-40.343-21.469-63.736 0.16326-0.24275-0.97507-0.19293-9.5 1.5173-7.7424 1.341-13.855 10.95-14.3 17.152z"/>
  <path id="path4227" style="opacity:.15" d="m-70.588 62.449c-0.24655 2.9442 0 21.601 0 21.601l38.702-2.7326c1.214-27.934-34.745-45.955-38.702-18.868z"/>
  <path id="path4229" style="opacity:.1" d="m-71.588 62.449c-0.24655 2.9442 0 21.601 0 21.601h39.687c1.213-27.934-35.73-48.688-39.687-21.601z"/>
  <path id="path4200" style="opacity:.1;fill-rule:evenodd" d="m-94.621-0.7409c-0.000465 0.0000493-0.12454 0.031173-0.125 0.03125-0.000461 0.0000768-0.12454 0.031146-0.125 0.03125-0.000456 0.000104-0.0933-0.0001308-0.09375 0-0.000449 0.0001308-0.12456 0.062343-0.125 0.0625-0.00044 0.0001572-0.09332 0.031067-0.09375 0.03125-0.00043 0.0001831-0.09333 0.062292-0.09375 0.0625-0.000419 0.0002082-0.1246 0.031017-0.125 0.03125-0.000312 0.000179-0.03557 0.045957-0.0625 0.0625-0.0081 0.00496-0.03116-0.0000591-0.03125 0v0.03125c-1.5172 0.96486-3.3268 2.9037-5.375 7h0.0313c-0.00027 0.000517-0.0623 0.12446-0.0625 0.125-0.00023 0.000535-0.0623 0.12445-0.0625 0.125-0.00019 0.000551-0.0311 0.15569-0.0313 0.15625-0.00015 0.000563-0.0311 0.12443-0.0313 0.125-0.00011 0.000572-0.0312 0.15567-0.0313 0.15625-0.00006 0.000579 0.00002 0.12442 0 0.125-0.00002 0.000582-0.00002 0.15567 0 0.15625 0.00002 0.000582-0.00007 0.15567 0 0.15625 0.00007 0.000578 0.0311 0.12443 0.0313 0.125 0.00011 0.000572 0.0311 0.15569 0.0313 0.15625 0.00015 0.000562 0.0311 0.12445 0.0313 0.125 0.00019 0.00055 0.0623 0.12447 0.0625 0.125 0.00023 0.000534 0.0622 0.15574 0.0625 0.15625 0.00027 0.000515 0.0622 0.12451 0.0625 0.125 0.00031 0.000494 0.0934 0.09328 0.0937 0.09375 0.00034 0.00047 0.0621 0.12456 0.0625 0.125a0.96458 0.96458 0 0 0 0.0313 0l4.5625 5.25c-1.9658 2.0448-3.8382 4.3143-5.125 5.1562-0.005 0.003-0.0267-0.003-0.0313 0-0.0256 0.01662-0.0623 0.03108-0.0625 0.03125-0.00035 0.000238-0.0934 0.06224-0.0937 0.0625-0.00033 0.000256-0.0622 0.09348-0.0625 0.09375-0.00032 0.000274-0.0935 0.06221-0.0937 0.0625-0.0003 0.00029-0.0622 0.06219-0.0625 0.0625-0.00029 0.000306-0.0622 0.09343-0.0625 0.09375-0.00027 0.000321-0.0623 0.06217-0.0625 0.0625-0.00025 0.000335-0.0623 0.0934-0.0625 0.09375-0.00024 0.000348-0.0623 0.09339-0.0625 0.09375-0.00022 0.00036-0.0623 0.09338-0.0625 0.09375-0.0002 0.000371-0.0311 0.09337-0.0313 0.09375-0.00018 0.000381-0.0311 0.09336-0.0313 0.09375-0.00016 0.00039-0.0624 0.09335-0.0625 0.09375-0.00014 0.000398-0.0311 0.09334-0.0313 0.09375-0.00011 0.000405 0.00009 0.09334 0 0.09375s-0.0312 0.12458-0.0313 0.125c-0.00007 0.000415-0.0312 0.09333-0.0313 0.09375-0.00005 0.000418 0.00003 0.09333 0 0.09375s0 0.09333 0 0.09375c0 0.000421-0.00002 0.12458 0 0.125s-0.00004 0.09333 0 0.09375c0.00004 0.000419 0.0312 0.09333 0.0313 0.09375 0.00006 0.000416-0.00009 0.12459 0 0.125 0.00009 0.000412 0.0311 0.09334 0.0313 0.09375 0.00011 0.000407 0.0311 0.09335 0.0313 0.09375 0.00013 0.0004 0.0311 0.09336 0.0313 0.09375 0.00015 0.000393 0.0311 0.09337 0.0313 0.09375 0.00017 0.000384 0.0623 0.09338 0.0625 0.09375 0.00019 0.000375 0.031 0.09339 0.0313 0.09375 0.00021 0.000364 0.0623 0.0934 0.0625 0.09375 0.00023 0.000352 0.0622 0.09341 0.0625 0.09375 0.00019 0.000261 0.0451 0.04002 0.0625 0.0625 0.006 0.0077 0.025 0.02348 0.0313 0.03125 3.5488 4.447 12.245 13.255 20.375 22.125 4.0721 4.4428 8.0004 8.8771 10.969 12.656 1.4793 1.8834 2.6949 3.6287 3.5938 5.0938s1.4699 2.7115 1.5938 3.2812c0.000162 0.000659 0.06228 0.18686 0.0625 0.1875 0.000218 0.000643 0.03098 0.15563 0.03125 0.15625 0.000273 0.000622 0.09343 0.1244 0.09375 0.125 0.000325 0.000596 0.09338 0.15568 0.09375 0.15625 0.000375 0.000566 0.09333 0.12447 0.09375 0.125 0.000422 0.000531 0.09328 0.12451 0.09375 0.125 0.000467 0.000493 0.12449 0.12455 0.125 0.125 0.000507 0.000451 0.12446 0.12459 0.125 0.125 0.000544 0.000406 0.15567 0.09339 0.15625 0.09375 0.000577 0.000358 0.12439 0.06219 0.125 0.0625 0.000606 0.000307 0.15562 0.06225 0.15625 0.0625 0.00063 0.000253 0.1556 0.0623 0.15625 0.0625 0.000649 0.000198 0.18684 0.06236 0.1875 0.0625 0.000664 0.000142 0.15558-0.000084 0.15625 0 0.000674 0.000084 0.15557 0.03122 0.15625 0.03125 0.000678 0.000026 0.18682 0.000033 0.1875 0 0.000678-0.000033 0.15558-0.03116 0.15625-0.03125 0.000673-0.000091 0.15559-0.0311 0.15625-0.03125 0.000662-0.000149 0.18685-0.03105 0.1875-0.03125 0.000647-0.000205 0.15562-0.06224 0.15625-0.0625 0.000627-0.00026 0.15565-0.06219 0.15625-0.0625 0.000602-0.000313 0.12443-0.09339 0.125-0.09375 0.000573-0.000364 0.15571-0.09334 0.15625-0.09375 0.00054-0.000412 0.1245-0.09329 0.125-0.09375 0.000502-0.000457 0.12454-0.1245 0.125-0.125 0.000461-0.000498 0.09333-0.12446 0.09375-0.125 0.000417-0.000536 0.09338-0.15568 0.09375-0.15625 0.000369-0.00057 0.09343-0.1244 0.09375-0.125 0.000319-0.000599 0.06223-0.15562 0.0625-0.15625 0.000266-0.000625 0.06229-0.1556 0.0625-0.15625 0.000211-0.000645 0.06235-0.15559 0.0625-0.15625 0.000155-0.000661 0.03115-0.18683 0.03125-0.1875l0.09375-0.75c0.000133-0.000495 0.01951-0.07074 0.03125-0.125 0.0056-0.02605-0.00004-0.06226 0-0.0625 0.000125-0.000749 0.0312-0.18674 0.03125-0.1875 0.000009-0.000191-0.000058-0.0563 0-0.0625-0.00012-0.01557 0.000155-0.01782 0-0.03125-0.00031-0.02686-0.000502-0.09156 0-0.125-0.000043 0.0028 0.02186-0.17668 0-0.4375-0.15016-1.7932-0.98546-4.5171-2.1875-8.4062-1.2044-3.8969-2.8181-8.7749-4.6875-14.125-3.7175-10.639-8.3548-23.08-12.281-33.156a0.96458 0.96458 0 0 0 -0.0625 -0.1875 0.96458 0.96458 0 0 0 0 -0.03125c-0.85623-2.1794-1.6506-4.3975-2.3438-6.6562-0.00003-0.0001047 0.0024-0.023923 0-0.03125-0.01149-0.035169-0.06232-0.12451-0.0625-0.125-0.00022-0.0005915-0.06223-0.15568-0.0625-0.15625-0.000267-0.000572-0.06219-0.12445-0.0625-0.125-0.000312-0.0005488-0.0934-0.12448-0.09375-0.125-0.000354-0.0005222-0.09335-0.12451-0.09375-0.125-0.000395-0.0004921-0.09332-0.12454-0.09375-0.125-0.000433-0.0004589-0.12453-0.12458-0.125-0.125-0.000469-0.0004228-0.09325-0.093366-0.09375-0.09375-0.000501-0.000384-0.12447-0.093407-0.125-0.09375-0.00053-0.0003427-0.15569-0.062201-0.15625-0.0625-0.000556-0.0002992-0.12442-0.093496-0.125-0.09375-0.000578-0.0002538-0.15565-0.031043-0.15625-0.03125-0.000596-0.0002067-0.15564-0.062342-0.15625-0.0625-0.000611-0.0001584-0.15563-0.031141-0.15625-0.03125-0.000622-0.000109-0.15562-0.031191-0.15625-0.03125-0.000628-0.0000589-0.15562 0.0000084-0.15625 0h-9.875c-0.000149-0.0000071-0.01939 0.0000043-0.03125 0-0.04745-0.000017-0.1244-0.0000284-0.125 0a0.96458 0.96458 0 0 0 -0.0625 0zm31.594 64.625s0.25859-0.000932 0.375 0l-0.375 0.03125c0.000788 0.01171 0-0.03125 0-0.03125z"/>
  <path id="path4196" style="opacity:.15;fill-rule:evenodd" d="m-94.434 0.22785a0.98812 0.98812 0 0 0 -0.53125 0.15625c-1.3058 0.82125-3.0159 2.6256-5.0312 6.6562a0.98812 0.98812 0 0 0 0.125 1.0938l5.1562 5.9062c-2.1379 2.1365-4.2162 4.8211-5.9375 5.9375a0.98812 0.98812 0 0 0 -0.25 1.4688c3.4401 4.318 12.214 13.19 20.375 22.094 4.0805 4.4519 8.0042 8.9047 11 12.719 2.9958 3.8141 5.0223 7.1275 5.375 8.75a0.98812 0.98812 0 0 0 1.9375 -0.09375l0.125-0.875a0.98812 0.98812 0 0 0 0.03125 -0.1875c0.0014 0.02759-0.0014-0.06123 0-0.15625s0.01664-0.14513 0-0.34375c-0.131-1.5644-0.92576-4.3386-2.125-8.2188-1.1992-3.8801-2.821-8.7518-4.6875-14.094-3.736-10.684-8.411-23.218-12.347-33.313a0.98812 0.98812 0 0 0 0 -0.03125c-0.86705-2.2069-1.6711-4.4532-2.375-6.75a0.98812 0.98812 0 0 0 -0.9375 -0.71875h-9.9062z"/>
  <path id="path4186" style="opacity:.3;fill-rule:evenodd" d="m-94.434 1.2278c-1.082 0.68047-2.7214 2.3177-4.6875 6.25l5.75 6.5625c-2.2458 2.0623-4.5274 5.3398-6.75 6.7812 6.6811 8.3861 35.159 35.787 36.938 43.969l0.125-0.875c-0.0054-0.10632 0.006-0.39715 0-0.46875-0.43788-5.2291-11.2-35.21-19.062-55.375-0.87469-2.2263-1.6935-4.5181-2.4062-6.8438h-9.9062z"/>
  <path id="path4877" style="fill:url(#linearGradient7421);fill-rule:evenodd" d="m-84.514 0.22785c0.71271 2.3257 1.5278 4.6031 2.4025 6.8294 7.8625 20.165 18.604 50.163 19.042 55.392 0.006 0.0716 0.0168 0.36084 0.0222 0.46716l-0.13344 0.86758c-1.7787-8.1819-30.247-35.572-36.928-43.958 2.2226-1.4415 4.4947-4.7226 6.7405-6.785l-5.7616-6.5625c1.9662-3.9323 3.6119-5.5706 4.6938-6.2511h9.9216z"/>
  <path id="path4879" style="opacity:.2;fill:#525252;fill-rule:evenodd" d="m-84.514 0.22785c0.71271 2.3257 1.5278 4.6031 2.4025 6.8294 7.8625 20.165 18.604 50.163 19.042 55.392 0.006 0.0716 0.0168 0.36084 0.0222 0.46716l-0.13344 0.86758c-0.26462-1.2173-0.99695-2.6029-2.0689-4.1155-2.617-6.9159-11.512-35.237-18.286-52.611-0.87469-2.2263-1.6898-4.5038-2.4025-6.8294h1.4237z"/>
  <path id="path4916" style="opacity:.3" d="m-69.588 62.449c-0.24655 2.9442 0 21.601 0 21.601l38.198-2.7095c1.214-27.934-34.241-45.978-38.198-18.891z"/>
  <path id="path4930" style="opacity:.15;fill:#fff;fill-rule:evenodd" d="m-94.436 0.22785c-1.082 0.68047-2.7277 2.3188-4.6938 6.2511l5.7616 6.5625c-2.2458 2.0623-4.5179 5.3435-6.7405 6.785 6.6811 8.3861 35.149 35.776 36.928 43.958l0.13347-0.86758c-0.006-0.10632-0.0162-0.39556-0.0222-0.46716-0.0469-0.56011-0.24451-1.4501-0.51165-2.536-0.004-0.0057 0.004-0.01655 0-0.02225-6.7319-10.838-29.258-32.727-35.104-40.065 2.2226-1.4415 4.4947-4.7226 6.7405-6.785l-5.7617-6.5625c1.9662-3.9323 3.6119-5.5706 4.6939-6.2511h-1.4237z"/>
  <path id="path3173" style="fill:url(#linearGradient7423)" d="m-47.528-1.2895c-7.169 23.393-20.982 57.929-21.469 63.736-0.24654 2.9442 0 21.781 0 21.781h30.969c12.867-7.2105 13.611-12.436 15.5-17.152v-49.695c-0.96037-8.1224-9.2888-17.152-15.5-17.152-1.2199-0.89961-3.4363-1.5976-9.5-1.5173z"/>
  <path id="path4850" style="opacity:.15;fill:#fff" d="m-43.918 7.5226c-11.72 23.393-24.204 49.119-24.999 54.926-0.40307 2.9442 0 21.779 0 21.779h2.3277s-0.40307-18.834 0-21.779c0.79501-5.807 13.278-31.533 24.999-54.927h-2.3277z"/>
  <path id="path5198" style="opacity:.4;fill:url(#linearGradient7425);fill-rule:evenodd" d="m-84.514 0.22785c0.71271 2.3257 1.5278 4.6031 2.4025 6.8294 6.6678 17.101 15.384 41.225 18.153 51.365-3.8903-20.081-9.4747-38.725-16.069-58.195h-4.4862z"/>
  <path id="path4221" style="opacity:.1;fill-rule:evenodd" d="m-37.356-0.7409c0.000465 0.0000493 0.12454 0.031173 0.125 0.03125 0.000461 0.0000768 0.12454 0.031146 0.125 0.03125 0.000456 0.000104 0.0933-0.0001308 0.09375 0 0.000449 0.0001308 0.12456 0.062343 0.125 0.0625 0.00044 0.0001572 0.09332 0.031067 0.09375 0.03125 0.00043 0.0001831 0.09333 0.062292 0.09375 0.0625 0.000419 0.0002082 0.1246 0.031017 0.125 0.03125 0.000312 0.000179 0.03557 0.045957 0.0625 0.0625 0.0081 0.00496 0.03116-0.0000591 0.03125 0v0.03125c1.5172 0.96486 3.3268 2.9037 5.375 7h-0.03125c0.000267 0.000517 0.06227 0.12446 0.0625 0.125 0.000228 0.000535 0.06231 0.12445 0.0625 0.125 0.000188 0.000551 0.0311 0.15569 0.03125 0.15625 0.000147 0.000563 0.03115 0.12443 0.03125 0.125 0.000105 0.000572 0.03119 0.15567 0.03125 0.15625 0.000063 0.000579-0.00002 0.12442 0 0.125 0.00002 0.000582 0.000023 0.15567 0 0.15625-0.000023 0.000582 0.000066 0.15567 0 0.15625-0.000066 0.000578-0.03114 0.12443-0.03125 0.125-0.000109 0.000572-0.0311 0.15569-0.03125 0.15625-0.00015 0.000562-0.03106 0.12445-0.03125 0.125-0.000192 0.00055-0.06227 0.12447-0.0625 0.125-0.000232 0.000534-0.06223 0.15574-0.0625 0.15625-0.00027 0.000515-0.06219 0.12451-0.0625 0.125-0.000308 0.000494-0.09341 0.09328-0.09375 0.09375-0.000343 0.00047-0.06212 0.12456-0.0625 0.125a0.96458 0.96458 0 0 1 -0.03125 0l-4.5625 5.25c1.9658 2.0448 3.8382 4.3143 5.125 5.1562 0.0046 0.003 0.02669-0.003 0.03125 0 0.02565 0.01662 0.06226 0.03108 0.0625 0.03125 0.000347 0.000238 0.09342 0.06224 0.09375 0.0625 0.000334 0.000256 0.06218 0.09348 0.0625 0.09375 0.000319 0.000274 0.09345 0.06221 0.09375 0.0625 0.000304 0.00029 0.06221 0.06219 0.0625 0.0625 0.000288 0.000306 0.06223 0.09343 0.0625 0.09375 0.000272 0.000321 0.06225 0.06217 0.0625 0.0625 0.000254 0.000335 0.06226 0.0934 0.0625 0.09375 0.000236 0.000348 0.06228 0.09339 0.0625 0.09375 0.000217 0.00036 0.0623 0.09338 0.0625 0.09375 0.000198 0.000371 0.03107 0.09337 0.03125 0.09375 0.000177 0.000381 0.03109 0.09336 0.03125 0.09375 0.000157 0.00039 0.06236 0.09335 0.0625 0.09375 0.000136 0.000398 0.03114 0.09334 0.03125 0.09375 0.000114 0.000405-0.000093 0.09334 0 0.09375s0.03118 0.12458 0.03125 0.125c0.000071 0.000415 0.0312 0.09333 0.03125 0.09375 0.000048 0.000418-0.000026 0.09333 0 0.09375s-0.000004 0.09333 0 0.09375c0.000004 0.000421 0.000019 0.12458 0 0.125s0.000041 0.09333 0 0.09375c-0.000041 0.000419-0.03119 0.09333-0.03125 0.09375-0.000064 0.000416 0.000086 0.12459 0 0.125-0.000086 0.000412-0.03114 0.09334-0.03125 0.09375-0.000107 0.000407-0.03112 0.09335-0.03125 0.09375-0.000129 0.0004-0.0311 0.09336-0.03125 0.09375-0.00015 0.000393-0.03108 0.09337-0.03125 0.09375-0.000171 0.000384-0.06231 0.09338-0.0625 0.09375-0.000191 0.000375-0.03104 0.09339-0.03125 0.09375-0.000211 0.000364-0.06227 0.0934-0.0625 0.09375-0.00023 0.000352-0.06225 0.09341-0.0625 0.09375-0.000191 0.000261-0.04509 0.04002-0.0625 0.0625-0.0062 0.0077-0.02505 0.02348-0.03125 0.03125-3.5488 4.447-12.245 13.255-20.375 22.125-4.0721 4.4428-8.0004 8.8771-10.969 12.656-1.4793 1.8834-2.6949 3.6287-3.5938 5.0938s-1.4699 2.7115-1.5938 3.2812c-0.000162 0.000659-0.06228 0.18686-0.0625 0.1875-0.000218 0.000643-0.03098 0.15563-0.03125 0.15625-0.000273 0.000622-0.09343 0.1244-0.09375 0.125-0.000325 0.000596-0.09338 0.15568-0.09375 0.15625-0.000375 0.000566-0.09333 0.12447-0.09375 0.125-0.000422 0.000531-0.09328 0.12451-0.09375 0.125-0.000467 0.000493-0.12449 0.12455-0.125 0.125-0.000507 0.000451-0.12446 0.12459-0.125 0.125-0.000544 0.000406-0.15567 0.09339-0.15625 0.09375-0.000577 0.000358-0.12439 0.06219-0.125 0.0625-0.000606 0.000307-0.15562 0.06225-0.15625 0.0625-0.00063 0.000253-0.1556 0.0623-0.15625 0.0625-0.000649 0.000198-0.18684 0.06236-0.1875 0.0625-0.000664 0.000142-0.15558-0.000084-0.15625 0-0.000674 0.000084-0.15557 0.03122-0.15625 0.03125-0.000678 0.000026-0.18682 0.000033-0.1875 0-0.000678-0.000033-0.15558-0.03116-0.15625-0.03125-0.000673-0.000091-0.15559-0.0311-0.15625-0.03125-0.000662-0.000149-0.18685-0.03105-0.1875-0.03125-0.000647-0.000205-0.15562-0.06224-0.15625-0.0625-0.000627-0.00026-0.15565-0.06219-0.15625-0.0625-0.000602-0.000313-0.12443-0.09339-0.125-0.09375-0.000573-0.000364-0.15571-0.09334-0.15625-0.09375-0.00054-0.000412-0.1245-0.09329-0.125-0.09375-0.000502-0.000457-0.12454-0.1245-0.125-0.125-0.000461-0.000498-0.09333-0.12446-0.09375-0.125-0.000417-0.000536-0.09338-0.15568-0.09375-0.15625-0.000369-0.00057-0.09343-0.1244-0.09375-0.125-0.000319-0.000599-0.06223-0.15562-0.0625-0.15625-0.000266-0.000625-0.06229-0.1556-0.0625-0.15625-0.000211-0.000645-0.06235-0.15559-0.0625-0.15625-0.000155-0.000661-0.03115-0.18683-0.03125-0.1875l-0.09375-0.75c-0.000133-0.000495-0.01951-0.07074-0.03125-0.125-0.0056-0.02605 0.00004-0.06226 0-0.0625-0.000125-0.000749-0.0312-0.18674-0.03125-0.1875-0.000009-0.000191 0.000058-0.0563 0-0.0625 0.00012-0.01557-0.000155-0.01782 0-0.03125 0.00031-0.02686 0.000502-0.09156 0-0.125 0.000043 0.0028-0.02186-0.17668 0-0.4375 0.15016-1.7932 0.98546-4.5171 2.1875-8.4062 1.2044-3.8969 2.8181-8.7749 4.6875-14.125 3.7175-10.639 8.3548-23.08 12.281-33.156a0.96458 0.96458 0 0 1 0.0625 -0.1875 0.96458 0.96458 0 0 1 0 -0.03125c0.85623-2.1794 1.6506-4.3975 2.3438-6.6562 0.00003-0.0001047-0.0024-0.023923 0-0.03125 0.01149-0.035169 0.06232-0.12451 0.0625-0.125 0.00022-0.0005915 0.06223-0.15568 0.0625-0.15625 0.000267-0.000572 0.06219-0.12445 0.0625-0.125 0.000312-0.0005488 0.0934-0.12448 0.09375-0.125 0.000354-0.0005222 0.09335-0.12451 0.09375-0.125 0.000395-0.0004921 0.09332-0.12454 0.09375-0.125 0.000433-0.0004589 0.12453-0.12458 0.125-0.125 0.000469-0.0004228 0.09325-0.093366 0.09375-0.09375 0.000501-0.000384 0.12447-0.093407 0.125-0.09375 0.00053-0.0003427 0.15569-0.062201 0.15625-0.0625 0.000556-0.0002992 0.12442-0.093496 0.125-0.09375 0.000578-0.0002538 0.15565-0.031043 0.15625-0.03125 0.000596-0.0002067 0.15564-0.062342 0.15625-0.0625 0.000611-0.0001584 0.15563-0.031141 0.15625-0.03125 0.000622-0.000109 0.15562-0.031191 0.15625-0.03125 0.000628-0.0000589 0.15562 0.0000084 0.15625 0h9.875c0.000149-0.0000071 0.01939 0.0000043 0.03125 0 0.04745-0.000017 0.1244-0.0000284 0.125 0a0.96458 0.96458 0 0 1 0.0625 0zm-31.593 64.625s-0.25859-0.000932-0.375 0l0.375 0.03125c-0.000788 0.01171 0-0.03125 0-0.03125z"/>
  <path id="path4223" style="opacity:.15;fill-rule:evenodd" d="m-37.543 0.22785a0.98812 0.98812 0 0 1 0.53125 0.15625c1.3058 0.82125 3.0159 2.6256 5.0312 6.6562a0.98812 0.98812 0 0 1 -0.125 1.0938l-5.1562 5.9062c2.1379 2.1365 4.2162 4.8211 5.9375 5.9375a0.98812 0.98812 0 0 1 0.25 1.4688c-3.4401 4.318-12.214 13.19-20.375 22.094-4.0805 4.4519-8.0042 8.9047-11 12.719-2.9958 3.8141-5.0223 7.1275-5.375 8.75a0.98812 0.98812 0 0 1 -1.9375 -0.09375l-0.125-0.875a0.98812 0.98812 0 0 1 -0.03125 -0.1875c-0.0014 0.02759 0.0014-0.06123 0-0.15625s-0.01664-0.14513 0-0.34375c0.131-1.5644 0.92576-4.3386 2.125-8.2188 1.1992-3.8801 2.821-8.7518 4.6875-14.094 3.7331-10.684 8.4077-23.218 12.344-33.312a0.98812 0.98812 0 0 1 0 -0.03125c0.86705-2.2069 1.6711-4.4532 2.375-6.75a0.98812 0.98812 0 0 1 0.9375 -0.71875h9.9062z"/>
  <path id="path4225" style="opacity:.3;fill-rule:evenodd" d="m-37.543 1.2278c1.082 0.68047 2.7214 2.3177 4.6875 6.25l-5.75 6.5625c2.2458 2.0623 4.5274 5.3398 6.75 6.7812-6.6811 8.3861-35.159 35.787-36.938 43.969l-0.125-0.875c0.0054-0.10632-0.006-0.39715 0-0.46875 0.43788-5.2291 11.2-35.21 19.062-55.375 0.87469-2.2263 1.6935-4.5181 2.4062-6.8438h9.9062z"/>
  <path id="path3183" style="fill:url(#linearGradient7427);fill-rule:evenodd" d="m-47.541 0.22785c-0.71271 2.3257-1.5278 4.6031-2.4025 6.8294-7.8625 20.165-18.604 50.163-19.042 55.392-0.006 0.0716-0.0168 0.36084-0.0222 0.46716l0.13344 0.86758c1.7787-8.1819 30.247-35.572 36.928-43.958-2.2226-1.4415-4.4947-4.7226-6.7405-6.785l5.7617-6.5625c-1.9662-3.9323-3.6119-5.5706-4.6939-6.2511h-9.9216z"/>
  <path id="path4840" style="opacity:.2;fill:url(#linearGradient7429);fill-rule:evenodd" d="m-47.541 0.22785c-0.71271 2.3257-1.5278 4.6031-2.4025 6.8294-7.8625 20.165-18.604 50.163-19.042 55.392-0.006 0.0716-0.0168 0.36084-0.0222 0.46716l0.13344 0.86758c0.26463-1.2173 0.99696-2.6029 2.0689-4.1155 2.617-6.9159 11.512-35.237 18.286-52.611 0.87469-2.2263 1.6898-4.5038 2.4025-6.8294h-1.4237z"/>
  <path id="path4936" style="stroke-linejoin:round;stroke:url(#linearGradient7431);stroke-linecap:square;fill:#3d3d3d" d="m-64.942 63.246a2.4915 2.4915 0 1 1 3.5236 3.5235 2.4915 2.4915 0 0 1 -3.5236 -3.5235z"/>
  <path id="path4966" style="stroke-linejoin:round;stroke:url(#linearGradient7433);stroke-linecap:square;stroke-width:.75;fill:none" d="m-61.796 66.392a1.9579 1.9579 0 1 1 -2.7689 -2.7689 1.9579 1.9579 0 1 1 2.7689 2.7689z"/>
  <path id="path7330" style="stroke-linejoin:round;stroke:url(#linearGradient7435);stroke-linecap:square;fill:#3d3d3d" d="m-64.942 74.636a2.4915 2.4915 0 1 1 3.5236 3.5235 2.4915 2.4915 0 0 1 -3.5236 -3.5235z"/>
  <path id="path7332" style="stroke-linejoin:round;stroke:url(#linearGradient7437);stroke-linecap:square;stroke-width:.75;fill:none" d="m-61.796 77.782a1.9579 1.9579 0 1 1 -2.7689 -2.7689 1.9579 1.9579 0 0 1 2.7689 2.7689z"/>
  <path id="path5175" style="opacity:.3;fill-rule:evenodd" d="m-83.749 3.5288c-1.3615 1.3383-7.3543 6.5357-13.073 12.963 8.2312-7.598 12.518-10.107 13.97-10.834-0.35434-0.90857-0.56642-1.2043-0.89753-2.1296z"/>
  <path id="path5180" style="opacity:.3;fill-rule:evenodd" d="m-48.76 3.2772c1.3615 1.3383 7.3543 6.5357 13.073 12.963-8.2312-7.598-12.518-10.107-13.97-10.834 0.35433-0.90857 0.56642-1.2043 0.89753-2.1296z"/>
  <path id="path5241" style="fill:#464342;fill-rule:evenodd" d="m-48.622 63.775c0.17787-1.0672 0-8.3598 0-8.3598l24.546-3.2016-22.907 4.8024-1.6388 6.759z"/>
  <path id="path5409" style="opacity:.15;fill:#fff;fill-rule:evenodd" d="m-48.433 63.649c0.17787-1.0672 1.0062-6.7247 1.0062-6.7247l19.766-3.6842-18.631 4.782-2.1419 5.627z"/>
  <path id="path4231" style="opacity:.4;fill:url(#linearGradient7439);fill-rule:evenodd" d="m-47.552 0.22785c-0.71271 2.3257-1.5278 4.6031-2.4025 6.8294-6.6678 17.101-15.384 41.225-18.153 51.365 3.8903-20.081 9.4747-38.725 16.069-58.195h4.4862z"/>
 </g>
 <rect id="rect892-2-7-8" style="opacity:.15891;stroke:#000;stroke-width:4.8445;fill:none" transform="scale(1,-1)" ry="28.993" height="114.35" width="114.22" y="-121.16" x="6.8687"/>
 <rect id="rect892-2-7-1" style="opacity:.15891;stroke:#000;stroke-width:7.7512;fill:none" transform="scale(1,-1)" ry="28.993" height="114.35" width="114.22" y="-121.16" x="6.8687"/>
 <rect id="rect892-2-7-2-9" ry="28.067" style="stroke:#000;stroke-width:1.0489;fill:none" transform="scale(1,-1)" height="112.71" width="114.14" y="-120.31" x="7.0649"/>
 <rect id="rect3745" style="opacity:.9;filter:url(#filter3174);display:none;fill:url(#linearGradient3966)" rx="6" ry="6" height="85" width="86" y="141.1" x="-94.503"/>
 <g id="layer2" style="display:none" transform="translate(-160.42 -59.109)">
  <rect id="rect3745-2" style="opacity:.9;filter:url(#filter3174-2);fill:url(#ButtonShadow-2)" rx="6" ry="6" height="85" width="86" y="7" x="5"/>
 </g>
 <g id="layer2-6" style="display:none" transform="translate(-244.12 -52.628)">
  <rect id="rect3745-23" style="opacity:.9;filter:url(#filter3174-1);fill:url(#ButtonShadow-2)" rx="6" ry="6" height="85" width="86" y="7" x="5"/>
 </g>
 <g id="layer2-5" style="display:none" transform="translate(-120.11 5.5221)">
  <rect id="rect3745-5" style="opacity:.9;filter:url(#filter3174-4);fill:url(#ButtonShadow-2)" rx="6" ry="6" height="85" width="86" y="7" x="5"/>
 </g>
 <path id="path1187" style="fill:#fff;fill-opacity:.057143" d="m33.017 7.2319c-23.707 0-26.027 0.6738-25.93 26.295-0.04334 0.71563-0.07674 1.4439-0.07674 2.1732v32.76c18.67-38.321 38.34-51.497 90.374-61.179-0.225-0.026-0.46-0.0303-0.691-0.0303-41.576 0.3874-25.652-0.0188-63.676-0.0188z"/>
</svg>
