<?xml version="1.0" encoding="UTF-8" standalone="no"?>
<svg
   xmlns:dc="http://purl.org/dc/elements/1.1/"
   xmlns:cc="http://creativecommons.org/ns#"
   xmlns:rdf="http://www.w3.org/1999/02/22-rdf-syntax-ns#"
   xmlns:svg="http://www.w3.org/2000/svg"
   xmlns="http://www.w3.org/2000/svg"
   xmlns:xlink="http://www.w3.org/1999/xlink"
   xmlns:sodipodi="http://sodipodi.sourceforge.net/DTD/sodipodi-0.dtd"
   xmlns:inkscape="http://www.inkscape.org/namespaces/inkscape"
   viewBox="0 0 128 128"
   id="svg2"
   version="1.1"
   inkscape:version="0.91 r"
   sodipodi:docname="qsynth.svg"
   width="128"
   height="128">
  <metadata
     id="metadata51">
    <rdf:RDF>
      <cc:Work
         rdf:about="">
        <dc:format>image/svg+xml</dc:format>
        <dc:type
           rdf:resource="http://purl.org/dc/dcmitype/StillImage" />
        <dc:title></dc:title>
      </cc:Work>
    </rdf:RDF>
  </metadata>
  <sodipodi:namedview
     pagecolor="#ffffff"
     bordercolor="#666666"
     borderopacity="1"
     objecttolerance="10"
     gridtolerance="10"
     guidetolerance="10"
     inkscape:pageopacity="0"
     inkscape:pageshadow="2"
     inkscape:window-width="1366"
     inkscape:window-height="744"
     id="namedview49"
     showgrid="false"
     inkscape:zoom="2.4583333"
     inkscape:cx="97.065449"
     inkscape:cy="57.802392"
     inkscape:window-x="0"
     inkscape:window-y="24"
     inkscape:window-maximized="1"
     inkscape:current-layer="svg2" />
  <defs
     id="defs4">
    <linearGradient
       xlink:href="#6"
       id="7"
       x1="348.91"
       y1="537.40997"
       x2="348.62"
       y2="533.54999"
       gradientUnits="userSpaceOnUse" />
    <linearGradient
       xlink:href="#6"
       id="C"
       x1="359.29999"
       y1="511.34"
       x2="359.01001"
       y2="507.48001"
       gradientUnits="userSpaceOnUse" />
    <linearGradient
       id="8"
       x1="347.75"
       y1="540.87"
       x2="347.97"
       y2="501.64999"
       gradientUnits="userSpaceOnUse">
      <stop
         stop-color="#2e3e46"
         id="stop9" />
      <stop
         offset="1"
         stop-color="#435a64"
         id="stop11" />
    </linearGradient>
    <linearGradient
       xlink:href="#6"
       id="A"
       x1="342.95001"
       y1="538.63"
       x2="343.57999"
       y2="506.25"
       gradientUnits="userSpaceOnUse" />
    <linearGradient
       xlink:href="#6"
       id="B"
       gradientUnits="userSpaceOnUse"
       x1="25.860001"
       y1="37.922001"
       x2="26.423"
       y2="9.0100002" />
    <linearGradient
       xlink:href="#6"
       id="9"
       x1="348.91"
       y1="506.91"
       x2="348.62"
       y2="503.04999"
       gradientUnits="userSpaceOnUse" />
    <linearGradient
       id="6">
      <stop
         stop-color="#1584d8"
         id="stop17" />
      <stop
         offset="1"
         stop-color="#1cb2ff"
         id="stop19" />
    </linearGradient>
    <linearGradient
       xlink:href="#6"
       id="0"
       x1="333.48001"
       y1="522.39001"
       x2="333.20001"
       y2="518.53003"
       gradientUnits="userSpaceOnUse" />
    <linearGradient
       xlink:href="#6"
       id="5"
       x1="363.98999"
       y1="522.39001"
       x2="363.70001"
       y2="518.53003"
       gradientUnits="userSpaceOnUse" />
    <linearGradient
       xlink:href="#6"
       id="1"
       x1="353.10001"
       y1="543.10999"
       x2="352.75"
       y2="500.26001"
       gradientUnits="userSpaceOnUse" />
    <linearGradient
       xlink:href="#6"
       id="3"
       x1="338.06"
       y1="511.34"
       x2="337.76999"
       y2="507.48001"
       gradientUnits="userSpaceOnUse" />
    <linearGradient
       xlink:href="#6"
       id="4"
       x1="338.01999"
       y1="533.08002"
       x2="337.73999"
       y2="529.21997"
       gradientUnits="userSpaceOnUse" />
    <linearGradient
       xlink:href="#6"
       id="2"
       x1="359.29001"
       y1="533.04999"
       x2="359.01001"
       y2="529.20001"
       gradientUnits="userSpaceOnUse" />
  </defs>
  <g
     transform="matrix(3.0149904,0,0,3.0149904,-986.92124,-1505.3655)"
     id="g27">
    <circle
       r="19.218"
       cy="520.44"
       cx="348.54999"
       id="circle29"
       style="fill:url(#8);stroke:url(#1);stroke-width:1.5;stroke-linecap:round;stroke-linejoin:round" />
    <circle
       cx="348.70001"
       cy="505.23999"
       r="1.337"
       id="circle31"
       style="fill:url(#9)" />
    <path
       d="M 24.22656,10.806641 A 13.445903,13.445903 0 0 0 10.78125,24.25391 13.445903,13.445903 0 0 0 24.22656,37.699219 13.445903,13.445903 0 0 0 37.671875,24.25391 13.445903,13.445903 0 0 0 24.22656,10.806641 M 24,17 c 2.02,1.709 3.922,3.961 4.82,6.469 0.556,1.551 0.612,3.234 -0.172,4.721 C 27.748,29.902 25.933,31 24,31 22.07,31 20.252,29.902 19.352,28.19 18.568,26.703 18.624,25.02 19.18,23.469 20.08,20.961 21.983,18.709 24,17"
       transform="matrix(0.832,0,0,0.832,328.51,500.45)"
       id="path33"
       inkscape:connector-curvature="0"
       style="fill:url(#B)" />
    <circle
       cx="348.70001"
       cy="535.73999"
       r="1.337"
       id="circle35"
       style="fill:url(#7)" />
    <circle
       cx="363.78"
       cy="520.71997"
       r="1.337"
       id="circle37"
       style="fill:url(#5)" />
    <circle
       cx="333.26999"
       cy="520.71997"
       r="1.337"
       id="circle39"
       style="fill:url(#0)" />
    <circle
       cx="359.09"
       cy="531.38"
       r="1.337"
       id="circle41"
       style="fill:url(#2)" />
    <circle
       cx="337.82001"
       cy="531.40002"
       r="1.337"
       id="circle43"
       style="fill:url(#4)" />
    <circle
       cx="337.85001"
       cy="509.67001"
       r="1.337"
       id="circle45"
       style="fill:url(#3)" />
    <circle
       cx="359.09"
       cy="509.67001"
       r="1.337"
       id="circle47"
       style="fill:url(#C)" />
  </g>
</svg>
