<?xml version="1.0" encoding="UTF-8" standalone="no"?>
<!-- Created with Inkscape (http://www.inkscape.org/) -->

<svg
   xmlns:dc="http://purl.org/dc/elements/1.1/"
   xmlns:cc="http://creativecommons.org/ns#"
   xmlns:rdf="http://www.w3.org/1999/02/22-rdf-syntax-ns#"
   xmlns:svg="http://www.w3.org/2000/svg"
   xmlns="http://www.w3.org/2000/svg"
   xmlns:xlink="http://www.w3.org/1999/xlink"
   xmlns:sodipodi="http://sodipodi.sourceforge.net/DTD/sodipodi-0.dtd"
   xmlns:inkscape="http://www.inkscape.org/namespaces/inkscape"
   id="svg3449"
   height="128"
   width="128"
   version="1.0"
   inkscape:version="0.48.4 r9939"
   sodipodi:docname="sdk.svg">
  <sodipodi:namedview
     pagecolor="#ffffff"
     bordercolor="#666666"
     borderopacity="1"
     objecttolerance="10"
     gridtolerance="10"
     guidetolerance="10"
     inkscape:pageopacity="0"
     inkscape:pageshadow="2"
     inkscape:window-width="1360"
     inkscape:window-height="707"
     id="namedview28"
     showgrid="false"
     inkscape:zoom="2.6074563"
     inkscape:cx="106.13983"
     inkscape:cy="94.925989"
     inkscape:window-x="-2"
     inkscape:window-y="33"
     inkscape:window-maximized="1"
     inkscape:current-layer="svg3449" />
  <metadata
     id="metadata56">
    <rdf:RDF>
      <cc:Work
         rdf:about="">
        <dc:format>image/svg+xml</dc:format>
        <dc:type
           rdf:resource="http://purl.org/dc/dcmitype/StillImage" />
        <dc:title></dc:title>
      </cc:Work>
    </rdf:RDF>
  </metadata>
  <defs
     id="defs3451">
    <linearGradient
       id="linearGradient3514"
       y2="-9.1034"
       gradientUnits="userSpaceOnUse"
       x2="66.492"
       gradientTransform="matrix(0.96826591,0,0,0.97837245,2.008719,0.37798667)"
       y1="-42.638"
       x1="67.952">
      <stop
         id="stop4620"
         style="stop-color:#37414b"
         offset="0" />
      <stop
         id="stop4622"
         style="stop-color:#37414b;stop-opacity:0"
         offset="1" />
    </linearGradient>
    <linearGradient
       id="linearGradient3516"
       y2="-11.847"
       gradientUnits="userSpaceOnUse"
       x2="58.98"
       gradientTransform="matrix(0.96826591,0,0,0.97837245,2.008719,0.37798667)"
       y1="-118.55"
       x1="57.173">
      <stop
         id="stop4596"
         offset="0" />
      <stop
         id="stop4598"
         style="stop-opacity:0"
         offset="1" />
    </linearGradient>
    <linearGradient
       id="linearGradient3519"
       y2="50.369"
       gradientUnits="userSpaceOnUse"
       x2="76.558"
       gradientTransform="matrix(0.96830812,0,0,0.96833796,3.0898716,-127.9739)"
       y1="13.164"
       x1="76.558">
      <stop
         id="stop3392"
         style="stop-color:#425e7b"
         offset="0" />
      <stop
         id="stop3394"
         style="stop-color:#7a91a7"
         offset="1" />
    </linearGradient>
    <linearGradient
       id="linearGradient3521"
       y2="-8.7399"
       gradientUnits="userSpaceOnUse"
       x2="60.217"
       gradientTransform="matrix(0.96830812,0,0,0.96833796,2.0265188,-0.08950392)"
       y1="-123.72"
       x1="60.395">
      <stop
         id="stop3392-4-8"
         style="stop-color:#425e7b"
         offset="0" />
      <stop
         id="stop3394-8-0"
         style="stop-color:#7a91a7"
         offset="1" />
    </linearGradient>
    <radialGradient
       id="radialGradient3349"
       gradientUnits="userSpaceOnUse"
       cy="45.647"
       cx="42.148"
       gradientTransform="matrix(0.94689705,0,0,1.1490317,3.4411805,-29.893821)"
       r="58.984">
      <stop
         id="stop2699-5"
         style="stop-color:#86b3e0"
         offset="0" />
      <stop
         id="stop2701-7"
         style="stop-color:#649ad6"
         offset="1" />
    </radialGradient>
    <radialGradient
       inkscape:collect="always"
       xlink:href="#linearGradient4132"
       id="radialGradient4922"
       gradientUnits="userSpaceOnUse"
       gradientTransform="matrix(6.1248261,0,0,4.4807882,-135.86665,-31.233647)"
       cx="63.98003"
       cy="61.948856"
       fx="63.98003"
       fy="61.948856"
       r="58.01997" />
    <linearGradient
       id="linearGradient4132">
      <stop
         offset="0"
         style="stop-color:#7bb8f0;stop-opacity:1"
         id="stop4134" />
      <stop
         offset="1"
         style="stop-color:#b5d5f2;stop-opacity:0.1221374"
         id="stop4136" />
    </linearGradient>
    <linearGradient
       y2="251"
       x2="329"
       y1="251"
       x1="295"
       gradientTransform="matrix(9.9378879,0,0,9.9378879,-2844.621,-2204.3693)"
       gradientUnits="userSpaceOnUse"
       id="linearGradient5615-5"
       xlink:href="#linearGradient4160-9"
       inkscape:collect="always" />
    <linearGradient
       id="linearGradient4160-9"
       inkscape:collect="always">
      <stop
         id="stop4162-5"
         offset="0"
         style="stop-color:#e4eaff;stop-opacity:0.2" />
      <stop
         style="stop-color:#e4eaff;stop-opacity:1"
         offset="0.79411763"
         id="stop4168-4" />
      <stop
         id="stop4164-4"
         offset="1"
         style="stop-color:#e4eaff;stop-opacity:0.2" />
    </linearGradient>
    <linearGradient
       y2="250.5"
       x2="322"
       y1="250.5"
       x1="302"
       gradientTransform="matrix(0,9.9378879,-9.9378879,0,2879.6024,-2895.0525)"
       gradientUnits="userSpaceOnUse"
       id="linearGradient5617-0"
       xlink:href="#linearGradient4160-9"
       inkscape:collect="always" />
    <linearGradient
       y2="251"
       x2="329"
       y1="251"
       x1="295"
       gradientTransform="matrix(9.9378879,0,0,9.9378879,-2844.621,-2206.27)"
       gradientUnits="userSpaceOnUse"
       id="linearGradient5619-8"
       xlink:href="#linearGradient4160-9"
       inkscape:collect="always" />
    <linearGradient
       y2="251"
       x2="329"
       y1="251"
       x1="295"
       gradientTransform="matrix(9.9378879,0,0,9.9378879,-2844.621,-2353.4376)"
       gradientUnits="userSpaceOnUse"
       id="linearGradient5621-5"
       xlink:href="#linearGradient4160-9"
       inkscape:collect="always" />
    <linearGradient
       y2="251"
       x2="329"
       y1="251"
       x1="295"
       gradientTransform="matrix(9.9378879,0,0,9.9378879,-2844.621,-2355.7599)"
       gradientUnits="userSpaceOnUse"
       id="linearGradient5623-1"
       xlink:href="#linearGradient4160-9"
       inkscape:collect="always" />
    <linearGradient
       y2="250.5"
       x2="322"
       y1="250.5"
       x1="302"
       gradientTransform="matrix(0,9.9378879,-9.9378879,0,2879.6024,-2897.3748)"
       gradientUnits="userSpaceOnUse"
       id="linearGradient5625-0"
       xlink:href="#linearGradient4160-9"
       inkscape:collect="always" />
    <linearGradient
       y2="250.5"
       x2="322"
       y1="250.5"
       x1="302"
       gradientTransform="matrix(0,-9.9378879,-9.9378879,0,2601.3416,3326.0654)"
       gradientUnits="userSpaceOnUse"
       id="linearGradient5627-2"
       xlink:href="#linearGradient4160-9"
       inkscape:collect="always" />
    <linearGradient
       y2="250.5"
       x2="322"
       y1="250.5"
       x1="302"
       gradientTransform="matrix(0,-9.9378879,-9.9378879,0,2600.7086,3323.7431)"
       gradientUnits="userSpaceOnUse"
       id="linearGradient5629-8"
       xlink:href="#linearGradient4160-9"
       inkscape:collect="always" />
    <linearGradient
       y2="251"
       x2="329"
       y1="251"
       x1="295"
       gradientTransform="matrix(9.9378879,0,0,9.9378879,-2844.621,-2310.5367)"
       gradientUnits="userSpaceOnUse"
       id="linearGradient5631-0"
       xlink:href="#linearGradient4160-9"
       inkscape:collect="always" />
    <linearGradient
       y2="251"
       x2="329"
       y1="251"
       x1="295"
       gradientTransform="matrix(9.9378879,0,0,9.9378879,-2844.621,-2353.4376)"
       gradientUnits="userSpaceOnUse"
       id="linearGradient5633-2"
       xlink:href="#linearGradient4160-9"
       inkscape:collect="always" />
    <linearGradient
       y2="251"
       x2="329"
       y1="251"
       x1="295"
       gradientTransform="matrix(9.9378879,0,0,9.9378879,-2844.621,-2355.7599)"
       gradientUnits="userSpaceOnUse"
       id="linearGradient5635-8"
       xlink:href="#linearGradient4160-9"
       inkscape:collect="always" />
    <linearGradient
       y2="251"
       x2="329"
       y1="251"
       x1="295"
       gradientTransform="matrix(9.9378879,0,0,9.9378879,-2844.621,-2353.4376)"
       gradientUnits="userSpaceOnUse"
       id="linearGradient5637-3"
       xlink:href="#linearGradient4160-9"
       inkscape:collect="always" />
    <linearGradient
       y2="251"
       x2="329"
       y1="251"
       x1="295"
       gradientTransform="matrix(9.9378879,0,0,9.9378879,-2844.621,-2355.7599)"
       gradientUnits="userSpaceOnUse"
       id="linearGradient5639-1"
       xlink:href="#linearGradient4160-9"
       inkscape:collect="always" />
    <linearGradient
       y2="251"
       x2="329"
       y1="251"
       x1="295"
       gradientTransform="matrix(10.70557,0,0,9.6338474,-3097.2143,-2277.1437)"
       gradientUnits="userSpaceOnUse"
       id="linearGradient5651-5"
       xlink:href="#linearGradient4160-9"
       inkscape:collect="always" />
    <linearGradient
       y2="251"
       x2="329"
       y1="251"
       x1="295"
       gradientTransform="matrix(10.70557,0,0,9.6338474,-3097.2143,-2278.4254)"
       gradientUnits="userSpaceOnUse"
       id="linearGradient5649-6"
       xlink:href="#linearGradient4160-9"
       inkscape:collect="always" />
    <linearGradient
       y2="251"
       x2="329"
       y1="251"
       x1="295"
       gradientTransform="matrix(9.9378879,0,0,9.9378879,-2844.621,-2353.4376)"
       gradientUnits="userSpaceOnUse"
       id="linearGradient5645-4"
       xlink:href="#linearGradient4160-9"
       inkscape:collect="always" />
    <linearGradient
       y2="251"
       x2="329"
       y1="251"
       x1="295"
       gradientTransform="matrix(9.9378879,0,0,9.9378879,-2844.621,-2354.7598)"
       gradientUnits="userSpaceOnUse"
       id="linearGradient5647-1"
       xlink:href="#linearGradient4160-9"
       inkscape:collect="always" />
  </defs>
  <rect
     id="rect892"
     style="fill:url(#linearGradient3519);stroke:url(#linearGradient3521);stroke-width:0.96831924"
     transform="scale(1,-1)"
     ry="28.962744"
     height="114.22568"
     width="114.22568"
     y="-121.11284"
     x="6.8871613" />
  <rect
     id="rect892-2"
     style="fill:url(#linearGradient3514);stroke:url(#linearGradient3516);stroke-width:0.97330225"
     transform="scale(1,-1)"
     ry="28.960217"
     height="114.2207"
     width="114.2207"
     y="-121.11035"
     x="6.8896484" />
  <path
     id="rect895"
     style="fill:url(#radialGradient3349)"
     d="M 32.896689,7.5829705 C 25.699946,3.5676353 6.911717,20.834726 7.2437679,30.823875 c -0.05014,0.982357 -0.08877,1.982106 -0.08877,2.983246 l 0,52.880675 c 0,21.059864 10.7119671,34.157204 22.3179311,34.157204 l 67.037792,0 c 12.637959,0 24.317929,-11.34403 24.317929,-26.086744 l 0,-64.580824 C 121.52864,19.153185 99.545711,5.3012495 94.902721,7.3602255 47.056873,8.2331465 76.88578,7.5857945 32.899917,7.5857945 z"
     inkscape:connector-curvature="0"
     sodipodi:nodetypes="ccssssscccc" />
  <rect
     id="rect892-2-7-8"
     style="opacity:0.15891;fill:none;stroke:#000000;stroke-width:4.84187794"
     transform="scale(1,-1)"
     ry="28.960831"
     height="114.22312"
     width="114.22312"
     y="-121.11156"
     x="6.8884392" />
  <rect
     id="rect892-2-7-1"
     style="opacity:0.15891;fill:none;stroke:#000000;stroke-width:7.7470603"
     transform="scale(1,-1)"
     ry="28.961039"
     height="114.22394"
     width="114.22394"
     y="-121.11197"
     x="6.888031" />
  <rect
     id="rect892-2-7-2-9"
     ry="27.872265"
     style="fill:none;stroke:#000000;stroke-width:1.05547321"
     transform="scale(1,-1)"
     height="114.13353"
     width="114.13353"
     y="-121.06676"
     x="6.9332352" />
  <path
     id="path1187"
     style="fill:#ffffff;fill-opacity:0.05714303"
     d="M 32.930758,6.923328 C 6.8392893,6.7954853 7.2631041,18.673737 6.9240184,35.391528 l 0,32.76 c 18.6699996,-38.321 38.3399996,-51.497 90.3739996,-61.179 -0.225,-0.026 -0.46,-0.0303 -0.691,-0.0303 -41.576,0.3874 -25.652,-0.0188 -63.676,-0.0188 z"
     inkscape:connector-curvature="0"
     sodipodi:nodetypes="ccccccc" />
  <g
     transform="matrix(0.25,0,0,0.25,-2.2467271,-2.6033162)"
     id="g3044">
    <path
       inkscape:connector-curvature="0"
       id="path5789"
       d="m 334.85352,101.57227 -169.01563,86.04882 -46.06445,0 c -9.23337,0 -16.71485,7.48266 -16.71485,16.70313 l 0,189.39258 c 0,5.37668 2.55328,10.14771 6.50196,13.20508 L 194.63867,492 393.65625,492 C 448.13292,492 492,448.13291 492,393.65625 l 0,-143.74023 -116.01562,-116.01563 -7.31641,2.27149 -33.81445,-34.59961 z"
       style="fill:#000000;fill-opacity:0.11764706;fill-rule:nonzero;stroke:none" />
    <g
       id="g5729"
       transform="translate(10.00003,5.5723875)">
      <g
         id="g5725">
        <path
           inkscape:connector-curvature="0"
           id="path4496"
           style="fill:#ffffff;fill-opacity:1;fill-rule:nonzero;stroke:none"
           d="M 324.85428,95.999985 116.36075,202.14723 182.07915,331.2165 390.56837,225.06495 324.85428,95.999985" />
        <path
           inkscape:connector-curvature="0"
           id="path4498"
           style="fill:#16502d;fill-opacity:1;fill-rule:nonzero;stroke:none"
           d="m 316.73579,120.971 -175.39542,89.29902 48.86157,95.97546 175.38681,-89.30332 -48.85296,-95.97116 0,0" />
      </g>
      <g
         id="g5721">
        <path
           inkscape:connector-curvature="0"
           id="path4500"
           style="fill:#ffffff;fill-opacity:1;fill-rule:nonzero;stroke:none"
           d="m 365.98478,128.32757 -223.4262,69.37731 42.94273,138.31986 223.43911,-69.38592 -42.95564,-138.31125" />
        <path
           inkscape:connector-curvature="0"
           id="path4502"
           style="fill:#2ca05a;fill-opacity:1;fill-rule:nonzero;stroke:none"
           d="M 353.7597,151.56382 165.79483,209.93857 197.735,312.78418 385.69986,254.40944 353.7597,151.56382 l 0,0" />
        <path
           inkscape:connector-curvature="0"
           id="path6230"
           transform="translate(-10.00003,-5.5723875)"
           d="m 170.77344,197.62109 -18.21485,5.65625 42.94336,138.32032 203.51172,-63.19922 0,-64.07422 c 0,-9.22047 -7.48577,-16.70313 -16.71484,-16.70313 l -211.52539,0 z"
           style="opacity:0.2;fill:#000000;fill-opacity:1;fill-rule:nonzero;stroke:none" />
      </g>
    </g>
    <g
       id="g5741"
       transform="translate(3e-5,5.5723875)">
      <g
         id="g5737">
        <path
           inkscape:connector-curvature="0"
           id="path4504"
           style="fill:#ffffff;fill-opacity:1;fill-rule:nonzero;stroke:none"
           d="m 389.01441,198.75093 c 0,-9.22047 -7.48571,-16.70187 -16.71478,-16.70187 l -252.52533,0 c -9.23337,0 -16.71478,7.4814 -16.71478,16.70187 l 0,189.39383 c 0,9.22477 7.48141,16.71048 16.71478,16.71048 l 252.52533,0 c 9.22907,0 16.71478,-7.48571 16.71478,-16.71048 l 0,-189.39383"
           sodipodi:nodetypes="csssssssc" />
        <path
           inkscape:connector-curvature="0"
           style="fill:#000000;fill-opacity:1;fill-rule:nonzero;stroke:none"
           d="m 118.83984,197.83008 0,6.49609 c 0,1.54105 1.25233,2.78321 2.78907,2.78321 1.54105,0 2.78515,-1.24216 2.78515,-2.78321 l 0,-1.08594 c 1.08476,-0.38311 1.85938,-1.4107 1.85938,-2.6289 0,-1.53244 -1.24842,-2.78125 -2.78516,-2.78125 l -4.64844,0 z m 12.07422,0 c -1.54105,0 -2.78515,1.24881 -2.78515,2.78125 0,1.54104 1.2441,2.78906 2.78515,2.78906 l 5.57422,0 c 1.53675,0 2.78125,-1.24802 2.78125,-2.78906 0,-1.53244 -1.2445,-2.78125 -2.78125,-2.78125 l -5.57422,0 z m 12.9961,0 c -1.53674,0 -2.78125,1.24881 -2.78125,2.78125 0,1.54104 1.24451,2.78906 2.78125,2.78906 l 5.57422,0 c 1.54104,0 2.78515,-1.24802 2.78515,-2.78906 0,-1.53244 -1.24414,-2.78125 -2.78515,-2.78125 l -5.57422,0 z m 13,0 c -1.54105,0 -2.78516,1.24881 -2.78516,2.78125 0,1.54104 1.24411,2.78906 2.78516,2.78906 l 5.57422,0 c 1.53675,0 2.78125,-1.24802 2.78124,-2.78906 0,-1.53244 -1.2445,-2.78125 -2.78124,-2.78125 l -5.57422,0 z m 12.99609,0 c -1.53674,0 -2.78125,1.24881 -2.78125,2.78125 0,1.54104 1.24451,2.78906 2.78125,2.78906 l 5.57422,0 c 1.54105,0 2.78517,-1.24802 2.78515,-2.78906 0,-1.53244 -1.2441,-2.78125 -2.78515,-2.78125 l -5.57422,0 z m 13,0 c -1.54105,0 -2.78516,1.24881 -2.78516,2.78125 0,1.54104 1.24411,2.78906 2.78516,2.78906 l 5.56445,0 c 1.54535,0 2.79102,-1.24802 2.79102,-2.78906 0,-1.53244 -1.24567,-2.78125 -2.79102,-2.78125 l -5.56445,0 z m 12.99414,0 c -1.53675,0 -2.7793,1.24881 -2.7793,2.78125 0,1.54104 1.24255,2.78906 2.7793,2.78906 l 5.57617,0 c 1.54105,0 2.78516,-1.24802 2.78516,-2.78906 0,-1.53244 -1.24411,-2.78125 -2.78516,-2.78125 l -5.57617,0 z m 13,0 c -1.54105,0 -2.78516,1.24881 -2.78516,2.78125 0,1.54104 1.24411,2.78906 2.78516,2.78906 l 5.57617,0 c 1.52813,0 2.7793,-1.24802 2.7793,-2.78906 0,-1.53244 -1.25117,-2.78125 -2.7793,-2.78125 l -5.57617,0 z m 12.99609,0 c -1.53674,0 -2.78125,1.24881 -2.78125,2.78125 0,1.54104 1.24451,2.78906 2.78125,2.78906 l 5.57422,0 c 1.53244,0 2.78516,-1.24802 2.78516,-2.78906 0,-1.53244 -1.25272,-2.78125 -2.78516,-2.78125 l -5.57422,0 z m 13,0 c -1.53674,0 -2.78515,1.24881 -2.78515,2.78125 0,1.54104 1.24841,2.78906 2.78515,2.78906 l 5.57422,0 c 1.52814,0 2.78125,-1.24802 2.78125,-2.78906 0,-1.53244 -1.25311,-2.78125 -2.78125,-2.78125 l -5.57422,0 z m 12.9961,0 c -1.53674,0 -2.78125,1.24881 -2.78125,2.78125 0,1.54104 1.24451,2.78906 2.78125,2.78906 l 5.57422,0 c 1.53243,0 2.78515,-1.24802 2.78515,-2.78906 0,-1.53244 -1.25272,-2.78125 -2.78515,-2.78125 l -5.57422,0 z m 13,0 c -1.53675,0 -2.78125,1.24881 -2.78125,2.78125 0,1.54104 1.2445,2.78906 2.78125,2.78906 l 5.5664,0 c 1.53675,0 2.78907,-1.24802 2.78907,-2.78906 0,-1.53244 -1.25232,-2.78125 -2.78907,-2.78125 l -5.5664,0 z m 13,0 c -1.54104,0 -2.79492,1.24881 -2.79492,2.78125 0,1.54104 1.25388,2.78906 2.79492,2.78906 l 5.56054,0 c 1.54967,0 2.79493,-1.24802 2.79493,-2.78906 0,-1.53244 -1.24524,-2.78125 -2.79493,-2.78125 l -5.56054,0 z m 12.99414,0 c -1.53675,0 -2.7793,1.24881 -2.7793,2.78125 0,1.54104 1.24255,2.78906 2.7793,2.78906 l 5.5664,0 c 1.54535,0 2.78907,-1.24802 2.78907,-2.78906 0,-1.53244 -1.2437,-2.78125 -2.78907,-2.78125 l -5.5664,0 z m 13,0 c -1.54105,0 -2.79297,1.24881 -2.79297,2.78125 0,1.54104 1.25192,2.78906 2.79297,2.78906 l 5.5664,0 c 1.54535,0 2.78907,-1.24802 2.78907,-2.78906 0,-1.53244 -1.2437,-2.78125 -2.78907,-2.78125 l -5.5664,0 z m 12.99609,0 c -1.53674,0 -2.78125,1.24881 -2.78125,2.78125 0,1.54104 1.24451,2.78906 2.78125,2.78906 l 5.57422,0 c 1.53243,0 2.78516,-1.24802 2.78516,-2.78906 0,-1.53244 -1.25273,-2.78125 -2.78516,-2.78125 l -5.57422,0 z m 13,0 c -1.54105,0 -2.78515,1.24881 -2.78515,2.78125 0,1.54104 1.2441,2.78906 2.78515,2.78906 l 5.56641,0 c 1.53675,0 2.78906,-1.24802 2.78906,-2.78906 0,-1.53244 -1.25231,-2.78125 -2.78906,-2.78125 l -5.56641,0 z m 12.9961,0 c -1.53674,0 -2.78125,1.24881 -2.78125,2.78125 0,1.54104 1.24451,2.78906 2.78125,2.78906 l 5.5664,0 c 1.54105,0 2.79297,-1.24802 2.79297,-2.78906 0,-1.53244 -1.25192,-2.78125 -2.79297,-2.78125 l -5.5664,0 z m 12.99023,0 c -1.53244,0 -2.77539,1.24881 -2.77539,2.78125 0,1.54104 1.24295,2.78906 2.77539,2.78906 l 5.57617,0 c 1.53674,0 2.7793,-1.24802 2.7793,-2.78906 0,-1.53244 -1.24256,-2.78125 -2.7793,-2.78125 l -5.57617,0 z m 13.00586,0 c -1.53675,0 -2.79102,1.24881 -2.79102,2.78125 0,1.54104 1.25427,2.78906 2.79102,2.78906 l 2.78516,0 0,0.92578 c 0,1.54105 1.24255,2.78321 2.77929,2.78321 1.54105,0 2.78516,-1.24216 2.78516,-2.78321 l 0,-6.49609 -8.34961,0 z m -243.24609,12.99023 c -1.53674,0 -2.78907,1.25312 -2.78907,2.78125 l 0,5.57032 c 0,1.54535 1.25233,2.79296 2.78907,2.79296 1.54105,0 2.78515,-1.24761 2.78515,-2.79296 l 0,-5.57032 c 0,-1.52813 -1.2441,-2.78125 -2.78515,-2.78125 z m 248.81054,0 c -1.53674,0 -2.77929,1.25312 -2.77929,2.78125 l 0,5.57032 c 0,1.54535 1.24255,2.79296 2.77929,2.79296 1.54105,0 2.78516,-1.24761 2.78516,-2.79296 l 0,-5.57032 c 0,-1.52813 -1.24411,-2.78125 -2.78516,-2.78125 z m -248.81054,12.9961 c -1.53674,0 -2.78907,1.24841 -2.78907,2.78515 l 0,5.57422 c 0,1.53675 1.25233,2.78125 2.78907,2.78125 1.54105,0 2.78515,-1.2445 2.78515,-2.78125 l 0,-5.57422 c 0,-1.53674 -1.2441,-2.78515 -2.78515,-2.78515 z m 248.81054,0 c -1.53674,0 -2.77929,1.24841 -2.77929,2.78515 l 0,5.57422 c 0,1.53675 1.24255,2.78125 2.77929,2.78125 1.54105,0 2.78516,-1.2445 2.78516,-2.78125 l 0,-5.57422 c 0,-1.53674 -1.24411,-2.78515 -2.78516,-2.78515 z m -248.81054,13 c -1.53674,0 -2.78907,1.2484 -2.78907,2.78515 l 0,5.57032 c 0,1.54105 1.25233,2.78515 2.78907,2.78515 1.54105,0 2.78515,-1.24412 2.78515,-2.78515 l 0,-5.57032 c 0,-1.53675 -1.2441,-2.78515 -2.78515,-2.78515 z m 248.81054,0 c -1.53674,0 -2.77929,1.2484 -2.77929,2.78515 l 0,5.57032 c 0,1.54105 1.24255,2.78515 2.77929,2.78515 1.54105,0 2.78516,-1.24412 2.78516,-2.78515 l 0,-5.57032 c 0,-1.53675 -1.24411,-2.78515 -2.78516,-2.78515 z m -248.81054,13 c -1.53674,0 -2.78907,1.2445 -2.78907,2.78125 l 0,5.57422 c 0,1.53674 1.25233,2.78125 2.78907,2.78124 1.54105,0 2.78515,-1.24451 2.78515,-2.78124 l 0,-5.57422 c 0,-1.53675 -1.2441,-2.78125 -2.78515,-2.78125 z m 248.81054,0 c -1.53674,0 -2.77929,1.2445 -2.77929,2.78125 l 0,5.57422 c 0,1.53674 1.24255,2.78125 2.77929,2.78124 1.54105,0 2.78516,-1.24451 2.78516,-2.78124 l 0,-5.57422 c 0,-1.53675 -1.24411,-2.78125 -2.78516,-2.78125 z M 121.62891,262.8125 c -1.53674,0 -2.78907,1.24411 -2.78907,2.78516 l 0,5.57031 c 0,1.54105 1.25233,2.78517 2.78907,2.78515 1.54105,0 2.78515,-1.2441 2.78515,-2.78515 l 0,-5.57031 c 0,-1.54105 -1.2441,-2.78516 -2.78515,-2.78516 z m 248.81054,0 c -1.53674,0 -2.77929,1.24411 -2.77929,2.78516 l 0,5.57031 c 0,1.54105 1.24255,2.78517 2.77929,2.78515 1.54105,0 2.78516,-1.2441 2.78516,-2.78515 l 0,-5.57031 c 0,-1.54105 -1.24411,-2.78516 -2.78516,-2.78516 z m -248.81054,13 c -1.53674,0 -2.78907,1.24687 -2.78907,2.7793 l 0,5.57617 c 0,1.53674 1.25233,2.78517 2.78907,2.78515 1.54105,0 2.78515,-1.24841 2.78515,-2.78515 l 0,-5.57617 c 0,-1.53243 -1.2441,-2.7793 -2.78515,-2.7793 z m 248.81054,0 c -1.53674,0 -2.77929,1.24687 -2.77929,2.7793 l 0,5.57617 c 0,1.53674 1.24255,2.78517 2.77929,2.78515 1.54105,0 2.78516,-1.24841 2.78516,-2.78515 l 0,-5.57617 c 0,-1.53243 -1.24411,-2.7793 -2.78516,-2.7793 z m -248.81054,12.99414 c -1.53674,0 -2.78907,1.24411 -2.78907,2.78516 l 0,5.57617 c 0,1.53675 1.25233,2.7793 2.78907,2.7793 1.54105,0 2.78515,-1.24255 2.78515,-2.7793 l 0,-5.57617 c 0,-1.54105 -1.2441,-2.78516 -2.78515,-2.78516 z m 248.81054,0 c -1.53674,0 -2.77929,1.24411 -2.77929,2.78516 l 0,5.57617 c 0,1.53675 1.24255,2.7793 2.77929,2.7793 1.54105,0 2.78516,-1.24255 2.78516,-2.7793 l 0,-5.57617 c 0,-1.54105 -1.24411,-2.78516 -2.78516,-2.78516 z m -248.81054,13 c -1.53674,0 -2.78907,1.24881 -2.78907,2.78125 l 0,5.57031 c 0,1.54535 1.25233,2.78907 2.78907,2.78907 1.54105,0 2.78515,-1.24372 2.78515,-2.78907 l 0,-5.57031 c 0,-1.53244 -1.2441,-2.78125 -2.78515,-2.78125 z m 248.81054,0 c -1.53674,0 -2.77929,1.24881 -2.77929,2.78125 l 0,5.57031 c 0,1.54535 1.24255,2.78907 2.77929,2.78907 1.54105,0 2.78516,-1.24372 2.78516,-2.78907 l 0,-5.57031 c 0,-1.53244 -1.24411,-2.78125 -2.78516,-2.78125 z m -248.81054,12.99609 c -1.53674,0 -2.78907,1.24411 -2.78907,2.78516 l 0,5.57031 c 0,1.54104 1.25233,2.78125 2.78907,2.78125 1.54105,0 2.78515,-1.24021 2.78515,-2.78125 l 0,-5.57031 c 0,-1.54105 -1.2441,-2.78516 -2.78515,-2.78516 z m 248.81054,0 c -1.53674,0 -2.77929,1.24411 -2.77929,2.78516 l 0,5.57031 c 0,1.54104 1.24255,2.78125 2.77929,2.78125 1.54105,0 2.78516,-1.24021 2.78516,-2.78125 l 0,-5.57031 c 0,-1.54105 -1.24411,-2.78516 -2.78516,-2.78516 z m -248.81054,12.9961 c -1.53674,0 -2.78907,1.24841 -2.78907,2.78515 l 0,5.57032 c 0,1.54535 1.25233,2.78906 2.78907,2.78906 1.54105,0 2.78515,-1.24371 2.78515,-2.78906 l 0,-5.57032 c 0,-1.53674 -1.2441,-2.78515 -2.78515,-2.78515 z m 248.81054,0 c -1.53674,0 -2.77929,1.24841 -2.77929,2.78515 l 0,5.57032 c 0,1.54535 1.24255,2.78906 2.77929,2.78906 1.54105,0 2.78516,-1.24371 2.78516,-2.78906 l 0,-5.57032 c 0,-1.53674 -1.24411,-2.78515 -2.78516,-2.78515 z m -248.81054,13 c -1.53674,0 -2.78907,1.2441 -2.78907,2.78515 l 0,5.57422 c 0,1.53244 1.25233,2.78125 2.78907,2.78125 1.54105,0 2.78515,-1.24881 2.78515,-2.78125 l 0,-5.57422 c 0,-1.54105 -1.2441,-2.78515 -2.78515,-2.78515 z m 248.81054,0 c -1.53674,0 -2.77929,1.2441 -2.77929,2.78515 l 0,5.57422 c 0,1.53244 1.24255,2.78125 2.77929,2.78125 1.54105,0 2.78516,-1.24881 2.78516,-2.78125 l 0,-5.57422 c 0,-1.54105 -1.24411,-2.78515 -2.78516,-2.78515 z m -248.81054,13 c -1.53674,0 -2.78907,1.2445 -2.78907,2.78125 l 0,5.56836 c 0,1.54105 1.25233,2.78515 2.78907,2.78515 1.54105,0 2.78515,-1.2441 2.78515,-2.78515 l 0,-5.56836 c 0,-1.53675 -1.2441,-2.78125 -2.78515,-2.78125 z m 248.81054,0 c -1.53674,0 -2.77929,1.2445 -2.77929,2.78125 l 0,5.56836 c 0,1.54105 1.24255,2.78515 2.77929,2.78515 1.54105,0 2.78516,-1.2441 2.78516,-2.78515 l 0,-5.56836 c 0,-1.53675 -1.24411,-2.78125 -2.78516,-2.78125 z m -248.81054,12.99609 c -1.53674,0 -2.78907,1.24255 -2.78907,2.7793 l 0,5.57422 c 0,1.53674 1.25233,2.78515 2.78907,2.78515 1.54105,0 2.78515,-1.24841 2.78515,-2.78515 l 0,-5.57422 c 0,-1.53675 -1.2441,-2.7793 -2.78515,-2.7793 z m 248.81054,0 c -1.53674,0 -2.77929,1.24255 -2.77929,2.7793 l 0,5.57422 c 0,1.53674 1.24255,2.78515 2.77929,2.78515 1.54105,0 2.78516,-1.24841 2.78516,-2.78515 l 0,-5.57422 c 0,-1.53675 -1.24411,-2.7793 -2.78516,-2.7793 z m -248.81054,14.8457 c -1.53681,0 -2.78907,1.24795 -2.78907,2.78907 l 0,4.64062 6.50977,0 c 1.53681,0 2.7793,-1.24874 2.7793,-2.78125 0,-1.54112 -1.24249,-2.78906 -2.7793,-2.78906 l -1.09375,0 c -0.37882,-1.08051 -1.413,-1.85936 -2.62695,-1.85938 z m 248.82031,0 c -1.20965,0 -2.24423,0.77887 -2.62305,1.85938 l -1.09179,0 c -1.53682,0 -2.78516,1.24794 -2.78516,2.78906 0,1.53251 1.24832,2.78125 2.78516,2.78125 l 6.50195,0 0,-2.78125 0.008,-1.85937 c 0,-1.54112 -1.25381,-2.78906 -2.79492,-2.78907 z M 132.76953,383.5 c -1.53682,0 -2.78125,1.24794 -2.78125,2.78906 0,1.53251 1.24443,2.78125 2.78125,2.78125 l 5.57422,0 c 1.53251,0 2.78516,-1.24874 2.78516,-2.78125 0,-1.54112 -1.25265,-2.78906 -2.78516,-2.78906 l -5.57422,0 z m 13.00195,0 c -1.54112,0 -2.78515,1.24794 -2.78515,2.78906 0,1.53251 1.24403,2.78125 2.78515,2.78125 l 5.57422,0 c 1.53682,0 2.78125,-1.24874 2.78125,-2.78125 0,-1.54112 -1.24443,-2.78906 -2.78125,-2.78906 l -5.57422,0 z m 12.9961,0 c -1.53681,0 -2.78125,1.24794 -2.78125,2.78906 0,1.53251 1.24444,2.78125 2.78125,2.78125 l 5.5664,0 c 1.54112,0 2.79297,-1.24874 2.79297,-2.78125 0,-1.54112 -1.25185,-2.78906 -2.79297,-2.78906 l -5.5664,0 z m 13,0 c -1.54112,0 -2.79492,1.24794 -2.79492,2.78906 0,1.53251 1.2538,2.78125 2.79492,2.78125 l 5.5664,0 c 1.54543,0 2.78907,-1.24874 2.78907,-2.78125 0,-1.54112 -1.24364,-2.78906 -2.78907,-2.78906 l -5.5664,0 z m 12.99609,0 c -1.53681,0 -2.78125,1.24794 -2.78125,2.78906 0,1.53251 1.24444,2.78125 2.78125,2.78125 l 5.56641,0 c 1.54112,0 2.79492,-1.24874 2.79492,-2.78125 0,-1.54112 -1.2538,-2.78906 -2.79492,-2.78906 l -5.56641,0 z m 13.00195,0 c -1.53682,0 -2.78515,1.24794 -2.78515,2.78906 0,1.53251 1.24835,2.78125 2.78515,2.78125 l 5.56446,0 c 1.53681,0 2.78906,-1.24874 2.78906,-2.78125 0,-1.54112 -1.25225,-2.78906 -2.78906,-2.78906 l -5.56446,0 z m 12.99805,0 c -1.54112,0 -2.7832,1.24794 -2.7832,2.78906 0,1.53251 1.24208,2.78125 2.7832,2.78125 l 5.57031,0 c 1.5325,0 2.78516,-1.24874 2.78516,-2.78125 0,-1.54112 -1.25266,-2.78906 -2.78516,-2.78906 l -5.57031,0 z m 12.9961,0 c -1.53681,0 -2.78125,1.24794 -2.78125,2.78906 0,1.53251 1.24444,2.78125 2.78125,2.78125 l 5.5664,0 c 1.5368,0 2.78906,-1.24874 2.78906,-2.78125 0,-1.54112 -1.25226,-2.78906 -2.78906,-2.78906 l -5.5664,0 z m 13.00195,0 c -1.54112,0 -2.78516,1.24794 -2.78516,2.78906 0,1.53251 1.24404,2.78125 2.78516,2.78125 l 5.57031,0 c 1.5325,0 2.78516,-1.24874 2.78516,-2.78125 0,-1.54112 -1.25266,-2.78906 -2.78516,-2.78906 l -5.57031,0 z m 12.99609,0 c -1.53681,0 -2.78125,1.24794 -2.78125,2.78906 0,1.53251 1.24444,2.78125 2.78125,2.78125 l 5.56641,0 c 1.53681,0 2.79297,-1.24874 2.79297,-2.78125 0,-1.54112 -1.25616,-2.78906 -2.79297,-2.78906 l -5.56641,0 z m 13,0 c -1.54112,0 -2.78515,1.24794 -2.78515,2.78906 0,1.53251 1.24403,2.78125 2.78515,2.78125 l 5.56641,0 c 1.5368,0 2.7793,-1.24874 2.7793,-2.78125 0,-1.54112 -1.2425,-2.78906 -2.7793,-2.78906 l -5.56641,0 z m 12.9961,0 c -1.53682,0 -2.79102,1.24794 -2.79102,2.78906 0,1.53251 1.2542,2.78125 2.79102,2.78125 l 5.5664,0 c 1.54111,0 2.79492,-1.24874 2.79492,-2.78125 0,-1.54112 -1.25381,-2.78906 -2.79492,-2.78906 l -5.5664,0 z m 13.00195,0 c -1.54111,0 -2.79492,1.24794 -2.79492,2.78906 0,1.53251 1.25381,2.78125 2.79492,2.78125 l 5.56445,0 c 1.5368,0 2.78125,-1.24874 2.78125,-2.78125 0,-1.54112 -1.24445,-2.78906 -2.78125,-2.78906 l -5.56445,0 z m 12.99414,0 c -1.53682,0 -2.78906,1.24794 -2.78906,2.78906 0,1.53251 1.25224,2.78125 2.78906,2.78125 l 5.56641,0 c 1.54111,0 2.78515,-1.24874 2.78515,-2.78125 0,-1.54112 -1.24404,-2.78906 -2.78515,-2.78906 l -5.56641,0 z m 13,0 c -1.54973,0 -2.79297,1.24794 -2.79297,2.78906 0,1.53251 1.24324,2.78125 2.79297,2.78125 l 5.56641,0 c 1.5368,0 2.79101,-1.24874 2.79101,-2.78125 0,-1.54112 -1.25421,-2.78906 -2.79101,-2.78906 l -5.56641,0 z m 12.99023,0 c -1.5282,0 -2.77343,1.24794 -2.77343,2.78906 0,1.53251 1.24523,2.78125 2.77343,2.78125 l 5.57422,0 c 1.54111,0 2.78516,-1.24874 2.78516,-2.78125 0,-1.54112 -1.24405,-2.78906 -2.78516,-2.78906 l -5.57422,0 z m 13.00782,0 c -1.54973,0 -2.79297,1.24794 -2.79297,2.78906 0,1.53251 1.24324,2.78125 2.79297,2.78125 l 5.5664,0 c 1.53681,0 2.78907,-1.24874 2.78907,-2.78125 0,-1.54112 -1.25226,-2.78906 -2.78907,-2.78906 l -5.5664,0 z m 12.98633,0 c -1.52822,0 -2.77149,1.24794 -2.77149,2.78906 0,1.53251 1.24328,2.78125 2.77149,2.78125 l 5.57421,0 c 1.54111,0 2.78516,-1.24874 2.78516,-2.78125 0,-1.54112 -1.24405,-2.78906 -2.78516,-2.78906 l -5.57421,0 z"
           id="path5713" />
      </g>
      <g
         transform="translate(0,-0.85528)"
         id="g5550">
        <path
           inkscape:connector-curvature="0"
           id="path4508"
           style="fill:#808080;fill-opacity:1;fill-rule:nonzero;stroke:none"
           d="m 389.01441,328.72843 -81.7057,0 c -9.22907,0 -16.70617,-10.77012 -16.70617,-24.06274 l 0,-18.71642 c 0,-13.29262 7.4771,-24.06274 16.70617,-24.06274 l 81.7057,0 0,66.8419" />
        <path
           inkscape:connector-curvature="0"
           style="fill:#000000;fill-opacity:1;fill-rule:nonzero;stroke:none"
           d="m 309.68945,268.38672 c -0.53808,0 -1.06002,0.0639 -1.57226,0.17578 -1.50662,0.32715 -2.45708,1.81606 -2.11719,3.31836 0.33576,1.50662 1.81175,2.45042 3.31836,2.11914 0.1591,-0.0334 0.27639,-0.0469 0.37109,-0.0469 l 4.58789,0 0,-0.002 c 1.54105,0 2.78516,-1.2441 2.78516,-2.78515 0,-1.53675 -1.24411,-2.7793 -2.78516,-2.7793 l -4.58789,0 z m 12.01367,0 c -1.53244,0 -2.78515,1.24451 -2.78515,2.78125 0,1.54105 1.25271,2.78515 2.78515,2.78515 l 5.57422,0 c 1.53674,10e-6 2.78125,-1.2441 2.78125,-2.78515 0,-1.53674 -1.24451,-2.78125 -2.78125,-2.78125 l -5.57422,0 z m 12.9961,0 c -1.53674,0 -2.78125,1.24451 -2.78125,2.78125 0,1.54105 1.24451,2.78515 2.78125,2.78515 l 5.57422,0 c 1.54105,10e-6 2.78515,-1.2441 2.78515,-2.78515 0,-1.53674 -1.2441,-2.78125 -2.78515,-2.78125 l -5.57422,0 z m 13.00781,0 c -1.54535,0 -2.78906,1.24451 -2.78906,2.78125 0,1.54105 1.24371,2.78515 2.78906,2.78515 l 5.56641,0 c 1.53674,10e-6 2.78125,-1.2441 2.78125,-2.78515 0,-1.53674 -1.24451,-2.78125 -2.78125,-2.78125 l -5.56641,0 z m 12.99219,0 c -1.54105,0 -2.78516,1.24451 -2.78516,2.78125 0,1.54105 1.24411,2.78515 2.78516,2.78515 l 5.57031,0 c 1.54105,10e-6 2.78516,-1.2441 2.78516,-2.78515 0,-1.53674 -1.24411,-2.78125 -2.78516,-2.78125 l -5.57031,0 z m 12.99414,0 c -1.53674,0 -2.7793,1.24451 -2.7793,2.78125 0,1.54105 1.24256,2.78515 2.7793,2.78515 l 5.57617,0 c 1.52813,10e-6 2.7793,-1.2441 2.7793,-2.78515 0,-1.53674 -1.25117,-2.78125 -2.7793,-2.78125 l -5.57617,0 z m -70.73242,4.55469 c -0.88244,0 -1.74708,0.41267 -2.28516,1.1875 -1.14933,1.65297 -2.11762,3.61592 -2.74609,5.8457 -0.43046,1.48079 0.42546,3.0215 1.90625,3.44336 1.48078,0.42185 3.01759,-0.43093 3.43945,-1.91602 0.4692,-1.62714 1.16614,-3.03817 1.9668,-4.1875 0.88244,-1.25695 0.57375,-2.99255 -0.6875,-3.875 -0.49072,-0.33576 -1.04707,-0.49804 -1.59375,-0.49804 z m -3.07422,12.375 c -1.54105,0 -2.79297,1.2484 -2.79297,2.78515 l 0,5.57032 c 0,1.53244 1.25192,2.78515 2.79297,2.78515 1.53675,0 2.78125,-1.25271 2.78125,-2.78515 l 0,-5.57032 c 0,-1.53675 -1.2445,-2.78515 -2.78125,-2.78515 z m 0,12.99218 c -1.54013,0.001 -2.79297,1.25298 -2.79297,2.78907 l 0,3.56836 c 0,0.77914 0.0442,1.53695 0.11719,2.27734 0.16357,1.53674 1.53126,2.64772 3.05078,2.48828 1.53244,-0.15066 2.65129,-1.52029 2.49219,-3.05273 -0.0517,-0.55099 -0.0859,-1.12746 -0.0859,-1.71289 l 0,-3.56836 c 0,-1.53609 -1.24346,-2.78799 -2.7793,-2.78907 l -0.002,0 z m 2.3125,12.60352 c -0.46432,0 -0.94419,0.1162 -1.38281,0.36523 -1.32475,0.76661 -1.7972,2.46643 -1.03125,3.80469 1.20099,2.09204 2.69979,3.79699 4.33984,5.04102 1.22682,0.92549 2.9749,0.68579 3.90039,-0.54102 0.92549,-1.23542 0.67994,-2.98036 -0.54687,-3.91015 -0.96423,-0.72317 -2.01137,-1.86763 -2.85938,-3.36133 l 0.008,0 c -0.52086,-0.89966 -1.46349,-1.39844 -2.42773,-1.39844 z m 10.6582,5.75 c -1.53675,0 -2.78125,1.24451 -2.78125,2.78125 0,1.54105 1.2445,2.78906 2.78125,2.78906 l 5.57422,0 c 1.54105,0 2.78516,-1.24801 2.78516,-2.78906 0,-1.53674 -1.24411,-2.78125 -2.78516,-2.78125 l -5.57422,0 z m 13,0 c -1.54105,0 -2.78515,1.24451 -2.78515,2.78125 0,1.54105 1.2441,2.78906 2.78515,2.78906 l 5.57422,0 c 1.53675,0 2.78125,-1.24801 2.78125,-2.78906 0,-1.53674 -1.2445,-2.78125 -2.78125,-2.78125 l -5.57422,0 z m 13.00391,0 c -1.54535,0 -2.78906,1.24451 -2.78906,2.78125 0,1.54105 1.24371,2.78906 2.78906,2.78906 l 5.5664,0 c 1.54104,0 2.78516,-1.24801 2.78516,-2.78906 0,-1.53674 -1.24412,-2.78125 -2.78516,-2.78125 l -5.5664,0 z m 12.99219,0 c -1.54105,0 -2.78516,1.24451 -2.78516,2.78125 0,1.54105 1.24411,2.78906 2.78516,2.78906 l 5.57421,0 c 1.52814,0 2.7793,-1.24801 2.7793,-2.78906 0,-1.53674 -1.25116,-2.78125 -2.7793,-2.78125 l -5.57421,0 z m 12.99414,0 c -1.53674,0 -2.7793,1.24451 -2.7793,2.78125 0,1.54105 1.24256,2.78906 2.7793,2.78906 l 5.57422,0 c 1.53244,0 2.78515,-1.24801 2.78515,-2.78906 0,-1.53674 -1.25271,-2.78125 -2.78515,-2.78125 l -5.57422,0 z m 13,0 c -1.54105,0 -2.78516,1.24451 -2.78516,2.78125 0,1.54105 1.24411,2.78906 2.78516,2.78906 l 5.57422,0 c 1.52812,0 2.78124,-1.24801 2.78124,-2.78906 0,-1.53674 -1.25312,-2.78125 -2.78124,-2.78125 l -5.57422,0 z"
           id="path4510" />
        <path
           inkscape:connector-curvature="0"
           id="path4542"
           style="fill:#000000;fill-opacity:1;fill-rule:nonzero;stroke:none"
           d="m 355.59346,293.44789 c 0,-5.12678 -4.16255,-9.28072 -9.28934,-9.28072 -5.13109,0 -9.28072,4.15394 -9.28072,9.28072 0,5.13109 4.14963,9.28504 9.28072,9.28504 5.12679,0 9.28934,-4.15395 9.28934,-9.28504" />
        <path
           inkscape:connector-curvature="0"
           id="path5557"
           transform="translate(0,0.85528)"
           d="m 300.44531,325.74805 c 3.02689,4.39793 7.22245,7.125 11.86328,7.125 l 76.70508,0 0,-5 -81.70508,0 c -2.44731,0 -4.7691,-0.76413 -6.86328,-2.125 z"
           style="opacity:0.2;fill:#000000;fill-opacity:1;fill-rule:nonzero;stroke:none" />
      </g>
    </g>
  </g>
</svg>
