<?xml version="1.0" encoding="UTF-8" standalone="no"?>
<!-- Created with Inkscape (http://www.inkscape.org/) -->

<svg
   xmlns:dc="http://purl.org/dc/elements/1.1/"
   xmlns:cc="http://creativecommons.org/ns#"
   xmlns:rdf="http://www.w3.org/1999/02/22-rdf-syntax-ns#"
   xmlns:svg="http://www.w3.org/2000/svg"
   xmlns="http://www.w3.org/2000/svg"
   xmlns:xlink="http://www.w3.org/1999/xlink"
   xmlns:sodipodi="http://sodipodi.sourceforge.net/DTD/sodipodi-0.dtd"
   xmlns:inkscape="http://www.inkscape.org/namespaces/inkscape"
   width="128"
   height="128"
   id="svg4490"
   version="1.1"
   inkscape:version="0.91 r"
   viewBox="0 0 128 128"
   sodipodi:docname="4kvideodownloader.svg">
  <defs
     id="defs4492">
    <linearGradient
       inkscape:collect="always"
       xlink:href="#0"
       id="linearGradient4169"
       x1="226.14285"
       y1="437.82648"
       x2="334.74997"
       y2="522.11218"
       gradientUnits="userSpaceOnUse"
       gradientTransform="matrix(1.0325348,0,0,1.0325348,-8.4607276,-11.608631)" />
    <linearGradient
       y2="518.14001"
       x2="0"
       y1="545.14001"
       gradientUnits="userSpaceOnUse"
       id="0">
      <stop
         id="stop7"
         stop-color="#30cf41" />
      <stop
         id="stop9"
         stop-color="#47f383"
         offset="1" />
    </linearGradient>
  </defs>
  <sodipodi:namedview
     id="base"
     pagecolor="#ffffff"
     bordercolor="#666666"
     borderopacity="1.0"
     inkscape:pageopacity="0.0"
     inkscape:pageshadow="2"
     inkscape:zoom="2.8"
     inkscape:cx="89.862035"
     inkscape:cy="66.608156"
     inkscape:document-units="px"
     inkscape:current-layer="layer1"
     showgrid="false"
     inkscape:showpageshadow="false"
     borderlayer="true"
     fit-margin-top="0"
     fit-margin-left="0"
     fit-margin-right="0"
     fit-margin-bottom="0"
     inkscape:window-width="1366"
     inkscape:window-height="744"
     inkscape:window-x="0"
     inkscape:window-y="24"
     inkscape:window-maximized="1"
     inkscape:snap-nodes="false">
    <inkscape:grid
       type="xygrid"
       id="grid3001"
       empspacing="5"
       visible="true"
       enabled="true"
       snapvisiblegridlinesonly="true" />
  </sodipodi:namedview>
  <metadata
     id="metadata4495">
    <rdf:RDF>
      <cc:Work
         rdf:about="">
        <dc:format>image/svg+xml</dc:format>
        <dc:type
           rdf:resource="http://purl.org/dc/dcmitype/StillImage" />
        <dc:title />
      </cc:Work>
    </rdf:RDF>
  </metadata>
  <g
     inkscape:label="Capa 1"
     inkscape:groupmode="layer"
     id="layer1"
     transform="translate(-213.14285,-416.93362)">
    <path
       inkscape:connector-curvature="0"
       style="fill:url(#linearGradient4169);fill-opacity:1;stroke:none"
       d="m 286.64912,436.14792 c -12.63356,0 -23.90237,7.44153 -28.96063,19.02298 -8.67528,1.11023 -16.03319,6.64792 -19.45784,14.76152 -13.03615,0.54027 -23.51636,11.49667 -23.51636,24.67014 0,13.59977 10.92914,24.66439 24.46724,24.66439 l 75.74406,0 c 13.53911,0 24.46724,-11.06462 24.46724,-24.66439 0,-12.41827 -8.96807,-22.73705 -21.09864,-24.40923 0.0549,-0.74837 0.0869,-1.5109 0.0869,-2.25541 -3e-5,-17.55384 -14.26317,-31.79 -31.73205,-31.79 z"
       id="path510"
       sodipodi:nodetypes="cccsssscssc" />
    <path
       style="fill:none;stroke:none"
       d="m 288.92771,498.4871 8.90561,0 -2.96854,2.96854 -5.93707,0 z"
       id="path3773"
       inkscape:connector-curvature="0" />
    <path
       style="fill:#ffffff"
       d="m 285.20957,498.37204 c 5.16292,-5.73476 8.81236,-9.94049 8.7124,-10.04044 -0.0946,-0.0946 -2.30905,-0.19545 -4.92098,-0.22409 l -4.74897,-0.0521 -0.0971,-10.2866 -0.0971,-10.28659 -8.0546,0 -8.05459,0 -0.0971,10.28659 -0.0971,10.2866 -4.85217,0.0971 c -3.14853,0.0629 -4.85217,0.1675 -4.85217,0.29768 0,0.38902 17.65584,19.87753 17.96836,19.83349 0.16857,-0.0238 4.30447,-4.48398 9.19089,-9.91163 z"
       id="path2982"
       inkscape:connector-curvature="0" />
  </g>
</svg>
