<?xml version="1.0" encoding="UTF-8" standalone="no"?>
<!-- Created with Inkscape (http://www.inkscape.org/) -->

<svg
   xmlns:dc="http://purl.org/dc/elements/1.1/"
   xmlns:cc="http://creativecommons.org/ns#"
   xmlns:rdf="http://www.w3.org/1999/02/22-rdf-syntax-ns#"
   xmlns:svg="http://www.w3.org/2000/svg"
   xmlns="http://www.w3.org/2000/svg"
   xmlns:xlink="http://www.w3.org/1999/xlink"
   xmlns:sodipodi="http://sodipodi.sourceforge.net/DTD/sodipodi-0.dtd"
   xmlns:inkscape="http://www.inkscape.org/namespaces/inkscape"
   id="svg2"
   version="1.1"
   inkscape:version="0.91 r"
   xml:space="preserve"
   width="512"
   height="512"
   viewBox="0 0 512 512"
   sodipodi:docname="gelemental.svg"><metadata
     id="metadata8"><rdf:RDF><cc:Work
         rdf:about=""><dc:format>image/svg+xml</dc:format><dc:type
           rdf:resource="http://purl.org/dc/dcmitype/StillImage" /><dc:title /></cc:Work></rdf:RDF></metadata><defs
     id="defs6"><linearGradient
       inkscape:collect="always"
       id="linearGradient3374"><stop
         style="stop-color:#000000;stop-opacity:1;"
         offset="0"
         id="stop3376" /><stop
         id="stop3387"
         offset="0.4413532"
         style="stop-color:#00ff00;stop-opacity:1" /><stop
         id="stop3383"
         offset="0.6870172"
         style="stop-color:#2ad4ff;stop-opacity:1" /><stop
         id="stop3381"
         offset="0.79855788"
         style="stop-color:#800066;stop-opacity:1" /><stop
         style="stop-color:#000000;stop-opacity:0;"
         offset="1"
         id="stop3378" /></linearGradient><clipPath
       clipPathUnits="userSpaceOnUse"
       id="clipPath16"><path
         d="m 0,431.484 376.723,0 L 376.723,0 0,0 0,431.484 Z"
         id="path18"
         inkscape:connector-curvature="0" /></clipPath><clipPath
       clipPathUnits="userSpaceOnUse"
       id="clipPath28"><path
         d="m 0,431.484 376.723,0 L 376.723,0 0,0 0,431.484 Z"
         id="path30"
         inkscape:connector-curvature="0" /></clipPath><clipPath
       clipPathUnits="userSpaceOnUse"
       id="clipPath40"><path
         d="m 0,431.484 376.723,0 L 376.723,0 0,0 0,431.484 Z"
         id="path42"
         inkscape:connector-curvature="0" /></clipPath><clipPath
       clipPathUnits="userSpaceOnUse"
       id="clipPath52"><path
         d="m 0,431.484 376.723,0 L 376.723,0 0,0 0,431.484 Z"
         id="path54"
         inkscape:connector-curvature="0" /></clipPath><clipPath
       clipPathUnits="userSpaceOnUse"
       id="clipPath64"><path
         d="m 0,431.484 376.723,0 L 376.723,0 0,0 0,431.484 Z"
         id="path66"
         inkscape:connector-curvature="0" /></clipPath><clipPath
       clipPathUnits="userSpaceOnUse"
       id="clipPath76"><path
         d="m 0,431.484 376.723,0 L 376.723,0 0,0 0,431.484 Z"
         id="path78"
         inkscape:connector-curvature="0" /></clipPath><linearGradient
       inkscape:collect="always"
       xlink:href="#linearGradient3374"
       id="linearGradient3380"
       x1="181.10841"
       y1="557.39636"
       x2="203.74696"
       y2="-179.38559"
       gradientUnits="userSpaceOnUse" /></defs><sodipodi:namedview
     pagecolor="#ffffff"
     bordercolor="#666666"
     borderopacity="1"
     objecttolerance="10"
     gridtolerance="10"
     guidetolerance="10"
     inkscape:pageopacity="0"
     inkscape:pageshadow="2"
     inkscape:window-width="1366"
     inkscape:window-height="744"
     id="namedview4"
     showgrid="false"
     inkscape:zoom="0.43755969"
     inkscape:cx="235.45187"
     inkscape:cy="269.67749"
     inkscape:window-x="0"
     inkscape:window-y="24"
     inkscape:window-maximized="1"
     inkscape:current-layer="g10" /><g
     id="g10"
     inkscape:groupmode="layer"
     inkscape:label="flask-908887"
     transform="matrix(1.25,0,0,-1.25,0,512.00002)"><g
       id="g12"
       transform="matrix(0.8883758,0,0,0.8883758,36.56644,11.267746)"><g
         id="g14"
         clip-path="url(#clipPath16)"><g
           id="g20"
           transform="translate(369.022,26.1914)"><path
             d="m 0,0 c 7.439,14.416 3.578,33.681 -10.871,54.248 l -0.104,0.155 -117.632,185.328 0.097,139.156 18.158,17.673 c 0.811,0.787 1.059,1.969 0.633,3.013 -0.424,1.045 -1.426,1.719 -2.552,1.719 l -136.777,0 c -1.127,0 -2.131,-0.674 -2.555,-1.719 -0.424,-1.044 -0.176,-2.227 0.631,-3.012 l 18.16,-17.674 0.098,-139.156 -0.625,-0.982 L -350.451,54.248 C -364.9,33.682 -368.761,14.416 -361.32,0 c 7.33,-14.207 24.903,-22.088 49.479,-22.191 l 262.376,0 0.029,-4 -0.017,4 C -24.895,-22.088 -7.332,-14.207 0,0"
             style="fill:#efeeef;fill-opacity:1;fill-rule:nonzero;stroke:none"
             id="path22"
             inkscape:connector-curvature="0" /></g></g></g><g
       id="g24"
       transform="matrix(0.8883758,0,0,0.8883758,36.56644,11.267746)"
       style="fill-opacity:1;fill:url(#linearGradient3380)"><g
         id="g26"
         clip-path="url(#clipPath28)"
         style="fill-opacity:1;fill:url(#linearGradient3380)"><g
           id="g32"
           transform="translate(18.5713,80.4395)"
           style="fill-opacity:1;fill:url(#linearGradient3380)"><path
             d="m 0,0 c -14.45,-20.566 -18.31,-39.832 -10.87,-54.248 7.33,-14.207 24.903,-22.088 49.479,-22.191 l 262.377,0 0.029,-4 -0.017,4 c 24.558,0.103 42.121,7.984 49.453,22.191 7.439,14.416 3.578,33.681 -10.871,54.248 l -0.104,0.155 -89.592,141.151 -160.191,0 L 0,0 Z"
             style="fill:url(#linearGradient3380);fill-opacity:1;fill-rule:nonzero;stroke:none"
             id="path34"
             inkscape:connector-curvature="0" /></g></g></g><g
       id="g36"
       transform="matrix(0.8883758,0,0,0.8883758,36.56644,11.267746)"><g
         id="g38"
         clip-path="url(#clipPath40)"><g
           id="g44"
           transform="translate(206.2524,343.0791)"><path
             d="m 0,0 c 0,-8.284 -6.717,-15 -15,-15 -8.285,0 -15,6.716 -15,15 0,8.284 6.715,15 15,15 C -6.717,15 0,8.284 0,0"
             style="fill:#9fcf7e;fill-opacity:1;fill-rule:nonzero;stroke:none"
             id="path46"
             inkscape:connector-curvature="0" /></g></g></g><g
       id="g48"
       transform="matrix(0.8883758,0,0,0.8883758,36.56644,11.267746)"><g
         id="g50"
         clip-path="url(#clipPath52)"><g
           id="g56"
           transform="translate(179.585,305.7456)"><path
             d="m 0,0 c 0,-4.971 -4.029,-9 -9,-9 -4.971,0 -9,4.029 -9,9 0,4.971 4.029,9 9,9 4.971,0 9,-4.029 9,-9"
             style="fill:#9fcf7e;fill-opacity:1;fill-rule:nonzero;stroke:none"
             id="path58"
             inkscape:connector-curvature="0" /></g></g></g><g
       id="g60"
       transform="matrix(0.8883758,0,0,0.8883758,36.56644,11.267746)"><g
         id="g62"
         clip-path="url(#clipPath64)"><g
           id="g68"
           transform="translate(215.4185,257.7461)"><path
             d="m 0,0 c 0,-9.849 -7.984,-17.833 -17.834,-17.833 -9.847,0 -17.832,7.984 -17.832,17.833 0,9.849 7.985,17.833 17.832,17.833 C -7.984,17.833 0,9.849 0,0"
             style="fill:#9fcf7e;fill-opacity:1;fill-rule:nonzero;stroke:none"
             id="path70"
             inkscape:connector-curvature="0" /></g></g></g><g
       id="g72"
       transform="matrix(0.8883758,0,0,0.8883758,36.56644,11.267746)"><g
         id="g74"
         clip-path="url(#clipPath76)"><g
           id="g80"
           transform="translate(256.7505,431.4839)"><path
             d="m 0,0 -136.777,0 c -2.75,0 -5.224,-1.667 -6.26,-4.213 -1.035,-2.547 -0.423,-5.469 1.547,-7.386 l 16.949,-16.497 0.096,-136.304 -117.008,-184.346 c -15.347,-21.843 -19.309,-42.574 -11.151,-58.38 8.047,-15.597 26.866,-24.248 53.019,-24.358 l 262.392,0 0.029,0 c 26.123,0.11 44.941,8.761 52.99,24.358 8.158,15.806 4.195,36.537 -11.152,58.38 L -12.334,-164.4 -12.238,-28.096 4.711,-11.599 C 6.684,-9.682 7.295,-6.76 6.26,-4.213 5.225,-1.667 2.748,0 0,0 m -12.906,-12 -7.701,-7.497 -3.627,-3.529 -0.004,-5.061 -0.096,-136.305 -0.002,-3.491 1.87,-2.948 117.008,-184.345 0.151,-0.238 0.162,-0.23 c 12.655,-18.011 16.315,-34.34 10.307,-45.98 -5.896,-11.426 -20.946,-17.769 -42.355,-17.86 l -262.36,0 c -21.44,0.095 -36.493,6.437 -42.387,17.861 -6.008,11.64 -2.348,27.969 10.306,45.979 l 0.161,0.23 0.151,0.238 117.009,184.345 1.871,2.948 -0.003,3.491 -0.096,136.305 -0.003,5.061 -3.627,3.529 -7.702,7.497 110.967,0"
             style="fill:#d1d2d3;fill-opacity:1;fill-rule:nonzero;stroke:none"
             id="path82"
             inkscape:connector-curvature="0" /></g></g></g><path
       d="m 233.12136,290.88047 -15.99076,0 0,5.33026 15.99076,0 0,-5.33026 z"
       style="fill:#a6a8ab;fill-opacity:1;fill-rule:nonzero;stroke:none"
       id="path84"
       inkscape:connector-curvature="0" /><path
       d="m 233.12136,333.52251 -15.99076,0 0,5.33025 15.99076,0 0,-5.33025 z"
       style="fill:#a6a8ab;fill-opacity:1;fill-rule:nonzero;stroke:none"
       id="path86"
       inkscape:connector-curvature="0" /><path
       d="m 233.12136,266.89432 -26.65127,0 0,10.66051 26.65127,0 0,-10.66051 z"
       style="fill:#a6a8ab;fill-opacity:1;fill-rule:nonzero;stroke:none"
       id="path88"
       inkscape:connector-curvature="0" /><path
       d="m 233.12136,309.53636 -26.65127,0 0,10.66051 26.65127,0 0,-10.66051 z"
       style="fill:#a6a8ab;fill-opacity:1;fill-rule:nonzero;stroke:none"
       id="path90"
       inkscape:connector-curvature="0" /><path
       d="m 233.12136,352.1784 -26.65127,0 0,10.66051 26.65127,0 0,-10.66051 z"
       style="fill:#a6a8ab;fill-opacity:1;fill-rule:nonzero;stroke:none"
       id="path92"
       inkscape:connector-curvature="0" /></g></svg>