<?xml version="1.0" encoding="UTF-8" standalone="no"?>
<!-- Created with Inkscape (http://www.inkscape.org/) -->
<svg id="svg3449" xmlns:rdf="http://www.w3.org/1999/02/22-rdf-syntax-ns#" xmlns="http://www.w3.org/2000/svg" height="128" width="128" version="1.0" xmlns:cc="http://creativecommons.org/ns#" xmlns:xlink="http://www.w3.org/1999/xlink" xmlns:dc="http://purl.org/dc/elements/1.1/">
 <metadata id="metadata56">
  <rdf:RDF>
   <cc:Work rdf:about="">
    <dc:format>image/svg+xml</dc:format>
    <dc:type rdf:resource="http://purl.org/dc/dcmitype/StillImage"/>
    <dc:title/>
   </cc:Work>
  </rdf:RDF>
 </metadata>
 <defs id="defs3451">
  <linearGradient id="linearGradient3519" y2="50.369" gradientUnits="userSpaceOnUse" x2="76.558" gradientTransform="matrix(.96826 0 0 -.97948 3.2423 129.19)" y1="13.164" x1="76.558">
   <stop id="stop3392" style="stop-color:#425e7b" offset="0"/>
   <stop id="stop3394" style="stop-color:#7a91a7" offset="1"/>
  </linearGradient>
  <linearGradient id="linearGradient3521" y2="-8.7399" gradientUnits="userSpaceOnUse" x2="60.217" gradientTransform="matrix(.96826 0 0 -.97948 2.179 -.16587)" y1="-123.72" x1="60.395">
   <stop id="stop3392-4-8" style="stop-color:#425e7b" offset="0"/>
   <stop id="stop3394-8-0" style="stop-color:#7a91a7" offset="1"/>
  </linearGradient>
  <filter id="filter3174" color-interpolation-filters="sRGB">
   <feGaussianBlur id="feGaussianBlur3176" stdDeviation="1.71"/>
  </filter>
  <linearGradient id="ButtonShadow-1" x1="45.448" gradientUnits="userSpaceOnUse" y1="92.54" gradientTransform="scale(1.0059 .99417)" x2="45.448" y2="7.0165">
   <stop id="stop3750-0" offset="0"/>
   <stop id="stop3752-4" style="stop-opacity:.58824" offset="1"/>
  </linearGradient>
  <filter id="filter3174-0" color-interpolation-filters="sRGB">
   <feGaussianBlur id="feGaussianBlur3176-3" stdDeviation="1.71"/>
  </filter>
  <linearGradient id="linearGradient3875">
   <stop id="stop3877" style="stop-color:#ff9cf6" offset="0"/>
   <stop id="stop3879" style="stop-color:#ff9cf6;stop-opacity:0" offset="1"/>
  </linearGradient>
  <filter id="filter3756" height="1.2626" width="1.221" color-interpolation-filters="sRGB" y="-.13130" x="-.11049">
   <feGaussianBlur id="feGaussianBlur3758" stdDeviation="1.6743347"/>
  </filter>
  <radialGradient id="radialGradient8396" gradientUnits="userSpaceOnUse" cy="90.172" cx="48" gradientTransform="matrix(1.1573 0 0 .99591 -7.551 .19713)" r="42">
   <stop id="stop3739-1-6" style="stop-color:#fff" offset="0"/>
   <stop id="stop3741-5-8" style="stop-color:#fff;stop-opacity:0" offset="1"/>
  </radialGradient>
  <linearGradient id="linearGradient8398" y2="110.45" gradientUnits="userSpaceOnUse" x2="25.784" gradientTransform="matrix(.96471 0 0 1.0388 -.70464 -37.672)" y1="92.073" x1="36.43">
   <stop id="stop3590" style="stop-color:#ff9b00" offset="0"/>
   <stop id="stop3592" style="stop-color:#ff5f00" offset="1"/>
  </linearGradient>
  <linearGradient id="linearGradient8400" y2="102.29" gradientUnits="userSpaceOnUse" x2="54.242" gradientTransform="matrix(1.0043 0 0 1.0936 -19.427 -35.443)" y1="76.96" x1="54.602">
   <stop id="stop3582" style="stop-color:#f2e051" offset="0"/>
   <stop id="stop3584" style="stop-color:#ffb31f" offset="1"/>
  </linearGradient>
  <linearGradient id="linearGradient8402" y2="77.651" gradientUnits="userSpaceOnUse" x2="50.363" gradientTransform="matrix(.86047 0 0 .86047 1.4241 -4.7012)" y1="42.477" x1="36.988">
   <stop id="stop3574" style="stop-color:#61ae50" offset="0"/>
   <stop id="stop3576" style="stop-color:#9ac837" offset="1"/>
  </linearGradient>
  <linearGradient id="linearGradient8404" y2="26.721" gradientUnits="userSpaceOnUse" x2="61.392" gradientTransform="matrix(1.0271 0 0 1.0271 3.1786 .33230)" y1="26.721" x1="26.812">
   <stop id="stop3566" style="stop-color:#3792c8" offset="0"/>
   <stop id="stop3568" style="stop-color:#3769c8" offset="1"/>
  </linearGradient>
  <linearGradient id="linearGradient8406" y2="54.118" gradientUnits="userSpaceOnUse" x2="98.93" gradientTransform="matrix(.74975 0 0 .74975 -3.3063 1.262)" y1="33.634" x1="69.973">
   <stop id="stop3558" style="stop-color:#e273be" offset="0"/>
   <stop id="stop3560" style="stop-color:#e84058" offset="1"/>
  </linearGradient>
  <linearGradient id="linearGradient8408" y2="34.789" gradientUnits="userSpaceOnUse" x2="57.335" gradientTransform="matrix(.70358 0 0 .70358 2.024 2.1386)" y1="24" x1="52.564">
   <stop id="stop3838" style="stop-color:#a5eaf6" offset="0"/>
   <stop id="stop3840" style="stop-color:#35d3ed;stop-opacity:0" offset="1"/>
  </linearGradient>
  <linearGradient id="linearGradient8410" y2="53.124" xlink:href="#linearGradient3875" gradientUnits="userSpaceOnUse" x2="73.677" gradientTransform="matrix(.70358 0 0 .70358 2.903 1.9628)" y1="46.878" x1="67.279"/>
  <linearGradient id="linearGradient8412" y2="44.146" xlink:href="#linearGradient3875" gradientUnits="userSpaceOnUse" x2="84.375" gradientTransform="matrix(.70358 0 0 .70358 1.145 1.9628)" y1="37.528" x1="84.203"/>
  <linearGradient id="linearGradient8414" y2="64.409" gradientUnits="userSpaceOnUse" x2="41.267" gradientTransform="matrix(.70358 0 0 .70358 2.903 1.9628)" y1="53.165" x1="30.309">
   <stop id="stop3923" style="stop-color:#b5e64e" offset="0"/>
   <stop id="stop3925" style="stop-color:#b5e64e;stop-opacity:0" offset="1"/>
  </linearGradient>
  <linearGradient id="linearGradient8416" y2="90.385" gradientUnits="userSpaceOnUse" x2="64.963" gradientTransform="matrix(.70358 0 0 .70358 2.903 1.9628)" y1="76.813" x1="64">
   <stop id="stop3942" style="stop-color:#fdf49c" offset="0"/>
   <stop id="stop3944" style="stop-color:#fdf49c;stop-opacity:0" offset="1"/>
  </linearGradient>
  <linearGradient id="linearGradient8418" y2="104.59" gradientUnits="userSpaceOnUse" x2="31.351" gradientTransform="matrix(.70358 0 0 .70358 1.8482 1.9628)" y1="87.354" x1="24">
   <stop id="stop3972" style="stop-color:#ffaf44" offset="0"/>
   <stop id="stop3974" style="stop-color:#ffaf44;stop-opacity:0" offset="1"/>
  </linearGradient>
  <linearGradient id="linearGradient8477" y2="-9.1034" gradientUnits="userSpaceOnUse" x2="66.492" gradientTransform="matrix(.96826 0 0 -.97948 2.1794 -.16587)" y1="-42.638" x1="67.952">
   <stop id="stop4620" style="stop-color:#37414b" offset="0"/>
   <stop id="stop4622" style="stop-color:#37414b;stop-opacity:0" offset="1"/>
  </linearGradient>
  <linearGradient id="linearGradient8479" y2="-11.847" gradientUnits="userSpaceOnUse" x2="58.98" gradientTransform="matrix(.96826 0 0 -.97948 2.1794 -.16587)" y1="-118.55" x1="57.173">
   <stop id="stop4596" offset="0"/>
   <stop id="stop4598" style="stop-opacity:0" offset="1"/>
  </linearGradient>
  <linearGradient id="linearGradient8482" y2="32.148" gradientUnits="userSpaceOnUse" x2="29.984" y1="154.89" x1="147.69">
   <stop id="stop3189-7" style="stop-color:#a77549" offset="0"/>
   <stop id="stop3191-9" style="stop-color:#d2b397" offset="1"/>
  </linearGradient>
 </defs>
 <path id="rect892" style="stroke:url(#linearGradient3521);stroke-width:.97385;fill:url(#linearGradient3519)" d="m36.344 6.7188c-16.23 0-29.313 13.051-29.313 29.281l0.0002 56.969c0 16.231 13.083 29.281 29.313 29.281h55.625c16.231 0 29.281-13.05 29.281-29.281v-56.969c0-16.23-13.05-29.281-29.281-29.281l-55.625-0.0002zm58.218 83.031c3.219-0.081 7.558 2.411 10.688 6.375 3.85 4.875 4.42 10.155 1.25 11.785-3.17 1.62-8.866-1-12.719-5.88-3.853-4.878-4.418-10.183-1.25-11.811 0.594-0.306 1.289-0.45 2.031-0.469z"/>
 <path id="rect892-2" style="stroke:url(#linearGradient8479);stroke-width:.97385;fill:url(#linearGradient8477)" d="m36.063 7.125c-16.062 0-29 12.938-29 29v56.344c0 16.062 12.938 29 29 29h56.219c16.062 0 29-12.938 29-29v-56.344c0-16.062-12.938-29-29-29h-56.219zm58.5 82.625c3.2185-0.0814 7.557 2.4105 10.688 6.375 3.8529 4.8794 4.4183 10.153 1.25 11.781-3.1683 1.6281-8.8659-0.99562-12.719-5.875-3.8529-4.8794-4.4183-10.184-1.25-11.812 0.59404-0.30526 1.2885-0.44997 2.0312-0.46875z"/>
 <path id="rect895" style="fill:url(#linearGradient8482)" d="m96.124 6.8438c-0.415 0.0088-0.772 0.0599-1.062 0.1874-47.846 0.8655-18.014 0.2188-62 0.2188-7.969-2.4493-27.016 15.199-25.656 23.062-0.0504 0.974-0.094 1.946-0.094 2.938v52.438c0 20.876 10.707 33.844 22.312 33.844h67.031c12.638 0 24.312-11.229 24.312-25.844v-64.031c0.65-10.246-18.61-22.944-24.846-22.811zm-1.562 82.906c3.2185-0.0814 7.557 2.4105 10.688 6.375 3.8529 4.8794 4.4183 10.153 1.25 11.781-3.1683 1.6281-8.8659-0.99562-12.719-5.875-3.8529-4.8794-4.4183-10.184-1.25-11.812 0.59405-0.30526 1.2885-0.44997 2.0312-0.46875z"/>
 <rect id="rect892-2-7-8" style="opacity:.15891;stroke:#000;stroke-width:4.8445;fill:none" transform="scale(1,-1)" ry="28.993" height="114.35" width="114.22" y="-121.16" x="6.8687"/>
 <rect id="rect892-2-7-1" style="opacity:.15891;stroke:#000;stroke-width:7.7512;fill:none" transform="scale(1,-1)" ry="28.993" height="114.35" width="114.22" y="-121.16" x="6.8687"/>
 <rect id="rect892-2-7-2-9" ry="28.067" style="stroke:#000;stroke-width:1.0489;fill:none" transform="scale(1,-1)" height="112.71" width="114.14" y="-120.31" x="7.0649"/>
 <path id="path1187" style="fill:#fff;fill-opacity:.057143" d="m33.017 7.2319c-23.707 0-26.027 0.6738-25.93 26.295-0.04334 0.71563-0.07674 1.4439-0.07674 2.1732v32.76c18.67-38.321 38.34-51.497 90.374-61.179-0.225-0.026-0.46-0.0303-0.691-0.0303-41.576 0.3874-25.652-0.0188-63.676-0.0188z"/>
 <g id="layer2" style="display:none" transform="translate(148.5 -54.67)">
  <rect id="rect3745" style="opacity:.9;filter:url(#filter3174);fill:url(#ButtonShadow-1)" rx="6" ry="6" height="85" width="86" y="7" x="5"/>
 </g>
 <g id="g7586" transform="matrix(1.3894 0 0 1.3894 -3.0091 -4.0974)">
  <g id="layer2-2" style="display:none">
   <path id="rect3745-4" d="m11 7c-3.324 0-6 2.676-6 6v73c0 3.324 2.676 6 6 6h74c3.324 0 6-2.676 6-6v-73c0-3.324-2.676-6-6-6h-74zm58.281 56.125c4.5704 0.000002 9.193 3.1002 11.5 7.75 1.4372 2.8968 1.6487 6.1373 0.5625 8.3438-0.71615 1.4547-2.1126 2.7309-3.5 3.25-1.4404 0.53891-3.5073 0.67005-5.1562 0.25-6.0128-1.5316-10.816-7.6152-10.469-13.188 0.12221-1.959 0.86924-3.5434 2.0938-4.6562 1.2258-1.1139 2.9274-1.75 4.9688-1.75z" style="opacity:.9;filter:url(#filter3174-0);fill:url(#ButtonShadow-1)"/>
  </g>
  <g id="layer1-4">
   <path id="path3615" d="m12 90c-3.324 0-6-2.676-6-6v-2-68-2c0-0.33472 0.04135-0.6507 0.09375-0.96875 0.0487-0.2956 0.09704-0.59692 0.1875-0.875 0.0099-0.03 0.0209-0.063 0.0313-0.094 0.0989-0.2873 0.2349-0.547 0.375-0.812 0.1446-0.2735 0.3156-0.5356 0.5-0.7812 0.1844-0.2457 0.3738-0.4735 0.5937-0.6876 0.44-0.428 0.943-0.8145 1.5-1.0937 0.2786-0.1396 0.5735-0.2469 0.8748-0.3437-0.256 0.1002-0.4865 0.2362-0.7185 0.375-0.00741 0.0044-0.023866-0.0045-0.03125 0-0.031933 0.0193-0.062293 0.04251-0.09375 0.0625-0.1204 0.0767-0.23102 0.16351-0.34375 0.25-0.10617 0.0808-0.21328 0.16111-0.3125 0.25-0.1779 0.1614-0.3474 0.3453-0.5 0.5312-0.1075 0.1303-0.2183 0.2653-0.3124 0.4063-0.0251 0.0383-0.0385 0.0858-0.0626 0.125-0.0647 0.103-0.1302 0.2045-0.1874 0.3124-0.1011 0.1948-0.2057 0.4158-0.2813 0.625-0.008 0.0219-0.0236 0.0406-0.0313 0.0626-0.0318 0.0919-0.0358 0.1868-0.0624 0.2812-0.0304 0.1066-0.0704 0.203-0.0938 0.3125-0.0729 0.3415-0.125 0.6985-0.125 1.0625v2 68 2c0 2.7818 2.2182 5 5 5h2 68 2c2.7818 0 5-2.2182 5-5v-2-68-2c0-0.364-0.052-0.721-0.125-1.0625-0.044-0.2069-0.088-0.3977-0.156-0.5937-0.008-0.022-0.024-0.0407-0.031-0.0626-0.063-0.1737-0.139-0.3674-0.219-0.5312-0.042-0.0828-0.079-0.17-0.125-0.25-0.055-0.0972-0.127-0.1884-0.188-0.2812-0.094-0.141-0.205-0.276-0.312-0.4063-0.143-0.1745-0.303-0.347-0.469-0.5-0.011-0.0102-0.02-0.0211-0.031-0.0313-0.139-0.1255-0.285-0.2344-0.438-0.3437-0.102-0.0731-0.204-0.1534-0.312-0.2187-0.0074-0.0045-0.02384 0.0044-0.03125 0-0.23204-0.13873-0.46255-0.27478-0.71875-0.375 0.30153 0.0968 0.59646 0.20414 0.875 0.34375 0.55709 0.27922 1.0601 0.66569 1.5 1.0938 0.21997 0.21403 0.40937 0.44186 0.59375 0.6875s0.35541 0.50774 0.5 0.78125c0.14012 0.26505 0.27614 0.52473 0.375 0.8125 0.01041 0.03078 0.02133 0.06274 0.03125 0.09375 0.09046 0.27808 0.1388 0.5794 0.1875 0.875 0.053 0.318 0.094 0.634 0.094 0.969v2 68 2c0 3.324-2.676 6-6 6h-72z" style="opacity:.3;fill:url(#radialGradient8396)"/>
  </g>
  <g id="layer3">
   <path id="path3710" style="opacity:.05;fill:#784421" d="m31.312 8.4688a1.0053 1.0053 0 0 0 -0.281 0.0937c-0.732 0.3752-2.089 0.2346-3.593 0.2187-0.753-0.0079-1.564 0.0405-2.344 0.4063-0.7807 0.36583-1.4412 1.0871-1.8125 2.0938-0.49672 1.2986-0.50462 2.4568-0.03125 3.375 0.47337 0.91818 1.2812 1.4745 2.0938 1.875 1.3766 0.67856 2.737 1.1408 3.5312 1.6875-0.17596 0.11252-0.33875 0.17312-0.53125 0.375-0.3255 0.34136-0.61136 0.97139-0.53125 1.5938-0.12823 0.04138-0.36533 0.13607-0.78125 0.21875-0.49746 0.09888-1.1243 0.19219-1.7188 0.625-0.50794 0.36981-0.85157 1.0768-0.9375 1.8438-0.04491 0.12978-0.03191 0.24676-0.0625 0.375-0.21838 0.91558-0.15985 1.8102 0.1875 2.4688 0.396 0.7508 0.96995 1.2554 1.4375 1.6875 0.46755 0.43209 0.8334 0.78912 0.96875 1.0625s0.20052 0.43267-0.0625 1a1.0053 1.0053 0 0 0 -0.094 0.468c0.019 1.1537 0.54538 2.1072 1.3125 2.5 0.76712 0.39285 1.5154 0.3264 2.0625 0.3125 0.32375-0.0082 0.29649-0.03799 0.40625-0.03125-0.025 0.101-0.025 0.108-0.093 0.281a1.0053 1.0053 0 0 0 -0.03125 0.625c0.07783 0.3213 0.22167 0.56172 0.34375 0.84375-1.2171-0.54547-2.5199-0.52088-3.5-0.53125-0.6001-0.0063-1.0664-0.08203-1.2812-0.1875-0.21486-0.10547-0.29638-0.13657-0.375-0.625a1.0053 1.0053 0 0 0 -0.033 -0.156c-0.53908-1.6841-1.6673-2.7969-2.9688-3.2812-1.3015-0.48436-2.7134-0.36712-3.9375 0.15625s-2.3121 1.4471-2.875 2.7188c-0.5629 1.2716-0.56326 2.879 0.25 4.4375a1.0053 1.0053 0 0 0 0.28125 0.3125c1.0191 0.83722 1.9788 1.5046 2.4062 2.0938 0.42749 0.58912 0.59303 0.983-0.09375 2.25a1.0053 1.0053 0 0 0 -0.03125 0.875c0.15951 0.36491 0.12744 0.54807 0.125 0.5625-0.14036 0.09627-0.82986 0.2631-1.625 0.40625-0.79514 0.14314-1.7207 0.27853-2.5312 0.90625-0.40527 0.31386-0.75799 0.80509-0.90625 1.375-0.14575 0.56026-0.1102 1.1511 0.0625 1.8125 0.0023 0.0098-0.0023 0.02155 0 0.03125 0.26847 1.1122 1.1258 1.8346 1.9375 2.2188 0.8188 0.38748 1.6603 0.54156 2.25 0.71875 0.19065 0.05728 0.29061 0.108 0.40625 0.15625-0.1284 0.18659-0.34662 0.43683-0.75 0.8125a1.0053 1.0053 0 0 0 -0.3125 0.9375c0.08923 0.44869 0.14146 0.69999 0.15625 0.875-0.03096 0.0089 0.01089-0.009-0.03125 0-0.25984 0.05569-0.67485 0.13028-1.2188 0.25a1.0053 1.0053 0 0 0 -0.625 0.4375c-0.05596 0.08912-0.03199 0.06282-0.03125 0.0625-0.15975-0.05006-0.64116-0.34355-1.1875-0.71875s-1.1828-0.8229-2.0312-1c-0.72346-0.15101-1.5785 0.06101-2.3438 0.5625-0.13218 0.08662-0.28157 0.10998-0.40625 0.21875-1.126 0.42394-2.014 1.158-2.4375 2.0938-0.48006 1.0608-0.48022 2.2497-0.1875 3.3438 0.58545 2.188 2.5168 4.2175 5.125 4a1.0053 1.0053 0 0 0 0.3125 -0.0625c1.2459-0.53806 2.3992-0.33584 2.75-0.03125 0.1754 0.15229 0.21691 0.25825 0.1875 0.5625s-0.21643 0.84531-0.8125 1.5312a1.0053 1.0053 0 0 0 -0.125 0.125c-1.0684 1.7674-0.69021 3.603-0.0625 5 0.52859 1.1764 1.0772 2.0698 1.375 2.8125-0.74104 0.66329-1.6211 1.2592-2.625 1.9375-1.1885 0.80306-2.451 1.7839-3.0938 3.375a1.0053 1.0053 0 0 0 0 0.0625c-0.38917 1.1601-0.31814 2.2838 0.15625 3.1562 0.47439 0.87241 1.2727 1.453 2.1562 1.75 1.767 0.59393 3.9967 0.14838 5.25-1.625a1.0053 1.0053 0 0 0 0.125 -0.185c0.43677-1.0192 1.2022-1.1344 1.5312-1.0312 0.16454 0.05158 0.21247 0.07209 0.25 0.21875s0.02523 0.53605-0.34375 1.1562l0.03125 0.03125c-0.57443 0.72396-1.0308 1.5805-1.125 2.5312-0.10128 1.0226 0.20957 2.1508 1.0625 3 0.91047 0.92669 1.9329 1.3995 2.9062 1.25 0.97335-0.14952 1.6137-0.81984 2.125-1.4688 0.51131-0.64891 0.90982-1.3457 1.2812-1.9375 0.27214-0.43359 0.48383-0.62776 0.65625-0.8125 3.3022 1.3837 6.7143 0.29149 9.375-1.5a1.0053 1.0053 0 0 0 0.09375 -0.09375c0.29542-0.26318 0.32379-0.21473 0.625-0.125s0.77623 0.36376 1.3438 0.6875c0.56752 0.32374 1.2659 0.70161 2.1562 0.65625 0.78659-0.04007 1.546-0.53045 2.1875-1.3125 0.08459-0.10313 0.1705-0.16673 0.25-0.28125 0.7125-0.59939 1.1434-1.4084 1.3438-2.2188 0.0903-0.36519 0.08633-0.69961 0.125-1.0625 0.32742 0.13653 0.6541 0.30994 1 0.34375 0.98931 0.09669 2.0462-0.19676 2.8438-0.96875 0.62942-0.60922 0.93075-1.5824 0.9375-2.6562 0.91473-0.37191 1.83-0.88408 2.3125-1.0625 0.32219-0.11913 0.41139-0.11897 0.53125-0.0625s0.41543 0.31195 0.75 1.0312a1.0053 1.0053 0 0 0 0.21875 0.3125c0.92352 0.83989 1.9824 1.2387 2.9375 1.0312 0.95512-0.20743 1.5983-0.97382 1.9375-1.7812 0.59988-1.4278 0.40887-3.2792-0.78125-4.625 0.05225-0.26091 0.0949-0.56237 0.1875-0.625 0.13467-0.09108 0.50661-0.15772 1.0625-0.15625 0.55589 0.0015 1.2469 0.05847 1.9688 0.03125 0.70164-0.02646 1.4907-0.16262 2.1562-0.71875 0.01166-0.0097 0.01968-0.02124 0.03125-0.03125 0.0052-0.0041 0.0261 0.0041 0.03125 0 0.448-0.35641 0.82059-0.81039 0.96875-1.3125 0.15611-0.52905 0.05079-1.0459-0.125-1.4688-0.01315-0.03163-0.04857-0.03172-0.0625-0.0625 0.52413 0.03376 1.0312-0.03901 1.4688-0.21875 0.91147-0.37445 1.4579-1.1824 1.7188-1.9688 0.26086-0.78631 0.29365-1.5761 0.125-2.3125-0.027-0.1179-0.1188-0.22567-0.15625-0.34375 0.50633-0.23864 0.9916-0.58146 1.4062-1 0.39721-0.40094 0.73631-0.91685 0.875-1.5312 0.13869-0.6144 0.01804-1.3064-0.3125-1.9375a1.0053 1.0053 0 0 0 -0.03 -0.094c-0.46932-0.70825-1.1631-1.1614-1.875-1.3438-0.71189-0.18239-1.4069-0.12737-2.0625 0.03125-1.3112 0.31723-2.4936 1.0119-3.3125 1.5-0.64736 0.37105-0.99447 1.0327-1.0938 1.625-0.624-0.558-1.302-1.039-1.906-1.468-1.042-0.74-1.73-1.34-1.781-2.406a1.0053 1.0053 0 0 0 -0.28125 -0.625c-0.07339-0.07694-0.04214-0.09343-0.09375-0.15625 0.0138-0.003 0.01704 0.0029 0.03125 0 0.45665-0.09437 1.1176-0.16281 1.7812-0.3125 0.45233-0.10202 0.90203-0.39051 1.3438-0.65625 0.91916 0.10014 1.7761-0.13571 2.4375-0.53125 0.74012-0.44261 1.292-1.0182 1.75-1.5312 0.41072-0.46009 0.74691-0.79711 0.9375-0.96875a1.0053 1.0053 0 0 0 0.25 0.0625c-0.01462 0.17199-0.11319 0.32137-0.09375 0.5 0.09741 0.89524 0.64305 1.7476 1.5 2.5312 0.72248 1.9438 2.7562 3.0374 4.7188 3.0938 1.0414 0.02989 2.105-0.23338 2.9688-0.90625 0.85682-0.66744 1.4399-1.7632 1.5312-3.0938 0.000744-0.01084-0.000679-0.02038 0-0.03125 0.17061-2.0813-0.98992-4.1572-2.7812-5.1562 0.42923-0.51712 0.75541-1.1036 0.875-1.7188 0.17346-0.89221 0.08958-1.8029-0.3125-2.5938-0.11809-0.23228-0.34647-0.42455-0.53125-0.625 1.0597-0.87701 1.8736-1.9548 2.4062-3 0.76192-1.4949 1.3563-2.6372 2.4375-3.0625 1.3082-0.5447 2.1792-1.4988 2.5938-2.5312 0.41453-1.0325 0.44686-2.0986 0.40625-3.0938-0.04061-0.99515-0.15775-1.9282-0.15625-2.6562 0.000974-0.47214 0.10214-0.64021 0.1875-0.875 0.18139 0.20202 0.2895 0.29792 0.53125 0.5625 0.4697 0.51405 1.0375 1.103 1.8438 1.4375 0.74409 0.30871 1.7138 0.2198 2.5625-0.3125v0.03125c0.0358-0.01429 0.05838-0.0475 0.09375-0.0625 0.0409-0.02768 0.08495-0.03242 0.125-0.0625l-0.033-0.034c1.9957-0.90541 3.338-2.9001 3.75-5.0312 0.421-2.177-0.192-4.661-2.281-5.969-0.032-0.024-0.062-0.039-0.094-0.062-1.0223-0.73132-2.1335-0.99683-3.1562-0.875-1.0552 0.1257-1.987 0.61559-2.75 1.2188-0.76302 0.60316-1.3866 1.3256-1.8438 2.0312-0.22434 0.3463-0.26171 0.67146-0.40625 1-0.629-0.119-1.217-0.14-1.719 0.031-0.75683 0.25892-1.2897 0.7152-1.7188 1.0625-0.42904 0.3473-0.74619 0.586-1 0.65625s-0.51658 0.0697-1.125-0.28125a1.0053 1.0053 0 0 0 -0.156 -0.063c-0.697-0.244-1.352-0.127-1.938 0.094 0.041-0.634-0.036-1.276-0.218-1.875-0.17-0.559-0.598-0.972-0.906-1.469 0.80961 0.3332 1.729 0.50192 2.7188 0.1875 0.0095-0.0027 0.02175 0.0028 0.03125 0 2.4031-0.70328 3.4063-3.1816 3.125-5.2812-0.142-1.053-0.576-2.077-1.407-2.812-0.803-0.7105-1.991-1.0684-3.281-0.9062-0.01109 0.00139-0.02014-0.00147-0.03125 0-0.034 0.0044-0.06-0.0052-0.094 0v0.0312c-1.4107 0.07652-2.5585 0.80698-3.1562 1.8125-0.6175 1.0388-0.75533 2.2729-0.5625 3.4375 0.05731 0.34614 0.22526 0.66853 0.34375 1-0.55999-0.31523-1.1391-0.5463-1.7812-0.625-0.96526-0.1183-1.9772 0.23489-2.8438 0.90625 0.05104-0.29784 0.16635-0.58027 0.125-0.90625-0.13182-1.0392-0.99337-1.9271-2.2812-2.5v-0.03125c-0.02086-0.01356-0.04146-0.01841-0.0625-0.03125-0.0468-0.01994-0.07701-0.04344-0.125-0.0625l-0.031 0.031c-0.961-0.501-2.082-0.36-2.813 0.094-0.784 0.488-1.354 1.17-1.812 1.687-0.01236 0.01398-0.01906 0.01751-0.03125 0.03125-0.0039-0.03344 0.0036-0.02725 0-0.0625a1.0053 1.0053 0 0 0 -0.031 -0.156c-0.29926-1.2461-1.0011-2.1848-1.875-2.75-0.87389-0.56517-1.8733-0.76971-2.8125-0.78125-0.93916-0.01154-1.8428 0.1645-2.5938 0.46875-0.0582 0.02358-0.09905 0.06944-0.15625 0.09375-0.31561-0.69821-0.80628-1.3032-1.4062-1.75-0.55075-0.41015-1.1857-0.7058-1.9062-0.75-0.64393-0.039502-1.3114 0.23805-1.875 0.6875l-0.03125-0.0625c-0.0557 0.031765-0.07239 0.09078-0.125 0.125-0.01876 0.017106-0.04412 0.013536-0.0625 0.03125v0.03125c-0.89408 0.61922-1.3793 1.5454-1.5 2.4062-0.13101 0.93464-0.000201 1.8102 0.03125 2.5 0.03145 0.68976-0.08375 1.1076-0.125 1.1562-0.02062 0.02431-0.04403 0.0543-0.25 0.09375s-0.5899 0.03132-1.1562-0.0625a1.0053 1.0053 0 0 0 -0.21875 0c-0.65846 0.03553-1.2185 0.2283-1.7188 0.4375a1.0053 1.0053 0 0 0 0 -0.125c-0.05724-1.4985-0.40017-3.293-1.25-4.8125s-2.3364-2.8014-4.375-2.8438a1.0053 1.0053 0 0 0 -0.21875 0zm28.844 11.625c-0.0012 0.42902-0.03121 0.93097-0.03125 1.25-0.000012 0.09294 0.0035 0.10956 0 0.1875-0.12507-0.05931-0.27866-0.16572-0.46875-0.28125 0.0017-0.02599-0.0062-0.02285 0-0.0625 0.02525-0.16108 0.12332-0.41072 0.28125-0.71875 0.05232-0.10205 0.15468-0.26459 0.21875-0.375z"/>
   <path id="path3704" d="m31.5 9.4688c-2.3205 1.1886-6.0975-1.0879-7.2927 2.1522-1.7321 4.5281 3.9994 4.0312 5.9246 6.2133 0.96476 0.90792-1.5153 0.91866-1.3195 2.2282 0.4796 2.0621-3.583 0.40986-3.5093 3.1589-1.1647 3.3659 3.8837 3.5854 2.4468 6.6849 0.06115 3.7135 4.9969 0.02717 3.625 3.4688 0.38975 1.6089 2.4248 3.9011-0.44532 2.1874-1.8975-1.5413-5.8677 0.62248-6.3364-2.2895-1.8417-5.7535-10.426-2.0513-7.6558 3.2583 1.9083 1.5676 4.1586 2.6173 2.5492 5.5864 1.6542 3.7842-5.9952 0.78741-4.7992 5.2574 0.70521 3.06 7.4711 1.2537 3.555 4.9008 0.43154 2.1699 0.17319 1.8383-1.882 2.2907-1.3646 2.1732-3.5551-2.9326-6.1692-0.65215-4.4611 1.1848-2.3312 8.0225 1.7421 7.6829 3.0233-1.3056 6.0318 0.49236 3.2853 3.6528-1.7465 2.8893 1.1543 5.4376 1.6562 7.5938-1.8225 1.9776-4.9535 2.7648-6.0069 5.3723-1.2746 3.7996 3.8944 5.1081 5.8277 2.3725 1.2125-2.8293 5.0946-1.8472 3.2536 1.2472-1.0589 1.241-1.4932 3.0636-0.19935 4.3517 3.1482 3.2043 4.289-2.3727 5.9375-3.4062 3.1333 1.7424 6.4012 0.64647 9.125-1.1875 2.0882-1.8603 4.0912 3.146 6.3947-0.1723 2.5646-1.6798 0.50104-7.5856 2.199-6.9839-2.8886 4.3152 4.7682 5.1328 3.9062 0.3125 2.0747-0.39615 3.9117-3.2225 5.4688 0.125 3.1046 2.8234 4.8118-2.369 2.3125-4.375 0.08137-3.5725 4.2313-1.0459 5.875-2.5 2.9084-2.1989-4.5884-4.8059 0.03125-3.5 4.293 1.9036 4.4324-3.4652 2.9688-4 1.5449-0.26197 3.6287-1.6406 2.6875-3.4375-1.387-2.0931-4.2951-0.46044-5.9062 0.5-1.9178 1.0993 1.2029 3.6354-1.375 2.5938-0.85836-2.0648-4.7612-2.6595-4.9062-5.6562-2.3874-2.503 2.3851-1.4324 3.6562-2.8125 3.1475 0.6341 4.4667-4.2578 5.6943-2.9257 2.1895-0.40834 1.7457-3.5011 3.8973-1.903 4.4568 0.97196 4.5811-4.9321 2.0042-5.0613 3.4533-1.1788 3.2184-5.8858 6.2409-7.0749 4.3877-1.8269 1.0122-7.4585 2.7989-9.3852 0.75368-1.7893 2.5417 3.9376 5.1781 1.9575 3.4125-1.3618 4.9311-7.3307 1.4233-9.4159-3.4728-2.6033-6.9109 2.0561-7.0858 3.6402-3.2278-1.4618-3.5356 2.9787-6.6201 1.1995-2.3181-0.81379-5.2331 4.484-2.9364 0.39278 1.8318-3.4765-3.5505-9.0854-6.5782-5.7333-2.4644 1.6227 0.89715 7.4192-3.3247 4.5674-1.2786-2.1917 5.3963-6.3024 0.44899-8.2672-2.7742-1.8037-4.8252 5.6097-5.2988 0.94642-0.98372-4.0961-6.5818-2.8141-7.1249-1.4367 0.26154-2.0415-2.4663-4.319-4.0609-2.782-3.1017 1.769 1.2843 7.2558-3.8438 6.4062-2.1997 0.1187-4.1334 2.7615-2.7894-0.66223-0.103-2.725-1.357-6.615-4.647-6.6832zm38.656 1.25c-4.7019 0.10221-3.3627 8.5233 1.2179 7.0305 3.7735-1.0776 3.1634-7.7029-1.2179-7.0305zm-36.906 14.625c0.08075 1.5987-0.45367 3.1679-1.5 1.4688 0.65177-0.306 1.3213-0.70246 1.5-1.4688zm35.656 3.0625c0.1841 0.1194-0.18114 0.95722 0 0zm-24.125 10.781c0.81841 0.46919 1.2415 0.76505 0 0zm22.157 3.188c0.05766-0.04293 0.03251 0.10364 0 0zm-4.438 4.563c2.3603 1.1113 0.24342 1.5209-0.53125 0.25 0.18849-0.07015 0.29676-0.28571 0.53125-0.25zm6.5938 0.09375c-2.7476-0.10723-6.6199 2.2434-3.2503 5.1305 0.8689 3.2282 7.1209 4.0363 7.3976-0.39674 0.20429-2.3146-1.7172-4.8157-4.1472-4.7337zm-47.594 2.187c0.13777 0.0782-0.08515 0.09446 0 0zm2.812 4.281c0.68138 0.33987-0.63931 0.45844 0 0zm36.281 7c0.7498 0.41689-0.23338 0.15047 0 0z" style="opacity:.1;fill:#784421"/>
   <path id="path3700" style="opacity:.2;fill:#784421" d="m31.5 10.469c-0.51538-0.000343-0.9706 0.16559-1.4062 0.375a0.92794 0.92794 0 0 0 -0.156 0.094c-0.13436 0.10148-0.21778 0.13627-0.4375 0.125s-0.55214-0.08605-0.9375-0.1875c-0.38536-0.10144-0.81391-0.22492-1.3438-0.21875-0.52984 0.0062-1.166 0.18198-1.6562 0.625a0.92794 0.92794 0 0 0 -0.15625 0.1875c-0.42899 0.68799-0.61932 1.4624-0.375 2.125s0.78037 1.056 1.2812 1.3125c1.0018 0.5131 2.1872 0.69082 2.7188 0.875a0.92794 0.92794 0 0 0 0.093 0.03c1.2472 0.28422 1.7031 1.2681 2.4688 2.4688a0.92794 0.92794 0 0 0 0.5625 0.40625c0.71975 0.16522 1.4761 0.04796 2-0.34375 0.52389-0.3917 0.7595-0.96346 0.875-1.5 0.22331-1.0373 0.06068-2.0774-0.25-2.9062-0.008-0.02946-0.02294-0.06404-0.03125-0.09375-0.19141-0.68457-0.46607-1.4106-0.9375-2.0625-0.49189-0.68024-1.3038-1.3118-2.3125-1.3125zm12.469 0.4375a0.92794 0.92794 0 0 0 -0.531 0.219c-0.68661 0.55748-0.97198 1.3664-1 2.0625-0.02802 0.69613 0.12478 1.333 0.21875 1.875 0.09397 0.54197 0.12661 0.97259 0.0625 1.25s-0.14559 0.46795-0.625 0.71875a0.92794 0.92794 0 0 0 -0.094 0.063c-0.70234 0.50961-1.7144 0.5765-2.9375 0.71875s-2.7432 0.44159-3.75 1.8125c-0.29567 0.40433-0.45183 0.44788-0.65625 0.46875s-0.54597-0.05727-0.96875-0.21875-0.89386-0.3872-1.4688-0.53125c-0.57489-0.14405-1.3429-0.15624-2 0.25a0.92794 0.92794 0 0 0 -0.219 1.375c0.89807 1.0972 2.1852 1.5862 3.0625 2.1875 0.43866 0.30067 0.77068 0.58592 0.96875 0.90625s0.27801 0.67636 0.21875 1.25a0.92794 0.92794 0 0 0 0.03125 0.21875c0.15703 1.0503-0.29571 2.0648-0.875 3.25s-1.2908 2.5484-1.0625 4.2188a0.92794 0.92794 0 0 0 0 0.125c0.32308 1.1919 1.0516 2.1685 1.375 2.9688 0.16168 0.40014 0.2145 0.71917 0.1875 0.9375-0.02184 0.17659-0.14142 0.35875-0.34375 0.5625-0.09171 0.0168-0.17417 0.02524-0.40625-0.03125-0.32096-0.07813-0.78072-0.27484-1.375-0.5625-1.4668-0.71008-3.41-1.1835-5.25-1.25l-2.125-0.0625-0.46875-1.375c-0.57318-1.658-1.7242-2.7795-3.0625-3.0312-0.66915-0.12589-1.3842-0.000301-1.9688 0.40625-0.58451 0.40655-1.0189 1.0786-1.2188 1.875-0.22684 0.90382-0.22851 1.7625 0.15625 2.5 0.38476 0.73751 1.133 1.1965 1.9688 1.4062 0.43541 0.10928 0.75187 0.41888 0.96875 1s0.28392 1.387 0.03125 2.2188c-0.31571 1.0392-0.42791 2.0328-0.25 2.875 0.08895 0.42112 0.26097 0.8158 0.5625 1.1562 0.06571 0.07419 0.19949 0.06138 0.28125 0.125-0.07565 0.02315-0.10113 0.0405-0.1875 0.0625-0.7259 0.18487-1.8158 0.30431-3.0938 0.34375-0.66588 0.02055-1.1692 0.11114-1.625 0.3125-0.22792 0.10068-0.46227 0.23543-0.65625 0.5s-0.28523 0.69646-0.1875 1.0312c0.19546 0.66958 0.6359 0.86171 1.0938 1.0625 0.45785 0.20079 1.0312 0.34362 1.7188 0.4375 1.0516 0.14358 1.7694 0.36111 2.0312 0.5 0.05237 0.02778 0.02202-0.0083 0.03125 0-0.05889 0.29488-0.18678 0.59919-0.09375 0.84375 0.08543 0.22457 0.27732 0.39338 0.4375 0.5625-0.08322 0.0956-0.11953 0.15588-0.4375 0.4375-0.3528 0.31247-0.62635 0.5856-0.84375 0.875s-0.40556 0.54928-0.4375 1.0312c-0.01597 0.24099 0.05741 0.59328 0.28125 0.84375s0.4978 0.34696 0.71875 0.375c0.21513 0.0273 0.38678-0.05814 0.5625-0.09375 0.0032 0.21375 0.0058 0.42401 0.0625 0.65625 0.03915 0.16049 0.08711 0.33256 0.25 0.53125s0.46374 0.36527 0.71875 0.40625c0.4495 0.07223 0.68383-0.05561 0.9375-0.1875-0.79983 0.68769-1.5652 1.4347-2.3125 1.9375-0.08011 0.05389-0.14137 0.07699-0.21875 0.125 0.000473-0.04194 0.03125-0.08332 0.03125-0.125 0-0.54129-0.04174-1.1146-0.5-1.5938-0.45826-0.47915-1.0422-0.53125-1.5938-0.53125-0.55156 0-1.1273 0.06481-1.5938 0.53125-0.35668 0.35669-0.37383 0.79141-0.40625 1.2188-0.35355-0.1706-0.72846-0.29579-1.125-0.375-0.24204-0.57797-0.59855-1.068-1.0938-1.4375-0.68784-0.51326-1.6269-0.81144-2.5625-0.53125-1.0566 0.31642-1.8851 0.6984-2.375 1.4688-0.48993 0.77035-0.34589 1.7723 0.09375 2.5938 0.22173 0.41431 0.49749 0.7774 0.8125 1.0938 0.31501 0.31635 0.63587 0.6145 1.1562 0.75 0.63166 0.16447 1.187 0.08068 1.8125 0 0.31277-0.04034 0.60235-0.08472 0.875-0.15625 0.26486-0.06949 0.47236-0.07903 0.84375-0.4375h0.03125c0.72948 0.31703 1.4919 0.64536 2.0312 0.96875 0.38866 0.23304 0.64975 0.47381 0.78125 0.71875 0.12764 0.23776 0.1775 0.5221 0.0625 1.0312-0.0035 0.01537 0.0038 0.01543 0 0.03125-0.32572 0.8432-0.89332 1.8182-1.2812 2.9375-0.39985 1.1537-0.59167 2.5313 0.0625 3.875a0.92794 0.92794 0 0 0 0.22 0.28c0.65086 0.57997 1.3101 1.4845 1.5312 2.2188 0.2211 0.73424 0.22806 1.1741-0.59375 1.75a0.92794 0.92794 0 0 0 -0.09375 0.0625c-1.404 1.3162-3.0729 2.3622-4.7188 3.5938a0.92794 0.92794 0 0 0 -0.15625 0.15625c-0.52384 0.62925-0.79615 1.3464-0.6875 2.0312 0.10865 0.68488 0.59992 1.2009 1.1562 1.4375 1.0516 0.44727 2.4231-0.01155 3.125-1.2188l0.03125 0.03125c0.60487-0.72543 1.4555-1.4873 2.25-1.8438 0.79447-0.35641 1.3687-0.40019 2.0625 0.15625a0.92794 0.92794 0 0 0 0.03125 0c0.85276 0.66314 1.0483 1.5037 0.9375 2.5312-0.11082 1.0275-0.62855 2.1622-1.2188 2.9688a0.92794 0.92794 0 0 0 -0.094 0.906c0.16396 0.39721 0.30012 0.72614 0.53125 1s0.62667 0.55778 1.0938 0.5625c0.46708 0.0047 0.79077-0.25111 1-0.46875s0.34406-0.45187 0.46875-0.6875c0.24938-0.47126 0.44664-0.99904 0.625-1.4688 0.17836-0.46971 0.37391-0.90048 0.4375-1a0.92794 0.92794 0 0 0 0 -0.03125c0.22965-0.37601 0.44056-0.50151 0.6875-0.59375s0.57115-0.1161 0.96875-0.0625c0.78689 0.10608 1.7756 0.51952 2.7188 0.8125 0.01 0.0031 0.0213-0.0031 0.03125 0 0.74663 0.24852 1.5047 0.20695 2.125 0 0.62947-0.21 1.1537-0.55331 1.625-0.875 0.9426-0.64338 1.6574-1.1397 2.3438-1.125a0.92794 0.92794 0 0 0 0.1875 -0.03125c0.80788-0.13646 1.4063-0.68961 1.7188-1.25 0.12683-0.22745 0.16884-0.43309 0.25-0.65625 0.06468 0.21615 0.08451 0.45381 0.1875 0.6875 0.09325 0.21161 0.16222 0.42298 0.21875 0.59375s0.0625 0.43735 0.0625 0.15625c0 0.39254 0.16793 0.59379 0.3125 0.78125s0.29538 0.35268 0.5625 0.46875c0.3805 0.16532 0.92843 0.30278 1.4375 0.09375 0.50907-0.20904 0.77085-0.55552 1.0938-0.96875 0.81952-1.0488 1.2079-2.4675 1.0312-3.8125-0.05646-0.42992-0.26422-0.854-0.59375-1.125-0.2066-0.16991-0.45408-0.18983-0.6875-0.25 0.46673-0.26978 0.94797-0.41898 1.375-0.78125 0.70442-0.59761 1.2334-1.4213 1.5938-2.3438 0.34191 0.16952 0.66341 0.32019 1 0.5 0.30504 0.16296 0.60177 0.30121 0.9375 0.40625 0.27978 0.08754 0.70942 0.11351 1.125-0.09375 0.04996 0.04433 0.14581 0.09876 0.28125 0.25 0.08361 0.09337 0.1589 0.20554 0.34375 0.34375 0.09243 0.06911 0.21134 0.17345 0.46875 0.21875 0.2574 0.0453 0.67132-0.08499 0.875-0.28125 0.40735-0.39252 0.32264-0.61584 0.34375-0.84375 0.0057-0.06127-0.0027-0.15336 0-0.21875 0.5957-0.38496 1.416-0.53471 2.2812-0.3125 0.98732 0.25357 1.879 0.88996 2.2188 1.7188a0.92794 0.92794 0 0 0 0.1875 0.3125c0.19121 0.18403 0.2728 0.27915 0.5625 0.4375 0.07243 0.03959 0.14636 0.10197 0.375 0.125s0.72336-0.12249 0.90625-0.4375 0.13998-0.51359 0.125-0.625c-0.01497-0.11141-0.01271-0.1651-0.03125-0.21875-0.1483-0.42922-0.33891-0.65978-0.5625-1.0625s-0.4689-0.86352-0.625-1.25-0.13752-0.73226-0.1875-0.5625a0.92794 0.92794 0 0 0 0.0625 -0.28125c-0.02257-1.0325 0.52989-1.855 1.375-2.4062 0.84511-0.5513 1.9426-0.7403 2.7812-0.46875a0.92794 0.92794 0 0 0 0.09375 0.03125c0.43395 0.09058 0.70909 0.15925 0.9375 0.1875 0.11421 0.01412 0.13199 0.08682 0.53125-0.03125 0.09982-0.02952 0.23387-0.09707 0.40625-0.28125s0.28467-0.5457 0.25-0.78125c-0.06935-0.4711-0.23935-0.4969-0.3125-0.5625-0.29261-0.26239-0.36944-0.23989-0.5625-0.34375s-0.41082-0.23238-0.65625-0.375c-0.49087-0.28524-1.0311-0.65522-1.3438-1-0.31261-0.34478-0.38041-0.50953-0.3125-0.71875a0.92794 0.92794 0 0 0 0.061 -0.281c-0.001-0.384 0.39-1.106 0.656-1.969 0.13286-0.4314 0.23536-1.0521-0.125-1.625-0.30378-0.48292-0.82995-0.68219-1.4062-0.8125-1.436-0.784-2.749-2.308-2.781-3.469a0.92794 0.92794 0 0 0 -0.875 -0.90625c0.12028-0.65886 0.20589-1.3048 0-1.875-0.153-0.423-0.459-0.757-0.813-1.032 0.01115-0.04143 0.01942-0.08319 0.03125-0.125 0.77585 0.13969 1.5749 0.31807 2.375 0.28125 1.1257-0.0518 2.1451-0.21032 2.9688-0.75 0.40204-0.26343 0.76736-0.30839 1-0.25 0.20223 0.05076 0.37202 0.07986 0.59375 0.09375s0.53985-0.0065 0.84375-0.21875c0.3039-0.21227 0.44942-0.52184 0.5-0.75s0.0625-0.4243 0.0625-0.625c0-0.32543 0.08115-0.48426 0.15625-0.5625s0.17605-0.125 0.46875-0.125c0.30249 0.000001 0.59271-0.03681 0.875-0.125s0.58685-0.15878 0.875-0.625c-0.16239 0.26275-0.16595 0.15018-0.09375 0.125s0.20172-0.03125 0.3125-0.03125c0.85044 0.000002 1.5555-0.384 1.9688-1.1562 0.12659-0.23653 0.2248-0.4145 0.3125-0.65625 0.04385-0.12087-0.03465-0.36576-0.03125-0.5625 0.02362 0.001 0.03874 0.03125 0.0625 0.03125 0.45358-0.000002 0.81566-0.13441 1.125-0.40625 0.16167 0.34828 0.48939 0.55078 0.71875 0.625 0.45872 0.14843 0.77649 0.1048 1.2812 0.0625 0.43883-0.03678 0.85502-0.13846 1.2188-0.28125 0.18186-0.0714 0.35924-0.1594 0.53125-0.28125s0.37684-0.28161 0.5-0.65625c0.05797-0.17638 0.10262-0.4177 0.03125-0.6875s-0.27736-0.4947-0.46875-0.625c-0.38278-0.2606-0.68444-0.27634-1-0.28125-0.22319-0.0034-0.3915 0.01168-0.625 0.03125-0.43998 0.03688-0.85921 0.13577-1.2188 0.28125-0.21044 0.08515-0.42502 0.19989-0.625 0.375-0.1-0.17-0.193-0.359-0.312-0.437-0.358-0.235-0.644-0.25-0.938-0.25 0.01154 0-0.14227-0.02639-0.4375 0.03125-0.2289 0.0447-0.43388 0.12526-0.65625 0.28125-0.22237 0.15598-0.53125 0.45152-0.53125 0.9375 0 0.02734 0.02938 0.03581 0.03125 0.0625-0.134-0.017-0.247-0.047-0.406-0.062-0.43289-0.042-0.49214-0.11228-0.375 0s0.06373 0.12794 0.03125-0.28125c-0.01569-0.19762-0.0084-0.41823 0.03125-0.5625 0.03963-0.14427 0.12223-0.20051 0.03125-0.125 0.27608-0.22913 0.32412-0.59351 0.46875-0.90625 0.33628 0.09139 0.59852 0.07855 0.8125 0 0.47734-0.17523 0.8915-0.51824 1.0938-1.125 0.0023-0.0068-0.0023-0.02414 0-0.03125 0.0105 0.0025 0.02061-0.0024 0.03125 0 0.35468 0.08142 0.76951 0.14889 1.2188 0.1875 0.66473 0.05713 1.2513 0.0349 1.8125-0.15625 0.56116-0.19115 1.0044-0.52523 1.5625-0.96875 0.90822-0.72176 1.8352-1.9286 2.375-3.0938 0.22857-0.49335 0.4161-0.93393 0.5625-1.2812 0.0732-0.17366 0.14278-0.31929 0.1875-0.4375 0.02236-0.05911 0.04377-0.09655 0.0625-0.15625 0.0094-0.02985 0.01929-0.07029 0.03125-0.125 0.006-0.02735 0.0255-0.06647 0.03125-0.125 0.0029-0.02927 0.0013-0.07269 0-0.125-0.0011-0.04499-0.02432-0.14964-0.03125-0.1875 0.49037-0.02418 0.87972-0.18058 1.2812-0.40625 0.43105-0.24226 0.84867-0.559 1.25-0.9375 0.58891-0.55541 1.068-0.98661 1.3125-1.6562 0.24446-0.66964 0.21698-1.3346 0.1875-2.4062-0.02656-0.96556-0.06299-1.5924-0.25-2.1875-0.18701-0.59506-0.57851-1.0749-1-1.4688-1.3597-1.2704-2.9533-2.1246-4.4688-1.9688-0.41471 0.04265-0.92755 0.06017-1.25 0.09375-0.44061 0.04591-0.62559 0.25387-0.78125 0.40625s-0.28898 0.32496-0.40625 0.5c-0.23454 0.35007-0.4236 0.76782-0.625 1.2188-0.39302 0.87996-0.73341 1.7817-0.75 2.6562-0.04564 0.0082 0.06776-0.03125-0.09375-0.03125 0.01176-0.18459 0.0197-0.3652 0-0.5625-0.02298-0.23018-0.11413-0.54081-0.375-0.8125s-0.60038-0.35397-0.84375-0.375c-0.17399-0.01504-0.31253 0.01657-0.46875 0.03125-0.0073-0.02841 0.0084-0.06595 0-0.09375 0.1674-0.05797 0.33401-0.0061 0.5-0.09375a0.92794 0.92794 0 0 0 0.5 -0.90625c-0.068-0.612-0.421-1.105-0.845-1.469 0.021-0.01 0.042-0.02 0.063-0.031 1.0774-0.56709 1.7611-1.5868 1.75-2.6875-0.01113-1.1007-0.61093-2.131-1.5938-3.0312-0.43606-0.39942-0.777-0.6819-1.0938-0.90625-0.31675-0.22435-0.59323-0.48259-1.2188-0.40625-0.39714 0.04846-0.75869 0.41376-0.875 0.6875-0.02424 0.0017-0.03724-0.0032-0.0625 0-0.28298 0.0361-0.61225 0.21924-0.78125 0.4375-0.338 0.43653-0.31043 0.79932-0.3125 1.1562-0.0019 0.32397-0.09227 1.0117-0.15625 1.25-0.24555 0.91455 0.19285 1.7831 0.875 2.5938 0.1393 0.16555 0.3105 0.20114 0.4375 0.34375-0.41107 0.03229-0.84392 0.06968-1.2188 0.09375-0.73949 0.04749-1.3558-0.03686-1.5938-0.15625a0.92794 0.92794 0 0 0 -0.343 -0.094c-0.83812-0.06422-1.8911-0.5471-2.4688-1.1875-0.57765-0.6404-0.75412-1.2126-0.25-2.0625 0.07882-0.13432 0.39926-0.55797 0.78125-1s0.82736-0.94606 1.1875-1.4688c0.36014-0.52269 0.72285-1.0218 0.65625-1.8125-0.0333-0.39535-0.28316-0.84036-0.625-1.0938-0.34184-0.25338-0.70138-0.3542-1.125-0.40625a0.92794 0.92794 0 0 0 -0.6875 0.1875c-1.0159 0.78775-1.6882 1.7721-2.375 2.5-0.687 0.727-1.297 1.165-2.281 1.218a0.92794 0.92794 0 0 0 -0.312 0.094c-1.9728 0.88483-4.1826 0.66241-5.4688-1.0938a0.92794 0.92794 0 0 0 -0.25 -0.21875c-0.788-0.519-0.883-1.106-0.969-2.093-0.08135-0.93644-0.04223-2.1488-0.625-3.3125-0.03148-0.06286-0.02703-0.12489-0.0625-0.1875l-0.09375 0.0625c-0.18009-0.29876-0.44083-0.62875-0.6875-0.6875-0.29723-0.07079-0.42796-0.03818-0.375-0.03125a0.92794 0.92794 0 0 0 -0.1875 -0.03125zm26.25 0.8125c-0.83772 0.05689-1.6958 0.62883-1.9375 1.4375-0.24174 0.80867-0.06301 1.6187 0.3125 2.5625 0.33595 0.84437 1.2356 1.1872 1.9688 1.1562 0.73314-0.03092 1.4947-0.38728 1.9062-1.1562 0.36974-0.69084 0.42764-1.398 0.34375-2.125-0.05016-0.43464-0.14277-0.9354-0.53125-1.3125s-0.86867-0.44911-1.3125-0.5c-0.22479-0.02577-0.45873-0.08227-0.75-0.0625zm-20.25 0.875c-0.66868 0.0051-1.2881 0.35063-1.7812 0.84375-0.8159 0.8159-1.0006 1.9597-0.65625 2.875 0.34438 0.91528 1.4112 1.6249 2.5312 1.3438-0.13805 0.03465 0.41678 0.04604 0.5625 0.125 0.48629 0.2635 0.86877 0.45661 1.4062 0.46875 0.26874 0.0061 0.58881-0.05995 0.84375-0.25s0.41495-0.43461 0.5-0.65625c0.23168-0.60375 0.13914-1.2412-0.09375-1.8125-0.23289-0.57126-0.62413-1.1331-1.125-1.6875-0.63657-0.70461-1.3075-1.2567-2.1875-1.25zm32.594 5.6875c-0.57762 0.03326-1.1929 0.15674-1.75 0.59375-0.98083 0.7694-1.1708 2.0015-1.0938 3.2188 0.07706 1.2173 0.47084 2.4984 1.2812 3.4688 0.44137 0.52845 1.0465 0.86476 1.6875 0.90625 0.64103 0.04149 1.2647-0.18298 1.75-0.5625 0.97058-0.75903 1.5938-2.0607 1.8125-3.6562 0.08974-0.65474 0.14843-1.1616 0.03125-1.6875-0.118-0.524-0.43-0.959-0.782-1.311-0.796-0.796-1.911-1.028-2.938-0.969zm-54.001 3.72c-0.25965-0.01008-0.53159-0.01154-0.8125 0.03125s-0.6666 0.06393-1 0.5625c-0.28577 0.42735-0.47786 0.82486-0.5625 1.25s-0.01258 0.90864 0.1875 1.25c0.40016 0.68272 0.94971 0.8758 1.3438 1.1875 0.49833 0.39419 1.1112 0.52451 1.625 0.46875 0.51378-0.05576 0.95267-0.24742 1.3125-0.4375s0.65349-0.37852 0.84375-0.5c0.05876-0.03751 0.06714-0.04711 0.09375-0.0625 0.01648-0.0095 0.0688-0.03417 0.0625-0.03125a0.92794 0.92794 0 0 0 0.532 -1.344c-0.669-1.117-1.316-1.684-2.157-2.094-0.27-0.131-0.448-0.145-0.687-0.187s-0.507-0.083-0.782-0.094zm48.344 0.1875c-0.63526 0-1.285 0.379-1.5312 0.96875-0.24628 0.58975-0.04371 1.3 0.40625 1.75 0.44042 0.44042 1.2288 0.51833 1.7188 0.25 0.48991-0.26833 0.76981-0.7389 0.875-1.2812 0.06708-0.34592 0.04776-0.88047-0.3125-1.25s-0.79942-0.4375-1.1562-0.4375zm-47.062 5.2188c-0.553 0.089-1.047 0.632-1.156 1.093-0.10974 0.46058-0.05432 0.81395 0.03125 1.1562 0.08484 0.33936 0.15266 0.59249 0.34375 0.875s0.73098 0.58608 1.125 0.53125 0.54111-0.20507 0.65625-0.28125 0.19068-0.11234 0.21875-0.125c0.21447-0.09674 0.41952-0.16368 0.65625-0.40625 0.23673-0.24258 0.37162-0.77247 0.3125-1.0625-0.11824-0.58006-0.31684-0.6866-0.5-1.125a0.92794 0.92794 0 0 0 -0.5625 -0.53125c-0.36327-0.11485-0.69568-0.19496-1.125-0.125zm13.312 9.9062c0.4789-0.04357 1.0724 0.31266 1.9062 0.875 0.41694 0.28117 0.86547 0.58618 1.4375 0.78125 0.0817 0.02786 0.19466-0.02182 0.28125 0-0.01705 0.05535-0.0786 0.09986-0.09375 0.15625-0.09666 0.35977-0.17044 0.72299-0.125 1.125 0.05591 0.49469-0.03312 0.83464-0.09375 0.9375s0.04757 0.04341-0.0625 0.03125c-0.0647-0.0072-0.12487 0.0019-0.1875 0-0.342-0.139-0.817-0.378-1.406-0.844-0.565-0.448-1.198-0.833-1.812-1.125-0.60455-0.28681-1.1312-0.52436-1.75-0.53125 0.33697-0.51746 0.73319-0.96442 1.375-1.25a0.92794 0.92794 0 0 0 0.0625 -0.03125c0.19846-0.10424 0.32046-0.11151 0.46875-0.125zm19.438 1.0938c-0.18901-0.06655-0.07615-0.08816 0.1875 0.34375 0.12765 0.20912 0.20523 0.45375 0.25 0.59375 0.02239 0.07 0.03259 0.10908 0.03125 0.09375-0.0013-0.01533-0.03165-0.12153 0.125-0.375-0.12893 0.20861-0.21822 0.52606-0.15625 0.8125 0.04389 0.20286 0.16963 0.3414 0.28125 0.46875-0.0129 0.0129-0.01804 0.04942-0.03125 0.0625-0.11091-0.07995-0.18625-0.20156-0.3125-0.25 0.32712 0.12553 0.01223 0.01357-0.15625-0.21875s-0.35137-0.55203-0.5-0.875l-0.219-0.469 0.094-0.032a0.92794 0.92794 0 0 0 0.03125 0c0.47681-0.16399 0.56401-0.0897 0.375-0.15625zm6.6562 9.625c-0.01534-0.000349-0.18285-0.01223-0.4375 0.03125-0.26336 0.04496-0.40262 0.09963-0.46875 0.125-0.47606 0.18268-0.5663 0.51926-0.6875 0.8125-0.0331-0.02925-0.05972-0.06551-0.09375-0.09375-0.09415-0.07814-0.1622-0.13255-0.28125-0.21875s-0.35418-0.28318-0.8125-0.21875c-0.22234 0.03126-0.48426 0.14849-0.625 0.3125s-0.18902 0.32767-0.21875 0.4375c-0.05946 0.21966-0.0625 0.34009-0.0625 0.46875 0.000002 0.2086 0.04156 0.40839 0.09375 0.625s0.07983 0.45481 0.375 0.75c0.35118 0.35118 0.79172 0.52822 1.2812 0.46875 0.02072-0.0025 0.04145-0.02772 0.0625-0.03125 0.03397 0.43343-0.0306 0.87578 0.125 1.2812 0.17998 0.46903 0.58275 0.75322 0.96875 0.90625 0.386 0.15304 0.80195 0.21875 1.25 0.21875 0.51626 0.000001 0.97782-0.04777 1.4375-0.3125s0.74555-0.70232 0.90625-1.125c0.39585-1.0412 0.12535-2.1255-0.40625-2.9375-0.5316-0.81201-1.3584-1.4756-2.4062-1.5zm-20.562 2c0.42723 0.31362 0.85693 0.62604 1.3438 0.875-0.0046 0.01225-0.02665 0.0191-0.03125 0.03125-0.29725-0.007-0.57574-0.06228-0.90625-0.03125-0.52458 0.04925-0.57007 0.01319-0.6875 0 0.15382-0.2567 0.2153-0.57281 0.28125-0.875zm-25.188 3.75c0 0.20423 0.23817 0.31006 0.34375 0.5-0.04959-0.0277-0.07902 0.01274-0.125-0.03125-0.223-0.214-0.219-0.439-0.219-0.47zm41.281 3.2812c-0.97986 0.08438-2.0655 0.55211-2.75 0.875-0.17112 0.08072-0.27664 0.13849-0.4375 0.25-0.04021 0.02788-0.09477 0.03584-0.15625 0.09375s-0.1537 0.12892-0.25 0.40625c-0.02408 0.06933-0.05698 0.14619-0.0625 0.25-0.0028 0.0519-0.0073 0.12926 0 0.1875s0.0623 0.15565 0.0625 0.15625c0.000198 0.000602 0.06218 0.18694 0.0625 0.1875 0.000317 0.000558 0.05753 0.08245 0.09375 0.125 0.07244 0.0851 0.14982 0.14451 0.21875 0.1875 0.27573 0.17196 0.40931 0.15378 0.5 0.15625 0.36277 0.0099 0.42549-0.02909 0.65625-0.09375 0.22384-0.06272 0.52894-0.18388 0.90625-0.3125 0.0083-0.0028 0.0229 0.0028 0.03125 0 0.53144-0.17944 1.1234-0.38557 1.6875-0.71875a0.92794 0.92794 0 0 0 -0.5625 -1.75zm-5.406 4.093c-0.32749-0.000003-0.51911 0.08162-0.5625 0.09375-0.22122 0.06201-0.52945 0.37628-0.59375 0.5a0.92794 0.92794 0 0 0 0.5625 1.3438c0.24392 0.07029 0.36934 0.0625 0.59375 0.0625 0.14141 0.000001 0.25576-0.01447 0.375-0.03125 0.45278 0.22699 0.90193 0.2957 1.4062 0.375 0.50432 0.0793 1.0132 0.10775 1.4375 0.125 0.21213 0.0086 0.38236 0.01416 0.5625 0 0.09007-0.0071 0.18894-0.01539 0.34375-0.0625 0.0774-0.02356 0.17523-0.01913 0.34375-0.15625s0.392-0.57266 0.3125-0.9375-0.24607-0.48802-0.34375-0.5625-0.16064-0.12961-0.21875-0.15625c-0.11622-0.05328-0.20613-0.06346-0.3125-0.09375-0.21274-0.06058-0.50274-0.11764-0.875-0.1875a0.92794 0.92794 0 0 0 -0.125 -0.03125c-0.769-0.028-1.436 0.034-1.97-0.063a0.92794 0.92794 0 0 0 -0.25 0c-0.055-0.033-0.074-0.111-0.124-0.125-0.044-0.012-0.236-0.094-0.563-0.094zm-0.937 0.344a0.92794 0.92794 0 0 0 -0.188 0.188c-0.014 0.012 0.097-0.083 0.188-0.188zm-13.157 11.688c-0.06655 0.0076-0.24925 0.06221-0.25 0.0625-0.31067 0.1225-0.47018 0.41152-0.53125 0.5625s-0.08702 0.24216-0.09375 0.3125c-0.01347 0.14068-0.0032 0.19787 0 0.28125 0.0024 0.06351 0.02259 0.11729 0.03125 0.1875 0.0014 0.01143-0.0017 0.01919 0 0.03125-0.23718 0.31938-0.47601 0.6282-0.5625 0.9375-0.05704 0.204-0.09313 0.39644-0.09375 0.59375-0.000625 0.19731-0.0083 0.39691 0.15625 0.6875 0.08226 0.1453 0.25306 0.32673 0.53125 0.4375 0.27818 0.11077 0.61123 0.07262 0.8125-0.03125 0.40253-0.20774 0.4713-0.42719 0.5625-0.625 0.18239-0.39563 0.30081-0.8701 0.375-1.5938a0.92794 0.92794 0 0 0 0 -0.0625 0.92794 0.92794 0 0 0 0 -0.03125c0.01207-0.03301 0.08303-0.09635 0.09375-0.125 0.05827-0.15578 0.09068-0.30258 0.09375-0.5 0.0031-0.19742 0.008-0.47178-0.28125-0.78125-0.12982-0.139-0.18627-0.16897-0.28125-0.21875-0.04749-0.02489-0.12192-0.06642-0.21875-0.09375-0.04841-0.01366-0.09556-0.02541-0.1875-0.03125-0.04597-0.0029-0.0897-0.0076-0.15625 0z"/>
   <path id="path2617" d="m29.437 53.561c-1.9736 0.59516-4.3173 0.10754-5.7182 2.1487-1.7846 1.4257-3.7141 3.9344-6.1948 2.9906-1.0572-0.50488-4.4763-2.7273-3.3878 0.03206 1.5586 0.93254 4.8985 1.3 4.2142 4.1451-0.7198 1.9313-2.3186 4.0655-1.2806 6.1976 1.4993 1.336 3.0349 3.8374 0.83391 5.3798-1.4883 1.3952-3.1818 2.4625-4.7875 3.664-1.6468 1.9781 1.2812 3.0546 2.2113 1.0984 1.3375-1.6041 3.6593-3.3597 5.5991-1.804 2.2418 1.7433 1.2648 4.9164-0.08934 6.7669 1.1395 2.7607 1.8763-1.1598 2.539-2.1968 1.2832-2.101 3.7289-0.80511 5.4576-0.2726 2.2466 0.77457 3.6733-2.0995 5.8671-2.0525 2.0845-0.35208 0.93466-4.208 3.5367-4.2012 2.1506-0.84971 4.8815-2.3962 4.6684-5.2916-0.30164-2.8393-2.6843-4.8429-2.8293-7.753 0.14089-2.313-0.4607-5.359-3.2686-4.6502-2.617-0.122-5.342-1.091-6.595-3.751l-0.34994-0.26458-0.42441-0.1844zm10.573 22.497c-0.05968-0.0028-0.12285 0.0024-0.18614 0.008-0.65103 0.05824-1.4712 0.55798-1.9805 1.3951-0.3575 0.58751-0.36189 0.71104-0.0074 1.5153 0.21155 0.48008 0.38717 0.98719 0.38717 1.1305 0 0.14332 0.13402 0.32169 0.29782 0.39287 0.60278 0.2619 0.86521 0.15099 1.4593-0.60935 0.63201-0.80881 0.96413-2.0545 0.82646-3.1028-0.06257-0.47642-0.37897-0.70992-0.79668-0.72959z" style="fill:url(#linearGradient8398)"/>
   <path id="path3779" d="m14.226 57.392c-0.33058 0.09374-0.42811 0.47889-0.08795 1.3412 1.2595 0.75354 3.677 1.1493 4.1995 2.7704 0.0056-0.01466 0.01653-0.02933 0.02199-0.04397 0.66712-2.774-2.4866-3.1841-4.0896-4.0676-0.0138 0.0028-0.03088-0.0037-0.04397 0zm2.5725 9.4764c-0.12847 0.73262-0.09676 1.458 0.26384 2.1987 0.77698 0.69236 1.5536 1.7037 1.8249 2.7264 0.46563-1.4268-0.68827-3.1207-1.8249-4.1336-0.12975-0.26652-0.20963-0.52535-0.26384-0.79153zm26.055 2.9243c-0.40934 2.2473-2.7355 3.522-4.6173 4.2655-2.602-0.0067-1.4555 3.8474-3.5399 4.1995-2.1938-0.04697-3.6239 2.8194-5.8705 2.0448-1.728-0.532-4.169-1.837-5.452 0.264-0.57492 0.89977-1.2095 3.9747-2.1108 2.9682-0.13279 0.22495-0.27285 0.43961-0.41775 0.63762 1.1395 2.7607 1.8659-1.1617 2.5285-2.1987 1.2832-2.101 3.7241-0.79635 5.4528-0.26385 2.2466 0.77458 3.6767-2.0918 5.8705-2.0448 2.0845-0.35208 0.9379-4.2062 3.5399-4.1995 0.04111-0.01624 0.09041-0.02722 0.13192-0.04398 0.46021-0.44704 0.99012-0.7283 1.4511-0.76954 0.04219-0.0038 0.09083 0.0011 0.13192 0 1.6482-0.92943 3.1047-2.3323 2.9463-4.4854-0.013-0.125-0.023-0.251-0.044-0.373zm-23.438 5.607c-1.5341-0.08735-3.0865 1.2155-4.0896 2.4186-0.57091 1.2007-1.8842 1.2292-2.4406 0.63762-1.071 1.7576 1.5645 2.612 2.4406 0.76954 1.3375-1.6041 3.6669-3.3586 5.6067-1.8029 0.76095 0.59175 1.1449 1.3411 1.2752 2.1547 0.1962-1.3164-0.08804-2.6387-1.2752-3.5619-0.48494-0.38892-1.0058-0.58652-1.5171-0.61563zm21.349 1.2313c-0.1212 0.68467-0.40051 1.3465-0.79153 1.8469-0.59414 0.76034-0.84836 0.87753-1.4511 0.61563-0.16381-0.07117-0.30782-0.25244-0.30782-0.39576 0-0.14331-0.16223-0.64127-0.37378-1.1213-0.01133-0.0257-0.01139-0.0416-0.02199-0.06596-0.32718 0.5452-0.32216 0.69223 0.02199 1.4731 0.21155 0.48008 0.37378 0.97803 0.37378 1.1213 0.000001 0.14333 0.14401 0.3246 0.30782 0.39577 0.60278 0.2619 0.85701 0.1447 1.4511-0.61563 0.63201-0.80881 0.97317-2.0519 0.83551-3.1002-0.0078-0.05955-0.02852-0.1019-0.04397-0.15391z" style="opacity:.3"/>
   <path id="path2639" d="m52.88 45.739c-1.6515 2.3369-1.2266 6.1053-3.5839 7.8274-1.7017 1.0907-3.7198-2.3262-3.7158 0.30782-2.1049 1.0253-4.3573-1.4227-6.3982 0.35179-1.5927 1.3523-2.8379-2.0887-2.6824 0.54968-1.7132 1.5148-1.6822 4.0498-3.1661 5.6067-2.7523 1.5101-5.9798 0.30391-8.9267 0.76954 1.9431 1.2329 4.3524-0.25736 6.3982 0.83551 2.1588 1.0756 3.5915 3.4187 4.4414 5.7166 1.1056 2.4938-1.985 4.3372-1.9568 6.2883 1.2161-1.8848 2.0298-4.8715 4.6393-4.7492 1.1007 1.1625 1.8112 2.8233 3.43 1.5611 1.7436-0.67419 4.1587 1.8751 4.7712 1.3632 1.0785-0.89111 1.8272 2.1904 1.737-0.28584 1.7541-1.5916 5.3126-0.69971 6.2663 1.627 1.3942 1.3418-1.2975-2.0669-0.96743-3.1881-0.06055-2.77 3.0499-4.5533 5.3648-3.8038 3.4198 0.71387-2.8807-0.88201-2.1108-3.2541-0.0028-1.5605 1.9945-3.2427-0.37378-3.6059-1.6316-0.89106-3.2497-2.5239-3.2981-4.2435-2.9818 0.05973-1.7866-4.3805-0.92346-6.2223 0.37945-1.1095 1.0238-2.2984 1.0554-3.452zm-18.271 3.7598c-0.30458 0-0.16914 0.3553 0.48372 1.4072 0.70384 1.134 0.84143 1.2689 0.59365 0.57166-0.33073-0.93058-0.90988-1.9788-1.0774-1.9788zm30.254 8.509c-1.3772 0.1186-4.5925 1.7115-1.5171 0.65961 0.51792-0.17436 1.0407-0.37826 1.5171-0.65961zm-5.4968 4.0896c-0.11131 0-0.22337 0.02037-0.30782 0.04397-0.16888 0.04722-0.02995 0.08795 0.30782 0.08795 0.33777 0.000001 0.47671-0.04073 0.30782-0.08795-0.08445-0.0236-0.19651-0.04397-0.30782-0.04397zm0.79154 0.1759c0.94844 0.47547 4.9441 0.64575 2.0888 0.10994-0.69698-0.0245-1.3978 0.01549-2.0888-0.10994zm-28.957 9.5424-0.87948 0.8575c-0.12335-0.3725-0.61394-0.31019-0.83551-0.06596-0.84892 0.661-1.4132 1.6261-2.2647 2.2866-0.27491 0.26684-0.07328 0.69427 0.1759 0.90147 0.35537 0.34373 0.78103 0.6217 1.2533 0.76954 0.46733 0.02198 0.68394-0.47356 0.83551-0.8355 0.18748-0.48268 0.35651-0.97247 0.54968-1.4512 0.07011-0.48736 0.08423-0.99848 0.35179-1.4292 0.21217-0.3881 0.50356-0.72059 0.81352-1.0334zm14.182 2.3086c-0.03591 0.01416-0.04969 0.11544-0.04397 0.26385 0.0084 0.21867 0.05393 0.25967 0.10994 0.10993 0.05068-0.13552 0.03632-0.28941-0.02199-0.35179-0.01458-0.0156-0.032-0.02669-0.04397-0.02199zm-0.08795 0.81352c-1.1167 1.1777-0.27344 2.6672 0 0zm3.0782 0.30782c-0.0359 0.01416-0.04969 0.11544-0.04397 0.26384 0.0084 0.21866 0.03194 0.25968 0.08795 0.10993 0.05068-0.1355 0.0583-0.28943 0-0.35179-0.01458-0.0156-0.032-0.0267-0.04397-0.02199z" style="fill:url(#linearGradient8400)"/>
   <path id="path3774" d="m52.879 45.739c-1.1261 1.5935-1.2872 3.8506-2.0228 5.6726-0.02005 0.34055-0.0023 0.66557 0.04397 0.96743 0.14386-1.1688 0.55939-2.4113 0.92346-3.1881 0.37945-1.1095 1.0238-2.2984 1.0554-3.452zm-18.271 3.7598c-0.30458 0-0.16914 0.3553 0.48371 1.4072 0.70384 1.134 0.84143 1.2689 0.59365 0.57166-0.33073-0.93058-0.90988-1.9788-1.0774-1.9788zm30.254 8.509c-1.3772 0.1186-4.5925 1.7115-1.5171 0.65961 0.51792-0.17436 1.0407-0.37826 1.5171-0.65961zm-7.8933 1.9788c-0.23232 0.57828-0.55082 1.2338-0.54968 1.8689-0.10908 0.33604-0.08301 0.6669 0.04398 0.96743 0.22654-1.1297 1.1925-2.2558 0.5057-2.8363zm-25.439 1.0334c-2.2992 0.43561-4.8035-0.2347-7.1238 0.13192 1.9431 1.2329 4.3524-0.25736 6.3982 0.83551 2.1588 1.0756 3.5915 3.4187 4.4414 5.7166 0.06219 0.14028 0.09499 0.28146 0.13192 0.41775 0.15116-0.57362 0.15544-1.1767-0.13192-1.8249-0.74942-2.0264-1.9617-4.0804-3.7158-5.2769zm27.836 1.0774c-0.11132 0-0.22337 0.02037-0.30782 0.04397-0.16888 0.04722-0.02995 0.08795 0.30782 0.08795 0.33777 0.000001 0.47671-0.04073 0.30782-0.08795-0.08445-0.0236-0.19651-0.04397-0.30782-0.04397zm0.79153 0.1759c0.94844 0.47547 4.9441 0.64575 2.0888 0.10994-0.69698-0.0245-1.3978 0.01549-2.0888-0.10994zm-3.1441 2.7044c-1.9585 0.18926-3.8957 1.743-3.8477 3.9357-0.05375 0.18258-0.0099 0.43007 0.06596 0.70358 0.42692-2.3558 3.1883-3.7836 5.2989-3.1002 2.4981 0.52146-0.18643-0.19339-1.5171-1.5391zm-19.085 2.8583c-1.0775-0.05052-1.8427 0.43012-2.4625 1.1433-0.12932 1.8789-2.1998 3.4096-2.1767 5.013 1.2161-1.8848 2.0298-4.8715 4.6393-4.7492 1.1007 1.1625 1.8112 2.8233 3.43 1.5611 1.7436-0.67419 4.1587 1.8751 4.7712 1.3632 1.0785-0.89111 1.8272 2.1904 1.737-0.28584 1.7541-1.5916 5.3126-0.69971 6.2663 1.627 1.2272 1.1811-0.71036-1.324-0.96743-2.7044-1.4706-1.2881-3.9285-1.5733-5.2989-0.3298 0.09028 2.4762-0.65848-0.60528-1.737 0.28583-0.61244 0.5119-3.0276-2.0374-4.7712-1.3632-1.6188 1.2623-2.3293-0.39859-3.43-1.5611zm-6.728 3.9796-0.87948 0.8575c-0.03987-0.12042-0.12473-0.18178-0.21987-0.21987-0.01831 0.14189-0.04576 0.27732-0.06596 0.41776-0.19316 0.47867-0.36219 0.96846-0.54967 1.4511-0.15157 0.36194-0.36818 0.85748-0.83551 0.83551-0.39326-0.12312-0.74041-0.34921-1.0554-0.61564-0.12288 0.11766-0.23874 0.24703-0.37378 0.3518-0.27491 0.26684-0.07328 0.69427 0.1759 0.90147 0.35537 0.34373 0.78103 0.6217 1.2533 0.76954 0.46733 0.02198 0.68394-0.47356 0.83551-0.8355 0.18748-0.48268 0.35651-0.97247 0.54967-1.4512 0.07011-0.48736 0.08423-0.99848 0.35179-1.4292 0.21217-0.3881 0.50357-0.72059 0.81352-1.0334zm14.182 2.3086c-0.03591 0.01416-0.04969 0.11544-0.04397 0.26385 0.0084 0.21867 0.05393 0.25967 0.10994 0.10993 0.05068-0.13552 0.03632-0.28941-0.02199-0.35179-0.01458-0.0156-0.032-0.02669-0.04397-0.02199zm-0.08795 0.81352c-1.1167 1.1777-0.27344 2.6672 0 0zm3.0782 0.30782c-0.0359 0.01416-0.04969 0.11544-0.04397 0.26384 0.0084 0.21866 0.03194 0.25968 0.08795 0.10993 0.05068-0.1355 0.0583-0.28943 0-0.35179-0.01458-0.0156-0.032-0.0267-0.04397-0.02199z" style="opacity:.5;fill:#794200"/>
   <path id="path2707" d="m31.504 68.167c0-0.40362 0.21182-0.73386 0.47072-0.73386s0.47072 0.19933 0.47072 0.44294-0.21182 0.57385-0.47072 0.73385c-0.2589 0.16001-0.47072-0.03932-0.47072-0.44292zm2.3536-4.8387c-1.0976-0.442-1.8515-1.6595-1.8679-3.0165-0.01106-0.91358-0.37111-1.3849-1.376-1.8011-1.7525-0.72592-2.9883-0.01708-3.7781 2.167-0.39475 1.0917-0.86791 1.5775-1.5363 1.5775-1.1245 0-1.0487-0.68444 0.50833-4.5895 0.54193-1.3592 0.77437-2.4713 0.51653-2.4713s-0.4688-0.31109-0.4688-0.6913c0-0.4211-0.27597-0.58541-0.70607-0.42036-0.39024 0.14974-0.70608 0.01365-0.70608-0.30428 0-0.4031-0.34716-0.34774-1.1602 0.185-1.5001 0.98291-1.6641 0.96008-1.6641-0.23158 0-0.65747-0.2225-0.9064-0.66006-0.73851-1.2243 0.4698-1.1714-0.24172 0.10169-1.3693 1.0082-0.89292 1.133-1.2064 0.61574-1.5465-0.35679-0.23461-0.5122-0.64743-0.34536-0.91738 0.41342-0.66894-0.52982-1.1799-2.7334-1.4808-2.4995-0.34129-2.8098-1.4109-0.43058-1.4844 2.6516-0.08184 4.5245-0.57064 4.7468-1.2388 0.10765-0.32362-0.11494-0.5884-0.49466-0.5884-0.94661 0-1.2773-1.5718-0.71806-3.4127 0.61444-2.0226-0.14206-3.9977-1.679-4.3835-1.3497-0.33874-1.8097-1.2454-1.42-2.7983 0.63048-2.512 3.478-1.9655 4.4529 0.85462l0.68209 1.973 2.7562 0.09968c1.6978 0.06139 3.5758 0.49645 4.8906 1.1329 2.694 1.3042 3.2513 0.98216 4.8088-2.7787 1.1912-2.8765 1.9886-3.5317 3.7407-3.0735 1.241 0.32453 1.5352 1.8706 0.72492 3.8098-1.0887 2.6057-0.9106 3.8694 0.54534 3.8694 0.67471 0 2.0484 0.65075 3.0526 1.4461 1.2402 0.98225 2.1224 1.352 2.7503 1.1527 1.0335-0.32803 2.8554 1.1674 2.8554 2.3437 0 1.0218-1.8391 2.7065-2.6253 2.4048-0.91878-0.35257-0.84232 0.62539 0.13318 1.7033 0.66181 0.73129 0.70128 1.0498 0.22469 1.8129-0.64683 1.0357-0.12149 1.4723 1.5794 1.3127 2.4062-0.22589 3.2818 0.68987 2.7187 2.8433-0.44234 1.6915-3.9135 1.6683-3.9135-0.02615 0-0.49572-0.29595-1.0149-0.65766-1.1537-0.86284-0.3311-7.9047 0.65374-8.4299 1.179-0.22876 0.22876-0.09132 1.0172 0.31388 1.8008 0.55729 1.0777 1.0579 1.4035 2.2066 1.4361 1.6835 0.04787 1.733 0.07547 1.8709 1.0439 0.26409 1.855-0.05547 2.7226-1.0701 2.9053-1.5477 0.27871-2.7066-0.05869-2.7066-0.78795 0-0.71284-1.2547-2.1173-1.8916-2.1173-0.22669 0-0.37875 0.83794-0.3379 1.8621 0.04084 1.0242-0.02377 1.9602-0.14358 2.08-0.42566 0.42567-2.5805 0.7059-3.2756 0.426zm-5.6486-1.2739c0-0.43666 0.40247-0.7406 0.98066-0.7406 1.1472 0 0.98502 1.1-0.19591 1.329-0.46448 0.09009-0.78474-0.15004-0.78474-0.58839zm-16.996-2.469c-0.415-0.108-1.037-0.723-1.3813-1.366-0.7083-1.324-0.1574-2.188 1.7603-2.762 1.4353-0.42984 3.1353 1.2751 2.6963 2.7043-0.17485 0.56926-0.34456 1.0617-0.37712 1.0942-0.26419 0.2642-2.0919 0.48786-2.6977 0.33012zm5.6982-2.2722c0-0.94143 0.23536-1.1768 1.1768-1.1768 0.94143 0 1.1768 0.23536 1.1768 1.1768s-0.23536 1.1768-1.1768 1.1768-1.1768-0.23536-1.1768-1.1768z" style="fill:url(#linearGradient8402)"/>
   <path id="path3767" d="m41.028 33.14c-0.07225 0.38732-0.19134 0.81662-0.37378 1.2533-0.64957 1.5547-0.84836 2.6162-0.59365 3.2321 0.10756-0.51522 0.29426-1.1084 0.59365-1.8249 0.43407-1.0389 0.5494-1.9746 0.37378-2.6604zm-22.471 0.83551c-0.29872 1.4271 0.18447 2.271 1.4731 2.5945 0.99182 0.24893 1.6418 1.1722 1.8249 2.3306 0.29338-1.7819-0.45211-3.3932-1.8249-3.7378-0.78564-0.19718-1.2825-0.5898-1.4731-1.1873zm2.9463 7.8933c-0.1726 1.1305 0.02057 2.0301 0.5057 2.3526 0.50162-0.18811 0.81812-0.43104 0.90147-0.6816 0.10765-0.32362-0.104-0.57166-0.48371-0.57166-0.48848 0-0.80065-0.44126-0.92345-1.0994zm28.143 2.0008c-0.49598 0.9448-1.7896 1.9783-2.4186 1.737-0.82513-0.31663-0.82052 0.42493-0.10994 1.3632 0.04049 0.01107 0.06462 0.02658 0.10994 0.04397 0.7862 0.30171 2.6384-1.3967 2.6384-2.4186 0-0.23755-0.09277-0.47964-0.21987-0.72557zm-31.484 2.331c-2.3792 0.07343-2.0598 1.1318 0.43974 1.4731 2.2035 0.30087 3.1398 0.82618 2.7264 1.4951-0.12513 0.20246-0.07647 0.47585 0.10993 0.70358 0.62389-0.61396 0.67855-0.92214 0.24186-1.2093-0.35679-0.23461-0.51863-0.63152-0.35179-0.90147 0.41342-0.66894-0.52284-1.1942-2.7264-1.4951-0.13958-0.01906-0.24794-0.04266-0.37378-0.06596-0.02244 0.000755-0.04341-0.000697-0.06596 0zm29.485 2.8363c-0.0189 0.03182-0.02308 0.05449-0.04397 0.08795-0.3854 0.61712-0.35964 1.017 0.08795 1.2093 0.27406-0.49954 0.28248-0.85014-0.04397-1.2972zm-26.406 2.5065c-0.03191-0.0039-0.07397 0.01808-0.10994 0.02199-0.02711 0.02435-0.03744 0.0407-0.06596 0.06596-1.2731 1.1276-1.3342 1.833-0.10994 1.3632 0.43755-0.1679 0.65961 0.09009 0.65961 0.74756 0 1.1917 0.17092 1.2028 1.671 0.21987 0.81308-0.53274 1.1653-0.579 1.1653-0.1759 0 0.31793 0.31334 0.45756 0.70358 0.30782 0.4301-0.16505 0.70358-0.0033 0.70358 0.41775 0 0.30753 0.14061 0.54857 0.32981 0.63762 0.23907-0.79553 0.31274-1.3632 0.13192-1.3632-0.25784-0.000002-0.46173-0.30138-0.46173-0.6816-0.000002-0.4211-0.27349-0.58281-0.70358-0.41775-0.39024 0.14974-0.70358 0.01011-0.70358-0.30782 0.000001-0.4031-0.35223-0.35684-1.1653 0.1759-1.5001 0.98291-1.671 0.9718-1.671-0.21987 0-0.4931-0.12661-0.76153-0.37378-0.79153zm25.483 0.48371c-1.9331-0.02613-7.3678 0.79369-7.8274 1.2533-0.18395 0.18395-0.1285 0.727 0.10993 1.3412 0.97068-0.53653 7.4816-1.4397 8.3111-1.1213 0.36171 0.1388 0.65961 0.64761 0.65961 1.1433 0 1.6945 3.4713 1.7355 3.9137 0.04397 0.18933-0.72402 0.20541-1.3111 0.06596-1.759-0.0231 0.11773-0.03296 0.22558-0.06596 0.35179-0.44234 1.6915-3.9137 1.6505-3.9137-0.04398-0.000001-0.49572-0.2979-1.0045-0.65961-1.1433-0.10786-0.04139-0.3175-0.06223-0.59365-0.06596zm-37.005 4.529c-0.28886 0.45341-0.24426 1.0092 0.10994 1.671 0.34418 0.6431 0.96956 1.255 1.3852 1.3632 0.6058 0.15774 2.4402-0.0656 2.7044-0.3298 0.03257-0.03255 0.19893-0.53009 0.37378-1.0994 0.11903-0.38754 0.05964-0.78528-0.08795-1.1653-0.12929 0.40197-0.26048 0.83216-0.28583 0.85749-0.26419 0.2642-2.0986 0.48754-2.7044 0.3298-0.416-0.109-1.041-0.721-1.3851-1.364-0.0484-0.09-0.0733-0.177-0.1099-0.263zm7.2777 0.06596c-0.06287 0.17177-0.08795 0.38194-0.08795 0.6816 0 0.94144 0.24586 1.1873 1.1873 1.1873 0.94143 0 1.1653-0.24586 1.1653-1.1873 0-0.30204-0.02395-0.50937-0.08795-0.6816-0.13947 0.34868-0.44974 0.46173-1.0774 0.46173-0.63086 0.000001-0.96096-0.10871-1.0994-0.46173zm12.401 0.19788c-1.1239-0.0045-1.9801 0.80249-2.5725 2.4406-0.39475 1.0917-0.84873 1.5831-1.5171 1.5831-0.26458 0-0.46563-0.0231-0.59365-0.13192-0.34988 1.2524-0.13217 1.5391 0.59365 1.5391 0.66838 0 1.1224-0.4914 1.5171-1.5831 0.78978-2.1841 2.0293-2.8806 3.7818-2.1547 1.0049 0.41623 1.3741 0.88936 1.3852 1.8029 0.01641 1.357 0.77135 2.5702 1.8689 3.0122 0.69506 0.2799 2.8504 0.0079 3.2761-0.41775 0.11981-0.11981 0.17276-1.0646 0.13192-2.0888-0.02633 0.363-0.07342 0.62309-0.13192 0.6816-0.42566 0.42567-2.581 0.69766-3.2761 0.41775-1.0975-0.442-1.8525-1.6552-1.8689-3.0122-0.01105-0.91357-0.38031-1.3867-1.3852-1.8029-0.43813-0.18148-0.83464-0.28433-1.2093-0.28583zm8.2231 0.72557c-0.22669 0.000003-0.39263 0.84472-0.35179 1.8689 0.0093 0.23347 0.02304 0.46592 0.02199 0.6816 0.03616-0.66775 0.15978-1.1433 0.3298-1.1433 0.63681 0 1.8909 1.4199 1.8909 2.1327 0 0.72926 1.1568 1.0483 2.7044 0.76955 0.95146-0.17136 1.2784-0.9473 1.0994-2.5725-0.12677 0.69049-0.48008 1.0538-1.0994 1.1653-1.5477 0.27871-2.7044-0.04029-2.7044-0.76955 0-0.71284-1.2541-2.1327-1.8909-2.1327zm-8.421 3.7598c-0.57819 0-0.98941 0.3109-0.98941 0.74756 0 0.43834 0.32705 0.68374 0.79153 0.59365 1.1809-0.22902 1.345-1.3412 0.19788-1.3412zm2.7704 6.1344c-0.2589 0-0.46173 0.32195-0.46173 0.72557 0 0.40361 0.20283 0.59975 0.46173 0.43974 0.2589-0.16 0.48371-0.48196 0.48371-0.72557s-0.22482-0.43974-0.48371-0.43974z" style="opacity:.3"/>
   <path id="path2627" d="m31.508 11.417c-0.30175-0.000201-0.64224 0.08639-1.0114 0.26384-1.302 0.98348-3.0183-0.88104-4.3095 0.28583-1.3556 2.1741 1.7979 2.4502 3.1661 2.9243 1.6674 0.37997 2.2943 1.7765 3.0122 2.9023 2.1493 0.49334 2.014-2.2873 1.4951-3.6059-0.34603-1.2796-1.045-2.7695-2.3526-2.7704zm12.533 0.41775c-1.901 1.5435 1.1527 4.6058-1.5171 6.0025-1.9659 1.4264-4.8702 0.18217-6.4642 2.3526-1.6423 2.2458-3.7591-0.80318-5.3428 0.1759 1.3547 1.6551 4.773 2.0373 4.4634 5.035 0.41208 2.7563-2.2992 4.8108-1.9349 7.4756 0.53697 1.981 3.027 4.1714 0.43974 5.8266-1.3228 1.187-0.47174 2.2557 0.57166 0.59365 0.67732-2.1119 4.2661-3.4514 4.4634-0.37378 0.40667 1.4426-1.0596 4.2668 0.39577 4.7932 0.2218-2.5674 0.33618-5.8402 3.1222-7.0798 2.3223-1.2198 3.6874 2.2247 5.9585 1.4731 2.6093-1.1029 3.4583 1.7014 5.2109 2.7924 3.4027 0.13342 2.0057-5.075 3.1002-7.2337 1.8326-1.7482 2.0679-4.1044 2.5725-6.4642 1.693-2.6792 5.1111-0.28872 7.1458-1.3632-0.26755-2.4404-4.3112-0.47039-6.0904-1.3632-2.2111-0.16941-4.8707-2.3065-3.4739-4.6612 0.67457-1.1495 4.1697-4.0769 1.5611-4.3974-1.715 1.3298-2.6143 3.7749-5.1669 3.9137-2.2789 1.0221-5.026 0.78074-6.5961-1.3632-2.1522-1.4206-0.91438-4.0525-1.9568-5.8925-0.0816-0.25288-0.28242-0.21838-0.46173-0.24186zm5.9145 1.693c-0.36592 0.0028-0.72169 0.194-1.0994 0.57166-1.1309 1.1309-0.43372 2.9956 0.98942 2.6384 0.29406-0.0738 0.83153 0.03716 1.2093 0.24186 0.877 0.47522 1.277 0.47589 1.4511 0.02199 0.23958-0.62433-0.13548-1.5346-1.0334-2.5285-0.573-0.634-1.047-0.95-1.518-0.946zm-21.416 9.41c-0.45684-0.01773-0.89402 0.02234-1.0114 0.19788-0.98672 1.4756-0.1739 1.6897 0.74756 2.4186 1.1996 0.94888 2.9308-0.89433 3.1441-0.72557-0.62218-1.0403-1.0057-1.3368-1.7809-1.715-0.17206-0.08394-0.64252-0.15816-1.0994-0.1759zm1.4731 5.3648c-0.49397 0.08049-0.52935 0.60898-0.39577 1.1433 0.29146 1.1658 0.54019 0.58418 1.0554 0.35179 0.72244-0.32587 0.42094-0.39964 0-1.4072-0.27656-0.08744-0.49495-0.11478-0.65961-0.08795zm29.375 3.342c-0.24544 0.04739 0.17387 0.52156 1.1873 1.3852 0.85196 0.72604 1.7617 1.5838 2.0228 1.8909 0.66733 0.7848 1.4249 0.61244 1.5171-0.32981 0.06697-0.68426-0.0062-0.78033-1.2533-1.2972-0.73618-0.30513-1.7413-0.81799-2.2207-1.1433-0.47942-0.32535-1.0469-0.54555-1.2533-0.5057z" style="fill:url(#linearGradient8404)"/>
   <path id="path3762" d="m26.099 12.143c-1.0791 2.0128 1.9239 2.2874 3.2541 2.7484 1.6674 0.37997 2.2943 1.7765 3.0122 2.9023 1.6585 0.38069 1.9477-1.1863 1.759-2.5285-0.16998 0.79832-0.68433 1.368-1.759 1.1213-0.71791-1.1258-1.3448-2.5223-3.0122-2.9023-0.92186-0.31944-2.6366-0.56042-3.2541-1.3412zm17.348 0.61564c-0.18558 0.72317 0.03031 1.5702 0.15391 2.3966 0.19013-0.73314-0.02816-1.5801-0.15391-2.3966zm5.013 1.9568c-0.46766 1.0798 0.19599 2.3213 1.3852 2.0228 0.29406-0.0738 0.83153 0.03716 1.2093 0.24186 0.877 0.47522 1.277 0.47589 1.4511 0.02199 0.12624-0.32897 0.06971-0.72914-0.13192-1.1873-0.21963 0.21702-0.61762 0.13832-1.3192-0.24186-0.37776-0.20469-0.91523-0.31566-1.2093-0.24186-0.64869 0.16281-1.1425-0.13507-1.3852-0.61564zm10.4 0.90147c-0.5866 0.98344-1.8244 2.1546-2.1987 2.7924-0.42622 0.71855-0.48703 1.4165-0.28583 2.0448 0.06332-0.2091 0.15889-0.42362 0.28583-0.63762 0.6005-1.0233 3.4234-3.4516 2.1987-4.1995zm-27.528 4.5513c-0.21266 0.01471-0.41767 0.0755-0.61564 0.19788 1.2701 1.5516 4.36 1.9892 4.4854 4.5073 0.02107-0.28478 0.02282-0.5798-0.02199-0.87948 0.18679-1.8083-0.98771-2.6497-2.2427-3.408-0.55079-0.22587-1.0997-0.45272-1.6051-0.41775zm-3.9796 3.2541c-0.68268 1.2087 0.0685 1.4564 0.92346 2.1327 1.1996 0.94888 2.9308-0.89433 3.1441-0.72557-0.2823-0.47201-0.52662-0.76853-0.76954-1.0114-0.6659 0.4201-1.609 0.93539-2.3746 0.3298-0.35764-0.2829-0.69741-0.49391-0.92346-0.72557zm36.015 1.1873c-0.97467 0.07875-2.0074 0.21026-2.7924 0.02199-0.57092 0.17469-1.0835 0.51388-1.4951 1.1653-0.50458 2.3598-0.73987 4.716-2.5725 6.4642-1.0945 2.1588 0.30251 7.3672-3.1002 7.2337-1.7526-1.091-2.6017-3.8953-5.2109-2.7924-2.2711 0.75158-3.6361-2.6929-5.9585-1.4731-2.786 1.2396-2.9004 4.5125-3.1222 7.0798-0.31925-0.11547-0.50496-0.33985-0.59365-0.63762-0.13381 0.95217-0.13403 1.7816 0.59365 2.0448 0.2218-2.5674 0.33618-5.8402 3.1222-7.0798 2.3223-1.2198 3.6874 2.2247 5.9585 1.4731 2.6093-1.1029 3.4583 1.7014 5.2109 2.7924 3.4027 0.13342 2.0057-5.075 3.1002-7.2337 1.8326-1.7482 2.0679-4.1044 2.5725-6.4642 1.693-2.6792 5.1111-0.28872 7.1458-1.3632-0.07008-0.63925-0.39976-0.97859-0.87948-1.1433-0.61228 0.07806-1.2902-0.0017-1.9788-0.08795zm-32.694 3.782c-0.43791 0.19752-0.6807 0.62943-0.92346 0.04397-0.22472 0.20412-0.23404 0.60294-0.13192 1.0114 0.29146 1.1658 0.54019 0.58418 1.0554 0.35179 0.72244-0.32587 0.42094-0.39964 0-1.4072zm2.6165 3.2101c-0.07893 0.41117-0.1039 0.83689-0.04397 1.2752 0.29027 1.0709 1.152 2.2004 1.4731 3.2761 0.54444-1.4103-0.95833-3.0365-1.4292-4.5513zm26.099 0.04397c-0.24544 0.04739 0.17387 0.52156 1.1873 1.3852 0.85196 0.72604 1.7617 1.5838 2.0228 1.8909 0.66733 0.7848 1.4249 0.61244 1.5171-0.32981 0.0393-0.4015 0.02418-0.59121-0.24186-0.79153-0.29578 0.3295-0.80603 0.26598-1.2752-0.28583-0.1088-0.12795-0.3767-0.38982-0.65961-0.65961-0.50998-0.25089-1.0011-0.50263-1.2972-0.70358-0.47942-0.32535-1.0469-0.54555-1.2533-0.5057zm-22.339 4.0676c-0.76624 0.03511-1.6379 0.50631-2.2207 1.1873 0.0031 0.64033-0.28427 1.2534-1.1433 1.8029-1.3228 1.187-0.47174 2.2557 0.57166 0.59365 0.67732-2.1119 4.2661-3.4514 4.4634-0.37378 0.07029-0.52372 0.11079-1.0141 0-1.4072-0.08632-1.3465-0.81421-1.8422-1.671-1.8029z" style="opacity:.3;fill:#241c1c"/>
   <path id="path2783" d="m70.286 12.649c-1.2055 0.08186-1.4947 1.0457-0.82003 2.7413 0.32273 0.81115 1.7257 0.72971 2.179-0.11715 0.20229-0.37797 0.31521-1.0952 0.25773-1.5932-0.08217-0.71206-0.28986-0.9225-1.0309-1.0075-0.20916-0.02398-0.41352-0.03512-0.58574-0.02343zm-5.9511 5.4825c-0.14587 0.0178-0.18744 0.18661-0.18744 0.46859 0 0.29997-0.20907 0.39872-0.51545 0.28116-0.35881-0.13769-0.51218 0.04536-0.51545 0.60917-0.0025 0.43468-0.08416 1.1148-0.18744 1.4995-0.12472 0.46452 0.10989 1.0525 0.70289 1.7572 0.98606 1.1719 1.2266 1.2424 2.2961 0.67946 1.7157-0.9031 1.6945-2.6203-0.02343-4.1939-0.84721-0.77602-1.3267-1.1309-1.5698-1.1012zm18.299 1.0778c-0.48552 0.02796-0.94826 0.14968-1.2652 0.3983-1.1056 0.86728-0.91176 3.853 0.35144 5.3654 1.2599 1.5084 3.246-0.04546 3.6316-2.8584 0.17077-1.2459 0.07589-1.611-0.51545-2.2024-0.501-0.501-1.3932-0.74948-2.2024-0.70289zm-5.7403 3.9127c-0.67075 0-0.9198 0.64998-0.44516 1.1246 0.3594 0.3594 0.91121 0.05483 1.0309-0.56231 0.0731-0.37692-0.11698-0.56231-0.58574-0.56231zm-11.926 1.0075c-0.27942 0-0.49202 0.30688-0.49202 0.67946 0 0.37257 0.2126 0.67946 0.49202 0.67946 0.27943 0 0.51545-0.30689 0.51545-0.67946s-0.23602-0.67946-0.51545-0.67946zm6.8883 0.51545c-0.46105 0.04741-1.0393 0.09362-1.2652 0.11715-0.53137 0.05536-1.7572 2.7789-1.7572 3.8893 0 0.72433-0.15102 0.84347-0.98404 0.84347-0.86657 0-0.99271-0.10271-0.93718-0.91376 0.05615-0.82024-0.02445-0.91579-0.84346-0.82004-0.68114 0.07963-0.88405-0.0015-0.74975-0.35144 0.09984-0.26019-0.04903-0.6862-0.35145-0.93718-0.47474-0.394-0.63836-0.36351-1.1246 0.28116-0.44469 0.58955-0.636 0.67605-0.96061 0.35144-0.30384-0.30384-0.51858-0.32488-0.79661-0.04686-0.2069 0.20689-0.57199 0.29706-0.7966 0.21087s-0.59258 0.07738-0.82004 0.35144-0.6396 0.40979-0.91375 0.30458c-0.31353-0.12031-0.54775 0.05452-0.65603 0.46859-0.29357 1.1226-1.9075 0.85075-2.8116-0.46859-0.42123-0.61474-0.96548-1.1012-1.2183-1.1012-0.88811 0-0.43968 0.95758 1.0543 2.2727 1.1712 1.0309 1.4995 1.5687 1.4995 2.3664 0 1.1681-0.56547 1.7134-0.89032 0.86689-0.17173-0.44751-0.4945-0.52547-1.5932-0.37487-0.76004 0.10418-1.6061 0.04866-1.8744-0.11715-0.60919-0.37651-1.6635 0.52311-1.6635 1.4058 0 0.87694-0.55806 0.77341-1.2183-0.2343-0.5572-0.8504-0.57668-0.85253-1.2183-0.21087-0.61592 0.61592-0.62061 0.69147-0.09372 1.7104 0.41485 0.80224 0.46642 1.1868 0.18744 1.5229-0.20532 0.2474-0.44866 0.86138-0.53888 1.3589-0.09022 0.49754-0.37592 1.1022-0.6326 1.3589-0.25667 0.25667-0.43214 0.89915-0.37487 1.4058 0.14294 1.2647-0.34456 2.0855-1.1949 1.9915-0.91929-0.10159-1.1857 0.64152-0.32801 0.91376 0.85951 0.2728 1.1398 1.0763 0.65603 1.8509-0.81735 1.3088 1.3616 4.1266 4.1705 5.3888 1.6504 0.74163 4.8398 0.6724 6.0448-0.11715 0.56993-0.37343 1.1966-0.50971 1.7338-0.37487 0.72203 0.18122 0.84347 0.10861 0.84346-0.58574 0-1.0104 0.59456-1.6166 1.5698-1.6166 0.41328 0 0.84663-0.1436 0.96061-0.32801 0.11398-0.18442 0.56379-0.35144 1.0075-0.35144 0.45438 0 0.95254-0.26728 1.1481-0.6326 0.49623-0.92722 0.47414-0.98472-0.72632-1.1012-0.94698-0.09188-1.0983-0.22599-1.1715-1.148-0.04856-0.61172 0.11054-1.2372 0.39831-1.4761 0.64228-0.53304 0.64987-1.297 0-1.5464-0.28111-0.10787-0.79723-0.83087-1.1481-1.5932l-0.6326-1.3823 1.0543-0.35144c0.98998-0.34049 1.1113-0.3189 1.6635 0.58574 0.32677 0.53531 0.50543 1.1153 0.39831 1.2886-0.10713 0.17333 0.09617 0.32802 0.44516 0.32802s0.72541 0.09281 0.84346 0.21087c0.11806 0.11805 0.88113 0.28219 1.6869 0.35144 1.2307 0.10577 1.649-0.04091 2.7178-0.89032 0.71983-0.57205 1.6472-1.7688 2.1087-2.7647 0.44858-0.96822 0.78605-1.8048 0.77318-1.8509-0.18918-0.67736 0.11577-1.1012 0.7966-1.1012 0.46573 0 1.3231-0.47217 2.0149-1.1246 1.1678-1.1014 1.2298-1.2309 1.1715-3.3504-0.05203-1.8914-0.18434-2.2956-0.93718-2.999-1.2096-1.1302-2.7294-1.8362-3.7253-1.7338zm-26.71 7.3569c-0.02526-0.0039-0.05848 0.01161-0.07029 0.02343-0.25557 0.25557 1.3265 2.4845 2.2258 3.1396 1.1124 0.81035 1.3432 0.6628 0.6326-0.42173-0.60722-0.92674-2.4092-2.6824-2.7881-2.7413zm19.4 8.7158c-0.05902 0.0068-0.12922 0.01553-0.21086 0.04686-0.29204 0.11207-0.53888 0.35882-0.53888 0.53888 0 0.44073 0.77011 0.17322 0.93719-0.32802 0.06125-0.18377-0.01038-0.27803-0.18744-0.25772zm0.96062 3.2099c-0.37973 0-0.70289 0.14359-0.70289 0.32801s0.22627 0.32801 0.49202 0.32801 0.56548-0.14359 0.67946-0.32801-0.08886-0.32801-0.46859-0.32801zm3.7253 0.02343c-0.15711-0.0024-0.35311 0.0039-0.58574 0.02343-0.6968 0.0584-1.3259 0.31949-1.4058 0.56231-0.10661 0.32428 0.17065 0.406 1.1012 0.32801 0.6968-0.0584 1.3494-0.29606 1.4292-0.53888 0.07995-0.24321-0.06754-0.36754-0.53888-0.37487zm0 5.0139c-0.1844-0.0043-0.35494 0.02313-0.53888 0.09372-0.53828 0.20656-0.74384 2.2902-0.32801 3.3739 0.13066 0.34049 0.62322 0.53888 1.3589 0.53888 0.91389 0 1.1985-0.17498 1.4526-0.84346 0.53869-1.4169-0.65382-3.1329-1.9447-3.163zm-2.6475 0.42173c-0.07475 0.01051-0.09372 0.10664-0.09372 0.30458 0 0.26848 0.08792 0.57994 0.21086 0.70289 0.31844 0.31844 0.79661 0.27693 0.79661-0.07029 0-0.16184-0.23881-0.4733-0.51545-0.70289-0.20396-0.16927-0.32355-0.2448-0.39831-0.2343z" style="fill:url(#linearGradient8406)"/>
   <path id="path3638" d="m69.238 13.286c-0.20919 0.46466-0.15358 1.1721 0.21987 2.1108 0.32274 0.81115 1.7235 0.71493 2.1767-0.13192 0.20228-0.37797 0.32132-1.085 0.26384-1.5831-0.01639-0.14207-0.03633-0.24667-0.06596-0.35179-0.04622 0.2036-0.1233 0.38833-0.19788 0.52769-0.45323 0.84685-1.854 0.94308-2.1767 0.13192-0.0985-0.24756-0.16231-0.48769-0.21987-0.70358zm-6.2003 7.1238c-0.03049 0.21061-0.06917 0.41985-0.10994 0.57166-0.12472 0.46452 0.11059 1.0542 0.70358 1.759 0.36977 0.43945 0.63635 0.72511 0.87948 0.87948-0.01732-0.07006-0.04398-0.14183-0.04398-0.21987 0.000002-0.37257 0.22628-0.6816 0.5057-0.6816 0.27943 0 0.5057 0.30902 0.5057 0.6816 0 0.09314-0.01748 0.18268-0.04397 0.26384 0.14795-0.05755 0.29125-0.14055 0.48371-0.24186 1.121-0.59004 1.516-1.5325 1.1653-2.5505-0.18569 0.4513-0.58844 0.83968-1.1653 1.1433-1.0695 0.56293-1.3006 0.49027-2.2866-0.6816-0.28252-0.33575-0.47393-0.64143-0.59365-0.92346zm22.317 0.30782c-0.38556 2.813-2.368 4.3668-3.6279 2.8583-0.5457-0.65337-0.88339-1.5928-1.0114-2.5065-0.1745 1.2529 0.17066 2.9071 1.0114 3.9137 1.2599 1.5084 3.2423-0.04536 3.6279-2.8583 0.08989-0.6558 0.09098-1.078 0-1.4072zm-8.465 2.3966c-0.67075 0-0.91438 0.6467-0.43974 1.1213 0.3594 0.3594 0.9137 0.06746 1.0334-0.54968 0.07309-0.37692-0.12489-0.57166-0.59365-0.57166zm-11.917 1.0114c-0.27942 0-0.5057 0.30903-0.5057 0.6816 0.14167-0.006 0.298 0.09147 0.5057 0.26384 0.10787 0.08952 0.17738 0.21121 0.24186 0.32981 0.15717-0.11696 0.26385-0.34084 0.26384-0.59365-0.000003-0.37257-0.22627-0.6816-0.5057-0.6816zm-10.092 2.7044c-0.88811 0.000001-0.46062 0.94958 1.0334 2.2647 0.83084 0.73133 1.241 1.2112 1.4072 1.715 0.05809-0.20216 0.10994-0.45554 0.10994-0.74756-0.000002-0.45965-0.1233-0.84414-0.43974-1.2752-0.32902-0.1979-0.64156-0.47818-0.90147-0.85749-0.05729-0.08361-0.1151-0.1639-0.1759-0.24186-0.0083-0.0073-0.01376-0.01471-0.02199-0.02199-0.26715-0.23628-0.48417-0.45028-0.6816-0.65961-0.13852-0.09996-0.2431-0.1759-0.3298-0.1759zm21.635 2.4625c-0.05661 0.92474-0.31116 1.2172-1.1653 2.0228-0.6918 0.65245-1.5571 1.1213-2.0228 1.1213-0.68083 0-0.98071 0.42199-0.79153 1.0994 0.01287 0.04611-0.32096 0.90067-0.76955 1.8689-0.46142 0.99592-1.3909 2.1763-2.1108 2.7484-1.0688 0.84941-1.4957 1.0072-2.7264 0.90147-0.8058-0.06925-1.553-0.23374-1.671-0.35179-0.11806-0.11806-0.5085-0.21987-0.85749-0.21987s-0.54686-0.15648-0.43974-0.3298c0.10713-0.17334-0.069-0.73994-0.39577-1.2752-0.55222-0.90464-0.68103-0.93414-1.671-0.59365l-1.0554 0.35179 0.57166 1.2093 0.48372-0.15391c0.98998-0.34049 1.1188-0.31098 1.671 0.59365 0.32677 0.53531 0.5029 1.1019 0.39577 1.2752-0.0087 0.01405 0.0047 0.03024 0 0.04397 0.09821-0.0982 0.22776-0.18582 0.37378-0.24186 0.08164-0.03133 0.16085-0.03721 0.21987-0.04398 0.17706-0.02031 0.23715 0.05808 0.1759 0.24186-0.04516 0.13547-0.13571 0.25984-0.24186 0.35179 0.32056 0.01446 0.66191 0.09025 0.76955 0.19788 0.11806 0.11805 0.86521 0.28254 1.671 0.35179 1.2307 0.10577 1.6575-0.05205 2.7264-0.90147 0.71983-0.57205 1.6493-1.7525 2.1108-2.7484 0.44859-0.96822 0.78242-1.8228 0.76955-1.8689-0.18918-0.67736 0.1107-1.0994 0.79153-1.0994 0.46573 0.000001 1.331-0.46889 2.0228-1.1213 1.1678-1.1014 1.2236-1.2225 1.1653-3.342-0.000978-0.03557 0.001-0.05341 0-0.08795zm-31.375 2.7044c-0.02526-0.0039-0.05415 0.01017-0.06596 0.02199-0.25558 0.25558 1.3214 2.4891 2.2207 3.1441 1.1124 0.81035 1.3482 0.66678 0.63762-0.41775-0.60722-0.92675-2.4134-2.6895-2.7924-2.7484zm3.6718 0.96743c-0.42881 0.45793-0.40279 0.63263 0.06596 1.5391 0.0439 0.08488 0.07414 0.1439 0.10994 0.21987 0.02216-0.03347 0.04442-0.08398 0.06596-0.10994 0.27898-0.33616 0.23895-0.71486-0.1759-1.5171-0.02823-0.05458-0.0408-0.08252-0.06596-0.13192zm15.743 7.7614c-0.05902 0.0068-0.13823 0.01264-0.21987 0.04397-0.29204 0.11207-0.52769 0.34763-0.52769 0.52769 0.000002 0.44073 0.75637 0.17143 0.92345-0.32981 0.06126-0.18377 0.0012-0.26216-0.1759-0.24186zm-1.8469 0.35179c-0.02894 0.02771-0.05583 0.0613-0.08795 0.08795-0.28777 0.23882-0.44432 0.86141-0.39577 1.4731 0.01687 0.21254 0.05399 0.36776 0.08795 0.5057 0.07008-0.24934 0.16936-0.45675 0.30782-0.57166 0.60804-0.50463 0.63687-1.2091 0.08795-1.4951zm-16.051 1.0334c-0.10839 0.02417-0.20491 0.05778-0.3298 0.04397-0.91929-0.10159-1.1875 0.62924-0.32981 0.90147 0.28453 0.09031 0.48675 0.25342 0.63762 0.43974 0.31654-0.50686 0.30789-1.0104 0.02199-1.3852zm18.843 1.8249c-0.37973 0-0.70358 0.14538-0.70358 0.3298 0.000001 0.18442 0.23995 0.30782 0.5057 0.30782 0.26575-0.000002 0.56762-0.1234 0.6816-0.30782s-0.10398-0.3298-0.48371-0.3298zm3.7378 0.02199c-0.15711-0.0024-0.36102 0.0025-0.59365 0.02199-0.69679 0.0584-1.3273 0.30685-1.4072 0.54968-0.10661 0.32428 0.16881 0.40779 1.0994 0.3298 0.69679-0.0584 1.3493-0.28487 1.4292-0.52769 0.07995-0.2432-0.05635-0.36644-0.52769-0.37378zm-22.625 0.96743c-0.77487 1.3193 1.4083 4.1106 4.1995 5.3648 1.6504 0.74163 4.8414 0.67961 6.0464-0.10994 0.56993-0.37343 1.1998-0.50861 1.737-0.37378 0.72203 0.18122 0.83551 0.1007 0.83551-0.59365-0.000004-1.0104 0.60784-1.6051 1.5831-1.6051 0.41329 0.000002 0.83146-0.14539 0.94544-0.3298 0.11398-0.18442 0.56772-0.35179 1.0114-0.35179 0.45438-0.000001 0.94781-0.2723 1.1433-0.63762 0.42657-0.79705 0.4289-0.95376-0.32981-1.0554-0.23439 0.16985-0.52726 0.28583-0.81352 0.28583-0.44368 0-0.89742 0.16737-1.0114 0.35179s-0.53215 0.3298-0.94544 0.32981c-0.97522-0.000001-1.5831 0.59466-1.5831 1.6051 0.000002 0.69435-0.11348 0.77486-0.83551 0.59365-0.53722-0.13483-1.167 0.000346-1.737 0.37378-1.205 0.78954-4.396 0.85157-6.0464 0.10994-2.0093-0.90289-3.7011-2.5845-4.1995-3.9577zm19.964 4.4634c-0.07475 0.01051-0.08795 0.10988-0.08795 0.30782 0.000002 0.26848 0.09692 0.58064 0.21987 0.70358 0.31844 0.31844 0.79153 0.28126 0.79153-0.06596 0-0.16184-0.25105-0.474-0.52769-0.70358-0.20396-0.16927-0.32101-0.25237-0.39577-0.24186zm1.6051 0.85749c-0.09578 0.7189-0.05073 1.5861 0.1759 2.1767 0.13066 0.34048 0.6275 0.54968 1.3632 0.54968 0.91389-0.000001 1.197-0.16703 1.4511-0.83551 0.17982-0.47295 0.14524-0.98535 0-1.4511-0.0045 0.01249 0.0047 0.03153 0 0.04397-0.25416 0.66848-0.53726 0.83551-1.4511 0.83551-0.73569 0.000004-1.2325-0.20919-1.3632-0.54968-0.08603-0.22418-0.1405-0.48524-0.1759-0.76954z" style="opacity:.2"/>
   <path id="path3760" d="m179.03 38.031c-0.10802 0.62241-0.43407 1.3638-0.875 2.375 0.5542-0.35509 1.2369-0.74477 1.4062-0.96875 0.2433-0.32186 0.25746-0.38894 0.25-0.34375-0.007 0.04519 0.0292 0.0147-0.15625-0.40625a1.9104 1.9104 0 0 1 -0.03 -0.062c-0.0421-0.10638-0.0617-0.23413-0.0937-0.34375-0.007-0.02178-0.41039-0.17531-0.5-0.25zm-13.094 2.6875c-1.1926 0.2719-2.4465 0.56848-3 0.84375-0.36697 0.18252-0.40002 0.2235-0.40625 0.21875a1.9104 1.9104 0 0 1 -0.0937 0.5625c-0.003 1.3048-0.33661 2.6051-1.2188 3.7188 1.2817-0.61345 2.7012-0.84291 4.0938-0.59375 3.3828 0.63075 5.1894 3.2917 5.9062 3.9688 0.18066 0.17065 0.0541 0.0959 0.15625 0.15625 0.10919-0.06238 0.1974-0.13652 0.3125-0.1875a1.9104 1.9104 0 0 1 0.0312 0c0.6184-0.26462 0.73699-0.47973 1.3125-1.8438 0.36387-0.86241 0.89621-2.2276 1.6875-3.6562-1.0624 0.43218-2.2143 0.65426-3.375 0.40625-1.7946-0.38344-2.9811-1.4409-3.7188-2.0938-0.76409-0.67628-1.3868-1.2807-1.6875-1.5zm-6.69 6.907c-0.90656 0.41078-1.8141 0.64273-2.5625 0.6875-1.5284 0.09143-2.8188-0.13394-3.875-0.375-0.18454 0.17132-0.18945 0.16352-0.53125 0.5-0.40805 0.4017-1.1582 0.95474-2.0625 1.4062-0.62366 2.7741-1.6498 5.1192-2.0938 6.7812-0.008 0.03961-0.0215 0.08562-0.0312 0.125a1.9104 1.9104 0 0 1 -0.0625 0.1875c-0.47149 1.2669-0.79653 2.755-0.78125 3.75 0.0166 1.0819 0.12431 1.3835 0.6875 1.875a1.9104 1.9104 0 0 1 0.0937 0.0625c0.006 0.0055-0.006 0.02582 0 0.03125 0.0165 0.0163 0.0469 0.01524 0.0625 0.03125 1.7362 1.5915 5.1037 2.0174 7.0938 0.875 0.12545-0.07223 0.24199-0.13049 0.375-0.1875 2.2825-0.97236 3.3422-1.984 3.7812-2.8438 0.46188-0.90454 0.59654-1.9403-0.1875-4.1875h0.0312c-1.1857-1.7666-1.814-3.8957-1.3438-6.0312 0.20395-0.92611 0.72546-1.8408 1.4062-2.6875z" style="opacity:0;filter:url(#filter3756)" transform="matrix(.70358 0 0 .70358 -53.384 1.9628)"/>
   <path id="path3812" d="m43.688 19.025c-2.2155 0.42979-4.1716 1.6188-6.1528 2.6358-0.91374 0.66009-0.92754 1.9022-0.87008 2.9183-0.09725 1.0127-0.45115 2.0363-0.11406 3.0454 0.26178 0.75671-0.13536 1.3952-0.5319 1.9295-0.02409 0.86677 1.1963 1.2398 1.4333 0.3031 0.80636-1.2519 1.2103-2.7248 2.1114-3.9218 0.59854-0.98918 1.3308-2.1637 2.5744-2.3468 1.3119-0.12065 2.5723 0.39619 3.7633 0.87032 0.97459 0.36504 1.5553-0.47089 2.0437-1.0927 0.90456-0.45132 1.8097 0.76624 2.6829 0.16852 0.69491-0.43564 1.6774-0.83066 1.932-1.6398-0.25186-0.96918-1.4552-0.20293-2.1404-0.32996-1.1426 0.0016-2.2866-0.04599-3.4274-0.07659-0.97075-0.12709-1.3578-1.0983-1.8217-1.8169-0.32371-0.46206-0.8971-0.87701-1.4826-0.6463z" style="opacity:.6;fill:url(#linearGradient8408);fill-rule:evenodd"/>
   <path id="path3844" d="m55.642 34.184c-0.76934-0.36839-1.5932-0.68487-2.4576-0.69194-1.0699 0.31157-1.5103 1.436-1.9839 2.3324-0.65406 1.1111-1.8585 1.9753-1.9557 3.353-0.14693 0.82559 0.17068 1.6465 0.11441 2.4688-0.22454 0.87048-0.91782 1.5263-1.155 2.3931-0.33609 0.71285 0.53079 1.5846 1.1395 0.90217 0.67588-0.42588 1.4013-1.1296 1.2455-2.0053-0.11532-0.70911-0.38308-1.4648-0.01958-2.1529 0.28699-0.50702 0.39374-1.0991 0.72107-1.5815 0.46772-0.62156 1.2482-0.90738 1.9816-1.0595 0.6118-0.11744 1.1787 0.22896 1.7888 0.14987 0.54819-0.0317 1.1244-0.02052 1.6148 0.25086 0.828 0.08259 1.0778-0.9904 0.71624-1.5719-0.07274-0.64527 0.24576-1.4006-0.26329-1.9376-0.3819-0.45874-1.0497-0.46849-1.4869-0.84936z" style="opacity:.8;fill:url(#linearGradient8410);fill-rule:evenodd"/>
   <path id="path3883" d="m58.279 32.074c0.51593-0.77144 0.73338-1.716 0.70319-2.637 0.64201-0.59315 1.4598-1.1626 2.379-1.0583 0.55314-0.02041 1.227-0.06524 1.6165 0.41006 0.24033 0.45245 0.30272 1.2656 0.98879 1.2167 1.5029 0.1126 3.0003 0.32759 4.507 0.36793 0.5514 0.1308 1.0867 0.54745 1.1774 1.1333-0.14168 0.64395-0.9176 0.64071-1.4012 0.88498-0.84314 0.3679-1.7882 0.85658-2.7221 0.51662-1.0435-0.3817-1.9273-1.087-2.9484-1.5167-0.48087-0.27471-1.1694-0.42791-1.611 0.0026-0.43419 0.36789-0.96171 0.75924-1.5664 0.64029-0.37418-0.005-0.75347-0.0398-1.1228 0.03957z" style="opacity:.8;fill:url(#linearGradient8412);fill-rule:evenodd"/>
   <path id="path3905" d="m35.074 40.161c-1.1638 1.0619-3.0417 0.90209-4.2505 0.0019-1.6285-0.6778-3.2634-1.3431-4.9296-1.9237-1.2933-0.24194-2.6156 1.1718-2.1092 2.4401 0.32448 1.7849 0.94767 3.6279 0.45202 5.4427-0.40246 1.0393-1.3696 1.9303-1.2248 3.1273 0.38576 1.015 1.9237 0.97748 2.5122 0.17457 0.92849-1.058 1.2684-2.5603 0.95694-3.9252-0.12264-0.84317 0.0863-1.8352 0.87229-2.2965 0.98624-0.69014 2.2574-0.5764 3.3785-0.3835 0.80526 0.01164 1.7774-0.27031 2.4056 0.3995 0.70454 0.65082 1.8817 0.89362 2.6634 0.23412 0.63079-0.58437 1.7828-0.98982 1.9382-1.8511-0.25281-0.75727-1.1747-0.90578-1.6914-1.4397-0.28483-0.207-0.712-0.30143-0.97362-0.000334z" style="opacity:.8;fill:url(#linearGradient8414);fill-rule:evenodd"/>
   <path id="path3929" d="m50.193 57.917c-1.4329-0.31218-2.7847-0.91426-4.0561-1.6322-0.42537-0.16558-0.93352-0.50781-1.3776-0.22457-0.4242 0.57969 0.11102 1.3229 0.14802 1.9567 0.08461 0.71969 0.68639 1.376 0.44793 2.1307-0.3064 0.76806-1.1138 1.1254-1.7614 1.555-0.57988 0.17289-1.3117 0.54924-1.2755 1.2554-0.01056 0.66991-0.08175 1.3532 0.08685 2.0105 0.46457 0.58536 1.2853 0.37379 1.9164 0.57948 1.7203 0.10129 3.2998-0.72362 4.7717-1.5091 0.66494-0.29116 1.3768-0.54355 1.8751-1.1 1.0974-1.0635 1.7685-2.6861 1.4139-4.2099-0.24744-0.66696-1.1924-0.63254-1.4241-0.01116-0.44019 0.10555-0.50296-0.59539-0.76525-0.80085z" style="fill:url(#linearGradient8416);fill-rule:evenodd"/>
   <path id="path3948" d="m20.483 62.839c-0.46674 0.59652-0.69151 1.3579-0.70319 2.1096-0.22356 0.65518-1.1609 0.9144-1.0815 1.6934 0.19521 0.7839 0.51019 1.5737 1.0973 2.1488 0.40837 0.78106-0.04243 1.6578 0.12209 2.4771-0.0079 1.3177 0.2181 2.8701 1.3997 3.6636 0.87507 0.56158 1.7252 1.1861 2.4061 1.979 0.67101 0.41324 1.4193-0.45958 1.1884-1.1247-0.13756-1.2501-0.3556-2.4993-0.35314-3.7598-0.02536-0.80254 0.37689-1.524 0.88057-2.119 0.46259-0.6141 1.122-1.3128 0.87396-2.1498-0.27122-0.76007-1.0088-1.2958-1.7405-1.5734-0.67753-0.10564-1.4053 0.05333-2.0447-0.29585-0.6809-0.27256-1.1949-0.89224-1.3098-1.6201-0.15442-0.51535-0.37986-1.0195-0.73525-1.4289z" style="opacity:.8;fill:url(#linearGradient8418);fill-rule:evenodd"/>
  </g>
 </g>
</svg>
