<?xml version="1.0" encoding="UTF-8" standalone="no"?>
<!-- Created with Inkscape (http://www.inkscape.org/) -->

<svg
   xmlns:dc="http://purl.org/dc/elements/1.1/"
   xmlns:cc="http://creativecommons.org/ns#"
   xmlns:rdf="http://www.w3.org/1999/02/22-rdf-syntax-ns#"
   xmlns:svg="http://www.w3.org/2000/svg"
   xmlns="http://www.w3.org/2000/svg"
   xmlns:sodipodi="http://sodipodi.sourceforge.net/DTD/sodipodi-0.dtd"
   xmlns:inkscape="http://www.inkscape.org/namespaces/inkscape"
   id="svg3449"
   height="128"
   width="128"
   version="1.0"
   inkscape:version="0.48.4 r9939"
   sodipodi:docname="preferences-desktop.svg">
  <sodipodi:namedview
     pagecolor="#ffffff"
     bordercolor="#666666"
     borderopacity="1"
     objecttolerance="10"
     gridtolerance="10"
     guidetolerance="10"
     inkscape:pageopacity="0"
     inkscape:pageshadow="2"
     inkscape:window-width="1360"
     inkscape:window-height="707"
     id="namedview72"
     showgrid="false"
     inkscape:zoom="2.6074563"
     inkscape:cx="6.0768161"
     inkscape:cy="60.160678"
     inkscape:window-x="-2"
     inkscape:window-y="33"
     inkscape:window-maximized="1"
     inkscape:current-layer="svg3449" />
  <metadata
     id="metadata56">
    <rdf:RDF>
      <cc:Work
         rdf:about="">
        <dc:format>image/svg+xml</dc:format>
        <dc:type
           rdf:resource="http://purl.org/dc/dcmitype/StillImage" />
        <dc:title></dc:title>
      </cc:Work>
    </rdf:RDF>
  </metadata>
  <defs
     id="defs3451">
    <linearGradient
       id="linearGradient3514"
       y2="-9.1034"
       gradientUnits="userSpaceOnUse"
       x2="66.492"
       gradientTransform="matrix(.96826 0 0 .97948 2.179 .16587)"
       y1="-42.638"
       x1="67.952">
      <stop
         id="stop4620"
         style="stop-color:#37414b"
         offset="0" />
      <stop
         id="stop4622"
         style="stop-color:#37414b;stop-opacity:0"
         offset="1" />
    </linearGradient>
    <linearGradient
       id="linearGradient3516"
       y2="-11.847"
       gradientUnits="userSpaceOnUse"
       x2="58.98"
       gradientTransform="matrix(.96826 0 0 .97948 2.179 .16587)"
       y1="-118.55"
       x1="57.173">
      <stop
         id="stop4596"
         offset="0" />
      <stop
         id="stop4598"
         style="stop-opacity:0"
         offset="1" />
    </linearGradient>
    <linearGradient
       id="linearGradient3519"
       y2="50.369"
       gradientUnits="userSpaceOnUse"
       x2="76.558"
       gradientTransform="matrix(.96826 0 0 .97948 3.2423 -129.19)"
       y1="13.164"
       x1="76.558">
      <stop
         id="stop3392"
         style="stop-color:#425e7b"
         offset="0" />
      <stop
         id="stop3394"
         style="stop-color:#7a91a7"
         offset="1" />
    </linearGradient>
    <linearGradient
       id="linearGradient3521"
       y2="-8.7399"
       gradientUnits="userSpaceOnUse"
       x2="60.217"
       gradientTransform="matrix(.96826 0 0 .97948 2.179 .16587)"
       y1="-123.72"
       x1="60.395">
      <stop
         id="stop3392-4-8"
         style="stop-color:#425e7b"
         offset="0" />
      <stop
         id="stop3394-8-0"
         style="stop-color:#7a91a7"
         offset="1" />
    </linearGradient>
    <radialGradient
       id="radialGradient3349"
       gradientUnits="userSpaceOnUse"
       cy="45.647"
       cx="42.148"
       gradientTransform="matrix(.94690 0 0 1.139 3.5954 -29.89)"
       r="58.984">
      <stop
         id="stop2699-5"
         style="stop-color:#868686"
         offset="0" />
      <stop
         id="stop2701-7"
         style="stop-color:#4a4a4a"
         offset="1" />
    </radialGradient>
    <filter
       id="filter3174-5"
       color-interpolation-filters="sRGB">
      <feGaussianBlur
         id="feGaussianBlur3176-4"
         stdDeviation="1.71" />
    </filter>
    <linearGradient
       id="ButtonShadow-4"
       x1="45.448"
       gradientUnits="userSpaceOnUse"
       y1="92.54"
       gradientTransform="scale(1.0059 .99417)"
       x2="45.448"
       y2="7.0165">
      <stop
         id="stop3750-3"
         offset="0" />
      <stop
         id="stop3752-57"
         style="stop-opacity:.58824"
         offset="1" />
    </linearGradient>
    <filter
       id="filter3174-0"
       color-interpolation-filters="sRGB">
      <feGaussianBlur
         id="feGaussianBlur3176-9"
         stdDeviation="1.71" />
    </filter>
    <filter
       id="filter3174-7"
       color-interpolation-filters="sRGB">
      <feGaussianBlur
         id="feGaussianBlur3176-7"
         stdDeviation="1.71" />
    </filter>
    <clipPath
       id="clipPath3613-9">
      <rect
         id="rect3615-2"
         style="fill:#fff"
         rx="6"
         ry="6"
         height="84"
         width="84"
         y="6"
         x="6" />
    </clipPath>
    <linearGradient
       id="linearGradient3613-3"
       x1="48"
       gradientUnits="userSpaceOnUse"
       y1="20.221"
       x2="48"
       y2="138.66">
      <stop
         id="stop3739-03"
         style="stop-color:#fff"
         offset="0" />
      <stop
         id="stop3741-5"
         style="stop-color:#fff;stop-opacity:0"
         offset="1" />
    </linearGradient>
    <filter
       id="filter3794-30"
       height="1.384"
       width="1.384"
       color-interpolation-filters="sRGB"
       y="-.192"
       x="-.192">
      <feGaussianBlur
         id="feGaussianBlur3796-38"
         stdDeviation="5.28" />
    </filter>
    <filter
       id="filter3174-8"
       color-interpolation-filters="sRGB">
      <feGaussianBlur
         id="feGaussianBlur3176-3"
         stdDeviation="1.71" />
    </filter>
    <clipPath
       id="clipPath3613-26">
      <rect
         id="rect3615-4"
         style="fill:#fff"
         rx="6"
         ry="6"
         height="84"
         width="84"
         y="6"
         x="6" />
    </clipPath>
    <filter
       id="filter3794-67"
       height="1.384"
       width="1.384"
       color-interpolation-filters="sRGB"
       y="-.192"
       x="-.192">
      <feGaussianBlur
         id="feGaussianBlur3796-4"
         stdDeviation="5.28" />
    </filter>
    <filter
       id="filter3174-4"
       color-interpolation-filters="sRGB">
      <feGaussianBlur
         id="feGaussianBlur3176-0"
         stdDeviation="1.71" />
    </filter>
    <filter
       id="filter3174-1"
       color-interpolation-filters="sRGB">
      <feGaussianBlur
         id="feGaussianBlur3176-1"
         stdDeviation="1.71" />
    </filter>
    <linearGradient
       id="linearGradient9285"
       y2="7.0165"
       gradientUnits="userSpaceOnUse"
       x2="45.448"
       gradientTransform="matrix(1.0059 0 0 .99417 -59.657 2.8358)"
       y1="92.54"
       x1="45.448">
      <stop
         id="stop3750-7"
         offset="0" />
      <stop
         id="stop3752-3"
         style="stop-opacity:.58824"
         offset="1" />
    </linearGradient>
  </defs>
  <rect
     id="rect892"
     style="stroke:url(#linearGradient3521);stroke-width:.97385;fill:url(#linearGradient3519)"
     transform="scale(1,-1)"
     ry="29.296"
     height="115.54"
     width="114.22"
     y="-122.25"
     x="7.0394" />
  <rect
     id="rect892-2"
     style="stroke:url(#linearGradient3516);stroke-width:.97385;fill:url(#linearGradient3514)"
     transform="scale(1,-1)"
     ry="28.993"
     height="114.35"
     width="114.22"
     y="-121.46"
     x="7.0599" />
  <path
     id="rect895"
     style="fill:url(#radialGradient3349)"
     d="m 30.571,7.0104 c -13.128,0.936 -22.55,15.04 -23.173,23.288 -0.050142,0.97378 -0.088772,1.9648 -0.088772,2.9572 l 0,58.419 c 0,15.229 12.004705,29.76814 23.131559,29.8251 l 66.224441,0.33898 c 17.511942,0.0896 24.318002,-18.75008 24.318002,-28.16408 l 0,-64.017 c -0.21,-5.933 -12.29,-21.682 -25.926002,-22.618 -47.846,0.8653 -20.497,-0.0256 -64.483,-0.0256 z"
     inkscape:connector-curvature="0"
     sodipodi:nodetypes="ccssssscccc" />
  <rect
     id="rect892-2-7-8"
     style="opacity:.15891;stroke:#000;stroke-width:4.8445;fill:none"
     transform="scale(1,-1)"
     ry="28.993"
     height="114.35"
     width="114.22"
     y="-121.16"
     x="6.8683" />
  <rect
     id="rect892-2-7-1"
     style="opacity:.15891;stroke:#000;stroke-width:7.7512;fill:none"
     transform="scale(1,-1)"
     ry="28.993"
     height="114.35"
     width="114.22"
     y="-121.16"
     x="6.8686" />
  <rect
     id="rect892-2-7-2-9"
     ry="28.066999"
     style="fill:none;stroke:#000000;stroke-width:1.04890001"
     transform="scale(1,-1)"
     height="114.60831"
     width="113.66542"
     y="-122.20831"
     x="7.5389762" />
  <path
     id="path1187"
     style="fill:#fff;fill-opacity:.057143"
     d="m32.415 6.0906c-14.891-4.3298-32.779 19.454-27.93 26.295-0.04334 0.71563-0.07674 1.4439-0.07674 2.1732v10.76c25.899-25.61 66.753-35.479 90.375-39.179-0.22473-0.02628-0.45986-0.03062-0.69067-0.03062-41.576 0.38742-23.653-0.01876-61.677-0.01875z" />
  <g
     id="layer2"
     style="display:none"
     transform="translate(137.63 15.959)">
    <rect
       id="rect3745"
       style="opacity:.9;filter:url(#filter3174-5);fill:url(#ButtonShadow-4)"
       rx="6"
       ry="6"
       height="85"
       width="86"
       y="7"
       x="5" />
  </g>
  <g
     id="layer2-3"
     style="display:none"
     transform="translate(146.29 14.997)">
    <rect
       id="rect3745-4"
       style="opacity:.9;filter:url(#filter3174-0);fill:url(#ButtonShadow-4)"
       rx="6"
       ry="6"
       height="85"
       width="86"
       y="7"
       x="5" />
  </g>
  <g
     id="layer2-4"
     style="display:none"
     transform="translate(176.76 -8.736)">
    <rect
       id="rect3745-7"
       style="opacity:.9;filter:url(#filter3174-7);fill:url(#ButtonShadow-4)"
       rx="6"
       ry="6"
       height="85"
       width="86"
       y="7"
       x="5" />
  </g>
  <g
     id="layer2-2"
     style="display:none"
     transform="translate(143.15 5.055)">
    <rect
       id="rect3745-9"
       style="opacity:.9;filter:url(#filter3174-8);fill:url(#ButtonShadow-4)"
       rx="6"
       ry="6"
       height="85"
       width="86"
       y="7"
       x="5" />
  </g>
  <g
     id="layer5-4"
     style="display:none"
     transform="translate(143.15 5.055)">
    <rect
       id="rect3171-7"
       style="opacity:.3;filter:url(#filter3794-30);stroke:#fff;stroke-linecap:round;stroke-width:.5;fill:url(#linearGradient3613-3)"
       clip-path="url(#clipPath3613-9)"
       rx="12"
       ry="12"
       height="66"
       width="66"
       y="15"
       x="15" />
  </g>
  <g
     id="layer2-1"
     style="display:none"
     transform="translate(160.47 -5.8175)">
    <rect
       id="rect3745-8"
       style="opacity:.9;filter:url(#filter3174-4);fill:url(#ButtonShadow-4)"
       rx="6"
       ry="6"
       height="85"
       width="86"
       y="7"
       x="5" />
  </g>
  <g
     id="layer5-46"
     style="display:none"
     transform="translate(160.47 -5.8175)">
    <rect
       id="rect3171-2"
       style="opacity:.1;filter:url(#filter3794-67);stroke:#fff;stroke-linecap:round;stroke-width:.5;fill:url(#linearGradient3613-3)"
       clip-path="url(#clipPath3613-26)"
       rx="12"
       ry="12"
       height="66"
       width="66"
       y="15"
       x="15" />
  </g>
  <rect
     id="rect3745-82"
     style="opacity:.9;filter:url(#filter3174-1);display:none;fill:url(#linearGradient9285)"
     rx="6"
     ry="6"
     height="85"
     width="86"
     y="9.8358"
     x="-54.657" />
  <g
     transform="matrix(0.25,0,0,0.25,-1.8652166,-2.108353)"
     style="display:inline"
     id="g3310">
    <path
       inkscape:connector-curvature="0"
       id="path4407"
       d="m 304.46875,159.09375 c 1.05872,1.28847 2.23185,3.04118 3.71875,5.375 0.46887,0.73594 1.37449,1.26166 3.3125,1.6875 z m 45.34375,6.46875 c 1.94751,2.46278 2.2893,5.39782 1.0625,9 -1.21729,3.57421 -0.39907,5.7088 4.34375,11.375 5.0257,6.00418 5.97841,6.50205 12.34375,6.40625 7.06396,-0.10629 8.28621,1.04282 10.84375,10.3125 2.14238,7.76495 1.7654,9.59302 -2.46875,11.71875 -5.70015,2.86179 -6.8041,4.68207 -7.46875,12.15625 -0.68301,7.68116 -0.0928,9.22197 5.3125,13.625 3.67959,2.99732 3.57885,6.52148 -0.375,13.75 -3.36697,6.1556 -6.37755,7.46549 -12.78125,5.53125 -4.14878,-1.25315 -4.70673,-1.02369 -11.28125,4.46875 -6.0244,5.03287 -6.54154,6.18271 -5.9375,13.1875 0.45436,5.26893 -0.75386,6.51898 -8.90625,9.09375 -6.26615,1.97904 -7.09244,2.07255 -8.875,1.03125 -2.7499,-1.60639 -4.46123,-3.46081 -5.125,-5.5625 -0.87148,-2.75931 -4.2935,-4.23297 -11.0625,-4.78125 -7.59341,-0.61506 -8.66773,-0.2992 -12.65625,3.90625 -4.87716,5.1425 -6.3593,5.27628 -13.875,1.34375 -7.52772,-3.93885 -8.22953,-5.18976 -6.90625,-12.375 1.07786,-5.85256 1.22331,-5.4321 -4.25,-11.9375 -5.01738,-5.96352 -6.44332,-6.70825 -12.59375,-6.375 -5.853,0.31712 -7.22474,-0.86894 -9.625,-8.46875 -2.40167,-7.60434 -1.90818,-9.63188 3.09375,-13.21875 2.6782,-1.92051 4.03422,-3.20331 4.84375,-5.28125 l -13.375,-13.34375 c -2.00827,-2.22473 0.92756,1.18383 1.46875,1.84375 4.98963,6.08666 5.11066,11.51091 0.4375,17.09375 -3.09825,3.70135 -3.10772,6.62064 -0.0625,15.5625 3.22685,9.47523 4.1466,10.5254 11.78125,13.34375 8.47257,3.12767 9.4083,5.08037 8.1875,17.3125 -1.02264,10.24652 -2.3153,12.19706 -8.34375,12.78125 -8.11575,0.78649 -10.29525,2.45591 -14.53125,11.0625 -4.35331,8.84491 -4.32332,10.94675 0.0937,18.6875 3.00694,5.26946 1.2326,9.48297 -6.8125,16.28125 -6.85099,5.7892 -11.03611,5.94427 -17.78125,0.6875 -4.36998,-3.40572 -5.12965,-3.39566 -15.5,0.125 -9.50264,3.22609 -10.68063,4.36868 -13.1875,13 -1.88563,6.49239 -3.87351,7.40428 -14.78125,6.71875 -8.38398,-0.52691 -9.44783,-0.81202 -11.09375,-2.875 -2.53911,-3.18248 -3.70798,-6.18798 -3.53125,-9 0.23203,-3.69191 -3.14947,-7.0089 -10.96875,-10.78125 -8.77159,-4.23178 -10.1813,-4.33364 -16.875,-1.15625 -6.55178,3.11004 -9.06702,3.40742 -13.46875,-0.78125 L 280.03125,492 l 113.625,0 C 440.8919,492 492,445.77583 492,393.65625 l 0,-84 z M 196.25,186.9375 c 1.48071,2.1447 2.33249,5.60449 3.5,11.40625 0.43358,2.15469 3.17164,4.00269 13.59375,9.125 1.77891,0.87431 3.19346,1.43183 4.5625,1.65625 z m 183.53125,71.75 c 0.87622,-0.0213 1.93553,0.0825 3.25,0.25 3.57092,0.45501 5.33007,2.20736 5.53125,5.53125 0.13333,2.20372 1.0531,3.17257 4.875,5.1875 4.04984,2.13513 4.67075,2.21235 8.09375,0.75 3.79868,-1.62286 4.71827,-1.26148 8.15625,3.1875 2.8799,3.72679 3.07001,4.78652 1.25,6.875 -2.45013,2.81161 -2.64036,4.02727 -1.34375,8.21875 1.33255,4.30754 2.00584,5.00286 5.90625,6.1875 2.65518,0.80644 3.38133,2.77508 2.84375,7.5625 -0.45778,4.07683 -1.79391,5.44008 -5.6875,5.8125 -2.52255,0.2413 -2.78469,0.47746 -5.125,4.90625 -2.14448,4.05821 -2.16028,4.81238 -0.28125,8.46875 1.41343,2.75028 1.02812,3.67529 -2.8125,6.875 -2.95199,2.45935 -3.39848,2.69968 -4.59375,2.53125 -1.84392,-0.25983 -3.17512,-0.88489 -4,-1.875 -1.083,-1.29992 -3.24712,-1.32831 -7.03125,-0.125 -4.24499,1.34987 -4.74252,1.74688 -5.96875,4.90625 -1.49942,3.8633 -2.28065,4.2749 -7.21875,3.8125 -4.94598,-0.46316 -5.59255,-1.0064 -6.46875,-5.1875 -0.71368,-3.40559 -0.56564,-3.19286 -4.96875,-5.5 -4.03634,-2.11498 -4.96466,-2.19948 -8.21875,-0.65625 -3.0967,1.46858 -4.11091,1.11153 -7.09375,-2.46875 -2.98459,-3.58243 -3.16167,-4.76327 -1.25,-7.8125 1.6789,-2.67792 1.78359,-3.66478 0.84375,-7.09375 -1.24104,-4.52785 -2.02836,-5.56933 -5.25,-6.90625 -3.59676,-1.49256 -4.1295,-2.4666 -3.75,-7.03125 0.33672,-4.04969 2.18581,-6.3623 5.125,-6.4375 2.42392,-0.0621 3.28984,-0.79073 5.3125,-4.4375 2.22589,-4.01347 2.35382,-5.22831 1,-8.59375 -1.48699,-3.69652 -1.27604,-4.26035 2.5,-7.40625 4.07465,-3.39469 4.64446,-3.39936 9.8125,0.25 0.82118,0.57987 2.30162,0.35378 7.375,-1.21875 2.45009,-0.75943 3.12166,-1.46269 4.34375,-4.4375 1.22522,-2.98246 2.21508,-4.061 4.84375,-4.125 z M 96.15625,277.15625 113.75,294.25 l -0.4375,-1.375 c -3.23568,-9.42292 -4.63724,-10.93884 -12.125,-13.375 -2.22677,-0.72449 -3.857983,-1.41647 -5.03125,-2.34375 z"
       style="color:#000000;fill:#000000;fill-opacity:0.23529412;fill-rule:evenodd;stroke:none;marker:none;visibility:visible;display:inline;overflow:visible;enable-background:accumulate"
       sodipodi:nodetypes="cscccsssssssssssssssssssssscccsssssscsssssssssccsscccsscccscssssssssscssssssssssssssccsssssccccsc" />
    <g
       id="g5474"
       transform="translate(-2.6217376,66.214062)">
      <g
         transform="matrix(0.95771473,0.04185466,-0.04185466,0.95771473,-38.803379,-25.698082)"
         id="g5470">
        <g
           id="g5485"
           transform="matrix(0.8717641,0,0,0.8717641,20.162276,39.409323)">
          <g
             id="g5490"
             transform="translate(-2.562435,17.823845)">
            <path
               style="color:#000000;fill:#f2f2f2;fill-opacity:1;fill-rule:evenodd;stroke:none;marker:none;visibility:visible;display:inline;overflow:visible;enable-background:accumulate"
               d="m 241.30246,299.51505 c -3.20168,-3.67188 -4.77395,-7.20135 -4.70959,-10.57225 0.0845,-4.42567 -4.13464,-8.2285 -13.67939,-12.32969 -10.7072,-4.60067 -12.4082,-4.64218 -20.24427,-0.49401 -9.58198,5.07242 -11.79701,4.5592 -20.77111,-4.81264 -8.98847,-9.38684 -9.39322,-11.56453 -3.96526,-21.33409 4.42122,-7.95755 4.43256,-7.27989 -0.32409,-19.3838 -4.36043,-11.09571 -6.10531,-12.86368 -15.18393,-15.38482 -8.63959,-2.39924 -10.01176,-4.78039 -9.77903,-16.96972 0.23287,-12.19661 1.91603,-14.92167 10.91907,-17.67804 7.90676,-2.42074 9.77897,-4.11879 13.79293,-12.50991 5.30032,-11.0802 5.52134,-14.57033 1.43961,-22.73195 -4.557,-9.11189 -3.91392,-11.91564 4.6544,-20.29317 7.60171,-7.43241 15.21284,-8.86395 21.15447,-3.97881 4.90002,4.02871 7.83659,4.08306 18.08254,0.33484 11.27591,-4.12521 13.63119,-6.27342 16.71763,-15.24794 3.39002,-9.857294 4.76584,-10.6713 17.62161,-10.425849 13.8724,0.264862 14.99319,1.290816 18.96385,17.359279 0.6309,2.5532 4.01244,4.61189 16.7393,10.19092 6.14616,2.69428 8.65254,2.49315 16.16427,-1.29707 10.04151,-5.06668 13.36528,-4.15987 22.61635,6.17013 6.28292,7.01569 6.7441,13.52 1.44919,20.43823 -3.51047,4.5867 -3.37324,8.0607 0.73437,18.59127 4.35261,11.1587 5.50243,12.35089 14.77662,15.32125 10.29205,3.29636 11.49945,5.58873 10.67909,20.27557 -0.6872,12.30277 -2.11987,14.72892 -9.29614,15.74225 -9.66099,1.36423 -12.17651,3.45669 -16.79084,13.96686 -4.74206,10.8012 -4.6219,13.32745 1.06302,22.35046 3.86999,6.14235 1.99931,11.23827 -7.26314,19.78568 -7.88765,7.27871 -12.87913,7.69302 -21.21733,1.76114 -5.40208,-3.8431 -6.33299,-3.79515 -18.54643,0.95547 -11.19151,4.35314 -12.5189,5.78347 -15.06483,16.23286 -1.91501,7.85993 -4.27222,9.05661 -17.34784,8.80696 -10.05027,-0.19188 -11.30968,-0.45903 -13.3851,-2.83925 z m 27.85483,-70.19767 c 21.40319,-9.68152 26.63167,-36.37992 10.49582,-53.59511 -16.61561,-17.72699 -45.82393,-11.87546 -54.84013,10.98656 -10.9005,27.63991 17.37442,54.80809 44.34431,42.60855 z"
               id="path3774"
               inkscape:connector-curvature="0" />
            <path
               inkscape:connector-curvature="0"
               id="path5468"
               d="m 431.09933,212.71007 c -3.37133,-1.77671 -5.51358,-3.90885 -6.4169,-6.38667 -1.18598,-3.25312 -5.33663,-4.83856 -13.45737,-5.14036 -9.10977,-0.33856 -10.36266,0.11068 -14.91107,5.34652 -5.56179,6.40247 -7.32274,6.65242 -16.51294,2.34388 -9.2049,-4.31546 -10.11415,-5.79035 -8.90761,-14.44917 0.98278,-7.05283 1.18208,-6.56155 -5.70093,-14.05256 -6.30966,-6.86704 -8.08128,-7.66521 -15.41648,-6.94549 -6.98048,0.68489 -8.65298,-0.66575 -11.91945,-9.62564 -3.26839,-8.96523 -2.8084,-11.42814 2.98383,-15.97744 5.08696,-3.99533 5.97436,-5.76215 6.53774,-13.01653 0.74392,-9.57918 -0.0787,-12.18816 -5.35786,-16.99283 -5.89387,-5.36409 -6.21503,-7.59122 -2.32462,-16.11959 3.45156,-7.566224 8.60166,-10.756432 14.3143,-8.866849 4.71117,1.558294 6.86922,0.770116 13.28886,-4.853165 7.06484,-6.188843 8.17784,-8.420326 7.89996,-15.838916 -0.30519,-8.148322 0.4692,-9.130138 9.91896,-12.575181 10.19705,-3.717483 11.30408,-3.284829 18.73121,7.320605 1.18014,1.685159 4.22792,2.234053 15.0872,2.71714 5.24426,0.233306 7.01639,-0.62002 11.42905,-5.503283 5.89872,-6.527818 8.57964,-6.803152 18.24205,-1.873527 6.56228,3.34798 8.73241,7.964021 6.81915,14.504775 -1.26849,4.336436 -0.18901,6.83266 5.77689,13.358605 6.32173,6.915213 7.49681,7.460977 15.10134,7.013916 8.43915,-0.496126 9.9664,0.836173 13.50814,11.78412 2.96681,9.17078 2.60539,11.34496 -2.34532,14.1074 -6.66481,3.71897 -7.91045,5.95494 -8.31453,14.92477 -0.41521,9.21823 0.38463,11.02771 7.07645,16.00897 4.55541,3.39095 4.62701,7.6367 0.27798,16.4847 -3.70349,7.5347 -7.22888,9.24416 -14.98532,7.26641 -5.02518,-1.28134 -5.69091,-0.98392 -13.26355,5.92558 -6.93901,6.33136 -7.50436,7.74924 -6.41629,16.09165 0.81844,6.27507 -0.56421,7.81277 -10.17557,11.31673 -7.38756,2.69324 -8.38183,2.85335 -10.56722,1.70164 z m 0.53575,-59.07418 c 12.88812,-13.09812 9.17673,-34.0533 -7.45034,-42.06599 -17.12141,-8.2509 -36.78448,4.25288 -36.91841,23.47651 -0.16194,23.24117 28.12858,35.09426 44.36875,18.58948 z"
               style="color:#000000;fill:#f2f2f2;fill-opacity:1;fill-rule:evenodd;stroke:none;marker:none;visibility:visible;display:inline;overflow:visible;enable-background:accumulate" />
            <path
               style="color:#000000;fill:#f2f2f2;fill-opacity:1;fill-rule:evenodd;stroke:none;marker:none;visibility:visible;display:inline;overflow:visible;enable-background:accumulate"
               d="m 522.13987,261.21821 c -2.21791,-0.21428 -3.84953,-0.89325 -4.88737,-2.03379 -1.3626,-1.49743 -3.9598,-1.43553 -8.42072,0.20068 -5.00421,1.8355 -5.58261,2.3562 -6.88346,6.19717 -1.59066,4.69677 -2.48811,5.22223 -8.41558,4.92744 -5.93694,-0.29529 -6.75576,-0.89185 -8.02167,-5.84442 -1.0311,-4.03397 -0.8144,-3.81232 -6.19869,-6.34038 -4.93579,-2.3175 -6.07127,-2.35679 -9.88079,-0.34191 -3.62527,1.91742 -4.82955,1.55723 -8.58248,-2.56703 -3.75513,-4.12673 -4.05201,-5.56131 -1.92599,-9.30643 1.86715,-3.28907 1.95579,-4.44173 0.6531,-8.49183 -1.72018,-5.34804 -2.74341,-6.57745 -6.66461,-8.00737 -4.37777,-1.59639 -5.04506,-2.73031 -4.82986,-8.20701 0.19096,-4.85885 2.2707,-7.72627 5.78047,-7.96973 2.89447,-0.20084 3.88752,-1.10549 6.11501,-5.57074 2.45129,-4.91425 2.55904,-6.36832 0.76477,-10.32085 -1.97077,-4.34136 -1.76933,-5.04421 2.58043,-9.0023 4.69374,-4.27111 5.38861,-4.28231 11.75747,-0.18964 1.01198,0.65031 2.78274,0.27193 8.76562,-1.87303 2.88932,-1.03587 3.6591,-1.89029 4.96464,-5.51041 1.74519,-4.83924 3.1348,-5.58231 9.4554,-5.05609 4.29268,0.35739 6.48981,2.3742 6.90397,6.33728 0.27453,2.6275 1.4118,3.73897 6.08601,5.94807 4.95299,2.34089 5.70976,2.3758 9.72543,0.44878 4.45639,-2.13853 5.57798,-1.75606 9.9204,3.38292 3.63752,4.30478 3.92374,5.56128 1.8571,8.15307 -2.78215,3.48918 -2.96067,4.97507 -1.19164,9.91809 1.81806,5.07989 2.65181,5.88175 7.3765,7.09417 3.2163,0.82535 4.19589,3.10682 3.80335,8.85809 -0.33427,4.89762 -1.86301,6.60381 -6.49819,7.25245 -3.00301,0.42025 -3.29732,0.72869 -5.86369,6.14541 -2.35162,4.96348 -2.34334,5.85596 0.094,10.12884 1.83339,3.21401 1.426,4.35243 -2.99815,8.37822 -3.40051,3.09432 -3.90303,3.40128 -5.34073,3.26237 z M 509.33921,229.1351 c 4.07113,-9.94319 -2.58062,-20.4594 -13.35293,-21.11049 -11.09256,-0.67045 -18.96127,10.45245 -14.77386,20.88383 5.06249,12.61142 22.99678,12.75596 28.12679,0.22666 z"
               id="path5483"
               inkscape:connector-curvature="0" />
          </g>
          <g
             transform="translate(-2.562435,17.823845)"
             id="g5497"
             style="fill:#000000;fill-opacity:0.23529412" />
        </g>
      </g>
    </g>
  </g>
</svg>
