<?xml version="1.0" encoding="UTF-8" standalone="no"?>
<!-- Created with Inkscape (http://www.inkscape.org/) -->

<svg
   xmlns:dc="http://purl.org/dc/elements/1.1/"
   xmlns:cc="http://creativecommons.org/ns#"
   xmlns:rdf="http://www.w3.org/1999/02/22-rdf-syntax-ns#"
   xmlns:svg="http://www.w3.org/2000/svg"
   xmlns="http://www.w3.org/2000/svg"
   xmlns:xlink="http://www.w3.org/1999/xlink"
   xmlns:sodipodi="http://sodipodi.sourceforge.net/DTD/sodipodi-0.dtd"
   xmlns:inkscape="http://www.inkscape.org/namespaces/inkscape"
   width="128"
   height="128"
   id="svg4468"
   version="1.1"
   inkscape:version="0.91 r"
   viewBox="0 0 128 128"
   sodipodi:docname="visualboyadvance.svg">
  <sodipodi:namedview
     id="base"
     pagecolor="#ffffff"
     bordercolor="#666666"
     borderopacity="1.0"
     inkscape:pageopacity="0"
     inkscape:pageshadow="2"
     inkscape:zoom="1.75"
     inkscape:cx="49.274363"
     inkscape:cy="13.531387"
     inkscape:current-layer="layer1"
     showgrid="true"
     inkscape:grid-bbox="true"
     inkscape:document-units="px"
     inkscape:window-width="1366"
     inkscape:window-height="744"
     inkscape:window-x="0"
     inkscape:window-y="24"
     inkscape:window-maximized="1" />
  <defs
     id="defs4470">
    <linearGradient
       inkscape:collect="always"
       id="linearGradient4321">
      <stop
         style="stop-color:#f50057;stop-opacity:1;"
         offset="0"
         id="stop4323" />
      <stop
         style="stop-color:#ff1744;stop-opacity:1"
         offset="1"
         id="stop4325" />
    </linearGradient>
    <linearGradient
       inkscape:collect="always"
       id="linearGradient4289">
      <stop
         style="stop-color:#b3b3b3;stop-opacity:1"
         offset="0"
         id="stop4291" />
      <stop
         style="stop-color:#f2f2f2;stop-opacity:1"
         offset="1"
         id="stop4293" />
    </linearGradient>
    <linearGradient
       inkscape:collect="always"
       xlink:href="#linearGradient4289"
       id="linearGradient4295"
       x1="23.907377"
       y1="23.843342"
       x2="23.835575"
       y2="2.8321688"
       gradientUnits="userSpaceOnUse"
       gradientTransform="matrix(2.5567011,0,0,2.5567011,0.53166443,-77.714286)" />
    <linearGradient
       inkscape:collect="always"
       xlink:href="#linearGradient4289"
       id="linearGradient4303"
       x1="36.391533"
       y1="33.205471"
       x2="36.446423"
       y2="28.760799"
       gradientUnits="userSpaceOnUse"
       gradientTransform="matrix(2.5567011,0,0,2.5567011,1.2621504,-73.696613)" />
    <linearGradient
       inkscape:collect="always"
       xlink:href="#linearGradient4289"
       id="linearGradient4311"
       x1="31.98447"
       y1="40.283508"
       x2="31.931629"
       y2="34.222595"
       gradientUnits="userSpaceOnUse"
       gradientTransform="matrix(2.5567011,0,0,2.5567011,-0.19882158,-75.157585)" />
    <radialGradient
       inkscape:collect="always"
       xlink:href="#linearGradient4289"
       id="radialGradient4319"
       cx="14.831183"
       cy="33.774925"
       fx="14.831183"
       fy="33.774925"
       r="3.4896245"
       gradientTransform="matrix(1.3692077,0.05662711,-0.05985317,1.4472111,20.165132,-41.081206)"
       gradientUnits="userSpaceOnUse" />
    <linearGradient
       inkscape:collect="always"
       xlink:href="#linearGradient4321"
       id="linearGradient4327"
       x1="24.714285"
       y1="48.285713"
       x2="24.432728"
       y2="-19"
       gradientUnits="userSpaceOnUse"
       gradientTransform="matrix(2.5567011,0,0,2.5567011,0.53166443,-77.714286)" />
  </defs>
  <metadata
     id="metadata4473">
    <rdf:RDF>
      <cc:Work
         rdf:about="">
        <dc:format>image/svg+xml</dc:format>
        <dc:type
           rdf:resource="http://purl.org/dc/dcmitype/StillImage" />
        <dc:title></dc:title>
      </cc:Work>
    </rdf:RDF>
  </metadata>
  <g
     id="layer1"
     inkscape:label="Layer 1"
     inkscape:groupmode="layer"
     transform="translate(0,80)">
    <rect
       rx="6.2476482"
       ry="6.2476482"
       y="-76.435936"
       x="18.428572"
       height="122.72165"
       width="90.590897"
       id="rect4329"
       style="opacity:1;fill:#000000;fill-opacity:0.54901961;stroke:none;stroke-width:2;stroke-linejoin:miter;stroke-miterlimit:4;stroke-dasharray:none;stroke-opacity:0.07843137" />
    <rect
       style="opacity:1;fill:url(#linearGradient4327);fill-opacity:1;stroke:none;stroke-width:2;stroke-linejoin:miter;stroke-miterlimit:4;stroke-dasharray:none;stroke-opacity:0.07843137"
       id="rect5016"
       width="90.590897"
       height="122.72165"
       x="18.428572"
       y="-77.714287"
       ry="6.2476482"
       rx="6.2476482" />
    <rect
       ry="4.2248979"
       rx="3.8686137"
       y="-72.043587"
       x="24.29423"
       height="56.734348"
       width="78.477585"
       id="rect4142"
       style="opacity:1;fill:#000000;fill-opacity:0.35294118;stroke:none;stroke-width:2;stroke-linejoin:miter;stroke-miterlimit:4;stroke-dasharray:none;stroke-opacity:0.07843137" />
    <rect
       style="opacity:1;fill:url(#linearGradient4295);fill-opacity:1;stroke:none;stroke-width:2;stroke-linejoin:miter;stroke-miterlimit:4;stroke-dasharray:none;stroke-opacity:0.07843137"
       id="rect5018"
       width="74.971771"
       height="53.105011"
       x="26.014999"
       y="-70.166138"
       rx="3.695792"
       ry="3.9546282" />
    <circle
       style="opacity:1;fill:#000000;fill-opacity:0.35294118;stroke:none;stroke-width:2;stroke-linejoin:miter;stroke-miterlimit:4;stroke-dasharray:none;stroke-opacity:0.07843137"
       id="path5028"
       cx="38.411301"
       cy="8.9144077"
       r="12.495296" />
    <path
       style="opacity:1;fill:url(#radialGradient4319);fill-opacity:1;stroke:none;stroke-width:2;stroke-linejoin:miter;stroke-miterlimit:4;stroke-dasharray:none;stroke-opacity:0.07843137"
       d="m 35.631479,-0.28382291 c -0.439353,0 -0.797705,0.3506152 -0.797705,0.78996014 l 0,4.74752087 -4.515181,0 c -0.439356,0 -0.789955,0.3506126 -0.789955,0.7899653 l 0,5.5529676 c 0,0.439353 0.35061,0.78996 0.789955,0.78996 l 4.515181,0 0,4.375777 c 0,0.439353 0.358342,0.797705 0.797705,0.797705 l 5.545228,0 c 0.439355,0 0.797708,-0.358345 0.797708,-0.797705 l 0,-4.375777 4.600366,0 c 0.439358,0 0.79771,-0.35061 0.79771,-0.78996 l 0,-5.5529676 c 0,-0.4393579 -0.358344,-0.7899653 -0.79771,-0.7899653 l -4.600366,0 0,-4.74752087 c -6e-6,-0.43935264 -0.358345,-0.78996014 -0.797708,-0.78996014 l -5.545228,0 z"
       id="rect5020"
       inkscape:connector-curvature="0" />
    <g
       id="g4158"
       style="opacity:1;fill:#ffffff;fill-opacity:1;stroke:none;stroke-width:2;stroke-linejoin:miter;stroke-miterlimit:4;stroke-dasharray:none;stroke-opacity:0.07843137"
       transform="matrix(1.2092221,0,0,1.2092221,-2.6737772,-7.0825872)" />
    <g
       style="opacity:1;fill:#ffffff;fill-opacity:1;stroke:none;stroke-width:2;stroke-linejoin:miter;stroke-miterlimit:4;stroke-dasharray:none;stroke-opacity:0.07843137"
       id="g4189"
       transform="matrix(1.2092221,0,0,1.2092221,-2.6737772,-7.0825872)" />
    <g
       id="g4222"
       style="opacity:1;fill:#ffffff;fill-opacity:1;stroke:none;stroke-width:2;stroke-linejoin:miter;stroke-miterlimit:4;stroke-dasharray:none;stroke-opacity:0.07843137"
       transform="matrix(1.2092221,0,0,1.2092221,-2.6737772,-7.0825872)" />
    <path
       inkscape:transform-center-y="5.578257"
       inkscape:transform-center-x="15.395989"
       id="path5024"
       d="M 99.868341,5.7762742 A 5.6228831,5.6228831 0 0 1 94.245458,11.399155 5.6228831,5.6228831 0 0 1 88.622575,5.7762742 5.6228831,5.6228831 0 0 1 94.245458,0.15338819 5.6228831,5.6228831 0 0 1 99.868341,5.7762742 Z"
       style="opacity:1;fill:url(#linearGradient4303);fill-opacity:1;stroke:none;stroke-width:2;stroke-linejoin:miter;stroke-miterlimit:4;stroke-dasharray:none;stroke-opacity:0.07843137"
       inkscape:connector-curvature="0" />
    <g
       style="opacity:1;fill:#ffffff;fill-opacity:1;stroke:none;stroke-width:2;stroke-linejoin:miter;stroke-miterlimit:4;stroke-dasharray:none;stroke-opacity:0.07843137"
       id="g4258"
       transform="matrix(1.2092221,0,0,1.2092221,-2.6737772,-7.0825872)" />
    <path
       inkscape:connector-curvature="0"
       style="opacity:1;fill:url(#linearGradient4311);fill-opacity:1;stroke:none;stroke-width:2;stroke-linejoin:miter;stroke-miterlimit:4;stroke-dasharray:none;stroke-opacity:0.07843137"
       d="m 89.447048,20.087339 a 7.8095601,7.8095601 0 0 1 -7.809564,7.809556 7.8095601,7.8095601 0 0 1 -7.809556,-7.809556 7.8095601,7.8095601 0 0 1 7.809556,-7.809562 7.8095601,7.8095601 0 0 1 7.809564,7.809562 z"
       id="path5026" />
    <path
       style="opacity:1;fill:#000000;fill-opacity:0.07843137;stroke:none;stroke-width:2;stroke-linejoin:miter;stroke-miterlimit:4;stroke-dasharray:none;stroke-opacity:0.07843137"
       d="m 99.905981,-18.217409 c -0.668012,0.714801 -1.591962,1.155742 -2.615695,1.155742 l -67.58019,0 c -2.04747,0 -3.695793,-1.763765 -3.695793,-3.954628 l 0,-45.195752 c 0,-1.095432 0.412082,-2.084089 1.080096,-2.798889 z"
       id="rect4286"
       inkscape:connector-curvature="0"
       sodipodi:nodetypes="csssscc" />
  </g>
</svg>
