<?xml version="1.0" encoding="UTF-8" standalone="no"?>
<!-- Created with Inkscape (http://www.inkscape.org/) -->
<svg id="svg3449" xmlns:rdf="http://www.w3.org/1999/02/22-rdf-syntax-ns#" xmlns="http://www.w3.org/2000/svg" height="128" width="128" version="1.0" xmlns:cc="http://creativecommons.org/ns#" xmlns:xlink="http://www.w3.org/1999/xlink" xmlns:dc="http://purl.org/dc/elements/1.1/">
 <metadata id="metadata56">
  <rdf:RDF>
   <cc:Work rdf:about="">
    <dc:format>image/svg+xml</dc:format>
    <dc:type rdf:resource="http://purl.org/dc/dcmitype/StillImage"/>
    <dc:title/>
   </cc:Work>
  </rdf:RDF>
 </metadata>
 <defs id="defs3451">
  <filter id="filter3174-1" color-interpolation-filters="sRGB">
   <feGaussianBlur id="feGaussianBlur3176-0" stdDeviation="1.71"/>
  </filter>
  <linearGradient id="ButtonShadow-9" x1="45.448" gradientUnits="userSpaceOnUse" y1="92.54" gradientTransform="scale(1.0059 .99417)" x2="45.448" y2="7.0165">
   <stop id="stop3750-6" offset="0"/>
   <stop id="stop3752-7" style="stop-opacity:.58824" offset="1"/>
  </linearGradient>
  <filter id="filter3174-9" color-interpolation-filters="sRGB">
   <feGaussianBlur id="feGaussianBlur3176-5" stdDeviation="1.71"/>
  </filter>
  <filter id="filter3174-6" color-interpolation-filters="sRGB">
   <feGaussianBlur id="feGaussianBlur3176-1" stdDeviation="1.71"/>
  </filter>
  <filter id="filter3174-69" color-interpolation-filters="sRGB">
   <feGaussianBlur id="feGaussianBlur3176-2" stdDeviation="1.71"/>
  </filter>
  <linearGradient id="linearGradient7212" y2="7.0165" gradientUnits="userSpaceOnUse" x2="45.448" gradientTransform="matrix(1.0059 0 0 .99417 -350.06 -144.69)" y1="92.54" x1="45.448">
   <stop id="stop3750-2" offset="0"/>
   <stop id="stop3752-1" style="stop-opacity:.58824" offset="1"/>
  </linearGradient>
  <filter id="filter3174-93" color-interpolation-filters="sRGB">
   <feGaussianBlur id="feGaussianBlur3176-14" stdDeviation="1.71"/>
  </filter>
  <linearGradient id="linearGradient7745" y2="7.0165" gradientUnits="userSpaceOnUse" x2="45.448" gradientTransform="matrix(1.0059 0 0 .99417 188.83 18.712)" y1="92.54" x1="45.448">
   <stop id="stop3750-9" offset="0"/>
   <stop id="stop3752-59" style="stop-opacity:.58824" offset="1"/>
  </linearGradient>
  <filter id="filter3174-7" color-interpolation-filters="sRGB">
   <feGaussianBlur id="feGaussianBlur3176-4" stdDeviation="1.71"/>
  </filter>
  <linearGradient id="linearGradient8354" y2="7.0165" gradientUnits="userSpaceOnUse" x2="45.448" gradientTransform="matrix(1.0059 0 0 .99417 -241.74 36.163)" y1="92.54" x1="45.448">
   <stop id="stop3750-51" offset="0"/>
   <stop id="stop3752-15" style="stop-opacity:.58824" offset="1"/>
  </linearGradient>
  <filter id="filter3174-5" color-interpolation-filters="sRGB">
   <feGaussianBlur id="feGaussianBlur3176-41" stdDeviation="1.71"/>
  </filter>
  <linearGradient id="linearGradient8868" y2="46.187" gradientUnits="userSpaceOnUse" x2="81.065" gradientTransform="matrix(0 -.99172 1.0682 0 204.83 128.46)" y1="46.187" x1="10.48">
   <stop id="stop3270-48" style="stop-color:#e4e4e4" offset="0"/>
   <stop id="stop3272-9" style="stop-color:#7a7a7a" offset="1"/>
  </linearGradient>
  <linearGradient id="linearGradient8873" y2="5.9877" gradientUnits="userSpaceOnUse" x2="48" gradientTransform="translate(206.17 35.062)" y1="90" x1="48">
   <stop id="stop3259" style="stop-color:#aaa" offset="0"/>
   <stop id="stop3261" style="stop-color:#d2d2d2" offset="1"/>
  </linearGradient>
  <linearGradient id="linearGradient8941" y2="5.9877" gradientUnits="userSpaceOnUse" x2="48" gradientTransform="translate(206.17 35.062)" y1="90" x1="48">
   <stop id="stop3702-8" style="stop-color:#212121" offset="0"/>
   <stop id="stop3704-2" style="stop-color:#444" offset="1"/>
  </linearGradient>
  <linearGradient id="linearGradient8971" y2="7.0165" gradientUnits="userSpaceOnUse" x2="45.448" gradientTransform="matrix(1.0059 0 0 .99417 206.17 35.062)" y1="92.54" x1="45.448">
   <stop id="stop3750-7" offset="0"/>
   <stop id="stop3752-98" style="stop-opacity:.58824" offset="1"/>
  </linearGradient>
  <filter id="filter3174-6-5" color-interpolation-filters="sRGB">
   <feGaussianBlur id="feGaussianBlur3176-1-5" stdDeviation="1.71"/>
  </filter>
  <filter id="filter3174-9-5" color-interpolation-filters="sRGB">
   <feGaussianBlur id="feGaussianBlur3176-5-5" stdDeviation="1.71"/>
  </filter>
  <filter id="filter3174-1-1" color-interpolation-filters="sRGB">
   <feGaussianBlur id="feGaussianBlur3176-0-1" stdDeviation="1.71"/>
  </filter>
  <filter id="filter3174-6-7" color-interpolation-filters="sRGB">
   <feGaussianBlur id="feGaussianBlur3176-1-6" stdDeviation="1.71"/>
  </filter>
  <filter id="filter3174-9-1" color-interpolation-filters="sRGB">
   <feGaussianBlur id="feGaussianBlur3176-5-7" stdDeviation="1.71"/>
  </filter>
  <filter id="filter3174-1-13" color-interpolation-filters="sRGB">
   <feGaussianBlur id="feGaussianBlur3176-0-6" stdDeviation="1.71"/>
  </filter>
  <linearGradient id="linearGradient26518" y2="7.0165" gradientUnits="userSpaceOnUse" x2="45.448" gradientTransform="matrix(1.0059 0 0 .99417 332.3 -12.047)" y1="92.54" x1="45.448">
   <stop id="stop3750-6-81" offset="0"/>
   <stop id="stop3752-7-9" style="stop-opacity:.58824" offset="1"/>
  </linearGradient>
  <linearGradient id="linearGradient15646" y2="63.384" gradientUnits="userSpaceOnUse" x2="99.325" y1="63.384" x1="9.2629">
   <stop id="stop15642" style="stop-color:#fff" offset="0"/>
   <stop id="stop15644" style="stop-color:#fff;stop-opacity:0" offset="1"/>
  </linearGradient>
  <filter id="filter3174-1-13-9" color-interpolation-filters="sRGB">
   <feGaussianBlur id="feGaussianBlur3176-0-6-6" stdDeviation="1.71"/>
  </filter>
  <filter id="filter3174-9-1-9" color-interpolation-filters="sRGB">
   <feGaussianBlur id="feGaussianBlur3176-5-7-4" stdDeviation="1.71"/>
  </filter>
  <filter id="filter3174-6-7-3" color-interpolation-filters="sRGB">
   <feGaussianBlur id="feGaussianBlur3176-1-6-5" stdDeviation="1.71"/>
  </filter>
  <filter id="filter3174-1-1-5" color-interpolation-filters="sRGB">
   <feGaussianBlur id="feGaussianBlur3176-0-1-1" stdDeviation="1.71"/>
  </filter>
  <filter id="filter3174-9-5-7" color-interpolation-filters="sRGB">
   <feGaussianBlur id="feGaussianBlur3176-5-5-7" stdDeviation="1.71"/>
  </filter>
  <filter id="filter3174-6-5-6" color-interpolation-filters="sRGB">
   <feGaussianBlur id="feGaussianBlur3176-1-5-1" stdDeviation="1.71"/>
  </filter>
  <filter id="filter3174-5-1" color-interpolation-filters="sRGB">
   <feGaussianBlur id="feGaussianBlur3176-41-9" stdDeviation="1.71"/>
  </filter>
  <filter id="filter3174-7-8" color-interpolation-filters="sRGB">
   <feGaussianBlur id="feGaussianBlur3176-4-0" stdDeviation="1.71"/>
  </filter>
  <filter id="filter3174-93-2" color-interpolation-filters="sRGB">
   <feGaussianBlur id="feGaussianBlur3176-14-0" stdDeviation="1.71"/>
  </filter>
  <filter id="filter3174-69-1" color-interpolation-filters="sRGB">
   <feGaussianBlur id="feGaussianBlur3176-2-3" stdDeviation="1.71"/>
  </filter>
  <filter id="filter3174-6-6" color-interpolation-filters="sRGB">
   <feGaussianBlur id="feGaussianBlur3176-1-68" stdDeviation="1.71"/>
  </filter>
  <filter id="filter3174-9-0" color-interpolation-filters="sRGB">
   <feGaussianBlur id="feGaussianBlur3176-5-0" stdDeviation="1.71"/>
  </filter>
  <filter id="filter3174-1-6" color-interpolation-filters="sRGB">
   <feGaussianBlur id="feGaussianBlur3176-0-16" stdDeviation="1.71"/>
  </filter>
  <linearGradient id="linearGradient39282" y2="7.0165" gradientUnits="userSpaceOnUse" x2="45.448" gradientTransform="matrix(1.0059 0 0 .99417 202.99 .72099)" y1="92.54" x1="45.448">
   <stop id="stop3750-6-81-2" offset="0"/>
   <stop id="stop3752-7-9-9" style="stop-opacity:.58824" offset="1"/>
  </linearGradient>
  <linearGradient id="linearGradient39312" y2="46.187" gradientUnits="userSpaceOnUse" x2="81.065" gradientTransform="matrix(0 -.99172 1.0682 0 75.529 141.22)" y1="46.187" x1="10.48">
   <stop id="stop3270-48-7" style="stop-color:#e4e4e4" offset="0"/>
   <stop id="stop3272-9-1" style="stop-color:#7a7a7a" offset="1"/>
  </linearGradient>
  <linearGradient id="linearGradient39317" y2="5.9877" gradientUnits="userSpaceOnUse" x2="48" gradientTransform="translate(76.863 47.83)" y1="90" x1="48">
   <stop id="stop3259-5" style="stop-color:#aaa" offset="0"/>
   <stop id="stop3261-2" style="stop-color:#d2d2d2" offset="1"/>
  </linearGradient>
  <linearGradient id="linearGradient39320" y2="5.9877" gradientUnits="userSpaceOnUse" x2="48" gradientTransform="translate(76.863 47.83)" y1="90" x1="48">
   <stop id="stop3702-8-5" style="stop-color:#212121" offset="0"/>
   <stop id="stop3704-2-0" style="stop-color:#444" offset="1"/>
  </linearGradient>
  <linearGradient id="linearGradient39323" y2="7.0165" gradientUnits="userSpaceOnUse" x2="45.448" gradientTransform="matrix(1.0059 0 0 .99417 76.863 47.83)" y1="92.54" x1="45.448">
   <stop id="stop3750-7-2" offset="0"/>
   <stop id="stop3752-98-2" style="stop-opacity:.58824" offset="1"/>
  </linearGradient>
  <linearGradient id="linearGradient39326" y2="7.0165" gradientUnits="userSpaceOnUse" x2="45.448" gradientTransform="matrix(1.0059 0 0 .99417 -371.05 48.931)" y1="92.54" x1="45.448">
   <stop id="stop3750-51-9" offset="0"/>
   <stop id="stop3752-15-4" style="stop-opacity:.58824" offset="1"/>
  </linearGradient>
  <linearGradient id="linearGradient39333" y2="7.0165" gradientUnits="userSpaceOnUse" x2="45.448" gradientTransform="matrix(1.0059 0 0 .99417 59.525 31.48)" y1="92.54" x1="45.448">
   <stop id="stop3750-9-3" offset="0"/>
   <stop id="stop3752-59-4" style="stop-opacity:.58824" offset="1"/>
  </linearGradient>
  <linearGradient id="linearGradient39336" y2="7.0165" gradientUnits="userSpaceOnUse" x2="45.448" gradientTransform="matrix(1.0059 0 0 .99417 -479.37 -131.92)" y1="92.54" x1="45.448">
   <stop id="stop3750-2-2" offset="0"/>
   <stop id="stop3752-1-3" style="stop-opacity:.58824" offset="1"/>
  </linearGradient>
  <radialGradient id="radialGradient39296-1" gradientUnits="userSpaceOnUse" cy="78.2" cx="32" gradientTransform="matrix(1.5 9.9073e-7 -9.9073e-7 1.5 1.633 -14.692)" r="4">
   <stop id="stop3865-8-8" style="stop-color:#ebebeb" offset="0"/>
   <stop id="stop3867-90-1-9" style="stop-color:#c0c0c0" offset="1"/>
  </radialGradient>
  <linearGradient id="linearGradient39302-8" y2="82" gradientUnits="userSpaceOnUse" x2="34" gradientTransform="translate(16.633 24.608)" y1="78" x1="34">
   <stop id="stop3827-9-3" style="stop-color:#333" offset="0"/>
   <stop id="stop3829-4-3" style="stop-color:#494949" offset="1"/>
  </linearGradient>
  <linearGradient id="linearGradient39393" y2="74.938" gradientUnits="userSpaceOnUse" y1="83" gradientTransform="translate(15.633 24.608)" x2="37" x1="37">
   <stop id="stop3854-6-7" style="stop-color:#fff" offset="0"/>
   <stop id="stop3856-2-6" style="stop-color:#fff;stop-opacity:0" offset="1"/>
  </linearGradient>
 </defs>
 <rect id="rect892-2-7-8" style="stroke:#000;stroke-width:4.8445;fill:#a04" transform="scale(1,-1)" ry="28.993" height="114.35" width="114.22" y="-121.16" x="6.8683"/>
 <g id="layer2" style="display:none" transform="translate(187.88 23.742)">
  <rect id="rect3745" style="opacity:.9;filter:url(#filter3174-1);fill:url(#ButtonShadow-9)" rx="6" ry="6" height="85" width="86" y="7" x="5"/>
 </g>
 <g id="layer2-2" style="display:none" transform="matrix(1.2166 0 0 1.2299 5.6049 3.1187)">
  <rect id="rect3745-5" style="opacity:.9;filter:url(#filter3174-9);fill:url(#ButtonShadow-9)" rx="6" ry="6" height="85" width="86" y="7" x="5"/>
 </g>
 <g id="layer2-8" style="display:none" transform="matrix(1.2166 0 0 1.2299 162.3 9.178)">
  <rect id="rect3745-8" style="opacity:.9;filter:url(#filter3174-6);fill:url(#ButtonShadow-9)" rx="6" ry="6" height="85" width="86" y="7" x="5"/>
 </g>
 <rect id="rect3745-9" style="opacity:.9;filter:url(#filter3174-69);display:none;fill:url(#linearGradient7212)" rx="6" ry="6" height="85" width="86" y="-137.69" x="-345.06"/>
 <rect id="rect3745-56" style="opacity:.9;filter:url(#filter3174-93);display:none;fill:url(#linearGradient7745)" rx="6" ry="6" height="85" width="86" y="25.712" x="193.83"/>
 <rect id="rect3745-6" style="opacity:.9;filter:url(#filter3174-7);display:none;fill:url(#linearGradient8354)" rx="6" ry="6" height="85" width="86" y="43.163" x="-236.74"/>
 <rect id="rect3745-7" style="opacity:.9;filter:url(#filter3174-5);display:none;fill:url(#linearGradient8971)" rx="6" ry="6" height="85" width="86" y="42.062" x="211.17"/>
 <rect id="rect2419" style="fill:url(#linearGradient8941);display:none" rx="6" ry="6" height="84" width="84" y="41.062" x="212.17"/>
 <path id="rect2476" d="m218.17 41.062c-3.324 0-6 2.676-6 6v72c0 3.324 2.676 6 6 6h72c3.324 0 6-2.676 6-6v-72c0-3.324-2.676-6-6-6h-72zm36 7c19.32 0 35 15.68 35 35s-15.68 35-35 35-35-15.68-35-35 15.68-35 35-35z" style="fill:url(#linearGradient8873);display:none"/>
 <path id="text3309" d="m232.74 51.754 1.2083-0.72757-0.50222-0.83402-0.66294 0.3992-0.33803-0.56136 0.66294-0.3992-0.84669-1.4061 0.55067-0.33159 2.025 3.3628-1.7589 1.0592-0.33803-0.56136m-1.435-1.1358 0.95366-0.62836 0.36397 0.55239-0.95366 0.62836-0.36397-0.55239m-1.0932 3.0146 0.94049-0.70144c0.23679-0.17661 0.25942-0.39331 0.0679-0.65011-0.20481-0.26766-0.40018-0.33475-0.58609-0.20128l-0.32017 0.23879c-0.54028 0.40295-1.0243 0.31761-1.4522-0.25602l-0.0821-0.11006c-0.4328-0.5803-0.33403-1.1055 0.29629-1.5756l0.97552-0.72756 0.39176 0.52528-1.0656 0.79472c-0.23012 0.17163-0.25315 0.38084-0.0691 0.62764l0.0112 0.01501c0.20148 0.27014 0.4006 0.33183 0.59737 0.18508l0.34518-0.25744c0.51609-0.37972 0.99551-0.27276 1.4383 0.32089l0.0858 0.11506c0.41539 0.55696 0.30959 1.0692-0.31741 1.5369l-0.86545 0.64547-0.39176-0.52528m-0.87697 0.70684-0.77538-0.89708-0.55714 0.48156c-0.17627 0.15236-0.17734 0.32926-0.003 0.53071l0.26934 0.31162c0.16324 0.18886 0.333 0.20711 0.50927 0.05476l0.55713-0.48156m-1.2039-1.3928-0.93455-1.0812 0.4816-0.41626 2.5669 2.9698-1.0482 0.90598c-0.49648 0.41812-0.96373 0.3738-1.4018-0.13297l-0.26526-0.3069c-0.46796-0.5414-0.45641-1.0243 0.0346-1.4487l0.56658-0.48972m-1.7071 3.8771c0.0823 0.08246 0.17202 0.07521 0.26921-0.02176l0.54341-0.54216c0.0913-0.0911 0.0958-0.17788 0.0135-0.26034l-1.5648-1.5684c-0.0558-0.05596-0.11023-0.08397-0.16318-0.08403-0.053-0.000061-0.0956 0.01607-0.12803 0.0484l-0.592 0.59065c-0.0324 0.03232-0.0413 0.0735-0.0266 0.12353 0.0117 0.05297 0.0396 0.10154 0.0837 0.14572l1.5648 1.5684m-2.108-1.2115c-0.35262-0.35932-0.35958-0.70795-0.0209-1.0459l0.70245-0.70084c0.34165-0.34087 0.68438-0.33901 1.0282 0.0056l1.7543 1.7583c0.33793 0.3387 0.34785 0.66674 0.0298 0.98411l-0.74222 0.74052c-0.33871 0.33793-0.67703 0.33754-1.015-0.0012l-1.7367-1.7407m0.31096 3.4923 0.52599-0.6012-2.4752-2.1656 0.41915-0.47908 2.4752 2.1656 0.48079-0.54954 0.49317 0.43148-1.4259 1.6298-0.49318-0.43148" style="fill:#666;display:none"/>
 <path id="text3313" d="m266.91 121.92-1.1775 0.35354c-0.56185 0.1687-0.9349-0.0538-1.1192-0.66743l-0.51686-1.7214c-0.18105-0.58855 0.0438-0.97535 0.6746-1.1604l1.0819-0.32483 0.11665 0.38852-1.2014 0.36072c-0.30284 0.0909-0.4076 0.2918-0.31428 0.60261l0.53839 1.7931c0.0969 0.32277 0.28085 0.44347 0.55181 0.36211l0.87267-0.26201-0.35534-1.1835-0.76508 0.22972-0.11844-0.3945 1.1416-0.34277 0.59044 1.9665m2.3366-0.85474-0.35704 0.13207-0.62789-1.6974c-0.10825-0.29266-0.3009-0.38774-0.57795-0.28527l-0.40972 0.15156c-0.31217 0.11548-0.40547 0.34295-0.27989 0.68243l0.6019 1.6272-0.36289 0.13424-0.931-2.5169 0.36289-0.13423 0.11259 0.30436c0.0133-0.24001 0.14546-0.40425 0.39664-0.49273l0.46825-0.17321c0.44874-0.16599 0.76693 0.005 0.95458 0.51192l0.64953 1.756m2.0679-1.8274c0.22499 0.51466 0.11141 0.87282-0.34075 1.0745l-0.59845 0.26693c-0.45216 0.20168-0.79263 0.046-1.0214-0.46691l-0.41438-0.92902c-0.22371-0.50156-0.10949-0.85317 0.34267-1.0549l0.59845-0.26693c0.45216-0.20167 0.792-0.0526 1.0195 0.44728l0.41438 0.92901m-0.3915 0.0721-0.33557-0.75233c-0.14067-0.31537-0.3459-0.41289-0.61567-0.29256l-0.44456 0.19829c-0.26598 0.11863-0.33053 0.33648-0.19366 0.65355l0.33556 0.75233c0.14026 0.32467 0.34718 0.42599 0.62076 0.30397l0.44456-0.1983c0.26977-0.12032 0.33263-0.34198 0.18858-0.66495m4.4635-1.3016-0.33861 0.18723-0.83953-1.5183c-0.17516-0.31676-0.39199-0.40367-0.65049-0.26073l-0.31677 0.17515c-0.29856 0.16509-0.35379 0.40482-0.1657 0.71918l0.83651 1.5128-0.33861 0.18723-0.85765-1.551c-0.16307-0.29491-0.37568-0.36989-0.63783-0.22494l-0.27854 0.15401c-0.29855 0.16509-0.35704 0.41613-0.17546 0.7531l0.82443 1.491-0.33861 0.18723-1.2986-2.3484 0.33861-0.18723 0.17818 0.32222c-0.046-0.25507 0.0585-0.45308 0.31335-0.59401l0.38776-0.21441c0.29492-0.16307 0.524-0.13999 0.68725 0.0693-0.0504-0.27166 0.061-0.48298 0.33404-0.63398l0.42599-0.23555c0.40779-0.22548 0.75463-0.0797 1.0405 0.43729l0.86973 1.5729m1.4835-2.3851-1.4004 0.93715 0.1753 0.27317c0.15386 0.22243 0.3328 0.26539 0.5368 0.12886l1.0166-0.68029 0.22908 0.34231-1.0114 0.67682c-0.42415 0.27884-0.78143 0.19755-1.0718-0.24389l-0.60218-0.88861c-0.30081-0.44949-0.23281-0.8229 0.204-1.1202l0.46507-0.30372c0.40109-0.26841 0.74857-0.18306 1.0424 0.25606l0.41651 0.62238m-1.626 0.60002 1.0944-0.73236-0.18567-0.26622c-0.14695-0.22706-0.31724-0.2758-0.51087-0.14623l-0.48234 0.3228c-0.22129 0.14809-0.25155 0.33104-0.0908 0.54885l0.1753 0.27316m2.7319-1.7888 0.88842 1.1194-0.30308 0.24053-2.2851-2.8792 0.98745-0.78367c0.4458-0.34848 0.85233-0.29135 1.2196 0.17141l0.25217 0.31775c0.39313 0.49535 0.36809 0.9189-0.0751 1.2706l-0.68437 0.54314m-1.1445-1.4421 0.8923 1.1243 0.6746-0.53538c0.24767-0.19656 0.26288-0.43172 0.0456-0.70546l-0.25606-0.32264c-0.2069-0.2607-0.4342-0.29278-0.68188-0.0962l-0.67459 0.53538m5.1206-0.0691-0.28336 0.25422-1.2086-1.3471c-0.20838-0.23226-0.4225-0.24976-0.64238-0.0525l-0.32517 0.29173c-0.24775 0.22227-0.25077 0.46812-0.009 0.73754l1.1586 1.2914-0.28801 0.25839-2.463-2.7454 0.28801-0.25838 0.88768 0.98944c-0.076-0.22803-0.0136-0.42941 0.18743-0.60413l0.37158-0.33339c0.35614-0.31951 0.7148-0.27797 1.076 0.12462l1.2503 1.3936m1.1809-2.3929c0.3982 0.39614 0.42401 0.77099 0.0774 1.1246l-0.4587 0.46797c-0.34657 0.35357-0.72041 0.33377-1.1215-0.0594l-0.72645-0.71207c-0.3922-0.38444-0.41501-0.75344-0.0684-1.107l0.4587-0.46796c0.34657-0.35357 0.71741-0.33962 1.1125 0.0418l0.72645 0.71207m-0.3377 0.21079-0.58829-0.57665c-0.24661-0.24172-0.4733-0.2571-0.68008-0.0462l-0.34075 0.34763c-0.20386 0.20799-0.18395 0.43433 0.0597 0.67902l0.5883 0.57665c0.24963 0.25052 0.4793 0.26882 0.68899 0.0549l0.34074-0.34763c0.20678-0.21095 0.18389-0.4402-0.0687-0.68775m1.9028-0.71023-0.0457 0.0512c-0.40418 0.45345-0.83299 0.47808-1.2864 0.0739l-2.0638-1.8396 0.25746-0.28884 0.74073 0.66025 0.39449-0.44258 0.30282 0.26992-0.39449 0.44258 1.0296 0.9177c0.24536 0.2187 0.49953 0.18052 0.76253-0.11453l0.30281 0.26991m0.8518-2.3647c0.43386 0.35672 0.49499 0.72746 0.1834 1.1122l-0.41241 0.50923c-0.3116 0.38475-0.68563 0.40037-1.1221 0.0469l-0.79052-0.64021c-0.42678-0.34564-0.48437-0.71083-0.17277-1.0956l0.4124-0.50923c0.3116-0.38474 0.68209-0.40592 1.1115-0.0635l0.79052 0.64021m-0.31626 0.24177-0.64018-0.51845c-0.26835-0.21733-0.49548-0.21122-0.68139 0.0183l-0.30636 0.37828c-0.18329 0.22633-0.14207 0.44977 0.12366 0.67034l0.64018 0.51845c0.2722 0.2258 0.50256 0.22231 0.69109-0.0105l0.30636-0.37828c0.18591-0.22956 0.14146-0.45562-0.13336-0.67819m3.2078-2.9277-0.21522 0.32155-2.5516-1.7078 0.6237 0.62772 1.5461 1.6506-0.24299 0.36304-2.0877-0.79656-0.83712-0.34252 2.5465 1.7044-0.21869 0.32674-3.0547-2.0446 0.3263-0.48751 2.7933 1.1111 0.37876 0.16339-0.28336-0.27226-2.1042-2.1744 0.32629-0.48751 3.0547 2.0446m1.2396-2.1469-0.67404 1.1746c-0.24435 0.42581-0.59721 0.50154-1.0586 0.22719-0.42942-0.24642-0.51781-0.58976-0.26517-1.03l0.46282-0.80651-0.21421-0.11573c-0.27733-0.16874-0.49261-0.11959-0.64585 0.14744l-0.54047 0.94183-0.35183-0.2019 0.54278-0.93331c0.30434-0.49691 0.71038-0.59009 1.2181-0.27954l1.5264 0.87594m-0.54442 0.1337-0.63871-0.36653-0.49699 0.86605c-0.10407 0.18972-0.0497 0.34566 0.16325 0.46784 0.2093 0.1201 0.36882 0.0845 0.47857-0.10672l0.49388-0.86064m1.7374-2.5126-0.16821 0.34151-1.6236-0.79967c-0.27992-0.13787-0.48515-0.07431-0.61567 0.19068l-0.19302 0.39189c-0.14707 0.29859-0.0582 0.52785 0.26646 0.68779l1.5564 0.76658-0.17097 0.34711-2.4074-1.1857 0.17096-0.3471 0.29112 0.14339c-0.15553-0.18328-0.1726-0.39343-0.0512-0.63046l0.2206-0.44788c0.21142-0.42922 0.55972-0.52433 1.0449-0.28535l1.6796 0.82725m0.96638-2.2875-0.52024 1.2503c-0.18859 0.45327-0.52905 0.57298-1.0214 0.35912-0.45711-0.19019-0.58817-0.51961-0.39319-0.98824l0.35722-0.85852-0.22712-0.08774c-0.29642-0.13234-0.50376-0.05639-0.62204 0.22786l-0.41714 1.0026-0.37453-0.15583 0.42051-0.99441c0.23913-0.53138 0.63014-0.67512 1.173-0.4312l1.6249 0.67606m-0.52317 0.20141-0.6799-0.28289-0.38358 0.9219c-0.0793 0.20134-0.006 0.34917 0.22105 0.44346 0.22279 0.0927 0.37654 0.03726 0.46125-0.16633l0.38118-0.91614m1.7998-0.82665-0.40115-0.13844 0.2789-0.80821c0.0624-0.18091 0.015-0.29851-0.14233-0.3528l-0.28907-0.09975-0.35219 1.0206c-0.13287 0.37227-0.40123 0.49312-0.8051 0.36255l-1.3392-0.46212c-0.39722-0.13708-0.52994-0.40294-0.39816-0.79759l0.4723-1.3687 2.8199 0.97311c0.4352 0.15458 0.58833 0.41869 0.4594 0.79231l-0.30334 0.87901m-2.7128-2.1443-0.32979 0.9557c-0.0611 0.17698 0.0106 0.30076 0.21515 0.37133l1.0973 0.37866c0.24777 0.0855 0.40572 0.01678 0.47386-0.20618l0.30741-0.8908-1.7639-0.6087m1.8764-2.391-0.44892 1.6241 0.31113 0.09248c0.26176 0.06804 0.42535-0.01624 0.49074-0.25284l0.32589-1.179 0.397 0.10974-0.32422 1.173c-0.13924 0.48813-0.46295 0.6598-0.97113 0.51502l-1.0363-0.27996c-0.52132-0.1441-0.71359-0.47134-0.57683-0.98174l0.15399-0.53369c0.12858-0.46517 0.44751-0.62737 0.9568-0.4866l0.72182 0.19952m-0.83991 1.516 0.35083-1.2692-0.31446-0.08044c-0.25954-0.07606-0.42036-0.0018-0.48243 0.22276l-0.15463 0.55941c-0.0709 0.25665 0.0256 0.41498 0.28957 0.475l0.31112 0.09247m0.1259-3.5639-0.1143 0.52439c-0.0735 0.3374 0.0771 0.54483 0.45199 0.62228l1.6646 0.36284-0.0824 0.37805-2.622-0.57151 0.0824-0.37805 0.33537 0.0731c-0.21205-0.1016-0.27821-0.33532-0.19846-0.70118l0.0864-0.39634 0.39634 0.08639" style="fill:#666;display:none"/>
 <path id="path2522" style="stroke:url(#linearGradient8868);stroke-linecap:square;stroke-width:2;display:none;fill:none" d="m254.17 48.062a35 35 0 0 1 0 70 35 35 0 1 1 0 -70z"/>
 <g id="layer2-86" style="display:none" transform="translate(-225.35 -4.4159)">
  <rect id="rect3745-0" style="opacity:.9;filter:url(#filter3174-1-1);fill:url(#ButtonShadow-9)" rx="6" ry="6" height="85" width="86" y="7" x="5"/>
 </g>
 <g id="layer2-2-0" style="display:none" transform="matrix(1.2166 0 0 1.2299 -407.62 -25.04)">
  <rect id="rect3745-5-7" style="opacity:.9;filter:url(#filter3174-9-5);fill:url(#ButtonShadow-9)" rx="6" ry="6" height="85" width="86" y="7" x="5"/>
 </g>
 <g id="layer2-8-5" style="display:none" transform="matrix(1.2166 0 0 1.2299 -250.92 -18.98)">
  <rect id="rect3745-8-8" style="opacity:.9;filter:url(#filter3174-6-5);fill:url(#ButtonShadow-9)" rx="6" ry="6" height="85" width="86" y="7" x="5"/>
 </g>
 <rect id="rect3745-05" style="opacity:.9;filter:url(#filter3174-1-13);display:none;fill:url(#linearGradient26518)" rx="6" ry="6" height="85" width="86" y="-5.0468" x="337.3"/>
 <rect id="rect3745-5-4" style="opacity:.9;filter:url(#filter3174-9-1);display:none;fill:url(#ButtonShadow-9)" transform="matrix(1.2166 0 0 1.2299 150.03 -32.671)" rx="6" ry="6" height="85" width="86" y="7" x="5"/>
 <rect id="rect3745-8-2" style="opacity:.9;filter:url(#filter3174-6-7);display:none;fill:url(#ButtonShadow-9)" transform="matrix(1.2166 0 0 1.2299 306.72 -26.611)" rx="6" ry="6" height="85" width="86" y="7" x="5"/>
 <path id="path1187" style="opacity:.33131;fill:url(#linearGradient15646)" d="m37.746 9.8724c-18.285 0.0429-28.473 15.047-27.577 25.928-0.3972 19.268 0.287 38.986 0 58.409 12.995 18.091 72.67-72.226 89.156-84.288-0.222-0.0258-0.454-0.0301-0.682-0.0301-41.05 0.3821-23.353-0.0185-60.897-0.0185z"/>
 <g id="layer2-1" style="display:none" transform="translate(58.573 36.51)">
  <rect id="rect3745-63" style="opacity:.9;filter:url(#filter3174-1-6);fill:url(#ButtonShadow-9)" rx="6" ry="6" height="85" width="86" y="7" x="5"/>
 </g>
 <g id="layer2-2-8" style="display:none" transform="matrix(1.2166 0 0 1.2299 -123.7 15.887)">
  <rect id="rect3745-5-6" style="opacity:.9;filter:url(#filter3174-9-0);fill:url(#ButtonShadow-9)" rx="6" ry="6" height="85" width="86" y="7" x="5"/>
 </g>
 <g id="layer2-8-3" style="display:none" transform="matrix(1.2166 0 0 1.2299 32.997 21.946)">
  <rect id="rect3745-8-4" style="opacity:.9;filter:url(#filter3174-6-6);fill:url(#ButtonShadow-9)" rx="6" ry="6" height="85" width="86" y="7" x="5"/>
 </g>
 <rect id="rect3745-9-4" style="opacity:.9;filter:url(#filter3174-69-1);display:none;fill:url(#linearGradient39336)" rx="6" ry="6" height="85" width="86" y="-124.92" x="-474.37"/>
 <rect id="rect3745-56-1" style="opacity:.9;filter:url(#filter3174-93-2);display:none;fill:url(#linearGradient39333)" rx="6" ry="6" height="85" width="86" y="38.48" x="64.525"/>
 <rect id="rect3745-6-5" style="opacity:.9;filter:url(#filter3174-7-8);display:none;fill:url(#linearGradient39326)" rx="6" ry="6" height="85" width="86" y="55.931" x="-366.05"/>
 <rect id="rect3745-7-1" style="opacity:.9;filter:url(#filter3174-5-1);display:none;fill:url(#linearGradient39323)" rx="6" ry="6" height="85" width="86" y="54.83" x="81.863"/>
 <rect id="rect2419-7" style="fill:url(#linearGradient39320);display:none" rx="6" ry="6" height="84" width="84" y="53.83" x="82.863"/>
 <path id="rect2476-3" d="m88.863 53.83c-3.324 0-6 2.676-6 6v72c0 3.324 2.676 6 6 6h72c3.324 0 6-2.676 6-6v-72c0-3.324-2.676-6-6-6h-72zm36 7c19.32 0 35 15.68 35 35s-15.68 35-35 35-35-15.68-35-35 15.68-35 35-35z" style="fill:url(#linearGradient39317);display:none"/>
 <path id="text3309-3" d="m103.44 64.522 1.2083-0.72757-0.50222-0.83402-0.66294 0.3992-0.33803-0.56136 0.66294-0.3992-0.84669-1.4061 0.55067-0.33159 2.025 3.3628-1.7589 1.0592-0.33803-0.56136m-1.435-1.1358 0.95366-0.62836 0.36397 0.55239-0.95366 0.62836-0.36397-0.55239m-1.0932 3.0146 0.94049-0.70144c0.23679-0.17661 0.25942-0.39331 0.0679-0.65011-0.20481-0.26766-0.40018-0.33475-0.58609-0.20128l-0.32017 0.23879c-0.54028 0.40295-1.0243 0.31761-1.4522-0.25602l-0.0821-0.11006c-0.4328-0.5803-0.33403-1.1055 0.29629-1.5756l0.97552-0.72756 0.39176 0.52528-1.0656 0.79472c-0.23012 0.17163-0.25315 0.38084-0.0691 0.62764l0.0112 0.01501c0.20148 0.27014 0.4006 0.33183 0.59737 0.18508l0.34518-0.25744c0.51609-0.37972 0.99551-0.27276 1.4383 0.32089l0.0858 0.11506c0.41539 0.55696 0.30959 1.0692-0.31741 1.5369l-0.86545 0.64547-0.39176-0.52528m-0.87697 0.70684-0.77538-0.89708-0.55714 0.48156c-0.17627 0.15236-0.17734 0.32926-0.003 0.53071l0.26934 0.31162c0.16324 0.18886 0.333 0.20711 0.50927 0.05476l0.55713-0.48156m-1.2039-1.3928-0.93455-1.0812 0.4816-0.41626 2.5669 2.9698-1.0482 0.90598c-0.49648 0.41812-0.96373 0.3738-1.4018-0.13297l-0.26526-0.3069c-0.46796-0.5414-0.45641-1.0243 0.0346-1.4487l0.56658-0.48972m-1.7071 3.8771c0.0823 0.08246 0.17202 0.07521 0.26921-0.02176l0.54341-0.54216c0.0913-0.0911 0.0958-0.17788 0.0135-0.26034l-1.5648-1.5684c-0.0558-0.05596-0.11023-0.08397-0.16318-0.08403-0.053-0.000061-0.0956 0.01607-0.12803 0.0484l-0.592 0.59065c-0.0324 0.03232-0.0413 0.0735-0.0266 0.12353 0.0117 0.05297 0.0396 0.10154 0.0837 0.14572l1.5648 1.5684m-2.108-1.2115c-0.35262-0.35932-0.35958-0.70795-0.0209-1.0459l0.70245-0.70084c0.34165-0.34087 0.68438-0.33901 1.0282 0.0056l1.7543 1.7583c0.33793 0.3387 0.34785 0.66674 0.0298 0.98411l-0.74222 0.74052c-0.33871 0.33793-0.67703 0.33754-1.015-0.0012l-1.7367-1.7407m0.31096 3.4923 0.52599-0.6012-2.4752-2.1656 0.41915-0.47908 2.4752 2.1656 0.48079-0.54954 0.49317 0.43148-1.4259 1.6298-0.49318-0.43148" style="fill:#666;display:none"/>
 <path id="text3313-5" d="m137.61 134.69-1.1775 0.35354c-0.56185 0.1687-0.9349-0.0538-1.1192-0.66743l-0.51686-1.7214c-0.18105-0.58855 0.0438-0.97535 0.6746-1.1604l1.0819-0.32483 0.11665 0.38852-1.2014 0.36072c-0.30284 0.0909-0.4076 0.2918-0.31428 0.60261l0.53839 1.7931c0.0969 0.32277 0.28085 0.44347 0.55181 0.36211l0.87267-0.26201-0.35534-1.1835-0.76508 0.22972-0.11844-0.3945 1.1416-0.34277 0.59044 1.9665m2.3366-0.85474-0.35704 0.13207-0.62789-1.6974c-0.10825-0.29266-0.3009-0.38774-0.57795-0.28527l-0.40972 0.15156c-0.31217 0.11548-0.40547 0.34295-0.27989 0.68243l0.6019 1.6272-0.36289 0.13424-0.931-2.5169 0.36289-0.13423 0.11259 0.30436c0.0133-0.24001 0.14546-0.40425 0.39664-0.49273l0.46825-0.17321c0.44874-0.16599 0.76693 0.005 0.95458 0.51192l0.64953 1.756m2.0679-1.8274c0.22499 0.51466 0.11141 0.87282-0.34075 1.0745l-0.59845 0.26693c-0.45216 0.20168-0.79263 0.046-1.0214-0.46691l-0.41438-0.92902c-0.22371-0.50156-0.10949-0.85317 0.34267-1.0549l0.59845-0.26693c0.45216-0.20167 0.792-0.0526 1.0195 0.44728l0.41438 0.92901m-0.3915 0.0721-0.33557-0.75233c-0.14067-0.31537-0.3459-0.41289-0.61567-0.29256l-0.44456 0.19829c-0.26598 0.11863-0.33053 0.33648-0.19366 0.65355l0.33556 0.75233c0.14026 0.32467 0.34718 0.42599 0.62076 0.30397l0.44456-0.1983c0.26977-0.12032 0.33263-0.34198 0.18858-0.66495m4.4635-1.3016-0.33861 0.18723-0.83953-1.5183c-0.17516-0.31676-0.39199-0.40367-0.65049-0.26073l-0.31677 0.17515c-0.29856 0.16509-0.35379 0.40482-0.1657 0.71918l0.83651 1.5128-0.33861 0.18723-0.85765-1.551c-0.16307-0.29491-0.37568-0.36989-0.63783-0.22494l-0.27854 0.15401c-0.29855 0.16509-0.35704 0.41613-0.17546 0.7531l0.82443 1.491-0.33861 0.18723-1.2986-2.3484 0.33861-0.18723 0.17818 0.32222c-0.046-0.25507 0.0585-0.45308 0.31335-0.59401l0.38776-0.21441c0.29492-0.16307 0.524-0.13999 0.68725 0.0693-0.0504-0.27166 0.061-0.48298 0.33404-0.63398l0.42599-0.23555c0.40779-0.22548 0.75463-0.0797 1.0405 0.43729l0.86973 1.5729m1.4835-2.3851-1.4004 0.93715 0.1753 0.27317c0.15386 0.22243 0.3328 0.26539 0.5368 0.12886l1.0166-0.68029 0.22908 0.34231-1.0114 0.67682c-0.42415 0.27884-0.78143 0.19755-1.0718-0.24389l-0.60218-0.88861c-0.30081-0.44949-0.23281-0.8229 0.204-1.1202l0.46507-0.30372c0.40109-0.26841 0.74857-0.18306 1.0424 0.25606l0.41651 0.62238m-1.626 0.60002 1.0944-0.73236-0.18567-0.26622c-0.14695-0.22706-0.31724-0.2758-0.51087-0.14623l-0.48234 0.3228c-0.22129 0.14809-0.25155 0.33104-0.0908 0.54885l0.1753 0.27316m2.7319-1.7888 0.88842 1.1194-0.30308 0.24053-2.2851-2.8792 0.98745-0.78367c0.4458-0.34848 0.85233-0.29135 1.2196 0.17141l0.25217 0.31775c0.39313 0.49535 0.36809 0.9189-0.0751 1.2706l-0.68437 0.54314m-1.1445-1.4421 0.8923 1.1243 0.6746-0.53538c0.24767-0.19656 0.26288-0.43172 0.0456-0.70546l-0.25606-0.32264c-0.2069-0.2607-0.4342-0.29278-0.68188-0.0962l-0.67459 0.53538m5.1206-0.0691-0.28336 0.25422-1.2086-1.3471c-0.20838-0.23226-0.4225-0.24976-0.64238-0.0525l-0.32517 0.29173c-0.24775 0.22227-0.25077 0.46812-0.009 0.73754l1.1586 1.2914-0.28801 0.25839-2.463-2.7454 0.28801-0.25838 0.88768 0.98944c-0.076-0.22803-0.0136-0.42941 0.18743-0.60413l0.37158-0.33339c0.35614-0.31951 0.7148-0.27797 1.076 0.12462l1.2503 1.3936m1.1809-2.3929c0.3982 0.39614 0.42401 0.77099 0.0774 1.1246l-0.4587 0.46797c-0.34657 0.35357-0.72041 0.33377-1.1215-0.0594l-0.72645-0.71207c-0.3922-0.38444-0.41501-0.75344-0.0684-1.107l0.4587-0.46796c0.34657-0.35357 0.71741-0.33962 1.1125 0.0418l0.72645 0.71207m-0.3377 0.21079-0.58829-0.57665c-0.24661-0.24172-0.4733-0.2571-0.68008-0.0462l-0.34075 0.34763c-0.20386 0.20799-0.18395 0.43433 0.0597 0.67902l0.5883 0.57665c0.24963 0.25052 0.4793 0.26882 0.68899 0.0549l0.34074-0.34763c0.20678-0.21095 0.18389-0.4402-0.0687-0.68775m1.9028-0.71023-0.0457 0.0512c-0.40418 0.45345-0.83299 0.47808-1.2864 0.0739l-2.0638-1.8396 0.25746-0.28884 0.74073 0.66025 0.39449-0.44258 0.30282 0.26992-0.39449 0.44258 1.0296 0.9177c0.24536 0.2187 0.49953 0.18052 0.76253-0.11453l0.30281 0.26991m0.8518-2.3647c0.43386 0.35672 0.49499 0.72746 0.1834 1.1122l-0.41241 0.50923c-0.3116 0.38475-0.68563 0.40037-1.1221 0.0469l-0.79052-0.64021c-0.42678-0.34564-0.48437-0.71083-0.17277-1.0956l0.4124-0.50923c0.3116-0.38474 0.68209-0.40592 1.1115-0.0635l0.79052 0.64021m-0.31626 0.24177-0.64018-0.51845c-0.26835-0.21733-0.49548-0.21122-0.68139 0.0183l-0.30636 0.37828c-0.18329 0.22633-0.14207 0.44977 0.12366 0.67034l0.64018 0.51845c0.2722 0.2258 0.50256 0.22231 0.69109-0.0105l0.30636-0.37828c0.18591-0.22956 0.14146-0.45562-0.13336-0.67819m3.2078-2.9277-0.21522 0.32155-2.5516-1.7078 0.6237 0.62772 1.5461 1.6506-0.24299 0.36304-2.0877-0.79656-0.83712-0.34252 2.5465 1.7044-0.21869 0.32674-3.0547-2.0446 0.3263-0.48751 2.7933 1.1111 0.37876 0.16339-0.28336-0.27226-2.1042-2.1744 0.32629-0.48751 3.0547 2.0446m1.2396-2.1469-0.67404 1.1746c-0.24435 0.42581-0.59721 0.50154-1.0586 0.22719-0.42942-0.24642-0.51781-0.58976-0.26517-1.03l0.46282-0.80651-0.21421-0.11573c-0.27733-0.16874-0.49261-0.11959-0.64585 0.14744l-0.54047 0.94183-0.35183-0.2019 0.54278-0.93331c0.30434-0.49691 0.71038-0.59009 1.2181-0.27954l1.5264 0.87594m-0.54442 0.1337-0.63871-0.36653-0.49699 0.86605c-0.10407 0.18972-0.0497 0.34566 0.16325 0.46784 0.2093 0.1201 0.36882 0.0845 0.47857-0.10672l0.49388-0.86064m1.7374-2.5126-0.16821 0.34151-1.6236-0.79968c-0.27992-0.13787-0.48515-0.0743-0.61567 0.19069l-0.19302 0.39189c-0.14707 0.29859-0.0582 0.52785 0.26646 0.68779l1.5564 0.76658-0.17097 0.34711-2.4074-1.1857 0.17096-0.3471 0.29112 0.14339c-0.15553-0.18328-0.1726-0.39343-0.0512-0.63046l0.2206-0.44789c0.21142-0.42921 0.55972-0.52433 1.0449-0.28535l1.6796 0.82725m0.96638-2.2875-0.52024 1.2503c-0.18859 0.45327-0.52905 0.57298-1.0214 0.35912-0.45711-0.19019-0.58817-0.51961-0.39319-0.98824l0.35722-0.85852-0.22712-0.0877c-0.29642-0.13235-0.50376-0.0564-0.62204 0.22786l-0.41714 1.0026-0.37453-0.15583 0.42051-0.99442c0.23913-0.53138 0.63014-0.67511 1.173-0.4312l1.6249 0.67607m-0.52317 0.2014-0.6799-0.28289-0.38358 0.92191c-0.0793 0.20134-0.006 0.34916 0.22105 0.44346 0.22279 0.0927 0.37654 0.0373 0.46125-0.16633l0.38118-0.91615m1.7998-0.82665-0.40115-0.13843 0.2789-0.80821c0.0624-0.18092 0.015-0.29852-0.14233-0.35281l-0.28907-0.0998-0.35219 1.0206c-0.13287 0.37227-0.40123 0.49312-0.8051 0.36256l-1.3392-0.46213c-0.39722-0.13707-0.52994-0.40294-0.39816-0.79759l0.4723-1.3686 2.8199 0.97311c0.4352 0.15458 0.58833 0.41869 0.4594 0.79231l-0.30334 0.87901m-2.7128-2.1443-0.32979 0.9557c-0.0611 0.17698 0.0106 0.30076 0.21515 0.37133l1.0973 0.37866c0.24777 0.0855 0.40572 0.0168 0.47386-0.20618l0.30741-0.89081-1.7639-0.6087m1.8764-2.391-0.44892 1.6241 0.31113 0.0925c0.26176 0.068 0.42535-0.0162 0.49074-0.25284l0.32589-1.179 0.397 0.10973-0.32422 1.173c-0.13924 0.48812-0.46295 0.6598-0.97113 0.51501l-1.0363-0.27996c-0.52132-0.1441-0.71359-0.47135-0.57683-0.98174l0.15399-0.53369c0.12858-0.46517 0.44751-0.62737 0.9568-0.4866l0.72182 0.19952m-0.83991 1.516 0.35083-1.2692-0.31446-0.0804c-0.25954-0.0761-0.42036-0.002-0.48243 0.22276l-0.15463 0.55941c-0.0709 0.25665 0.0256 0.41499 0.28957 0.475l0.31112 0.0925m0.1259-3.5639-0.1143 0.52439c-0.0735 0.3374 0.0771 0.54483 0.45199 0.62228l1.6646 0.36284-0.0824 0.37805-2.622-0.57151 0.0824-0.37805 0.33537 0.0731c-0.21205-0.1016-0.27821-0.33531-0.19846-0.70117l0.0864-0.39634 0.39634 0.0864" style="fill:#666;display:none"/>
 <path id="path2522-4" style="stroke:url(#linearGradient39312);stroke-linecap:square;stroke-width:2;display:none;fill:none" d="m124.86 60.83a35 35 0 0 1 0 70 35 35 0 1 1 0 -70z"/>
 <g id="layer2-86-1" style="display:none" transform="translate(-354.65 8.3519)">
  <rect id="rect3745-0-8" style="opacity:.9;filter:url(#filter3174-1-1-5);fill:url(#ButtonShadow-9)" rx="6" ry="6" height="85" width="86" y="7" x="5"/>
 </g>
 <g id="layer2-2-0-7" style="display:none" transform="matrix(1.2166 0 0 1.2299 -536.93 -12.272)">
  <rect id="rect3745-5-7-5" style="opacity:.9;filter:url(#filter3174-9-5-7);fill:url(#ButtonShadow-9)" rx="6" ry="6" height="85" width="86" y="7" x="5"/>
 </g>
 <g id="layer2-8-5-6" style="display:none" transform="matrix(1.2166 0 0 1.2299 -380.23 -6.2124)">
  <rect id="rect3745-8-8-5" style="opacity:.9;filter:url(#filter3174-6-5-6);fill:url(#ButtonShadow-9)" rx="6" ry="6" height="85" width="86" y="7" x="5"/>
 </g>
 <rect id="rect3745-05-4" style="opacity:.9;filter:url(#filter3174-1-13-9);display:none;fill:url(#linearGradient39282)" rx="6" ry="6" height="85" width="86" y="7.721" x="207.99"/>
 <rect id="rect3745-5-4-5" style="opacity:.9;filter:url(#filter3174-9-1-9);display:none;fill:url(#ButtonShadow-9)" transform="matrix(1.2166 0 0 1.2299 20.72 -19.903)" rx="6" ry="6" height="85" width="86" y="7" x="5"/>
 <rect id="rect3745-8-2-3" style="opacity:.9;filter:url(#filter3174-6-7-3);display:none;fill:url(#ButtonShadow-9)" transform="matrix(1.2166 0 0 1.2299 177.42 -13.843)" rx="6" ry="6" height="85" width="86" y="7" x="5"/>
 <g id="g39440">
  <path id="path3848" style="opacity:.6;color:#000000;fill:url(#linearGradient39393)" d="m40.633 101.67c-1.6149 0-2.9375 1.3226-2.9375 2.9375s1.3226 2.9375 2.9375 2.9375h46c1.6149 0 2.9375-1.3226 2.9375-2.9375s-1.3226-2.9375-2.9375-2.9375h-46z"/>
  <rect id="rect3823" style="color:#000000;fill:url(#linearGradient39302-8)" rx="2" ry="2" height="4" width="50" y="102.61" x="38.633"/>
  <path id="path3893" style="opacity:.05;color:#000000" d="m49.633 98.604c-3.5675 0-6.5039 2.9364-6.5039 6.5039s2.9364 6.5039 6.5039 6.5039 6.5039-2.9364 6.5039-6.5039-2.9364-6.5039-6.5039-6.5039z"/>
  <path id="path3889" style="opacity:.15;color:#000000" d="m49.633 99.623c-3.0168 0-5.4844 2.4676-5.4844 5.4844s2.4676 5.4844 5.4844 5.4844 5.4844-2.4676 5.4844-5.4844-2.4676-5.4844-5.4844-5.4844z"/>
  <path id="path3875" style="opacity:.3;color:#000000" d="m54.133 105.11a4.5 4.5 0 0 1 -9 0 4.5 4.5 0 1 1 9 0z"/>
  <path id="path3861" style="color:#000000;fill:url(#radialGradient39296-1)" d="m53.633 104.61a4 4 0 0 1 -8 0 4 4 0 1 1 8 0z"/>
  <path id="path3895" d="m49.633 100.61c-2.2091 0-4 1.7909-4 4 0 0.17012 0.0419 0.33547 0.0625 0.5 0.24707-1.972 1.8985-3.5 3.9375-3.5s3.6904 1.528 3.9375 3.5c0.0206-0.16453 0.0625-0.32988 0.0625-0.5 0-2.2092-1.7909-4-4-4z" style="opacity:.6;color:#000000;fill:#fff"/>
 </g>
 <path id="path39560" style="fill:#fff" d="m39.931 81.761c-8.059-2.75-10.082-18.859-3.289-26.188 1.3756-1.4843 2.5011-3.5935 2.5011-4.687 0-3.2814 3.7654-9.6323 7.2408-12.213 4.5676-3.3912 9.0722-4.696 16.212-4.696 11.323 0 20.351 6.6283 22.084 16.214 0.36952 2.0429 1.3294 4.2601 2.1332 4.9272 6.3979 5.3098 5.8627 20.57-0.88734 25.298-4.4522 3.1185-4.6329 2.5595-4.9674-15.37-0.28675-15.371-0.50972-17.19-2.4204-19.75-6.933-9.2888-23.491-9.6691-31.349-0.71994-3.2451 3.6959-4.1112 8.4003-1.5466 8.4003 1.1929 0 1.5 1.458 1.5 7.1224 0 6.0857 0.2096 6.9485 1.44 5.9274 0.79198-0.65729 1.6307-2.1749 1.8638-3.3724 0.34624-1.7787 0.44879-1.6738 0.56004 0.57262 0.20472 4.1341 2.1112 3.3067 2.3043-1l0.16811-3.75 0.49221 4c0.48293 3.9245 0.51428 3.8774 1.6618-2.5l1.1696-6.5 0.71526 4c1.8008 10.071 2.2168 10.411 3.0582 2.5 0.85953-8.0814 2.2712-7.5382 2.5988 1 0.16955 4.4194 0.18664 4.4409 0.95436 1.1993 1.0491-4.4298 2.0101-5.1952 2.0289-1.6159 0.0296 5.639 1.6734 5.8057 2.4598 0.24946 0.83072-5.8694 1.0478-5.6925 2.0447 1.6654l0.67714 4.9982 1.3203-2.9982 1.3203-2.9982 0.0965 3c0.0746 2.319 0.31657 2.6595 1.0659 1.5 0.81045-1.2541 1.0014-1.1721 1.1648 0.5 0.10751 1.1 0.4519-1.375 0.76532-5.5 0.95608-12.584 2.5453-8.765 2.8479 6.8427 0.21884 11.289 0.006 14.253-1 13.923-0.70291-0.23098-1.4229-2.1594-1.5999-4.2854-0.2326-2.7935-0.575-3.4653-1.2347-2.4227-0.78678 1.2435-0.92544 1.2356-1.0042-0.05725-0.0503-0.825-0.69792 0.075-1.4392 2l-1.3478 3.5-0.0914-4c-0.0678-2.9681-0.34147-3.613-1.0608-2.5-0.53316 0.825-1.0228 2.85-1.088 4.5-0.111 2.8061-0.18693 2.7415-1.1749-1l-1.0562-4-1.2643 3.5c-0.98394 2.7238-1.2812 3.001-1.3404 1.25-0.11281-3.3363-1.7104-2.7257-2.6165 1l-0.79046 3.25-0.64289-4.5-0.64288-4.5-0.47073 3.5-0.47074 3.5-1.6394-3.5-1.6394-3.5-0.0816 3.309c-0.0965 3.9143-2.0177 3.3778-2.2132-0.61803-0.11527-2.3563-0.22326-2.2557-0.86836 0.80902-0.4052 1.925-0.80285 2.6-0.88367 1.5-0.12212-1.6619-0.30724-1.7464-1.0952-0.5-1.0189 1.6119-2.082 1.4991-3.2558-0.34549-0.41591-0.65357-0.74133 0.0387-0.75 1.5955-0.008 1.5125-0.35281 2.7844-0.76531 2.8265-0.4125 0.04208-1.425 0.20181-2.25 0.35495s-2.7205-0.13811-4.2122-0.64723z"/>
</svg>
