<?xml version="1.0" encoding="UTF-8" standalone="no"?>
<svg
   xmlns:dc="http://purl.org/dc/elements/1.1/"
   xmlns:cc="http://creativecommons.org/ns#"
   xmlns:rdf="http://www.w3.org/1999/02/22-rdf-syntax-ns#"
   xmlns:svg="http://www.w3.org/2000/svg"
   xmlns="http://www.w3.org/2000/svg"
   xmlns:xlink="http://www.w3.org/1999/xlink"
   xmlns:sodipodi="http://sodipodi.sourceforge.net/DTD/sodipodi-0.dtd"
   xmlns:inkscape="http://www.inkscape.org/namespaces/inkscape"
   enable-background="new 0 0 515.91 728.5"
   height="512"
   id="Layer_1"
   version="1.1"
   viewBox="0 0 512.00003 512"
   width="512"
   xml:space="preserve"
   inkscape:version="0.91 r"
   sodipodi:docname="1463408757_java.svg"><metadata
     id="metadata17"><rdf:RDF><cc:Work
         rdf:about=""><dc:format>image/svg+xml</dc:format><dc:type
           rdf:resource="http://purl.org/dc/dcmitype/StillImage" /></cc:Work></rdf:RDF></metadata><sodipodi:namedview
     pagecolor="#ffffff"
     bordercolor="#666666"
     borderopacity="1"
     objecttolerance="10"
     gridtolerance="10"
     guidetolerance="10"
     inkscape:pageopacity="0"
     inkscape:pageshadow="2"
     inkscape:window-width="1183"
     inkscape:window-height="714"
     id="namedview15"
     showgrid="false"
     inkscape:zoom="0.65186406"
     inkscape:cx="205.80108"
     inkscape:cy="228.04111"
     inkscape:window-x="105"
     inkscape:window-y="24"
     inkscape:window-maximized="0"
     inkscape:current-layer="Layer_1" /><defs
     id="defs7"><linearGradient
       inkscape:collect="always"
       id="linearGradient3355"><stop
         style="stop-color:#5382a1;stop-opacity:1;"
         offset="0"
         id="stop3357" /><stop
         id="stop3363"
         offset="0.07051282"
         style="stop-color:#d5f6ff;stop-opacity:1" /><stop
         style="stop-color:#00aad4;stop-opacity:1"
         offset="0.51666665"
         id="stop3367" /><stop
         style="stop-color:#006680;stop-opacity:1"
         offset="0.94102561"
         id="stop3365" /><stop
         style="stop-color:#5382a1;stop-opacity:0;"
         offset="1"
         id="stop3359" /></linearGradient><linearGradient
       inkscape:collect="always"
       xlink:href="#linearGradient3355"
       id="linearGradient3361"
       x1="-46.021866"
       y1="-46.398628"
       x2="552.26239"
       y2="551.88562"
       gradientUnits="userSpaceOnUse"
       gradientTransform="matrix(0.9400757,0,0,0.9400757,15.340623,15.340622)" /></defs><path
     inkscape:connector-curvature="0"
     style="fill:url(#linearGradient3361);fill-opacity:1;fill-rule:nonzero;stroke:none"
     id="path5114"
     d="M 496.65943,256 C 496.65943,388.91252 388.91255,496.6594 256,496.6594 123.08753,496.6594 15.340648,388.91252 15.340648,256 15.340648,123.08748 123.08753,15.340616 256,15.340616 388.91255,15.340616 496.65943,123.08748 496.65943,256 Z" /><g
     transform="matrix(1.0188807,0,0,1.0188807,-4728.5255,-3200.5533)"
     style="fill:#ffffff;fill-opacity:1"
     id="g10302"><path
       inkscape:connector-curvature="0"
       style="fill:#ffffff;fill-opacity:1"
       id="path3265"
       d="m 4838.8107,3460.2935 c 0,0 -14.178,8.245 10.09,11.035 29.4,3.354 44.426,2.873 76.825,-3.259 0,0 8.518,5.341 20.414,9.967 -72.63,31.128 -164.376,-1.803 -107.329,-17.743" /><path
       inkscape:connector-curvature="0"
       style="fill:#ffffff;fill-opacity:1"
       id="path3267"
       d="m 4829.9357,3419.6735 c 0,0 -15.902,11.771 8.384,14.283 31.406,3.24 56.208,3.505 99.125,-4.759 0,0 5.936,6.018 15.27,9.309 -87.814,25.678 -185.623,2.025 -122.779,-18.833" /><path
       inkscape:connector-curvature="0"
       style="fill:#ffffff;fill-opacity:1"
       id="path3269"
       d="m 4904.7547,3350.7685 c 17.896,20.604 -4.702,39.145 -4.702,39.145 0,0 45.441,-23.458 24.572,-52.833 -19.491,-27.394 -34.438,-41.005 46.479,-87.934 0,0 -127.013,31.722 -66.349,101.622" /><path
       inkscape:connector-curvature="0"
       style="fill:#ffffff;fill-opacity:1"
       id="path3271"
       d="m 5000.8137,3490.3385 c 0,0 10.492,8.645 -11.555,15.333 -41.923,12.7 -174.488,16.535 -211.314,0.506 -13.238,-5.759 11.587,-13.751 19.396,-15.428 8.144,-1.766 12.798,-1.437 12.798,-1.437 -14.722,-10.371 -95.157,20.364 -40.857,29.166 148.084,24.015 269.943,-10.814 231.532,-28.14" /><path
       inkscape:connector-curvature="0"
       style="fill:#ffffff;fill-opacity:1"
       id="path3273"
       d="m 4845.6287,3377.5865 c 0,0 -67.431,16.016 -23.879,21.832 18.389,2.462 55.047,1.905 89.193,-0.956 27.906,-2.354 55.927,-7.359 55.927,-7.359 0,0 -9.84,4.214 -16.959,9.075 -68.475,18.009 -200.756,9.631 -162.674,-8.79 32.206,-15.568 58.392,-13.802 58.392,-13.802" /><path
       inkscape:connector-curvature="0"
       style="fill:#ffffff;fill-opacity:1"
       id="path3275"
       d="m 4966.5917,3445.2005 c 69.608,-36.171 37.424,-70.931 14.96,-66.248 -5.506,1.146 -7.961,2.139 -7.961,2.139 0,0 2.044,-3.202 5.948,-4.588 44.441,-15.624 78.619,46.081 -14.346,70.52 0,0 1.077,-0.962 1.399,-1.823" /><path
       inkscape:connector-curvature="0"
       style="fill:#ffffff;fill-opacity:1"
       id="path3277"
       d="m 4924.6247,3173.3685 c 0,0 38.55,38.563 -36.563,97.862 -60.233,47.568 -13.735,74.69 -0.025,105.678 -35.159,-31.722 -60.961,-59.647 -43.651,-85.637 25.407,-38.151 95.793,-56.648 80.239,-117.903" /><path
       inkscape:connector-curvature="0"
       style="fill:#ffffff;fill-opacity:1"
       id="path3279"
       d="m 4852.4687,3543.2155 c 66.815,4.277 169.417,-2.373 171.847,-33.988 0,0 -4.671,11.985 -55.219,21.503 -57.028,10.732 -127.364,9.479 -169.081,2.601 0,-10e-4 8.54,7.068 52.453,9.884" /></g></svg>