<?xml version="1.0" encoding="UTF-8" standalone="no"?>
<!-- Created with Inkscape (http://www.inkscape.org/) -->

<svg
   xmlns:dc="http://purl.org/dc/elements/1.1/"
   xmlns:cc="http://creativecommons.org/ns#"
   xmlns:rdf="http://www.w3.org/1999/02/22-rdf-syntax-ns#"
   xmlns:svg="http://www.w3.org/2000/svg"
   xmlns="http://www.w3.org/2000/svg"
   xmlns:xlink="http://www.w3.org/1999/xlink"
   xmlns:sodipodi="http://sodipodi.sourceforge.net/DTD/sodipodi-0.dtd"
   xmlns:inkscape="http://www.inkscape.org/namespaces/inkscape"
   id="svg2"
   version="1.1"
   inkscape:version="0.91 r"
   width="320"
   height="320"
   viewBox="0 0 320 320"
   sodipodi:docname="imagemagick.svg">
  <metadata
     id="metadata8">
    <rdf:RDF>
      <cc:Work
         rdf:about="">
        <dc:format>image/svg+xml</dc:format>
        <dc:type
           rdf:resource="http://purl.org/dc/dcmitype/StillImage" />
        <dc:title></dc:title>
      </cc:Work>
    </rdf:RDF>
  </metadata>
  <defs
     id="defs6">
    <linearGradient
       inkscape:collect="always"
       id="linearGradient4140">
      <stop
         style="stop-color:#e6e6e6;stop-opacity:1;"
         offset="0"
         id="stop4142" />
      <stop
         id="stop4148"
         offset="0.12155239"
         style="stop-color:#5fbcd3;stop-opacity:1" />
      <stop
         style="stop-color:#37abc8;stop-opacity:1"
         offset="0.32584137"
         id="stop4150" />
      <stop
         id="stop4152"
         offset="0.87422442"
         style="stop-color:#8800aa;stop-opacity:1" />
      <stop
         style="stop-color:#e6e6e6;stop-opacity:0;"
         offset="1"
         id="stop4144" />
    </linearGradient>
    <linearGradient
       inkscape:collect="always"
       xlink:href="#linearGradient4140"
       id="linearGradient4146"
       x1="-13.559322"
       y1="-43.389832"
       x2="333.55933"
       y2="375.59323"
       gradientUnits="userSpaceOnUse" />
  </defs>
  <sodipodi:namedview
     pagecolor="#ffffff"
     bordercolor="#666666"
     borderopacity="1"
     objecttolerance="10"
     gridtolerance="10"
     guidetolerance="10"
     inkscape:pageopacity="0"
     inkscape:pageshadow="2"
     inkscape:window-width="1241"
     inkscape:window-height="662"
     id="namedview4"
     showgrid="false"
     inkscape:zoom="1.0429825"
     inkscape:cx="341.98459"
     inkscape:cy="152.74572"
     inkscape:window-x="10"
     inkscape:window-y="34"
     inkscape:window-maximized="0"
     inkscape:current-layer="svg2" />
  <path
     style="opacity:1;fill:url(#linearGradient4146);fill-opacity:1;fill-rule:nonzero;stroke:none;stroke-width:20.33898354;stroke-miterlimit:4;stroke-dasharray:none;stroke-opacity:1"
     d="m 116.51052,315.36022 c -5.83497,-0.65079 -15.3831,-2.42383 -21.218083,-3.94009 -5.83497,-1.51627 -12.778586,-3.31582 -15.430264,-3.99905 -7.336477,-1.89026 -22.134949,-9.03602 -30.655027,-14.80244 -8.527393,-5.77136 -15.546336,-16.17873 -15.567304,-23.08247 -0.01311,-4.32583 5.813884,-22.32373 11.553819,-35.68621 7.811345,-18.18468 19.789441,-44.80071 27.072605,-60.15692 4.276621,-9.01705 7.775677,-16.65441 7.775677,-16.97192 0,-0.60116 42.144347,-85.3101 44.758607,-89.963534 27.61414,-49.153753 41.41192,-61.5615008 68.53835,-61.6335668 14.66967,-0.03897 21.21196,2.716545 28.57963,12.0373508 5.74408,7.266795 9.15002,17.063424 13.90596,39.99822 3.30378,15.93204 6.97952,25.096137 10.96898,27.347044 1.80886,1.0206 1.97577,1.672576 0.74615,2.914822 -1.22938,1.242042 -2.41657,1.247034 -5.30451,0.02231 -8.53936,-3.621402 -15.56818,-12.750738 -25.09511,-32.594643 -4.47596,-9.323128 -6.70808,-12.642776 -8.28905,-12.327691 -1.86635,0.371962 -2.09922,2.256171 -1.69504,13.71525 0.38668,10.963082 0.0971,13.592357 -1.65767,15.048648 -2.75966,2.290319 -4.70539,0.697355 -8.7473,-7.161411 -6.28015,-12.210628 -7.96491,-5.060833 -3.20453,13.599399 3.5578,13.946137 6.28922,20.555624 21.77398,52.688512 46.70343,96.91576 59.66266,127.03261 59.66266,138.65415 0,18.62202 -21.65006,33.03817 -64.98037,43.26859 -12.56233,2.96601 -17.29699,3.33265 -48.40375,3.74824 -18.96366,0.25337 -39.25344,-0.0718 -45.08841,-0.72258 z m 82.88312,-33.65797 4.64145,-1.67582 -7.29371,-1.71386 c -4.01154,-0.94263 -8.48723,-2.32863 -9.94597,-3.08 -6.59299,-3.39593 -13.08804,-10.0791 -16.35182,-16.82539 -3.14671,-6.50433 -3.54014,-8.86494 -3.54014,-21.24189 0,-12.76245 0.32359,-14.56299 3.87792,-21.57769 4.10743,-8.10631 11.1296,-13.95508 20.44652,-17.02994 4.17668,-1.37842 4.46261,-1.72183 2.17705,-2.61449 -7.40951,-2.89389 -23.32039,0.67754 -33.2493,7.46329 -6.52811,4.46152 -13.38267,13.25878 -16.56574,21.26073 -0.84849,2.13304 -1.5634,8.95071 -1.58871,15.15036 -0.0393,9.6331 0.46587,12.27731 3.4743,18.18533 6.22665,12.22808 11.91917,17.41903 25.40636,23.16778 6.33613,2.70072 21.71013,2.98734 28.51179,0.53159 z M 81.903801,245.78513 c 7.55213,-4.01551 7.807668,-4.01772 15.728081,-0.13636 l 6.317828,3.09602 -0.86386,-8.43177 -0.86386,-8.43179 5.79412,-5.14183 5.79413,-5.14184 -4.28591,-0.83598 c -2.35725,-0.4598 -6.0924,-1.18533 -8.30032,-1.61232 -3.247766,-0.62808 -4.73472,-2.20084 -7.786135,-8.23539 l -3.771728,-7.45903 -3.537814,7.47834 c -2.876976,6.08143 -4.271262,7.61974 -7.464363,8.23537 -2.159597,0.41638 -5.780749,1.11688 -8.047009,1.55669 l -4.12046,0.79963 5.586582,5.69232 c 5.314614,5.4152 5.542786,5.97346 4.686656,11.46708 -0.494956,3.1761 -1.194936,6.81906 -1.555483,8.09546 -0.838184,2.96725 -0.731951,2.95145 6.689545,-0.9946 z m 55.458189,-56.41982 c 4.21318,2.15635 7.66032,3.45982 7.66032,2.89658 0,-0.56322 -0.61829,-4.36871 -1.37399,-8.45665 l -1.37399,-7.43262 6.01015,-5.7407 c 3.30558,-3.15741 6.01253,-6.12054 6.01544,-6.58474 0.003,-0.46422 -2.8293,-1.24415 -6.29381,-1.7332 -10.16077,-1.43428 -10.91719,-1.93451 -14.38296,-9.51144 -1.81758,-3.97365 -3.7549,-6.94655 -4.30516,-6.60646 -0.55026,0.34006 -2.41204,3.63206 -4.13729,7.31553 -3.31691,7.08173 -3.74044,7.35174 -13.64317,8.69711 -3.46451,0.47069 -6.29911,1.29174 -6.29911,1.82456 0,0.53282 2.59821,3.51872 5.7738,6.63532 5.56797,5.46455 5.7355,5.86443 4.69921,11.21669 -0.59103,3.05257 -1.10059,6.87432 -1.13236,8.49278 -0.0573,2.92002 6.3e-4,2.91237 7.53243,-0.99538 l 7.59017,-3.93802 7.66032,3.92064 z"
     id="path3338"
     inkscape:connector-curvature="0" />
  <rect
     style="opacity:1;fill:#e5d5ff;fill-opacity:1;fill-rule:nonzero;stroke:none;stroke-width:15;stroke-miterlimit:4;stroke-dasharray:none;stroke-opacity:1"
     id="rect4154"
     width="170.84758"
     height="173.55933"
     x="-356.61017"
     y="16.271187"
     ry="25" />
  <path
     style="opacity:1;fill:#e5d5ff;fill-opacity:1;fill-rule:nonzero;stroke:#e5d5ff;stroke-width:2;stroke-miterlimit:4;stroke-dasharray:none;stroke-opacity:1"
     d="m 177.02304,282.6789 c -1.67797,-0.26827 -3.9661,-0.81482 -5.08475,-1.21456 -3.10394,-1.10915 -9.87918,-4.58936 -12.61378,-6.47928 -5.39458,-3.72826 -9.91369,-9.32629 -13.7613,-17.04677 -2.42761,-4.87115 -2.89267,-6.54286 -3.34425,-12.02134 -0.42201,-5.11969 0.0417,-15.04598 0.89028,-19.05811 1.48091,-7.0017 10.11463,-18.72315 17.32458,-23.52049 7.14501,-4.75412 16.55509,-7.8298 25.0638,-8.19207 4.11202,-0.17507 7.72757,0.36531 8.88804,1.32841 0.66578,0.55255 0.31043,0.77245 -3.43274,2.12435 -10.52287,3.80048 -17.27213,10.01083 -21.55939,19.83797 -1.32436,3.03566 -1.59331,3.9218 -2.04977,6.75368 -0.54084,3.35541 -0.44011,21.33918 0.13786,24.61201 1.58816,8.9932 8.09209,18.27324 16.79349,23.96156 2.63753,1.72422 6.87098,3.25614 12.95201,4.68685 1.75216,0.41223 3.94846,0.93428 4.88066,1.1601 l 1.69492,0.41057 -2.0339,0.76931 c -4.91045,1.85735 -6.70529,2.13897 -14.40678,2.26054 -5.20067,0.0821 -8.16196,-0.0246 -10.33898,-0.37273 z"
     id="path4162"
     inkscape:connector-curvature="0" />
  <path
     style="opacity:1;fill:#e5d5ff;fill-opacity:1;fill-rule:nonzero;stroke:#e5d5ff;stroke-width:2;stroke-miterlimit:4;stroke-dasharray:none;stroke-opacity:1"
     d="m 75.047013,248.68805 c -0.07459,-0.1327 0.298084,-2.37687 0.828167,-4.98704 1.448694,-7.13348 1.574493,-9.25477 0.66077,-11.14227 -0.435619,-0.89987 -2.649415,-3.51551 -5.332062,-6.29992 -2.522947,-2.61866 -4.533889,-4.76165 -4.468759,-4.7622 0.516871,-0.004 12.558941,-2.46309 13.396281,-2.73524 1.956348,-0.63584 3.687531,-3.0188 6.63135,-9.12798 1.527328,-3.1696 2.859011,-5.76233 2.959297,-5.76163 0.100286,7e-4 1.433602,2.48798 2.962925,5.52729 2.881708,5.72698 4.713143,8.25579 6.617281,9.13699 0.610833,0.28268 4.047047,1.08297 7.636027,1.77843 3.58899,0.69545 6.51372,1.36056 6.4994,1.47803 -0.0143,0.11747 -2.53126,2.40838 -5.59322,5.09091 -4.5737,4.00695 -5.56472,5.03533 -5.55332,5.76271 0.008,0.48696 0.3684,4.24132 0.80171,8.34301 0.4333,4.1017 0.75414,7.49919 0.71296,7.54999 -0.0412,0.0508 -2.64431,-1.16627 -5.784761,-2.70461 -5.075785,-2.48636 -5.956484,-2.81047 -7.930233,-2.9184 -2.193368,-0.11994 -2.288248,-0.0877 -7.81355,2.65767 -6.337703,3.149 -7.040572,3.45175 -7.230263,3.11426 z"
     id="path4164"
     inkscape:connector-curvature="0" />
  <path
     style="opacity:1;fill:#e5d5ff;fill-opacity:1;fill-rule:nonzero;stroke:#e5d5ff;stroke-width:2;stroke-miterlimit:4;stroke-dasharray:none;stroke-opacity:1"
     d="m 114.68629,191.80853 c -0.244,-0.63586 0.28392,-5.66302 0.98884,-9.41616 0.58513,-3.11544 0.63241,-4.91031 0.16194,-6.14776 -0.18619,-0.4897 -2.05483,-2.67621 -4.15255,-4.85892 -4.68069,-4.87034 -6.47955,-7.04168 -6.20362,-7.48815 0.31128,-0.50366 2.14919,-0.95204 7.76517,-1.89441 5.41415,-0.9085 7.31733,-1.56692 8.76498,-3.03232 0.50612,-0.51233 2.14054,-3.32022 3.63205,-6.23977 1.49151,-2.91954 2.93228,-5.60974 3.20171,-5.97821 0.48283,-0.66031 0.50019,-0.66061 1.20674,-0.0212 0.39428,0.35681 1.86258,2.91068 3.26289,5.67526 1.40032,2.76459 3.00008,5.54365 3.55502,6.1757 1.52491,1.73677 3.61193,2.52477 9.16912,3.46198 5.91781,0.99803 7.82575,1.50233 8.03269,2.12316 0.0854,0.25605 -2.43981,3.00773 -5.82719,6.34992 l -5.9778,5.89808 1.38715,7.82595 c 0.76293,4.30428 1.30953,7.90358 1.21465,7.99845 -0.34562,0.34562 -2.88978,-0.71747 -8.96362,-3.74548 l -6.20332,-3.09257 -6.75073,3.47149 c -3.7129,1.90932 -7.04492,3.47149 -7.40448,3.47149 -0.35956,0 -0.7464,-0.24144 -0.85964,-0.53654 z"
     id="path4166"
     inkscape:connector-curvature="0" />
</svg>
