<?xml version="1.0" encoding="UTF-8" standalone="no"?>
<svg
   xmlns:dc="http://purl.org/dc/elements/1.1/"
   xmlns:cc="http://creativecommons.org/ns#"
   xmlns:rdf="http://www.w3.org/1999/02/22-rdf-syntax-ns#"
   xmlns:svg="http://www.w3.org/2000/svg"
   xmlns="http://www.w3.org/2000/svg"
   xmlns:xlink="http://www.w3.org/1999/xlink"
   xmlns:sodipodi="http://sodipodi.sourceforge.net/DTD/sodipodi-0.dtd"
   xmlns:inkscape="http://www.inkscape.org/namespaces/inkscape"
   viewBox="0 0 128 128"
   id="svg2"
   version="1.1"
   inkscape:version="0.91 r"
   width="100%"
   height="100%"
   sodipodi:docname="preferences-system-hotcorners.svg">
  <metadata
     id="metadata69">
    <rdf:RDF>
      <cc:Work
         rdf:about="">
        <dc:format>image/svg+xml</dc:format>
        <dc:type
           rdf:resource="http://purl.org/dc/dcmitype/StillImage" />
        <dc:title />
      </cc:Work>
    </rdf:RDF>
  </metadata>
  <sodipodi:namedview
     pagecolor="#ffffff"
     bordercolor="#666666"
     borderopacity="1"
     objecttolerance="10"
     gridtolerance="10"
     guidetolerance="10"
     inkscape:pageopacity="0"
     inkscape:pageshadow="2"
     inkscape:window-width="1366"
     inkscape:window-height="744"
     id="namedview67"
     showgrid="false"
     inkscape:zoom="1.7383041"
     inkscape:cx="65.58628"
     inkscape:cy="87.285584"
     inkscape:window-x="0"
     inkscape:window-y="24"
     inkscape:window-maximized="1"
     inkscape:current-layer="svg2" />
  <defs
     id="defs4">
    <linearGradient
       id="linearGradient3764"
       x1="1"
       x2="47"
       gradientUnits="userSpaceOnUse"
       gradientTransform="matrix(0,-1,1,0,-1.5e-6,47.999998)">
      <stop
         stop-color="#e4e4e4"
         stop-opacity="1"
         id="stop7" />
      <stop
         offset="1"
         stop-color="#eee"
         stop-opacity="1"
         id="stop9" />
    </linearGradient>
    <clipPath
       id="clipPath-365326813">
      <g
         transform="translate(0,-1004.3622)"
         id="g12">
        <path
           d="m -24,13 c 0,1.105 -0.672,2 -1.5,2 -0.828,0 -1.5,-0.895 -1.5,-2 0,-1.105 0.672,-2 1.5,-2 0.828,0 1.5,0.895 1.5,2 z"
           transform="matrix(15.333333,0,0,11.5,414.99999,878.8622)"
           id="path14"
           inkscape:connector-curvature="0"
           style="fill:#1890d0" />
      </g>
    </clipPath>
    <clipPath
       id="clipPath-370729992">
      <g
         transform="translate(0,-1004.3622)"
         id="g17">
        <path
           d="m -24,13 c 0,1.105 -0.672,2 -1.5,2 -0.828,0 -1.5,-0.895 -1.5,-2 0,-1.105 0.672,-2 1.5,-2 0.828,0 1.5,0.895 1.5,2 z"
           transform="matrix(15.333333,0,0,11.5,414.99999,878.8622)"
           id="path19"
           inkscape:connector-curvature="0"
           style="fill:#1890d0" />
      </g>
    </clipPath>
    <inkscape:perspective
       id="perspective3018"
       inkscape:persp3d-origin="256 : 170.66667 : 1"
       inkscape:vp_z="512 : 256 : 1"
       inkscape:vp_y="0 : 1000 : 0"
       inkscape:vp_x="0 : 256 : 1"
       sodipodi:type="inkscape:persp3d" />
    <linearGradient
       inkscape:collect="always"
       xlink:href="#0"
       id="linearGradient3356"
       x1="-37.392765"
       y1="-0.28595063"
       x2="158.20016"
       y2="113.04289"
       gradientUnits="userSpaceOnUse"
       gradientTransform="matrix(0.95881459,0,0,0.95881459,2.9195846,3.9482264)" />
    <linearGradient
       gradientUnits="userSpaceOnUse"
       y2="7.2690001"
       x2="0.021"
       y1="18.836"
       x1="0.152"
       id="0">
      <stop
         id="stop7-8"
         stop-color="#535e66" />
      <stop
         id="stop9-8"
         stop-color="#7d8b98"
         offset="1" />
    </linearGradient>
    <linearGradient
       gradientUnits="userSpaceOnUse"
       y2="-6.4439998"
       x2="4.7509999"
       y1="18.226999"
       x1="5.71"
       id="1">
      <stop
         id="stop12"
         stop-color="#566069" />
      <stop
         id="stop14"
         stop-color="#6c7884"
         offset="1" />
    </linearGradient>
    <linearGradient
       gradientUnits="userSpaceOnUse"
       y2="-6.9980001"
       x2="4.0650001"
       y1="12.926"
       x1="4.1989999"
       id="2">
      <stop
         id="stop17"
         stop-color="#197cf1" />
      <stop
         id="stop19"
         stop-color="#59d0ff"
         offset="1" />
    </linearGradient>
  </defs>
  <g
     id="g33"
     transform="translate(0,80)" />
  <rect
     style="fill:#989898;fill-opacity:1;fill-rule:evenodd;stroke:none"
     id="rect3791"
     width="30.516447"
     height="18.015734"
     x="48.155094"
     y="92.853455" />
  <rect
     style="fill:url(#linearGradient3356);fill-opacity:1.0;fill-rule:evenodd;stroke:#676767;stroke-width:5.3693614;stroke-miterlimit:4;stroke-dasharray:none;stroke-opacity:1"
     id="rect3005"
     width="115.16421"
     height="72.787758"
     x="6.6104007"
     y="20.392254" />
  <path
     style="fill:#6b6b6b"
     d="m 41.953051,113.31361 c -0.07033,-0.18337 -0.09416,-0.80411 -0.05286,-1.37941 l 0.07505,-1.04601 4.999612,-0.0649 c 3.94558,-0.0512 5.106303,-0.13961 5.505806,-0.41942 0.427481,-0.29941 2.084576,-0.35456 10.654581,-0.35456 7.679729,0 10.275732,0.0729 10.671892,0.29959 0.350399,0.20053 2.148074,0.33921 5.436728,0.41942 l 4.913224,0.11984 0,1.31817 0,1.31819 -21.03803,0.0612 c -17.787953,0.0518 -21.057791,0.01 -21.165954,-0.27216 z"
     id="path3797"
     inkscape:connector-curvature="0" />
  <path
     style="fill:#6d6c6d;fill-opacity:1;fill-rule:nonzero;stroke:none"
     d=""
     id="path3775"
     inkscape:connector-curvature="0" />
  <g
     id="g2996"
     transform="matrix(0.47571544,0,0,0.47571544,-274.08864,-7.111237)" />
  <path
     id="path3191"
     inkscape:label="Triangle"
     style="fill:#00aad4;fill-opacity:1;stroke:none"
     d="m 115.39288,87.373054 -24.316657,0 24.257927,-22.019358 z"
     inkscape:connector-curvature="0"
     sodipodi:nodetypes="cccc" />
  <path
     id="path3191-8"
     inkscape:label="Triangle"
     style="fill:#00aad4;fill-opacity:1;stroke:none"
     d="m 13.095248,26.406959 24.316651,0 -24.257913,22.019367 z"
     inkscape:connector-curvature="0"
     sodipodi:nodetypes="cccc" />
</svg>
