<?xml version="1.0" encoding="UTF-8" standalone="no"?>
<!-- Created with Inkscape (http://www.inkscape.org/) -->

<svg
   xmlns:dc="http://purl.org/dc/elements/1.1/"
   xmlns:cc="http://creativecommons.org/ns#"
   xmlns:rdf="http://www.w3.org/1999/02/22-rdf-syntax-ns#"
   xmlns:svg="http://www.w3.org/2000/svg"
   xmlns="http://www.w3.org/2000/svg"
   version="1.0"
   width="128"
   height="128"
   id="svg3449">
  <metadata
     id="metadata56">
    <rdf:RDF>
      <cc:Work
         rdf:about="">
        <dc:format>image/svg+xml</dc:format>
        <dc:type
           rdf:resource="http://purl.org/dc/dcmitype/StillImage" />
        <dc:title></dc:title>
      </cc:Work>
    </rdf:RDF>
  </metadata>
  <defs
     id="defs3451">
    <linearGradient
       x1="67.952003"
       y1="-42.638"
       x2="66.491997"
       y2="-9.1034002"
       id="linearGradient3514"
       gradientUnits="userSpaceOnUse"
       gradientTransform="matrix(0.96826,0,0,0.97948,2.179,0.16587)">
      <stop
         id="stop4620"
         style="stop-color:#37414b;stop-opacity:1"
         offset="0" />
      <stop
         id="stop4622"
         style="stop-color:#37414b;stop-opacity:0"
         offset="1" />
    </linearGradient>
    <linearGradient
       x1="57.173"
       y1="-118.55"
       x2="58.98"
       y2="-11.847"
       id="linearGradient3516"
       gradientUnits="userSpaceOnUse"
       gradientTransform="matrix(0.96826,0,0,0.97948,2.179,0.16587)">
      <stop
         id="stop4596"
         style="stop-color:#000000;stop-opacity:1"
         offset="0" />
      <stop
         id="stop4598"
         style="stop-color:#000000;stop-opacity:0"
         offset="1" />
    </linearGradient>
    <linearGradient
       x1="76.557999"
       y1="13.164"
       x2="76.557999"
       y2="50.368999"
       id="linearGradient3519"
       gradientUnits="userSpaceOnUse"
       gradientTransform="matrix(0.96826,0,0,0.97948,3.2423,-129.19)">
      <stop
         id="stop3392"
         style="stop-color:#425e7b;stop-opacity:1"
         offset="0" />
      <stop
         id="stop3394"
         style="stop-color:#7a91a7;stop-opacity:1"
         offset="1" />
    </linearGradient>
    <linearGradient
       x1="60.395"
       y1="-123.72"
       x2="60.216999"
       y2="-8.7398996"
       id="linearGradient3521"
       gradientUnits="userSpaceOnUse"
       gradientTransform="matrix(0.96826,0,0,0.97948,2.179,0.16587)">
      <stop
         id="stop3392-4-8"
         style="stop-color:#425e7b;stop-opacity:1"
         offset="0" />
      <stop
         id="stop3394-8-0"
         style="stop-color:#7a91a7;stop-opacity:1"
         offset="1" />
    </linearGradient>
    <radialGradient
       cx="42.147999"
       cy="45.646999"
       r="58.984001"
       id="radialGradient3349"
       gradientUnits="userSpaceOnUse"
       gradientTransform="matrix(0.9469,0,0,1.139,3.5954,-29.89)">
      <stop
         id="stop2699-5"
         style="stop-color:#86b3e0;stop-opacity:1"
         offset="0" />
      <stop
         id="stop2701-7"
         style="stop-color:#649ad6;stop-opacity:1"
         offset="1" />
    </radialGradient>
  </defs>
  <rect
     width="114.22"
     height="115.54"
     ry="29.296"
     x="7.0394001"
     y="-122.25"
     transform="scale(1,-1)"
     id="rect892"
     style="fill:url(#linearGradient3519);stroke:url(#linearGradient3521);stroke-width:0.97385001" />
  <rect
     width="114.22"
     height="114.35"
     ry="28.993"
     x="7.0598998"
     y="-121.46"
     transform="scale(1,-1)"
     id="rect892-2"
     style="fill:url(#linearGradient3514);stroke:url(#linearGradient3516);stroke-width:0.97385001" />
  <path
     d="M 33.051,7.2596 C 25.082,4.8103 6.038,22.4336 7.398,30.2976 7.347858,31.27138 7.309228,32.2624 7.309228,33.2548 v 52.419 c 0,20.876 10.712,33.859 22.318,33.859 h 67.038 c 12.638002,0 24.318002,-11.245 24.318002,-25.859 v -64.017 c 0.7,-10.928 -21.283002,-24.659 -25.926002,-22.618 -47.846,0.8653 -18.017,0.2236 -62.003,0.2236 z"
     id="rect895"
     style="fill:url(#radialGradient3349)" />
  <rect
     width="114.22"
     height="114.35"
     ry="28.993"
     x="6.8687"
     y="-121.16"
     transform="scale(1,-1)"
     id="rect892-2-7-8"
     style="opacity:0.15891;fill:none;stroke:#000000;stroke-width:4.84450006" />
  <rect
     width="114.22"
     height="114.35"
     ry="28.993"
     x="6.8687"
     y="-121.16"
     transform="scale(1,-1)"
     id="rect892-2-7-1"
     style="opacity:0.15891;fill:none;stroke:#000000;stroke-width:7.7512002" />
  <rect
     width="113.94824"
     height="113.09351"
     ry="28.066999"
     x="7.2566576"
     y="-120.69351"
     transform="scale(1,-1)"
     id="rect892-2-7-2-9"
     style="fill:none;stroke:#000000;stroke-width:1.04890001" />
  <path
     d="M 33.017,7.2319 C 9.31,7.2319 6.99,7.9057 7.087,33.5269 7.04366,34.24253 7.01026,34.9708 7.01026,35.7001 v 32.76 c 18.67,-38.321 38.34,-51.497 90.374,-61.179 -0.225,-0.026 -0.46,-0.0303 -0.691,-0.0303 -41.576,0.3874 -25.652,-0.0188 -63.676,-0.0188 z"
     id="path1187"
     style="fill:#ffffff;fill-opacity:0.05714303" />
  <g
     transform="matrix(0.25,0,0,0.25,2.0001915e-7,4.063662e-4)"
     id="g4039"
     style="display:inline">
    <g
       transform="matrix(1.0715653,0,0,1.0715653,-18.320717,-18.310304)"
       id="g3833" />
    <g
       transform="matrix(1.2540782,-0.00185834,0.00185834,1.2540782,-174.90772,91.384721)"
       id="g3970"
       style="display:inline" />
  </g>
  <g
     transform="matrix(0.25,0,0,0.25,-2.5754884,-3.0711131)"
     id="g3056">
    <path
       d="m 249.0918,138.21875 c -1.04561,0.003 -2.09259,0.0258 -3.13868,0.0606 -0.30145,0.01 -0.60284,0.0244 -0.90429,0.0371 -0.8264,0.0348 -1.65232,0.0817 -2.47852,0.13671 -0.33208,0.0221 -0.66408,0.041 -0.99609,0.0664 -1.08161,0.0828 -2.16378,0.1789 -3.24414,0.29688 -0.14272,0.0156 -0.28505,0.0365 -0.42774,0.0527 -0.94643,0.10747 -1.89107,0.2304 -2.83593,0.36524 -0.35631,0.0508 -0.71233,0.10539 -1.06836,0.16015 -0.83952,0.12912 -1.67788,0.26888 -2.51563,0.41992 -0.26297,0.0474 -0.52629,0.091 -0.78906,0.14063 -1.0689,0.20171 -2.13602,0.42224 -3.20117,0.66015 -0.27521,0.0615 -0.5493,0.12946 -0.82422,0.19336 -0.85028,0.19764 -1.69954,0.40591 -2.54688,0.62696 -0.31394,0.0819 -0.6279,0.16291 -0.9414,0.24804 -1.07824,0.2928 -2.15402,0.59836 -3.22657,0.92969 -39.97762,12.35003 -70.95322,47.29018 -78.13085,88.13477 -3.64309,20.7311 -1.30015,41.05945 6.73046,60.05273 0.40307,0.95329 0.82223,1.90121 1.25391,2.84766 l -23.92773,-23.92774 -5.70118,5.46289 c -3.13558,3.00408 -10.10573,11.83301 -15.48828,19.61914 -0.79306,1.14721 -1.55245,2.27858 -2.29492,3.4043 -0.19715,0.29891 -0.38845,0.59519 -0.58203,0.89258 -0.55159,0.84737 -1.08868,1.68849 -1.61133,2.52344 -0.19037,0.30412 -0.383778,0.60964 -0.570311,0.91211 -0.674477,1.0937 -1.328828,2.18001 -1.953125,3.25195 -0.02144,0.0368 -0.04112,0.0726 -0.0625,0.10937 -0.592722,1.01983 -1.155864,2.02742 -1.703125,3.02735 -0.169452,0.30962 -0.334904,0.61613 -0.5,0.92383 -0.420382,0.78348 -0.824657,1.56103 -1.216797,2.33203 -0.142425,0.28003 -0.289034,0.56147 -0.427734,0.83984 -0.497232,0.99795 -0.976408,1.98826 -1.425781,2.96485 -0.08245,0.17916 -0.155489,0.35474 -0.236328,0.5332 -0.374631,0.82701 -0.732219,1.64561 -1.072266,2.45703 -0.114772,0.27386 -0.225104,0.54628 -0.335937,0.81836 -0.314401,0.77182 -0.613771,1.53558 -0.896485,2.29297 -0.08033,0.21518 -0.164417,0.43247 -0.242187,0.64648 -0.341874,0.94086 -0.662611,1.87288 -0.955078,2.79102 -0.05509,0.17293 -0.102914,0.34154 -0.15625,0.51367 -0.229241,0.73981 -0.441796,1.47248 -0.638672,2.19727 -0.07945,0.29246 -0.154338,0.58303 -0.228516,0.87304 -0.169902,0.6643 -0.326484,1.32131 -0.46875,1.97266 -0.04884,0.22359 -0.102854,0.44982 -0.148437,0.67187 -0.175619,0.85556 -0.327775,1.7005 -0.455079,2.53321 -0.02612,0.17087 -0.04427,0.3379 -0.06836,0.50781 -0.09757,0.68818 -0.17993,1.36876 -0.244141,2.04101 -0.02218,0.23219 -0.04039,0.46309 -0.05859,0.69336 -0.05051,0.63907 -0.08559,1.27022 -0.105469,1.89454 -0.0058,0.18171 -0.01829,0.3664 -0.02148,0.54687 -0.01369,0.77402 -0.0028,1.53629 0.03125,2.28711 0.0092,0.20206 0.0284,0.39923 0.04102,0.59961 0.03603,0.57242 0.08422,1.13867 0.148438,1.69726 0.02556,0.22237 0.052,0.44391 0.08203,0.66407 0.08067,0.59144 0.178127,1.17451 0.291016,1.75 0.02861,0.14584 0.05135,0.29463 0.08203,0.43945 0.147456,0.69608 0.320385,1.38052 0.515625,2.05273 0.137765,0.47431 0.28572,0.9439 0.447266,1.40625 0.02869,0.0821 0.06041,0.1624 0.08984,0.24415 0.152363,0.42301 0.313883,0.84105 0.486328,1.2539 0.04197,0.10048 0.08379,0.20091 0.126953,0.30078 0.20315,0.47014 0.416989,0.93391 0.646485,1.39063 0.04287,0.0853 0.08903,0.16907 0.132812,0.2539 0.191243,0.37055 0.392792,0.73609 0.601563,1.09766 0.07451,0.12904 0.14787,0.25883 0.224609,0.38672 0.255723,0.42617 0.522231,0.84638 0.802735,1.25976 0.04585,0.0676 0.09411,0.13395 0.140625,0.20118 0.255407,0.36916 0.52151,0.73299 0.796875,1.09179 0.07262,0.0946 0.144746,0.18931 0.21875,0.28321 0.320511,0.40667 0.651513,0.80809 0.998046,1.20117 0.406291,0.46084 0.829437,0.91342 1.271485,1.35547 L 225,492 393.65625,492 C 448.13292,492 492,448.13291 492,393.65625 l 0,-165.52148 -74.01562,-74.01563 c -0.0676,-0.0676 -0.14056,-0.13208 -0.20899,-0.19922 -0.12822,-0.1258 -0.2594,-0.25074 -0.39062,-0.375 -0.2515,-0.23813 -0.50898,-0.47263 -0.77149,-0.70508 -0.13971,-0.12372 -0.27905,-0.24702 -0.42187,-0.36914 -0.29291,-0.2504 -0.59437,-0.4966 -0.90039,-0.74023 -0.12136,-0.0966 -0.23791,-0.19546 -0.36133,-0.29102 -0.008,-0.006 -0.0155,-0.0134 -0.0234,-0.0195 -0.40243,-0.311 -0.81787,-0.61633 -1.24219,-0.91601 -0.13671,-0.0966 -0.27899,-0.18978 -0.41797,-0.28516 -0.34441,-0.23637 -0.69437,-0.47007 -1.05273,-0.69922 -0.1335,-0.0854 -0.26886,-0.16955 -0.4043,-0.25391 -0.3459,-0.21545 -0.69811,-0.4278 -1.05664,-0.63671 -0.17793,-0.10369 -0.35411,-0.20848 -0.53515,-0.31055 -0.49855,-0.28106 -1.00523,-0.55734 -1.52735,-0.82617 -8.4068,-4.32854 -11.41195,-4.77735 -32.03711,-4.77735 -12.518,0 -28.10542,1.18598 -34.63672,2.63477 -11.09182,2.46042 -11.67792,2.851 -8.90234,5.91797 0.10424,0.11519 0.2094,0.22697 0.31641,0.33398 l 57.82031,57.82032 c -2.762,4.74681 -6.1153,9.65043 -9.96094,14.65234 l -52.02344,-52.02344 c -0.0896,-0.0896 -0.18358,-0.1744 -0.27343,-0.26367 -0.79482,-0.78958 -1.59721,-1.5704 -2.41407,-2.33594 -0.809,-0.75817 -1.63109,-1.50217 -2.46093,-2.23633 -0.25757,-0.22786 -0.51783,-0.4522 -0.77735,-0.67773 -0.61611,-0.5354 -1.23831,-1.06385 -1.86523,-1.58594 -0.23269,-0.19377 -0.46312,-0.3901 -0.69727,-0.58203 -0.84551,-0.69306 -1.70038,-1.37429 -2.56445,-2.04297 -0.19078,-0.14763 -0.38451,-0.29106 -0.57617,-0.4375 -0.73268,-0.55979 -1.47152,-1.11026 -2.2168,-1.65234 -0.22173,-0.16128 -0.44319,-0.32273 -0.66601,-0.48242 -0.86391,-0.61915 -1.73346,-1.22909 -2.61329,-1.82422 -0.0449,-0.0304 -0.0879,-0.0635 -0.13281,-0.0937 -0.01,-0.007 -0.0196,-0.013 -0.0293,-0.0195 -0.92658,-0.62449 -1.8652,-1.23069 -2.80859,-1.82813 -0.23478,-0.14868 -0.47124,-0.29442 -0.70703,-0.4414 -0.7651,-0.47698 -1.5351,-0.9453 -2.31055,-1.4043 -0.2306,-0.1365 -0.45991,-0.27526 -0.6914,-0.41016 -0.95789,-0.55818 -1.9219,-1.10429 -2.89453,-1.63476 -0.14507,-0.0791 -0.29212,-0.15393 -0.4375,-0.23243 -0.84362,-0.45548 -1.69288,-0.89961 -2.54688,-1.33398 -0.26405,-0.1343 -0.52796,-0.26812 -0.79297,-0.40039 -0.84231,-0.4204 -1.68931,-0.83081 -2.54101,-1.23047 -0.17742,-0.0832 -0.35344,-0.16961 -0.53125,-0.25195 -0.99493,-0.46076 -1.99708,-0.90578 -3.00391,-1.33789 -0.25648,-0.11008 -0.51428,-0.21602 -0.77148,-0.32422 -0.8038,-0.33812 -1.61111,-0.66668 -2.42188,-0.98633 -0.27205,-0.10726 -0.5436,-0.21515 -0.81641,-0.32031 -1.03988,-0.40086 -2.08245,-0.79197 -3.13281,-1.16211 -0.006,-0.002 -0.0117,-0.004 -0.0176,-0.006 -0.0305,-0.0108 -0.0613,-0.0205 -0.0918,-0.0312 -1.00025,-0.35135 -2.00664,-0.68472 -3.01563,-1.00781 -0.30029,-0.0962 -0.60131,-0.18957 -0.90234,-0.28321 -0.84866,-0.26397 -1.70049,-0.51797 -2.55469,-0.76172 -0.22089,-0.063 -0.44086,-0.12973 -0.66211,-0.1914 -1.05544,-0.2942 -2.11472,-0.57104 -3.17773,-0.83399 -0.25486,-0.063 -0.51037,-0.12236 -0.76563,-0.18359 -0.84238,-0.20206 -1.68664,-0.39398 -2.5332,-0.57617 -0.31038,-0.0668 -0.62073,-0.13316 -0.93164,-0.19727 -0.97304,-0.20064 -1.94798,-0.39037 -2.92578,-0.56445 -0.11278,-0.0201 -0.22506,-0.0428 -0.33789,-0.0625 -0.003,-4.6e-4 -0.005,-10e-4 -0.008,-0.002 -1.06616,-0.18628 -2.13601,-0.35158 -3.20703,-0.50586 -0.30967,-0.0446 -0.61965,-0.085 -0.92969,-0.12696 -0.81657,-0.11039 -1.63424,-0.21117 -2.45312,-0.30273 -0.32489,-0.0363 -0.64939,-0.0741 -0.97461,-0.10742 -1.07272,-0.10998 -2.14689,-0.20596 -3.22266,-0.28321 -0.18605,-0.0134 -0.37246,-0.0228 -0.55859,-0.0351 -0.91516,-0.0608 -1.83128,-0.1077 -2.74805,-0.14453 -0.3248,-0.013 -0.64964,-0.0251 -0.97461,-0.0352 -0.95946,-0.0296 -1.91838,-0.0478 -2.8789,-0.0508 -0.14458,-4.4e-4 -0.289,-0.004 -0.4336,-0.004 -0.0515,6e-5 -0.10281,-0.002 -0.15429,-0.002 z"
       id="path7490"
       style="fill:#000000;fill-opacity:0.15686275" />
    <path
       d="m 404.06174,40.230362 c -0.2832,-0.0095 -0.77216,0.129402 -0.99385,0.33093 -0.44336,0.403057 -0.4179,1.204395 0,1.657303 0.41896,0.42427 1.21172,0.434877 1.65731,0 0.44443,-0.392449 0.41896,-1.193788 0,-1.657303 -0.21002,-0.189861 -0.37973,-0.326687 -0.66293,-0.33093 z m -302.52243,3.634831 c -0.43168,0 -0.83156,0.259865 -0.99385,0.662922 -0.2185,0.593977 0.0954,1.109464 0.66292,1.325842 0.57383,0.243954 1.10809,-0.0053 1.32585,-0.662922 0.2185,-0.593977 -0.0954,-1.122192 -0.66292,-1.325842 -0.1432,-0.02122 -0.18775,-0.0043 -0.33093,0 z m 88.5,0.662922 c -0.43064,0 -0.83051,0.259864 -0.99386,0.66292 -0.2185,0.593978 0.0954,1.122194 0.66293,1.325843 0.57275,0.243955 1.43953,-0.0053 1.6573,-0.662921 0.21849,-0.593978 -0.0849,-1.122194 -0.66293,-1.325842 -0.14319,-0.0095 -0.51972,-0.0032 -0.66291,0 z M 124.4101,56.129236 c -0.43064,0 -0.83157,0.259865 -0.99386,0.662921 -0.21849,0.593978 0.0954,1.455776 0.66293,1.657304 0.5717,0.243955 1.10819,-0.0053 1.32584,-0.662921 0.21849,-0.593977 -0.0849,-1.113708 -0.66293,-1.325843 -0.14319,-0.002 -0.18772,-0.336234 -0.33092,-0.33093 z m 28.50561,3.314606 c -0.83687,0 -1.67225,0.837933 -1.98876,1.657304 -0.42108,1.085069 0.21744,2.228476 1.32584,2.651685 1.10968,0.403055 2.22985,-0.190921 2.65169,-1.325843 0.42321,-1.085069 0.11456,-2.229537 -0.99385,-2.651685 -0.27684,-0.07425 -0.71596,-0.341536 -0.99386,-0.33093 z m 266.72468,6.97191 c -0.44654,0 -0.97475,0.0058 -1.32584,0.330931 -0.69899,0.657618 -0.65868,1.948458 0,2.651685 0.66293,0.689437 1.6205,0.700045 2.32023,0 0.70216,-0.657618 0.66504,-1.619119 0,-2.320225 -0.32564,-0.23759 -0.54731,-0.653374 -0.99385,-0.662921 z m -23.20224,3.646067 c -0.28426,-0.0063 -0.44018,0.129402 -0.66292,0.33093 -0.44548,0.403057 -0.41791,1.191668 0,1.657304 0.42108,0.424269 1.2133,0.424269 1.6573,0 0.44549,-0.403057 0.41897,-1.19485 0,-1.657304 -0.20789,-0.225923 -0.71066,-0.326687 -0.99385,-0.33093 z m -179.21908,1.646067 c -0.43169,0 -0.83156,0.259866 -0.99385,0.662921 -0.21743,0.593978 0.0954,1.454714 0.66293,1.657304 0.57277,0.243955 1.44145,-0.0053 1.6573,-0.662922 0.2185,-0.593977 -0.0849,-1.452593 -0.66293,-1.657303 -0.14319,-0.08486 -0.51865,-0.0043 -0.66291,0 z m 159.76403,9.612358 c -0.4423,0.403056 -0.42108,1.192729 0,1.657304 0.42003,0.413662 0.88143,0.434876 1.32584,0 0.44443,-0.403056 0.7499,-1.191667 0.33094,-1.657304 -0.21107,-0.201528 -0.71066,0.0053 -0.99386,0 -0.2832,0.0085 -0.43912,-0.191981 -0.66292,0 z m 36.02808,17.91011 c -0.36168,0.339416 -0.67033,0.975816 -0.33092,1.325846 0.34153,0.35002 0.96521,0.36063 1.32583,0 0.36169,-0.33942 0.33942,-0.975822 0,-1.325846 -0.17077,-0.19092 -0.0954,0 -0.33093,0 -0.23017,0 -0.48261,-0.254561 -0.66291,0 z m 53.03368,17.898876 c -0.54938,0 -0.89415,0.27047 -1.32584,0.66292 -0.86123,0.81672 -0.81665,2.12188 0,2.98314 0.8146,0.89097 2.1202,0.80612 2.98316,0 0.86133,-0.8061 0.81778,-2.11869 0,-2.98314 -0.40725,-0.48897 -1.10754,-0.64383 -1.65732,-0.66292 z M 368.36512,142.309 c -0.2832,0 -0.44018,0.1294 -0.66291,0.33093 -0.44549,0.40306 -0.41579,0.85915 0,1.32585 0.42215,0.42426 0.88035,0.66079 1.32584,0.33092 0.44548,-0.40305 0.4179,-1.19272 0,-1.65729 -0.21002,-0.30443 -0.37973,-0.31716 -0.66293,-0.33094 z m 103.31458,8.29776 c -0.28322,0 -0.44017,0.1294 -0.66287,0.33092 -0.44447,0.40306 -0.41901,1.19167 0,1.6573 0.42003,0.42428 1.21286,0.42428 1.65722,0 0.44447,-0.40305 0.41799,-1.19166 0,-1.6573 -0.21001,-0.22698 -0.71061,-0.31714 -0.99384,-0.33092 z m -49.05616,14.91572 c -0.28426,0 -0.43912,0.14107 -0.66292,0.33092 -0.44337,0.40307 -0.41791,1.1938 0,1.65731 0.42109,0.41366 1.21182,0.43488 1.6573,0 0.44443,-0.40306 0.41685,-1.19379 0,-1.65731 -0.21001,-0.18985 -0.71065,-0.32669 -0.99385,-0.33092 z m 45.74161,3.31461 c -0.28322,0 -0.77217,0.12939 -0.99394,0.33092 -0.44539,0.39246 -0.41789,1.22986 0,1.65732 0.42003,0.42425 1.21183,0.3288 1.65732,0 0.44345,-0.40307 0.41687,-1.19274 0,-1.65732 -0.21206,-0.30865 -0.37964,-0.32669 -0.66287,-0.33092 z m -7.34271,147.96629 c -0.18775,0.18031 -0.33094,0.69686 -0.33094,0.99385 -1e-4,0.59397 0.75096,0.99385 1.32584,0.99385 0.57489,0 0.99385,-0.40093 0.99385,-0.99385 -10e-5,-0.58337 -0.42002,-0.99385 -0.99385,-0.99385 -0.28744,0 -0.8061,-0.1835 -0.99385,0 z M 443.1741,176.12923 c -0.54943,0 -0.89415,0.28107 -1.32584,0.66292 -0.8634,0.8061 -1.14807,2.12082 -0.33094,2.98314 0.81567,0.89096 2.12019,1.14075 2.98316,0.33092 0.86232,-0.78489 1.14712,-2.45121 0.33092,-3.31461 -0.40729,-0.48366 -1.10734,-0.64383 -1.6573,-0.66291 z m -6.3483,145.64606 c -0.2832,0 -0.43912,0.12939 -0.66292,0.33092 -0.44335,0.39246 -0.74883,1.19061 -0.33092,1.65731 0.42002,0.42427 1.21404,0.42427 1.65731,0 0.44654,-0.40306 0.41896,-1.19272 0,-1.65731 -0.20897,-0.23228 -0.37974,-0.32455 -0.66293,-0.33092 z m -54.4719,64.33092 c -1.11444,0 -1.98877,0.89097 -1.98877,1.98877 -1e-4,1.09992 0.874,1.98877 1.98877,1.98877 1.11531,0 1.98877,-0.89097 1.98877,-1.98877 0,-1.10735 -0.874,-1.98877 -1.98877,-1.98877 z m -15.57864,10.60675 c -0.28321,0 -0.44125,0.12941 -0.66293,0.33093 -0.44548,0.40306 -0.41684,0.85914 0,1.32584 0.42108,0.42426 0.88036,0.6608 1.32585,0.33093 0.44441,-0.40305 0.74989,-1.18212 0.33092,-1.6573 -0.21001,-0.27896 -0.71065,-0.32668 -0.99384,-0.33094 z m 70.05054,-64 c -0.47412,0.10607 -0.99384,0.52822 -0.99384,0.99385 0,0.59397 0.41897,0.99385 0.99384,0.99385 0.57384,0 0.99386,-0.40093 0.99386,-0.99385 0,-0.59398 -0.42002,-0.99385 -0.99386,-0.99385 z m 1.32584,3.64606 c -0.9058,0 -1.65729,0.73187 -1.65729,1.65731 0,0.92278 0.75095,1.32583 1.65729,1.32583 0.90477,0 1.65731,-0.41366 1.65731,-1.32583 1.1e-4,-0.88991 -0.75307,-1.65731 -1.65731,-1.65731 z m 23.0899,71.29213 c -0.57596,0 -0.99385,0.40095 -0.99385,0.99386 0,0.59397 0.41897,0.99385 0.99385,0.99385 0.57488,0 0.99384,-0.40093 0.99384,-0.99385 0,-0.54094 -0.42002,-0.99386 -0.99384,-0.99386 z m -40.32585,-60.02246 c -0.28319,0 -0.44123,0.10818 -0.66292,0.33093 -0.44548,0.40305 -0.74989,1.19379 -0.33093,1.6573 0.4211,0.42427 1.213,0.32881 1.65731,0 0.44549,-0.40306 0.42003,-0.85914 0,-1.32585 -0.21213,-0.25455 -0.37972,-0.65655 -0.66292,-0.66291 z m -121.42694,65.32583 c -0.2832,0 -0.44125,0.12942 -0.66293,0.33095 -0.44548,0.40304 -0.4179,1.19484 0,1.65729 0.42003,0.42427 0.88037,0.3182 1.32584,0 0.44337,-0.40305 0.41791,-1.19591 0,-1.65729 -0.21001,-0.30548 -0.37972,-0.31716 -0.66291,-0.33095 z m 114.68538,8.61799 c -0.57595,0 -0.99386,0.40093 -0.99386,0.99385 1.1e-4,0.59397 0.41897,1.32584 0.99386,1.32584 0.57382,0 0.99385,-0.73187 0.99385,-1.32584 -1.1e-4,-0.55898 -0.4211,-0.99385 -0.99385,-0.99385 z m -35.4663,3.31461 c -0.57594,0 -1.32584,0.73185 -1.32584,1.32583 0,0.59398 0.75096,0.99386 1.32584,0.99386 0.57383,0 0.99385,-0.40093 0.99385,-0.99386 4.3e-4,-0.55155 -0.42108,-1.32583 -0.99385,-1.32583 z m 62.64606,6.29775 c -1.11381,0 -1.98876,0.89096 -1.98876,1.98876 0,1.08401 0.87505,1.98876 1.98876,1.98876 1.11392,0 2.32022,-0.90157 2.32022,-1.98876 1.2e-4,-1.11476 -1.20608,-1.98876 -2.32022,-1.98876 z m -50.71347,7.95505 c -0.57595,0 -0.99385,0.40093 -0.99385,0.99386 0,0.59396 0.41896,0.99385 0.99385,0.99385 0.57489,0 0.99386,-0.40094 0.99386,-0.99385 0,-0.5664 -0.42003,-0.99386 -0.99386,-0.99386 z m -34.14045,13.58989 c -0.90581,0 -1.6573,0.73185 -1.6573,1.6573 0,0.92278 0.75096,1.6573 1.6573,1.6573 0.90582,0 1.6573,-0.74247 1.6573,-1.6573 0,-0.9037 -0.75201,-1.6573 -1.6573,-1.6573 z m -49.38763,1.32584 c -0.57595,0 -0.99385,0.40094 -0.99385,0.99384 0,0.59399 0.41897,0.99385 0.99385,0.99385 0.57489,0 1.32585,-0.40093 1.32585,-0.99385 -2.2e-4,-0.56958 -0.75096,-0.99384 -1.32585,-0.99384 z m 24.19662,3.31461 c -0.57488,0 -0.99385,0.40093 -0.99385,0.99385 0,0.59397 0.42003,0.99384 0.99385,0.99384 0.57595,0 1.32585,-0.40093 1.32585,-0.99384 0,-0.56641 -0.7499,-0.99385 -1.32585,-0.99385 z m -50.71347,1.32584 c -1.1153,0 -1.98876,0.89097 -1.98876,1.98877 0,1.09991 0.87399,1.98875 1.98876,1.98875 1.1154,0 1.98876,-0.89096 1.98876,-1.98875 0,-1.12539 -0.87399,-1.98877 -1.98876,-1.98877 z M 78.26966,257.62306 c -0.574885,0 -0.993853,0.40094 -0.993853,0.99386 0,0.59397 0.420021,0.99384 0.993853,0.99384 0.574874,0 1.325829,-0.40093 1.325829,-0.99384 -2.05e-4,-0.57595 -0.750955,-0.99386 -1.325829,-0.99386 z m 33.14606,14.58427 c -0.57595,0 -0.99385,0.40094 -0.99385,0.99385 0,0.59397 0.41897,1.32585 0.99385,1.32585 0.57594,0 0.99384,-0.73188 0.99384,-1.32585 2.2e-4,-0.57382 -0.41895,-0.99385 -0.99384,-0.99385 z M 76.02807,161.14553 c -0.57489,0 -0.99386,0.40094 -0.99386,0.99386 0,0.59396 0.42004,0.99385 0.99386,0.99385 0.57488,0 0.99385,-0.40094 0.99385,-0.99385 0,-0.54519 -0.42002,-0.99386 -0.99385,-0.99386 z m -25.52247,0.66291 c -0.57489,0 -0.99386,0.40095 -0.99386,0.99386 -1e-4,0.59398 0.41897,0.99385 0.99386,0.99385 0.57593,0 0.99385,-0.40093 0.99385,-0.99385 -1e-4,-0.54201 -0.41897,-0.99386 -0.99385,-0.99386 z m 30.084273,129.29214 c -0.574884,0 -1.325839,0.40094 -1.325839,0.99385 0,0.59398 0.750955,0.99387 1.325839,0.99387 0.575959,0 0.993853,-0.40095 0.993853,-0.99387 -1.02e-4,-0.54624 -0.418958,-0.99385 -0.993853,-0.99385 z m 42.095517,7.29215 c -0.57596,0 -0.99387,0.73185 -0.99387,1.32583 0,0.59398 0.41897,0.99385 0.99387,0.99385 0.57488,0 1.32583,-0.40093 1.32583,-0.99385 -4.3e-4,-0.54094 -0.75095,-0.99385 -1.32583,-0.99385 l 0,-0.33093 z m -19.55619,2.32021 c -1.1153,0 -2.32022,0.89097 -2.32022,1.98876 0,1.09886 1.20502,1.98878 2.32022,1.98878 1.1153,0 1.98877,-0.89097 1.98877,-1.98878 1e-4,-1.09567 -0.874,-1.98876 -1.98877,-1.98876 z m -37.455043,0.66293 c -0.18881,0.18031 -0.330943,0.69687 -0.330943,0.99384 0,0.59399 0.420031,0.99385 0.993852,0.99385 0.574895,0 0.993853,-0.40093 0.993853,-0.99385 0,-0.55155 -0.420031,-0.99384 -0.993853,-0.99384 -0.287437,0.008 -0.47411,-0.1835 -0.662909,0 z m 43.089873,21.54493 c -0.18774,0.18033 -0.33092,0.69687 -0.33092,0.99386 0,0.59397 0.41896,0.99385 0.99384,0.99385 0.57489,0 0.99386,-0.40093 0.99386,-0.99385 -4.2e-4,-0.55156 -0.42003,-0.99386 -0.99386,-0.99386 -0.28743,0.008 -0.47412,-0.18243 -0.66292,0 z m -59.662914,3.31461 c -1.114024,0 -1.988759,0.89096 -1.988759,1.98877 0,1.09991 0.875052,1.98876 1.988759,1.98876 1.11519,0 1.988759,-0.90158 1.988759,-1.98876 0,-1.09462 -0.873989,-1.98877 -1.988759,-1.98877 z m 35.533702,54.0618 c -0.466687,0 -0.66291,0.50699 -0.66291,0.99385 0,0.43487 0.196223,0.99385 0.66291,0.99385 0.46776,0 0.993863,-0.48474 0.993863,-0.99385 0,-0.46564 -0.526103,-0.99385 -0.993863,-0.99385 z m 72.258422,9.61235 c -0.57595,0 -0.99386,0.40094 -0.99386,0.99385 0,0.59398 0.41897,1.32585 0.99386,1.32585 0.57489,0 1.32585,-0.73187 1.32585,-1.32585 -3.3e-4,-0.55473 -0.75096,-0.99385 -1.32585,-0.99385 z m -96.786508,7.6236 c -0.906882,0 -1.657305,0.73293 -1.657305,1.6573 0,0.92279 0.750955,1.65731 1.657305,1.65731 0.905818,0 1.657304,-0.74247 1.657304,-1.65731 0,-0.89946 -0.752018,-1.6573 -1.657304,-1.6573 z m 17.567425,13.25842 c -0.574885,0 -0.993853,0.40093 -0.993853,0.99385 0,0.59399 0.420021,1.32584 0.993853,1.32584 0.574875,0 0.993843,-0.73185 0.993843,-1.32584 -1.13e-4,-0.56109 -0.420022,-0.99385 -0.993843,-0.99385 z m 158.106713,7.62359 c -0.57594,0 -0.99385,0.40094 -0.99385,0.99385 0,0.59398 0.41897,0.99386 0.99385,0.99386 0.57489,0 0.99386,-0.40093 0.99386,-0.99386 -3.3e-4,-0.56321 -0.42004,-0.99385 -0.99386,-0.99385 z m -124.6292,7.29214 c -0.57488,0 -0.99385,0.40094 -0.99385,0.99386 0,0.59397 0.42003,0.99384 0.99385,0.99384 0.57489,0 1.32585,-0.40094 1.32585,-0.99384 1e-4,-0.55898 -0.75096,-0.99386 -1.32585,-0.99386 z m -57.674145,0.66292 c -0.574895,0 -0.993852,0.40094 -0.993852,0.99385 0,0.59397 0.420031,0.99385 0.993852,0.99385 0.575949,0 0.993853,-0.40093 0.993853,-0.99385 0,-0.54942 -0.418968,-0.99385 -0.993853,-0.99385 z m 93.471895,35.13483 c -0.40093,0.25456 -0.9249,0.41896 -1.32584,0.66292 l 1.32584,0.99385 c -0.15909,-0.6067 0.003,-1.04688 0,-1.65729 z m -82.202241,2.65169 c -0.574885,0 -0.993853,0.40093 -0.993853,0.99385 0,0.59396 0.420032,0.99385 0.993853,0.99385 0.575958,0 0.993853,-0.40094 0.993853,-0.99385 1.02e-4,-0.54837 -0.418968,-0.99385 -0.993853,-0.99385 z"
       id="rect2991-1"
       style="fill:#ffffff;fill-opacity:1;stroke:none" />
    <path
       d="m 114.43286,372.04608 c -34.227412,-9.74858 -37.648942,-36.87607 -9.74264,-77.24399 5.38255,-7.78613 12.35192,-16.61446 15.4875,-19.61854 l 5.70104,-5.46195 0,5.74629 c 0,3.32425 -2.28878,8.90585 -5.43017,13.24241 -7.16845,9.89576 -13.43626,24.31324 -14.7561,33.94264 -1.47905,10.79083 3.16074,19.78661 13.15958,25.51426 7.17005,4.10723 10.06808,4.54961 28.78539,4.39412 32.04291,-0.26618 66.50207,-10.74405 111.63155,-33.94341 78.54559,-40.37727 140.55457,-100.50717 141.38821,-137.10355 0.26773,-11.75526 -3.79869,-18.05523 -15.67695,-24.28717 -7.67065,-4.02443 -10.16997,-4.33336 -28.65937,-3.54256 -17.52362,0.74949 -20.65674,0.42343 -23.22748,-2.41722 -2.77558,-3.06697 -2.1883,-3.45732 8.90352,-5.91774 6.5313,-1.44879 22.11709,-2.63416 34.63509,-2.63416 20.62516,0 23.63013,0.44804 32.03693,4.77658 18.79516,9.67724 22.31515,27.28593 10.50113,52.53192 -30.02333,64.15829 -145.26743,144.38366 -241.25967,167.94911 -23.19187,5.69345 -51.42713,7.50514 -63.47756,4.07296 z m 159.0266,-26.06277 c 14.04855,-7.31429 36.85198,-20.87289 50.67431,-30.13015 25.11116,-16.81781 25.12817,-16.82549 21.00369,-9.48696 -16.70608,29.72443 -56.66734,53.13648 -90.38383,52.95303 -6.10827,-0.0333 -4.11453,-1.45464 18.70583,-13.33592 z M 172.92921,327.61596 c -26.39844,-28.18295 -37.24246,-61.95144 -31.10674,-96.86699 7.17763,-40.84459 38.15222,-75.78619 78.12985,-88.13622 55.64218,-17.18914 119.4767,17.76353 136.77335,74.89043 l 3.3139,10.94514 -8.75993,8.42233 c -37.31306,35.87502 -98.59543,73.63437 -145.93435,89.91795 -25.7558,8.85948 -24.9127,8.83797 -32.41608,0.82736 z"
       id="path6184"
       style="fill:#a6ff00;fill-opacity:1" />
  </g>
</svg>
