<?xml version="1.0" encoding="UTF-8" standalone="no"?>
<svg
   xmlns:dc="http://purl.org/dc/elements/1.1/"
   xmlns:cc="http://creativecommons.org/ns#"
   xmlns:rdf="http://www.w3.org/1999/02/22-rdf-syntax-ns#"
   xmlns:svg="http://www.w3.org/2000/svg"
   xmlns="http://www.w3.org/2000/svg"
   xmlns:xlink="http://www.w3.org/1999/xlink"
   xmlns:sodipodi="http://sodipodi.sourceforge.net/DTD/sodipodi-0.dtd"
   xmlns:inkscape="http://www.inkscape.org/namespaces/inkscape"
   viewBox="0 0 512 512"
   id="svg2"
   version="1.1"
   inkscape:version="0.91 r"
   sodipodi:docname="reditr.svg">
  <metadata
     id="metadata118">
    <rdf:RDF>
      <cc:Work
         rdf:about="">
        <dc:format>image/svg+xml</dc:format>
        <dc:type
           rdf:resource="http://purl.org/dc/dcmitype/StillImage" />
      </cc:Work>
    </rdf:RDF>
  </metadata>
  <defs
     id="defs116">
    <linearGradient
       inkscape:collect="always"
       id="linearGradient3452">
      <stop
         style="stop-color:#8a704d;stop-opacity:1;"
         offset="0"
         id="stop3454" />
      <stop
         id="stop3466"
         offset="0.05902894"
         style="stop-color:#e9c6af;stop-opacity:1" />
      <stop
         style="stop-color:#d38d5f;stop-opacity:1"
         offset="0.57199591"
         id="stop3464" />
      <stop
         style="stop-color:#784421;stop-opacity:1"
         offset="0.90048289"
         id="stop3462" />
      <stop
         style="stop-color:#8a704d;stop-opacity:0;"
         offset="1"
         id="stop3456" />
    </linearGradient>
    <linearGradient
       inkscape:collect="always"
       xlink:href="#linearGradient3452"
       id="linearGradient3458"
       x1="-184.40678"
       y1="-190.91525"
       x2="592.27118"
       y2="587.93219"
       gradientUnits="userSpaceOnUse" />
  </defs>
  <sodipodi:namedview
     pagecolor="#ffffff"
     bordercolor="#666666"
     borderopacity="1"
     objecttolerance="10"
     gridtolerance="10"
     guidetolerance="10"
     inkscape:pageopacity="0"
     inkscape:pageshadow="2"
     inkscape:window-width="1366"
     inkscape:window-height="744"
     id="namedview114"
     showgrid="false"
     inkscape:zoom="0.4609375"
     inkscape:cx="218.0339"
     inkscape:cy="256"
     inkscape:window-x="0"
     inkscape:window-y="24"
     inkscape:window-maximized="1"
     inkscape:current-layer="svg2" />
  <text
     style="word-spacing:0;letter-spacing:0"
     font-size="129.23"
     y="231.36"
     x="729.64"
     font-family="Gentium Book Basic"
     line-height="125%"
     id="text4">
    <tspan
       y="231.36"
       x="729.64"
       id="tspan6" />
  </text>
  <text
     style="text-anchor:middle"
     transform="scale(4.0128.2492)"
     font-size="46.954"
     y="579.26"
     x="378.91"
     font-family="Arial"
     id="text8" />
  <text
     style="word-spacing:0;letter-spacing:0"
     font-size="129.23"
     y="151.36"
     x="1310.91"
     font-family="Gentium Book Basic"
     line-height="125%"
     id="text10">
    <tspan
       y="151.36"
       x="1310.91"
       id="tspan12" />
  </text>
  <text
     style="text-anchor:middle"
     transform="scale(4.0128.2492)"
     font-size="46.954"
     y="258.22"
     x="523.76"
     font-family="Arial"
     id="text14" />
  <text
     style="word-spacing:0;letter-spacing:0"
     font-size="129.23"
     y="-29.9"
     x="239.33"
     font-family="Gentium Book Basic"
     line-height="125%"
     id="text16">
    <tspan
       y="-29.9"
       x="239.33"
       id="tspan18" />
  </text>
  <text
     style="text-anchor:middle"
     transform="scale(4.0128.2492)"
     font-size="46.954"
     y="-469.13"
     x="256.72"
     font-family="Arial"
     id="text20" />
  <text
     style="word-spacing:0;letter-spacing:0"
     font-size="129.23"
     y="-246.37"
     x="1337.38"
     font-family="Gentium Book Basic"
     line-height="125%"
     id="text22">
    <tspan
       y="-246.37"
       x="1337.38"
       id="tspan24" />
  </text>
  <text
     style="text-anchor:middle"
     transform="scale(4.0128.2492)"
     font-size="46.954"
     y="-1337.8"
     x="530.36"
     font-family="Arial"
     id="text26" />
  <text
     style="word-spacing:0;letter-spacing:0"
     font-size="129.23"
     y="-326.37"
     x="1918.65"
     font-family="Gentium Book Basic"
     line-height="125%"
     id="text28">
    <tspan
       y="-326.37"
       x="1918.65"
       id="tspan30" />
  </text>
  <text
     style="text-anchor:middle"
     transform="scale(4.0128.2492)"
     font-size="46.954"
     y="-1658.83"
     x="675.21"
     font-family="Arial"
     id="text32" />
  <text
     style="word-spacing:0;letter-spacing:0"
     font-size="129.23"
     y="-798.77"
     x="1529.53"
     font-family="Gentium Book Basic"
     line-height="125%"
     id="text34">
    <tspan
       y="-798.77"
       x="1529.53"
       id="tspan36" />
  </text>
  <text
     style="text-anchor:middle"
     transform="scale(4.0128.2492)"
     font-size="46.954"
     y="-3554.48"
     x="578.24"
     font-family="Arial"
     id="text38" />
  <text
     style="word-spacing:0;letter-spacing:0"
     font-size="129.23"
     y="-878.78"
     x="2110.79"
     font-family="Gentium Book Basic"
     line-height="125%"
     id="text40">
    <tspan
       y="-878.78"
       x="2110.79"
       id="tspan42" />
  </text>
  <text
     style="text-anchor:middle"
     transform="scale(4.0128.2492)"
     font-size="46.954"
     y="-3875.52"
     x="723.09"
     font-family="Arial"
     id="text44" />
  <text
     style="word-spacing:0;letter-spacing:0"
     font-size="208.33"
     y="535.94"
     x="277.99"
     font-family="Gentium Book Basic"
     line-height="125%"
     id="text46">
    <tspan
       y="535.94"
       x="277.99"
       id="tspan48" />
  </text>
  <path
     style="fill:url(#linearGradient3458);fill-rule:evenodd;fill-opacity:1"
     inkscape:connector-curvature="0"
     id="path52"
     d="m 497.9839,257.38898 c 0,135.27805 -109.66585,244.9439 -244.9439,244.9439 -135.27805,0 -244.9438985,-109.66585 -244.9438985,-244.9439 0,-135.27805 109.6658485,-244.943895 244.9438985,-244.943895 135.27805,0 244.9439,109.665845 244.9439,244.943895" />
  <text
     style="word-spacing:0;letter-spacing:0"
     font-size="129.23"
     y="231.36"
     x="729.64"
     font-family="'Gentium Book Basic'"
     line-height="125%"
     id="text64">
    <tspan
       y="231.36"
       x="729.64"
       id="tspan66" />
  </text>
  <text
     style="text-anchor:middle"
     transform="scale(4.0128.2492)"
     font-size="46.954"
     y="579.26"
     x="378.91"
     font-family="Arial"
     id="text68" />
  <text
     style="word-spacing:0;letter-spacing:0"
     font-size="129.23"
     y="151.36"
     x="1310.91"
     font-family="'Gentium Book Basic'"
     line-height="125%"
     id="text70">
    <tspan
       y="151.36"
       x="1310.91"
       id="tspan72" />
  </text>
  <text
     style="text-anchor:middle"
     transform="scale(4.0128.2492)"
     font-size="46.954"
     y="258.22"
     x="523.76"
     font-family="Arial"
     id="text74" />
  <text
     style="word-spacing:0;letter-spacing:0"
     font-size="129.23"
     y="-29.9"
     x="239.33"
     font-family="'Gentium Book Basic'"
     line-height="125%"
     id="text76">
    <tspan
       y="-29.9"
       x="239.33"
       id="tspan78" />
  </text>
  <text
     style="text-anchor:middle"
     transform="scale(4.0128.2492)"
     font-size="46.954"
     y="-469.13"
     x="256.72"
     font-family="Arial"
     id="text80" />
  <text
     style="word-spacing:0;letter-spacing:0"
     font-size="129.23"
     y="-246.37"
     x="1337.38"
     font-family="'Gentium Book Basic'"
     line-height="125%"
     id="text82">
    <tspan
       y="-246.37"
       x="1337.38"
       id="tspan84" />
  </text>
  <text
     style="text-anchor:middle"
     transform="scale(4.0128.2492)"
     font-size="46.954"
     y="-1337.8"
     x="530.36"
     font-family="Arial"
     id="text86" />
  <text
     style="word-spacing:0;letter-spacing:0"
     font-size="129.23"
     y="-326.37"
     x="1918.65"
     font-family="'Gentium Book Basic'"
     line-height="125%"
     id="text88">
    <tspan
       y="-326.37"
       x="1918.65"
       id="tspan90" />
  </text>
  <text
     style="text-anchor:middle"
     transform="scale(4.0128.2492)"
     font-size="46.954"
     y="-1658.83"
     x="675.21"
     font-family="Arial"
     id="text92" />
  <text
     style="word-spacing:0;letter-spacing:0"
     font-size="129.23"
     y="-798.77"
     x="1529.53"
     font-family="'Gentium Book Basic'"
     line-height="125%"
     id="text94">
    <tspan
       y="-798.77"
       x="1529.53"
       id="tspan96" />
  </text>
  <text
     style="text-anchor:middle"
     transform="scale(4.0128.2492)"
     font-size="46.954"
     y="-3554.48"
     x="578.24"
     font-family="Arial"
     id="text98" />
  <text
     style="word-spacing:0;letter-spacing:0"
     font-size="129.23"
     y="-878.78"
     x="2110.79"
     font-family="'Gentium Book Basic'"
     line-height="125%"
     id="text100">
    <tspan
       y="-878.78"
       x="2110.79"
       id="tspan102" />
  </text>
  <text
     style="text-anchor:middle"
     transform="scale(4.0128.2492)"
     font-size="46.954"
     y="-3875.52"
     x="723.09"
     font-family="Arial"
     id="text104" />
  <text
     style="word-spacing:0;letter-spacing:0"
     font-size="208.33"
     y="535.94"
     x="277.99"
     font-family="'Gentium Book Basic'"
     line-height="125%"
     id="text106">
    <tspan
       y="535.94"
       x="277.99"
       id="tspan108" />
  </text>
  <path
     d="m 252.95049,149.81552 c -69.51882,0 -125.82313,56.49453 -125.82313,126.14762 0,0.42967 -0.003,0.84591 0,1.27557 -10.73833,6.3969 -20.85005,13.00079 -29.968176,19.66064 -61.413324,44.84652 -57.143506,76.32188 9.564576,70.24612 66.71031,-6.07129 170.58013,-47.39767 231.98674,-92.24419 25.09638,-18.32799 39.24071,-34.44947 42.61986,-46.65358 -6.32193,6.96083 -14.76757,14.51917 -25.29218,22.53515 -56.13648,42.72056 -151.0437,81.99483 -212.01393,87.77967 -57.763396,5.47826 -63.991334,-21.11747 -16.79507,-60.25635 0.11525,5.35741 0.53037,10.66224 1.27557,15.83279 24.76182,3.7663 52.63424,4.56969 74.28544,2.44373 14.16224,-1.38411 27.23576,-4.1266 40.17053,-7.65121 15.95028,-3.91624 30.5903,-8.9335 44.95842,-14.66911 31.68012,-11.63458 56.22598,-25.30896 83.21446,-41.87129 -2.44485,-6.6509 -5.44805,-13.05674 -8.92679,-19.13362 52.61186,-4.44326 64.0249,17.86811 23.16735,54.41109 -45.64879,40.83293 -138.92575,83.76833 -208.39981,95.95902 -13.02764,2.28708 -24.39145,3.37915 -33.79154,3.29411 11.2452,5.80946 32.73975,6.40249 63.23046,0.42519 74.62112,-14.62435 175.53698,-62.80526 225.29558,-107.65178 49.7586,-44.84652 29.46018,-69.35882 -45.17101,-54.72999 -8.25767,1.61909 -16.80626,3.65553 -25.61108,6.05786 -22.02492,-36.66046 -62.16748,-61.21303 -107.97627,-61.21303"
     id="path112"
     inkscape:connector-curvature="0"
     style="fill:#ffffff" />
</svg>
