<?xml version="1.0" encoding="UTF-8" standalone="no"?>
<!-- Created with Inkscape (http://www.inkscape.org/) -->

<svg
   xmlns:dc="http://purl.org/dc/elements/1.1/"
   xmlns:cc="http://creativecommons.org/ns#"
   xmlns:rdf="http://www.w3.org/1999/02/22-rdf-syntax-ns#"
   xmlns:svg="http://www.w3.org/2000/svg"
   xmlns="http://www.w3.org/2000/svg"
   xmlns:xlink="http://www.w3.org/1999/xlink"
   xmlns:sodipodi="http://sodipodi.sourceforge.net/DTD/sodipodi-0.dtd"
   xmlns:inkscape="http://www.inkscape.org/namespaces/inkscape"
   id="svg2"
   version="1.1"
   inkscape:version="0.91 r"
   width="1024"
   height="1024"
   sodipodi:docname="popcorntime.svg">
  <metadata
     id="metadata8">
    <rdf:RDF>
      <cc:Work
         rdf:about="">
        <dc:format>image/svg+xml</dc:format>
        <dc:type
           rdf:resource="http://purl.org/dc/dcmitype/StillImage" />
        <dc:title />
      </cc:Work>
    </rdf:RDF>
  </metadata>
  <defs
     id="defs6">
    <linearGradient
       gradientUnits="userSpaceOnUse"
       y2="28.978"
       x2="22.385"
       y1="31.09"
       x1="22.18"
       id="9">
      <stop
         id="stop3345"
         stop-color="#d81d00" />
      <stop
         id="stop3347"
         stop-color="#da4831"
         offset="1" />
    </linearGradient>
    <linearGradient
       gradientUnits="userSpaceOnUse"
       y2="25.314"
       x2="28.797"
       y1="27.587"
       x1="25.433"
       id="A"
       xlink:href="#B" />
    <linearGradient
       id="G">
      <stop
         id="stop3351"
         stop-color="#1074f5" />
      <stop
         id="stop3353"
         stop-color="#02befd"
         offset="1" />
    </linearGradient>
    <linearGradient
       id="B">
      <stop
         id="stop3356"
         stop-color="#2c2e31" />
      <stop
         id="stop3358"
         stop-color="#40464d"
         offset="1" />
    </linearGradient>
    <linearGradient
       gradientUnits="userSpaceOnUse"
       y2="24.697"
       x2="19.426"
       y1="27.444"
       x1="16.916"
       id="C"
       xlink:href="#B" />
    <linearGradient
       gradientUnits="userSpaceOnUse"
       y2="14.352"
       x2="0"
       y1="40.602"
       id="F"
       xlink:href="#G" />
    <linearGradient
       gradientUnits="userSpaceOnUse"
       y2="17.711"
       x2="23.282"
       y1="33.435"
       x1="22.469"
       id="D">
      <stop
         id="stop3363"
         stop-color="#e7ddd5" />
      <stop
         id="stop3365"
         stop-color="#f1e9e0"
         offset="1" />
    </linearGradient>
    <linearGradient
       gradientTransform="matrix(0.63829,0,0,0.6371,-236.77,-306.14)"
       gradientUnits="userSpaceOnUse"
       y2="502.12"
       x2="404.97"
       y1="543.8"
       x1="405.57"
       id="E"
       xlink:href="#G" />
    <linearGradient
       gradientUnits="userSpaceOnUse"
       y2="40.611"
       x2="28.969"
       y1="31.361"
       x1="29.971"
       id="8"
       xlink:href="#5" />
    <linearGradient
       gradientUnits="userSpaceOnUse"
       y2="32.09"
       x2="17.489"
       y1="40.718"
       x1="17.974"
       id="0"
       xlink:href="#1" />
    <linearGradient
       id="1">
      <stop
         id="stop3371"
         stop-color="#d22900" />
      <stop
         id="stop3373"
         stop-color="#ff6443"
         offset="1" />
    </linearGradient>
    <linearGradient
       gradientUnits="userSpaceOnUse"
       y2="32.09"
       x2="27.597"
       y1="40.469"
       x1="26.957"
       id="7"
       xlink:href="#1" />
    <linearGradient
       gradientUnits="userSpaceOnUse"
       y2="32.33"
       x2="20.03"
       y1="40.39"
       x1="20.466"
       id="2">
      <stop
         id="stop3377"
         stop-color="#e1e1e1" />
      <stop
         id="stop3379"
         stop-color="#f9f9f9"
         offset="1" />
    </linearGradient>
    <linearGradient
       gradientUnits="userSpaceOnUse"
       y2="32.16"
       x2="22.619"
       y1="40.664"
       x1="22.704"
       id="3"
       xlink:href="#1" />
    <linearGradient
       gradientUnits="userSpaceOnUse"
       y2="31.422"
       x2="15.04"
       y1="40.24"
       x1="15.852"
       id="6">
      <stop
         id="stop3383"
         stop-color="#e3e3e3" />
      <stop
         id="stop3385"
         stop-color="#f8f8f8"
         offset="1" />
    </linearGradient>
    <linearGradient
       gradientUnits="userSpaceOnUse"
       y2="40.58"
       x2="24.789"
       y1="32.14"
       x1="25.347"
       id="4"
       xlink:href="#5" />
    <linearGradient
       id="5"
       gradientUnits="userSpaceOnUse"
       y2="46"
       x2="0"
       y1="146">
      <stop
         id="stop3389"
         stop-color="#fafafa" />
      <stop
         id="stop3391"
         stop-color="#e0e0e0"
         offset="1" />
    </linearGradient>
  </defs>
  <sodipodi:namedview
     pagecolor="#ffffff"
     bordercolor="#666666"
     borderopacity="1"
     objecttolerance="10"
     gridtolerance="10"
     guidetolerance="10"
     inkscape:pageopacity="0"
     inkscape:pageshadow="2"
     inkscape:window-width="1243"
     inkscape:window-height="672"
     id="namedview4"
     showgrid="false"
     inkscape:zoom="0.4609375"
     inkscape:cx="802.66556"
     inkscape:cy="579.15268"
     inkscape:window-x="15"
     inkscape:window-y="39"
     inkscape:window-maximized="0"
     inkscape:current-layer="svg2" />
  <path
     sodipodi:type="arc"
     style="fill:#ffffff;fill-opacity:1;fill-rule:evenodd;stroke:none"
     id="path3773"
     sodipodi:cx="494.64407"
     sodipodi:cy="475.11865"
     sodipodi:rx="438.23727"
     sodipodi:ry="407.86441"
     d="m 932.88135,475.11865 a 438.23727,407.86441 0 1 1 -876.474551,0 438.23727,407.86441 0 1 1 876.474551,0 z"
     transform="matrix(1.0222773,0,0,1.1143617,-1.0870956,-3.6913095)" />
  <g
     id="g3393"
     transform="matrix(34.258304,0,0,34.258304,-252.0705,-395.11394)"
     style="enable-background:new">
    <ellipse
       id="ellipse3395"
       ry="13.725"
       rx="13.75"
       cx="22.382"
       cy="26.799999"
       style="fill:url(#E)" />
    <g
       id="g3397"
       style="fill-rule:evenodd">
      <path
         id="path3399"
         d="m 14.457,31.29 c 4.131,3.875 12.941,2.567 16.202,0.133 1.425,-1.379 0.934,-3.364 -0.357,-3.843 3.786,-8.408 -9.187,-13.661 -11.911,-4.115 -1.6,-2.983 -7.644,-0.028 -3.867,3.871 -1.87,0.3 -2.409,3.167 -0.067,3.953"
         inkscape:connector-curvature="0"
         style="fill:url(#D)" />
      <path
         id="path3401"
         d="m 19.03,39.661 2.313,0.086 -0.133,-6.534 c -0.005,-1.215 -2.119,-1.596 -2.43,-0.292 z"
         inkscape:connector-curvature="0"
         style="fill:url(#2)" />
      <path
         id="path3403"
         d="m 25.898,39.752 -2.176,-0.016 0.199,-6.585 c 0.005,-1.215 2.119,-1.596 2.43,-0.292 z"
         inkscape:connector-curvature="0"
         style="fill:url(#4)" />
    </g>
    <circle
       id="circle3405"
       r="1.398"
       cy="27.444"
       cx="18.313"
       style="fill:url(#C)" />
    <circle
       id="circle3407"
       r="1.398"
       cy="27.587"
       cx="26.830999"
       style="fill:url(#A)" />
    <g
       id="g3409"
       style="fill-rule:evenodd">
      <path
         id="path3411"
         d="m 24.675,29.19 c -0.331,2.54 -4.01,2.393 -4.173,-0.031 -0.029,-0.239 0.021,-0.218 0.253,-0.219 l 3.622,-0.02 c 0.317,-0.029 0.323,0.005 0.298,0.27"
         inkscape:connector-curvature="0"
         style="opacity:0.8479996;fill:url(#9)" />
      <path
         id="path3413"
         d="m 21.294,39.745 2.46,-0.04 0.178,-6.272 c -0.015,-1.745 -2.72,-1.751 -2.728,-0.028 z"
         inkscape:connector-curvature="0"
         style="fill:url(#3)" />
      <path
         id="path3415"
         d="m 27.985,39.28 -2.153,0.395 0.395,-6.867 c 0.033,-1.215 2.205,-1.548 2.496,-0.238 z"
         inkscape:connector-curvature="0"
         style="fill:url(#7)" />
      <path
         id="path3417"
         d="m 30.16,38.17 -2.165,1.01 0.734,-6.81 c 0.093,-1.212 2.209,-1.438 2.424,-0.115 z"
         inkscape:connector-curvature="0"
         style="fill:url(#8)" />
      <path
         id="path3419"
         d="m 16.713,38.38 2.443,1.17 -0.375,-6.676 c -0.033,-1.215 -2.205,-1.548 -2.496,-0.238 z"
         inkscape:connector-curvature="0"
         style="fill:url(#0)" />
      <path
         id="path3421"
         d="m 14.817,38.05 1.96,0.312 -0.501,-5.921 c -0.093,-1.212 -2.209,-1.438 -2.424,-0.115"
         inkscape:connector-curvature="0"
         style="fill:url(#6)" />
    </g>
    <circle
       id="circle3423"
       cx="22.358999"
       cy="26.601999"
       r="13.441"
       style="fill:none;stroke:url(#F);stroke-width:1.11800003;stroke-linecap:round;stroke-linejoin:round" />
  </g>
  <path
     style="opacity:1;fill:#ffffff;fill-opacity:0.90163933;fill-rule:nonzero;stroke:none;stroke-width:95.80000305;stroke-miterlimit:4;stroke-dasharray:none;stroke-opacity:1"
     d="m 390.2225,525.94927 c -2.7465,-3.30933 -2.3852,-5.44162 1.5967,-9.42353 4.5652,-4.56521 5.664,-4.62879 9.7298,-0.56296 5.2194,5.21934 3.0293,14.26362 -3.454,14.26362 -2.3775,0 -5.9201,-1.92471 -7.8725,-4.27713 z"
     id="path3478"
     inkscape:connector-curvature="0" />
  <path
     style="opacity:1;fill:#ffffff;fill-opacity:0.90163933;fill-rule:nonzero;stroke:none;stroke-width:95.80000305;stroke-miterlimit:4;stroke-dasharray:none;stroke-opacity:1"
     d="m 681.49903,533.69033 c -2.7465,-3.30933 -2.3852,-5.44162 1.5967,-9.42353 4.5652,-4.56521 5.664,-4.62879 9.7298,-0.56296 5.2194,5.21934 3.0293,14.26362 -3.454,14.26362 -2.3775,0 -5.9201,-1.92471 -7.8725,-4.27713 z"
     id="path3478-1"
     inkscape:connector-curvature="0" />
</svg>
