<?xml version="1.0" encoding="UTF-8" standalone="no"?>
<svg
   xmlns:dc="http://purl.org/dc/elements/1.1/"
   xmlns:cc="http://creativecommons.org/ns#"
   xmlns:rdf="http://www.w3.org/1999/02/22-rdf-syntax-ns#"
   xmlns:svg="http://www.w3.org/2000/svg"
   xmlns="http://www.w3.org/2000/svg"
   xmlns:sodipodi="http://sodipodi.sourceforge.net/DTD/sodipodi-0.dtd"
   xmlns:inkscape="http://www.inkscape.org/namespaces/inkscape"
   viewBox="0 0 128 128"
   id="svg2"
   version="1.1"
   inkscape:version="0.91 r"
   sodipodi:docname="redeclipse.svg"
   width="128"
   height="128">
  <metadata
     id="metadata23">
    <rdf:RDF>
      <cc:Work
         rdf:about="">
        <dc:format>image/svg+xml</dc:format>
        <dc:type
           rdf:resource="http://purl.org/dc/dcmitype/StillImage" />
        <dc:title></dc:title>
      </cc:Work>
    </rdf:RDF>
  </metadata>
  <sodipodi:namedview
     pagecolor="#ffffff"
     bordercolor="#666666"
     borderopacity="1"
     objecttolerance="10"
     gridtolerance="10"
     guidetolerance="10"
     inkscape:pageopacity="0"
     inkscape:pageshadow="2"
     inkscape:window-width="1366"
     inkscape:window-height="744"
     id="namedview21"
     showgrid="false"
     inkscape:zoom="3.4766083"
     inkscape:cx="57.430809"
     inkscape:cy="48.069792"
     inkscape:window-x="0"
     inkscape:window-y="24"
     inkscape:window-maximized="1"
     inkscape:current-layer="svg2" />
  <defs
     id="defs4">
    <clipPath
       id="clipPath6">
      <path
         transform="matrix(15.33333,0,0,11.5,415,-125.5)"
         d="m -24,13 c 0,1.105 -0.672,2 -1.5,2 -0.828,0 -1.5,-0.895 -1.5,-2 0,-1.105 0.672,-2 1.5,-2 0.828,0 1.5,0.895 1.5,2"
         id="path8"
         inkscape:connector-curvature="0"
         style="fill:#1890d0" />
    </clipPath>
    <linearGradient
       gradientUnits="userSpaceOnUse"
       y2="-9.3310003"
       x2="-23.256001"
       y1="37.652"
       x1="24.337"
       id="0">
      <stop
         stop-color="#fa183c"
         id="stop11" />
      <stop
         offset="1"
         stop-color="#fe590a"
         id="stop13" />
    </linearGradient>
  </defs>
  <g
     transform="matrix(2.4741379,0,0,2.4741379,61.133763,29.523711)"
     id="g15">
    <circle
       cx="1.153"
       cy="14.06"
       r="23"
       id="circle17"
       style="fill:#6f1314" />
    <path
       d="m 1.151,-9.942 c -13.2,0 -24,10.8 -24,24 0,13.2 10.8,24 24,24 13.2,0 24,-10.8 24,-24 0,-13.2 -10.8,-24 -24,-24 m 0,45 c -11.7,0 -21,-9.3 -21,-21 0,-7.2 3.6,-13.8 9.6,-17.7 -0.3,1.8 -0.6,3.9 -0.6,5.7 0,14.7 12,26.698 26.698,27 -3.9,3.9 -9,6 -14.7,6"
       id="path19"
       inkscape:connector-curvature="0"
       style="fill:url(#0)" />
  </g>
</svg>
