<?xml version="1.0" encoding="UTF-8" standalone="no"?>
<svg
   xmlns:dc="http://purl.org/dc/elements/1.1/"
   xmlns:cc="http://creativecommons.org/ns#"
   xmlns:rdf="http://www.w3.org/1999/02/22-rdf-syntax-ns#"
   xmlns:svg="http://www.w3.org/2000/svg"
   xmlns="http://www.w3.org/2000/svg"
   xmlns:xlink="http://www.w3.org/1999/xlink"
   xmlns:sodipodi="http://sodipodi.sourceforge.net/DTD/sodipodi-0.dtd"
   xmlns:inkscape="http://www.inkscape.org/namespaces/inkscape"
   viewBox="0 0 128 128"
   id="svg2"
   version="1.1"
   inkscape:version="0.91 r"
   width="100%"
   height="100%"
   sodipodi:docname="gnome-session-reboot.svg">
  <metadata
     id="metadata61">
    <rdf:RDF>
      <cc:Work
         rdf:about="">
        <dc:format>image/svg+xml</dc:format>
        <dc:type
           rdf:resource="http://purl.org/dc/dcmitype/StillImage" />
        <dc:title />
      </cc:Work>
    </rdf:RDF>
  </metadata>
  <sodipodi:namedview
     pagecolor="#ffffff"
     bordercolor="#666666"
     borderopacity="1"
     objecttolerance="10"
     gridtolerance="10"
     guidetolerance="10"
     inkscape:pageopacity="0"
     inkscape:pageshadow="2"
     inkscape:window-width="1366"
     inkscape:window-height="744"
     id="namedview59"
     showgrid="false"
     inkscape:zoom="1.7383041"
     inkscape:cx="-70.378943"
     inkscape:cy="49.22701"
     inkscape:window-x="0"
     inkscape:window-y="24"
     inkscape:window-maximized="1"
     inkscape:current-layer="svg2" />
  <defs
     id="defs4">
    <linearGradient
       inkscape:collect="always"
       id="linearGradient3387">
      <stop
         style="stop-color:#d5e5ff;stop-opacity:1;"
         offset="0"
         id="stop3389" />
      <stop
         id="stop3401"
         offset="0.04508163"
         style="stop-color:#919191;stop-opacity:1" />
      <stop
         style="stop-color:#757575;stop-opacity:1"
         offset="0.46924293"
         id="stop3403" />
      <stop
         style="stop-color:#000000;stop-opacity:1"
         offset="0.88029975"
         id="stop3399" />
      <stop
         style="stop-color:#d5e5ff;stop-opacity:0;"
         offset="1"
         id="stop3391" />
    </linearGradient>
    <linearGradient
       id="linearGradient3764"
       x1="1"
       x2="47"
       gradientUnits="userSpaceOnUse"
       gradientTransform="matrix(0,-1,1,0,-1.5e-6,47.999998)">
      <stop
         stop-color="#ea791e"
         stop-opacity="1"
         id="stop7" />
      <stop
         offset="1"
         stop-color="#ec8430"
         stop-opacity="1"
         id="stop9" />
    </linearGradient>
    <clipPath
       id="clipPath-296880936">
      <g
         transform="translate(0,-1004.3622)"
         id="g12">
        <path
           d="m -24,13 c 0,1.105 -0.672,2 -1.5,2 -0.828,0 -1.5,-0.895 -1.5,-2 0,-1.105 0.672,-2 1.5,-2 0.828,0 1.5,0.895 1.5,2 z"
           transform="matrix(15.333333,0,0,11.5,414.99999,878.8622)"
           id="path14"
           inkscape:connector-curvature="0"
           style="fill:#1890d0" />
      </g>
    </clipPath>
    <clipPath
       id="clipPath-304821512">
      <g
         transform="translate(0,-1004.3622)"
         id="g17">
        <path
           d="m -24,13 c 0,1.105 -0.672,2 -1.5,2 -0.828,0 -1.5,-0.895 -1.5,-2 0,-1.105 0.672,-2 1.5,-2 0.828,0 1.5,0.895 1.5,2 z"
           transform="matrix(15.333333,0,0,11.5,414.99999,878.8622)"
           id="path19"
           inkscape:connector-curvature="0"
           style="fill:#1890d0" />
      </g>
    </clipPath>
    <linearGradient
       inkscape:collect="always"
       xlink:href="#linearGradient3387"
       id="linearGradient3393"
       x1="-30.850424"
       y1="-27.563288"
       x2="144.81357"
       y2="142.23729"
       gradientUnits="userSpaceOnUse"
       gradientTransform="matrix(0.96689132,0,0,0.96689132,2.4088371,2.4043475)" />
  </defs>
  <g
     id="g33"
     transform="translate(0,80)" />
  <circle
     style="opacity:1;fill:url(#linearGradient3393);fill-opacity:1;fill-rule:nonzero;stroke:none;stroke-width:17.54899979;stroke-miterlimit:4;stroke-dasharray:none;stroke-opacity:1"
     id="path3385"
     cx="64.355438"
     cy="64.219841"
     r="58.800102" />
  <path
     style="color:#000000;font-style:normal;font-variant:normal;font-weight:normal;font-stretch:normal;font-size:medium;line-height:normal;font-family:Sans;-inkscape-font-specification:Sans;text-indent:0;text-align:start;text-decoration:none;text-decoration-line:none;letter-spacing:normal;word-spacing:normal;text-transform:none;direction:ltr;block-progression:tb;writing-mode:lr-tb;baseline-shift:baseline;text-anchor:start;display:inline;overflow:visible;visibility:visible;fill:#ff9955;fill-opacity:1;stroke:none;stroke-width:10.81034088;marker:none;enable-background:accumulate"
     d="m 24.577183,42.307958 6.363568,2.967388 c 2.518284,-4.424892 5.782884,-8.182615 9.602243,-11.154484 l 0.0577,0.07272 c 2.345408,-1.828513 4.874063,-3.365826 7.55105,-4.592901 L 45.760347,23.030378 C 37.029632,26.867459 29.472533,33.461151 24.577144,42.307917 Z m -2.7717,6.042241 c -3.528251,9.429607 -3.647654,19.393046 -0.912741,28.500647 l 6.515091,-2.371294 c -0.79488,-2.807903 -1.235437,-5.719905 -1.370461,-8.661422 l -0.09293,0 c -0.225819,-4.820857 0.475199,-9.749005 2.18689,-14.520644 l -6.325904,-2.949814 z m 30.193938,-27.590606 2.411499,6.62552 c 0.779312,-0.202576 1.572186,-0.395566 2.364195,-0.54786 0.838383,-0.161215 1.66775,-0.280445 2.517354,-0.384757 1.699206,-0.208665 3.451167,-0.315543 5.17792,-0.290177 0.239536,0.004 0.485547,0.008 0.725376,0.01729 1.486964,0.05052 2.983781,0.204902 4.472833,0.435411 1.731195,0.268 3.430706,0.641364 5.143208,1.160586 0.856251,0.259624 1.723178,0.553683 2.570428,0.877722 0.02592,0.0093 0.05026,0.02326 0.07525,0.0351 l 2.967389,-6.363555 c -0.192844,-0.07605 -0.388148,-0.151497 -0.582374,-0.225722 -0.429415,-0.163369 -0.86355,-0.317219 -1.295265,-0.466482 -0.595988,-0.207203 -1.182469,-0.421292 -1.782233,-0.601851 -0.839672,-0.252777 -1.682348,-0.473261 -2.52771,-0.674428 -0.181158,-0.04321 -0.360827,-0.07459 -0.54217,-0.115268 -0.989613,-0.222385 -1.995685,-0.415774 -2.989512,-0.568879 -0.04254,-0.0067 -0.08802,-0.008 -0.130557,-0.01502 -0.24282,-0.03616 -0.484962,-0.07817 -0.727914,-0.110216 -0.728952,-0.09798 -1.451959,-0.176278 -2.181203,-0.237794 -0.07378,-0.0067 -0.149622,-0.0067 -0.223395,-0.01197 -1.037396,-0.08229 -2.072717,-0.109949 -3.107347,-0.119521 -4.189425,-0.03882 -8.342354,0.487979 -12.335864,1.582409 z M 23.21878,83.069712 c 0.433005,0.925598 0.898463,1.81716 1.393821,2.712843 0.489694,0.885446 1.027438,1.762517 1.577012,2.614859 0.555997,0.862447 1.144234,1.691921 1.760204,2.517008 1.236128,1.655759 2.562703,3.239192 4.032344,4.722514 0.0218,0.02127 0.03577,0.05052 0.05757,0.07179 0.703345,0.707027 1.457118,1.377498 2.211834,2.039983 0.778237,0.6831 1.583527,1.36461 2.415182,1.997178 0.849178,0.646013 1.712355,1.272073 2.615883,1.861573 0.50166,0.32732 1.013264,0.63431 1.531357,0.94341 0.405537,0.24302 0.812018,0.47835 1.22758,0.70995 0.16975,0.0944 0.33954,0.19104 0.50957,0.28331 l 2.967389,-6.363518 c -0.217479,-0.122311 -0.443707,-0.228138 -0.660203,-0.35364 -0.569331,-0.32826 -1.135631,-0.659967 -1.681976,-1.013614 -0.743336,-0.483805 -1.479493,-0.991939 -2.179088,-1.520415 -0.699583,-0.528477 -1.361128,-1.103086 -2.015933,-1.673441 -1.309664,-1.140577 -2.543505,-2.344838 -3.668115,-3.635781 -0.562312,-0.645605 -1.120037,-1.321124 -1.63454,-1.999966 -0.472663,-0.623668 -0.939491,-1.22766 -1.370993,-1.876987 -0.03815,-0.05717 -0.05996,-0.126302 -0.09798,-0.183205 -0.465742,-0.709419 -0.907428,-1.438649 -1.323349,-2.175724 -0.383307,-0.679241 -0.757787,-1.369916 -1.097475,-2.070428 l -6.570305,2.391503 z m 25.409922,23.171858 c 0.183497,0.0652 0.362993,0.14491 0.544682,0.20806 0.579808,0.20102 1.161238,0.40855 1.744595,0.58432 1.016376,0.30738 2.045475,0.55785 3.069868,0.78972 1.017479,0.23027 2.060497,0.40936 3.082404,0.56637 0.997417,0.15329 1.986046,0.29833 2.984393,0.38316 0.03071,0 0.06249,0 0.0928,0 2.080959,0.1723 4.146694,0.17084 6.209612,0.0532 1.019979,-0.0585 2.04933,-0.1424 3.059524,-0.26949 1.014314,-0.12763 2.015919,-0.27707 3.016833,-0.47264 1.322958,-0.25858 2.643682,-0.5875 3.932765,-0.96256 l -2.391397,-6.57025 c -1.071616,0.30087 -2.153695,0.57208 -3.25012,0.77656 -0.831961,0.15515 -1.674611,0.28558 -2.517367,0.38475 -0.0686,0.0133 -0.134679,0.0346 -0.203255,0.0425 -0.774818,0.0864 -1.537671,0.11701 -2.319112,0.15636 -0.850732,0.0425 -1.726793,0.0492 -2.582711,0.0333 -2.567755,-0.0479 -5.1573,-0.35271 -7.720867,-0.94155 -0.854509,-0.19611 -1.679278,-0.41587 -2.527684,-0.67432 -0.424948,-0.12896 -0.852435,-0.26444 -1.275163,-0.411223 l -2.949826,6.325893 z M 83.429554,31.610819 c 0.395446,0.238035 0.791398,0.481399 1.172352,0.730056 1.461519,0.953929 2.847322,1.999686 4.137295,3.121132 0.03271,0.02846 0.06289,0.06182 0.09546,0.0904 0.01064,0.0093 0.02765,0.0093 0.03762,0.01755 1.122509,0.984814 2.147567,2.014604 3.133324,3.111401 0.16172,0.179934 0.321592,0.361783 0.47955,0.54451 1.12937,1.306472 2.173625,2.717243 3.106016,4.153036 0.466203,0.71789 0.907981,1.429863 1.323384,2.175726 0.557113,1.000315 1.034057,2.036979 1.496826,3.081752 l 6.625529,-2.411484 c -1.77056,-4.091932 -4.14732,-7.936299 -7.076358,-11.367936 -0.6798,-0.796437 -1.387944,-1.570244 -2.126601,-2.321053 -0.560397,-0.572097 -1.143622,-1.13732 -1.737363,-1.681151 -0.181224,-0.165138 -0.368071,-0.324345 -0.552341,-0.48677 -0.723845,-0.637973 -1.474121,-1.277596 -2.244433,-1.871749 -0.05517,-0.04254 -0.115268,-0.0831 -0.170708,-0.125504 -0.156083,-0.119523 -0.31654,-0.241119 -0.474485,-0.35878 C 89.95714,27.493664 89.246575,26.989876 88.513197,26.509129 87.99541,26.168711 87.44198,25.85152 86.90655,25.530724 c -0.165217,-0.09865 -0.341548,-0.18472 -0.509597,-0.283476 l -2.967376,6.363568 z m -3.235775,66.612124 2.391396,6.570267 c 2.312438,-1.06466 4.544601,-2.31944 6.662813,-3.76927 5.484303,-3.753849 10.210779,-8.769383 13.664732,-14.852772 l -6.32591,-2.949893 c -2.555059,4.378307 -5.879618,8.083089 -9.717749,11.008919 l -0.05757,-0.07179 c -2.071479,1.582104 -4.288844,2.944574 -6.61753,4.06547 z M 100.57178,54.915572 c 0.62597,2.536019 1.00941,5.123105 1.10412,7.757841 l 0.0928,-0.0026 c 0.17848,4.836106 -0.60168,9.752329 -2.372636,14.52563 l 6.363616,2.967575 c 3.50525,-9.109064 3.81912,-18.763981 1.43756,-27.660005 l -6.62552,2.411498 z"
     id="path3110-2"
     inkscape:connector-curvature="0" />
</svg>
