<?xml version="1.0" encoding="UTF-8" standalone="no"?>
<svg
   xmlns:dc="http://purl.org/dc/elements/1.1/"
   xmlns:cc="http://creativecommons.org/ns#"
   xmlns:rdf="http://www.w3.org/1999/02/22-rdf-syntax-ns#"
   xmlns:svg="http://www.w3.org/2000/svg"
   xmlns="http://www.w3.org/2000/svg"
   xmlns:xlink="http://www.w3.org/1999/xlink"
   xmlns:sodipodi="http://sodipodi.sourceforge.net/DTD/sodipodi-0.dtd"
   xmlns:inkscape="http://www.inkscape.org/namespaces/inkscape"
   viewBox="0 0 128 128"
   id="svg2"
   version="1.1"
   inkscape:version="0.91 r"
   width="100%"
   height="100%"
   sodipodi:docname="system-hibernate.svg">
  <metadata
     id="metadata61">
    <rdf:RDF>
      <cc:Work
         rdf:about="">
        <dc:format>image/svg+xml</dc:format>
        <dc:type
           rdf:resource="http://purl.org/dc/dcmitype/StillImage" />
        <dc:title />
      </cc:Work>
    </rdf:RDF>
  </metadata>
  <sodipodi:namedview
     pagecolor="#ffffff"
     bordercolor="#666666"
     borderopacity="1"
     objecttolerance="10"
     gridtolerance="10"
     guidetolerance="10"
     inkscape:pageopacity="0"
     inkscape:pageshadow="2"
     inkscape:window-width="1366"
     inkscape:window-height="744"
     id="namedview59"
     showgrid="false"
     inkscape:zoom="1.7383041"
     inkscape:cx="55.681976"
     inkscape:cy="-8.0654416"
     inkscape:window-x="0"
     inkscape:window-y="24"
     inkscape:window-maximized="1"
     inkscape:current-layer="svg2" />
  <defs
     id="defs4">
    <linearGradient
       inkscape:collect="always"
       id="linearGradient3387">
      <stop
         style="stop-color:#d5e5ff;stop-opacity:1;"
         offset="0"
         id="stop3389" />
      <stop
         id="stop3401"
         offset="0"
         style="stop-color:#bbbbbb;stop-opacity:1" />
      <stop
         style="stop-color:#808080;stop-opacity:1"
         offset="0.46924293"
         id="stop3403" />
      <stop
         style="stop-color:#000000;stop-opacity:1"
         offset="0.88029975"
         id="stop3399" />
      <stop
         style="stop-color:#d5e5ff;stop-opacity:0;"
         offset="1"
         id="stop3391" />
    </linearGradient>
    <linearGradient
       id="linearGradient3764"
       x1="1"
       x2="47"
       gradientUnits="userSpaceOnUse"
       gradientTransform="matrix(0,-1,1,0,-1.5e-6,47.999998)">
      <stop
         stop-color="#ea791e"
         stop-opacity="1"
         id="stop7" />
      <stop
         offset="1"
         stop-color="#ec8430"
         stop-opacity="1"
         id="stop9" />
    </linearGradient>
    <clipPath
       id="clipPath-296880936">
      <g
         transform="translate(0,-1004.3622)"
         id="g12">
        <path
           d="m -24,13 c 0,1.105 -0.672,2 -1.5,2 -0.828,0 -1.5,-0.895 -1.5,-2 0,-1.105 0.672,-2 1.5,-2 0.828,0 1.5,0.895 1.5,2 z"
           transform="matrix(15.333333,0,0,11.5,414.99999,878.8622)"
           id="path14"
           inkscape:connector-curvature="0"
           style="fill:#1890d0" />
      </g>
    </clipPath>
    <clipPath
       id="clipPath-304821512">
      <g
         transform="translate(0,-1004.3622)"
         id="g17">
        <path
           d="m -24,13 c 0,1.105 -0.672,2 -1.5,2 -0.828,0 -1.5,-0.895 -1.5,-2 0,-1.105 0.672,-2 1.5,-2 0.828,0 1.5,0.895 1.5,2 z"
           transform="matrix(15.333333,0,0,11.5,414.99999,878.8622)"
           id="path19"
           inkscape:connector-curvature="0"
           style="fill:#1890d0" />
      </g>
    </clipPath>
    <linearGradient
       inkscape:collect="always"
       xlink:href="#linearGradient3387"
       id="linearGradient3393"
       x1="-13.01695"
       y1="-10.305087"
       x2="144.81357"
       y2="142.23729"
       gradientUnits="userSpaceOnUse"
       gradientTransform="matrix(0.97635094,0,0,0.97635094,1.2275064,1.799573)" />
  </defs>
  <g
     id="g33"
     transform="translate(0,80)" />
  <circle
     style="opacity:1;fill:url(#linearGradient3393);fill-opacity:1;fill-rule:nonzero;stroke:none;stroke-width:17.54899979;stroke-miterlimit:4;stroke-dasharray:none;stroke-opacity:1"
     id="path3385"
     cx="63.780167"
     cy="64.219841"
     r="59.375378" />
  <path
     inkscape:connector-curvature="0"
     style="color:#000000;font-style:normal;font-variant:normal;font-weight:normal;font-stretch:normal;font-size:medium;line-height:normal;font-family:Sans;-inkscape-font-specification:Sans;text-indent:0;text-align:start;text-decoration:none;text-decoration-line:none;letter-spacing:normal;word-spacing:normal;text-transform:none;direction:ltr;block-progression:tb;writing-mode:lr-tb;baseline-shift:baseline;text-anchor:start;display:inline;overflow:visible;visibility:visible;fill:#2ad4ff;fill-opacity:1;stroke:none;stroke-width:10.81034088;marker:none;enable-background:accumulate"
     d="m 107.23552,64.768127 c 0,-24.439471 -19.897187,-44.336651 -44.336489,-44.336651 -24.4393,0 -44.33648,19.89718 -44.33648,44.336651 0,24.439419 19.89718,44.336603 44.33648,44.336603 24.439302,0 44.336489,-19.897184 44.336489,-44.336603 z m -6.90397,0 c 0,20.708239 -16.724398,37.432633 -37.432519,37.432633 -20.708105,0 -37.432495,-16.724394 -37.432495,-37.432633 0,-20.708289 16.724377,-37.432679 37.432495,-37.432679 20.708121,0 37.432519,16.72439 37.432519,37.432679 z M 66.351018,45.997761 a 3.4557791,3.4557791 0 1 0 -6.903972,0.323636 l 0,36.893436 a 3.4523339,3.4523339 0 1 0 6.903972,0 l 0,-36.893436 a 3.4523339,3.4523339 0 0 0 0,-0.323636 z"
     id="path3110-2" />
</svg>
