<?xml version="1.0" encoding="UTF-8" standalone="no"?>
<!-- Created with Inkscape (http://www.inkscape.org/) -->

<svg
   xmlns:dc="http://purl.org/dc/elements/1.1/"
   xmlns:cc="http://creativecommons.org/ns#"
   xmlns:rdf="http://www.w3.org/1999/02/22-rdf-syntax-ns#"
   xmlns:svg="http://www.w3.org/2000/svg"
   xmlns="http://www.w3.org/2000/svg"
   xmlns:xlink="http://www.w3.org/1999/xlink"
   xmlns:sodipodi="http://sodipodi.sourceforge.net/DTD/sodipodi-0.dtd"
   xmlns:inkscape="http://www.inkscape.org/namespaces/inkscape"
   width="256"
   height="256"
   id="svg2"
   version="1.1"
   inkscape:version="0.91 r"
   sodipodi:docname="cycle.svg">
  <defs
     id="defs4">
    <linearGradient
       inkscape:collect="always"
       id="linearGradient3417">
      <stop
         style="stop-color:#000000;stop-opacity:1;"
         offset="0"
         id="stop3419" />
      <stop
         id="stop3431"
         offset="0.06638053"
         style="stop-color:#808080;stop-opacity:1" />
      <stop
         style="stop-color:#164450;stop-opacity:1"
         offset="0.94568229"
         id="stop3433" />
      <stop
         style="stop-color:#000000;stop-opacity:0;"
         offset="1"
         id="stop3421" />
    </linearGradient>
    <linearGradient
       inkscape:collect="always"
       xlink:href="#linearGradient3417"
       id="linearGradient3429"
       x1="176.1116"
       y1="684.3125"
       x2="230.9866"
       y2="742.4375"
       gradientUnits="userSpaceOnUse"
       gradientTransform="matrix(5.4636567,0,0,5.4636567,-808.26248,-3286.0843)" />
    <linearGradient
       inkscape:collect="always"
       xlink:href="#linearGradient3417"
       id="linearGradient3437"
       gradientUnits="userSpaceOnUse"
       x1="324.01559"
       y1="454.15256"
       x2="531.59729"
       y2="674.02832"
       gradientTransform="matrix(1.4443385,0,0,1.4443385,212.52719,518.68125)" />
    <linearGradient
       inkscape:collect="always"
       xlink:href="#linearGradient3417"
       id="linearGradient3439"
       gradientUnits="userSpaceOnUse"
       x1="324.01559"
       y1="454.15256"
       x2="531.59729"
       y2="674.02832"
       gradientTransform="matrix(1.4443385,0,0,1.4443385,215.41588,518.68125)" />
    <linearGradient
       inkscape:collect="always"
       xlink:href="#linearGradient3417"
       id="linearGradient3446"
       gradientUnits="userSpaceOnUse"
       x1="324.01559"
       y1="414.15256"
       x2="531.59729"
       y2="634.02832"
       gradientTransform="matrix(1.4443385,0,0,1.4443385,212.52719,576.45478)" />
    <linearGradient
       inkscape:collect="always"
       xlink:href="#linearGradient3417"
       id="linearGradient3448"
       gradientUnits="userSpaceOnUse"
       x1="324.01559"
       y1="414.15256"
       x2="531.59729"
       y2="634.02832"
       gradientTransform="matrix(1.4443385,0,0,1.4443385,215.41588,576.45478)" />
    <linearGradient
       inkscape:collect="always"
       xlink:href="#linearGradient3417"
       id="linearGradient3455"
       gradientUnits="userSpaceOnUse"
       x1="324.01559"
       y1="374.15253"
       x2="531.59729"
       y2="594.02832"
       gradientTransform="matrix(1.4443385,0,0,1.4443385,212.52719,634.22836)" />
    <linearGradient
       inkscape:collect="always"
       xlink:href="#linearGradient3417"
       id="linearGradient3457"
       gradientUnits="userSpaceOnUse"
       x1="324.01559"
       y1="374.15253"
       x2="531.59729"
       y2="594.02832"
       gradientTransform="matrix(1.4443385,0,0,1.4443385,215.41588,634.22836)" />
  </defs>
  <sodipodi:namedview
     id="base"
     pagecolor="#ffffff"
     bordercolor="#666666"
     borderopacity="1.0"
     inkscape:pageopacity="0.0"
     inkscape:pageshadow="2"
     inkscape:zoom="1.4142136"
     inkscape:cx="150.04051"
     inkscape:cy="70.775028"
     inkscape:document-units="px"
     inkscape:current-layer="layer1"
     showgrid="false"
     fit-margin-top="0"
     fit-margin-left="0"
     fit-margin-right="0"
     fit-margin-bottom="0"
     inkscape:window-width="1366"
     inkscape:window-height="744"
     inkscape:window-x="0"
     inkscape:window-y="24"
     inkscape:window-maximized="1"
     showguides="false">
    <sodipodi:guide
       position="8.9999928,39"
       orientation="30,0"
       id="guide3281" />
    <sodipodi:guide
       position="8.9999928,9"
       orientation="0,30"
       id="guide3283" />
    <sodipodi:guide
       position="38.999993,9"
       orientation="-30,0"
       id="guide3285" />
    <sodipodi:guide
       position="38.999993,39"
       orientation="0,-30"
       id="guide3287" />
    <sodipodi:guide
       position="7,44"
       orientation="40,0"
       id="guide3308" />
    <sodipodi:guide
       position="7,4"
       orientation="0,2"
       id="guide3310" />
    <sodipodi:guide
       position="9,4"
       orientation="0,30"
       id="guide3312" />
    <sodipodi:guide
       position="39,4"
       orientation="0,2"
       id="guide3314" />
    <sodipodi:guide
       position="41,4"
       orientation="-40,0"
       id="guide3316" />
    <sodipodi:guide
       position="41,44"
       orientation="0,-2"
       id="guide3318" />
    <sodipodi:guide
       position="39,44"
       orientation="0,-30"
       id="guide3320" />
    <sodipodi:guide
       position="9,44"
       orientation="0,-2"
       id="guide3322" />
    <sodipodi:guide
       position="7,44"
       orientation="0,0"
       id="guide3324" />
    <sodipodi:guide
       position="29.999993,15"
       orientation="11,0"
       id="guide3330" />
    <sodipodi:guide
       position="29.999993,4"
       orientation="0,11"
       id="guide3332" />
    <sodipodi:guide
       position="40.999993,4"
       orientation="-11,0"
       id="guide3334" />
    <sodipodi:guide
       position="40.999993,15"
       orientation="0,-11"
       id="guide3336" />
  </sodipodi:namedview>
  <metadata
     id="metadata7">
    <rdf:RDF>
      <cc:Work
         rdf:about="">
        <dc:format>image/svg+xml</dc:format>
        <dc:type
           rdf:resource="http://purl.org/dc/dcmitype/StillImage" />
        <dc:title></dc:title>
      </cc:Work>
    </rdf:RDF>
  </metadata>
  <g
     inkscape:label="Capa 1"
     inkscape:groupmode="layer"
     id="layer1"
     transform="translate(-180.23661,-481.8125)">
    <path
       inkscape:connector-curvature="0"
       style="fill:url(#linearGradient3429);fill-opacity:1;fill-rule:evenodd;stroke:none"
       d="m 209.6385,495.57179 0,231.0941 11.55471,0 121.32443,0 63.55085,-63.55085 0,-167.54325 -11.55465,0 -173.32063,0 -11.55471,0 z"
       id="rect3303" />
    <path
       style="fill:#ecf0f1;fill-opacity:1;stroke:none"
       d="m 342.51758,663.11504 0,63.55085 63.55091,-63.55091 z"
       id="path3338"
       inkscape:connector-curvature="0" />
    <rect
       style="fill:none;stroke:none"
       id="rect3260"
       width="43.330154"
       height="43.330154"
       x="225.52629"
       y="531.68011" />
    <rect
       y="531.68011"
       x="247.19133"
       height="21.665077"
       width="21.665077"
       id="rect3272"
       style="fill:none;stroke:none" />
    <rect
       style="fill:none;stroke:none"
       id="rect3322"
       width="12.999046"
       height="12.999046"
       x="240.69182"
       y="546.84589" />
    <rect
       style="fill:#ff8080;fill-opacity:1;fill-rule:evenodd;stroke:none"
       id="rect3284"
       width="5.7773538"
       height="12.606186"
       x="-219.37221"
       y="559.76178"
       transform="matrix(0.70710678,-0.70710678,0.70710678,0.70710678,0,0)" />
    <rect
       style="fill:none;stroke:none"
       id="rect3331"
       width="5.7773538"
       height="21.665119"
       x="268.85638"
       y="531.68011" />
    <path
       inkscape:connector-curvature="0"
       style="fill:url(#linearGradient3437);fill-opacity:1;fill-rule:evenodd;stroke:none"
       d="m 247.18284,531.68028 c -5.67226,3.8e-4 -11.3071,2.33653 -15.31507,6.34724 -4.00792,4.01065 -6.34156,9.64641 -6.34156,15.31785 0,5.67144 2.33364,11.3072 6.34156,15.31791 4.00797,4.01065 9.64281,6.34685 15.31507,6.34718 5.67231,3.3e-4 11.31048,-2.33369 15.32353,-6.3444 4.01306,-4.0107 6.35003,-9.6486 6.35003,-15.32069 l -5.77738,0 c 0,4.15954 -1.7145,8.29476 -4.65739,11.23595 -2.94294,2.9412 -7.07909,4.65203 -11.23879,4.65176 -4.15965,-2.2e-4 -8.2911,-1.7134 -11.23028,-4.6546 -2.93917,-2.94114 -4.64897,-7.07407 -4.64897,-11.23311 0,-4.15905 1.7098,-8.29192 4.64897,-11.23312 2.93918,-2.94114 7.07063,-4.65438 11.23028,-4.65459 0.003,0 0.005,0 0.0109,0 l 0,-5.77738 c -0.003,0 -0.005,0 -0.0109,0 z"
       id="path3304" />
    <path
       inkscape:connector-curvature="0"
       id="path4149"
       d="m 270.54898,531.68028 -20.46899,20.46899 -5.3034,-5.30341 -4.0848,4.08474 5.30347,5.30346 3.61082,3.61082 0.4737,0.4737 24.55378,-24.55373 -4.08479,-4.08479 z"
       style="fill:url(#linearGradient3439);fill-opacity:1;fill-rule:evenodd;stroke:none" />
    <rect
       style="fill:none;stroke:none"
       id="rect3260-3"
       width="43.330154"
       height="43.330154"
       x="225.52629"
       y="647.22723" />
    <rect
       y="647.22723"
       x="247.19133"
       height="21.665077"
       width="21.665077"
       id="rect3272-5"
       style="fill:none;stroke:none" />
    <rect
       style="fill:none;stroke:none"
       id="rect3322-3"
       width="12.999046"
       height="12.999046"
       x="240.69182"
       y="662.39307" />
    <rect
       style="fill:#ff8080;fill-opacity:1;fill-rule:evenodd;stroke:none"
       id="rect3284-2"
       width="5.7773538"
       height="12.606186"
       x="-301.07645"
       y="641.46582"
       transform="matrix(0.70710678,-0.70710678,0.70710678,0.70710678,0,0)" />
    <rect
       style="fill:none;stroke:none"
       id="rect3331-6"
       width="5.7773538"
       height="21.665119"
       x="268.85638"
       y="647.22723" />
    <path
       inkscape:connector-curvature="0"
       style="fill:url(#linearGradient3455);fill-opacity:1;fill-rule:evenodd;stroke:none"
       d="m 247.18284,647.22738 c -5.67226,3.8e-4 -11.3071,2.33653 -15.31507,6.34724 -4.00792,4.01065 -6.34156,9.64641 -6.34156,15.31785 0,5.67144 2.33364,11.30721 6.34156,15.31791 4.00797,4.01065 9.64281,6.34686 15.31507,6.34719 5.67231,3.2e-4 11.31048,-2.3337 15.32353,-6.3444 4.01306,-4.01071 6.35003,-9.6486 6.35003,-15.3207 l -5.77738,0 c 0,4.15954 -1.7145,8.29476 -4.65739,11.23596 -2.94294,2.9412 -7.07909,4.65203 -11.23879,4.65176 -4.15965,-2.2e-4 -8.2911,-1.71341 -11.23028,-4.6546 -2.93917,-2.94114 -4.64897,-7.07407 -4.64897,-11.23312 0,-4.15904 1.7098,-8.29191 4.64897,-11.23311 2.93918,-2.94114 7.07063,-4.65438 11.23028,-4.6546 0.003,0 0.005,0 0.0109,0 l 0,-5.77738 c -0.003,0 -0.005,0 -0.0109,0 z"
       id="path3304-4" />
    <path
       inkscape:connector-curvature="0"
       id="path4149-9"
       d="m 270.54898,647.22738 -20.46899,20.46899 -5.3034,-5.30341 -4.0848,4.08474 5.30347,5.30346 3.61082,3.61083 0.4737,0.47369 24.55378,-24.55372 -4.08479,-4.0848 z"
       style="fill:url(#linearGradient3457);fill-opacity:1;fill-rule:evenodd;stroke:none" />
    <rect
       style="fill:none;stroke:none"
       id="rect3260-3-5"
       width="43.330154"
       height="43.330154"
       x="225.52629"
       y="589.45367" />
    <rect
       y="589.45367"
       x="247.19133"
       height="21.665077"
       width="21.665077"
       id="rect3272-5-2"
       style="fill:none;stroke:none" />
    <rect
       style="fill:none;stroke:none"
       id="rect3322-3-0"
       width="12.999046"
       height="12.999046"
       x="240.69182"
       y="604.61945" />
    <rect
       style="fill:#ff8080;fill-opacity:1;fill-rule:evenodd;stroke:none"
       id="rect3284-2-9"
       width="5.7773538"
       height="12.606186"
       x="-260.22424"
       y="600.61383"
       transform="matrix(0.70710678,-0.70710678,0.70710678,0.70710678,0,0)" />
    <rect
       style="fill:none;stroke:none"
       id="rect3331-6-7"
       width="5.7773538"
       height="21.665119"
       x="268.85638"
       y="589.45367" />
    <path
       inkscape:connector-curvature="0"
       style="fill:url(#linearGradient3446);fill-opacity:1;fill-rule:evenodd;stroke:none"
       d="m 247.18284,589.4538 c -5.67226,3.8e-4 -11.3071,2.33653 -15.31507,6.34724 -4.00792,4.01065 -6.34156,9.64641 -6.34156,15.31785 0,5.67144 2.33364,11.30721 6.34156,15.31791 4.00797,4.01065 9.64281,6.34686 15.31507,6.34719 5.67231,3.2e-4 11.31048,-2.3337 15.32353,-6.3444 4.01306,-4.01071 6.35003,-9.6486 6.35003,-15.3207 l -5.77738,0 c 0,4.15954 -1.7145,8.29476 -4.65739,11.23596 -2.94294,2.9412 -7.07909,4.65203 -11.23879,4.65176 -4.15965,-2.2e-4 -8.2911,-1.71341 -11.23028,-4.6546 -2.93917,-2.94114 -4.64897,-7.07407 -4.64897,-11.23312 0,-4.15904 1.7098,-8.29191 4.64897,-11.23311 2.93918,-2.94114 7.07063,-4.65438 11.23028,-4.6546 0.003,0 0.005,0 0.0109,0 l 0,-5.77738 c -0.003,0 -0.005,0 -0.0109,0 z"
       id="path3304-4-1" />
    <path
       inkscape:connector-curvature="0"
       id="path4149-9-8"
       d="m 270.54898,589.4538 -20.46899,20.46899 -5.3034,-5.30341 -4.0848,4.08474 5.30347,5.30346 3.61082,3.61083 0.4737,0.47369 24.55378,-24.55372 -4.08479,-4.0848 z"
       style="fill:url(#linearGradient3448);fill-opacity:1;fill-rule:evenodd;stroke:none" />
  </g>
</svg>
