<?xml version="1.0" encoding="UTF-8" standalone="no"?>
<!-- Created with Inkscape (http://www.inkscape.org/) -->

<svg
   xmlns:dc="http://purl.org/dc/elements/1.1/"
   xmlns:cc="http://creativecommons.org/ns#"
   xmlns:rdf="http://www.w3.org/1999/02/22-rdf-syntax-ns#"
   xmlns:svg="http://www.w3.org/2000/svg"
   xmlns="http://www.w3.org/2000/svg"
   xmlns:xlink="http://www.w3.org/1999/xlink"
   xmlns:sodipodi="http://sodipodi.sourceforge.net/DTD/sodipodi-0.dtd"
   xmlns:inkscape="http://www.inkscape.org/namespaces/inkscape"
   version="1.0"
   width="128"
   height="128"
   id="svg4715"
   inkscape:version="0.91 r"
   sodipodi:docname="themonospot.svg">
  <metadata
     id="metadata3243">
    <rdf:RDF>
      <cc:Work
         rdf:about="">
        <dc:format>image/svg+xml</dc:format>
        <dc:type
           rdf:resource="http://purl.org/dc/dcmitype/StillImage" />
        <dc:title />
      </cc:Work>
    </rdf:RDF>
  </metadata>
  <sodipodi:namedview
     pagecolor="#ffffff"
     bordercolor="#666666"
     borderopacity="1"
     objecttolerance="10"
     gridtolerance="10"
     guidetolerance="10"
     inkscape:pageopacity="0"
     inkscape:pageshadow="2"
     inkscape:window-width="1338"
     inkscape:window-height="714"
     id="namedview3241"
     showgrid="false"
     inkscape:zoom="2.703125"
     inkscape:cx="44.609539"
     inkscape:cy="43.841007"
     inkscape:current-layer="svg4715"
     inkscape:window-x="10"
     inkscape:window-y="24"
     inkscape:window-maximized="0" />
  <defs
     id="defs4717">
    <linearGradient
       id="linearGradient5060">
      <stop
         id="stop5062"
         style="stop-color:#000000;stop-opacity:1"
         offset="0" />
      <stop
         id="stop5064"
         style="stop-color:#000000;stop-opacity:0"
         offset="1" />
    </linearGradient>
    <linearGradient
       id="linearGradient5048">
      <stop
         id="stop5050"
         style="stop-color:#000000;stop-opacity:0"
         offset="0" />
      <stop
         id="stop5056"
         style="stop-color:#000000;stop-opacity:1"
         offset="0.5" />
      <stop
         id="stop5052"
         style="stop-color:#000000;stop-opacity:0"
         offset="1" />
    </linearGradient>
    <linearGradient
       id="linearGradient3582">
      <stop
         id="stop3584"
         style="stop-color:#333333;stop-opacity:1"
         offset="0" />
      <stop
         id="stop3586"
         style="stop-color:#5a5a5a;stop-opacity:1"
         offset="1" />
    </linearGradient>
    <linearGradient
       id="linearGradient3932">
      <stop
         id="stop3934"
         style="stop-color:#828282;stop-opacity:1"
         offset="0" />
      <stop
         id="stop3936"
         style="stop-color:#434343;stop-opacity:1"
         offset="1" />
    </linearGradient>
    <linearGradient
       id="linearGradient3211">
      <stop
         id="stop3213"
         style="stop-color:#ffffff;stop-opacity:1"
         offset="0" />
      <stop
         id="stop3215"
         style="stop-color:#ffffff;stop-opacity:0"
         offset="1" />
    </linearGradient>
    <linearGradient
       inkscape:collect="always"
       xlink:href="#linearGradient3932"
       id="linearGradient3348"
       gradientUnits="userSpaceOnUse"
       gradientTransform="matrix(2.4386913,0,0,2.4142143,201.31976,6.9333983)"
       x1="-22.539846"
       y1="11.109024"
       x2="-22.539846"
       y2="46.263954" />
    <linearGradient
       inkscape:collect="always"
       xlink:href="#linearGradient3582"
       id="linearGradient3350"
       gradientUnits="userSpaceOnUse"
       gradientTransform="matrix(2.6079908,0,0,2.3263905,80.008419,9.1468443)"
       x1="16.745687"
       y1="46.132927"
       x2="16.745687"
       y2="1.4097958" />
    <linearGradient
       inkscape:collect="always"
       xlink:href="#linearGradient3932"
       id="linearGradient3353"
       gradientUnits="userSpaceOnUse"
       gradientTransform="matrix(2.4386913,0,0,2.4142143,119.66949,6.9333983)"
       x1="-22.539846"
       y1="11.109024"
       x2="-22.539846"
       y2="46.263954" />
    <linearGradient
       inkscape:collect="always"
       xlink:href="#linearGradient3582"
       id="linearGradient3355"
       gradientUnits="userSpaceOnUse"
       gradientTransform="matrix(2.6079908,0,0,2.3263905,-1.6418417,9.1468443)"
       x1="16.745687"
       y1="46.132927"
       x2="16.745687"
       y2="1.4097958" />
    <linearGradient
       id="linearGradient8823">
      <stop
         offset="0"
         style="stop-color:#e35d4f;stop-opacity:1"
         id="stop8825" />
      <stop
         id="stop3381"
         style="stop-color:#ff6600;stop-opacity:1"
         offset="0.1582218" />
      <stop
         id="stop8827"
         style="stop-color:#8daa32;stop-opacity:1"
         offset="0.48465484" />
      <stop
         id="stop8829"
         style="stop-color:#729eb8;stop-opacity:1;"
         offset="0.74353176" />
      <stop
         offset="0.88913018"
         style="stop-color:#37abc8;stop-opacity:1"
         id="stop3379" />
      <stop
         offset="1"
         style="stop-color:#727272;stop-opacity:1"
         id="stop8831" />
    </linearGradient>
    <linearGradient
       id="linearGradient2490-1">
      <stop
         id="stop2492-2"
         style="stop-color:#333333;stop-opacity:1"
         offset="0" />
      <stop
         id="stop2494-9"
         style="stop-color:#e35d4f;stop-opacity:1"
         offset="1" />
    </linearGradient>
    <linearGradient
       inkscape:collect="always"
       xlink:href="#linearGradient8823"
       id="linearGradient4583"
       x1="30.472441"
       y1="-0.23106323"
       x2="30.73403"
       y2="63.496761"
       gradientUnits="userSpaceOnUse"
       gradientTransform="matrix(2.0652011,0,0,1.7835639,-2.0195066,9.3384343)" />
  </defs>
  <path
     style="display:inline;fill:url(#linearGradient4583);fill-opacity:1;stroke:#333333;stroke-width:1.91907322;stroke-linecap:butt;stroke-linejoin:round;stroke-miterlimit:4;stroke-dasharray:none;stroke-dashoffset:0;stroke-opacity:1"
     id="path2950"
     d="m 14.891121,11.923243 c 0,0 98.351619,0 98.351619,0 0,0 -0.0111,105.773217 -0.0111,105.773217 -32.780411,0 -98.34121,0 -98.34121,0 0,0 0,-105.773217 0,-105.773217 z"
     inkscape:connector-curvature="0" />
  <path
     style="fill:none;stroke:#464646;stroke-width:1.848212;stroke-linecap:square;stroke-linejoin:round;stroke-miterlimit:4;stroke-dasharray:none;stroke-opacity:1"
     id="path2954"
     d="m 16.309952,64.839497 95.110118,-0.08931"
     inkscape:connector-curvature="0" />
  <path
     style="display:block;overflow:visible;visibility:visible;fill:url(#linearGradient3353);fill-opacity:1;fill-rule:nonzero;stroke:url(#linearGradient3355);stroke-width:1.86809158;stroke-linecap:butt;stroke-linejoin:round;stroke-miterlimit:4;stroke-dasharray:none;stroke-dashoffset:0;stroke-opacity:1;marker:none"
     id="path2958"
     d="m 31.398762,11.901982 c 0,6.274296 0.218361,100.745788 0.218361,105.815728 -5.352474,0 -10.704953,0 -16.057427,0 -1.300982,-1.2529 -0.3117,-3.74047 -0.620811,-5.5142 0,-33.231161 0,-66.462343 0,-99.693508 l 0.18143,-0.430328 0.439379,-0.177696 0,0 c 5.570839,0 10.268234,0 15.839066,0 z"
     inkscape:connector-curvature="0" />
  <path
     style="display:block;overflow:visible;visibility:visible;fill:url(#linearGradient3348);fill-opacity:1;fill-rule:nonzero;stroke:url(#linearGradient3350);stroke-width:1.86809158;stroke-linecap:butt;stroke-linejoin:round;stroke-miterlimit:4;stroke-dasharray:none;stroke-dashoffset:0;stroke-opacity:1;marker:none"
     id="path3960"
     d="m 113.04902,11.901982 c 0,6.274296 0.21836,100.745788 0.21836,105.815728 -5.35247,0 -10.70494,0 -16.057412,0 -1.300994,-1.2529 -0.3117,-3.74047 -0.62082,-5.5142 0,-33.231161 0,-66.462343 0,-99.693508 l 0.18149,-0.430328 0.43937,-0.177696 0,0 c 5.570832,0 10.268222,0 15.839062,0 z"
     inkscape:connector-curvature="0" />
  <path
     style="fill:#ffffff;fill-opacity:1;stroke:none"
     id="rect2980"
     d="m 19.530417,107.27934 7.422752,0 0,4.80789 -7.422752,0 0,-4.80789 z m 0,-9.61572 7.422752,0 0,4.80786 -7.422752,0 0,-4.80786 z m 0,-9.615749 7.422752,0 0,4.807882 -7.422752,0 0,-4.807882 z m 0,-9.615727 7.422752,0 0,4.807863 -7.422752,0 0,-4.807863 z m 0,-9.615738 7.422752,0 0,4.807873 -7.422752,0 0,-4.807873 z m 0,-9.615735 7.422752,0 0,4.807868 -7.422752,0 0,-4.807868 z m 0,-9.615737 7.422752,0 0,4.807868 -7.422752,0 0,-4.807868 z m 0,-9.615735 7.422752,0 0,4.807868 -7.422752,0 0,-4.807868 z m 0,-9.615737 7.422752,0 0,4.807869 -7.422752,0 0,-4.807869 z m 0,-9.615731 7.422752,0 0,4.807867 -7.422752,0 0,-4.807867 z m 81.650283,86.541609 7.42275,0 0,4.80789 -7.42275,0 0,-4.80789 z m 0,-9.61572 7.42275,0 0,4.80786 -7.42275,0 0,-4.80786 z m 0,-9.615749 7.42275,0 0,4.807882 -7.42275,0 0,-4.807882 z m 0,-9.615727 7.42275,0 0,4.807863 -7.42275,0 0,-4.807863 z m 0,-9.615738 7.42275,0 0,4.807873 -7.42275,0 0,-4.807873 z m 0,-9.615735 7.42275,0 0,4.807868 -7.42275,0 0,-4.807868 z m 0,-9.615737 7.42275,0 0,4.807868 -7.42275,0 0,-4.807868 z m 0,-9.615735 7.42275,0 0,4.807868 -7.42275,0 0,-4.807868 z m 0,-9.615737 7.42275,0 0,4.807869 -7.42275,0 0,-4.807869 z m 0,-9.615731 7.42275,0 0,4.807867 -7.42275,0 0,-4.807867 z"
     inkscape:connector-curvature="0" />
</svg>
