<?xml version="1.0" encoding="UTF-8" standalone="no"?>
<!-- Created with Inkscape (http://www.inkscape.org/) -->

<svg
   xmlns:dc="http://purl.org/dc/elements/1.1/"
   xmlns:cc="http://creativecommons.org/ns#"
   xmlns:rdf="http://www.w3.org/1999/02/22-rdf-syntax-ns#"
   xmlns:svg="http://www.w3.org/2000/svg"
   xmlns="http://www.w3.org/2000/svg"
   xmlns:xlink="http://www.w3.org/1999/xlink"
   xmlns:sodipodi="http://sodipodi.sourceforge.net/DTD/sodipodi-0.dtd"
   xmlns:inkscape="http://www.inkscape.org/namespaces/inkscape"
   id="svg3449"
   height="128"
   width="128"
   version="1.0"
   inkscape:version="0.48.4 r9939"
   sodipodi:docname="microsoft-wine-uninstaller.svg">
  <sodipodi:namedview
     pagecolor="#ffffff"
     bordercolor="#666666"
     borderopacity="1"
     objecttolerance="10"
     gridtolerance="10"
     guidetolerance="10"
     inkscape:pageopacity="0"
     inkscape:pageshadow="2"
     inkscape:window-width="1360"
     inkscape:window-height="707"
     id="namedview83"
     showgrid="false"
     inkscape:zoom="1.3037281"
     inkscape:cx="81.931979"
     inkscape:cy="43.716526"
     inkscape:window-x="-2"
     inkscape:window-y="33"
     inkscape:window-maximized="1"
     inkscape:current-layer="svg3449" />
  <metadata
     id="metadata56">
    <rdf:RDF>
      <cc:Work
         rdf:about="">
        <dc:format>image/svg+xml</dc:format>
        <dc:type
           rdf:resource="http://purl.org/dc/dcmitype/StillImage" />
        <dc:title></dc:title>
      </cc:Work>
    </rdf:RDF>
  </metadata>
  <defs
     id="defs3451">
    <linearGradient
       spreadMethod="pad"
       y2="138.66"
       x2="48"
       y1="20.221001"
       gradientUnits="userSpaceOnUse"
       x1="48"
       id="linearGradient3962">
      <stop
         offset="0"
         style="stop-color:#00adef;stop-opacity:1"
         id="stop3964" />
      <stop
         offset="1"
         style="stop-color:#fff;stop-opacity:0"
         id="stop3966" />
    </linearGradient>
    <linearGradient
       spreadMethod="pad"
       y2="138.66"
       x2="48"
       y1="20.221001"
       gradientUnits="userSpaceOnUse"
       x1="48"
       id="linearGradient3956">
      <stop
         offset="0"
         style="stop-color:#fff"
         id="stop3958" />
      <stop
         offset="1"
         style="stop-color:#00adef;stop-opacity:1"
         id="stop3960" />
    </linearGradient>
    <linearGradient
       spreadMethod="pad"
       y2="138.66"
       x2="48"
       y1="20.221001"
       gradientUnits="userSpaceOnUse"
       x1="48"
       id="linearGradient3950">
      <stop
         offset="0"
         style="stop-color:#fff"
         id="stop3952" />
      <stop
         offset="1"
         style="stop-color:#00adef;stop-opacity:1"
         id="stop3954" />
    </linearGradient>
    <linearGradient
       y2="138.66"
       x2="48"
       y1="20.221001"
       gradientUnits="userSpaceOnUse"
       x1="48"
       id="linearGradient3176"
       spreadMethod="pad">
      <stop
         offset="0"
         style="stop-color:#fff"
         id="stop3178" />
      <stop
         offset="1"
         style="stop-color:#00adef;stop-opacity:1"
         id="stop3180" />
    </linearGradient>
    <linearGradient
       y2="138.66"
       x2="48"
       y1="20.221001"
       gradientUnits="userSpaceOnUse"
       x1="48"
       id="linearGradient3170"
       spreadMethod="pad">
      <stop
         offset="0"
         style="stop-color:#fff"
         id="stop3172" />
      <stop
         offset="1"
         style="stop-color:#00adef;stop-opacity:1"
         id="stop3174" />
    </linearGradient>
    <linearGradient
       y2="138.66"
       x2="48"
       y1="20.221001"
       gradientUnits="userSpaceOnUse"
       x1="48"
       id="linearGradient3164"
       spreadMethod="pad">
      <stop
         offset="0"
         style="stop-color:#000000;stop-opacity:0"
         id="stop3166" />
      <stop
         offset="1"
         style="stop-color:#fff;stop-opacity:0"
         id="stop3168" />
    </linearGradient>
    <linearGradient
       y2="138.66"
       x2="48"
       y1="20.221001"
       gradientUnits="userSpaceOnUse"
       x1="48"
       id="linearGradient3158"
       spreadMethod="pad">
      <stop
         offset="0"
         style="stop-color:#00adef;stop-opacity:1"
         id="stop3160" />
      <stop
         offset="1"
         style="stop-color:#fff;stop-opacity:0"
         id="stop3162" />
    </linearGradient>
    <linearGradient
       y2="138.66"
       x2="48"
       y1="20.221"
       gradientUnits="userSpaceOnUse"
       x1="48"
       id="linearGradient3152">
      <stop
         offset="0"
         style="stop-color:#00adef;stop-opacity:1"
         id="stop3154" />
      <stop
         offset="1"
         style="stop-color:#fff;stop-opacity:0"
         id="stop3156" />
    </linearGradient>
    <linearGradient
       id="linearGradient3514"
       y2="-9.1034"
       gradientUnits="userSpaceOnUse"
       x2="66.492"
       gradientTransform="matrix(.96826 0 0 .97948 2.179 .16587)"
       y1="-42.638"
       x1="67.952">
      <stop
         id="stop4620"
         style="stop-color:#37414b"
         offset="0" />
      <stop
         id="stop4622"
         style="stop-color:#37414b;stop-opacity:0"
         offset="1" />
    </linearGradient>
    <linearGradient
       id="linearGradient3516"
       y2="-11.847"
       gradientUnits="userSpaceOnUse"
       x2="58.98"
       gradientTransform="matrix(.96826 0 0 .97948 2.179 .16587)"
       y1="-118.55"
       x1="57.173">
      <stop
         id="stop4596"
         offset="0" />
      <stop
         id="stop4598"
         style="stop-opacity:0"
         offset="1" />
    </linearGradient>
    <linearGradient
       id="linearGradient3519"
       y2="50.369"
       gradientUnits="userSpaceOnUse"
       x2="76.558"
       gradientTransform="matrix(.96826 0 0 .97948 3.2423 -129.19)"
       y1="13.164"
       x1="76.558">
      <stop
         id="stop3392"
         style="stop-color:#425e7b"
         offset="0" />
      <stop
         id="stop3394"
         style="stop-color:#7a91a7"
         offset="1" />
    </linearGradient>
    <linearGradient
       id="linearGradient3521"
       y2="-8.7399"
       gradientUnits="userSpaceOnUse"
       x2="60.217"
       gradientTransform="matrix(.96826 0 0 .97948 2.179 .16587)"
       y1="-123.72"
       x1="60.395">
      <stop
         id="stop3392-4-8"
         style="stop-color:#425e7b"
         offset="0" />
      <stop
         id="stop3394-8-0"
         style="stop-color:#7a91a7"
         offset="1" />
    </linearGradient>
    <radialGradient
       id="radialGradient3349"
       gradientUnits="userSpaceOnUse"
       cy="45.647"
       cx="42.148"
       gradientTransform="matrix(.0084350 1.8886 -1.5444 .0068980 113.65 -57.814)"
       r="58.984">
      <stop
         id="stop4855"
         style="stop-color:#ef0000;stop-opacity:1;"
         offset="0" />
      <stop
         id="stop4857"
         style="stop-color:#b90000;stop-opacity:0.60119045;"
         offset="1" />
    </radialGradient>
    <filter
       id="filter3174"
       color-interpolation-filters="sRGB">
      <feGaussianBlur
         id="feGaussianBlur3176"
         stdDeviation="1.71" />
    </filter>
    <linearGradient
       id="ButtonShadow-1"
       x1="45.448"
       gradientUnits="userSpaceOnUse"
       y1="92.54"
       gradientTransform="scale(1.0059 .99417)"
       x2="45.448"
       y2="7.0165">
      <stop
         id="stop3750-87"
         offset="0" />
      <stop
         id="stop3752-56"
         style="stop-opacity:.58824"
         offset="1" />
    </linearGradient>
    <filter
       id="filter3174-5"
       color-interpolation-filters="sRGB">
      <feGaussianBlur
         id="feGaussianBlur3176-70"
         stdDeviation="1.71" />
    </filter>
    <linearGradient
       id="linearGradient6303"
       y2="13.937"
       gradientUnits="userSpaceOnUse"
       x2="14.134"
       gradientTransform="matrix(1 0 0 1.4586 0 -3.23)"
       y1="45.621"
       x1="36.417">
      <stop
         id="stop6299"
         style="stop-color:#fff;stop-opacity:.25604"
         offset="0" />
      <stop
         id="stop6301"
         style="stop-color:#fff;stop-opacity:.38164"
         offset="1" />
    </linearGradient>
    <filter
       id="filter3174-2"
       color-interpolation-filters="sRGB">
      <feGaussianBlur
         id="feGaussianBlur3176-78"
         stdDeviation="1.71" />
    </filter>
    <filter
       id="filter3174-24"
       color-interpolation-filters="sRGB">
      <feGaussianBlur
         id="feGaussianBlur3176-0"
         stdDeviation="1.71" />
    </filter>
    <filter
       id="filter3174-8"
       color-interpolation-filters="sRGB">
      <feGaussianBlur
         id="feGaussianBlur3176-9"
         stdDeviation="1.71" />
    </filter>
    <linearGradient
       id="linearGradient7604"
       y2="7.0165"
       gradientUnits="userSpaceOnUse"
       x2="45.448"
       gradientTransform="matrix(1.0059 0 0 .99417 -189.19 -21.187)"
       y1="92.54"
       x1="45.448">
      <stop
         id="stop3750-3"
         offset="0" />
      <stop
         id="stop3752-7"
         style="stop-opacity:.58824"
         offset="1" />
    </linearGradient>
    <filter
       id="filter3174-0"
       color-interpolation-filters="sRGB">
      <feGaussianBlur
         id="feGaussianBlur3176-2"
         stdDeviation="1.71" />
    </filter>
    <clipPath
       id="clipPath3613-87">
      <rect
         id="rect3615-88"
         style="fill:#fff"
         rx="6"
         ry="6"
         height="84"
         width="84"
         y="6"
         x="6" />
    </clipPath>
    <linearGradient
       id="linearGradient3613-88"
       x1="48"
       gradientUnits="userSpaceOnUse"
       y1="20.221001"
       x2="48"
       y2="138.66"
       spreadMethod="pad"
       xlink:href="#linearGradient3962">
      <stop
         id="stop3739-29"
         style="stop-color:#fff"
         offset="0" />
      <stop
         id="stop3741-173"
         style="stop-color:#fff;stop-opacity:0"
         offset="1" />
    </linearGradient>
    <filter
       id="filter3794-67"
       height="1.384"
       width="1.384"
       color-interpolation-filters="sRGB"
       y="-.192"
       x="-.192">
      <feGaussianBlur
         id="feGaussianBlur3796-4"
         stdDeviation="5.28" />
    </filter>
    <filter
       id="filter3174-45"
       color-interpolation-filters="sRGB">
      <feGaussianBlur
         id="feGaussianBlur3176-6"
         stdDeviation="1.71" />
    </filter>
    <linearGradient
       inkscape:collect="always"
       xlink:href="#ButtonShadow-1"
       id="linearGradient3060"
       gradientUnits="userSpaceOnUse"
       gradientTransform="scale(1.0059,0.99417)"
       x1="45.448"
       y1="92.54"
       x2="45.448"
       y2="7.0165" />
    <radialGradient
       r="8"
       fy="32"
       fx="32"
       cy="32"
       cx="32"
       gradientUnits="userSpaceOnUse"
       id="radialGradient6174-9"
       xlink:href="#linearGradient4215-8-5"
       inkscape:collect="always" />
    <linearGradient
       id="linearGradient4215-8-5">
      <stop
         offset="0"
         style="stop-color:#ffb800;stop-opacity:1"
         id="stop4217-4-2" />
      <stop
         offset="1"
         style="stop-color:#ffb800;stop-opacity:0"
         id="stop4219-3-4" />
    </linearGradient>
    <radialGradient
       inkscape:collect="always"
       xlink:href="#linearGradient4223-6-4"
       id="radialGradient6201"
       gradientUnits="userSpaceOnUse"
       cx="29.094891"
       cy="31.601685"
       fx="29.094891"
       fy="31.601685"
       r="7.2449093" />
    <linearGradient
       id="linearGradient4223-6-4">
      <stop
         offset="0"
         style="stop-color:#ffe375;stop-opacity:1"
         id="stop4225-4-6" />
      <stop
         offset="1"
         style="stop-color:#ffa600;stop-opacity:1"
         id="stop4227-8-6" />
    </linearGradient>
    <radialGradient
       r="8"
       fy="32"
       fx="32"
       cy="32"
       cx="32"
       gradientUnits="userSpaceOnUse"
       id="radialGradient6246"
       xlink:href="#linearGradient4215-8-5"
       inkscape:collect="always" />
    <linearGradient
       id="linearGradient3095">
      <stop
         offset="0"
         style="stop-color:#ffb800;stop-opacity:1"
         id="stop3097" />
      <stop
         offset="1"
         style="stop-color:#ffb800;stop-opacity:0"
         id="stop3099" />
    </linearGradient>
    <radialGradient
       r="7.2449093"
       fy="31.601685"
       fx="29.094891"
       cy="31.601685"
       cx="29.094891"
       gradientUnits="userSpaceOnUse"
       id="radialGradient6248"
       xlink:href="#linearGradient4223-6-4"
       inkscape:collect="always" />
    <linearGradient
       id="linearGradient3102">
      <stop
         offset="0"
         style="stop-color:#ffe375;stop-opacity:1"
         id="stop3104" />
      <stop
         offset="1"
         style="stop-color:#ffa600;stop-opacity:1"
         id="stop3106" />
    </linearGradient>
    <radialGradient
       r="8"
       fy="32"
       fx="32"
       cy="32"
       cx="32"
       gradientUnits="userSpaceOnUse"
       id="radialGradient6260"
       xlink:href="#linearGradient4215-8-5"
       inkscape:collect="always" />
    <linearGradient
       id="linearGradient3109">
      <stop
         offset="0"
         style="stop-color:#ffb800;stop-opacity:1"
         id="stop3111" />
      <stop
         offset="1"
         style="stop-color:#ffb800;stop-opacity:0"
         id="stop3113" />
    </linearGradient>
    <radialGradient
       r="7.2449093"
       fy="31.601685"
       fx="29.094891"
       cy="31.601685"
       cx="29.094891"
       gradientUnits="userSpaceOnUse"
       id="radialGradient6262"
       xlink:href="#linearGradient4223-6-4"
       inkscape:collect="always" />
    <linearGradient
       id="linearGradient3116">
      <stop
         offset="0"
         style="stop-color:#ffe375;stop-opacity:1"
         id="stop3118" />
      <stop
         offset="1"
         style="stop-color:#ffa600;stop-opacity:1"
         id="stop3120" />
    </linearGradient>
    <radialGradient
       r="8"
       fy="32"
       fx="32"
       cy="32"
       cx="32"
       gradientUnits="userSpaceOnUse"
       id="radialGradient7070"
       xlink:href="#linearGradient4215-8-5"
       inkscape:collect="always" />
    <linearGradient
       id="linearGradient3123">
      <stop
         offset="0"
         style="stop-color:#ffb800;stop-opacity:1"
         id="stop3125" />
      <stop
         offset="1"
         style="stop-color:#ffb800;stop-opacity:0"
         id="stop3127" />
    </linearGradient>
    <radialGradient
       r="7.2449093"
       fy="31.601685"
       fx="29.094891"
       cy="31.601685"
       cx="29.094891"
       gradientUnits="userSpaceOnUse"
       id="radialGradient7072"
       xlink:href="#linearGradient4223-6-4"
       inkscape:collect="always" />
    <linearGradient
       id="linearGradient3130">
      <stop
         offset="0"
         style="stop-color:#ffe375;stop-opacity:1"
         id="stop3132" />
      <stop
         offset="1"
         style="stop-color:#ffa600;stop-opacity:1"
         id="stop3134" />
    </linearGradient>
    <radialGradient
       r="8"
       fy="32"
       fx="32"
       cy="32"
       cx="32"
       gradientUnits="userSpaceOnUse"
       id="radialGradient7084"
       xlink:href="#linearGradient4215-8-5"
       inkscape:collect="always" />
    <linearGradient
       id="linearGradient3137">
      <stop
         offset="0"
         style="stop-color:#ffb800;stop-opacity:1"
         id="stop3139" />
      <stop
         offset="1"
         style="stop-color:#ffb800;stop-opacity:0"
         id="stop3141" />
    </linearGradient>
    <radialGradient
       r="7.2449093"
       fy="31.601685"
       fx="29.094891"
       cy="31.601685"
       cx="29.094891"
       gradientUnits="userSpaceOnUse"
       id="radialGradient7086"
       xlink:href="#linearGradient4223-6-4"
       inkscape:collect="always" />
    <linearGradient
       id="linearGradient3144">
      <stop
         offset="0"
         style="stop-color:#ffe375;stop-opacity:1"
         id="stop3146" />
      <stop
         offset="1"
         style="stop-color:#ffa600;stop-opacity:1"
         id="stop3148" />
    </linearGradient>
    <radialGradient
       r="8"
       fy="32"
       fx="32"
       cy="32"
       cx="32"
       gradientUnits="userSpaceOnUse"
       id="radialGradient7098"
       xlink:href="#linearGradient4215-8-5"
       inkscape:collect="always" />
    <linearGradient
       id="linearGradient3151">
      <stop
         offset="0"
         style="stop-color:#ffb800;stop-opacity:1"
         id="stop3153" />
      <stop
         offset="1"
         style="stop-color:#ffb800;stop-opacity:0"
         id="stop3155" />
    </linearGradient>
    <radialGradient
       r="7.2449093"
       fy="31.601685"
       fx="29.094891"
       cy="31.601685"
       cx="29.094891"
       gradientUnits="userSpaceOnUse"
       id="radialGradient7100"
       xlink:href="#linearGradient4223-6-4"
       inkscape:collect="always" />
    <linearGradient
       id="linearGradient3158-5">
      <stop
         offset="0"
         style="stop-color:#ffe375;stop-opacity:1"
         id="stop3160-3" />
      <stop
         offset="1"
         style="stop-color:#ffa600;stop-opacity:1"
         id="stop3162-7" />
    </linearGradient>
  </defs>
  <rect
     id="rect892"
     style="stroke:url(#linearGradient3521);stroke-width:.97385;fill:url(#linearGradient3519)"
     transform="scale(1,-1)"
     ry="29.296"
     height="115.54"
     width="114.22"
     y="-122.25"
     x="7.0394" />
  <rect
     id="rect892-2"
     style="stroke:url(#linearGradient3516);stroke-width:.97385;fill:url(#linearGradient3514)"
     transform="scale(1,-1)"
     ry="28.993"
     height="114.35"
     width="114.22"
     y="-121.46"
     x="7.0599" />
  <path
     id="rect895"
     style="fill:url(#radialGradient3349)"
     d="m33.051 7.2596c-7.969-2.4493-27.013 15.174-25.653 23.038-0.050142 0.97378-0.088772 1.9648-0.088772 2.9572v52.419c0 20.876 10.712 33.859 22.318 33.859h67.038c12.638 0 24.318-11.245 24.318-25.859v-64.017c0.7-10.928-21.283-24.659-25.926-22.618-47.846 0.8653-18.017 0.2236-62.003 0.2236z" />
  <path
     id="path1187"
     style="opacity:.68238;fill:url(#linearGradient6303)"
     d="m36.537 7.6204c-8.869 0.7824-26.296 4.9186-29.527 41.221v47.783c18.67-55.894 33.784-75.414 85.818-89.536-0.225-0.0381-0.46-0.0444-0.691-0.0444-41.576 0.5651-17.576 0.5768-55.6 0.5768z" />
  <rect
     id="rect892-2-7-8"
     style="opacity:.15891;stroke:#000;stroke-width:4.8445;fill:none"
     transform="scale(1,-1)"
     ry="28.993"
     height="114.35"
     width="114.22"
     y="-121.16"
     x="6.8687" />
  <rect
     id="rect892-2-7-1"
     style="opacity:.15891;stroke:#000;stroke-width:7.7512;fill:none"
     transform="scale(1,-1)"
     ry="28.993"
     height="114.35"
     width="114.22"
     y="-121.16"
     x="6.8687" />
  <g
     id="layer2"
     style="display:none"
     transform="matrix(1.44 0 0 1.44 -4.952 -6.9671)">
    <rect
       id="rect3745"
       style="opacity:.9;filter:url(#filter3174);fill:url(#ButtonShadow-1)"
       rx="6"
       ry="6"
       height="85"
       width="86"
       y="7"
       x="5" />
  </g>
  <g
     id="layer2-1"
     style="display:none"
     transform="translate(183.21 82.968)">
    <rect
       id="rect3745-9"
       style="opacity:.9;filter:url(#filter3174-5);fill:url(#ButtonShadow-1)"
       rx="6"
       ry="6"
       height="85"
       width="86"
       y="7"
       x="5" />
  </g>
  <g
     id="layer2-2"
     style="display:none"
     transform="translate(52.694 146.84)">
    <path
       id="rect3745-94"
       style="opacity:.9;filter:url(#filter3174-2);fill:url(#ButtonShadow-1)"
       d="m11 7c-3.324 0-6 2.676-6 6v73c0 3.324 2.676 6 6 6h74c3.324 0 6-2.676 6-6v-73c0-3.324-2.676-6-6-6h-74zm-1 4h6v4h-6v-4zm70 0h6v4h-6v-4zm-70 8h6v4h-6v-4zm70 0h6v4h-6v-4zm-70 8h6v4h-6v-4zm70 0h6v4h-6v-4zm-70 8h6v4h-6v-4zm70 0h6v4h-6v-4zm-70 8h6v4h-6v-4zm70 0h6v4h-6v-4zm-70 8h6v4h-6v-4zm70 0h6v4h-6v-4zm-70 8h6v4h-6v-4zm70 0h6v4h-6v-4zm-70 8h6v4h-6v-4zm70 0h6v4h-6v-4zm-70 8h6v4h-6v-4zm70 0h6v4h-6v-4zm-70 8h6v4h-6v-4zm70 0h6v4h-6v-4z" />
  </g>
  <rect
     id="rect892-2-7-2-9"
     ry="28.067"
     style="stroke:#000;stroke-width:1.0489;fill:none"
     transform="scale(1,-1)"
     height="112.71"
     width="114.14"
     y="-120.31"
     x="7.0649" />
  <g
     id="layer2-20"
     style="display:none"
     transform="translate(-287.93 37.655)">
    <rect
       id="rect3745-8"
       style="opacity:.9;filter:url(#filter3174-24);fill:url(#ButtonShadow-1)"
       rx="6"
       ry="6"
       height="85"
       width="86"
       y="7"
       x="5" />
  </g>
  <rect
     id="rect3745-7"
     style="opacity:.9;filter:url(#filter3174-8);display:none;fill:url(#linearGradient7604)"
     rx="6"
     ry="6"
     height="85"
     width="86"
     y="-14.187"
     x="-184.19" />
  <g
     id="layer2-0"
     style="display:none"
     transform="translate(218.22 18.71)">
    <rect
       id="rect3745-6"
       style="opacity:.9;filter:url(#filter3174-0);fill:url(#ButtonShadow-1)"
       rx="6"
       ry="6"
       height="85"
       width="86"
       y="7"
       x="5" />
  </g>
  <g
     style="display:none"
     id="layer2-3"
     transform="matrix(1.3904,0,0,1.3904,-2.7373,-4.128)">
    <rect
       x="5"
       y="7"
       width="86"
       height="85"
       ry="6"
       rx="6"
       style="opacity:0.9;fill:url(#linearGradient3060);filter:url(#filter3174-45)"
       id="rect3745-1" />
  </g>
  <g
     id="layer5-30"
     transform="matrix(1.3904,0,0,1.3904,-2.7373,-4.128)" />
  <g
     id="g7203"
     transform="matrix(0.20945934,0,0,0.20945934,6.6707667,8.9544254)">
    <g
       style="fill:#ffcc00;display:inline;enable-background:new"
       id="g4387-8-0"
       transform="matrix(3.3718021,0,0,3.3718021,-10.855104,270.01062)">
      <path
         style="color:#000000;fill:url(#radialGradient6174-9);fill-opacity:1;fill-rule:nonzero;stroke:none;stroke-width:1;marker:none;visibility:visible;display:inline;overflow:visible;enable-background:accumulate"
         id="path4389-8-0"
         transform="translate(-1,-1)"
         d="m 40,32 a 8,8 0 1 1 -16,0 8,8 0 1 1 16,0 z"
         inkscape:connector-curvature="0" />
      <path
         style="opacity:0.1;color:#000000;fill:#ffcc00;fill-opacity:1;fill-rule:nonzero;stroke:none;stroke-width:1;marker:none;visibility:visible;display:inline;overflow:visible;enable-background:accumulate"
         id="path4391-8-6"
         transform="matrix(0.8660254,0.5,-0.5,0.8660254,21.657457,-10.861778)"
         inkscape:connector-curvature="0"
         d="m 23.90625,22.633975 2.383468,8.216066 -6.186993,5.931209 8.186993,-2.467107 5.991532,6.270632 -2.52743,-8.270632 6.330955,-5.907893 -8.330955,2.443791 -5.84757,-6.216066 z" />
      <path
         style="opacity:0.2;color:#000000;fill:#ffcc00;fill-opacity:1;fill-rule:nonzero;stroke:none;stroke-width:1;marker:none;visibility:visible;display:inline;overflow:visible;enable-background:accumulate"
         id="path4393-3-5"
         transform="matrix(0.8660254,0.5,-0.5,0.8660254,21.657457,-10.861778)"
         inkscape:connector-curvature="0"
         d="m 33.777741,39.712619 -5.216804,-6.034048 -7.576981,2.605964 6.074408,-5.15034 -2.646323,-7.643445 5.163457,6.064847 7.630327,-2.636762 -6.025795,5.354295 2.597711,7.439489 z" />
      <path
         style="color:#000000;fill:url(#radialGradient6201);fill-opacity:1;fill-rule:nonzero;stroke:none;stroke-width:1;marker:none;visibility:visible;display:inline;overflow:visible;enable-background:accumulate"
         id="path4395-4-4"
         transform="matrix(0.8660254,0.5,-0.5,0.8660254,21.657457,-10.861778)"
         d="m 33.277741,38.846594 -4.529283,-5.952006 -6.898477,2.889947 5.952006,-4.529283 -2.889946,-6.898477 4.529282,5.952006 6.898477,-2.889946 -5.952006,4.529282 z"
         inkscape:connector-curvature="0" />
    </g>
    <g
       transform="matrix(6.7436041,0,0,6.7436041,209.10793,-64.43479)"
       id="g6236"
       style="fill:#ffcc00;display:inline;enable-background:new">
      <path
         inkscape:connector-curvature="0"
         d="m 40,32 a 8,8 0 1 1 -16,0 8,8 0 1 1 16,0 z"
         transform="translate(-1,-1)"
         id="path6238"
         style="color:#000000;fill:url(#radialGradient6246);fill-opacity:1;fill-rule:nonzero;stroke:none;stroke-width:1;marker:none;visibility:visible;display:inline;overflow:visible;enable-background:accumulate" />
      <path
         d="m 23.90625,22.633975 2.383468,8.216066 -6.186993,5.931209 8.186993,-2.467107 5.991532,6.270632 -2.52743,-8.270632 6.330955,-5.907893 -8.330955,2.443791 -5.84757,-6.216066 z"
         inkscape:connector-curvature="0"
         transform="matrix(0.8660254,0.5,-0.5,0.8660254,21.657457,-10.861778)"
         id="path6240"
         style="opacity:0.1;color:#000000;fill:#ffcc00;fill-opacity:1;fill-rule:nonzero;stroke:none;stroke-width:1;marker:none;visibility:visible;display:inline;overflow:visible;enable-background:accumulate" />
      <path
         d="m 33.777741,39.712619 -5.216804,-6.034048 -7.576981,2.605964 6.074408,-5.15034 -2.646323,-7.643445 5.163457,6.064847 7.630327,-2.636762 -6.025795,5.354295 2.597711,7.439489 z"
         inkscape:connector-curvature="0"
         transform="matrix(0.8660254,0.5,-0.5,0.8660254,21.657457,-10.861778)"
         id="path6242"
         style="opacity:0.2;color:#000000;fill:#ffcc00;fill-opacity:1;fill-rule:nonzero;stroke:none;stroke-width:1;marker:none;visibility:visible;display:inline;overflow:visible;enable-background:accumulate" />
      <path
         inkscape:connector-curvature="0"
         d="m 33.277741,38.846594 -4.529283,-5.952006 -6.898477,2.889947 5.952006,-4.529283 -2.889946,-6.898477 4.529282,5.952006 6.898477,-2.889946 -5.952006,4.529282 z"
         transform="matrix(0.8660254,0.5,-0.5,0.8660254,21.657457,-10.861778)"
         id="path6244"
         style="color:#000000;fill:url(#radialGradient6248);fill-opacity:1;fill-rule:nonzero;stroke:none;stroke-width:1;marker:none;visibility:visible;display:inline;overflow:visible;enable-background:accumulate" />
    </g>
    <g
       style="fill:#ffcc00;display:inline;enable-background:new"
       id="g6250"
       transform="matrix(9.6337202,0,0,9.6337202,51.971966,79.185252)">
      <path
         style="color:#000000;fill:url(#radialGradient6260);fill-opacity:1;fill-rule:nonzero;stroke:none;stroke-width:1;marker:none;visibility:visible;display:inline;overflow:visible;enable-background:accumulate"
         id="path6252"
         transform="translate(-1,-1)"
         d="m 40,32 a 8,8 0 1 1 -16,0 8,8 0 1 1 16,0 z"
         inkscape:connector-curvature="0" />
      <path
         style="opacity:0.1;color:#000000;fill:#ffcc00;fill-opacity:1;fill-rule:nonzero;stroke:none;stroke-width:1;marker:none;visibility:visible;display:inline;overflow:visible;enable-background:accumulate"
         id="path6254"
         transform="matrix(0.8660254,0.5,-0.5,0.8660254,21.657457,-10.861778)"
         inkscape:connector-curvature="0"
         d="m 23.90625,22.633975 2.383468,8.216066 -6.186993,5.931209 8.186993,-2.467107 5.991532,6.270632 -2.52743,-8.270632 6.330955,-5.907893 -8.330955,2.443791 -5.84757,-6.216066 z" />
      <path
         style="opacity:0.2;color:#000000;fill:#ffcc00;fill-opacity:1;fill-rule:nonzero;stroke:none;stroke-width:1;marker:none;visibility:visible;display:inline;overflow:visible;enable-background:accumulate"
         id="path6256"
         transform="matrix(0.8660254,0.5,-0.5,0.8660254,21.657457,-10.861778)"
         inkscape:connector-curvature="0"
         d="m 33.777741,39.712619 -5.216804,-6.034048 -7.576981,2.605964 6.074408,-5.15034 -2.646323,-7.643445 5.163457,6.064847 7.630327,-2.636762 -6.025795,5.354295 2.597711,7.439489 z" />
      <path
         style="color:#000000;fill:url(#radialGradient6262);fill-opacity:1;fill-rule:nonzero;stroke:none;stroke-width:1;marker:none;visibility:visible;display:inline;overflow:visible;enable-background:accumulate"
         id="path6258"
         transform="matrix(0.8660254,0.5,-0.5,0.8660254,21.657457,-10.861778)"
         d="m 33.277741,38.846594 -4.529283,-5.952006 -6.898477,2.889947 5.952006,-4.529283 -2.889946,-6.898477 4.529282,5.952006 6.898477,-2.889946 -5.952006,4.529282 z"
         inkscape:connector-curvature="0" />
    </g>
    <g
       transform="matrix(3.3718021,0,0,3.3718021,260.1127,136.22027)"
       id="g7060"
       style="fill:#ffcc00;display:inline;enable-background:new">
      <path
         inkscape:connector-curvature="0"
         d="m 40,32 a 8,8 0 1 1 -16,0 8,8 0 1 1 16,0 z"
         transform="translate(-1,-1)"
         id="path7062"
         style="color:#000000;fill:url(#radialGradient7070);fill-opacity:1;fill-rule:nonzero;stroke:none;stroke-width:1;marker:none;visibility:visible;display:inline;overflow:visible;enable-background:accumulate" />
      <path
         d="m 23.90625,22.633975 2.383468,8.216066 -6.186993,5.931209 8.186993,-2.467107 5.991532,6.270632 -2.52743,-8.270632 6.330955,-5.907893 -8.330955,2.443791 -5.84757,-6.216066 z"
         inkscape:connector-curvature="0"
         transform="matrix(0.8660254,0.5,-0.5,0.8660254,21.657457,-10.861778)"
         id="path7064"
         style="opacity:0.1;color:#000000;fill:#ffcc00;fill-opacity:1;fill-rule:nonzero;stroke:none;stroke-width:1;marker:none;visibility:visible;display:inline;overflow:visible;enable-background:accumulate" />
      <path
         d="m 33.777741,39.712619 -5.216804,-6.034048 -7.576981,2.605964 6.074408,-5.15034 -2.646323,-7.643445 5.163457,6.064847 7.630327,-2.636762 -6.025795,5.354295 2.597711,7.439489 z"
         inkscape:connector-curvature="0"
         transform="matrix(0.8660254,0.5,-0.5,0.8660254,21.657457,-10.861778)"
         id="path7066"
         style="opacity:0.2;color:#000000;fill:#ffcc00;fill-opacity:1;fill-rule:nonzero;stroke:none;stroke-width:1;marker:none;visibility:visible;display:inline;overflow:visible;enable-background:accumulate" />
      <path
         inkscape:connector-curvature="0"
         d="m 33.277741,38.846594 -4.529283,-5.952006 -6.898477,2.889947 5.952006,-4.529283 -2.889946,-6.898477 4.529282,5.952006 6.898477,-2.889946 -5.952006,4.529282 z"
         transform="matrix(0.8660254,0.5,-0.5,0.8660254,21.657457,-10.861778)"
         id="path7068"
         style="color:#000000;fill:url(#radialGradient7072);fill-opacity:1;fill-rule:nonzero;stroke:none;stroke-width:1;marker:none;visibility:visible;display:inline;overflow:visible;enable-background:accumulate" />
    </g>
    <g
       style="fill:#ffcc00;display:inline;enable-background:new"
       id="g7074"
       transform="matrix(4.8168601,0,0,4.8168601,81.201949,-52.352831)">
      <path
         style="color:#000000;fill:url(#radialGradient7084);fill-opacity:1;fill-rule:nonzero;stroke:none;stroke-width:1;marker:none;visibility:visible;display:inline;overflow:visible;enable-background:accumulate"
         id="path7076"
         transform="translate(-1,-1)"
         d="m 40,32 a 8,8 0 1 1 -16,0 8,8 0 1 1 16,0 z"
         inkscape:connector-curvature="0" />
      <path
         style="opacity:0.1;color:#000000;fill:#ffcc00;fill-opacity:1;fill-rule:nonzero;stroke:none;stroke-width:1;marker:none;visibility:visible;display:inline;overflow:visible;enable-background:accumulate"
         id="path7078"
         transform="matrix(0.8660254,0.5,-0.5,0.8660254,21.657457,-10.861778)"
         inkscape:connector-curvature="0"
         d="m 23.90625,22.633975 2.383468,8.216066 -6.186993,5.931209 8.186993,-2.467107 5.991532,6.270632 -2.52743,-8.270632 6.330955,-5.907893 -8.330955,2.443791 -5.84757,-6.216066 z" />
      <path
         style="opacity:0.2;color:#000000;fill:#ffcc00;fill-opacity:1;fill-rule:nonzero;stroke:none;stroke-width:1;marker:none;visibility:visible;display:inline;overflow:visible;enable-background:accumulate"
         id="path7080"
         transform="matrix(0.8660254,0.5,-0.5,0.8660254,21.657457,-10.861778)"
         inkscape:connector-curvature="0"
         d="m 33.777741,39.712619 -5.216804,-6.034048 -7.576981,2.605964 6.074408,-5.15034 -2.646323,-7.643445 5.163457,6.064847 7.630327,-2.636762 -6.025795,5.354295 2.597711,7.439489 z" />
      <path
         style="color:#000000;fill:url(#radialGradient7086);fill-opacity:1;fill-rule:nonzero;stroke:none;stroke-width:1;marker:none;visibility:visible;display:inline;overflow:visible;enable-background:accumulate"
         id="path7082"
         transform="matrix(0.8660254,0.5,-0.5,0.8660254,21.657457,-10.861778)"
         d="m 33.277741,38.846594 -4.529283,-5.952006 -6.898477,2.889947 5.952006,-4.529283 -2.889946,-6.898477 4.529282,5.952006 6.898477,-2.889946 -5.952006,4.529282 z"
         inkscape:connector-curvature="0" />
    </g>
    <g
       transform="matrix(7.7069761,0,0,7.7069761,-93.71628,-58.611853)"
       id="g7088"
       style="fill:#ffcc00;display:inline;enable-background:new">
      <path
         inkscape:connector-curvature="0"
         d="m 40,32 a 8,8 0 1 1 -16,0 8,8 0 1 1 16,0 z"
         transform="translate(-1,-1)"
         id="path7090"
         style="color:#000000;fill:url(#radialGradient7098);fill-opacity:1;fill-rule:nonzero;stroke:none;stroke-width:1;marker:none;visibility:visible;display:inline;overflow:visible;enable-background:accumulate" />
      <path
         d="m 23.90625,22.633975 2.383468,8.216066 -6.186993,5.931209 8.186993,-2.467107 5.991532,6.270632 -2.52743,-8.270632 6.330955,-5.907893 -8.330955,2.443791 -5.84757,-6.216066 z"
         inkscape:connector-curvature="0"
         transform="matrix(0.8660254,0.5,-0.5,0.8660254,21.657457,-10.861778)"
         id="path7092"
         style="opacity:0.1;color:#000000;fill:#ffcc00;fill-opacity:1;fill-rule:nonzero;stroke:none;stroke-width:1;marker:none;visibility:visible;display:inline;overflow:visible;enable-background:accumulate" />
      <path
         d="m 33.777741,39.712619 -5.216804,-6.034048 -7.576981,2.605964 6.074408,-5.15034 -2.646323,-7.643445 5.163457,6.064847 7.630327,-2.636762 -6.025795,5.354295 2.597711,7.439489 z"
         inkscape:connector-curvature="0"
         transform="matrix(0.8660254,0.5,-0.5,0.8660254,21.657457,-10.861778)"
         id="path7094"
         style="opacity:0.2;color:#000000;fill:#ffcc00;fill-opacity:1;fill-rule:nonzero;stroke:none;stroke-width:1;marker:none;visibility:visible;display:inline;overflow:visible;enable-background:accumulate" />
      <path
         inkscape:connector-curvature="0"
         d="m 33.277741,38.846594 -4.529283,-5.952006 -6.898477,2.889947 5.952006,-4.529283 -2.889946,-6.898477 4.529282,5.952006 6.898477,-2.889946 -5.952006,4.529282 z"
         transform="matrix(0.8660254,0.5,-0.5,0.8660254,21.657457,-10.861778)"
         id="path7096"
         style="color:#000000;fill:url(#radialGradient7100);fill-opacity:1;fill-rule:nonzero;stroke:none;stroke-width:1;marker:none;visibility:visible;display:inline;overflow:visible;enable-background:accumulate" />
    </g>
    <g
       id="g14055">
      <path
         id="rect4866"
         d="m 340.46378,-102.74451 21.51096,0 c 4.87516,0 8.79993,3.924771 8.79993,8.799932 l 0,376.636928 c 0,4.87516 -3.92477,8.79993 -8.79993,8.79993 l -21.51096,0 c -4.87516,0 -8.79993,-3.92477 -8.79993,-8.79993 l 0,-376.636928 c 0,-4.875161 3.92477,-8.799932 8.79993,-8.799932 z"
         style="fill:#1a1a1a;fill-rule:evenodd;stroke:none"
         transform="matrix(0.86698684,0.49833104,-0.51384565,0.85788266,0,0)"
         inkscape:connector-curvature="0" />
      <path
         id="rect5636"
         d="m 342.9375,80.34375 c -2.83981,0.187885 -5.55932,1.729803 -7.125,4.34375 l -3.125,5.21875 -20.96875,35.03125 -4.625,7.71875 33.90625,19.5 4.59375,-7.6875 0.0312,-0.0312 21,-35.0625 3.09375,-5.1875 c 2.50513,-4.18237 1.133,-9.508106 -3.0937,-11.93755 L 347.96875,81.53125 c -1.58501,-0.911041 -3.32736,-1.300231 -5.03125,-1.1875 z"
         style="fill:#ebebeb;fill-opacity:1;fill-rule:evenodd;stroke:none"
         inkscape:connector-curvature="0" />
      <path
         id="rect5640"
         d="M 170.9375,359.96875 166.5,367.375 c -0.0405,0.064 -0.0859,0.12215 -0.125,0.1875 L 155.96875,384.9375 145,403.25 l -2.71875,4.5625 c -2.50508,4.18232 -1.13295,9.50806 3.09375,11.9375 l 18.65625,10.71875 c 4.2267,2.42944 9.65117,1.02607 12.15625,-3.15625 l 2.75,-4.59375 21.34375,-35.65625 4.5625,-7.59375 -33.90625,-19.5 z"
         style="fill:#ebebeb;fill-opacity:1;fill-rule:evenodd;stroke:none"
         inkscape:connector-curvature="0" />
    </g>
  </g>
</svg>
