<?xml version="1.0" encoding="UTF-8" standalone="no"?>
<!-- Created with Inkscape (http://www.inkscape.org/) -->
<svg id="svg3449" xmlns:rdf="http://www.w3.org/1999/02/22-rdf-syntax-ns#" xmlns="http://www.w3.org/2000/svg" height="128" width="128" version="1.0" xmlns:cc="http://creativecommons.org/ns#" xmlns:xlink="http://www.w3.org/1999/xlink" xmlns:dc="http://purl.org/dc/elements/1.1/">
 <metadata id="metadata56">
  <rdf:RDF>
   <cc:Work rdf:about="">
    <dc:format>image/svg+xml</dc:format>
    <dc:type rdf:resource="http://purl.org/dc/dcmitype/StillImage"/>
    <dc:title/>
   </cc:Work>
  </rdf:RDF>
 </metadata>
 <defs id="defs3451">
  <linearGradient id="linearGradient3514" y2="-9.1034" gradientUnits="userSpaceOnUse" x2="66.492" gradientTransform="matrix(.96826 0 0 .97948 2.179 .16587)" y1="-42.638" x1="67.952">
   <stop id="stop4620" style="stop-color:#37414b" offset="0"/>
   <stop id="stop4622" style="stop-color:#37414b;stop-opacity:0" offset="1"/>
  </linearGradient>
  <linearGradient id="linearGradient3516" y2="-11.847" gradientUnits="userSpaceOnUse" x2="58.98" gradientTransform="matrix(.96826 0 0 .97948 2.179 .16587)" y1="-118.55" x1="57.173">
   <stop id="stop4596" offset="0"/>
   <stop id="stop4598" style="stop-opacity:0" offset="1"/>
  </linearGradient>
  <linearGradient id="linearGradient3519" y2="50.369" gradientUnits="userSpaceOnUse" x2="76.558" gradientTransform="matrix(.96826 0 0 .97948 3.2423 -129.19)" y1="13.164" x1="76.558">
   <stop id="stop3392" style="stop-color:#425e7b" offset="0"/>
   <stop id="stop3394" style="stop-color:#7a91a7" offset="1"/>
  </linearGradient>
  <linearGradient id="linearGradient3521" y2="-8.7399" gradientUnits="userSpaceOnUse" x2="60.217" gradientTransform="matrix(.96826 0 0 .97948 2.179 .16587)" y1="-123.72" x1="60.395">
   <stop id="stop3392-4-8" style="stop-color:#425e7b" offset="0"/>
   <stop id="stop3394-8-0" style="stop-color:#7a91a7" offset="1"/>
  </linearGradient>
  <radialGradient id="radialGradient3349" gradientUnits="userSpaceOnUse" cy="45.647" cx="42.148" gradientTransform="matrix(.94690 0 0 1.139 3.5954 -29.89)" r="58.984">
   <stop id="stop2699-5" style="stop-color:#86b3e0" offset="0"/>
   <stop id="stop2701-7" style="stop-color:#649ad6" offset="1"/>
  </radialGradient>
  <clipPath id="clipPath3613">
   <rect id="rect3615" style="fill:#fff" rx="6" ry="6" height="84" width="84" y="6" x="6"/>
  </clipPath>
  <linearGradient id="linearGradient3613" x1="48" gradientUnits="userSpaceOnUse" y1="20.221" x2="48" y2="138.66">
   <stop id="stop3739-0" style="stop-color:#fff" offset="0"/>
   <stop id="stop3741-0" style="stop-color:#fff;stop-opacity:0" offset="1"/>
  </linearGradient>
  <filter id="filter3794" height="1.384" width="1.384" color-interpolation-filters="sRGB" y="-.192" x="-.192">
   <feGaussianBlur id="feGaussianBlur3796" stdDeviation="5.28"/>
  </filter>
  <filter id="filter3174" color-interpolation-filters="sRGB">
   <feGaussianBlur id="feGaussianBlur3176" stdDeviation="1.71"/>
  </filter>
  <linearGradient id="ButtonShadow-4" x1="45.448" gradientUnits="userSpaceOnUse" y1="92.54" gradientTransform="scale(1.0059 .99417)" x2="45.448" y2="7.0165">
   <stop id="stop3750-6" offset="0"/>
   <stop id="stop3752-4" style="stop-opacity:.58824" offset="1"/>
  </linearGradient>
  <filter id="filter3174-0" color-interpolation-filters="sRGB">
   <feGaussianBlur id="feGaussianBlur3176-8" stdDeviation="1.71"/>
  </filter>
  <filter id="filter3174-7" color-interpolation-filters="sRGB">
   <feGaussianBlur id="feGaussianBlur3176-86" stdDeviation="1.71"/>
  </filter>
  <filter id="filter3174-4" color-interpolation-filters="sRGB">
   <feGaussianBlur id="feGaussianBlur3176-2" stdDeviation="1.71"/>
  </filter>
  <linearGradient id="linearGradient6793">
   <stop id="stop6795" style="stop-color:#fff" offset="0"/>
   <stop id="stop6797" style="stop-color:#f6f6f6" offset="1"/>
  </linearGradient>
  <filter id="filter3383" color-interpolation-filters="sRGB">
   <feBlend id="feBlend3385" in2="BackgroundImage" mode="multiply"/>
  </filter>
  <filter id="filter3985" height="1.3108" width="1.1436" color-interpolation-filters="sRGB" y="-.15539" x="-.071801">
   <feGaussianBlur id="feGaussianBlur3987" stdDeviation="6.7803529"/>
  </filter>
  <filter id="filter3989" color-interpolation-filters="sRGB">
   <feGaussianBlur id="feGaussianBlur3991" stdDeviation="6.7803529"/>
  </filter>
  <filter id="filter3993" height="1.1447" width="1.2982" color-interpolation-filters="sRGB" y="-.072374" x="-.14909">
   <feGaussianBlur id="feGaussianBlur3995" stdDeviation="6.7803529"/>
  </filter>
  <filter id="filter3997" height="1.2208" width="1.1631" color-interpolation-filters="sRGB" y="-.11038" x="-.081571">
   <feGaussianBlur id="feGaussianBlur3999" stdDeviation="6.7803529"/>
  </filter>
  <filter id="filter4001" height="1.2573" width="1.1499" color-interpolation-filters="sRGB" y="-.12866" x="-.074929">
   <feGaussianBlur id="feGaussianBlur4003" stdDeviation="6.7803529"/>
  </filter>
  <filter id="filter4005" height="1.1529" width="1.2447" color-interpolation-filters="sRGB" y="-.076451" x="-.12233">
   <feGaussianBlur id="feGaussianBlur4007" stdDeviation="6.7803529"/>
  </filter>
  <filter id="filter4009" height="1.1597" width="1.2245" color-interpolation-filters="sRGB" y="-.079874" x="-.11224">
   <feGaussianBlur id="feGaussianBlur4011" stdDeviation="6.7803529"/>
  </filter>
  <filter id="filter3174-9" color-interpolation-filters="sRGB">
   <feGaussianBlur id="feGaussianBlur3176-4" stdDeviation="1.71"/>
  </filter>
  <radialGradient id="radialGradient12577" xlink:href="#linearGradient6793" gradientUnits="userSpaceOnUse" cy="241.05" cx="353.63" gradientTransform="matrix(-1 0 0 .98782 582.03 46.933)" r="220.12"/>
  <radialGradient id="radialGradient12579" xlink:href="#linearGradient6793" gradientUnits="userSpaceOnUse" cy="241.05" cx="353.63" gradientTransform="matrix(-.99918 -.040586 -.040092 0.987 587.8 48.361)" r="220.12"/>
  <radialGradient id="radialGradient12626" xlink:href="#linearGradient6793" gradientUnits="userSpaceOnUse" cy="241.05" cx="353.63" gradientTransform="matrix(-.14011 0 0 .13702 252.95 -79.259)" r="220.12"/>
  <radialGradient id="radialGradient12629" xlink:href="#linearGradient6793" gradientUnits="userSpaceOnUse" cy="241.05" cx="353.63" gradientTransform="matrix(-.14011 0 0 .13702 342.95 -169.26)" r="220.12"/>
  <radialGradient id="radialGradient12640" xlink:href="#linearGradient6793" gradientUnits="userSpaceOnUse" cy="241.05" cx="353.63" gradientTransform="matrix(-.13999 -.0056299 -.0056171 .13691 343.75 -169.06)" r="220.12"/>
  <radialGradient id="radialGradient4328" cx="32.022" xlink:href="#linearGradient3965-8" gradientUnits="userSpaceOnUse" cy="78.418" r="5.6523" gradientTransform="matrix(1.1431 -1.2402e-7 1.2566e-7 1.1583 -4.5832 -12.722)"/>
  <radialGradient id="radialGradient4316" cx="63.542" xlink:href="#linearGradient3965-8" gradientUnits="userSpaceOnUse" cy="74.851" r="5.1742" gradientTransform="matrix(.91291 .17109 -.15119 .80673 -28.549 -51.361)"/>
  <radialGradient id="radialGradient4299" cx="73.589" xlink:href="#linearGradient3965-8" gradientUnits="userSpaceOnUse" cy="27.282" r="4.5674" gradientTransform="matrix(1.4991 3.2162e-7 -4.6083e-7 2.148 -36.729 -30.907)"/>
  <radialGradient id="radialGradient4244" cx="73.589" xlink:href="#linearGradient3965-8" gradientUnits="userSpaceOnUse" cy="27.282" r="4.5674" gradientTransform="matrix(.92125 1.9765e-7 -2.832e-7 1.32 -45.425 -7.8133)"/>
  <radialGradient id="radialGradient4218" cx="24.56" xlink:href="#linearGradient3965-8" gradientUnits="userSpaceOnUse" cy="64.916" r="2.6787" gradientTransform="matrix(1.1677 -3.567e-7 3.3401e-7 1.0934 48.025 7.5181)"/>
  <radialGradient id="radialGradient4191" cx="63.542" xlink:href="#linearGradient3965-8" gradientUnits="userSpaceOnUse" cy="74.851" r="5.1742" gradientTransform="matrix(1.1042 2.3478e-8 -2.0748e-8 .97574 -3.4039 7.4672)"/>
  <radialGradient id="radialGradient4156" cx="77.151" xlink:href="#linearGradient3965-8" gradientUnits="userSpaceOnUse" cy="71.062" r="4.1481" gradientTransform="matrix(1.1221 -1.5158e-7 1.5032e-7 1.1128 -11.565 -12.425)"/>
  <radialGradient id="radialGradient4122" cx="17.235" xlink:href="#linearGradient3965-8" gradientUnits="userSpaceOnUse" cy="74.411" r="4.1366" gradientTransform="matrix(.99423 -7.2336e-8 7.2103e-8 .99102 63.476 -35.574)"/>
  <radialGradient id="radialGradient4057" cx="24.56" xlink:href="#linearGradient3965-8" gradientUnits="userSpaceOnUse" cy="64.916" r="2.6787" gradientTransform="matrix(1.1677 -3.567e-7 3.3401e-7 1.0934 -4.1176 -6.4104)"/>
  <radialGradient id="radialGradient3971" cx="17.235" xlink:href="#linearGradient3965-8" gradientUnits="userSpaceOnUse" cy="74.411" r="4.1366" gradientTransform="matrix(1.415 -1.0295e-7 1.0262e-7 1.4104 -8.2233 -35.483)"/>
  <filter id="filter3174-05" color-interpolation-filters="sRGB">
   <feGaussianBlur id="feGaussianBlur3176-5" stdDeviation="1.71"/>
  </filter>
  <linearGradient id="linearGradient3965-8">
   <stop id="stop3967" style="stop-color:#5fabd3" offset="0"/>
   <stop id="stop3969" style="stop-color:#0e3e5d" offset="1"/>
  </linearGradient>
 </defs>
 <rect id="rect892" style="stroke:url(#linearGradient3521);stroke-width:.97385;fill:url(#linearGradient3519)" transform="scale(1,-1)" ry="29.296" height="115.54" width="114.22" y="-122.25" x="7.0394"/>
 <rect id="rect892-2" style="stroke:url(#linearGradient3516);stroke-width:.97385;fill:url(#linearGradient3514)" transform="scale(1,-1)" ry="28.993" height="114.35" width="114.22" y="-121.46" x="7.0599"/>
 <path id="rect895" style="fill:url(#radialGradient3349)" d="m33.051 7.2596c-7.969-2.4493-27.013 15.174-25.653 23.038-0.050142 0.97378-0.088772 1.9648-0.088772 2.9572v52.419c0 20.876 10.712 33.859 22.318 33.859h67.038c12.638 0 24.318-11.245 24.318-25.859v-64.017c0.7-10.928-21.283-24.659-25.926-22.618-47.846 0.8653-18.017 0.2236-62.003 0.2236z"/>
 <rect id="rect892-2-7-8" style="opacity:.15891;stroke:#000;stroke-width:4.8445;fill:none" transform="scale(1,-1)" ry="28.993" height="114.35" width="114.22" y="-121.16" x="6.8687"/>
 <rect id="rect892-2-7-1" style="opacity:.15891;stroke:#000;stroke-width:7.7512;fill:none" transform="scale(1,-1)" ry="28.993" height="114.35" width="114.22" y="-121.16" x="6.8687"/>
 <rect id="rect892-2-7-2-9" ry="28.067" style="stroke:#000;stroke-width:1.0489;fill:none" transform="scale(1,-1)" height="112.71" width="114.14" y="-120.31" x="7.0649"/>
 <path id="path1187" style="fill:#fff;fill-opacity:.057143" d="m33.017 7.2319c-23.707 0-26.027 0.6738-25.93 26.295-0.04334 0.71563-0.07674 1.4439-0.07674 2.1732v32.76c18.67-38.321 38.34-51.497 90.374-61.179-0.225-0.026-0.46-0.0303-0.691-0.0303-41.576 0.3874-25.652-0.0188-63.676-0.0188z"/>
 <g id="layer2" style="display:none" transform="translate(-183.05 -205.14)">
  <rect id="rect3745" style="opacity:.9;filter:url(#filter3174);fill:url(#ButtonShadow-4)" rx="6" ry="6" height="85" width="86" y="7" x="5"/>
 </g>
 <g id="layer5" style="display:none" transform="translate(-183.05 -205.14)">
  <rect id="rect3171" style="opacity:.1;filter:url(#filter3794);stroke:#fff;stroke-linecap:round;stroke-width:.5;fill:url(#linearGradient3613)" clip-path="url(#clipPath3613)" rx="12" ry="12" height="66" width="66" y="15" x="15"/>
 </g>
 <g id="layer2-4" style="display:none" transform="translate(16,14.5)">
  <rect id="rect3745-6" style="opacity:.9;filter:url(#filter3174-0);fill:url(#ButtonShadow-4)" rx="6" ry="6" height="85" width="86" y="7" x="5"/>
 </g>
 <g id="layer2-2" style="display:none" transform="translate(212.65 -37.864)">
  <rect id="rect3745-8" style="opacity:.9;filter:url(#filter3174-7);fill:url(#ButtonShadow-4)" rx="6" ry="6" height="85" width="86" y="7" x="5"/>
 </g>
 <g id="layer2-8" style="display:none" transform="translate(210.69 6.565)">
  <rect id="rect3745-9" style="opacity:.9;filter:url(#filter3174-4);fill:url(#ButtonShadow-4)" rx="6" ry="6" height="85" width="86" y="7" x="5"/>
 </g>
 <g id="layer2-5" style="display:none" transform="translate(156.31 -189.8)">
  <rect id="rect3745-4" style="opacity:.9;filter:url(#filter3174-9);fill:url(#ButtonShadow-4)" rx="6" ry="6" height="85" width="86" y="7" x="5"/>
 </g>
 <g id="g2960" style="enable-background:new" transform="matrix(.17756 0 0 .17756 49.336 -180.88)">
  <g id="layer3-8" style="display:none">
   <path id="path2544" d="m324.39 135.62c-45.381 3.2742-125.15 80.453-113.93 80.062 92.777-3.2339 150.73 2.1051 223.12 24.581 10.719 3.328-11.566-97.11-109.18-104.64z" style="filter:url(#filter3985);enable-background:new;display:inline;fill:#dbdbdb"/>
   <path id="path2546" d="m186.38 72.15c-25.8 37.48-29.04 184.14-22.38 175.11 54.89-74.46 186.45-166.41 264.91-203.43 96.99-45.773-185.1-40.189-242.53 28.32z" style="stroke-width:0;filter:url(#filter3989);enable-background:new;display:inline;fill:#dbdbdb"/>
   <path id="path2548" d="m69.552 231.68c14.867 43 110.01 100.17 106.74 89.43-27.05-88.8-36.84-146.17-33.79-221.91 0.45-11.213-90.845 36.22-72.948 132.48z" style="filter:url(#filter3993);enable-background:new;display:inline;fill:#dbdbdb"/>
   <path id="path2550" d="m81.977 372.85c42.137 17.165 147.84-16.699 137.61-21.316-84.613-38.194-134.2-68.649-189.15-120.86-8.1358-7.7313-32.643 92.188 51.541 142.18z" style="filter:url(#filter3997);enable-background:new;display:inline;fill:#dbdbdb"/>
   <path id="path2552" d="m203.89 453.63c40.287-21.145 82.546-123.78 72.421-118.94-83.746 40.058-139 58.333-214.34 66.674-11.155 1.235 49.428 84.386 141.92 52.263z" style="filter:url(#filter4001);enable-background:new;display:inline;fill:#dbdbdb"/>
   <path id="path2554" d="m345.96 410.03c9.8413-44.421-41.301-142.93-44.134-132.07-23.435 89.827-45.125 143.83-87.365 206.77-6.2545 9.3191 96.362 16.69 131.5-74.696z" style="filter:url(#filter4005);enable-background:new;display:inline;fill:#dbdbdb"/>
   <path id="path2556" d="m401.89 270.24c-27.37-36.34-135.48-61.47-129.07-52.26 53.056 76.178 80.014 127.75 100.41 200.76 3.0202 10.809 75.297-62.406 28.659-148.49z" style="filter:url(#filter4009);enable-background:new;display:inline;fill:#dbdbdb"/>
  </g>
  <g id="g2591" transform="translate(-14.911 -7.085)">
   <g id="layer1-2">
    <path id="path3212" d="m324.39 135.62c-45.381 3.2742-125.15 80.453-113.93 80.062 92.777-3.2339 150.73 2.1051 223.12 24.581 10.719 3.328-11.566-97.11-109.18-104.64z" style="fill:url(#radialGradient12577)"/>
    <path id="path3215" d="m186.38 72.15c-25.8 37.48-29.04 184.14-22.38 175.11 54.89-74.46 186.45-166.41 264.91-203.43 96.99-45.773-185.1-40.189-242.53 28.32z" style="stroke-width:0;fill:url(#radialGradient12579)"/>
    <path id="path3217" d="m69.552 231.68c14.867 43 110.01 100.17 106.74 89.43-27.05-88.8-36.84-146.17-33.79-221.91 0.45-11.213-90.845 36.22-72.948 132.48z" style="fill:#cde1e9"/>
    <path id="path3219" d="m81.977 372.85c42.137 17.165 147.84-16.699 137.61-21.316-84.613-38.194-134.2-68.649-189.15-120.86-8.1358-7.7313-32.643 92.188 51.541 142.18z" style="fill:#cde1e9"/>
    <path id="path3221" d="m203.89 453.63c40.287-21.145 82.546-123.78 72.421-118.94-83.746 40.058-139 58.333-214.34 66.674-11.155 1.235 49.428 84.386 141.92 52.263z" style="fill:url(#radialGradient12577)"/>
    <path id="path3223" d="m345.96 410.03c9.8413-44.421-41.301-142.93-44.134-132.07-23.435 89.827-45.125 143.83-87.365 206.77-6.2545 9.3191 96.362 16.69 131.5-74.696z" style="fill:url(#radialGradient12577)"/>
    <path id="path3225" d="m401.89 270.24c-27.37-36.34-135.48-61.47-129.07-52.26 53.056 76.178 80.014 127.75 100.41 200.76 3.0202 10.809 75.297-62.406 28.659-148.49z" style="fill:url(#radialGradient12577)"/>
   </g>
   <g id="layer2-4-2" style="filter:url(#filter3383)">
    <path id="path3372" d="m394.59 14.188c-66.72-0.22-175.01 18.361-208.21 57.968-25.8 37.474-29.04 184.12-22.38 175.09 54.89-74.46 186.44-166.41 264.91-203.44 40.91-19.306 14.37-29.462-34.32-29.622zm-27.438 16.375c38.646 0.12728 59.696 8.2051 27.219 23.531-62.28 29.39-166.68 102.37-210.25 161.47-5.2863 7.1706-2.7286-109.22 17.75-138.97 26.36-31.437 112.33-46.205 165.29-46.031z" style="enable-background:new;stroke-width:0;fill:url(#radialGradient12579)"/>
    <path id="path3387" d="m324.38 135.62c-45.381 3.2742-125.12 80.453-113.91 80.062 92.777-3.2339 150.7 2.1178 223.09 24.594 10.719 3.328-11.569-97.123-109.19-104.66zm0.875 8.9688c73.717 5.6891 90.563 81.544 82.469 79.031-54.666-16.973-98.439-21.005-168.5-18.562-8.4703 0.29526 51.762-57.996 86.031-60.469z" style="enable-background:new;fill:url(#radialGradient12577)"/>
    <path id="path3397" d="m275.41 216.09c-2.3958 0.12327-3.3955 0.72377-2.5938 1.875 53.056 76.178 80.04 127.78 100.44 200.78 3.0202 10.809 75.294-62.413 28.656-148.5-23.951-31.8-109.73-55.019-126.5-54.156zm17.4 16.66c13.816-0.71086 84.456 18.428 104.19 44.625 38.42 70.919-21.106 131.22-23.594 122.31-16.804-60.14-39.011-102.62-82.719-165.38-0.66052-0.94838 0.15135-1.461 2.125-1.5625z" style="enable-background:new;fill:url(#radialGradient12577)"/>
    <path id="path3413" d="m302.53 277.12c-0.33385 0.0453-0.58594 0.33469-0.71875 0.84375-23.435 89.827-45.103 143.81-87.344 206.75-6.2545 9.3191 96.363 16.699 131.5-74.688 9.38-42.339-36.649-133.83-43.438-132.91zm-3.75 42.312c4.8256-0.65425 37.543 64.37 30.875 94.469-24.979 64.965-97.915 59.75-93.469 53.125 30.028-44.742 45.434-83.143 62.094-147 0.0944-0.36188 0.26267-0.56157 0.5-0.59375z" style="enable-background:new;fill:url(#radialGradient12577)"/>
    <path id="path3423" d="m276.75 334.53c-0.13283 0.0239-0.2793 0.0806-0.4375 0.15625-83.746 40.058-139.01 58.347-214.34 66.688-11.155 1.235 49.418 84.374 141.91 52.25 39.657-20.814 81.243-120.6 72.875-119.09zm-24.125 16.188c6.491-1.1685-25.739 76.23-56.5 92.375-71.741 24.918-118.75-39.573-110.09-40.531 58.438-6.4699 101.29-20.647 166.25-51.719 0.12271-0.0587 0.24072-0.10645 0.34375-0.125z" style="enable-background:new;fill:url(#radialGradient12577)"/>
   </g>
  </g>
 </g>
 <path id="path3095" d="m324.39 135.62c-45.381 3.2742-125.15 80.453-113.93 80.062 92.777-3.2339 150.73 2.1051 223.12 24.581 10.719 3.328-11.566-97.11-109.18-104.64z" style="filter:url(#filter3985);enable-background:new;display:none;fill:#dbdbdb" transform="matrix(.17756 0 0 .17756 159.34 -180.88)"/>
 <path id="path3097" d="m186.38 72.15c-25.8 37.48-29.04 184.14-22.38 175.11 54.89-74.46 186.45-166.41 264.91-203.43 96.99-45.773-185.1-40.189-242.53 28.32z" style="stroke-width:0;filter:url(#filter3989);enable-background:new;display:none;fill:#dbdbdb" transform="matrix(.17756 0 0 .17756 159.34 -180.88)"/>
 <path id="path3099" d="m69.552 231.68c14.867 43 110.01 100.17 106.74 89.43-27.05-88.8-36.84-146.17-33.79-221.91 0.45-11.213-90.845 36.22-72.948 132.48z" style="filter:url(#filter3993);enable-background:new;display:none;fill:#dbdbdb" transform="matrix(.17756 0 0 .17756 159.34 -180.88)"/>
 <path id="path3101" d="m81.977 372.85c42.137 17.165 147.84-16.699 137.61-21.316-84.613-38.194-134.2-68.649-189.15-120.86-8.1358-7.7313-32.643 92.188 51.541 142.18z" style="filter:url(#filter3997);enable-background:new;display:none;fill:#dbdbdb" transform="matrix(.17756 0 0 .17756 159.34 -180.88)"/>
 <path id="path3103" d="m203.89 453.63c40.287-21.145 82.546-123.78 72.421-118.94-83.746 40.058-139 58.333-214.34 66.674-11.155 1.235 49.428 84.386 141.92 52.263z" style="filter:url(#filter4001);enable-background:new;display:none;fill:#dbdbdb" transform="matrix(.17756 0 0 .17756 159.34 -180.88)"/>
 <path id="path3105" d="m345.96 410.03c9.8413-44.421-41.301-142.93-44.134-132.07-23.435 89.827-45.125 143.83-87.365 206.77-6.2545 9.3191 96.362 16.69 131.5-74.696z" style="filter:url(#filter4005);enable-background:new;display:none;fill:#dbdbdb" transform="matrix(.17756 0 0 .17756 159.34 -180.88)"/>
 <path id="path3107" d="m401.89 270.24c-27.37-36.34-135.48-61.47-129.07-52.26 53.056 76.178 80.014 127.75 100.41 200.76 3.0202 10.809 75.297-62.406 28.659-148.49z" style="filter:url(#filter4009);enable-background:new;display:none;fill:#dbdbdb" transform="matrix(.17756 0 0 .17756 159.34 -180.88)"/>
 <path id="path4091" d="m306.85-156.96c-6.3581 0.45417-17.534 11.16-15.963 11.106 12.999-0.44859 21.118 0.29201 31.26 3.4097 1.5017 0.46164-1.6205-13.471-15.297-14.516z" style="fill:url(#radialGradient12629)"/>
 <path id="path4093" d="m287.51-165.76c-3.6147 5.1985-4.0685 25.543-3.1354 24.29 7.6905-10.328 26.123-23.083 37.116-28.219 13.589-6.3487-25.934-5.5742-33.981 3.929z" style="stroke-width:0;fill:url(#radialGradient12640)"/>
 <path id="path4095" d="m271.14-143.63c2.083 5.9648 15.413 13.895 14.955 12.405-3.7901-12.318-5.1614-20.276-4.7346-30.782 0.0632-1.5556-12.727 5.0242-10.22 18.377z" style="fill:#cde1e9"/>
 <path id="path4097" d="m272.88-124.05c5.9036 2.381 20.713-2.3164 19.28-2.9569-11.855-5.2981-18.803-9.5226-26.501-16.765-1.1399-1.0724-4.5734 12.788 7.2212 19.722z" style="fill:#cde1e9"/>
 <path id="path4099" d="m289.96-112.85c5.6444-2.9331 11.565-17.17 10.147-16.498-11.733 5.5566-19.474 8.0917-30.03 9.2487-1.5629 0.17131 6.9251 11.706 19.883 7.2496z" style="fill:url(#radialGradient12629)"/>
 <path id="path4101" d="m309.87-118.89c1.3788-6.1619-5.7864-19.827-6.1834-18.32-3.2834 12.46-6.3223 19.951-12.24 28.682-0.87629 1.2927 13.501 2.3151 18.424-10.361z" style="fill:url(#radialGradient12629)"/>
 <path id="path4103" d="m317.71-138.28c-3.8351-5.0413-18.982-8.5272-18.084-7.2497 7.4334 10.567 11.21 17.721 14.068 27.848 0.42315 1.4994 10.55-8.6566 4.0153-20.598z" style="fill:url(#radialGradient12629)"/>
 <path id="path4115" d="m225.91-83.802c-9.3899 0.10768-23.88 2.6857-28.406 8.0312-3.6147 5.1985-4.0581 25.566-3.125 24.312 7.6905-10.328 26.132-23.083 37.125-28.219 5.945-2.7776 1.7095-4.2088-5.5938-4.125zm-9.0625 16.844c-6.3581 0.45418-17.54 11.148-15.969 11.094 12.999-0.44859 21.139 0.31977 31.281 3.4375 1.5017 0.46164-1.6356-13.486-15.312-14.531zm-6.8438 11.156c-0.33566 0.0171-0.48734 0.12156-0.375 0.28125 7.4334 10.567 11.205 17.717 14.062 27.844 0.42315 1.4994 10.565-8.6522 4.0312-20.594-3.3557-4.4112-15.369-7.651-17.719-7.5312zm3.8438 8.4688c-0.0739-0.0188-0.13144 0.0309-0.15625 0.125-3.2834 12.46-6.3319 19.957-12.25 28.688-0.87628 1.2927 13.515 2.3016 18.438-10.375 1.2926-5.7768-4.922-18.155-6.0312-18.438zm-3.625 7.9688c-0.0302-0.007-0.0494 0.0103-0.0937 0.0312-11.733 5.5566-19.476 8.093-30.031 9.25-1.5629 0.17132 6.9168 11.706 19.875 7.25 5.468-2.8414 11.187-16.304 10.25-16.531z" style="fill:url(#radialGradient12626)"/>
 <g id="layer2-7" style="display:none" transform="translate(16.527 14.97)">
  <rect id="rect3745-7" style="opacity:.9;filter:url(#filter3174-05);fill:url(#ButtonShadow-4)" rx="6" ry="6" height="85" width="86" y="7" x="5"/>
 </g>
 <g id="layer3" transform="matrix(1.2 0 0 1.2 7.0926 4.9126)">
  <path id="path3649" style="stroke-linejoin:round;stroke:#fff;stroke-width:4;fill:none" d="m48.094 36c-7.6084-0.0089-15.242 1.1907-22.562 3.5938l6.749 20.406c10.264-3.369 21.336-3.356 31.594 0.031l6.75-20.375c-7.315-2.42-14.923-3.647-22.531-3.656z"/>
  <path id="path3660" style="stroke-linejoin:round;stroke-dashoffset:1;stroke:#fff;stroke-width:2.6667;fill:none" transform="matrix(1.5,0,0,1.5,-24,-24)" d="m50 64a2 2 0 1 1 -4 0 2 2 0 1 1 4 0z"/>
  <path id="path3662" style="stroke:#fff;stroke-linecap:round;stroke-width:4;fill:none" d="m47.868 71.977-6.7231-25.091"/>
  <path id="path3686" style="block-progression:tb;text-indent:0;color:#000000;text-transform:none;fill:#fff" d="m57.562 19.156-0.84375 0.21875-0.34375 0.84375 0.5 0.75 0.3125 0.15625 0.5625 0.09375 0.5625 0.15625 0.03125 0.03125h0.0625l0.5 0.21875 0.90625-0.0625 0.46875-0.75-0.3125-0.84375-0.3125-0.1875-0.59375-0.25-0.091-0.03-0.719-0.25h-0.125l-0.5625-0.09375zm-4.374 0.344-0.344 0.062-0.313 0.126-0.093 0.031-0.688 0.343-0.094 0.032-0.656 0.406l-0.0625 0.0625-0.125 0.0625-0.40625 0.8125 0.40625 0.8125 0.875 0.15625 0.34375-0.15625v-0.03125l0.09375-0.0625 0.5-0.28125 0.59375-0.3125 0.09375-0.03125 0.21875-0.0625 0.625-0.65625-0.156-0.906-0.812-0.406zm9.375 2.75-0.84375 0.34375-0.1875 0.875 0.125 0.3125 0.40625 0.65625h0.03125l0.25 0.5 0.1875 0.4375 0.6875 0.5625 0.875-0.15625 0.34375-0.84375-0.03125-0.34375-0.21875-0.4375v-0.0625l-0.375-0.6875-0.064-0.094-0.438-0.624-0.75-0.438zm-13.563 1.188-0.844 0.281-0.218 0.281l-0.21875 0.4375-0.03125 0.09375-0.28125 0.75-0.03125 0.09375-0.15625 0.6875 0.1875 0.875 0.8125 0.375 0.781-0.437 0.15625-0.3125 0.125-0.59375h0.03125l0.219-0.657 0.031-0.093 0.188-0.344-0.031-0.906-0.719-0.531zm14.719 4.593-0.657 0.594-0.062 0.375v2l0.40625 0.78125 0.875 0.15625 0.657-0.593 0.062-0.344v-2l-0.40625-0.8125-0.875-0.15625zm-16 1.3125-0.65625 0.625l-0.063 0.343v2l0.40625 0.78125 0.875 0.1875 0.65625-0.625 0.063-0.344v-2l-0.40625-0.8125-0.875-0.15625zm0 6-0.65625 0.625l-0.063 0.343v2l0.40625 0.78125 0.875 0.1875 0.65625-0.625 0.063-0.344v-2l-0.40625-0.8125-0.875-0.15625zm0 6-0.65625 0.625l-0.063 0.343v2l0.40625 0.78125 0.875 0.1875 0.65625-0.625 0.063-0.344v-2l-0.40625-0.8125-0.875-0.15625zm0 6-0.65625 0.625l-0.063 0.343v2l0.40625 0.78125 0.875 0.1875 0.65625-0.625 0.063-0.344v-2l-0.40625-0.8125-0.875-0.15625z"/>
  <path id="path3689" style="block-progression:tb;text-indent:0;color:#000000;text-transform:none;fill:#fff" d="m38.438 19.156 0.84375 0.21875 0.34375 0.84375-0.5 0.75-0.3125 0.15625-0.5625 0.09375-0.5625 0.15625-0.03125 0.03125h-0.0625l-0.5 0.21875-0.90625-0.0625-0.46875-0.75 0.3125-0.84375 0.3125-0.1875 0.59375-0.25 0.091-0.03 0.719-0.25h0.125l0.5625-0.09375zm4.375 0.34375 0.34375 0.0625 0.3125 0.125 0.09375 0.03125 0.6875 0.34375 0.09375 0.03125l0.654 0.407 0.0625 0.0625 0.125 0.0625 0.40625 0.8125-0.40625 0.8125-0.875 0.15625-0.34375-0.15625v-0.03125l-0.094-0.063-0.5-0.281-0.594-0.313-0.093-0.031-0.219-0.062-0.625-0.657 0.156-0.906 0.812-0.406zm-9.375 2.75 0.84375 0.34375 0.1875 0.875-0.125 0.3125-0.40625 0.65625h-0.03125l-0.25 0.5-0.1875 0.4375-0.6875 0.5625-0.875-0.15625-0.34375-0.84375 0.03125-0.34375 0.21875-0.4375v-0.0625l0.375-0.6875 0.0625-0.09375 0.4375-0.625 0.75-0.4375zm13.562 1.188 0.844 0.281 0.218 0.281l0.21875 0.4375 0.03125 0.09375 0.28125 0.75 0.03125 0.09375 0.15625 0.6875-0.1875 0.875-0.8125 0.375-0.781-0.437-0.15625-0.3125-0.125-0.59375h-0.03125l-0.219-0.657-0.031-0.093-0.188-0.344 0.031-0.906 0.719-0.531zm-14.719 4.593 0.657 0.594 0.062 0.375v2l-0.40625 0.78125-0.875 0.15625-0.657-0.593-0.062-0.344v-2l0.40625-0.8125 0.875-0.15625zm16 1.3125 0.65625 0.625 0.0625 0.34375v2l-0.40625 0.78125-0.875 0.1875-0.65625-0.625-0.063-0.345v-2l0.40625-0.8125 0.875-0.15625zm0 6 0.65625 0.625 0.0625 0.34375v2l-0.40625 0.78125-0.875 0.1875-0.65625-0.625-0.063-0.345v-2l0.40625-0.8125 0.875-0.15625zm0 6 0.65625 0.625 0.0625 0.34375v2l-0.40625 0.78125-0.875 0.1875-0.65625-0.625-0.063-0.345v-2l0.40625-0.8125 0.875-0.15625zm0 6 0.65625 0.625 0.0625 0.34375v2l-0.40625 0.78125-0.875 0.1875-0.65625-0.625-0.063-0.345v-2l0.40625-0.8125 0.875-0.15625z"/>
 </g>
 <path id="path3786" style="fill:#fff" d="m98.801 37.654a2.9828 2.3849 0 0 1 -5.9657 0 2.9828 2.3849 0 1 1 5.9657 0z"/>
 <path id="path3800" style="fill:#fff" d="m106.69 29.235a4.7786 3.8208 0 0 1 -9.5573 0 4.7786 3.8208 0 1 1 9.5573 0z"/>
 <path id="path3814" style="fill:#fff" d="m106.01 72.847a3.6533 2.921 0 0 1 -7.3066 0 3.6533 2.921 0 1 1 7.3066 0z"/>
 <path id="path3818" style="opacity:.4;fill:#fff" d="m102.35 69.744c-1.7349 0-3.151 1.1322-3.151 2.5194 0 0.82041 0.51774 1.5316 1.2787 1.9899-0.33872-0.40086-0.548-0.88556-0.548-1.4057 0-1.3871 1.4161-2.5194 3.151-2.5194 0.65059 0 1.2568 0.16734 1.7582 0.43815-0.57327-0.60839-1.4627-1.0224-2.4888-1.0224z"/>
 <path id="path3828" style="fill:#fff" d="m96.47 94.659a6.5029 5.1994 0 0 1 -13.006 0 6.5029 5.1994 0 1 1 13.006 0z"/>
 <path id="path3832" style="opacity:.4;fill:#fff" d="m89.967 89.135c-3.0881 0-5.6087 2.0154-5.6087 4.4845 0 1.4603 0.92158 2.7262 2.276 3.5421-0.6029-0.71353-0.97543-1.5763-0.97543-2.5022 0-2.4691 2.5206-4.4845 5.6087-4.4845 1.158 0 2.2371 0.29786 3.1295 0.77991-1.0204-1.0829-2.6037-1.8198-4.4301-1.8198z"/>
 <path id="path3842" style="fill:#fff" d="m106.57 90.285a2.927 2.3403 0 0 1 -5.8539 0 2.927 2.3403 0 1 1 5.8539 0z"/>
 <path id="path3846" style="opacity:.4;fill:#fff" d="m103.65 87.798c-1.39 0-2.5245 0.90712-2.5245 2.0185 0 0.6573 0.4148 1.2271 1.0244 1.5943-0.27137-0.32116-0.43905-0.70949-0.43905-1.1263 0-1.1114 1.1345-2.0185 2.5245-2.0185 0.52123 0 1.0069 0.13406 1.4086 0.35104-0.4593-0.48743-1.1719-0.81909-1.994-0.81909z"/>
 <path id="path3856" style="fill:#fff" d="m83.425 101.65a4.3238 3.4571 0 0 1 -8.6476 0 4.3238 3.4571 0 1 1 8.6476 0z"/>
 <path id="path3860" style="opacity:.4;fill:#fff" d="m79.101 97.973c-2.0533 0-3.7293 1.34-3.7293 2.9818 0 0.97098 0.61276 1.8127 1.5133 2.3552-0.40087-0.47443-0.64857-1.0481-0.64857-1.6637 0-1.6417 1.676-2.9817 3.7293-2.9817 0.76999 0 1.4875 0.19805 2.0808 0.51857-0.678-0.72-1.73-1.21-2.945-1.21z"/>
 <path id="path3870" style="fill:#fff" d="m40.74 28.562a3.6935 2.9691 0 0 1 -7.387 0 3.6935 2.9691 0 1 1 7.387 0z"/>
 <path id="path3874" style="opacity:.4;fill:#fff" d="m37.047 25.407c-1.754 0-3.1856 1.1509-3.1856 2.5608 0 0.83391 0.52344 1.5568 1.2927 2.0227-0.34244-0.40746-0.55403-0.90013-0.55403-1.4289 0-1.41 1.4317-2.5608 3.1856-2.5608 0.65774 0 1.2706 0.17009 1.7775 0.44536-0.57958-0.6184-1.4788-1.0392-2.5162-1.0392z"/>
 <path id="path3884" style="fill:#fff" d="m31.259 36.829a5.2736 4.2166 0 0 1 -10.547 0 5.2736 4.2166 0 1 1 10.547 0z"/>
 <path id="path3898" style="fill:#fff" d="m27.981 94.044a2.9828 2.3849 0 0 1 -5.9657 0 2.9828 2.3849 0 1 1 5.9657 0z"/>
 <path id="path3912" style="fill:#fff" d="m34.516 65.489a2.9828 2.3849 0 0 1 -5.9657 0 2.9828 2.3849 0 1 1 5.9657 0z"/>
 <path id="path3916" style="opacity:.4;fill:#fff" d="m31.533 62.955c-1.4165 0-2.5727 0.92444-2.5727 2.057 0 0.66984 0.42272 1.2505 1.044 1.6247-0.27655-0.32729-0.44742-0.72304-0.44742-1.1478 0-1.1326 1.1562-2.057 2.5727-2.057 0.53119 0 1.0261 0.13663 1.4355 0.35774-0.46806-0.49674-1.1943-0.83473-2.0321-0.83473z"/>
 <path id="path4368" style="fill:#fff" d="m40.804 86.687a6.109 4.8844 0 0 1 -12.218 0 6.109 4.8844 0 1 1 12.218 0z"/>
 <g id="layer6" style="display:none" transform="translate(16.527 14.97)">
  <g id="g4286">
   <path id="path3990" style="opacity:.5;fill:#162d50" transform="translate(-1.0714 -4.8214)" d="m17.812 68.781c-1.096-0.13845-2.1739 0.05447-2.875 0.8125-0.69671 0.75325-0.9602 2.0091-0.59375 3.7188 0.0019 0.0093-0.0019 0.02192 0 0.03125 0.28305 1.359 1.2468 2.6344 2.4688 3.375 1.2228 0.74108 2.7733 0.92112 4.0938-0.03125 0.01447-0.0086 0.01692-0.02263 0.03125-0.03125 1.2061-0.72581 1.9187-1.5553 2.1562-2.4375 0.2404-0.89264-0.0061-1.7669-0.5-2.5312-0.98785-1.5287-2.9554-2.6756-4.7812-2.9062z"/>
   <path id="path3941" style="fill:url(#radialGradient3971)" d="m19.653 70.54c7.5387-4.474-7.9511-11.971-6.0217-3.1254 0.50164 2.4915 3.6253 4.8831 6.0217 3.1254z"/>
   <path id="path3973" style="opacity:.9;fill:#fff" transform="matrix(.97008 .53881 -.41399 .74535 28.539 1.8401)" d="m20.703 70.965a1.2422 1.0192 0 1 1 -2.4844 0 1.2422 1.0192 0 1 1 2.4844 0z"/>
   <path id="path3975" style="opacity:.9;fill:#fff" transform="matrix(.44544 .41028 -.31820 .34547 34.149 34.232)" d="m20.703 70.965a1.2422 1.0192 0 1 1 -2.4844 0 1.2422 1.0192 0 1 1 2.4844 0z"/>
   <path id="path3977" style="opacity:.5;fill:#fff" d="m13.491 65.647c-0.04037 0.49747 0.0071 1.0974 0.15625 1.7812 0.50164 2.4915 3.6037 4.8827 6 3.125 1.7491-1.038 2.2563-2.2534 2.0312-3.375-0.17314 0.81419-0.7899 1.6383-2.0312 2.375-2.3963 1.7577-5.4984-0.63353-6-3.125-0.06029-0.27644-0.12874-0.53614-0.15625-0.78125z"/>
  </g>
  <g id="g4280">
   <path id="path4028" style="opacity:.5;fill:#162d50" d="m32.844 71.062c-2.4621 0.47955-4.7658 2.018-5.9375 4.3125a0.60151 0.60151 0 0 0 -0.031 0.064c-0.5869 1.4674 0.09545 2.9559 0.875 4 0.0079 0.01052 0.02338 0.02082 0.03125 0.03125 0.77033 1.0785 1.8469 1.9897 3.1562 2.4375 1.1277 0.39872 2.4108 0.5381 3.625 0.125a0.60151 0.60151 0 0 0 0.094 -0.032c1.7425-0.85832 3.5499-2.1372 4.2812-4.1875 0.0032-0.0091-0.0032-0.02215 0-0.03125 0.33894-0.90428 0.357-2.0324-0.28125-2.9062-0.0046-0.0064-0.02666 0.0063-0.03125 0-0.0047-0.0065 0.0047-0.0248 0-0.03125-0.78419-1.0714-1.8538-1.6497-2.5-2.4062a0.60151 0.60151 0 0 0 -0.09375 -0.09375c-0.84342-0.69148-1.8691-1.1778-3-1.2812a0.60151 0.60151 0 0 0 -0.1875 0z"/>
   <path id="path3999" style="fill:url(#radialGradient4328)" d="m32.964 70.671c-2.2918 0.44638-4.4458 1.8835-5.5195 3.9861-0.4765 1.1914 0.08385 2.4883 0.80804 3.4476 0.71224 1.0092 1.6916 1.846 2.8713 2.2494 1.0306 0.36436 2.1993 0.48138 3.2458 0.12533 1.6841-0.82954 3.3604-2.058 4.0051-3.8955 0.29541-0.769 0.2898-1.6878-0.22234-2.3657-0.68011-0.94792-1.7423-1.52-2.4944-2.4006-0.76419-0.62652-1.7046-1.0562-2.6939-1.1467z"/>
   <path id="path4030" style="opacity:.9;fill:#fff" transform="matrix(.94813 .31787 -.31787 .94813 23.894 -7.3129)" d="m36.916 73.141a1.976 1.1228 0 1 1 -3.9521 0 1.976 1.1228 0 1 1 3.9521 0z"/>
   <path id="path4032" style="opacity:.5;fill:#fff" d="m27.75 74.156c-0.10393 0.16578-0.22303 0.32478-0.3125 0.5-0.4765 1.1914 0.08831 2.4782 0.8125 3.4375 0.71224 1.0092 1.6954 1.8465 2.875 2.25 1.0306 0.36436 2.2035 0.48105 3.25 0.125 1.6139-0.79498 3.2077-1.9436 3.9062-3.6562-0.80889 1.3134-2.163 2.2635-3.5312 2.9375-1.0465 0.35605-2.2194 0.23936-3.25-0.125-1.1796-0.40346-2.1628-1.2408-2.875-2.25-0.67892-0.89932-1.2034-2.0911-0.875-3.2188z"/>
  </g>
  <g id="g4293">
   <path id="path4077" style="opacity:.5;fill:#162d50" d="m24.812 61.75c-0.23996-0.01798-0.47963-0.01998-0.71875 0.03125-0.70346 0.15072-1.3975 0.55046-1.7812 1.125-0.19189 0.28727-0.31422 0.63561-0.28125 1s0.24232 0.71375 0.5625 1.0312c0.57203 0.56831 1.3793 1.1609 2.2812 1.4375 0.90192 0.2766 1.956 0.21305 2.6875-0.59375 0.39794-0.41946 0.58512-0.90515 0.59375-1.375 0.0086-0.46985-0.17096-0.91006-0.4375-1.2812-0.502-0.7-1.34-1.163-2.218-1.219-0.049-0.022-0.105-0.013-0.156-0.031-0.174-0.061-0.346-0.111-0.532-0.125z"/>
   <path id="path4041" style="fill:url(#radialGradient4057)" d="m25.329 61.599c-1.3802-0.61534-3.9284 1.0052-2.4756 2.4459 1.0663 1.0594 3.1701 2.2198 4.4233 0.83753 1.3781-1.4526-0.36132-3.2799-1.9477-3.2834z"/>
   <path id="path4059" style="opacity:.9;fill:#fff" transform="matrix(.62585 .34761 -.26708 .48086 32.437 21.787)" d="m20.703 70.965a1.2422 1.0192 0 1 1 -2.4844 0 1.2422 1.0192 0 1 1 2.4844 0z"/>
   <path id="path4061" style="opacity:.5;fill:#fff" d="m23.219 61.938c-0.74698 0.50112-1.1661 1.3093-0.375 2.0938 1.0288 1.0222 3.0166 2.1331 4.2812 0.96875-1.2568 0.68942-3.0045-0.32303-3.9375-1.25-0.65657-0.65107-0.46939-1.3109 0.03125-1.8125z"/>
  </g>
  <g id="g4246" transform="translate(-.17857 -1.25)">
   <path id="path4106" style="opacity:.5;fill:#162d50" d="m75.375 20.062c-0.29738 0.07576-0.57557 0.20932-0.8125 0.375-0.47386 0.33135-0.86798 0.7614-1.1875 1.0312-1.1331 0.84596-2.4698 2.0513-3.25 3.4688-0.39009 0.70872-0.64525 1.4843-0.625 2.2812 0.02025 0.79699 0.32215 1.5918 0.96875 2.3438a0.39841 0.39841 0 0 0 0.031 0.032c1.0986 1.2056 2.8587 1.8102 4.5312 1.7188 1.6726-0.0915 3.2941-0.95525 3.9062-2.7188 0.49382-1.4239 0.66473-3.1548 0.3125-4.75s-1.2557-3.0768-2.9062-3.75a0.39841 0.39841 0 0 0 -0.03125 0c-0.332-0.108-0.641-0.107-0.938-0.032z"/>
   <path id="path4079" style="fill:url(#radialGradient4299)" d="m73.75 20.643c-2.2131 1.6523-5.2241 4.7522-2.842 7.5224 1.9951 2.1893 6.6795 2.3683 7.7886-0.82696 0.93902-2.7077 0.64351-6.7619-2.3831-7.9964-1.036-0.337-1.864 0.71-2.564 1.301z"/>
   <path id="path4097-7" style="opacity:.9;fill:#fff" transform="matrix(.62697 .40034 -.40034 .62697 83.656 -38.375)" d="m36.916 73.141a1.976 1.1228 0 1 1 -3.9521 0 1.976 1.1228 0 1 1 3.9521 0z"/>
   <path id="path4099-2" style="opacity:.5;fill:#fff" d="m71.125 23.219c-1.1201 1.5171-1.6502 3.2728-0.21875 4.9375 1.9044 2.0899 6.2373 2.354 7.5938-0.40625-1.7221 1.9201-5.3879 1.5282-7.0938-0.34375-1.191-1.3851-1.0129-2.8597-0.28125-4.1875z"/>
   <path id="path4108" style="opacity:.9;fill:#fff" transform="matrix(.62697 .40034 -.40034 .62697 83.656 -38.375)" d="m36.916 73.141a1.976 1.1228 0 1 1 -3.9521 0 1.976 1.1228 0 1 1 3.9521 0z"/>
   <path id="path4110" style="opacity:.9;fill:#fff" transform="matrix(.39975 .25525 -.25525 .39975 82.353 -14.204)" d="m36.916 73.141a1.976 1.1228 0 1 1 -3.9521 0 1.976 1.1228 0 1 1 3.9521 0z"/>
  </g>
  <g id="g4254">
   <path id="path4112" style="opacity:.5;fill:#162d50" transform="matrix(.70265 0 0 .70265 68.502 -14.03)" d="m17.812 68.781c-1.096-0.13845-2.1739 0.05447-2.875 0.8125-0.69671 0.75325-0.9602 2.0091-0.59375 3.7188 0.0019 0.0093-0.0019 0.02192 0 0.03125 0.28305 1.359 1.2468 2.6344 2.4688 3.375 1.2228 0.74108 2.7733 0.92112 4.0938-0.03125 0.01447-0.0086 0.01692-0.02263 0.03125-0.03125 1.2061-0.72581 1.9187-1.5553 2.1562-2.4375 0.2404-0.89264-0.0061-1.7669-0.5-2.5312-0.98785-1.5287-2.9554-2.6756-4.7812-2.9062z"/>
   <path id="path4114" style="fill:url(#radialGradient4122)" d="m83.064 38.923c5.2971-3.1437-5.5868-8.4117-4.2311-2.1961 0.35247 1.7506 2.5473 3.4311 4.2311 2.1961z"/>
   <path id="path4116" style="opacity:.9;fill:#fff" transform="matrix(.68162 .37859 -.29089 .52372 89.308 -9.3493)" d="m20.703 70.965a1.2422 1.0192 0 1 1 -2.4844 0 1.2422 1.0192 0 1 1 2.4844 0z"/>
   <path id="path4118" style="opacity:.9;fill:#fff" transform="matrix(.31299 .28828 -.22358 .24274 93.249 13.411)" d="m20.703 70.965a1.2422 1.0192 0 1 1 -2.4844 0 1.2422 1.0192 0 1 1 2.4844 0z"/>
   <path id="path4120" style="opacity:.5;fill:#fff" d="m78.734 35.485c-0.02837 0.34955 0.005 0.77106 0.10979 1.2516 0.35247 1.7506 2.5321 3.4308 4.2159 2.1958 1.229-0.72937 1.5854-1.5833 1.4273-2.3714-0.12166 0.57209-0.55502 1.1511-1.4273 1.6688-1.6838 1.235-3.8634-0.44515-4.2159-2.1958-0.04236-0.19424-0.09046-0.37672-0.10979-0.54894z"/>
  </g>
  <g id="g4261">
   <path id="path4169" style="opacity:.5;fill:#162d50" transform="translate(-2.1429 -4.4894)" d="m77.469 66.781c-1.071 0.038-2.133 0.352-3.094 0.969a0.41426 0.41426 0 0 0 -0.0625 0.03125c-0.85747 0.81693-1.3975 2.1584-0.90625 3.375 0.28832 0.75959 0.89836 1.2099 1.3438 1.625a0.41426 0.41426 0 0 0 0.03125 0c1.1602 0.93734 2.6455 1.5358 4.1875 1.4375 1.0709-0.06028 2.1116-0.6351 2.625-1.625 0.19713-0.40879 0.5677-0.88841 0.6875-1.5312 0.0019-0.01035-0.0018-0.02081 0-0.03125 0.307-1.402-0.442-2.8-1.593-3.531a0.41426 0.41426 0 0 0 -0.03125 -0.03125c-1.0299-0.48814-2.1146-0.72579-3.1875-0.6875z"/>
   <path id="path4124" style="fill:url(#radialGradient4156)" d="m72.448 62.996c-0.75628 0.72053-1.2091 1.8819-0.80027 2.8944 0.23408 0.6167 0.76816 1.0344 1.2355 1.4699 1.0916 0.88191 2.4987 1.4501 3.9166 1.3598 0.93573-0.05267 1.845-0.5777 2.2818-1.42 0.22651-0.46972 0.55559-0.89979 0.64635-1.4269 0.2784-1.2116-0.3824-2.4857-1.4052-3.1352-1.9529-0.9256-4.075-0.89813-5.8748 0.25797z"/>
   <path id="path4143" style="opacity:.9;fill:#fff" transform="matrix(1.1669 .42020 -.32831 .88167 77.564 -7.0664)" d="m20.703 70.965a1.2422 1.0192 0 1 1 -2.4844 0 1.2422 1.0192 0 1 1 2.4844 0z"/>
   <path id="path4158" style="opacity:.5;fill:#fff" d="m72.076 63.455c-0.50608 0.70291-0.76969 1.6149-0.4375 2.4375 0.23408 0.6167 0.78268 1.0332 1.25 1.4688 1.0916 0.88191 2.4884 1.4341 3.9062 1.3438 0.93573-0.05267 1.8444-0.56395 2.2812-1.4062 0.0303-0.06283 0.0606-0.12576 0.09375-0.1875-0.48198 0.64485-1.2581 1.0485-2.0625 1.0938-1.4179 0.09035-2.8146-0.46184-3.9062-1.3438-0.46732-0.43554-1.0159-0.85205-1.25-1.4688-0.25553-0.63281-0.15637-1.3323 0.125-1.9375z"/>
  </g>
  <g id="g4273">
   <path id="path4208" style="opacity:.5;fill:#162d50" transform="translate(3.2143 6.7121)" d="m64.875 68.438c-1.5229 0.52214-3.8266 1.5894-5.2188 3-0.69607 0.7053-1.2083 1.5469-1.0938 2.4688 0.11329 0.91161 0.83366 1.7576 2.1562 2.5 0.01156 0.0076 0.01962 0.02372 0.03125 0.03125 1.6894 1.0943 4.0701 1.2592 6 0.5625 0.9716-0.35076 1.847-0.94604 2.4062-1.7812 0.55921-0.83521 0.78418-1.9136 0.53125-3.1562-0.38386-2.1828-2.4288-3.9202-4.7188-3.625a0.45515 0.45515 0 0 0 -0.09375 0z"/>
   <path id="path4171" style="fill:url(#radialGradient4191)" d="m68.244 74.946c-2.9451 1.0097-9.215 4.3231-4.0753 7.1694 3.0735 2.0259 9.2257 0.6826 8.2955-3.8878-0.34268-1.9486-2.1986-3.5422-4.2203-3.2816z"/>
   <path id="path4193" style="opacity:.9;fill:#fff" transform="matrix(1.1919 .35581 -.33534 .74658 69.843 16.659)" d="m20.703 70.965a1.2422 1.0192 0 1 1 -2.4844 0 1.2422 1.0192 0 1 1 2.4844 0z"/>
   <path id="path4195" style="opacity:.9;fill:#fff" transform="matrix(.64235 .16267 -.18073 .34131 71.286 50.866)" d="m20.703 70.965a1.2422 1.0192 0 1 1 -2.4844 0 1.2422 1.0192 0 1 1 2.4844 0z"/>
   <path id="path4197" style="opacity:.5;fill:#fff" d="m62.402 78.915c-0.46062 1.0342-0.1066 2.142 1.7812 3.1875 2.7291 1.7988 7.8423 0.94563 8.3125-2.4688-1.1119 2.7261-5.659 3.3335-8.1562 1.6875-1.4095-0.78055-1.9402-1.6126-1.9375-2.4062z"/>
  </g>
  <g id="g4267">
   <path id="path4210" style="opacity:.5;fill:#162d50" transform="translate(52.143 13.929)" d="m24.812 61.75c-0.23996-0.01798-0.47963-0.01998-0.71875 0.03125-0.70346 0.15072-1.3975 0.55046-1.7812 1.125-0.19189 0.28727-0.31422 0.63561-0.28125 1s0.24232 0.71375 0.5625 1.0312c0.57203 0.56831 1.3793 1.1609 2.2812 1.4375 0.90192 0.2766 1.956 0.21305 2.6875-0.59375 0.39794-0.41946 0.58512-0.90515 0.59375-1.375 0.0086-0.46985-0.17096-0.91006-0.4375-1.2812-0.502-0.7-1.34-1.163-2.218-1.219-0.049-0.022-0.105-0.013-0.156-0.031-0.174-0.061-0.346-0.111-0.532-0.125z"/>
   <path id="path4212" style="fill:url(#radialGradient4218)" d="m77.472 75.527c-1.3802-0.61534-3.9284 1.0052-2.4756 2.4459 1.0663 1.0594 3.1701 2.2198 4.4233 0.83753 1.3781-1.4526-0.36132-3.2799-1.9477-3.2834z"/>
   <path id="path4214" style="opacity:.9;fill:#fff" transform="matrix(.62585 .34761 -.26708 .48086 84.58 35.715)" d="m20.703 70.965a1.2422 1.0192 0 1 1 -2.4844 0 1.2422 1.0192 0 1 1 2.4844 0z"/>
   <path id="path4216" style="opacity:.5;fill:#fff" d="m75.362 75.866c-0.74698 0.50112-1.1661 1.3093-0.375 2.0938 1.0288 1.0222 3.0166 2.1331 4.2812 0.96875-1.2568 0.68942-3.0045-0.32303-3.9375-1.25-0.65657-0.65107-0.46939-1.3109 0.03125-1.8125z"/>
  </g>
  <g id="g4301" transform="matrix(1.1657 0 0 1.1657 -5.167 -2.5716)">
   <path id="path4220" style="opacity:.5;fill:#162d50" transform="matrix(.82679 .15495 -.15495 .82679 -22.96 -50.959)" d="m64.875 68.438c-1.5229 0.52214-3.8266 1.5894-5.2188 3-0.69607 0.7053-1.2083 1.5469-1.0938 2.4688 0.11329 0.91161 0.83366 1.7576 2.1562 2.5 0.01156 0.0076 0.01962 0.02372 0.03125 0.03125 1.6894 1.0943 4.0701 1.2592 6 0.5625 0.9716-0.35076 1.847-0.94604 2.4062-1.7812 0.55921-0.83521 0.78418-1.9136 0.53125-3.1562-0.38386-2.1828-2.4288-3.9202-4.7188-3.625a0.45515 0.45515 0 0 0 -0.09375 0z"/>
   <path id="path4222" style="fill:url(#radialGradient4316)" d="m20.233 15.532c-2.5915 0.37849-8.2887 2.1464-4.4803 5.2961 2.2272 2.1512 7.522 1.9939 7.4611-1.929 0.01862-1.6642-1.2689-3.2693-2.9808-3.3671z"/>
   <path id="path4224" style="opacity:.9;fill:#fff" transform="matrix(.93030 .47887 -.39294 .56531 30.587 -32.411)" d="m20.703 70.965a1.2422 1.0192 0 1 1 -2.4844 0 1.2422 1.0192 0 1 1 2.4844 0z"/>
   <path id="path4226" style="opacity:.9;fill:#fff" transform="matrix(.50589 .23403 -.20231 .25419 26.479 -3.9055)" d="m20.703 70.965a1.2422 1.0192 0 1 1 -2.4844 0 1.2422 1.0192 0 1 1 2.4844 0z"/>
   <path id="path4228" style="opacity:.5;fill:#fff" d="m14.787 17.909c-0.54109 0.78369-0.42005 1.7545 0.97881 2.9114 1.9776 1.9102 6.3374 1.997 7.2553-0.7531-1.3417 2.0817-5.1954 1.8793-7.005 0.13138-1.0444-0.86376-1.3543-1.6339-1.2291-2.2897z"/>
  </g>
  <g id="g4308">
   <path id="path4232" style="opacity:.5;fill:#162d50" transform="matrix(.61454 0 0 .61454 -22.854 11.18)" d="m75.375 20.062c-0.29738 0.07576-0.57557 0.20932-0.8125 0.375-0.47386 0.33135-0.86798 0.7614-1.1875 1.0312-1.1331 0.84596-2.4698 2.0513-3.25 3.4688-0.39009 0.70872-0.64525 1.4843-0.625 2.2812 0.02025 0.79699 0.32215 1.5918 0.96875 2.3438a0.39841 0.39841 0 0 0 0.031 0.032c1.0986 1.2056 2.8587 1.8102 4.5312 1.7188 1.6726-0.0915 3.2941-0.95525 3.9062-2.7188 0.49382-1.4239 0.66473-3.1548 0.3125-4.75s-1.2557-3.0768-2.9062-3.75a0.39841 0.39841 0 0 0 -0.03125 0c-0.332-0.108-0.641-0.107-0.938-0.032z"/>
   <path id="path4234" style="fill:url(#radialGradient4244)" d="m22.468 23.866c-1.36 1.0154-3.2104 2.9204-1.7465 4.6228 1.226 1.3454 4.1048 1.4554 4.7864-0.5082 0.57706-1.664 0.39546-4.1555-1.4645-4.9141-0.63612-0.20682-1.1453 0.43629-1.5753 0.79949z"/>
   <path id="path4236" style="opacity:.9;fill:#fff" transform="matrix(.38529 .24602 -.24602 .38529 28.556 -12.403)" d="m36.916 73.141a1.976 1.1228 0 1 1 -3.9521 0 1.976 1.1228 0 1 1 3.9521 0z"/>
   <path id="path4238" style="opacity:.5;fill:#fff" d="m20.855 25.449c-0.68834 0.93233-1.0141 2.0113-0.13443 3.0343 1.1703 1.2843 3.8331 1.4466 4.6666-0.24966-1.0583 1.18-3.3111 0.93913-4.3594-0.21125-0.73193-0.85118-0.62244-1.7574-0.17284-2.5734z"/>
   <path id="path4240" style="opacity:.9;fill:#fff" transform="matrix(.38529 .24602 -.24602 .38529 28.556 -12.403)" d="m36.916 73.141a1.976 1.1228 0 1 1 -3.9521 0 1.976 1.1228 0 1 1 3.9521 0z"/>
   <path id="path4242" style="opacity:.9;fill:#fff" transform="matrix(.24566 .15686 -.15686 .24566 27.755 2.4516)" d="m36.916 73.141a1.976 1.1228 0 1 1 -3.9521 0 1.976 1.1228 0 1 1 3.9521 0z"/>
  </g>
  <g id="g4318" transform="matrix(.41555 0 0 .41555 2.3637 13.804)">
   <path id="path4320" style="opacity:.5;fill:#162d50" d="m32.844 71.062c-2.4621 0.47955-4.7658 2.018-5.9375 4.3125a0.60151 0.60151 0 0 0 -0.031 0.064c-0.5869 1.4674 0.09545 2.9559 0.875 4 0.0079 0.01052 0.02338 0.02082 0.03125 0.03125 0.77033 1.0785 1.8469 1.9897 3.1562 2.4375 1.1277 0.39872 2.4108 0.5381 3.625 0.125a0.60151 0.60151 0 0 0 0.094 -0.032c1.7425-0.85832 3.5499-2.1372 4.2812-4.1875 0.0032-0.0091-0.0032-0.02215 0-0.03125 0.33894-0.90428 0.357-2.0324-0.28125-2.9062-0.0046-0.0064-0.02666 0.0063-0.03125 0-0.0047-0.0065 0.0047-0.0248 0-0.03125-0.78419-1.0714-1.8538-1.6497-2.5-2.4062a0.60151 0.60151 0 0 0 -0.09375 -0.09375c-0.84342-0.69148-1.8691-1.1778-3-1.2812a0.60151 0.60151 0 0 0 -0.1875 0z"/>
   <path id="path4322" style="fill:url(#radialGradient4328)" d="m32.964 70.671c-2.2918 0.44638-4.4458 1.8835-5.5195 3.9861-0.4765 1.1914 0.08385 2.4883 0.80804 3.4476 0.71224 1.0092 1.6916 1.846 2.8713 2.2494 1.0306 0.36436 2.1993 0.48138 3.2458 0.12533 1.6841-0.82954 3.3604-2.058 4.0051-3.8955 0.29541-0.769 0.2898-1.6878-0.22234-2.3657-0.68011-0.94792-1.7423-1.52-2.4944-2.4006-0.76419-0.62652-1.7046-1.0562-2.6939-1.1467z"/>
   <path id="path4324" style="opacity:.9;fill:#fff" transform="matrix(.94813 .31787 -.31787 .94813 23.894 -7.3129)" d="m36.916 73.141a1.976 1.1228 0 1 1 -3.9521 0 1.976 1.1228 0 1 1 3.9521 0z"/>
   <path id="path4326" style="opacity:.5;fill:#fff" d="m27.75 74.156c-0.10393 0.16578-0.22303 0.32478-0.3125 0.5-0.4765 1.1914 0.08831 2.4782 0.8125 3.4375 0.71224 1.0092 1.6954 1.8465 2.875 2.25 1.0306 0.36436 2.2035 0.48105 3.25 0.125 1.6139-0.79498 3.2077-1.9436 3.9062-3.6562-0.80889 1.3134-2.163 2.2635-3.5312 2.9375-1.0465 0.35605-2.2194 0.23936-3.25-0.125-1.1796-0.40346-2.1628-1.2408-2.875-2.25-0.67892-0.89932-1.2034-2.0911-0.875-3.2188z"/>
  </g>
 </g>
</svg>
